  0
SECTION
  2
BLOCKS
  0
ENDSEC
  0
SECTION
  2
ENTITIES
  0
LINE
  8
0
 10
-41.077
 11
-41.077
 20
41.077
 21
59.333
  0
LINE
  8
0
 10
-41.077
 11
-22.82
 20
59.333
 21
59.333
  0
LINE
  8
0
 10
-22.82
 11
-22.82
 20
59.333
 21
77.589
  0
LINE
  8
0
 10
-22.82
 11
13.692
 20
77.589
 21
77.589
  0
LINE
  8
0
 10
13.692
 11
13.692
 20
77.589
 21
68.461
  0
LINE
  8
0
 10
13.692
 11
-13.692
 20
68.461
 21
68.461
  0
LINE
  8
0
 10
-13.692
 11
-13.692
 20
68.461
 21
50.205
  0
LINE
  8
0
 10
-13.692
 11
-31.948
 20
50.205
 21
50.205
  0
LINE
  8
0
 10
-31.948
 11
-31.948
 20
50.205
 21
41.077
  0
LINE
  8
0
 10
-31.948
 11
-41.077
 20
41.077
 21
41.077
  0
LINE
  8
0
 10
-39.512
 11
-39.512
 20
3
 21
21.256
  0
LINE
  8
0
 10
-39.512
 11
-21.256
 20
21.256
 21
21.256
  0
LINE
  8
0
 10
-21.256
 11
-21.256
 20
21.256
 21
12.128
  0
LINE
  8
0
 10
-21.256
 11
-30.384
 20
12.128
 21
12.128
  0
LINE
  8
0
 10
-30.384
 11
-30.384
 20
12.128
 21
3
  0
LINE
  8
0
 10
-30.384
 11
-39.512
 20
3
 21
3
  0
LINE
  8
0
 10
-30.948
 11
-30.948
 20
30.948
 21
49.205
  0
LINE
  8
0
 10
-30.948
 11
-12.692
 20
49.205
 21
49.205
  0
LINE
  8
0
 10
-12.692
 11
-12.692
 20
49.205
 21
67.461
  0
LINE
  8
0
 10
-12.692
 11
23.82
 20
67.461
 21
67.461
  0
LINE
  8
0
 10
23.82
 11
23.82
 20
67.461
 21
58.333
  0
LINE
  8
0
 10
23.82
 11
-3.564
 20
58.333
 21
58.333
  0
LINE
  8
0
 10
-3.564
 11
-3.564
 20
58.333
 21
40.077
  0
LINE
  8
0
 10
-3.564
 11
-21.82
 20
40.077
 21
40.077
  0
LINE
  8
0
 10
-21.82
 11
-21.82
 20
40.077
 21
30.948
  0
LINE
  8
0
 10
-21.82
 11
-30.948
 20
30.948
 21
30.948
  0
LINE
  8
0
 10
-29.384
 11
-29.384
 20
-7.128
 21
11.128
  0
LINE
  8
0
 10
-29.384
 11
-11.128
 20
11.128
 21
11.128
  0
LINE
  8
0
 10
-11.128
 11
-11.128
 20
11.128
 21
2
  0
LINE
  8
0
 10
-11.128
 11
-20.256
 20
2
 21
2
  0
LINE
  8
0
 10
-20.256
 11
-20.256
 20
2
 21
-7.128
  0
LINE
  8
0
 10
-20.256
 11
-29.384
 20
-7.128
 21
-7.128
  0
LINE
  8
0
 10
-20.82
 11
-20.82
 20
20.82
 21
39.077
  0
LINE
  8
0
 10
-20.82
 11
-2.564
 20
39.077
 21
39.077
  0
LINE
  8
0
 10
-2.564
 11
-2.564
 20
39.077
 21
57.333
  0
LINE
  8
0
 10
-2.564
 11
33.948
 20
57.333
 21
57.333
  0
LINE
  8
0
 10
33.948
 11
33.948
 20
57.333
 21
48.205
  0
LINE
  8
0
 10
33.948
 11
6.564
 20
48.205
 21
48.205
  0
LINE
  8
0
 10
6.564
 11
6.564
 20
48.205
 21
29.948
  0
LINE
  8
0
 10
6.564
 11
-11.692
 20
29.948
 21
29.948
  0
LINE
  8
0
 10
-11.692
 11
-11.692
 20
29.948
 21
20.82
  0
LINE
  8
0
 10
-11.692
 11
-20.82
 20
20.82
 21
20.82
  0
LINE
  8
0
 10
-19.256
 11
-19.256
 20
-17.256
 21
1
  0
LINE
  8
0
 10
-19.256
 11
-1
 20
1
 21
1
  0
LINE
  8
0
 10
-1
 11
-1
 20
1
 21
-8.128
  0
LINE
  8
0
 10
-1
 11
-10.128
 20
-8.128
 21
-8.128
  0
LINE
  8
0
 10
-10.128
 11
-10.128
 20
-8.128
 21
-17.256
  0
LINE
  8
0
 10
-10.128
 11
-19.256
 20
-17.256
 21
-17.256
  0
LINE
  8
0
 10
-10.692
 11
-10.692
 20
10.692
 21
28.948
  0
LINE
  8
0
 10
-10.692
 11
7.564
 20
28.948
 21
28.948
  0
LINE
  8
0
 10
7.564
 11
7.564
 20
28.948
 21
47.205
  0
LINE
  8
0
 10
7.564
 11
44.077
 20
47.205
 21
47.205
  0
LINE
  8
0
 10
44.077
 11
44.077
 20
47.205
 21
38.077
  0
LINE
  8
0
 10
44.077
 11
16.692
 20
38.077
 21
38.077
  0
LINE
  8
0
 10
16.692
 11
16.692
 20
38.077
 21
19.82
  0
LINE
  8
0
 10
16.692
 11
-1.564
 20
19.82
 21
19.82
  0
LINE
  8
0
 10
-1.564
 11
-1.564
 20
19.82
 21
10.692
  0
LINE
  8
0
 10
-1.564
 11
-10.692
 20
10.692
 21
10.692
  0
LINE
  8
0
 10
-9.128
 11
-9.128
 20
-27.384
 21
-9.128
  0
LINE
  8
0
 10
-9.128
 11
9.128
 20
-9.128
 21
-9.128
  0
LINE
  8
0
 10
9.128
 11
9.128
 20
-9.128
 21
-18.256
  0
LINE
  8
0
 10
9.128
 11
0
 20
-18.256
 21
-18.256
  0
LINE
  8
0
 10
0
 11
0
 20
-18.256
 21
-27.384
  0
LINE
  8
0
 10
0
 11
-9.128
 20
-27.384
 21
-27.384
  0
LINE
  8
0
 10
0
 11
0
 20
0
 21
18.256
  0
LINE
  8
0
 10
0
 11
27.384
 20
18.256
 21
18.256
  0
LINE
  8
0
 10
27.384
 11
27.384
 20
18.256
 21
36.512
  0
LINE
  8
0
 10
27.384
 11
36.512
 20
36.512
 21
36.512
  0
LINE
  8
0
 10
36.512
 11
36.512
 20
36.512
 21
9.128
  0
LINE
  8
0
 10
36.512
 11
9.128
 20
9.128
 21
9.128
  0
LINE
  8
0
 10
9.128
 11
9.128
 20
9.128
 21
0
  0
LINE
  8
0
 10
9.128
 11
0
 20
0
 21
0
  0
LINE
  8
0
 10
10.128
 11
10.128
 20
-10.128
 21
8.128
  0
LINE
  8
0
 10
10.128
 11
37.512
 20
8.128
 21
8.128
  0
LINE
  8
0
 10
37.512
 11
37.512
 20
8.128
 21
26.384
  0
LINE
  8
0
 10
37.512
 11
46.641
 20
26.384
 21
26.384
  0
LINE
  8
0
 10
46.641
 11
46.641
 20
26.384
 21
-1
  0
LINE
  8
0
 10
46.641
 11
19.256
 20
-1
 21
-1
  0
LINE
  8
0
 10
19.256
 11
19.256
 20
-1
 21
-10.128
  0
LINE
  8
0
 10
19.256
 11
10.128
 20
-10.128
 21
-10.128
  0
LINE
  8
0
 10
20.256
 11
20.256
 20
-20.256
 21
-2
  0
LINE
  8
0
 10
20.256
 11
47.641
 20
-2
 21
-2
  0
LINE
  8
0
 10
47.641
 11
47.641
 20
-2
 21
16.256
  0
LINE
  8
0
 10
47.641
 11
56.769
 20
16.256
 21
16.256
  0
LINE
  8
0
 10
56.769
 11
56.769
 20
16.256
 21
-11.128
  0
LINE
  8
0
 10
56.769
 11
29.384
 20
-11.128
 21
-11.128
  0
LINE
  8
0
 10
29.384
 11
29.384
 20
-11.128
 21
-20.256
  0
LINE
  8
0
 10
29.384
 11
20.256
 20
-20.256
 21
-20.256
  0
LINE
  8
0
 10
30.384
 11
30.384
 20
-30.384
 21
-12.128
  0
LINE
  8
0
 10
30.384
 11
57.769
 20
-12.128
 21
-12.128
  0
LINE
  8
0
 10
57.769
 11
57.769
 20
-12.128
 21
6.128
  0
LINE
  8
0
 10
57.769
 11
66.897
 20
6.128
 21
6.128
  0
LINE
  8
0
 10
66.897
 11
66.897
 20
6.128
 21
-21.256
  0
LINE
  8
0
 10
66.897
 11
39.512
 20
-21.256
 21
-21.256
  0
LINE
  8
0
 10
39.512
 11
39.512
 20
-21.256
 21
-30.384
  0
LINE
  8
0
 10
39.512
 11
30.384
 20
-30.384
 21
-30.384
  0
LINE
  8
0
 10
45.641
 11
45.641
 20
31.948
 21
41.077
  0
LINE
  8
0
 10
45.641
 11
54.769
 20
41.077
 21
41.077
  0
LINE
  8
0
 10
54.769
 11
54.769
 20
41.077
 21
31.948
  0
LINE
  8
0
 10
54.769
 11
45.641
 20
31.948
 21
31.948
  0
LINE
  8
0
 10
45.641
 11
45.641
 20
42.077
 21
51.205
  0
LINE
  8
0
 10
45.641
 11
54.769
 20
51.205
 21
51.205
  0
LINE
  8
0
 10
54.769
 11
54.769
 20
51.205
 21
42.077
  0
LINE
  8
0
 10
54.769
 11
45.641
 20
42.077
 21
42.077
  0
LINE
  8
0
 10
45.641
 11
45.641
 20
52.205
 21
61.333
  0
LINE
  8
0
 10
45.641
 11
54.769
 20
61.333
 21
61.333
  0
LINE
  8
0
 10
54.769
 11
54.769
 20
61.333
 21
52.205
  0
LINE
  8
0
 10
54.769
 11
45.641
 20
52.205
 21
52.205
  0
LINE
  8
0
 10
45.641
 11
45.641
 20
62.333
 21
71.461
  0
LINE
  8
0
 10
45.641
 11
54.769
 20
71.461
 21
71.461
  0
LINE
  8
0
 10
54.769
 11
54.769
 20
71.461
 21
62.333
  0
LINE
  8
0
 10
54.769
 11
45.641
 20
62.333
 21
62.333
  0
LINE
  8
0
 10
55.769
 11
55.769
 20
31.948
 21
41.077
  0
LINE
  8
0
 10
55.769
 11
64.897
 20
41.077
 21
41.077
  0
LINE
  8
0
 10
64.897
 11
64.897
 20
41.077
 21
31.948
  0
LINE
  8
0
 10
64.897
 11
55.769
 20
31.948
 21
31.948
  0
LINE
  8
0
 10
55.769
 11
55.769
 20
42.077
 21
51.205
  0
LINE
  8
0
 10
55.769
 11
64.897
 20
51.205
 21
51.205
  0
LINE
  8
0
 10
64.897
 11
64.897
 20
51.205
 21
42.077
  0
LINE
  8
0
 10
64.897
 11
55.769
 20
42.077
 21
42.077
  0
LINE
  8
0
 10
55.769
 11
55.769
 20
52.205
 21
61.333
  0
LINE
  8
0
 10
55.769
 11
64.897
 20
61.333
 21
61.333
  0
LINE
  8
0
 10
64.897
 11
64.897
 20
61.333
 21
52.205
  0
LINE
  8
0
 10
64.897
 11
55.769
 20
52.205
 21
52.205
  0
LINE
  8
0
 10
55.769
 11
55.769
 20
62.333
 21
71.461
  0
LINE
  8
0
 10
55.769
 11
64.897
 20
71.461
 21
71.461
  0
LINE
  8
0
 10
64.897
 11
64.897
 20
71.461
 21
62.333
  0
LINE
  8
0
 10
64.897
 11
55.769
 20
62.333
 21
62.333
  0
LINE
  8
0
 10
65.897
 11
65.897
 20
31.948
 21
41.077
  0
LINE
  8
0
 10
65.897
 11
75.025
 20
41.077
 21
41.077
  0
LINE
  8
0
 10
75.025
 11
75.025
 20
41.077
 21
31.948
  0
LINE
  8
0
 10
75.025
 11
65.897
 20
31.948
 21
31.948
  0
LINE
  8
0
 10
65.897
 11
65.897
 20
42.077
 21
51.205
  0
LINE
  8
0
 10
65.897
 11
75.025
 20
51.205
 21
51.205
  0
LINE
  8
0
 10
75.025
 11
75.025
 20
51.205
 21
42.077
  0
LINE
  8
0
 10
75.025
 11
65.897
 20
42.077
 21
42.077
  0
LINE
  8
0
 10
65.897
 11
65.897
 20
52.205
 21
61.333
  0
LINE
  8
0
 10
65.897
 11
75.025
 20
61.333
 21
61.333
  0
LINE
  8
0
 10
75.025
 11
75.025
 20
61.333
 21
52.205
  0
LINE
  8
0
 10
75.025
 11
65.897
 20
52.205
 21
52.205
  0
LINE
  8
0
 10
65.897
 11
65.897
 20
62.333
 21
71.461
  0
LINE
  8
0
 10
65.897
 11
75.025
 20
71.461
 21
71.461
  0
LINE
  8
0
 10
75.025
 11
75.025
 20
71.461
 21
62.333
  0
LINE
  8
0
 10
75.025
 11
65.897
 20
62.333
 21
62.333
  0
LINE
  8
0
 10
76.025
 11
76.025
 20
31.948
 21
41.077
  0
LINE
  8
0
 10
76.025
 11
85.153
 20
41.077
 21
41.077
  0
LINE
  8
0
 10
85.153
 11
85.153
 20
41.077
 21
31.948
  0
LINE
  8
0
 10
85.153
 11
76.025
 20
31.948
 21
31.948
  0
LINE
  8
0
 10
76.025
 11
76.025
 20
42.077
 21
51.205
  0
LINE
  8
0
 10
76.025
 11
85.153
 20
51.205
 21
51.205
  0
LINE
  8
0
 10
85.153
 11
85.153
 20
51.205
 21
42.077
  0
LINE
  8
0
 10
85.153
 11
76.025
 20
42.077
 21
42.077
  0
LINE
  8
0
 10
76.025
 11
76.025
 20
52.205
 21
61.333
  0
LINE
  8
0
 10
76.025
 11
85.153
 20
61.333
 21
61.333
  0
LINE
  8
0
 10
85.153
 11
85.153
 20
61.333
 21
52.205
  0
LINE
  8
0
 10
85.153
 11
76.025
 20
52.205
 21
52.205
  0
LINE
  8
0
 10
76.025
 11
76.025
 20
62.333
 21
71.461
  0
LINE
  8
0
 10
76.025
 11
85.153
 20
71.461
 21
71.461
  0
LINE
  8
0
 10
85.153
 11
85.153
 20
71.461
 21
62.333
  0
LINE
  8
0
 10
85.153
 11
76.025
 20
62.333
 21
62.333
  0
ENDSEC
  0
SECTION
  2
OBJECTS
  0
DICTIONARY
  0
ENDSEC
  0
EOF
