  0
SECTION
  2
BLOCKS
  0
ENDSEC
  0
SECTION
  2
ENTITIES
  0
LINE
  8
0
 10
-73.025
 11
-73.025
 20
-210.897
 21
-201.869
  0
LINE
  8
0
 10
-73.025
 11
-70.025
 20
-201.869
 21
-201.869
  0
LINE
  8
0
 10
-70.025
 11
-70.025
 20
-201.869
 21
-192.641
  0
LINE
  8
0
 10
-70.025
 11
-73.025
 20
-192.641
 21
-192.641
  0
LINE
  8
0
 10
-73.025
 11
-73.025
 20
-192.641
 21
-183.612
  0
LINE
  8
0
 10
-73.025
 11
-70.025
 20
-183.612
 21
-183.612
  0
LINE
  8
0
 10
-70.025
 11
-70.025
 20
-183.612
 21
-174.384
  0
LINE
  8
0
 10
-70.025
 11
-73.025
 20
-174.384
 21
-174.384
  0
LINE
  8
0
 10
-73.025
 11
-73.025
 20
-174.384
 21
-165.356
  0
LINE
  8
0
 10
-73.025
 11
-70.025
 20
-165.356
 21
-165.356
  0
LINE
  8
0
 10
-70.025
 11
-70.025
 20
-165.356
 21
-156.128
  0
LINE
  8
0
 10
-70.025
 11
-73.025
 20
-156.128
 21
-156.128
  0
LINE
  8
0
 10
-73.025
 11
-73.025
 20
-156.128
 21
-147.1
  0
LINE
  8
0
 10
-73.025
 11
-70.025
 20
-147.1
 21
-147.1
  0
LINE
  8
0
 10
-70.025
 11
-70.025
 20
-147.1
 21
-137.872
  0
LINE
  8
0
 10
-70.025
 11
-73.025
 20
-137.872
 21
-137.872
  0
LINE
  8
0
 10
-73.025
 11
-73.025
 20
-137.872
 21
-128.844
  0
LINE
  8
0
 10
-73.025
 11
-70.025
 20
-128.844
 21
-128.844
  0
LINE
  8
0
 10
-70.025
 11
-70.025
 20
-128.844
 21
-119.616
  0
LINE
  8
0
 10
-70.025
 11
-73.025
 20
-119.616
 21
-119.616
  0
LINE
  8
0
 10
-73.025
 11
-73.025
 20
-119.616
 21
-110.587
  0
LINE
  8
0
 10
-73.025
 11
-70.025
 20
-110.587
 21
-110.587
  0
LINE
  8
0
 10
-70.025
 11
-70.025
 20
-110.587
 21
-101.359
  0
LINE
  8
0
 10
-70.025
 11
-73.025
 20
-101.359
 21
-101.359
  0
LINE
  8
0
 10
-73.025
 11
-73.025
 20
-101.359
 21
-92.331
  0
LINE
  8
0
 10
-73.025
 11
-70.025
 20
-92.331
 21
-92.331
  0
LINE
  8
0
 10
-70.025
 11
-70.025
 20
-92.331
 21
-83.103
  0
LINE
  8
0
 10
-70.025
 11
-73.025
 20
-83.103
 21
-83.103
  0
LINE
  8
0
 10
-73.025
 11
-73.025
 20
-83.103
 21
-77.025
  0
LINE
  8
0
 10
-73.025
 11
-72.975
 20
-77.025
 21
-77.025
  0
LINE
  8
0
 10
-72.975
 11
-72.975
 20
-77.025
 21
-74.075
  0
LINE
  8
0
 10
-72.975
 11
-70.025
 20
-74.075
 21
-74.075
  0
LINE
  8
0
 10
-70.025
 11
-70.025
 20
-74.075
 21
-74.025
  0
LINE
  8
0
 10
-70.025
 11
-63.947
 20
-74.025
 21
-74.025
  0
LINE
  8
0
 10
-63.947
 11
-63.947
 20
-74.025
 21
-77.025
  0
LINE
  8
0
 10
-63.947
 11
-54.719
 20
-77.025
 21
-77.025
  0
LINE
  8
0
 10
-54.719
 11
-54.719
 20
-77.025
 21
-74.025
  0
LINE
  8
0
 10
-54.719
 11
-45.691
 20
-74.025
 21
-74.025
  0
LINE
  8
0
 10
-45.691
 11
-45.691
 20
-74.025
 21
-77.025
  0
LINE
  8
0
 10
-45.691
 11
-36.463
 20
-77.025
 21
-77.025
  0
LINE
  8
0
 10
-36.463
 11
-36.463
 20
-77.025
 21
-74.025
  0
LINE
  8
0
 10
-36.463
 11
-27.434
 20
-74.025
 21
-74.025
  0
LINE
  8
0
 10
-27.434
 11
-27.434
 20
-74.025
 21
-77.025
  0
LINE
  8
0
 10
-27.434
 11
-18.206
 20
-77.025
 21
-77.025
  0
LINE
  8
0
 10
-18.206
 11
-18.206
 20
-77.025
 21
-74.025
  0
LINE
  8
0
 10
-18.206
 11
-9.178
 20
-74.025
 21
-74.025
  0
LINE
  8
0
 10
-9.178
 11
-9.178
 20
-74.025
 21
-77.025
  0
LINE
  8
0
 10
-9.178
 11
0.05
 20
-77.025
 21
-77.025
  0
LINE
  8
0
 10
0.05
 11
0.05
 20
-77.025
 21
-74.025
  0
LINE
  8
0
 10
0.05
 11
9.078
 20
-74.025
 21
-74.025
  0
LINE
  8
0
 10
9.078
 11
9.078
 20
-74.025
 21
-77.025
  0
LINE
  8
0
 10
9.078
 11
18.306
 20
-77.025
 21
-77.025
  0
LINE
  8
0
 10
18.306
 11
18.306
 20
-77.025
 21
-74.025
  0
LINE
  8
0
 10
18.306
 11
27.334
 20
-74.025
 21
-74.025
  0
LINE
  8
0
 10
27.334
 11
27.334
 20
-74.025
 21
-77.025
  0
LINE
  8
0
 10
27.334
 11
36.562
 20
-77.025
 21
-77.025
  0
LINE
  8
0
 10
36.562
 11
36.562
 20
-77.025
 21
-74.025
  0
LINE
  8
0
 10
36.562
 11
45.591
 20
-74.025
 21
-74.025
  0
LINE
  8
0
 10
45.591
 11
45.591
 20
-74.025
 21
-77.025
  0
LINE
  8
0
 10
45.591
 11
54.819
 20
-77.025
 21
-77.025
  0
LINE
  8
0
 10
54.819
 11
54.819
 20
-77.025
 21
-74.025
  0
LINE
  8
0
 10
54.819
 11
63.847
 20
-74.025
 21
-74.025
  0
LINE
  8
0
 10
63.847
 11
63.847
 20
-74.025
 21
-77.025
  0
LINE
  8
0
 10
63.847
 11
70.025
 20
-77.025
 21
-77.025
  0
LINE
  8
0
 10
70.025
 11
70.025
 20
-77.025
 21
-83.203
  0
LINE
  8
0
 10
70.025
 11
73.025
 20
-83.203
 21
-83.203
  0
LINE
  8
0
 10
73.025
 11
73.025
 20
-83.203
 21
-92.231
  0
LINE
  8
0
 10
73.025
 11
70.025
 20
-92.231
 21
-92.231
  0
LINE
  8
0
 10
70.025
 11
70.025
 20
-92.231
 21
-101.459
  0
LINE
  8
0
 10
70.025
 11
73.025
 20
-101.459
 21
-101.459
  0
LINE
  8
0
 10
73.025
 11
73.025
 20
-101.459
 21
-110.488
  0
LINE
  8
0
 10
73.025
 11
70.025
 20
-110.488
 21
-110.488
  0
LINE
  8
0
 10
70.025
 11
70.025
 20
-110.488
 21
-119.716
  0
LINE
  8
0
 10
70.025
 11
73.025
 20
-119.716
 21
-119.716
  0
LINE
  8
0
 10
73.025
 11
73.025
 20
-119.716
 21
-128.744
  0
LINE
  8
0
 10
73.025
 11
70.025
 20
-128.744
 21
-128.744
  0
LINE
  8
0
 10
70.025
 11
70.025
 20
-128.744
 21
-137.972
  0
LINE
  8
0
 10
70.025
 11
73.025
 20
-137.972
 21
-137.972
  0
LINE
  8
0
 10
73.025
 11
73.025
 20
-137.972
 21
-147
  0
LINE
  8
0
 10
73.025
 11
70.025
 20
-147
 21
-147
  0
LINE
  8
0
 10
70.025
 11
70.025
 20
-147
 21
-156.228
  0
LINE
  8
0
 10
70.025
 11
73.025
 20
-156.228
 21
-156.228
  0
LINE
  8
0
 10
73.025
 11
73.025
 20
-156.228
 21
-165.256
  0
LINE
  8
0
 10
73.025
 11
70.025
 20
-165.256
 21
-165.256
  0
LINE
  8
0
 10
70.025
 11
70.025
 20
-165.256
 21
-174.484
  0
LINE
  8
0
 10
70.025
 11
73.025
 20
-174.484
 21
-174.484
  0
LINE
  8
0
 10
73.025
 11
73.025
 20
-174.484
 21
-183.513
  0
LINE
  8
0
 10
73.025
 11
70.025
 20
-183.513
 21
-183.513
  0
LINE
  8
0
 10
70.025
 11
70.025
 20
-183.513
 21
-192.741
  0
LINE
  8
0
 10
70.025
 11
73.025
 20
-192.741
 21
-192.741
  0
LINE
  8
0
 10
73.025
 11
73.025
 20
-192.741
 21
-201.769
  0
LINE
  8
0
 10
73.025
 11
70.025
 20
-201.769
 21
-201.769
  0
LINE
  8
0
 10
70.025
 11
70.025
 20
-201.769
 21
-210.997
  0
LINE
  8
0
 10
70.025
 11
73.025
 20
-210.997
 21
-210.997
  0
LINE
  8
0
 10
73.025
 11
73.025
 20
-210.997
 21
-217.075
  0
LINE
  8
0
 10
73.025
 11
72.975
 20
-217.075
 21
-217.075
  0
LINE
  8
0
 10
72.975
 11
72.975
 20
-217.075
 21
-220.025
  0
LINE
  8
0
 10
72.975
 11
70.025
 20
-220.025
 21
-220.025
  0
LINE
  8
0
 10
70.025
 11
70.025
 20
-220.025
 21
-220.075
  0
LINE
  8
0
 10
70.025
 11
63.947
 20
-220.075
 21
-220.075
  0
LINE
  8
0
 10
63.947
 11
63.947
 20
-220.075
 21
-217.075
  0
LINE
  8
0
 10
63.947
 11
54.719
 20
-217.075
 21
-217.075
  0
LINE
  8
0
 10
54.719
 11
54.719
 20
-217.075
 21
-220.075
  0
LINE
  8
0
 10
54.719
 11
45.691
 20
-220.075
 21
-220.075
  0
LINE
  8
0
 10
45.691
 11
45.691
 20
-220.075
 21
-217.075
  0
LINE
  8
0
 10
45.691
 11
36.463
 20
-217.075
 21
-217.075
  0
LINE
  8
0
 10
36.463
 11
36.463
 20
-217.075
 21
-220.075
  0
LINE
  8
0
 10
36.463
 11
27.434
 20
-220.075
 21
-220.075
  0
LINE
  8
0
 10
27.434
 11
27.434
 20
-220.075
 21
-217.075
  0
LINE
  8
0
 10
27.434
 11
18.206
 20
-217.075
 21
-217.075
  0
LINE
  8
0
 10
18.206
 11
18.206
 20
-217.075
 21
-220.075
  0
LINE
  8
0
 10
18.206
 11
9.178
 20
-220.075
 21
-220.075
  0
LINE
  8
0
 10
9.178
 11
9.178
 20
-220.075
 21
-217.075
  0
LINE
  8
0
 10
9.178
 11
-0.05
 20
-217.075
 21
-217.075
  0
LINE
  8
0
 10
-0.05
 11
-0.05
 20
-217.075
 21
-220.075
  0
LINE
  8
0
 10
-0.05
 11
-9.078
 20
-220.075
 21
-220.075
  0
LINE
  8
0
 10
-9.078
 11
-9.078
 20
-220.075
 21
-217.075
  0
LINE
  8
0
 10
-9.078
 11
-18.306
 20
-217.075
 21
-217.075
  0
LINE
  8
0
 10
-18.306
 11
-18.306
 20
-217.075
 21
-220.075
  0
LINE
  8
0
 10
-18.306
 11
-27.334
 20
-220.075
 21
-220.075
  0
LINE
  8
0
 10
-27.334
 11
-27.334
 20
-220.075
 21
-217.075
  0
LINE
  8
0
 10
-27.334
 11
-36.562
 20
-217.075
 21
-217.075
  0
LINE
  8
0
 10
-36.562
 11
-36.562
 20
-217.075
 21
-220.075
  0
LINE
  8
0
 10
-36.562
 11
-45.591
 20
-220.075
 21
-220.075
  0
LINE
  8
0
 10
-45.591
 11
-45.591
 20
-220.075
 21
-217.075
  0
LINE
  8
0
 10
-45.591
 11
-54.819
 20
-217.075
 21
-217.075
  0
LINE
  8
0
 10
-54.819
 11
-54.819
 20
-217.075
 21
-220.075
  0
LINE
  8
0
 10
-54.819
 11
-63.847
 20
-220.075
 21
-220.075
  0
LINE
  8
0
 10
-63.847
 11
-63.847
 20
-220.075
 21
-217.075
  0
LINE
  8
0
 10
-63.847
 11
-70.025
 20
-217.075
 21
-217.075
  0
LINE
  8
0
 10
-70.025
 11
-70.025
 20
-217.075
 21
-210.897
  0
LINE
  8
0
 10
-70.025
 11
-73.025
 20
-210.897
 21
-210.897
  0
LINE
  8
0
 10
-73.025
 11
-73.025
 20
-63.847
 21
-54.819
  0
LINE
  8
0
 10
-73.025
 11
-70.025
 20
-54.819
 21
-54.819
  0
LINE
  8
0
 10
-70.025
 11
-70.025
 20
-54.819
 21
-45.591
  0
LINE
  8
0
 10
-70.025
 11
-73.025
 20
-45.591
 21
-45.591
  0
LINE
  8
0
 10
-73.025
 11
-73.025
 20
-45.591
 21
-36.563
  0
LINE
  8
0
 10
-73.025
 11
-70.025
 20
-36.563
 21
-36.563
  0
LINE
  8
0
 10
-70.025
 11
-70.025
 20
-36.563
 21
-27.334
  0
LINE
  8
0
 10
-70.025
 11
-73.025
 20
-27.334
 21
-27.334
  0
LINE
  8
0
 10
-73.025
 11
-73.025
 20
-27.334
 21
-18.306
  0
LINE
  8
0
 10
-73.025
 11
-70.025
 20
-18.306
 21
-18.306
  0
LINE
  8
0
 10
-70.025
 11
-70.025
 20
-18.306
 21
-9.078
  0
LINE
  8
0
 10
-70.025
 11
-73.025
 20
-9.078
 21
-9.078
  0
LINE
  8
0
 10
-73.025
 11
-73.025
 20
-9.078
 21
-0.05
  0
LINE
  8
0
 10
-73.025
 11
-70.025
 20
-0.05
 21
-0.05
  0
LINE
  8
0
 10
-70.025
 11
-70.025
 20
-0.05
 21
9.178
  0
LINE
  8
0
 10
-70.025
 11
-73.025
 20
9.178
 21
9.178
  0
LINE
  8
0
 10
-73.025
 11
-73.025
 20
9.178
 21
18.206
  0
LINE
  8
0
 10
-73.025
 11
-70.025
 20
18.206
 21
18.206
  0
LINE
  8
0
 10
-70.025
 11
-70.025
 20
18.206
 21
27.434
  0
LINE
  8
0
 10
-70.025
 11
-73.025
 20
27.434
 21
27.434
  0
LINE
  8
0
 10
-73.025
 11
-73.025
 20
27.434
 21
36.463
  0
LINE
  8
0
 10
-73.025
 11
-70.025
 20
36.463
 21
36.463
  0
LINE
  8
0
 10
-70.025
 11
-70.025
 20
36.463
 21
45.691
  0
LINE
  8
0
 10
-70.025
 11
-73.025
 20
45.691
 21
45.691
  0
LINE
  8
0
 10
-73.025
 11
-73.025
 20
45.691
 21
54.719
  0
LINE
  8
0
 10
-73.025
 11
-70.025
 20
54.719
 21
54.719
  0
LINE
  8
0
 10
-70.025
 11
-70.025
 20
54.719
 21
63.947
  0
LINE
  8
0
 10
-70.025
 11
-73.025
 20
63.947
 21
63.947
  0
LINE
  8
0
 10
-73.025
 11
-73.025
 20
63.947
 21
70.025
  0
LINE
  8
0
 10
-73.025
 11
-72.975
 20
70.025
 21
70.025
  0
LINE
  8
0
 10
-72.975
 11
-72.975
 20
70.025
 21
72.975
  0
LINE
  8
0
 10
-72.975
 11
-70.025
 20
72.975
 21
72.975
  0
LINE
  8
0
 10
-70.025
 11
-70.025
 20
72.975
 21
73.025
  0
LINE
  8
0
 10
-70.025
 11
-63.947
 20
73.025
 21
73.025
  0
LINE
  8
0
 10
-63.947
 11
-63.947
 20
73.025
 21
70.025
  0
LINE
  8
0
 10
-63.947
 11
-54.719
 20
70.025
 21
70.025
  0
LINE
  8
0
 10
-54.719
 11
-54.719
 20
70.025
 21
73.025
  0
LINE
  8
0
 10
-54.719
 11
-45.691
 20
73.025
 21
73.025
  0
LINE
  8
0
 10
-45.691
 11
-45.691
 20
73.025
 21
70.025
  0
LINE
  8
0
 10
-45.691
 11
-36.463
 20
70.025
 21
70.025
  0
LINE
  8
0
 10
-36.463
 11
-36.463
 20
70.025
 21
73.025
  0
LINE
  8
0
 10
-36.463
 11
-27.434
 20
73.025
 21
73.025
  0
LINE
  8
0
 10
-27.434
 11
-27.434
 20
73.025
 21
70.025
  0
LINE
  8
0
 10
-27.434
 11
-18.206
 20
70.025
 21
70.025
  0
LINE
  8
0
 10
-18.206
 11
-18.206
 20
70.025
 21
73.025
  0
LINE
  8
0
 10
-18.206
 11
-9.178
 20
73.025
 21
73.025
  0
LINE
  8
0
 10
-9.178
 11
-9.178
 20
73.025
 21
70.025
  0
LINE
  8
0
 10
-9.178
 11
0.05
 20
70.025
 21
70.025
  0
LINE
  8
0
 10
0.05
 11
0.05
 20
70.025
 21
73.025
  0
LINE
  8
0
 10
0.05
 11
9.078
 20
73.025
 21
73.025
  0
LINE
  8
0
 10
9.078
 11
9.078
 20
73.025
 21
70.025
  0
LINE
  8
0
 10
9.078
 11
18.306
 20
70.025
 21
70.025
  0
LINE
  8
0
 10
18.306
 11
18.306
 20
70.025
 21
73.025
  0
LINE
  8
0
 10
18.306
 11
27.334
 20
73.025
 21
73.025
  0
LINE
  8
0
 10
27.334
 11
27.334
 20
73.025
 21
70.025
  0
LINE
  8
0
 10
27.334
 11
36.562
 20
70.025
 21
70.025
  0
LINE
  8
0
 10
36.562
 11
36.562
 20
70.025
 21
73.025
  0
LINE
  8
0
 10
36.562
 11
45.591
 20
73.025
 21
73.025
  0
LINE
  8
0
 10
45.591
 11
45.591
 20
73.025
 21
70.025
  0
LINE
  8
0
 10
45.591
 11
54.819
 20
70.025
 21
70.025
  0
LINE
  8
0
 10
54.819
 11
54.819
 20
70.025
 21
73.025
  0
LINE
  8
0
 10
54.819
 11
63.847
 20
73.025
 21
73.025
  0
LINE
  8
0
 10
63.847
 11
63.847
 20
73.025
 21
70.025
  0
LINE
  8
0
 10
63.847
 11
70.025
 20
70.025
 21
70.025
  0
LINE
  8
0
 10
70.025
 11
70.025
 20
70.025
 21
63.847
  0
LINE
  8
0
 10
70.025
 11
73.025
 20
63.847
 21
63.847
  0
LINE
  8
0
 10
73.025
 11
73.025
 20
63.847
 21
54.819
  0
LINE
  8
0
 10
73.025
 11
70.025
 20
54.819
 21
54.819
  0
LINE
  8
0
 10
70.025
 11
70.025
 20
54.819
 21
45.591
  0
LINE
  8
0
 10
70.025
 11
73.025
 20
45.591
 21
45.591
  0
LINE
  8
0
 10
73.025
 11
73.025
 20
45.591
 21
36.562
  0
LINE
  8
0
 10
73.025
 11
70.025
 20
36.562
 21
36.562
  0
LINE
  8
0
 10
70.025
 11
70.025
 20
36.562
 21
27.334
  0
LINE
  8
0
 10
70.025
 11
73.025
 20
27.334
 21
27.334
  0
LINE
  8
0
 10
73.025
 11
73.025
 20
27.334
 21
18.306
  0
LINE
  8
0
 10
73.025
 11
70.025
 20
18.306
 21
18.306
  0
LINE
  8
0
 10
70.025
 11
70.025
 20
18.306
 21
9.078
  0
LINE
  8
0
 10
70.025
 11
73.025
 20
9.078
 21
9.078
  0
LINE
  8
0
 10
73.025
 11
73.025
 20
9.078
 21
0.05
  0
LINE
  8
0
 10
73.025
 11
70.025
 20
0.05
 21
0.05
  0
LINE
  8
0
 10
70.025
 11
70.025
 20
0.05
 21
-9.178
  0
LINE
  8
0
 10
70.025
 11
73.025
 20
-9.178
 21
-9.178
  0
LINE
  8
0
 10
73.025
 11
73.025
 20
-9.178
 21
-18.206
  0
LINE
  8
0
 10
73.025
 11
70.025
 20
-18.206
 21
-18.206
  0
LINE
  8
0
 10
70.025
 11
70.025
 20
-18.206
 21
-27.434
  0
LINE
  8
0
 10
70.025
 11
73.025
 20
-27.434
 21
-27.434
  0
LINE
  8
0
 10
73.025
 11
73.025
 20
-27.434
 21
-36.463
  0
LINE
  8
0
 10
73.025
 11
70.025
 20
-36.463
 21
-36.463
  0
LINE
  8
0
 10
70.025
 11
70.025
 20
-36.463
 21
-45.691
  0
LINE
  8
0
 10
70.025
 11
73.025
 20
-45.691
 21
-45.691
  0
LINE
  8
0
 10
73.025
 11
73.025
 20
-45.691
 21
-54.719
  0
LINE
  8
0
 10
73.025
 11
70.025
 20
-54.719
 21
-54.719
  0
LINE
  8
0
 10
70.025
 11
70.025
 20
-54.719
 21
-63.947
  0
LINE
  8
0
 10
70.025
 11
73.025
 20
-63.947
 21
-63.947
  0
LINE
  8
0
 10
73.025
 11
73.025
 20
-63.947
 21
-70.025
  0
LINE
  8
0
 10
73.025
 11
72.975
 20
-70.025
 21
-70.025
  0
LINE
  8
0
 10
72.975
 11
72.975
 20
-70.025
 21
-72.975
  0
LINE
  8
0
 10
72.975
 11
70.025
 20
-72.975
 21
-72.975
  0
LINE
  8
0
 10
70.025
 11
70.025
 20
-72.975
 21
-73.025
  0
LINE
  8
0
 10
70.025
 11
63.947
 20
-73.025
 21
-73.025
  0
LINE
  8
0
 10
63.947
 11
63.947
 20
-73.025
 21
-70.025
  0
LINE
  8
0
 10
63.947
 11
54.719
 20
-70.025
 21
-70.025
  0
LINE
  8
0
 10
54.719
 11
54.719
 20
-70.025
 21
-73.025
  0
LINE
  8
0
 10
54.719
 11
45.691
 20
-73.025
 21
-73.025
  0
LINE
  8
0
 10
45.691
 11
45.691
 20
-73.025
 21
-70.025
  0
LINE
  8
0
 10
45.691
 11
36.463
 20
-70.025
 21
-70.025
  0
LINE
  8
0
 10
36.463
 11
36.463
 20
-70.025
 21
-73.025
  0
LINE
  8
0
 10
36.463
 11
27.434
 20
-73.025
 21
-73.025
  0
LINE
  8
0
 10
27.434
 11
27.434
 20
-73.025
 21
-70.025
  0
LINE
  8
0
 10
27.434
 11
18.206
 20
-70.025
 21
-70.025
  0
LINE
  8
0
 10
18.206
 11
18.206
 20
-70.025
 21
-73.025
  0
LINE
  8
0
 10
18.206
 11
9.178
 20
-73.025
 21
-73.025
  0
LINE
  8
0
 10
9.178
 11
9.178
 20
-73.025
 21
-70.025
  0
LINE
  8
0
 10
9.178
 11
-0.05
 20
-70.025
 21
-70.025
  0
LINE
  8
0
 10
-0.05
 11
-0.05
 20
-70.025
 21
-73.025
  0
LINE
  8
0
 10
-0.05
 11
-9.078
 20
-73.025
 21
-73.025
  0
LINE
  8
0
 10
-9.078
 11
-9.078
 20
-73.025
 21
-70.025
  0
LINE
  8
0
 10
-9.078
 11
-18.306
 20
-70.025
 21
-70.025
  0
LINE
  8
0
 10
-18.306
 11
-18.306
 20
-70.025
 21
-73.025
  0
LINE
  8
0
 10
-18.306
 11
-27.334
 20
-73.025
 21
-73.025
  0
LINE
  8
0
 10
-27.334
 11
-27.334
 20
-73.025
 21
-70.025
  0
LINE
  8
0
 10
-27.334
 11
-36.562
 20
-70.025
 21
-70.025
  0
LINE
  8
0
 10
-36.562
 11
-36.562
 20
-70.025
 21
-73.025
  0
LINE
  8
0
 10
-36.562
 11
-45.591
 20
-73.025
 21
-73.025
  0
LINE
  8
0
 10
-45.591
 11
-45.591
 20
-73.025
 21
-70.025
  0
LINE
  8
0
 10
-45.591
 11
-54.819
 20
-70.025
 21
-70.025
  0
LINE
  8
0
 10
-54.819
 11
-54.819
 20
-70.025
 21
-73.025
  0
LINE
  8
0
 10
-54.819
 11
-63.847
 20
-73.025
 21
-73.025
  0
LINE
  8
0
 10
-63.847
 11
-63.847
 20
-73.025
 21
-70.025
  0
LINE
  8
0
 10
-63.847
 11
-70.025
 20
-70.025
 21
-70.025
  0
LINE
  8
0
 10
-70.025
 11
-70.025
 20
-70.025
 21
-63.847
  0
LINE
  8
0
 10
-70.025
 11
-73.025
 20
-63.847
 21
-63.847
  0
LINE
  8
0
 10
74.025
 11
74.025
 20
-217.075
 21
-210.997
  0
LINE
  8
0
 10
74.025
 11
77.025
 20
-210.997
 21
-210.997
  0
LINE
  8
0
 10
77.025
 11
77.025
 20
-210.997
 21
-201.769
  0
LINE
  8
0
 10
77.025
 11
74.025
 20
-201.769
 21
-201.769
  0
LINE
  8
0
 10
74.025
 11
74.025
 20
-201.769
 21
-192.741
  0
LINE
  8
0
 10
74.025
 11
77.025
 20
-192.741
 21
-192.741
  0
LINE
  8
0
 10
77.025
 11
77.025
 20
-192.741
 21
-183.512
  0
LINE
  8
0
 10
77.025
 11
74.025
 20
-183.512
 21
-183.512
  0
LINE
  8
0
 10
74.025
 11
74.025
 20
-183.512
 21
-174.484
  0
LINE
  8
0
 10
74.025
 11
77.025
 20
-174.484
 21
-174.484
  0
LINE
  8
0
 10
77.025
 11
77.025
 20
-174.484
 21
-165.256
  0
LINE
  8
0
 10
77.025
 11
74.025
 20
-165.256
 21
-165.256
  0
LINE
  8
0
 10
74.025
 11
74.025
 20
-165.256
 21
-156.228
  0
LINE
  8
0
 10
74.025
 11
77.025
 20
-156.228
 21
-156.228
  0
LINE
  8
0
 10
77.025
 11
77.025
 20
-156.228
 21
-147
  0
LINE
  8
0
 10
77.025
 11
74.025
 20
-147
 21
-147
  0
LINE
  8
0
 10
74.025
 11
74.025
 20
-147
 21
-137.972
  0
LINE
  8
0
 10
74.025
 11
77.025
 20
-137.972
 21
-137.972
  0
LINE
  8
0
 10
77.025
 11
77.025
 20
-137.972
 21
-128.744
  0
LINE
  8
0
 10
77.025
 11
74.025
 20
-128.744
 21
-128.744
  0
LINE
  8
0
 10
74.025
 11
74.025
 20
-128.744
 21
-119.716
  0
LINE
  8
0
 10
74.025
 11
77.025
 20
-119.716
 21
-119.716
  0
LINE
  8
0
 10
77.025
 11
77.025
 20
-119.716
 21
-110.488
  0
LINE
  8
0
 10
77.025
 11
74.025
 20
-110.488
 21
-110.488
  0
LINE
  8
0
 10
74.025
 11
74.025
 20
-110.488
 21
-101.459
  0
LINE
  8
0
 10
74.025
 11
77.025
 20
-101.459
 21
-101.459
  0
LINE
  8
0
 10
77.025
 11
77.025
 20
-101.459
 21
-92.231
  0
LINE
  8
0
 10
77.025
 11
74.025
 20
-92.231
 21
-92.231
  0
LINE
  8
0
 10
74.025
 11
74.025
 20
-92.231
 21
-83.203
  0
LINE
  8
0
 10
74.025
 11
77.025
 20
-83.203
 21
-83.203
  0
LINE
  8
0
 10
77.025
 11
77.025
 20
-83.203
 21
-74.025
  0
LINE
  8
0
 10
77.025
 11
83.103
 20
-74.025
 21
-74.025
  0
LINE
  8
0
 10
83.103
 11
83.103
 20
-74.025
 21
-77.025
  0
LINE
  8
0
 10
83.103
 11
92.331
 20
-77.025
 21
-77.025
  0
LINE
  8
0
 10
92.331
 11
92.331
 20
-77.025
 21
-74.025
  0
LINE
  8
0
 10
92.331
 11
101.359
 20
-74.025
 21
-74.025
  0
LINE
  8
0
 10
101.359
 11
101.359
 20
-74.025
 21
-77.025
  0
LINE
  8
0
 10
101.359
 11
110.587
 20
-77.025
 21
-77.025
  0
LINE
  8
0
 10
110.587
 11
110.587
 20
-77.025
 21
-74.025
  0
LINE
  8
0
 10
110.587
 11
119.616
 20
-74.025
 21
-74.025
  0
LINE
  8
0
 10
119.616
 11
119.616
 20
-74.025
 21
-77.025
  0
LINE
  8
0
 10
119.616
 11
128.844
 20
-77.025
 21
-77.025
  0
LINE
  8
0
 10
128.844
 11
128.844
 20
-77.025
 21
-74.025
  0
LINE
  8
0
 10
128.844
 11
137.872
 20
-74.025
 21
-74.025
  0
LINE
  8
0
 10
137.872
 11
137.872
 20
-74.025
 21
-77.025
  0
LINE
  8
0
 10
137.872
 11
147.1
 20
-77.025
 21
-77.025
  0
LINE
  8
0
 10
147.1
 11
147.1
 20
-77.025
 21
-74.025
  0
LINE
  8
0
 10
147.1
 11
156.128
 20
-74.025
 21
-74.025
  0
LINE
  8
0
 10
156.128
 11
156.128
 20
-74.025
 21
-77.025
  0
LINE
  8
0
 10
156.128
 11
165.356
 20
-77.025
 21
-77.025
  0
LINE
  8
0
 10
165.356
 11
165.356
 20
-77.025
 21
-74.025
  0
LINE
  8
0
 10
165.356
 11
174.384
 20
-74.025
 21
-74.025
  0
LINE
  8
0
 10
174.384
 11
174.384
 20
-74.025
 21
-77.025
  0
LINE
  8
0
 10
174.384
 11
183.612
 20
-77.025
 21
-77.025
  0
LINE
  8
0
 10
183.612
 11
183.612
 20
-77.025
 21
-74.025
  0
LINE
  8
0
 10
183.612
 11
192.641
 20
-74.025
 21
-74.025
  0
LINE
  8
0
 10
192.641
 11
192.641
 20
-74.025
 21
-77.025
  0
LINE
  8
0
 10
192.641
 11
201.869
 20
-77.025
 21
-77.025
  0
LINE
  8
0
 10
201.869
 11
201.869
 20
-77.025
 21
-74.025
  0
LINE
  8
0
 10
201.869
 11
210.897
 20
-74.025
 21
-74.025
  0
LINE
  8
0
 10
210.897
 11
210.897
 20
-74.025
 21
-77.025
  0
LINE
  8
0
 10
210.897
 11
220.075
 20
-77.025
 21
-77.025
  0
LINE
  8
0
 10
220.075
 11
220.075
 20
-77.025
 21
-83.103
  0
LINE
  8
0
 10
220.075
 11
217.075
 20
-83.103
 21
-83.103
  0
LINE
  8
0
 10
217.075
 11
217.075
 20
-83.103
 21
-92.331
  0
LINE
  8
0
 10
217.075
 11
220.075
 20
-92.331
 21
-92.331
  0
LINE
  8
0
 10
220.075
 11
220.075
 20
-92.331
 21
-101.359
  0
LINE
  8
0
 10
220.075
 11
217.075
 20
-101.359
 21
-101.359
  0
LINE
  8
0
 10
217.075
 11
217.075
 20
-101.359
 21
-110.587
  0
LINE
  8
0
 10
217.075
 11
220.075
 20
-110.587
 21
-110.587
  0
LINE
  8
0
 10
220.075
 11
220.075
 20
-110.587
 21
-119.616
  0
LINE
  8
0
 10
220.075
 11
217.075
 20
-119.616
 21
-119.616
  0
LINE
  8
0
 10
217.075
 11
217.075
 20
-119.616
 21
-128.844
  0
LINE
  8
0
 10
217.075
 11
220.075
 20
-128.844
 21
-128.844
  0
LINE
  8
0
 10
220.075
 11
220.075
 20
-128.844
 21
-137.872
  0
LINE
  8
0
 10
220.075
 11
217.075
 20
-137.872
 21
-137.872
  0
LINE
  8
0
 10
217.075
 11
217.075
 20
-137.872
 21
-147.1
  0
LINE
  8
0
 10
217.075
 11
220.075
 20
-147.1
 21
-147.1
  0
LINE
  8
0
 10
220.075
 11
220.075
 20
-147.1
 21
-156.128
  0
LINE
  8
0
 10
220.075
 11
217.075
 20
-156.128
 21
-156.128
  0
LINE
  8
0
 10
217.075
 11
217.075
 20
-156.128
 21
-165.356
  0
LINE
  8
0
 10
217.075
 11
220.075
 20
-165.356
 21
-165.356
  0
LINE
  8
0
 10
220.075
 11
220.075
 20
-165.356
 21
-174.384
  0
LINE
  8
0
 10
220.075
 11
217.075
 20
-174.384
 21
-174.384
  0
LINE
  8
0
 10
217.075
 11
217.075
 20
-174.384
 21
-183.612
  0
LINE
  8
0
 10
217.075
 11
220.075
 20
-183.612
 21
-183.612
  0
LINE
  8
0
 10
220.075
 11
220.075
 20
-183.612
 21
-192.641
  0
LINE
  8
0
 10
220.075
 11
217.075
 20
-192.641
 21
-192.641
  0
LINE
  8
0
 10
217.075
 11
217.075
 20
-192.641
 21
-201.869
  0
LINE
  8
0
 10
217.075
 11
220.075
 20
-201.869
 21
-201.869
  0
LINE
  8
0
 10
220.075
 11
220.075
 20
-201.869
 21
-210.897
  0
LINE
  8
0
 10
220.075
 11
217.075
 20
-210.897
 21
-210.897
  0
LINE
  8
0
 10
217.075
 11
217.075
 20
-210.897
 21
-220.075
  0
LINE
  8
0
 10
217.075
 11
210.997
 20
-220.075
 21
-220.075
  0
LINE
  8
0
 10
210.997
 11
210.997
 20
-220.075
 21
-217.075
  0
LINE
  8
0
 10
210.997
 11
201.769
 20
-217.075
 21
-217.075
  0
LINE
  8
0
 10
201.769
 11
201.769
 20
-217.075
 21
-220.075
  0
LINE
  8
0
 10
201.769
 11
192.741
 20
-220.075
 21
-220.075
  0
LINE
  8
0
 10
192.741
 11
192.741
 20
-220.075
 21
-217.075
  0
LINE
  8
0
 10
192.741
 11
183.512
 20
-217.075
 21
-217.075
  0
LINE
  8
0
 10
183.512
 11
183.512
 20
-217.075
 21
-220.075
  0
LINE
  8
0
 10
183.512
 11
174.484
 20
-220.075
 21
-220.075
  0
LINE
  8
0
 10
174.484
 11
174.484
 20
-220.075
 21
-217.075
  0
LINE
  8
0
 10
174.484
 11
165.256
 20
-217.075
 21
-217.075
  0
LINE
  8
0
 10
165.256
 11
165.256
 20
-217.075
 21
-220.075
  0
LINE
  8
0
 10
165.256
 11
156.228
 20
-220.075
 21
-220.075
  0
LINE
  8
0
 10
156.228
 11
156.228
 20
-220.075
 21
-217.075
  0
LINE
  8
0
 10
156.228
 11
147
 20
-217.075
 21
-217.075
  0
LINE
  8
0
 10
147
 11
147
 20
-217.075
 21
-220.075
  0
LINE
  8
0
 10
147
 11
137.972
 20
-220.075
 21
-220.075
  0
LINE
  8
0
 10
137.972
 11
137.972
 20
-220.075
 21
-217.075
  0
LINE
  8
0
 10
137.972
 11
128.744
 20
-217.075
 21
-217.075
  0
LINE
  8
0
 10
128.744
 11
128.744
 20
-217.075
 21
-220.075
  0
LINE
  8
0
 10
128.744
 11
119.716
 20
-220.075
 21
-220.075
  0
LINE
  8
0
 10
119.716
 11
119.716
 20
-220.075
 21
-217.075
  0
LINE
  8
0
 10
119.716
 11
110.488
 20
-217.075
 21
-217.075
  0
LINE
  8
0
 10
110.488
 11
110.488
 20
-217.075
 21
-220.075
  0
LINE
  8
0
 10
110.488
 11
101.459
 20
-220.075
 21
-220.075
  0
LINE
  8
0
 10
101.459
 11
101.459
 20
-220.075
 21
-217.075
  0
LINE
  8
0
 10
101.459
 11
92.231
 20
-217.075
 21
-217.075
  0
LINE
  8
0
 10
92.231
 11
92.231
 20
-217.075
 21
-220.075
  0
LINE
  8
0
 10
92.231
 11
83.203
 20
-220.075
 21
-220.075
  0
LINE
  8
0
 10
83.203
 11
83.203
 20
-220.075
 21
-217.075
  0
LINE
  8
0
 10
83.203
 11
74.025
 20
-217.075
 21
-217.075
  0
LINE
  8
0
 10
74.025
 11
74.025
 20
-63.847
 21
-54.819
  0
LINE
  8
0
 10
74.025
 11
77.025
 20
-54.819
 21
-54.819
  0
LINE
  8
0
 10
77.025
 11
77.025
 20
-54.819
 21
-45.591
  0
LINE
  8
0
 10
77.025
 11
74.025
 20
-45.591
 21
-45.591
  0
LINE
  8
0
 10
74.025
 11
74.025
 20
-45.591
 21
-36.563
  0
LINE
  8
0
 10
74.025
 11
77.025
 20
-36.563
 21
-36.563
  0
LINE
  8
0
 10
77.025
 11
77.025
 20
-36.563
 21
-27.334
  0
LINE
  8
0
 10
77.025
 11
74.025
 20
-27.334
 21
-27.334
  0
LINE
  8
0
 10
74.025
 11
74.025
 20
-27.334
 21
-18.306
  0
LINE
  8
0
 10
74.025
 11
77.025
 20
-18.306
 21
-18.306
  0
LINE
  8
0
 10
77.025
 11
77.025
 20
-18.306
 21
-9.078
  0
LINE
  8
0
 10
77.025
 11
74.025
 20
-9.078
 21
-9.078
  0
LINE
  8
0
 10
74.025
 11
74.025
 20
-9.078
 21
-0.05
  0
LINE
  8
0
 10
74.025
 11
77.025
 20
-0.05
 21
-0.05
  0
LINE
  8
0
 10
77.025
 11
77.025
 20
-0.05
 21
9.178
  0
LINE
  8
0
 10
77.025
 11
74.025
 20
9.178
 21
9.178
  0
LINE
  8
0
 10
74.025
 11
74.025
 20
9.178
 21
18.206
  0
LINE
  8
0
 10
74.025
 11
77.025
 20
18.206
 21
18.206
  0
LINE
  8
0
 10
77.025
 11
77.025
 20
18.206
 21
27.434
  0
LINE
  8
0
 10
77.025
 11
74.025
 20
27.434
 21
27.434
  0
LINE
  8
0
 10
74.025
 11
74.025
 20
27.434
 21
36.463
  0
LINE
  8
0
 10
74.025
 11
77.025
 20
36.463
 21
36.463
  0
LINE
  8
0
 10
77.025
 11
77.025
 20
36.463
 21
45.691
  0
LINE
  8
0
 10
77.025
 11
74.025
 20
45.691
 21
45.691
  0
LINE
  8
0
 10
74.025
 11
74.025
 20
45.691
 21
54.719
  0
LINE
  8
0
 10
74.025
 11
77.025
 20
54.719
 21
54.719
  0
LINE
  8
0
 10
77.025
 11
77.025
 20
54.719
 21
63.947
  0
LINE
  8
0
 10
77.025
 11
74.025
 20
63.947
 21
63.947
  0
LINE
  8
0
 10
74.025
 11
74.025
 20
63.947
 21
70.025
  0
LINE
  8
0
 10
74.025
 11
74.075
 20
70.025
 21
70.025
  0
LINE
  8
0
 10
74.075
 11
74.075
 20
70.025
 21
72.975
  0
LINE
  8
0
 10
74.075
 11
77.025
 20
72.975
 21
72.975
  0
LINE
  8
0
 10
77.025
 11
77.025
 20
72.975
 21
73.025
  0
LINE
  8
0
 10
77.025
 11
83.103
 20
73.025
 21
73.025
  0
LINE
  8
0
 10
83.103
 11
83.103
 20
73.025
 21
70.025
  0
LINE
  8
0
 10
83.103
 11
92.331
 20
70.025
 21
70.025
  0
LINE
  8
0
 10
92.331
 11
92.331
 20
70.025
 21
73.025
  0
LINE
  8
0
 10
92.331
 11
101.359
 20
73.025
 21
73.025
  0
LINE
  8
0
 10
101.359
 11
101.359
 20
73.025
 21
70.025
  0
LINE
  8
0
 10
101.359
 11
110.587
 20
70.025
 21
70.025
  0
LINE
  8
0
 10
110.587
 11
110.587
 20
70.025
 21
73.025
  0
LINE
  8
0
 10
110.587
 11
119.616
 20
73.025
 21
73.025
  0
LINE
  8
0
 10
119.616
 11
119.616
 20
73.025
 21
70.025
  0
LINE
  8
0
 10
119.616
 11
128.844
 20
70.025
 21
70.025
  0
LINE
  8
0
 10
128.844
 11
128.844
 20
70.025
 21
73.025
  0
LINE
  8
0
 10
128.844
 11
137.872
 20
73.025
 21
73.025
  0
LINE
  8
0
 10
137.872
 11
137.872
 20
73.025
 21
70.025
  0
LINE
  8
0
 10
137.872
 11
147.1
 20
70.025
 21
70.025
  0
LINE
  8
0
 10
147.1
 11
147.1
 20
70.025
 21
73.025
  0
LINE
  8
0
 10
147.1
 11
156.128
 20
73.025
 21
73.025
  0
LINE
  8
0
 10
156.128
 11
156.128
 20
73.025
 21
70.025
  0
LINE
  8
0
 10
156.128
 11
165.356
 20
70.025
 21
70.025
  0
LINE
  8
0
 10
165.356
 11
165.356
 20
70.025
 21
73.025
  0
LINE
  8
0
 10
165.356
 11
174.384
 20
73.025
 21
73.025
  0
LINE
  8
0
 10
174.384
 11
174.384
 20
73.025
 21
70.025
  0
LINE
  8
0
 10
174.384
 11
183.612
 20
70.025
 21
70.025
  0
LINE
  8
0
 10
183.612
 11
183.612
 20
70.025
 21
73.025
  0
LINE
  8
0
 10
183.612
 11
192.641
 20
73.025
 21
73.025
  0
LINE
  8
0
 10
192.641
 11
192.641
 20
73.025
 21
70.025
  0
LINE
  8
0
 10
192.641
 11
201.869
 20
70.025
 21
70.025
  0
LINE
  8
0
 10
201.869
 11
201.869
 20
70.025
 21
73.025
  0
LINE
  8
0
 10
201.869
 11
210.897
 20
73.025
 21
73.025
  0
LINE
  8
0
 10
210.897
 11
210.897
 20
73.025
 21
70.025
  0
LINE
  8
0
 10
210.897
 11
217.075
 20
70.025
 21
70.025
  0
LINE
  8
0
 10
217.075
 11
217.075
 20
70.025
 21
63.847
  0
LINE
  8
0
 10
217.075
 11
220.075
 20
63.847
 21
63.847
  0
LINE
  8
0
 10
220.075
 11
220.075
 20
63.847
 21
54.819
  0
LINE
  8
0
 10
220.075
 11
217.075
 20
54.819
 21
54.819
  0
LINE
  8
0
 10
217.075
 11
217.075
 20
54.819
 21
45.591
  0
LINE
  8
0
 10
217.075
 11
220.075
 20
45.591
 21
45.591
  0
LINE
  8
0
 10
220.075
 11
220.075
 20
45.591
 21
36.562
  0
LINE
  8
0
 10
220.075
 11
217.075
 20
36.562
 21
36.562
  0
LINE
  8
0
 10
217.075
 11
217.075
 20
36.562
 21
27.334
  0
LINE
  8
0
 10
217.075
 11
220.075
 20
27.334
 21
27.334
  0
LINE
  8
0
 10
220.075
 11
220.075
 20
27.334
 21
18.306
  0
LINE
  8
0
 10
220.075
 11
217.075
 20
18.306
 21
18.306
  0
LINE
  8
0
 10
217.075
 11
217.075
 20
18.306
 21
9.078
  0
LINE
  8
0
 10
217.075
 11
220.075
 20
9.078
 21
9.078
  0
LINE
  8
0
 10
220.075
 11
220.075
 20
9.078
 21
0.05
  0
LINE
  8
0
 10
220.075
 11
217.075
 20
0.05
 21
0.05
  0
LINE
  8
0
 10
217.075
 11
217.075
 20
0.05
 21
-9.178
  0
LINE
  8
0
 10
217.075
 11
220.075
 20
-9.178
 21
-9.178
  0
LINE
  8
0
 10
220.075
 11
220.075
 20
-9.178
 21
-18.206
  0
LINE
  8
0
 10
220.075
 11
217.075
 20
-18.206
 21
-18.206
  0
LINE
  8
0
 10
217.075
 11
217.075
 20
-18.206
 21
-27.434
  0
LINE
  8
0
 10
217.075
 11
220.075
 20
-27.434
 21
-27.434
  0
LINE
  8
0
 10
220.075
 11
220.075
 20
-27.434
 21
-36.463
  0
LINE
  8
0
 10
220.075
 11
217.075
 20
-36.463
 21
-36.463
  0
LINE
  8
0
 10
217.075
 11
217.075
 20
-36.463
 21
-45.691
  0
LINE
  8
0
 10
217.075
 11
220.075
 20
-45.691
 21
-45.691
  0
LINE
  8
0
 10
220.075
 11
220.075
 20
-45.691
 21
-54.719
  0
LINE
  8
0
 10
220.075
 11
217.075
 20
-54.719
 21
-54.719
  0
LINE
  8
0
 10
217.075
 11
217.075
 20
-54.719
 21
-63.947
  0
LINE
  8
0
 10
217.075
 11
220.075
 20
-63.947
 21
-63.947
  0
LINE
  8
0
 10
220.075
 11
220.075
 20
-63.947
 21
-70.025
  0
LINE
  8
0
 10
220.075
 11
220.025
 20
-70.025
 21
-70.025
  0
LINE
  8
0
 10
220.025
 11
220.025
 20
-70.025
 21
-72.975
  0
LINE
  8
0
 10
220.025
 11
217.075
 20
-72.975
 21
-72.975
  0
LINE
  8
0
 10
217.075
 11
217.075
 20
-72.975
 21
-73.025
  0
LINE
  8
0
 10
217.075
 11
210.997
 20
-73.025
 21
-73.025
  0
LINE
  8
0
 10
210.997
 11
210.997
 20
-73.025
 21
-70.025
  0
LINE
  8
0
 10
210.997
 11
201.769
 20
-70.025
 21
-70.025
  0
LINE
  8
0
 10
201.769
 11
201.769
 20
-70.025
 21
-73.025
  0
LINE
  8
0
 10
201.769
 11
192.741
 20
-73.025
 21
-73.025
  0
LINE
  8
0
 10
192.741
 11
192.741
 20
-73.025
 21
-70.025
  0
LINE
  8
0
 10
192.741
 11
183.513
 20
-70.025
 21
-70.025
  0
LINE
  8
0
 10
183.513
 11
183.513
 20
-70.025
 21
-73.025
  0
LINE
  8
0
 10
183.513
 11
174.484
 20
-73.025
 21
-73.025
  0
LINE
  8
0
 10
174.484
 11
174.484
 20
-73.025
 21
-70.025
  0
LINE
  8
0
 10
174.484
 11
165.256
 20
-70.025
 21
-70.025
  0
LINE
  8
0
 10
165.256
 11
165.256
 20
-70.025
 21
-73.025
  0
LINE
  8
0
 10
165.256
 11
156.228
 20
-73.025
 21
-73.025
  0
LINE
  8
0
 10
156.228
 11
156.228
 20
-73.025
 21
-70.025
  0
LINE
  8
0
 10
156.228
 11
147
 20
-70.025
 21
-70.025
  0
LINE
  8
0
 10
147
 11
147
 20
-70.025
 21
-73.025
  0
LINE
  8
0
 10
147
 11
137.972
 20
-73.025
 21
-73.025
  0
LINE
  8
0
 10
137.972
 11
137.972
 20
-73.025
 21
-70.025
  0
LINE
  8
0
 10
137.972
 11
128.744
 20
-70.025
 21
-70.025
  0
LINE
  8
0
 10
128.744
 11
128.744
 20
-70.025
 21
-73.025
  0
LINE
  8
0
 10
128.744
 11
119.716
 20
-73.025
 21
-73.025
  0
LINE
  8
0
 10
119.716
 11
119.716
 20
-73.025
 21
-70.025
  0
LINE
  8
0
 10
119.716
 11
110.488
 20
-70.025
 21
-70.025
  0
LINE
  8
0
 10
110.488
 11
110.488
 20
-70.025
 21
-73.025
  0
LINE
  8
0
 10
110.488
 11
101.459
 20
-73.025
 21
-73.025
  0
LINE
  8
0
 10
101.459
 11
101.459
 20
-73.025
 21
-70.025
  0
LINE
  8
0
 10
101.459
 11
92.231
 20
-70.025
 21
-70.025
  0
LINE
  8
0
 10
92.231
 11
92.231
 20
-70.025
 21
-73.025
  0
LINE
  8
0
 10
92.231
 11
83.203
 20
-73.025
 21
-73.025
  0
LINE
  8
0
 10
83.203
 11
83.203
 20
-73.025
 21
-70.025
  0
LINE
  8
0
 10
83.203
 11
77.025
 20
-70.025
 21
-70.025
  0
LINE
  8
0
 10
77.025
 11
77.025
 20
-70.025
 21
-63.847
  0
LINE
  8
0
 10
77.025
 11
74.025
 20
-63.847
 21
-63.847
  0
LINE
  8
0
 10
143.166
 11
143.166
 20
-148.007
 21
-146.093
  0
LINE
  8
0
 10
143.166
 11
144.056
 20
-146.093
 21
-144.398
  0
LINE
  8
0
 10
144.056
 11
145.632
 20
-144.398
 21
-143.31
  0
LINE
  8
0
 10
145.632
 11
147.532
 20
-143.31
 21
-143.079
  0
LINE
  8
0
 10
147.532
 11
149.322
 20
-143.079
 21
-143.758
  0
LINE
  8
0
 10
149.322
 11
150.592
 20
-143.758
 21
-145.191
  0
LINE
  8
0
 10
150.592
 11
151.05
 20
-145.191
 21
-147.05
  0
LINE
  8
0
 10
151.05
 11
150.592
 20
-147.05
 21
-148.909
  0
LINE
  8
0
 10
150.592
 11
149.322
 20
-148.909
 21
-150.342
  0
LINE
  8
0
 10
149.322
 11
147.532
 20
-150.342
 21
-151.021
  0
LINE
  8
0
 10
147.532
 11
145.632
 20
-151.021
 21
-150.79
  0
LINE
  8
0
 10
145.632
 11
144.056
 20
-150.79
 21
-149.702
  0
LINE
  8
0
 10
144.056
 11
143.166
 20
-149.702
 21
-148.007
  0
LINE
  8
0
 10
221.075
 11
221.075
 20
-210.897
 21
-201.869
  0
LINE
  8
0
 10
221.075
 11
224.075
 20
-201.869
 21
-201.869
  0
LINE
  8
0
 10
224.075
 11
224.075
 20
-201.869
 21
-192.641
  0
LINE
  8
0
 10
224.075
 11
221.075
 20
-192.641
 21
-192.641
  0
LINE
  8
0
 10
221.075
 11
221.075
 20
-192.641
 21
-183.612
  0
LINE
  8
0
 10
221.075
 11
224.075
 20
-183.612
 21
-183.612
  0
LINE
  8
0
 10
224.075
 11
224.075
 20
-183.612
 21
-174.384
  0
LINE
  8
0
 10
224.075
 11
221.075
 20
-174.384
 21
-174.384
  0
LINE
  8
0
 10
221.075
 11
221.075
 20
-174.384
 21
-165.356
  0
LINE
  8
0
 10
221.075
 11
224.075
 20
-165.356
 21
-165.356
  0
LINE
  8
0
 10
224.075
 11
224.075
 20
-165.356
 21
-156.128
  0
LINE
  8
0
 10
224.075
 11
221.075
 20
-156.128
 21
-156.128
  0
LINE
  8
0
 10
221.075
 11
221.075
 20
-156.128
 21
-147.1
  0
LINE
  8
0
 10
221.075
 11
224.075
 20
-147.1
 21
-147.1
  0
LINE
  8
0
 10
224.075
 11
224.075
 20
-147.1
 21
-137.872
  0
LINE
  8
0
 10
224.075
 11
221.075
 20
-137.872
 21
-137.872
  0
LINE
  8
0
 10
221.075
 11
221.075
 20
-137.872
 21
-128.844
  0
LINE
  8
0
 10
221.075
 11
224.075
 20
-128.844
 21
-128.844
  0
LINE
  8
0
 10
224.075
 11
224.075
 20
-128.844
 21
-119.616
  0
LINE
  8
0
 10
224.075
 11
221.075
 20
-119.616
 21
-119.616
  0
LINE
  8
0
 10
221.075
 11
221.075
 20
-119.616
 21
-110.587
  0
LINE
  8
0
 10
221.075
 11
224.075
 20
-110.587
 21
-110.587
  0
LINE
  8
0
 10
224.075
 11
224.075
 20
-110.587
 21
-101.359
  0
LINE
  8
0
 10
224.075
 11
221.075
 20
-101.359
 21
-101.359
  0
LINE
  8
0
 10
221.075
 11
221.075
 20
-101.359
 21
-92.331
  0
LINE
  8
0
 10
221.075
 11
224.075
 20
-92.331
 21
-92.331
  0
LINE
  8
0
 10
224.075
 11
224.075
 20
-92.331
 21
-83.103
  0
LINE
  8
0
 10
224.075
 11
221.075
 20
-83.103
 21
-83.103
  0
LINE
  8
0
 10
221.075
 11
221.075
 20
-83.103
 21
-77.025
  0
LINE
  8
0
 10
221.075
 11
230.253
 20
-77.025
 21
-77.025
  0
LINE
  8
0
 10
230.253
 11
230.253
 20
-77.025
 21
-74.025
  0
LINE
  8
0
 10
230.253
 11
239.281
 20
-74.025
 21
-74.025
  0
LINE
  8
0
 10
239.281
 11
239.281
 20
-74.025
 21
-77.025
  0
LINE
  8
0
 10
239.281
 11
248.509
 20
-77.025
 21
-77.025
  0
LINE
  8
0
 10
248.509
 11
248.509
 20
-77.025
 21
-74.025
  0
LINE
  8
0
 10
248.509
 11
257.537
 20
-74.025
 21
-74.025
  0
LINE
  8
0
 10
257.537
 11
257.537
 20
-74.025
 21
-77.025
  0
LINE
  8
0
 10
257.537
 11
266.766
 20
-77.025
 21
-77.025
  0
LINE
  8
0
 10
266.766
 11
266.766
 20
-77.025
 21
-74.025
  0
LINE
  8
0
 10
266.766
 11
275.794
 20
-74.025
 21
-74.025
  0
LINE
  8
0
 10
275.794
 11
275.794
 20
-74.025
 21
-77.025
  0
LINE
  8
0
 10
275.794
 11
285.022
 20
-77.025
 21
-77.025
  0
LINE
  8
0
 10
285.022
 11
285.022
 20
-77.025
 21
-74.025
  0
LINE
  8
0
 10
285.022
 11
294.05
 20
-74.025
 21
-74.025
  0
LINE
  8
0
 10
294.05
 11
294.05
 20
-74.025
 21
-77.025
  0
LINE
  8
0
 10
294.05
 11
303.278
 20
-77.025
 21
-77.025
  0
LINE
  8
0
 10
303.278
 11
303.278
 20
-77.025
 21
-74.025
  0
LINE
  8
0
 10
303.278
 11
312.306
 20
-74.025
 21
-74.025
  0
LINE
  8
0
 10
312.306
 11
312.306
 20
-74.025
 21
-77.025
  0
LINE
  8
0
 10
312.306
 11
321.534
 20
-77.025
 21
-77.025
  0
LINE
  8
0
 10
321.534
 11
321.534
 20
-77.025
 21
-74.025
  0
LINE
  8
0
 10
321.534
 11
330.563
 20
-74.025
 21
-74.025
  0
LINE
  8
0
 10
330.563
 11
330.563
 20
-74.025
 21
-77.025
  0
LINE
  8
0
 10
330.563
 11
339.791
 20
-77.025
 21
-77.025
  0
LINE
  8
0
 10
339.791
 11
339.791
 20
-77.025
 21
-74.025
  0
LINE
  8
0
 10
339.791
 11
348.819
 20
-74.025
 21
-74.025
  0
LINE
  8
0
 10
348.819
 11
348.819
 20
-74.025
 21
-77.025
  0
LINE
  8
0
 10
348.819
 11
358.047
 20
-77.025
 21
-77.025
  0
LINE
  8
0
 10
358.047
 11
358.047
 20
-77.025
 21
-74.025
  0
LINE
  8
0
 10
358.047
 11
364.125
 20
-74.025
 21
-74.025
  0
LINE
  8
0
 10
364.125
 11
364.125
 20
-74.025
 21
-83.203
  0
LINE
  8
0
 10
364.125
 11
367.125
 20
-83.203
 21
-83.203
  0
LINE
  8
0
 10
367.125
 11
367.125
 20
-83.203
 21
-92.231
  0
LINE
  8
0
 10
367.125
 11
364.125
 20
-92.231
 21
-92.231
  0
LINE
  8
0
 10
364.125
 11
364.125
 20
-92.231
 21
-101.459
  0
LINE
  8
0
 10
364.125
 11
367.125
 20
-101.459
 21
-101.459
  0
LINE
  8
0
 10
367.125
 11
367.125
 20
-101.459
 21
-110.488
  0
LINE
  8
0
 10
367.125
 11
364.125
 20
-110.488
 21
-110.488
  0
LINE
  8
0
 10
364.125
 11
364.125
 20
-110.488
 21
-119.716
  0
LINE
  8
0
 10
364.125
 11
367.125
 20
-119.716
 21
-119.716
  0
LINE
  8
0
 10
367.125
 11
367.125
 20
-119.716
 21
-128.744
  0
LINE
  8
0
 10
367.125
 11
364.125
 20
-128.744
 21
-128.744
  0
LINE
  8
0
 10
364.125
 11
364.125
 20
-128.744
 21
-137.972
  0
LINE
  8
0
 10
364.125
 11
367.125
 20
-137.972
 21
-137.972
  0
LINE
  8
0
 10
367.125
 11
367.125
 20
-137.972
 21
-147
  0
LINE
  8
0
 10
367.125
 11
364.125
 20
-147
 21
-147
  0
LINE
  8
0
 10
364.125
 11
364.125
 20
-147
 21
-156.228
  0
LINE
  8
0
 10
364.125
 11
367.125
 20
-156.228
 21
-156.228
  0
LINE
  8
0
 10
367.125
 11
367.125
 20
-156.228
 21
-165.256
  0
LINE
  8
0
 10
367.125
 11
364.125
 20
-165.256
 21
-165.256
  0
LINE
  8
0
 10
364.125
 11
364.125
 20
-165.256
 21
-174.484
  0
LINE
  8
0
 10
364.125
 11
367.125
 20
-174.484
 21
-174.484
  0
LINE
  8
0
 10
367.125
 11
367.125
 20
-174.484
 21
-183.513
  0
LINE
  8
0
 10
367.125
 11
364.125
 20
-183.513
 21
-183.513
  0
LINE
  8
0
 10
364.125
 11
364.125
 20
-183.513
 21
-192.741
  0
LINE
  8
0
 10
364.125
 11
367.125
 20
-192.741
 21
-192.741
  0
LINE
  8
0
 10
367.125
 11
367.125
 20
-192.741
 21
-201.769
  0
LINE
  8
0
 10
367.125
 11
364.125
 20
-201.769
 21
-201.769
  0
LINE
  8
0
 10
364.125
 11
364.125
 20
-201.769
 21
-210.997
  0
LINE
  8
0
 10
364.125
 11
367.125
 20
-210.997
 21
-210.997
  0
LINE
  8
0
 10
367.125
 11
367.125
 20
-210.997
 21
-217.075
  0
LINE
  8
0
 10
367.125
 11
357.947
 20
-217.075
 21
-217.075
  0
LINE
  8
0
 10
357.947
 11
357.947
 20
-217.075
 21
-220.075
  0
LINE
  8
0
 10
357.947
 11
348.919
 20
-220.075
 21
-220.075
  0
LINE
  8
0
 10
348.919
 11
348.919
 20
-220.075
 21
-217.075
  0
LINE
  8
0
 10
348.919
 11
339.691
 20
-217.075
 21
-217.075
  0
LINE
  8
0
 10
339.691
 11
339.691
 20
-217.075
 21
-220.075
  0
LINE
  8
0
 10
339.691
 11
330.662
 20
-220.075
 21
-220.075
  0
LINE
  8
0
 10
330.662
 11
330.662
 20
-220.075
 21
-217.075
  0
LINE
  8
0
 10
330.662
 11
321.434
 20
-217.075
 21
-217.075
  0
LINE
  8
0
 10
321.434
 11
321.434
 20
-217.075
 21
-220.075
  0
LINE
  8
0
 10
321.434
 11
312.406
 20
-220.075
 21
-220.075
  0
LINE
  8
0
 10
312.406
 11
312.406
 20
-220.075
 21
-217.075
  0
LINE
  8
0
 10
312.406
 11
303.178
 20
-217.075
 21
-217.075
  0
LINE
  8
0
 10
303.178
 11
303.178
 20
-217.075
 21
-220.075
  0
LINE
  8
0
 10
303.178
 11
294.15
 20
-220.075
 21
-220.075
  0
LINE
  8
0
 10
294.15
 11
294.15
 20
-220.075
 21
-217.075
  0
LINE
  8
0
 10
294.15
 11
284.922
 20
-217.075
 21
-217.075
  0
LINE
  8
0
 10
284.922
 11
284.922
 20
-217.075
 21
-220.075
  0
LINE
  8
0
 10
284.922
 11
275.894
 20
-220.075
 21
-220.075
  0
LINE
  8
0
 10
275.894
 11
275.894
 20
-220.075
 21
-217.075
  0
LINE
  8
0
 10
275.894
 11
266.666
 20
-217.075
 21
-217.075
  0
LINE
  8
0
 10
266.666
 11
266.666
 20
-217.075
 21
-220.075
  0
LINE
  8
0
 10
266.666
 11
257.637
 20
-220.075
 21
-220.075
  0
LINE
  8
0
 10
257.637
 11
257.637
 20
-220.075
 21
-217.075
  0
LINE
  8
0
 10
257.637
 11
248.409
 20
-217.075
 21
-217.075
  0
LINE
  8
0
 10
248.409
 11
248.409
 20
-217.075
 21
-220.075
  0
LINE
  8
0
 10
248.409
 11
239.381
 20
-220.075
 21
-220.075
  0
LINE
  8
0
 10
239.381
 11
239.381
 20
-220.075
 21
-217.075
  0
LINE
  8
0
 10
239.381
 11
230.153
 20
-217.075
 21
-217.075
  0
LINE
  8
0
 10
230.153
 11
230.153
 20
-217.075
 21
-220.075
  0
LINE
  8
0
 10
230.153
 11
224.075
 20
-220.075
 21
-220.075
  0
LINE
  8
0
 10
224.075
 11
224.075
 20
-220.075
 21
-210.897
  0
LINE
  8
0
 10
224.075
 11
221.075
 20
-210.897
 21
-210.897
  0
LINE
  8
0
 10
221.075
 11
221.075
 20
-63.847
 21
-54.819
  0
LINE
  8
0
 10
221.075
 11
224.075
 20
-54.819
 21
-54.819
  0
LINE
  8
0
 10
224.075
 11
224.075
 20
-54.819
 21
-45.591
  0
LINE
  8
0
 10
224.075
 11
221.075
 20
-45.591
 21
-45.591
  0
LINE
  8
0
 10
221.075
 11
221.075
 20
-45.591
 21
-36.563
  0
LINE
  8
0
 10
221.075
 11
224.075
 20
-36.563
 21
-36.563
  0
LINE
  8
0
 10
224.075
 11
224.075
 20
-36.563
 21
-27.334
  0
LINE
  8
0
 10
224.075
 11
221.075
 20
-27.334
 21
-27.334
  0
LINE
  8
0
 10
221.075
 11
221.075
 20
-27.334
 21
-18.306
  0
LINE
  8
0
 10
221.075
 11
224.075
 20
-18.306
 21
-18.306
  0
LINE
  8
0
 10
224.075
 11
224.075
 20
-18.306
 21
-9.078
  0
LINE
  8
0
 10
224.075
 11
221.075
 20
-9.078
 21
-9.078
  0
LINE
  8
0
 10
221.075
 11
221.075
 20
-9.078
 21
-0.05
  0
LINE
  8
0
 10
221.075
 11
224.075
 20
-0.05
 21
-0.05
  0
LINE
  8
0
 10
224.075
 11
224.075
 20
-0.05
 21
9.178
  0
LINE
  8
0
 10
224.075
 11
221.075
 20
9.178
 21
9.178
  0
LINE
  8
0
 10
221.075
 11
221.075
 20
9.178
 21
18.206
  0
LINE
  8
0
 10
221.075
 11
224.075
 20
18.206
 21
18.206
  0
LINE
  8
0
 10
224.075
 11
224.075
 20
18.206
 21
27.434
  0
LINE
  8
0
 10
224.075
 11
221.075
 20
27.434
 21
27.434
  0
LINE
  8
0
 10
221.075
 11
221.075
 20
27.434
 21
36.463
  0
LINE
  8
0
 10
221.075
 11
224.075
 20
36.463
 21
36.463
  0
LINE
  8
0
 10
224.075
 11
224.075
 20
36.463
 21
45.691
  0
LINE
  8
0
 10
224.075
 11
221.075
 20
45.691
 21
45.691
  0
LINE
  8
0
 10
221.075
 11
221.075
 20
45.691
 21
54.719
  0
LINE
  8
0
 10
221.075
 11
224.075
 20
54.719
 21
54.719
  0
LINE
  8
0
 10
224.075
 11
224.075
 20
54.719
 21
63.947
  0
LINE
  8
0
 10
224.075
 11
221.075
 20
63.947
 21
63.947
  0
LINE
  8
0
 10
221.075
 11
221.075
 20
63.947
 21
70.025
  0
LINE
  8
0
 10
221.075
 11
221.125
 20
70.025
 21
70.025
  0
LINE
  8
0
 10
221.125
 11
221.125
 20
70.025
 21
72.975
  0
LINE
  8
0
 10
221.125
 11
224.075
 20
72.975
 21
72.975
  0
LINE
  8
0
 10
224.075
 11
224.075
 20
72.975
 21
73.025
  0
LINE
  8
0
 10
224.075
 11
230.153
 20
73.025
 21
73.025
  0
LINE
  8
0
 10
230.153
 11
230.153
 20
73.025
 21
70.025
  0
LINE
  8
0
 10
230.153
 11
239.381
 20
70.025
 21
70.025
  0
LINE
  8
0
 10
239.381
 11
239.381
 20
70.025
 21
73.025
  0
LINE
  8
0
 10
239.381
 11
248.409
 20
73.025
 21
73.025
  0
LINE
  8
0
 10
248.409
 11
248.409
 20
73.025
 21
70.025
  0
LINE
  8
0
 10
248.409
 11
257.637
 20
70.025
 21
70.025
  0
LINE
  8
0
 10
257.637
 11
257.637
 20
70.025
 21
73.025
  0
LINE
  8
0
 10
257.637
 11
266.666
 20
73.025
 21
73.025
  0
LINE
  8
0
 10
266.666
 11
266.666
 20
73.025
 21
70.025
  0
LINE
  8
0
 10
266.666
 11
275.894
 20
70.025
 21
70.025
  0
LINE
  8
0
 10
275.894
 11
275.894
 20
70.025
 21
73.025
  0
LINE
  8
0
 10
275.894
 11
284.922
 20
73.025
 21
73.025
  0
LINE
  8
0
 10
284.922
 11
284.922
 20
73.025
 21
70.025
  0
LINE
  8
0
 10
284.922
 11
294.15
 20
70.025
 21
70.025
  0
LINE
  8
0
 10
294.15
 11
294.15
 20
70.025
 21
73.025
  0
LINE
  8
0
 10
294.15
 11
303.178
 20
73.025
 21
73.025
  0
LINE
  8
0
 10
303.178
 11
303.178
 20
73.025
 21
70.025
  0
LINE
  8
0
 10
303.178
 11
312.406
 20
70.025
 21
70.025
  0
LINE
  8
0
 10
312.406
 11
312.406
 20
70.025
 21
73.025
  0
LINE
  8
0
 10
312.406
 11
321.434
 20
73.025
 21
73.025
  0
LINE
  8
0
 10
321.434
 11
321.434
 20
73.025
 21
70.025
  0
LINE
  8
0
 10
321.434
 11
330.662
 20
70.025
 21
70.025
  0
LINE
  8
0
 10
330.662
 11
330.662
 20
70.025
 21
73.025
  0
LINE
  8
0
 10
330.662
 11
339.691
 20
73.025
 21
73.025
  0
LINE
  8
0
 10
339.691
 11
339.691
 20
73.025
 21
70.025
  0
LINE
  8
0
 10
339.691
 11
348.919
 20
70.025
 21
70.025
  0
LINE
  8
0
 10
348.919
 11
348.919
 20
70.025
 21
73.025
  0
LINE
  8
0
 10
348.919
 11
357.947
 20
73.025
 21
73.025
  0
LINE
  8
0
 10
357.947
 11
357.947
 20
73.025
 21
70.025
  0
LINE
  8
0
 10
357.947
 11
364.125
 20
70.025
 21
70.025
  0
LINE
  8
0
 10
364.125
 11
364.125
 20
70.025
 21
63.847
  0
LINE
  8
0
 10
364.125
 11
367.125
 20
63.847
 21
63.847
  0
LINE
  8
0
 10
367.125
 11
367.125
 20
63.847
 21
54.819
  0
LINE
  8
0
 10
367.125
 11
364.125
 20
54.819
 21
54.819
  0
LINE
  8
0
 10
364.125
 11
364.125
 20
54.819
 21
45.591
  0
LINE
  8
0
 10
364.125
 11
367.125
 20
45.591
 21
45.591
  0
LINE
  8
0
 10
367.125
 11
367.125
 20
45.591
 21
36.562
  0
LINE
  8
0
 10
367.125
 11
364.125
 20
36.562
 21
36.562
  0
LINE
  8
0
 10
364.125
 11
364.125
 20
36.562
 21
27.334
  0
LINE
  8
0
 10
364.125
 11
367.125
 20
27.334
 21
27.334
  0
LINE
  8
0
 10
367.125
 11
367.125
 20
27.334
 21
18.306
  0
LINE
  8
0
 10
367.125
 11
364.125
 20
18.306
 21
18.306
  0
LINE
  8
0
 10
364.125
 11
364.125
 20
18.306
 21
9.078
  0
LINE
  8
0
 10
364.125
 11
367.125
 20
9.078
 21
9.078
  0
LINE
  8
0
 10
367.125
 11
367.125
 20
9.078
 21
0.05
  0
LINE
  8
0
 10
367.125
 11
364.125
 20
0.05
 21
0.05
  0
LINE
  8
0
 10
364.125
 11
364.125
 20
0.05
 21
-9.178
  0
LINE
  8
0
 10
364.125
 11
367.125
 20
-9.178
 21
-9.178
  0
LINE
  8
0
 10
367.125
 11
367.125
 20
-9.178
 21
-18.206
  0
LINE
  8
0
 10
367.125
 11
364.125
 20
-18.206
 21
-18.206
  0
LINE
  8
0
 10
364.125
 11
364.125
 20
-18.206
 21
-27.434
  0
LINE
  8
0
 10
364.125
 11
367.125
 20
-27.434
 21
-27.434
  0
LINE
  8
0
 10
367.125
 11
367.125
 20
-27.434
 21
-36.463
  0
LINE
  8
0
 10
367.125
 11
364.125
 20
-36.463
 21
-36.463
  0
LINE
  8
0
 10
364.125
 11
364.125
 20
-36.463
 21
-45.691
  0
LINE
  8
0
 10
364.125
 11
367.125
 20
-45.691
 21
-45.691
  0
LINE
  8
0
 10
367.125
 11
367.125
 20
-45.691
 21
-54.719
  0
LINE
  8
0
 10
367.125
 11
364.125
 20
-54.719
 21
-54.719
  0
LINE
  8
0
 10
364.125
 11
364.125
 20
-54.719
 21
-63.947
  0
LINE
  8
0
 10
364.125
 11
367.125
 20
-63.947
 21
-63.947
  0
LINE
  8
0
 10
367.125
 11
367.125
 20
-63.947
 21
-70.025
  0
LINE
  8
0
 10
367.125
 11
367.075
 20
-70.025
 21
-70.025
  0
LINE
  8
0
 10
367.075
 11
367.075
 20
-70.025
 21
-72.975
  0
LINE
  8
0
 10
367.075
 11
364.125
 20
-72.975
 21
-72.975
  0
LINE
  8
0
 10
364.125
 11
364.125
 20
-72.975
 21
-73.025
  0
LINE
  8
0
 10
364.125
 11
358.047
 20
-73.025
 21
-73.025
  0
LINE
  8
0
 10
358.047
 11
358.047
 20
-73.025
 21
-70.025
  0
LINE
  8
0
 10
358.047
 11
348.819
 20
-70.025
 21
-70.025
  0
LINE
  8
0
 10
348.819
 11
348.819
 20
-70.025
 21
-73.025
  0
LINE
  8
0
 10
348.819
 11
339.791
 20
-73.025
 21
-73.025
  0
LINE
  8
0
 10
339.791
 11
339.791
 20
-73.025
 21
-70.025
  0
LINE
  8
0
 10
339.791
 11
330.563
 20
-70.025
 21
-70.025
  0
LINE
  8
0
 10
330.563
 11
330.563
 20
-70.025
 21
-73.025
  0
LINE
  8
0
 10
330.563
 11
321.534
 20
-73.025
 21
-73.025
  0
LINE
  8
0
 10
321.534
 11
321.534
 20
-73.025
 21
-70.025
  0
LINE
  8
0
 10
321.534
 11
312.306
 20
-70.025
 21
-70.025
  0
LINE
  8
0
 10
312.306
 11
312.306
 20
-70.025
 21
-73.025
  0
LINE
  8
0
 10
312.306
 11
303.278
 20
-73.025
 21
-73.025
  0
LINE
  8
0
 10
303.278
 11
303.278
 20
-73.025
 21
-70.025
  0
LINE
  8
0
 10
303.278
 11
294.05
 20
-70.025
 21
-70.025
  0
LINE
  8
0
 10
294.05
 11
294.05
 20
-70.025
 21
-73.025
  0
LINE
  8
0
 10
294.05
 11
285.022
 20
-73.025
 21
-73.025
  0
LINE
  8
0
 10
285.022
 11
285.022
 20
-73.025
 21
-70.025
  0
LINE
  8
0
 10
285.022
 11
275.794
 20
-70.025
 21
-70.025
  0
LINE
  8
0
 10
275.794
 11
275.794
 20
-70.025
 21
-73.025
  0
LINE
  8
0
 10
275.794
 11
266.766
 20
-73.025
 21
-73.025
  0
LINE
  8
0
 10
266.766
 11
266.766
 20
-73.025
 21
-70.025
  0
LINE
  8
0
 10
266.766
 11
257.537
 20
-70.025
 21
-70.025
  0
LINE
  8
0
 10
257.537
 11
257.537
 20
-70.025
 21
-73.025
  0
LINE
  8
0
 10
257.537
 11
248.509
 20
-73.025
 21
-73.025
  0
LINE
  8
0
 10
248.509
 11
248.509
 20
-73.025
 21
-70.025
  0
LINE
  8
0
 10
248.509
 11
239.281
 20
-70.025
 21
-70.025
  0
LINE
  8
0
 10
239.281
 11
239.281
 20
-70.025
 21
-73.025
  0
LINE
  8
0
 10
239.281
 11
230.253
 20
-73.025
 21
-73.025
  0
LINE
  8
0
 10
230.253
 11
230.253
 20
-73.025
 21
-70.025
  0
LINE
  8
0
 10
230.253
 11
224.075
 20
-70.025
 21
-70.025
  0
LINE
  8
0
 10
224.075
 11
224.075
 20
-70.025
 21
-63.847
  0
LINE
  8
0
 10
224.075
 11
221.075
 20
-63.847
 21
-63.847
  0
ENDSEC
  0
SECTION
  2
OBJECTS
  0
DICTIONARY
  0
ENDSEC
  0
EOF
