  0
SECTION
  2
BLOCKS
  0
ENDSEC
  0
SECTION
  2
ENTITIES
  0
LINE
  8
0
 10
-66.675
 11
-66.675
 20
-66.675
 21
66.675
  0
LINE
  8
0
 10
-66.675
 11
66.675
 20
66.675
 21
66.675
  0
LINE
  8
0
 10
66.675
 11
66.675
 20
66.675
 21
-66.675
  0
LINE
  8
0
 10
66.675
 11
-66.675
 20
-66.675
 21
-66.675
  0
LINE
  8
0
 10
-66.675
 11
-66.675
 20
67.675
 21
201.025
  0
LINE
  8
0
 10
-66.675
 11
66.675
 20
201.025
 21
201.025
  0
LINE
  8
0
 10
66.675
 11
66.675
 20
201.025
 21
67.675
  0
LINE
  8
0
 10
66.675
 11
-66.675
 20
67.675
 21
67.675
  0
LINE
  8
0
 10
-57.15
 11
-57.15
 20
-57.15
 21
-47.625
  0
LINE
  8
0
 10
-57.15
 11
-47.625
 20
-47.625
 21
-47.625
  0
LINE
  8
0
 10
-47.625
 11
-47.625
 20
-47.625
 21
-57.15
  0
LINE
  8
0
 10
-47.625
 11
-57.15
 20
-57.15
 21
-57.15
  0
LINE
  8
0
 10
-57.15
 11
-57.15
 20
0
 21
19.05
  0
LINE
  8
0
 10
-57.15
 11
-38.1
 20
19.05
 21
19.05
  0
LINE
  8
0
 10
-38.1
 11
-38.1
 20
19.05
 21
9.575
  0
LINE
  8
0
 10
-38.1
 11
-28.575
 20
9.575
 21
9.575
  0
LINE
  8
0
 10
-28.575
 11
-28.575
 20
9.575
 21
19.05
  0
LINE
  8
0
 10
-28.575
 11
-9.525
 20
19.05
 21
19.05
  0
LINE
  8
0
 10
-9.525
 11
-9.525
 20
19.05
 21
38.1
  0
LINE
  8
0
 10
-9.525
 11
28.575
 20
38.1
 21
38.1
  0
LINE
  8
0
 10
28.575
 11
28.575
 20
38.1
 21
28.623
  0
LINE
  8
0
 10
28.575
 11
38.148
 20
28.623
 21
28.623
  0
LINE
  8
0
 10
38.148
 11
38.148
 20
28.623
 21
19.098
  0
LINE
  8
0
 10
38.148
 11
47.673
 20
19.098
 21
19.098
  0
LINE
  8
0
 10
47.673
 11
47.673
 20
19.098
 21
-28.623
  0
LINE
  8
0
 10
47.673
 11
38.148
 20
-28.623
 21
-28.623
  0
LINE
  8
0
 10
38.148
 11
38.148
 20
-28.623
 21
-38.148
  0
LINE
  8
0
 10
38.148
 11
9.477
 20
-38.148
 21
-38.148
  0
LINE
  8
0
 10
9.477
 11
9.477
 20
-38.148
 21
-28.575
  0
LINE
  8
0
 10
9.477
 11
0
 20
-28.575
 21
-28.575
  0
LINE
  8
0
 10
0
 11
0
 20
-28.575
 21
-9.573
  0
LINE
  8
0
 10
0
 11
-19.098
 20
-9.573
 21
-9.573
  0
LINE
  8
0
 10
-19.098
 11
-19.098
 20
-9.573
 21
0
  0
LINE
  8
0
 10
-19.098
 11
-28.525
 20
0
 21
0
  0
LINE
  8
0
 10
-28.525
 11
-28.525
 20
0
 21
-9.575
  0
LINE
  8
0
 10
-28.525
 11
-47.675
 20
-9.575
 21
-9.575
  0
LINE
  8
0
 10
-47.675
 11
-47.675
 20
-9.575
 21
0
  0
LINE
  8
0
 10
-47.675
 11
-57.15
 20
0
 21
0
  0
LINE
  8
0
 10
-57.15
 11
-57.15
 20
47.625
 21
57.15
  0
LINE
  8
0
 10
-57.15
 11
-47.625
 20
57.15
 21
57.15
  0
LINE
  8
0
 10
-47.625
 11
-47.625
 20
57.15
 21
47.625
  0
LINE
  8
0
 10
-47.625
 11
-57.15
 20
47.625
 21
47.625
  0
LINE
  8
0
 10
-57.15
 11
-57.15
 20
77.2
 21
86.725
  0
LINE
  8
0
 10
-57.15
 11
-47.625
 20
86.725
 21
86.725
  0
LINE
  8
0
 10
-47.625
 11
-47.625
 20
86.725
 21
77.2
  0
LINE
  8
0
 10
-47.625
 11
-57.15
 20
77.2
 21
77.2
  0
LINE
  8
0
 10
-57.15
 11
-57.15
 20
134.35
 21
153.4
  0
LINE
  8
0
 10
-57.15
 11
-38.1
 20
153.4
 21
153.4
  0
LINE
  8
0
 10
-38.1
 11
-38.1
 20
153.4
 21
143.925
  0
LINE
  8
0
 10
-38.1
 11
-28.575
 20
143.925
 21
143.925
  0
LINE
  8
0
 10
-28.575
 11
-28.575
 20
143.925
 21
153.4
  0
LINE
  8
0
 10
-28.575
 11
-9.525
 20
153.4
 21
153.4
  0
LINE
  8
0
 10
-9.525
 11
-9.525
 20
153.4
 21
172.45
  0
LINE
  8
0
 10
-9.525
 11
28.575
 20
172.45
 21
172.45
  0
LINE
  8
0
 10
28.575
 11
28.575
 20
172.45
 21
162.973
  0
LINE
  8
0
 10
28.575
 11
38.148
 20
162.973
 21
162.973
  0
LINE
  8
0
 10
38.148
 11
38.148
 20
162.973
 21
153.448
  0
LINE
  8
0
 10
38.148
 11
47.673
 20
153.448
 21
153.448
  0
LINE
  8
0
 10
47.673
 11
47.673
 20
153.448
 21
105.727
  0
LINE
  8
0
 10
47.673
 11
38.148
 20
105.727
 21
105.727
  0
LINE
  8
0
 10
38.148
 11
38.148
 20
105.727
 21
96.202
  0
LINE
  8
0
 10
38.148
 11
9.477
 20
96.202
 21
96.202
  0
LINE
  8
0
 10
9.477
 11
9.477
 20
96.202
 21
105.775
  0
LINE
  8
0
 10
9.477
 11
0
 20
105.775
 21
105.775
  0
LINE
  8
0
 10
0
 11
0
 20
105.775
 21
124.777
  0
LINE
  8
0
 10
0
 11
-19.098
 20
124.777
 21
124.777
  0
LINE
  8
0
 10
-19.098
 11
-19.098
 20
124.777
 21
134.35
  0
LINE
  8
0
 10
-19.098
 11
-28.525
 20
134.35
 21
134.35
  0
LINE
  8
0
 10
-28.525
 11
-28.525
 20
134.35
 21
124.775
  0
LINE
  8
0
 10
-28.525
 11
-47.675
 20
124.775
 21
124.775
  0
LINE
  8
0
 10
-47.675
 11
-47.675
 20
124.775
 21
134.35
  0
LINE
  8
0
 10
-47.675
 11
-57.15
 20
134.35
 21
134.35
  0
LINE
  8
0
 10
-57.15
 11
-57.15
 20
181.975
 21
191.5
  0
LINE
  8
0
 10
-57.15
 11
-47.625
 20
191.5
 21
191.5
  0
LINE
  8
0
 10
-47.625
 11
-47.625
 20
191.5
 21
181.975
  0
LINE
  8
0
 10
-47.625
 11
-57.15
 20
181.975
 21
181.975
  0
LINE
  8
0
 10
0.048
 11
0.048
 20
-9.525
 21
-0.048
  0
LINE
  8
0
 10
0.048
 11
9.573
 20
-0.048
 21
-0.048
  0
LINE
  8
0
 10
9.573
 11
9.573
 20
-0.048
 21
9.477
  0
LINE
  8
0
 10
9.573
 11
28.575
 20
9.477
 21
9.477
  0
LINE
  8
0
 10
28.575
 11
28.575
 20
9.477
 21
-9.525
  0
LINE
  8
0
 10
28.575
 11
0.048
 20
-9.525
 21
-9.525
  0
LINE
  8
0
 10
0.048
 11
0.048
 20
124.825
 21
134.302
  0
LINE
  8
0
 10
0.048
 11
9.573
 20
134.302
 21
134.302
  0
LINE
  8
0
 10
9.573
 11
9.573
 20
134.302
 21
143.827
  0
LINE
  8
0
 10
9.573
 11
28.575
 20
143.827
 21
143.827
  0
LINE
  8
0
 10
28.575
 11
28.575
 20
143.827
 21
124.825
  0
LINE
  8
0
 10
28.575
 11
0.048
 20
124.825
 21
124.825
  0
LINE
  8
0
 10
47.625
 11
47.625
 20
-57.15
 21
-47.625
  0
LINE
  8
0
 10
47.625
 11
57.15
 20
-47.625
 21
-47.625
  0
LINE
  8
0
 10
57.15
 11
57.15
 20
-47.625
 21
-57.15
  0
LINE
  8
0
 10
57.15
 11
47.625
 20
-57.15
 21
-57.15
  0
LINE
  8
0
 10
47.625
 11
47.625
 20
47.625
 21
57.15
  0
LINE
  8
0
 10
47.625
 11
57.15
 20
57.15
 21
57.15
  0
LINE
  8
0
 10
57.15
 11
57.15
 20
57.15
 21
47.625
  0
LINE
  8
0
 10
57.15
 11
47.625
 20
47.625
 21
47.625
  0
LINE
  8
0
 10
47.625
 11
47.625
 20
77.2
 21
86.725
  0
LINE
  8
0
 10
47.625
 11
57.15
 20
86.725
 21
86.725
  0
LINE
  8
0
 10
57.15
 11
57.15
 20
86.725
 21
77.2
  0
LINE
  8
0
 10
57.15
 11
47.625
 20
77.2
 21
77.2
  0
LINE
  8
0
 10
47.625
 11
47.625
 20
181.975
 21
191.5
  0
LINE
  8
0
 10
47.625
 11
57.15
 20
191.5
 21
191.5
  0
LINE
  8
0
 10
57.15
 11
57.15
 20
191.5
 21
181.975
  0
LINE
  8
0
 10
57.15
 11
47.625
 20
181.975
 21
181.975
  0
LINE
  8
0
 10
67.675
 11
67.675
 20
-66.675
 21
66.675
  0
LINE
  8
0
 10
67.675
 11
201.025
 20
66.675
 21
66.675
  0
LINE
  8
0
 10
201.025
 11
201.025
 20
66.675
 21
-66.675
  0
LINE
  8
0
 10
201.025
 11
67.675
 20
-66.675
 21
-66.675
  0
LINE
  8
0
 10
67.675
 11
67.675
 20
67.675
 21
201.025
  0
LINE
  8
0
 10
67.675
 11
201.025
 20
201.025
 21
201.025
  0
LINE
  8
0
 10
201.025
 11
201.025
 20
201.025
 21
67.675
  0
LINE
  8
0
 10
201.025
 11
67.675
 20
67.675
 21
67.675
  0
LINE
  8
0
 10
77.2
 11
77.2
 20
-57.15
 21
-47.625
  0
LINE
  8
0
 10
77.2
 11
86.725
 20
-47.625
 21
-47.625
  0
LINE
  8
0
 10
86.725
 11
86.725
 20
-47.625
 21
-57.15
  0
LINE
  8
0
 10
86.725
 11
77.2
 20
-57.15
 21
-57.15
  0
LINE
  8
0
 10
77.2
 11
77.2
 20
0
 21
19.05
  0
LINE
  8
0
 10
77.2
 11
96.25
 20
19.05
 21
19.05
  0
LINE
  8
0
 10
96.25
 11
96.25
 20
19.05
 21
9.575
  0
LINE
  8
0
 10
96.25
 11
105.775
 20
9.575
 21
9.575
  0
LINE
  8
0
 10
105.775
 11
105.775
 20
9.575
 21
19.05
  0
LINE
  8
0
 10
105.775
 11
124.825
 20
19.05
 21
19.05
  0
LINE
  8
0
 10
124.825
 11
124.825
 20
19.05
 21
38.1
  0
LINE
  8
0
 10
124.825
 11
162.925
 20
38.1
 21
38.1
  0
LINE
  8
0
 10
162.925
 11
162.925
 20
38.1
 21
28.623
  0
LINE
  8
0
 10
162.925
 11
172.498
 20
28.623
 21
28.623
  0
LINE
  8
0
 10
172.498
 11
172.498
 20
28.623
 21
19.098
  0
LINE
  8
0
 10
172.498
 11
182.023
 20
19.098
 21
19.098
  0
LINE
  8
0
 10
182.023
 11
182.023
 20
19.098
 21
-28.623
  0
LINE
  8
0
 10
182.023
 11
172.498
 20
-28.623
 21
-28.623
  0
LINE
  8
0
 10
172.498
 11
172.498
 20
-28.623
 21
-38.148
  0
LINE
  8
0
 10
172.498
 11
143.827
 20
-38.148
 21
-38.148
  0
LINE
  8
0
 10
143.827
 11
143.827
 20
-38.148
 21
-28.575
  0
LINE
  8
0
 10
143.827
 11
134.35
 20
-28.575
 21
-28.575
  0
LINE
  8
0
 10
134.35
 11
134.35
 20
-28.575
 21
-9.573
  0
LINE
  8
0
 10
134.35
 11
115.252
 20
-9.573
 21
-9.573
  0
LINE
  8
0
 10
115.252
 11
115.252
 20
-9.573
 21
0
  0
LINE
  8
0
 10
115.252
 11
105.825
 20
0
 21
0
  0
LINE
  8
0
 10
105.825
 11
105.825
 20
0
 21
-9.575
  0
LINE
  8
0
 10
105.825
 11
86.675
 20
-9.575
 21
-9.575
  0
LINE
  8
0
 10
86.675
 11
86.675
 20
-9.575
 21
0
  0
LINE
  8
0
 10
86.675
 11
77.2
 20
0
 21
0
  0
LINE
  8
0
 10
77.2
 11
77.2
 20
47.625
 21
57.15
  0
LINE
  8
0
 10
77.2
 11
86.725
 20
57.15
 21
57.15
  0
LINE
  8
0
 10
86.725
 11
86.725
 20
57.15
 21
47.625
  0
LINE
  8
0
 10
86.725
 11
77.2
 20
47.625
 21
47.625
  0
LINE
  8
0
 10
77.2
 11
77.2
 20
77.2
 21
86.725
  0
LINE
  8
0
 10
77.2
 11
86.725
 20
86.725
 21
86.725
  0
LINE
  8
0
 10
86.725
 11
86.725
 20
86.725
 21
77.2
  0
LINE
  8
0
 10
86.725
 11
77.2
 20
77.2
 21
77.2
  0
LINE
  8
0
 10
77.2
 11
77.2
 20
134.35
 21
153.4
  0
LINE
  8
0
 10
77.2
 11
96.25
 20
153.4
 21
153.4
  0
LINE
  8
0
 10
96.25
 11
96.25
 20
153.4
 21
143.925
  0
LINE
  8
0
 10
96.25
 11
105.775
 20
143.925
 21
143.925
  0
LINE
  8
0
 10
105.775
 11
105.775
 20
143.925
 21
153.4
  0
LINE
  8
0
 10
105.775
 11
124.825
 20
153.4
 21
153.4
  0
LINE
  8
0
 10
124.825
 11
124.825
 20
153.4
 21
172.45
  0
LINE
  8
0
 10
124.825
 11
162.925
 20
172.45
 21
172.45
  0
LINE
  8
0
 10
162.925
 11
162.925
 20
172.45
 21
162.973
  0
LINE
  8
0
 10
162.925
 11
172.498
 20
162.973
 21
162.973
  0
LINE
  8
0
 10
172.498
 11
172.498
 20
162.973
 21
153.448
  0
LINE
  8
0
 10
172.498
 11
182.023
 20
153.448
 21
153.448
  0
LINE
  8
0
 10
182.023
 11
182.023
 20
153.448
 21
105.727
  0
LINE
  8
0
 10
182.023
 11
172.498
 20
105.727
 21
105.727
  0
LINE
  8
0
 10
172.498
 11
172.498
 20
105.727
 21
96.202
  0
LINE
  8
0
 10
172.498
 11
143.827
 20
96.202
 21
96.202
  0
LINE
  8
0
 10
143.827
 11
143.827
 20
96.202
 21
105.775
  0
LINE
  8
0
 10
143.827
 11
134.35
 20
105.775
 21
105.775
  0
LINE
  8
0
 10
134.35
 11
134.35
 20
105.775
 21
124.777
  0
LINE
  8
0
 10
134.35
 11
115.252
 20
124.777
 21
124.777
  0
LINE
  8
0
 10
115.252
 11
115.252
 20
124.777
 21
134.35
  0
LINE
  8
0
 10
115.252
 11
105.825
 20
134.35
 21
134.35
  0
LINE
  8
0
 10
105.825
 11
105.825
 20
134.35
 21
124.775
  0
LINE
  8
0
 10
105.825
 11
86.675
 20
124.775
 21
124.775
  0
LINE
  8
0
 10
86.675
 11
86.675
 20
124.775
 21
134.35
  0
LINE
  8
0
 10
86.675
 11
77.2
 20
134.35
 21
134.35
  0
LINE
  8
0
 10
77.2
 11
77.2
 20
181.975
 21
191.5
  0
LINE
  8
0
 10
77.2
 11
86.725
 20
191.5
 21
191.5
  0
LINE
  8
0
 10
86.725
 11
86.725
 20
191.5
 21
181.975
  0
LINE
  8
0
 10
86.725
 11
77.2
 20
181.975
 21
181.975
  0
LINE
  8
0
 10
134.398
 11
134.398
 20
-9.525
 21
-0.048
  0
LINE
  8
0
 10
134.398
 11
143.923
 20
-0.048
 21
-0.048
  0
LINE
  8
0
 10
143.923
 11
143.923
 20
-0.048
 21
9.477
  0
LINE
  8
0
 10
143.923
 11
162.925
 20
9.477
 21
9.477
  0
LINE
  8
0
 10
162.925
 11
162.925
 20
9.477
 21
-9.525
  0
LINE
  8
0
 10
162.925
 11
134.398
 20
-9.525
 21
-9.525
  0
LINE
  8
0
 10
134.398
 11
134.398
 20
124.825
 21
134.302
  0
LINE
  8
0
 10
134.398
 11
143.923
 20
134.302
 21
134.302
  0
LINE
  8
0
 10
143.923
 11
143.923
 20
134.302
 21
143.827
  0
LINE
  8
0
 10
143.923
 11
162.925
 20
143.827
 21
143.827
  0
LINE
  8
0
 10
162.925
 11
162.925
 20
143.827
 21
124.825
  0
LINE
  8
0
 10
162.925
 11
134.398
 20
124.825
 21
124.825
  0
LINE
  8
0
 10
181.975
 11
181.975
 20
-57.15
 21
-47.625
  0
LINE
  8
0
 10
181.975
 11
191.5
 20
-47.625
 21
-47.625
  0
LINE
  8
0
 10
191.5
 11
191.5
 20
-47.625
 21
-57.15
  0
LINE
  8
0
 10
191.5
 11
181.975
 20
-57.15
 21
-57.15
  0
LINE
  8
0
 10
181.975
 11
181.975
 20
47.625
 21
57.15
  0
LINE
  8
0
 10
181.975
 11
191.5
 20
57.15
 21
57.15
  0
LINE
  8
0
 10
191.5
 11
191.5
 20
57.15
 21
47.625
  0
LINE
  8
0
 10
191.5
 11
181.975
 20
47.625
 21
47.625
  0
LINE
  8
0
 10
181.975
 11
181.975
 20
77.2
 21
86.725
  0
LINE
  8
0
 10
181.975
 11
191.5
 20
86.725
 21
86.725
  0
LINE
  8
0
 10
191.5
 11
191.5
 20
86.725
 21
77.2
  0
LINE
  8
0
 10
191.5
 11
181.975
 20
77.2
 21
77.2
  0
LINE
  8
0
 10
181.975
 11
181.975
 20
181.975
 21
191.5
  0
LINE
  8
0
 10
181.975
 11
191.5
 20
191.5
 21
191.5
  0
LINE
  8
0
 10
191.5
 11
191.5
 20
191.5
 21
181.975
  0
LINE
  8
0
 10
191.5
 11
181.975
 20
181.975
 21
181.975
  0
ENDSEC
  0
SECTION
  2
OBJECTS
  0
DICTIONARY
  0
ENDSEC
  0
EOF
