  0
SECTION
  2
BLOCKS
  0
ENDSEC
  0
SECTION
  2
ENTITIES
  0
LINE
  8
0
 10
-88.9
 11
-88.9
 20
-88.9
 21
88.9
  0
LINE
  8
0
 10
-88.9
 11
88.9
 20
88.9
 21
88.9
  0
LINE
  8
0
 10
88.9
 11
88.9
 20
88.9
 21
-88.9
  0
LINE
  8
0
 10
88.9
 11
-88.9
 20
-88.9
 21
-88.9
  0
LINE
  8
0
 10
-88.9
 11
-88.9
 20
89.9
 21
267.7
  0
LINE
  8
0
 10
-88.9
 11
88.9
 20
267.7
 21
267.7
  0
LINE
  8
0
 10
88.9
 11
88.9
 20
267.7
 21
89.9
  0
LINE
  8
0
 10
88.9
 11
-88.9
 20
89.9
 21
89.9
  0
LINE
  8
0
 10
-76.2
 11
-76.2
 20
-76.2
 21
-63.5
  0
LINE
  8
0
 10
-76.2
 11
-63.5
 20
-63.5
 21
-63.5
  0
LINE
  8
0
 10
-63.5
 11
-63.5
 20
-63.5
 21
-76.2
  0
LINE
  8
0
 10
-63.5
 11
-76.2
 20
-76.2
 21
-76.2
  0
LINE
  8
0
 10
-76.2
 11
-76.2
 20
0
 21
25.4
  0
LINE
  8
0
 10
-76.2
 11
-50.8
 20
25.4
 21
25.4
  0
LINE
  8
0
 10
-50.8
 11
-50.8
 20
25.4
 21
12.75
  0
LINE
  8
0
 10
-50.8
 11
-38.1
 20
12.75
 21
12.75
  0
LINE
  8
0
 10
-38.1
 11
-38.1
 20
12.75
 21
25.4
  0
LINE
  8
0
 10
-38.1
 11
-12.7
 20
25.4
 21
25.4
  0
LINE
  8
0
 10
-12.7
 11
-12.7
 20
25.4
 21
50.8
  0
LINE
  8
0
 10
-12.7
 11
38.1
 20
50.8
 21
50.8
  0
LINE
  8
0
 10
38.1
 11
38.1
 20
50.8
 21
38.164
  0
LINE
  8
0
 10
38.1
 11
50.863
 20
38.164
 21
38.164
  0
LINE
  8
0
 10
50.863
 11
50.863
 20
38.164
 21
25.464
  0
LINE
  8
0
 10
50.863
 11
63.563
 20
25.464
 21
25.464
  0
LINE
  8
0
 10
63.563
 11
63.563
 20
25.464
 21
-38.164
  0
LINE
  8
0
 10
63.563
 11
50.863
 20
-38.164
 21
-38.164
  0
LINE
  8
0
 10
50.863
 11
50.863
 20
-38.164
 21
-50.863
  0
LINE
  8
0
 10
50.863
 11
12.637
 20
-50.863
 21
-50.863
  0
LINE
  8
0
 10
12.637
 11
12.637
 20
-50.863
 21
-38.1
  0
LINE
  8
0
 10
12.637
 11
0
 20
-38.1
 21
-38.1
  0
LINE
  8
0
 10
0
 11
0
 20
-38.1
 21
-12.763
  0
LINE
  8
0
 10
0
 11
-25.464
 20
-12.763
 21
-12.763
  0
LINE
  8
0
 10
-25.464
 11
-25.464
 20
-12.763
 21
0
  0
LINE
  8
0
 10
-25.464
 11
-38.05
 20
0
 21
0
  0
LINE
  8
0
 10
-38.05
 11
-38.05
 20
0
 21
-12.75
  0
LINE
  8
0
 10
-38.05
 11
-63.55
 20
-12.75
 21
-12.75
  0
LINE
  8
0
 10
-63.55
 11
-63.55
 20
-12.75
 21
0
  0
LINE
  8
0
 10
-63.55
 11
-76.2
 20
0
 21
0
  0
LINE
  8
0
 10
-76.2
 11
-76.2
 20
63.5
 21
76.2
  0
LINE
  8
0
 10
-76.2
 11
-63.5
 20
76.2
 21
76.2
  0
LINE
  8
0
 10
-63.5
 11
-63.5
 20
76.2
 21
63.5
  0
LINE
  8
0
 10
-63.5
 11
-76.2
 20
63.5
 21
63.5
  0
LINE
  8
0
 10
-76.2
 11
-76.2
 20
102.6
 21
115.3
  0
LINE
  8
0
 10
-76.2
 11
-63.5
 20
115.3
 21
115.3
  0
LINE
  8
0
 10
-63.5
 11
-63.5
 20
115.3
 21
102.6
  0
LINE
  8
0
 10
-63.5
 11
-76.2
 20
102.6
 21
102.6
  0
LINE
  8
0
 10
-76.2
 11
-76.2
 20
178.8
 21
204.2
  0
LINE
  8
0
 10
-76.2
 11
-50.8
 20
204.2
 21
204.2
  0
LINE
  8
0
 10
-50.8
 11
-50.8
 20
204.2
 21
191.55
  0
LINE
  8
0
 10
-50.8
 11
-38.1
 20
191.55
 21
191.55
  0
LINE
  8
0
 10
-38.1
 11
-38.1
 20
191.55
 21
204.2
  0
LINE
  8
0
 10
-38.1
 11
-12.7
 20
204.2
 21
204.2
  0
LINE
  8
0
 10
-12.7
 11
-12.7
 20
204.2
 21
229.6
  0
LINE
  8
0
 10
-12.7
 11
38.1
 20
229.6
 21
229.6
  0
LINE
  8
0
 10
38.1
 11
38.1
 20
229.6
 21
216.963
  0
LINE
  8
0
 10
38.1
 11
50.863
 20
216.963
 21
216.963
  0
LINE
  8
0
 10
50.863
 11
50.863
 20
216.963
 21
204.264
  0
LINE
  8
0
 10
50.863
 11
63.563
 20
204.264
 21
204.264
  0
LINE
  8
0
 10
63.563
 11
63.563
 20
204.264
 21
140.636
  0
LINE
  8
0
 10
63.563
 11
50.863
 20
140.636
 21
140.636
  0
LINE
  8
0
 10
50.863
 11
50.863
 20
140.636
 21
127.936
  0
LINE
  8
0
 10
50.863
 11
12.637
 20
127.936
 21
127.936
  0
LINE
  8
0
 10
12.637
 11
12.637
 20
127.936
 21
140.7
  0
LINE
  8
0
 10
12.637
 11
0
 20
140.7
 21
140.7
  0
LINE
  8
0
 10
0
 11
0
 20
140.7
 21
166.037
  0
LINE
  8
0
 10
0
 11
-25.464
 20
166.037
 21
166.037
  0
LINE
  8
0
 10
-25.464
 11
-25.464
 20
166.037
 21
178.8
  0
LINE
  8
0
 10
-25.464
 11
-38.05
 20
178.8
 21
178.8
  0
LINE
  8
0
 10
-38.05
 11
-38.05
 20
178.8
 21
166.05
  0
LINE
  8
0
 10
-38.05
 11
-63.55
 20
166.05
 21
166.05
  0
LINE
  8
0
 10
-63.55
 11
-63.55
 20
166.05
 21
178.8
  0
LINE
  8
0
 10
-63.55
 11
-76.2
 20
178.8
 21
178.8
  0
LINE
  8
0
 10
-76.2
 11
-76.2
 20
242.3
 21
255
  0
LINE
  8
0
 10
-76.2
 11
-63.5
 20
255
 21
255
  0
LINE
  8
0
 10
-63.5
 11
-63.5
 20
255
 21
242.3
  0
LINE
  8
0
 10
-63.5
 11
-76.2
 20
242.3
 21
242.3
  0
LINE
  8
0
 10
0.064
 11
0.064
 20
-12.7
 21
-0.064
  0
LINE
  8
0
 10
0.064
 11
12.763
 20
-0.064
 21
-0.064
  0
LINE
  8
0
 10
12.763
 11
12.763
 20
-0.064
 21
12.637
  0
LINE
  8
0
 10
12.763
 11
38.1
 20
12.637
 21
12.637
  0
LINE
  8
0
 10
38.1
 11
38.1
 20
12.637
 21
-12.7
  0
LINE
  8
0
 10
38.1
 11
0.064
 20
-12.7
 21
-12.7
  0
LINE
  8
0
 10
0.064
 11
0.064
 20
166.1
 21
178.736
  0
LINE
  8
0
 10
0.064
 11
12.763
 20
178.736
 21
178.736
  0
LINE
  8
0
 10
12.763
 11
12.763
 20
178.736
 21
191.437
  0
LINE
  8
0
 10
12.763
 11
38.1
 20
191.437
 21
191.437
  0
LINE
  8
0
 10
38.1
 11
38.1
 20
191.437
 21
166.1
  0
LINE
  8
0
 10
38.1
 11
0.064
 20
166.1
 21
166.1
  0
LINE
  8
0
 10
63.5
 11
63.5
 20
-76.2
 21
-63.5
  0
LINE
  8
0
 10
63.5
 11
76.2
 20
-63.5
 21
-63.5
  0
LINE
  8
0
 10
76.2
 11
76.2
 20
-63.5
 21
-76.2
  0
LINE
  8
0
 10
76.2
 11
63.5
 20
-76.2
 21
-76.2
  0
LINE
  8
0
 10
63.5
 11
63.5
 20
63.5
 21
76.2
  0
LINE
  8
0
 10
63.5
 11
76.2
 20
76.2
 21
76.2
  0
LINE
  8
0
 10
76.2
 11
76.2
 20
76.2
 21
63.5
  0
LINE
  8
0
 10
76.2
 11
63.5
 20
63.5
 21
63.5
  0
LINE
  8
0
 10
63.5
 11
63.5
 20
102.6
 21
115.3
  0
LINE
  8
0
 10
63.5
 11
76.2
 20
115.3
 21
115.3
  0
LINE
  8
0
 10
76.2
 11
76.2
 20
115.3
 21
102.6
  0
LINE
  8
0
 10
76.2
 11
63.5
 20
102.6
 21
102.6
  0
LINE
  8
0
 10
63.5
 11
63.5
 20
242.3
 21
255
  0
LINE
  8
0
 10
63.5
 11
76.2
 20
255
 21
255
  0
LINE
  8
0
 10
76.2
 11
76.2
 20
255
 21
242.3
  0
LINE
  8
0
 10
76.2
 11
63.5
 20
242.3
 21
242.3
  0
LINE
  8
0
 10
89.9
 11
89.9
 20
-88.9
 21
88.9
  0
LINE
  8
0
 10
89.9
 11
267.7
 20
88.9
 21
88.9
  0
LINE
  8
0
 10
267.7
 11
267.7
 20
88.9
 21
-88.9
  0
LINE
  8
0
 10
267.7
 11
89.9
 20
-88.9
 21
-88.9
  0
LINE
  8
0
 10
89.9
 11
89.9
 20
89.9
 21
267.7
  0
LINE
  8
0
 10
89.9
 11
267.7
 20
267.7
 21
267.7
  0
LINE
  8
0
 10
267.7
 11
267.7
 20
267.7
 21
89.9
  0
LINE
  8
0
 10
267.7
 11
89.9
 20
89.9
 21
89.9
  0
LINE
  8
0
 10
102.6
 11
102.6
 20
-76.2
 21
-63.5
  0
LINE
  8
0
 10
102.6
 11
115.3
 20
-63.5
 21
-63.5
  0
LINE
  8
0
 10
115.3
 11
115.3
 20
-63.5
 21
-76.2
  0
LINE
  8
0
 10
115.3
 11
102.6
 20
-76.2
 21
-76.2
  0
LINE
  8
0
 10
102.6
 11
102.6
 20
0
 21
25.4
  0
LINE
  8
0
 10
102.6
 11
128
 20
25.4
 21
25.4
  0
LINE
  8
0
 10
128
 11
128
 20
25.4
 21
12.75
  0
LINE
  8
0
 10
128
 11
140.7
 20
12.75
 21
12.75
  0
LINE
  8
0
 10
140.7
 11
140.7
 20
12.75
 21
25.4
  0
LINE
  8
0
 10
140.7
 11
166.1
 20
25.4
 21
25.4
  0
LINE
  8
0
 10
166.1
 11
166.1
 20
25.4
 21
50.8
  0
LINE
  8
0
 10
166.1
 11
216.9
 20
50.8
 21
50.8
  0
LINE
  8
0
 10
216.9
 11
216.9
 20
50.8
 21
38.164
  0
LINE
  8
0
 10
216.9
 11
229.664
 20
38.164
 21
38.164
  0
LINE
  8
0
 10
229.664
 11
229.664
 20
38.164
 21
25.464
  0
LINE
  8
0
 10
229.664
 11
242.363
 20
25.464
 21
25.464
  0
LINE
  8
0
 10
242.363
 11
242.363
 20
25.464
 21
-38.164
  0
LINE
  8
0
 10
242.363
 11
229.664
 20
-38.164
 21
-38.164
  0
LINE
  8
0
 10
229.664
 11
229.664
 20
-38.164
 21
-50.863
  0
LINE
  8
0
 10
229.664
 11
191.437
 20
-50.863
 21
-50.863
  0
LINE
  8
0
 10
191.437
 11
191.437
 20
-50.863
 21
-38.1
  0
LINE
  8
0
 10
191.437
 11
178.8
 20
-38.1
 21
-38.1
  0
LINE
  8
0
 10
178.8
 11
178.8
 20
-38.1
 21
-12.763
  0
LINE
  8
0
 10
178.8
 11
153.337
 20
-12.763
 21
-12.763
  0
LINE
  8
0
 10
153.337
 11
153.337
 20
-12.763
 21
0
  0
LINE
  8
0
 10
153.337
 11
140.75
 20
0
 21
0
  0
LINE
  8
0
 10
140.75
 11
140.75
 20
0
 21
-12.75
  0
LINE
  8
0
 10
140.75
 11
115.25
 20
-12.75
 21
-12.75
  0
LINE
  8
0
 10
115.25
 11
115.25
 20
-12.75
 21
0
  0
LINE
  8
0
 10
115.25
 11
102.6
 20
0
 21
0
  0
LINE
  8
0
 10
102.6
 11
102.6
 20
63.5
 21
76.2
  0
LINE
  8
0
 10
102.6
 11
115.3
 20
76.2
 21
76.2
  0
LINE
  8
0
 10
115.3
 11
115.3
 20
76.2
 21
63.5
  0
LINE
  8
0
 10
115.3
 11
102.6
 20
63.5
 21
63.5
  0
LINE
  8
0
 10
102.6
 11
102.6
 20
102.6
 21
115.3
  0
LINE
  8
0
 10
102.6
 11
115.3
 20
115.3
 21
115.3
  0
LINE
  8
0
 10
115.3
 11
115.3
 20
115.3
 21
102.6
  0
LINE
  8
0
 10
115.3
 11
102.6
 20
102.6
 21
102.6
  0
LINE
  8
0
 10
102.6
 11
102.6
 20
178.8
 21
204.2
  0
LINE
  8
0
 10
102.6
 11
128
 20
204.2
 21
204.2
  0
LINE
  8
0
 10
128
 11
128
 20
204.2
 21
191.55
  0
LINE
  8
0
 10
128
 11
140.7
 20
191.55
 21
191.55
  0
LINE
  8
0
 10
140.7
 11
140.7
 20
191.55
 21
204.2
  0
LINE
  8
0
 10
140.7
 11
166.1
 20
204.2
 21
204.2
  0
LINE
  8
0
 10
166.1
 11
166.1
 20
204.2
 21
229.6
  0
LINE
  8
0
 10
166.1
 11
216.9
 20
229.6
 21
229.6
  0
LINE
  8
0
 10
216.9
 11
216.9
 20
229.6
 21
216.963
  0
LINE
  8
0
 10
216.9
 11
229.664
 20
216.963
 21
216.963
  0
LINE
  8
0
 10
229.664
 11
229.664
 20
216.963
 21
204.264
  0
LINE
  8
0
 10
229.664
 11
242.363
 20
204.264
 21
204.264
  0
LINE
  8
0
 10
242.363
 11
242.363
 20
204.264
 21
140.636
  0
LINE
  8
0
 10
242.363
 11
229.664
 20
140.636
 21
140.636
  0
LINE
  8
0
 10
229.664
 11
229.664
 20
140.636
 21
127.936
  0
LINE
  8
0
 10
229.664
 11
191.437
 20
127.936
 21
127.936
  0
LINE
  8
0
 10
191.437
 11
191.437
 20
127.936
 21
140.7
  0
LINE
  8
0
 10
191.437
 11
178.8
 20
140.7
 21
140.7
  0
LINE
  8
0
 10
178.8
 11
178.8
 20
140.7
 21
166.037
  0
LINE
  8
0
 10
178.8
 11
153.337
 20
166.037
 21
166.037
  0
LINE
  8
0
 10
153.337
 11
153.337
 20
166.037
 21
178.8
  0
LINE
  8
0
 10
153.337
 11
140.75
 20
178.8
 21
178.8
  0
LINE
  8
0
 10
140.75
 11
140.75
 20
178.8
 21
166.05
  0
LINE
  8
0
 10
140.75
 11
115.25
 20
166.05
 21
166.05
  0
LINE
  8
0
 10
115.25
 11
115.25
 20
166.05
 21
178.8
  0
LINE
  8
0
 10
115.25
 11
102.6
 20
178.8
 21
178.8
  0
LINE
  8
0
 10
102.6
 11
102.6
 20
242.3
 21
255
  0
LINE
  8
0
 10
102.6
 11
115.3
 20
255
 21
255
  0
LINE
  8
0
 10
115.3
 11
115.3
 20
255
 21
242.3
  0
LINE
  8
0
 10
115.3
 11
102.6
 20
242.3
 21
242.3
  0
LINE
  8
0
 10
178.863
 11
178.863
 20
-12.7
 21
-0.064
  0
LINE
  8
0
 10
178.863
 11
191.564
 20
-0.064
 21
-0.064
  0
LINE
  8
0
 10
191.564
 11
191.564
 20
-0.064
 21
12.637
  0
LINE
  8
0
 10
191.564
 11
216.9
 20
12.637
 21
12.637
  0
LINE
  8
0
 10
216.9
 11
216.9
 20
12.637
 21
-12.7
  0
LINE
  8
0
 10
216.9
 11
178.863
 20
-12.7
 21
-12.7
  0
LINE
  8
0
 10
178.863
 11
178.863
 20
166.1
 21
178.736
  0
LINE
  8
0
 10
178.863
 11
191.564
 20
178.736
 21
178.736
  0
LINE
  8
0
 10
191.564
 11
191.564
 20
178.736
 21
191.437
  0
LINE
  8
0
 10
191.564
 11
216.9
 20
191.437
 21
191.437
  0
LINE
  8
0
 10
216.9
 11
216.9
 20
191.437
 21
166.1
  0
LINE
  8
0
 10
216.9
 11
178.863
 20
166.1
 21
166.1
  0
LINE
  8
0
 10
242.3
 11
242.3
 20
-76.2
 21
-63.5
  0
LINE
  8
0
 10
242.3
 11
255
 20
-63.5
 21
-63.5
  0
LINE
  8
0
 10
255
 11
255
 20
-63.5
 21
-76.2
  0
LINE
  8
0
 10
255
 11
242.3
 20
-76.2
 21
-76.2
  0
LINE
  8
0
 10
242.3
 11
242.3
 20
63.5
 21
76.2
  0
LINE
  8
0
 10
242.3
 11
255
 20
76.2
 21
76.2
  0
LINE
  8
0
 10
255
 11
255
 20
76.2
 21
63.5
  0
LINE
  8
0
 10
255
 11
242.3
 20
63.5
 21
63.5
  0
LINE
  8
0
 10
242.3
 11
242.3
 20
102.6
 21
115.3
  0
LINE
  8
0
 10
242.3
 11
255
 20
115.3
 21
115.3
  0
LINE
  8
0
 10
255
 11
255
 20
115.3
 21
102.6
  0
LINE
  8
0
 10
255
 11
242.3
 20
102.6
 21
102.6
  0
LINE
  8
0
 10
242.3
 11
242.3
 20
242.3
 21
255
  0
LINE
  8
0
 10
242.3
 11
255
 20
255
 21
255
  0
LINE
  8
0
 10
255
 11
255
 20
255
 21
242.3
  0
LINE
  8
0
 10
255
 11
242.3
 20
242.3
 21
242.3
  0
ENDSEC
  0
SECTION
  2
OBJECTS
  0
DICTIONARY
  0
ENDSEC
  0
EOF
