G75*
G70*
%OFA0B0*%
%FSLAX24Y24*%
%IPPOS*%
%LPD*%
%AMOC8*
5,1,8,0,0,1.08239X$1,22.5*
%
%ADD10C,0.0000*%
%ADD11R,0.0513X0.0474*%
%ADD12R,0.0631X0.0474*%
%ADD13C,0.1085*%
%ADD14R,0.0320X0.0950*%
%ADD15R,0.0474X0.0631*%
%ADD16R,0.0552X0.1064*%
%ADD17R,0.0789X0.1261*%
%ADD18R,0.0710X0.1143*%
%ADD19R,0.1064X0.0552*%
%ADD20R,0.1261X0.0789*%
%ADD21R,0.1143X0.0710*%
D10*
X000101Y000726D02*
X000101Y012537D01*
X011912Y012537D01*
X011912Y000726D01*
X000101Y000726D01*
D11*
X004043Y005256D03*
X004043Y005926D03*
X004018Y007063D03*
X004018Y007732D03*
X007659Y008703D03*
X007659Y009373D03*
D12*
X007676Y007995D03*
X007676Y007247D03*
X008543Y007621D03*
D13*
X008566Y006160D02*
X007856Y005449D01*
X008015Y004231D02*
X007305Y003520D01*
X009532Y002982D02*
X010355Y002406D01*
X004591Y004246D02*
X003586Y004246D01*
X003383Y009067D02*
X004388Y009067D01*
D14*
X005335Y008109D03*
X005835Y008109D03*
X006335Y008109D03*
X006835Y008109D03*
X006835Y005459D03*
X006335Y005459D03*
X005835Y005459D03*
X005335Y005459D03*
D15*
X003339Y010134D03*
X002591Y010134D03*
X002965Y011000D03*
D16*
X005061Y010962D03*
X006951Y010962D03*
X006951Y002300D03*
X005061Y002300D03*
D17*
X006006Y002300D03*
X006006Y010962D03*
D18*
X007817Y010962D03*
X008920Y010962D03*
X004195Y002300D03*
X003093Y002300D03*
D19*
X001676Y005686D03*
X001676Y007576D03*
X010337Y007576D03*
X010337Y005686D03*
D20*
X010337Y006631D03*
X001676Y006631D03*
D21*
X001676Y004820D03*
X001676Y003718D03*
X010337Y008442D03*
X010337Y009545D03*
M02*
