  0
SECTION
  2
BLOCKS
  0
ENDSEC
  0
SECTION
  2
ENTITIES
  0
LINE
  8
0
 10
-57.15
 11
-57.15
 20
57.15
 21
82.55
  0
LINE
  8
0
 10
-57.15
 11
-31.75
 20
82.55
 21
82.55
  0
LINE
  8
0
 10
-31.75
 11
-31.75
 20
82.55
 21
107.95
  0
LINE
  8
0
 10
-31.75
 11
19.05
 20
107.95
 21
107.95
  0
LINE
  8
0
 10
19.05
 11
19.05
 20
107.95
 21
95.25
  0
LINE
  8
0
 10
19.05
 11
-19.05
 20
95.25
 21
95.25
  0
LINE
  8
0
 10
-19.05
 11
-19.05
 20
95.25
 21
69.85
  0
LINE
  8
0
 10
-19.05
 11
-44.45
 20
69.85
 21
69.85
  0
LINE
  8
0
 10
-44.45
 11
-44.45
 20
69.85
 21
57.15
  0
LINE
  8
0
 10
-44.45
 11
-57.15
 20
57.15
 21
57.15
  0
LINE
  8
0
 10
-53.8
 11
-53.8
 20
3
 21
28.4
  0
LINE
  8
0
 10
-53.8
 11
-28.4
 20
28.4
 21
28.4
  0
LINE
  8
0
 10
-28.4
 11
-28.4
 20
28.4
 21
15.7
  0
LINE
  8
0
 10
-28.4
 11
-41.1
 20
15.7
 21
15.7
  0
LINE
  8
0
 10
-41.1
 11
-41.1
 20
15.7
 21
3
  0
LINE
  8
0
 10
-41.1
 11
-53.8
 20
3
 21
3
  0
LINE
  8
0
 10
-43.45
 11
-43.45
 20
43.45
 21
68.85
  0
LINE
  8
0
 10
-43.45
 11
-18.05
 20
68.85
 21
68.85
  0
LINE
  8
0
 10
-18.05
 11
-18.05
 20
68.85
 21
94.25
  0
LINE
  8
0
 10
-18.05
 11
32.75
 20
94.25
 21
94.25
  0
LINE
  8
0
 10
32.75
 11
32.75
 20
94.25
 21
81.55
  0
LINE
  8
0
 10
32.75
 11
-5.35
 20
81.55
 21
81.55
  0
LINE
  8
0
 10
-5.35
 11
-5.35
 20
81.55
 21
56.15
  0
LINE
  8
0
 10
-5.35
 11
-30.75
 20
56.15
 21
56.15
  0
LINE
  8
0
 10
-30.75
 11
-30.75
 20
56.15
 21
43.45
  0
LINE
  8
0
 10
-30.75
 11
-43.45
 20
43.45
 21
43.45
  0
LINE
  8
0
 10
-40.1
 11
-40.1
 20
-10.7
 21
14.7
  0
LINE
  8
0
 10
-40.1
 11
-14.7
 20
14.7
 21
14.7
  0
LINE
  8
0
 10
-14.7
 11
-14.7
 20
14.7
 21
2
  0
LINE
  8
0
 10
-14.7
 11
-27.4
 20
2
 21
2
  0
LINE
  8
0
 10
-27.4
 11
-27.4
 20
2
 21
-10.7
  0
LINE
  8
0
 10
-27.4
 11
-40.1
 20
-10.7
 21
-10.7
  0
LINE
  8
0
 10
-29.75
 11
-29.75
 20
29.75
 21
55.15
  0
LINE
  8
0
 10
-29.75
 11
-4.35
 20
55.15
 21
55.15
  0
LINE
  8
0
 10
-4.35
 11
-4.35
 20
55.15
 21
80.55
  0
LINE
  8
0
 10
-4.35
 11
46.45
 20
80.55
 21
80.55
  0
LINE
  8
0
 10
46.45
 11
46.45
 20
80.55
 21
67.85
  0
LINE
  8
0
 10
46.45
 11
8.35
 20
67.85
 21
67.85
  0
LINE
  8
0
 10
8.35
 11
8.35
 20
67.85
 21
42.45
  0
LINE
  8
0
 10
8.35
 11
-17.05
 20
42.45
 21
42.45
  0
LINE
  8
0
 10
-17.05
 11
-17.05
 20
42.45
 21
29.75
  0
LINE
  8
0
 10
-17.05
 11
-29.75
 20
29.75
 21
29.75
  0
LINE
  8
0
 10
-26.4
 11
-26.4
 20
-24.4
 21
1
  0
LINE
  8
0
 10
-26.4
 11
-1
 20
1
 21
1
  0
LINE
  8
0
 10
-1
 11
-1
 20
1
 21
-11.7
  0
LINE
  8
0
 10
-1
 11
-13.7
 20
-11.7
 21
-11.7
  0
LINE
  8
0
 10
-13.7
 11
-13.7
 20
-11.7
 21
-24.4
  0
LINE
  8
0
 10
-13.7
 11
-26.4
 20
-24.4
 21
-24.4
  0
LINE
  8
0
 10
-16.05
 11
-16.05
 20
16.05
 21
41.45
  0
LINE
  8
0
 10
-16.05
 11
9.35
 20
41.45
 21
41.45
  0
LINE
  8
0
 10
9.35
 11
9.35
 20
41.45
 21
66.85
  0
LINE
  8
0
 10
9.35
 11
60.15
 20
66.85
 21
66.85
  0
LINE
  8
0
 10
60.15
 11
60.15
 20
66.85
 21
54.15
  0
LINE
  8
0
 10
60.15
 11
22.05
 20
54.15
 21
54.15
  0
LINE
  8
0
 10
22.05
 11
22.05
 20
54.15
 21
28.75
  0
LINE
  8
0
 10
22.05
 11
-3.35
 20
28.75
 21
28.75
  0
LINE
  8
0
 10
-3.35
 11
-3.35
 20
28.75
 21
16.05
  0
LINE
  8
0
 10
-3.35
 11
-16.05
 20
16.05
 21
16.05
  0
LINE
  8
0
 10
-12.7
 11
-12.7
 20
-38.1
 21
-12.7
  0
LINE
  8
0
 10
-12.7
 11
12.7
 20
-12.7
 21
-12.7
  0
LINE
  8
0
 10
12.7
 11
12.7
 20
-12.7
 21
-25.4
  0
LINE
  8
0
 10
12.7
 11
0
 20
-25.4
 21
-25.4
  0
LINE
  8
0
 10
0
 11
0
 20
-25.4
 21
-38.1
  0
LINE
  8
0
 10
0
 11
-12.7
 20
-38.1
 21
-38.1
  0
LINE
  8
0
 10
0
 11
0
 20
0
 21
25.4
  0
LINE
  8
0
 10
0
 11
38.1
 20
25.4
 21
25.4
  0
LINE
  8
0
 10
38.1
 11
38.1
 20
25.4
 21
50.8
  0
LINE
  8
0
 10
38.1
 11
50.8
 20
50.8
 21
50.8
  0
LINE
  8
0
 10
50.8
 11
50.8
 20
50.8
 21
12.7
  0
LINE
  8
0
 10
50.8
 11
12.7
 20
12.7
 21
12.7
  0
LINE
  8
0
 10
12.7
 11
12.7
 20
12.7
 21
0
  0
LINE
  8
0
 10
12.7
 11
0
 20
0
 21
0
  0
LINE
  8
0
 10
13.7
 11
13.7
 20
-13.7
 21
11.7
  0
LINE
  8
0
 10
13.7
 11
51.8
 20
11.7
 21
11.7
  0
LINE
  8
0
 10
51.8
 11
51.8
 20
11.7
 21
37.1
  0
LINE
  8
0
 10
51.8
 11
64.5
 20
37.1
 21
37.1
  0
LINE
  8
0
 10
64.5
 11
64.5
 20
37.1
 21
-1
  0
LINE
  8
0
 10
64.5
 11
26.4
 20
-1
 21
-1
  0
LINE
  8
0
 10
26.4
 11
26.4
 20
-1
 21
-13.7
  0
LINE
  8
0
 10
26.4
 11
13.7
 20
-13.7
 21
-13.7
  0
LINE
  8
0
 10
27.4
 11
27.4
 20
-27.4
 21
-2
  0
LINE
  8
0
 10
27.4
 11
65.5
 20
-2
 21
-2
  0
LINE
  8
0
 10
65.5
 11
65.5
 20
-2
 21
23.4
  0
LINE
  8
0
 10
65.5
 11
78.2
 20
23.4
 21
23.4
  0
LINE
  8
0
 10
78.2
 11
78.2
 20
23.4
 21
-14.7
  0
LINE
  8
0
 10
78.2
 11
40.1
 20
-14.7
 21
-14.7
  0
LINE
  8
0
 10
40.1
 11
40.1
 20
-14.7
 21
-27.4
  0
LINE
  8
0
 10
40.1
 11
27.4
 20
-27.4
 21
-27.4
  0
LINE
  8
0
 10
41.1
 11
41.1
 20
-41.1
 21
-15.7
  0
LINE
  8
0
 10
41.1
 11
79.2
 20
-15.7
 21
-15.7
  0
LINE
  8
0
 10
79.2
 11
79.2
 20
-15.7
 21
9.7
  0
LINE
  8
0
 10
79.2
 11
91.9
 20
9.7
 21
9.7
  0
LINE
  8
0
 10
91.9
 11
91.9
 20
9.7
 21
-28.4
  0
LINE
  8
0
 10
91.9
 11
53.8
 20
-28.4
 21
-28.4
  0
LINE
  8
0
 10
53.8
 11
53.8
 20
-28.4
 21
-41.1
  0
LINE
  8
0
 10
53.8
 11
41.1
 20
-41.1
 21
-41.1
  0
LINE
  8
0
 10
63.5
 11
63.5
 20
44.45
 21
57.15
  0
LINE
  8
0
 10
63.5
 11
76.2
 20
57.15
 21
57.15
  0
LINE
  8
0
 10
76.2
 11
76.2
 20
57.15
 21
44.45
  0
LINE
  8
0
 10
76.2
 11
63.5
 20
44.45
 21
44.45
  0
LINE
  8
0
 10
63.5
 11
63.5
 20
58.15
 21
70.85
  0
LINE
  8
0
 10
63.5
 11
76.2
 20
70.85
 21
70.85
  0
LINE
  8
0
 10
76.2
 11
76.2
 20
70.85
 21
58.15
  0
LINE
  8
0
 10
76.2
 11
63.5
 20
58.15
 21
58.15
  0
LINE
  8
0
 10
63.5
 11
63.5
 20
71.85
 21
84.55
  0
LINE
  8
0
 10
63.5
 11
76.2
 20
84.55
 21
84.55
  0
LINE
  8
0
 10
76.2
 11
76.2
 20
84.55
 21
71.85
  0
LINE
  8
0
 10
76.2
 11
63.5
 20
71.85
 21
71.85
  0
LINE
  8
0
 10
63.5
 11
63.5
 20
85.55
 21
98.25
  0
LINE
  8
0
 10
63.5
 11
76.2
 20
98.25
 21
98.25
  0
LINE
  8
0
 10
76.2
 11
76.2
 20
98.25
 21
85.55
  0
LINE
  8
0
 10
76.2
 11
63.5
 20
85.55
 21
85.55
  0
LINE
  8
0
 10
77.2
 11
77.2
 20
44.45
 21
57.15
  0
LINE
  8
0
 10
77.2
 11
89.9
 20
57.15
 21
57.15
  0
LINE
  8
0
 10
89.9
 11
89.9
 20
57.15
 21
44.45
  0
LINE
  8
0
 10
89.9
 11
77.2
 20
44.45
 21
44.45
  0
LINE
  8
0
 10
77.2
 11
77.2
 20
58.15
 21
70.85
  0
LINE
  8
0
 10
77.2
 11
89.9
 20
70.85
 21
70.85
  0
LINE
  8
0
 10
89.9
 11
89.9
 20
70.85
 21
58.15
  0
LINE
  8
0
 10
89.9
 11
77.2
 20
58.15
 21
58.15
  0
LINE
  8
0
 10
77.2
 11
77.2
 20
71.85
 21
84.55
  0
LINE
  8
0
 10
77.2
 11
89.9
 20
84.55
 21
84.55
  0
LINE
  8
0
 10
89.9
 11
89.9
 20
84.55
 21
71.85
  0
LINE
  8
0
 10
89.9
 11
77.2
 20
71.85
 21
71.85
  0
LINE
  8
0
 10
77.2
 11
77.2
 20
85.55
 21
98.25
  0
LINE
  8
0
 10
77.2
 11
89.9
 20
98.25
 21
98.25
  0
LINE
  8
0
 10
89.9
 11
89.9
 20
98.25
 21
85.55
  0
LINE
  8
0
 10
89.9
 11
77.2
 20
85.55
 21
85.55
  0
LINE
  8
0
 10
90.9
 11
90.9
 20
44.45
 21
57.15
  0
LINE
  8
0
 10
90.9
 11
103.6
 20
57.15
 21
57.15
  0
LINE
  8
0
 10
103.6
 11
103.6
 20
57.15
 21
44.45
  0
LINE
  8
0
 10
103.6
 11
90.9
 20
44.45
 21
44.45
  0
LINE
  8
0
 10
90.9
 11
90.9
 20
58.15
 21
70.85
  0
LINE
  8
0
 10
90.9
 11
103.6
 20
70.85
 21
70.85
  0
LINE
  8
0
 10
103.6
 11
103.6
 20
70.85
 21
58.15
  0
LINE
  8
0
 10
103.6
 11
90.9
 20
58.15
 21
58.15
  0
LINE
  8
0
 10
90.9
 11
90.9
 20
71.85
 21
84.55
  0
LINE
  8
0
 10
90.9
 11
103.6
 20
84.55
 21
84.55
  0
LINE
  8
0
 10
103.6
 11
103.6
 20
84.55
 21
71.85
  0
LINE
  8
0
 10
103.6
 11
90.9
 20
71.85
 21
71.85
  0
LINE
  8
0
 10
90.9
 11
90.9
 20
85.55
 21
98.25
  0
LINE
  8
0
 10
90.9
 11
103.6
 20
98.25
 21
98.25
  0
LINE
  8
0
 10
103.6
 11
103.6
 20
98.25
 21
85.55
  0
LINE
  8
0
 10
103.6
 11
90.9
 20
85.55
 21
85.55
  0
LINE
  8
0
 10
104.6
 11
104.6
 20
44.45
 21
57.15
  0
LINE
  8
0
 10
104.6
 11
117.3
 20
57.15
 21
57.15
  0
LINE
  8
0
 10
117.3
 11
117.3
 20
57.15
 21
44.45
  0
LINE
  8
0
 10
117.3
 11
104.6
 20
44.45
 21
44.45
  0
LINE
  8
0
 10
104.6
 11
104.6
 20
58.15
 21
70.85
  0
LINE
  8
0
 10
104.6
 11
117.3
 20
70.85
 21
70.85
  0
LINE
  8
0
 10
117.3
 11
117.3
 20
70.85
 21
58.15
  0
LINE
  8
0
 10
117.3
 11
104.6
 20
58.15
 21
58.15
  0
LINE
  8
0
 10
104.6
 11
104.6
 20
71.85
 21
84.55
  0
LINE
  8
0
 10
104.6
 11
117.3
 20
84.55
 21
84.55
  0
LINE
  8
0
 10
117.3
 11
117.3
 20
84.55
 21
71.85
  0
LINE
  8
0
 10
117.3
 11
104.6
 20
71.85
 21
71.85
  0
LINE
  8
0
 10
104.6
 11
104.6
 20
85.55
 21
98.25
  0
LINE
  8
0
 10
104.6
 11
117.3
 20
98.25
 21
98.25
  0
LINE
  8
0
 10
117.3
 11
117.3
 20
98.25
 21
85.55
  0
LINE
  8
0
 10
117.3
 11
104.6
 20
85.55
 21
85.55
  0
ENDSEC
  0
SECTION
  2
OBJECTS
  0
DICTIONARY
  0
ENDSEC
  0
EOF
