  0
SECTION
  2
BLOCKS
  0
ENDSEC
  0
SECTION
  2
ENTITIES
  0
LINE
  8
0
 10
0
 11
0
 20
0
 21
18.256
  0
LINE
  8
0
 10
0
 11
18.256
 20
18.256
 21
18.256
  0
LINE
  8
0
 10
18.256
 11
18.256
 20
18.256
 21
36.512
  0
LINE
  8
0
 10
18.256
 11
54.769
 20
36.512
 21
36.512
  0
LINE
  8
0
 10
54.769
 11
54.769
 20
36.512
 21
27.384
  0
LINE
  8
0
 10
54.769
 11
27.384
 20
27.384
 21
27.384
  0
LINE
  8
0
 10
27.384
 11
27.384
 20
27.384
 21
9.128
  0
LINE
  8
0
 10
27.384
 11
9.128
 20
9.128
 21
9.128
  0
LINE
  8
0
 10
9.128
 11
9.128
 20
9.128
 21
0
  0
LINE
  8
0
 10
9.128
 11
0
 20
0
 21
0
  0
LINE
  8
0
 10
1.082
 11
1.082
 20
-31.105
 21
-12.848
  0
LINE
  8
0
 10
1.082
 11
19.338
 20
-12.848
 21
-12.848
  0
LINE
  8
0
 10
19.338
 11
19.338
 20
-12.848
 21
-21.977
  0
LINE
  8
0
 10
19.338
 11
10.21
 20
-21.977
 21
-21.977
  0
LINE
  8
0
 10
10.21
 11
10.21
 20
-21.977
 21
-31.105
  0
LINE
  8
0
 10
10.21
 11
1.082
 20
-31.105
 21
-31.105
  0
LINE
  8
0
 10
4.564
 11
4.564
 20
-232.767
 21
-223.639
  0
LINE
  8
0
 10
4.564
 11
13.692
 20
-223.639
 21
-223.639
  0
LINE
  8
0
 10
13.692
 11
13.692
 20
-223.639
 21
-232.767
  0
LINE
  8
0
 10
13.692
 11
4.564
 20
-232.767
 21
-232.767
  0
LINE
  8
0
 10
4.564
 11
4.564
 20
-222.639
 21
-213.511
  0
LINE
  8
0
 10
4.564
 11
13.692
 20
-213.511
 21
-213.511
  0
LINE
  8
0
 10
13.692
 11
13.692
 20
-213.511
 21
-222.639
  0
LINE
  8
0
 10
13.692
 11
4.564
 20
-222.639
 21
-222.639
  0
LINE
  8
0
 10
4.564
 11
4.564
 20
-212.511
 21
-203.383
  0
LINE
  8
0
 10
4.564
 11
13.692
 20
-203.383
 21
-203.383
  0
LINE
  8
0
 10
13.692
 11
13.692
 20
-203.383
 21
-212.511
  0
LINE
  8
0
 10
13.692
 11
4.564
 20
-212.511
 21
-212.511
  0
LINE
  8
0
 10
4.564
 11
4.564
 20
-202.383
 21
-193.255
  0
LINE
  8
0
 10
4.564
 11
13.692
 20
-193.255
 21
-193.255
  0
LINE
  8
0
 10
13.692
 11
13.692
 20
-193.255
 21
-202.383
  0
LINE
  8
0
 10
13.692
 11
4.564
 20
-202.383
 21
-202.383
  0
LINE
  8
0
 10
4.564
 11
4.564
 20
-192.255
 21
-183.127
  0
LINE
  8
0
 10
4.564
 11
13.692
 20
-183.127
 21
-183.127
  0
LINE
  8
0
 10
13.692
 11
13.692
 20
-183.127
 21
-192.255
  0
LINE
  8
0
 10
13.692
 11
4.564
 20
-192.255
 21
-192.255
  0
LINE
  8
0
 10
4.564
 11
4.564
 20
-182.127
 21
-172.998
  0
LINE
  8
0
 10
4.564
 11
13.692
 20
-172.998
 21
-172.998
  0
LINE
  8
0
 10
13.692
 11
13.692
 20
-172.998
 21
-182.127
  0
LINE
  8
0
 10
13.692
 11
4.564
 20
-182.127
 21
-182.127
  0
LINE
  8
0
 10
4.564
 11
4.564
 20
-171.998
 21
-162.87
  0
LINE
  8
0
 10
4.564
 11
13.692
 20
-162.87
 21
-162.87
  0
LINE
  8
0
 10
13.692
 11
13.692
 20
-162.87
 21
-171.998
  0
LINE
  8
0
 10
13.692
 11
4.564
 20
-171.998
 21
-171.998
  0
LINE
  8
0
 10
4.564
 11
4.564
 20
-161.87
 21
-152.742
  0
LINE
  8
0
 10
4.564
 11
13.692
 20
-152.742
 21
-152.742
  0
LINE
  8
0
 10
13.692
 11
13.692
 20
-152.742
 21
-161.87
  0
LINE
  8
0
 10
13.692
 11
4.564
 20
-161.87
 21
-161.87
  0
LINE
  8
0
 10
10.128
 11
10.128
 20
-10.128
 21
8.128
  0
LINE
  8
0
 10
10.128
 11
28.384
 20
8.128
 21
8.128
  0
LINE
  8
0
 10
28.384
 11
28.384
 20
8.128
 21
26.384
  0
LINE
  8
0
 10
28.384
 11
64.897
 20
26.384
 21
26.384
  0
LINE
  8
0
 10
64.897
 11
64.897
 20
26.384
 21
17.256
  0
LINE
  8
0
 10
64.897
 11
37.512
 20
17.256
 21
17.256
  0
LINE
  8
0
 10
37.512
 11
37.512
 20
17.256
 21
-1
  0
LINE
  8
0
 10
37.512
 11
19.256
 20
-1
 21
-1
  0
LINE
  8
0
 10
19.256
 11
19.256
 20
-1
 21
-10.128
  0
LINE
  8
0
 10
19.256
 11
10.128
 20
-10.128
 21
-10.128
  0
LINE
  8
0
 10
11.21
 11
11.21
 20
-41.233
 21
-22.977
  0
LINE
  8
0
 10
11.21
 11
29.466
 20
-22.977
 21
-22.977
  0
LINE
  8
0
 10
29.466
 11
29.466
 20
-22.977
 21
-32.105
  0
LINE
  8
0
 10
29.466
 11
20.338
 20
-32.105
 21
-32.105
  0
LINE
  8
0
 10
20.338
 11
20.338
 20
-32.105
 21
-41.233
  0
LINE
  8
0
 10
20.338
 11
11.21
 20
-41.233
 21
-41.233
  0
LINE
  8
0
 10
14.692
 11
14.692
 20
-232.767
 21
-223.639
  0
LINE
  8
0
 10
14.692
 11
23.82
 20
-223.639
 21
-223.639
  0
LINE
  8
0
 10
23.82
 11
23.82
 20
-223.639
 21
-232.767
  0
LINE
  8
0
 10
23.82
 11
14.692
 20
-232.767
 21
-232.767
  0
LINE
  8
0
 10
14.692
 11
14.692
 20
-222.639
 21
-213.511
  0
LINE
  8
0
 10
14.692
 11
23.82
 20
-213.511
 21
-213.511
  0
LINE
  8
0
 10
23.82
 11
23.82
 20
-213.511
 21
-222.639
  0
LINE
  8
0
 10
23.82
 11
14.692
 20
-222.639
 21
-222.639
  0
LINE
  8
0
 10
14.692
 11
14.692
 20
-212.511
 21
-203.383
  0
LINE
  8
0
 10
14.692
 11
23.82
 20
-203.383
 21
-203.383
  0
LINE
  8
0
 10
23.82
 11
23.82
 20
-203.383
 21
-212.511
  0
LINE
  8
0
 10
23.82
 11
14.692
 20
-212.511
 21
-212.511
  0
LINE
  8
0
 10
14.692
 11
14.692
 20
-202.383
 21
-193.255
  0
LINE
  8
0
 10
14.692
 11
23.82
 20
-193.255
 21
-193.255
  0
LINE
  8
0
 10
23.82
 11
23.82
 20
-193.255
 21
-202.383
  0
LINE
  8
0
 10
23.82
 11
14.692
 20
-202.383
 21
-202.383
  0
LINE
  8
0
 10
14.692
 11
14.692
 20
-192.255
 21
-183.127
  0
LINE
  8
0
 10
14.692
 11
23.82
 20
-183.127
 21
-183.127
  0
LINE
  8
0
 10
23.82
 11
23.82
 20
-183.127
 21
-192.255
  0
LINE
  8
0
 10
23.82
 11
14.692
 20
-192.255
 21
-192.255
  0
LINE
  8
0
 10
14.692
 11
14.692
 20
-182.127
 21
-172.998
  0
LINE
  8
0
 10
14.692
 11
23.82
 20
-172.998
 21
-172.998
  0
LINE
  8
0
 10
23.82
 11
23.82
 20
-172.998
 21
-182.127
  0
LINE
  8
0
 10
23.82
 11
14.692
 20
-182.127
 21
-182.127
  0
LINE
  8
0
 10
14.692
 11
14.692
 20
-171.998
 21
-162.87
  0
LINE
  8
0
 10
14.692
 11
23.82
 20
-162.87
 21
-162.87
  0
LINE
  8
0
 10
23.82
 11
23.82
 20
-162.87
 21
-171.998
  0
LINE
  8
0
 10
23.82
 11
14.692
 20
-171.998
 21
-171.998
  0
LINE
  8
0
 10
14.692
 11
14.692
 20
-161.87
 21
-152.742
  0
LINE
  8
0
 10
14.692
 11
23.82
 20
-152.742
 21
-152.742
  0
LINE
  8
0
 10
23.82
 11
23.82
 20
-152.742
 21
-161.87
  0
LINE
  8
0
 10
23.82
 11
14.692
 20
-161.87
 21
-161.87
  0
LINE
  8
0
 10
20.256
 11
20.256
 20
-20.256
 21
-2
  0
LINE
  8
0
 10
20.256
 11
38.512
 20
-2
 21
-2
  0
LINE
  8
0
 10
38.512
 11
38.512
 20
-2
 21
16.256
  0
LINE
  8
0
 10
38.512
 11
75.025
 20
16.256
 21
16.256
  0
LINE
  8
0
 10
75.025
 11
75.025
 20
16.256
 21
7.128
  0
LINE
  8
0
 10
75.025
 11
47.641
 20
7.128
 21
7.128
  0
LINE
  8
0
 10
47.641
 11
47.641
 20
7.128
 21
-11.128
  0
LINE
  8
0
 10
47.641
 11
29.384
 20
-11.128
 21
-11.128
  0
LINE
  8
0
 10
29.384
 11
29.384
 20
-11.128
 21
-20.256
  0
LINE
  8
0
 10
29.384
 11
20.256
 20
-20.256
 21
-20.256
  0
LINE
  8
0
 10
21.338
 11
21.338
 20
-51.361
 21
-33.105
  0
LINE
  8
0
 10
21.338
 11
39.594
 20
-33.105
 21
-33.105
  0
LINE
  8
0
 10
39.594
 11
39.594
 20
-33.105
 21
-42.233
  0
LINE
  8
0
 10
39.594
 11
30.466
 20
-42.233
 21
-42.233
  0
LINE
  8
0
 10
30.466
 11
30.466
 20
-42.233
 21
-51.361
  0
LINE
  8
0
 10
30.466
 11
21.338
 20
-51.361
 21
-51.361
  0
LINE
  8
0
 10
24.82
 11
24.82
 20
-232.767
 21
-223.639
  0
LINE
  8
0
 10
24.82
 11
33.948
 20
-223.639
 21
-223.639
  0
LINE
  8
0
 10
33.948
 11
33.948
 20
-223.639
 21
-232.767
  0
LINE
  8
0
 10
33.948
 11
24.82
 20
-232.767
 21
-232.767
  0
LINE
  8
0
 10
24.82
 11
24.82
 20
-222.639
 21
-213.511
  0
LINE
  8
0
 10
24.82
 11
33.948
 20
-213.511
 21
-213.511
  0
LINE
  8
0
 10
33.948
 11
33.948
 20
-213.511
 21
-222.639
  0
LINE
  8
0
 10
33.948
 11
24.82
 20
-222.639
 21
-222.639
  0
LINE
  8
0
 10
24.82
 11
24.82
 20
-212.511
 21
-203.383
  0
LINE
  8
0
 10
24.82
 11
33.948
 20
-203.383
 21
-203.383
  0
LINE
  8
0
 10
33.948
 11
33.948
 20
-203.383
 21
-212.511
  0
LINE
  8
0
 10
33.948
 11
24.82
 20
-212.511
 21
-212.511
  0
LINE
  8
0
 10
24.82
 11
24.82
 20
-202.383
 21
-193.255
  0
LINE
  8
0
 10
24.82
 11
33.948
 20
-193.255
 21
-193.255
  0
LINE
  8
0
 10
33.948
 11
33.948
 20
-193.255
 21
-202.383
  0
LINE
  8
0
 10
33.948
 11
24.82
 20
-202.383
 21
-202.383
  0
LINE
  8
0
 10
24.82
 11
24.82
 20
-192.255
 21
-183.127
  0
LINE
  8
0
 10
24.82
 11
33.948
 20
-183.127
 21
-183.127
  0
LINE
  8
0
 10
33.948
 11
33.948
 20
-183.127
 21
-192.255
  0
LINE
  8
0
 10
33.948
 11
24.82
 20
-192.255
 21
-192.255
  0
LINE
  8
0
 10
24.82
 11
24.82
 20
-182.127
 21
-172.998
  0
LINE
  8
0
 10
24.82
 11
33.948
 20
-172.998
 21
-172.998
  0
LINE
  8
0
 10
33.948
 11
33.948
 20
-172.998
 21
-182.127
  0
LINE
  8
0
 10
33.948
 11
24.82
 20
-182.127
 21
-182.127
  0
LINE
  8
0
 10
24.82
 11
24.82
 20
-171.998
 21
-162.87
  0
LINE
  8
0
 10
24.82
 11
33.948
 20
-162.87
 21
-162.87
  0
LINE
  8
0
 10
33.948
 11
33.948
 20
-162.87
 21
-171.998
  0
LINE
  8
0
 10
33.948
 11
24.82
 20
-171.998
 21
-171.998
  0
LINE
  8
0
 10
24.82
 11
24.82
 20
-161.87
 21
-152.742
  0
LINE
  8
0
 10
24.82
 11
33.948
 20
-152.742
 21
-152.742
  0
LINE
  8
0
 10
33.948
 11
33.948
 20
-152.742
 21
-161.87
  0
LINE
  8
0
 10
33.948
 11
24.82
 20
-161.87
 21
-161.87
  0
LINE
  8
0
 10
30.384
 11
30.384
 20
-30.384
 21
-12.128
  0
LINE
  8
0
 10
30.384
 11
48.641
 20
-12.128
 21
-12.128
  0
LINE
  8
0
 10
48.641
 11
48.641
 20
-12.128
 21
6.128
  0
LINE
  8
0
 10
48.641
 11
85.153
 20
6.128
 21
6.128
  0
LINE
  8
0
 10
85.153
 11
85.153
 20
6.128
 21
-3
  0
LINE
  8
0
 10
85.153
 11
57.769
 20
-3
 21
-3
  0
LINE
  8
0
 10
57.769
 11
57.769
 20
-3
 21
-21.256
  0
LINE
  8
0
 10
57.769
 11
39.512
 20
-21.256
 21
-21.256
  0
LINE
  8
0
 10
39.512
 11
39.512
 20
-21.256
 21
-30.384
  0
LINE
  8
0
 10
39.512
 11
30.384
 20
-30.384
 21
-30.384
  0
LINE
  8
0
 10
31.466
 11
31.466
 20
-61.489
 21
-43.233
  0
LINE
  8
0
 10
31.466
 11
49.722
 20
-43.233
 21
-43.233
  0
LINE
  8
0
 10
49.722
 11
49.722
 20
-43.233
 21
-52.361
  0
LINE
  8
0
 10
49.722
 11
40.594
 20
-52.361
 21
-52.361
  0
LINE
  8
0
 10
40.594
 11
40.594
 20
-52.361
 21
-61.489
  0
LINE
  8
0
 10
40.594
 11
31.466
 20
-61.489
 21
-61.489
  0
LINE
  8
0
 10
34.948
 11
34.948
 20
-232.767
 21
-223.639
  0
LINE
  8
0
 10
34.948
 11
44.077
 20
-223.639
 21
-223.639
  0
LINE
  8
0
 10
44.077
 11
44.077
 20
-223.639
 21
-232.767
  0
LINE
  8
0
 10
44.077
 11
34.948
 20
-232.767
 21
-232.767
  0
LINE
  8
0
 10
34.948
 11
34.948
 20
-222.639
 21
-213.511
  0
LINE
  8
0
 10
34.948
 11
44.077
 20
-213.511
 21
-213.511
  0
LINE
  8
0
 10
44.077
 11
44.077
 20
-213.511
 21
-222.639
  0
LINE
  8
0
 10
44.077
 11
34.948
 20
-222.639
 21
-222.639
  0
LINE
  8
0
 10
34.948
 11
34.948
 20
-212.511
 21
-203.383
  0
LINE
  8
0
 10
34.948
 11
44.077
 20
-203.383
 21
-203.383
  0
LINE
  8
0
 10
44.077
 11
44.077
 20
-203.383
 21
-212.511
  0
LINE
  8
0
 10
44.077
 11
34.948
 20
-212.511
 21
-212.511
  0
LINE
  8
0
 10
34.948
 11
34.948
 20
-202.383
 21
-193.255
  0
LINE
  8
0
 10
34.948
 11
44.077
 20
-193.255
 21
-193.255
  0
LINE
  8
0
 10
44.077
 11
44.077
 20
-193.255
 21
-202.383
  0
LINE
  8
0
 10
44.077
 11
34.948
 20
-202.383
 21
-202.383
  0
LINE
  8
0
 10
34.948
 11
34.948
 20
-192.255
 21
-183.127
  0
LINE
  8
0
 10
34.948
 11
44.077
 20
-183.127
 21
-183.127
  0
LINE
  8
0
 10
44.077
 11
44.077
 20
-183.127
 21
-192.255
  0
LINE
  8
0
 10
44.077
 11
34.948
 20
-192.255
 21
-192.255
  0
LINE
  8
0
 10
34.948
 11
34.948
 20
-182.127
 21
-172.998
  0
LINE
  8
0
 10
34.948
 11
44.077
 20
-172.998
 21
-172.998
  0
LINE
  8
0
 10
44.077
 11
44.077
 20
-172.998
 21
-182.127
  0
LINE
  8
0
 10
44.077
 11
34.948
 20
-182.127
 21
-182.127
  0
LINE
  8
0
 10
34.948
 11
34.948
 20
-171.998
 21
-162.87
  0
LINE
  8
0
 10
34.948
 11
44.077
 20
-162.87
 21
-162.87
  0
LINE
  8
0
 10
44.077
 11
44.077
 20
-162.87
 21
-171.998
  0
LINE
  8
0
 10
44.077
 11
34.948
 20
-171.998
 21
-171.998
  0
LINE
  8
0
 10
34.948
 11
34.948
 20
-161.87
 21
-152.742
  0
LINE
  8
0
 10
34.948
 11
44.077
 20
-152.742
 21
-152.742
  0
LINE
  8
0
 10
44.077
 11
44.077
 20
-152.742
 21
-161.87
  0
LINE
  8
0
 10
44.077
 11
34.948
 20
-161.87
 21
-161.87
  0
LINE
  8
0
 10
40.512
 11
40.512
 20
-40.512
 21
-22.256
  0
LINE
  8
0
 10
40.512
 11
58.769
 20
-22.256
 21
-22.256
  0
LINE
  8
0
 10
58.769
 11
58.769
 20
-22.256
 21
-4
  0
LINE
  8
0
 10
58.769
 11
95.281
 20
-4
 21
-4
  0
LINE
  8
0
 10
95.281
 11
95.281
 20
-4
 21
-13.128
  0
LINE
  8
0
 10
95.281
 11
67.897
 20
-13.128
 21
-13.128
  0
LINE
  8
0
 10
67.897
 11
67.897
 20
-13.128
 21
-31.384
  0
LINE
  8
0
 10
67.897
 11
49.641
 20
-31.384
 21
-31.384
  0
LINE
  8
0
 10
49.641
 11
49.641
 20
-31.384
 21
-40.512
  0
LINE
  8
0
 10
49.641
 11
40.512
 20
-40.512
 21
-40.512
  0
LINE
  8
0
 10
41.594
 11
41.594
 20
-71.617
 21
-53.361
  0
LINE
  8
0
 10
41.594
 11
59.851
 20
-53.361
 21
-53.361
  0
LINE
  8
0
 10
59.851
 11
59.851
 20
-53.361
 21
-62.489
  0
LINE
  8
0
 10
59.851
 11
50.722
 20
-62.489
 21
-62.489
  0
LINE
  8
0
 10
50.722
 11
50.722
 20
-62.489
 21
-71.617
  0
LINE
  8
0
 10
50.722
 11
41.594
 20
-71.617
 21
-71.617
  0
LINE
  8
0
 10
45.077
 11
45.077
 20
-232.767
 21
-223.639
  0
LINE
  8
0
 10
45.077
 11
54.205
 20
-223.639
 21
-223.639
  0
LINE
  8
0
 10
54.205
 11
54.205
 20
-223.639
 21
-232.767
  0
LINE
  8
0
 10
54.205
 11
45.077
 20
-232.767
 21
-232.767
  0
LINE
  8
0
 10
45.077
 11
45.077
 20
-222.639
 21
-213.511
  0
LINE
  8
0
 10
45.077
 11
54.205
 20
-213.511
 21
-213.511
  0
LINE
  8
0
 10
54.205
 11
54.205
 20
-213.511
 21
-222.639
  0
LINE
  8
0
 10
54.205
 11
45.077
 20
-222.639
 21
-222.639
  0
LINE
  8
0
 10
45.077
 11
45.077
 20
-212.511
 21
-203.383
  0
LINE
  8
0
 10
45.077
 11
54.205
 20
-203.383
 21
-203.383
  0
LINE
  8
0
 10
54.205
 11
54.205
 20
-203.383
 21
-212.511
  0
LINE
  8
0
 10
54.205
 11
45.077
 20
-212.511
 21
-212.511
  0
LINE
  8
0
 10
45.077
 11
45.077
 20
-202.383
 21
-193.255
  0
LINE
  8
0
 10
45.077
 11
54.205
 20
-193.255
 21
-193.255
  0
LINE
  8
0
 10
54.205
 11
54.205
 20
-193.255
 21
-202.383
  0
LINE
  8
0
 10
54.205
 11
45.077
 20
-202.383
 21
-202.383
  0
LINE
  8
0
 10
45.077
 11
45.077
 20
-192.255
 21
-183.127
  0
LINE
  8
0
 10
45.077
 11
54.205
 20
-183.127
 21
-183.127
  0
LINE
  8
0
 10
54.205
 11
54.205
 20
-183.127
 21
-192.255
  0
LINE
  8
0
 10
54.205
 11
45.077
 20
-192.255
 21
-192.255
  0
LINE
  8
0
 10
45.077
 11
45.077
 20
-182.127
 21
-172.998
  0
LINE
  8
0
 10
45.077
 11
54.205
 20
-172.998
 21
-172.998
  0
LINE
  8
0
 10
54.205
 11
54.205
 20
-172.998
 21
-182.127
  0
LINE
  8
0
 10
54.205
 11
45.077
 20
-182.127
 21
-182.127
  0
LINE
  8
0
 10
45.077
 11
45.077
 20
-171.998
 21
-162.87
  0
LINE
  8
0
 10
45.077
 11
54.205
 20
-162.87
 21
-162.87
  0
LINE
  8
0
 10
54.205
 11
54.205
 20
-162.87
 21
-171.998
  0
LINE
  8
0
 10
54.205
 11
45.077
 20
-171.998
 21
-171.998
  0
LINE
  8
0
 10
45.077
 11
45.077
 20
-161.87
 21
-152.742
  0
LINE
  8
0
 10
45.077
 11
54.205
 20
-152.742
 21
-152.742
  0
LINE
  8
0
 10
54.205
 11
54.205
 20
-152.742
 21
-161.87
  0
LINE
  8
0
 10
54.205
 11
45.077
 20
-161.87
 21
-161.87
  0
LINE
  8
0
 10
50.641
 11
50.641
 20
-50.641
 21
-32.384
  0
LINE
  8
0
 10
50.641
 11
68.897
 20
-32.384
 21
-32.384
  0
LINE
  8
0
 10
68.897
 11
68.897
 20
-32.384
 21
-14.128
  0
LINE
  8
0
 10
68.897
 11
105.409
 20
-14.128
 21
-14.128
  0
LINE
  8
0
 10
105.409
 11
105.409
 20
-14.128
 21
-23.256
  0
LINE
  8
0
 10
105.409
 11
78.025
 20
-23.256
 21
-23.256
  0
LINE
  8
0
 10
78.025
 11
78.025
 20
-23.256
 21
-41.512
  0
LINE
  8
0
 10
78.025
 11
59.769
 20
-41.512
 21
-41.512
  0
LINE
  8
0
 10
59.769
 11
59.769
 20
-41.512
 21
-50.641
  0
LINE
  8
0
 10
59.769
 11
50.641
 20
-50.641
 21
-50.641
  0
LINE
  8
0
 10
51.722
 11
51.722
 20
-81.745
 21
-63.489
  0
LINE
  8
0
 10
51.722
 11
69.979
 20
-63.489
 21
-63.489
  0
LINE
  8
0
 10
69.979
 11
69.979
 20
-63.489
 21
-72.617
  0
LINE
  8
0
 10
69.979
 11
60.851
 20
-72.617
 21
-72.617
  0
LINE
  8
0
 10
60.851
 11
60.851
 20
-72.617
 21
-81.745
  0
LINE
  8
0
 10
60.851
 11
51.722
 20
-81.745
 21
-81.745
  0
LINE
  8
0
 10
55.205
 11
55.205
 20
-232.767
 21
-223.639
  0
LINE
  8
0
 10
55.205
 11
64.333
 20
-223.639
 21
-223.639
  0
LINE
  8
0
 10
64.333
 11
64.333
 20
-223.639
 21
-232.767
  0
LINE
  8
0
 10
64.333
 11
55.205
 20
-232.767
 21
-232.767
  0
LINE
  8
0
 10
55.205
 11
55.205
 20
-222.639
 21
-213.511
  0
LINE
  8
0
 10
55.205
 11
64.333
 20
-213.511
 21
-213.511
  0
LINE
  8
0
 10
64.333
 11
64.333
 20
-213.511
 21
-222.639
  0
LINE
  8
0
 10
64.333
 11
55.205
 20
-222.639
 21
-222.639
  0
LINE
  8
0
 10
55.205
 11
55.205
 20
-212.511
 21
-203.383
  0
LINE
  8
0
 10
55.205
 11
64.333
 20
-203.383
 21
-203.383
  0
LINE
  8
0
 10
64.333
 11
64.333
 20
-203.383
 21
-212.511
  0
LINE
  8
0
 10
64.333
 11
55.205
 20
-212.511
 21
-212.511
  0
LINE
  8
0
 10
55.205
 11
55.205
 20
-202.383
 21
-193.255
  0
LINE
  8
0
 10
55.205
 11
64.333
 20
-193.255
 21
-193.255
  0
LINE
  8
0
 10
64.333
 11
64.333
 20
-193.255
 21
-202.383
  0
LINE
  8
0
 10
64.333
 11
55.205
 20
-202.383
 21
-202.383
  0
LINE
  8
0
 10
55.205
 11
55.205
 20
-192.255
 21
-183.127
  0
LINE
  8
0
 10
55.205
 11
64.333
 20
-183.127
 21
-183.127
  0
LINE
  8
0
 10
64.333
 11
64.333
 20
-183.127
 21
-192.255
  0
LINE
  8
0
 10
64.333
 11
55.205
 20
-192.255
 21
-192.255
  0
LINE
  8
0
 10
55.205
 11
55.205
 20
-182.127
 21
-172.998
  0
LINE
  8
0
 10
55.205
 11
64.333
 20
-172.998
 21
-172.998
  0
LINE
  8
0
 10
64.333
 11
64.333
 20
-172.998
 21
-182.127
  0
LINE
  8
0
 10
64.333
 11
55.205
 20
-182.127
 21
-182.127
  0
LINE
  8
0
 10
55.205
 11
55.205
 20
-171.998
 21
-162.87
  0
LINE
  8
0
 10
55.205
 11
64.333
 20
-162.87
 21
-162.87
  0
LINE
  8
0
 10
64.333
 11
64.333
 20
-162.87
 21
-171.998
  0
LINE
  8
0
 10
64.333
 11
55.205
 20
-171.998
 21
-171.998
  0
LINE
  8
0
 10
55.205
 11
55.205
 20
-161.87
 21
-152.742
  0
LINE
  8
0
 10
55.205
 11
64.333
 20
-152.742
 21
-152.742
  0
LINE
  8
0
 10
64.333
 11
64.333
 20
-152.742
 21
-161.87
  0
LINE
  8
0
 10
64.333
 11
55.205
 20
-161.87
 21
-161.87
  0
LINE
  8
0
 10
55.682
 11
55.682
 20
27.384
 21
45.641
  0
LINE
  8
0
 10
55.682
 11
83.066
 20
45.641
 21
45.641
  0
LINE
  8
0
 10
83.066
 11
83.066
 20
45.641
 21
63.897
  0
LINE
  8
0
 10
83.066
 11
92.194
 20
63.897
 21
63.897
  0
LINE
  8
0
 10
92.194
 11
92.194
 20
63.897
 21
36.512
  0
LINE
  8
0
 10
92.194
 11
64.81
 20
36.512
 21
36.512
  0
LINE
  8
0
 10
64.81
 11
64.81
 20
36.512
 21
27.384
  0
LINE
  8
0
 10
64.81
 11
55.682
 20
27.384
 21
27.384
  0
LINE
  8
0
 10
60.769
 11
60.769
 20
-60.769
 21
-42.512
  0
LINE
  8
0
 10
60.769
 11
79.025
 20
-42.512
 21
-42.512
  0
LINE
  8
0
 10
79.025
 11
79.025
 20
-42.512
 21
-24.256
  0
LINE
  8
0
 10
79.025
 11
115.537
 20
-24.256
 21
-24.256
  0
LINE
  8
0
 10
115.537
 11
115.537
 20
-24.256
 21
-33.384
  0
LINE
  8
0
 10
115.537
 11
88.153
 20
-33.384
 21
-33.384
  0
LINE
  8
0
 10
88.153
 11
88.153
 20
-33.384
 21
-51.641
  0
LINE
  8
0
 10
88.153
 11
69.897
 20
-51.641
 21
-51.641
  0
LINE
  8
0
 10
69.897
 11
69.897
 20
-51.641
 21
-60.769
  0
LINE
  8
0
 10
69.897
 11
60.769
 20
-60.769
 21
-60.769
  0
LINE
  8
0
 10
61.851
 11
61.851
 20
-91.873
 21
-73.617
  0
LINE
  8
0
 10
61.851
 11
80.107
 20
-73.617
 21
-73.617
  0
LINE
  8
0
 10
80.107
 11
80.107
 20
-73.617
 21
-82.745
  0
LINE
  8
0
 10
80.107
 11
70.979
 20
-82.745
 21
-82.745
  0
LINE
  8
0
 10
70.979
 11
70.979
 20
-82.745
 21
-91.873
  0
LINE
  8
0
 10
70.979
 11
61.851
 20
-91.873
 21
-91.873
  0
LINE
  8
0
 10
65.333
 11
65.333
 20
-232.767
 21
-223.639
  0
LINE
  8
0
 10
65.333
 11
74.461
 20
-223.639
 21
-223.639
  0
LINE
  8
0
 10
74.461
 11
74.461
 20
-223.639
 21
-232.767
  0
LINE
  8
0
 10
74.461
 11
65.333
 20
-232.767
 21
-232.767
  0
LINE
  8
0
 10
65.333
 11
65.333
 20
-222.639
 21
-213.511
  0
LINE
  8
0
 10
65.333
 11
74.461
 20
-213.511
 21
-213.511
  0
LINE
  8
0
 10
74.461
 11
74.461
 20
-213.511
 21
-222.639
  0
LINE
  8
0
 10
74.461
 11
65.333
 20
-222.639
 21
-222.639
  0
LINE
  8
0
 10
65.333
 11
65.333
 20
-212.511
 21
-203.383
  0
LINE
  8
0
 10
65.333
 11
74.461
 20
-203.383
 21
-203.383
  0
LINE
  8
0
 10
74.461
 11
74.461
 20
-203.383
 21
-212.511
  0
LINE
  8
0
 10
74.461
 11
65.333
 20
-212.511
 21
-212.511
  0
LINE
  8
0
 10
65.333
 11
65.333
 20
-202.383
 21
-193.255
  0
LINE
  8
0
 10
65.333
 11
74.461
 20
-193.255
 21
-193.255
  0
LINE
  8
0
 10
74.461
 11
74.461
 20
-193.255
 21
-202.383
  0
LINE
  8
0
 10
74.461
 11
65.333
 20
-202.383
 21
-202.383
  0
LINE
  8
0
 10
65.333
 11
65.333
 20
-192.255
 21
-183.127
  0
LINE
  8
0
 10
65.333
 11
74.461
 20
-183.127
 21
-183.127
  0
LINE
  8
0
 10
74.461
 11
74.461
 20
-183.127
 21
-192.255
  0
LINE
  8
0
 10
74.461
 11
65.333
 20
-192.255
 21
-192.255
  0
LINE
  8
0
 10
65.333
 11
65.333
 20
-182.127
 21
-172.998
  0
LINE
  8
0
 10
65.333
 11
74.461
 20
-172.998
 21
-172.998
  0
LINE
  8
0
 10
74.461
 11
74.461
 20
-172.998
 21
-182.127
  0
LINE
  8
0
 10
74.461
 11
65.333
 20
-182.127
 21
-182.127
  0
LINE
  8
0
 10
65.333
 11
65.333
 20
-171.998
 21
-162.87
  0
LINE
  8
0
 10
65.333
 11
74.461
 20
-162.87
 21
-162.87
  0
LINE
  8
0
 10
74.461
 11
74.461
 20
-162.87
 21
-171.998
  0
LINE
  8
0
 10
74.461
 11
65.333
 20
-171.998
 21
-171.998
  0
LINE
  8
0
 10
65.333
 11
65.333
 20
-161.87
 21
-152.742
  0
LINE
  8
0
 10
65.333
 11
74.461
 20
-152.742
 21
-152.742
  0
LINE
  8
0
 10
74.461
 11
74.461
 20
-152.742
 21
-161.87
  0
LINE
  8
0
 10
74.461
 11
65.333
 20
-161.87
 21
-161.87
  0
LINE
  8
0
 10
65.81
 11
65.81
 20
17.256
 21
35.512
  0
LINE
  8
0
 10
65.81
 11
93.194
 20
35.512
 21
35.512
  0
LINE
  8
0
 10
93.194
 11
93.194
 20
35.512
 21
53.769
  0
LINE
  8
0
 10
93.194
 11
102.322
 20
53.769
 21
53.769
  0
LINE
  8
0
 10
102.322
 11
102.322
 20
53.769
 21
26.384
  0
LINE
  8
0
 10
102.322
 11
74.938
 20
26.384
 21
26.384
  0
LINE
  8
0
 10
74.938
 11
74.938
 20
26.384
 21
17.256
  0
LINE
  8
0
 10
74.938
 11
65.81
 20
17.256
 21
17.256
  0
LINE
  8
0
 10
70.897
 11
70.897
 20
-70.897
 21
-52.641
  0
LINE
  8
0
 10
70.897
 11
89.153
 20
-52.641
 21
-52.641
  0
LINE
  8
0
 10
89.153
 11
89.153
 20
-52.641
 21
-34.384
  0
LINE
  8
0
 10
89.153
 11
125.666
 20
-34.384
 21
-34.384
  0
LINE
  8
0
 10
125.666
 11
125.666
 20
-34.384
 21
-43.512
  0
LINE
  8
0
 10
125.666
 11
98.281
 20
-43.512
 21
-43.512
  0
LINE
  8
0
 10
98.281
 11
98.281
 20
-43.512
 21
-61.769
  0
LINE
  8
0
 10
98.281
 11
80.025
 20
-61.769
 21
-61.769
  0
LINE
  8
0
 10
80.025
 11
80.025
 20
-61.769
 21
-70.897
  0
LINE
  8
0
 10
80.025
 11
70.897
 20
-70.897
 21
-70.897
  0
LINE
  8
0
 10
71.979
 11
71.979
 20
-102.002
 21
-83.745
  0
LINE
  8
0
 10
71.979
 11
90.235
 20
-83.745
 21
-83.745
  0
LINE
  8
0
 10
90.235
 11
90.235
 20
-83.745
 21
-92.873
  0
LINE
  8
0
 10
90.235
 11
81.107
 20
-92.873
 21
-92.873
  0
LINE
  8
0
 10
81.107
 11
81.107
 20
-92.873
 21
-102.002
  0
LINE
  8
0
 10
81.107
 11
71.979
 20
-102.002
 21
-102.002
  0
LINE
  8
0
 10
75.461
 11
75.461
 20
-232.767
 21
-223.639
  0
LINE
  8
0
 10
75.461
 11
84.589
 20
-223.639
 21
-223.639
  0
LINE
  8
0
 10
84.589
 11
84.589
 20
-223.639
 21
-232.767
  0
LINE
  8
0
 10
84.589
 11
75.461
 20
-232.767
 21
-232.767
  0
LINE
  8
0
 10
75.461
 11
75.461
 20
-222.639
 21
-213.511
  0
LINE
  8
0
 10
75.461
 11
84.589
 20
-213.511
 21
-213.511
  0
LINE
  8
0
 10
84.589
 11
84.589
 20
-213.511
 21
-222.639
  0
LINE
  8
0
 10
84.589
 11
75.461
 20
-222.639
 21
-222.639
  0
LINE
  8
0
 10
75.461
 11
75.461
 20
-212.511
 21
-203.383
  0
LINE
  8
0
 10
75.461
 11
84.589
 20
-203.383
 21
-203.383
  0
LINE
  8
0
 10
84.589
 11
84.589
 20
-203.383
 21
-212.511
  0
LINE
  8
0
 10
84.589
 11
75.461
 20
-212.511
 21
-212.511
  0
LINE
  8
0
 10
75.461
 11
75.461
 20
-202.383
 21
-193.255
  0
LINE
  8
0
 10
75.461
 11
84.589
 20
-193.255
 21
-193.255
  0
LINE
  8
0
 10
84.589
 11
84.589
 20
-193.255
 21
-202.383
  0
LINE
  8
0
 10
84.589
 11
75.461
 20
-202.383
 21
-202.383
  0
LINE
  8
0
 10
75.461
 11
75.461
 20
-192.255
 21
-183.127
  0
LINE
  8
0
 10
75.461
 11
84.589
 20
-183.127
 21
-183.127
  0
LINE
  8
0
 10
84.589
 11
84.589
 20
-183.127
 21
-192.255
  0
LINE
  8
0
 10
84.589
 11
75.461
 20
-192.255
 21
-192.255
  0
LINE
  8
0
 10
75.461
 11
75.461
 20
-182.127
 21
-172.998
  0
LINE
  8
0
 10
75.461
 11
84.589
 20
-172.998
 21
-172.998
  0
LINE
  8
0
 10
84.589
 11
84.589
 20
-172.998
 21
-182.127
  0
LINE
  8
0
 10
84.589
 11
75.461
 20
-182.127
 21
-182.127
  0
LINE
  8
0
 10
75.461
 11
75.461
 20
-171.998
 21
-162.87
  0
LINE
  8
0
 10
75.461
 11
84.589
 20
-162.87
 21
-162.87
  0
LINE
  8
0
 10
84.589
 11
84.589
 20
-162.87
 21
-171.998
  0
LINE
  8
0
 10
84.589
 11
75.461
 20
-171.998
 21
-171.998
  0
LINE
  8
0
 10
75.461
 11
75.461
 20
-161.87
 21
-152.742
  0
LINE
  8
0
 10
75.461
 11
84.589
 20
-152.742
 21
-152.742
  0
LINE
  8
0
 10
84.589
 11
84.589
 20
-152.742
 21
-161.87
  0
LINE
  8
0
 10
84.589
 11
75.461
 20
-161.87
 21
-161.87
  0
LINE
  8
0
 10
75.938
 11
75.938
 20
7.128
 21
25.384
  0
LINE
  8
0
 10
75.938
 11
103.322
 20
25.384
 21
25.384
  0
LINE
  8
0
 10
103.322
 11
103.322
 20
25.384
 21
43.641
  0
LINE
  8
0
 10
103.322
 11
112.45
 20
43.641
 21
43.641
  0
LINE
  8
0
 10
112.45
 11
112.45
 20
43.641
 21
16.256
  0
LINE
  8
0
 10
112.45
 11
85.066
 20
16.256
 21
16.256
  0
LINE
  8
0
 10
85.066
 11
85.066
 20
16.256
 21
7.128
  0
LINE
  8
0
 10
85.066
 11
75.938
 20
7.128
 21
7.128
  0
LINE
  8
0
 10
81.025
 11
81.025
 20
-81.025
 21
-62.769
  0
LINE
  8
0
 10
81.025
 11
99.281
 20
-62.769
 21
-62.769
  0
LINE
  8
0
 10
99.281
 11
99.281
 20
-62.769
 21
-44.512
  0
LINE
  8
0
 10
99.281
 11
135.794
 20
-44.512
 21
-44.512
  0
LINE
  8
0
 10
135.794
 11
135.794
 20
-44.512
 21
-53.641
  0
LINE
  8
0
 10
135.794
 11
108.409
 20
-53.641
 21
-53.641
  0
LINE
  8
0
 10
108.409
 11
108.409
 20
-53.641
 21
-71.897
  0
LINE
  8
0
 10
108.409
 11
90.153
 20
-71.897
 21
-71.897
  0
LINE
  8
0
 10
90.153
 11
90.153
 20
-71.897
 21
-81.025
  0
LINE
  8
0
 10
90.153
 11
81.025
 20
-81.025
 21
-81.025
  0
LINE
  8
0
 10
82.107
 11
82.107
 20
-112.13
 21
-93.873
  0
LINE
  8
0
 10
82.107
 11
100.363
 20
-93.873
 21
-93.873
  0
LINE
  8
0
 10
100.363
 11
100.363
 20
-93.873
 21
-103.002
  0
LINE
  8
0
 10
100.363
 11
91.235
 20
-103.002
 21
-103.002
  0
LINE
  8
0
 10
91.235
 11
91.235
 20
-103.002
 21
-112.13
  0
LINE
  8
0
 10
91.235
 11
82.107
 20
-112.13
 21
-112.13
  0
LINE
  8
0
 10
85.589
 11
85.589
 20
-232.767
 21
-223.639
  0
LINE
  8
0
 10
85.589
 11
94.717
 20
-223.639
 21
-223.639
  0
LINE
  8
0
 10
94.717
 11
94.717
 20
-223.639
 21
-232.767
  0
LINE
  8
0
 10
94.717
 11
85.589
 20
-232.767
 21
-232.767
  0
LINE
  8
0
 10
85.589
 11
85.589
 20
-222.639
 21
-213.511
  0
LINE
  8
0
 10
85.589
 11
94.717
 20
-213.511
 21
-213.511
  0
LINE
  8
0
 10
94.717
 11
94.717
 20
-213.511
 21
-222.639
  0
LINE
  8
0
 10
94.717
 11
85.589
 20
-222.639
 21
-222.639
  0
LINE
  8
0
 10
85.589
 11
85.589
 20
-212.511
 21
-203.383
  0
LINE
  8
0
 10
85.589
 11
94.717
 20
-203.383
 21
-203.383
  0
LINE
  8
0
 10
94.717
 11
94.717
 20
-203.383
 21
-212.511
  0
LINE
  8
0
 10
94.717
 11
85.589
 20
-212.511
 21
-212.511
  0
LINE
  8
0
 10
85.589
 11
85.589
 20
-202.383
 21
-193.255
  0
LINE
  8
0
 10
85.589
 11
94.717
 20
-193.255
 21
-193.255
  0
LINE
  8
0
 10
94.717
 11
94.717
 20
-193.255
 21
-202.383
  0
LINE
  8
0
 10
94.717
 11
85.589
 20
-202.383
 21
-202.383
  0
LINE
  8
0
 10
85.589
 11
85.589
 20
-192.255
 21
-183.127
  0
LINE
  8
0
 10
85.589
 11
94.717
 20
-183.127
 21
-183.127
  0
LINE
  8
0
 10
94.717
 11
94.717
 20
-183.127
 21
-192.255
  0
LINE
  8
0
 10
94.717
 11
85.589
 20
-192.255
 21
-192.255
  0
LINE
  8
0
 10
85.589
 11
85.589
 20
-182.127
 21
-172.998
  0
LINE
  8
0
 10
85.589
 11
94.717
 20
-172.998
 21
-172.998
  0
LINE
  8
0
 10
94.717
 11
94.717
 20
-172.998
 21
-182.127
  0
LINE
  8
0
 10
94.717
 11
85.589
 20
-182.127
 21
-182.127
  0
LINE
  8
0
 10
85.589
 11
85.589
 20
-171.998
 21
-162.87
  0
LINE
  8
0
 10
85.589
 11
94.717
 20
-162.87
 21
-162.87
  0
LINE
  8
0
 10
94.717
 11
94.717
 20
-162.87
 21
-171.998
  0
LINE
  8
0
 10
94.717
 11
85.589
 20
-171.998
 21
-171.998
  0
LINE
  8
0
 10
85.589
 11
85.589
 20
-161.87
 21
-152.742
  0
LINE
  8
0
 10
85.589
 11
94.717
 20
-152.742
 21
-152.742
  0
LINE
  8
0
 10
94.717
 11
94.717
 20
-152.742
 21
-161.87
  0
LINE
  8
0
 10
94.717
 11
85.589
 20
-161.87
 21
-161.87
  0
LINE
  8
0
 10
86.066
 11
86.066
 20
-3
 21
15.256
  0
LINE
  8
0
 10
86.066
 11
113.45
 20
15.256
 21
15.256
  0
LINE
  8
0
 10
113.45
 11
113.45
 20
15.256
 21
33.512
  0
LINE
  8
0
 10
113.45
 11
122.578
 20
33.512
 21
33.512
  0
LINE
  8
0
 10
122.578
 11
122.578
 20
33.512
 21
6.128
  0
LINE
  8
0
 10
122.578
 11
95.194
 20
6.128
 21
6.128
  0
LINE
  8
0
 10
95.194
 11
95.194
 20
6.128
 21
-3
  0
LINE
  8
0
 10
95.194
 11
86.066
 20
-3
 21
-3
  0
LINE
  8
0
 10
91.153
 11
91.153
 20
-91.153
 21
-72.897
  0
LINE
  8
0
 10
91.153
 11
109.409
 20
-72.897
 21
-72.897
  0
LINE
  8
0
 10
109.409
 11
109.409
 20
-72.897
 21
-54.641
  0
LINE
  8
0
 10
109.409
 11
145.922
 20
-54.641
 21
-54.641
  0
LINE
  8
0
 10
145.922
 11
145.922
 20
-54.641
 21
-63.769
  0
LINE
  8
0
 10
145.922
 11
118.537
 20
-63.769
 21
-63.769
  0
LINE
  8
0
 10
118.537
 11
118.537
 20
-63.769
 21
-82.025
  0
LINE
  8
0
 10
118.537
 11
100.281
 20
-82.025
 21
-82.025
  0
LINE
  8
0
 10
100.281
 11
100.281
 20
-82.025
 21
-91.153
  0
LINE
  8
0
 10
100.281
 11
91.153
 20
-91.153
 21
-91.153
  0
LINE
  8
0
 10
92.235
 11
92.235
 20
-122.258
 21
-104.002
  0
LINE
  8
0
 10
92.235
 11
110.491
 20
-104.002
 21
-104.002
  0
LINE
  8
0
 10
110.491
 11
110.491
 20
-104.002
 21
-113.13
  0
LINE
  8
0
 10
110.491
 11
101.363
 20
-113.13
 21
-113.13
  0
LINE
  8
0
 10
101.363
 11
101.363
 20
-113.13
 21
-122.258
  0
LINE
  8
0
 10
101.363
 11
92.235
 20
-122.258
 21
-122.258
  0
LINE
  8
0
 10
95.717
 11
95.717
 20
-232.767
 21
-223.639
  0
LINE
  8
0
 10
95.717
 11
104.845
 20
-223.639
 21
-223.639
  0
LINE
  8
0
 10
104.845
 11
104.845
 20
-223.639
 21
-232.767
  0
LINE
  8
0
 10
104.845
 11
95.717
 20
-232.767
 21
-232.767
  0
LINE
  8
0
 10
95.717
 11
95.717
 20
-222.639
 21
-213.511
  0
LINE
  8
0
 10
95.717
 11
104.845
 20
-213.511
 21
-213.511
  0
LINE
  8
0
 10
104.845
 11
104.845
 20
-213.511
 21
-222.639
  0
LINE
  8
0
 10
104.845
 11
95.717
 20
-222.639
 21
-222.639
  0
LINE
  8
0
 10
95.717
 11
95.717
 20
-212.511
 21
-203.383
  0
LINE
  8
0
 10
95.717
 11
104.845
 20
-203.383
 21
-203.383
  0
LINE
  8
0
 10
104.845
 11
104.845
 20
-203.383
 21
-212.511
  0
LINE
  8
0
 10
104.845
 11
95.717
 20
-212.511
 21
-212.511
  0
LINE
  8
0
 10
95.717
 11
95.717
 20
-202.383
 21
-193.255
  0
LINE
  8
0
 10
95.717
 11
104.845
 20
-193.255
 21
-193.255
  0
LINE
  8
0
 10
104.845
 11
104.845
 20
-193.255
 21
-202.383
  0
LINE
  8
0
 10
104.845
 11
95.717
 20
-202.383
 21
-202.383
  0
LINE
  8
0
 10
95.717
 11
95.717
 20
-192.255
 21
-183.127
  0
LINE
  8
0
 10
95.717
 11
104.845
 20
-183.127
 21
-183.127
  0
LINE
  8
0
 10
104.845
 11
104.845
 20
-183.127
 21
-192.255
  0
LINE
  8
0
 10
104.845
 11
95.717
 20
-192.255
 21
-192.255
  0
LINE
  8
0
 10
95.717
 11
95.717
 20
-182.127
 21
-172.998
  0
LINE
  8
0
 10
95.717
 11
104.845
 20
-172.998
 21
-172.998
  0
LINE
  8
0
 10
104.845
 11
104.845
 20
-172.998
 21
-182.127
  0
LINE
  8
0
 10
104.845
 11
95.717
 20
-182.127
 21
-182.127
  0
LINE
  8
0
 10
95.717
 11
95.717
 20
-171.998
 21
-162.87
  0
LINE
  8
0
 10
95.717
 11
104.845
 20
-162.87
 21
-162.87
  0
LINE
  8
0
 10
104.845
 11
104.845
 20
-162.87
 21
-171.998
  0
LINE
  8
0
 10
104.845
 11
95.717
 20
-171.998
 21
-171.998
  0
LINE
  8
0
 10
95.717
 11
95.717
 20
-161.87
 21
-152.742
  0
LINE
  8
0
 10
95.717
 11
104.845
 20
-152.742
 21
-152.742
  0
LINE
  8
0
 10
104.845
 11
104.845
 20
-152.742
 21
-161.87
  0
LINE
  8
0
 10
104.845
 11
95.717
 20
-161.87
 21
-161.87
  0
LINE
  8
0
 10
96.194
 11
96.194
 20
-13.128
 21
5.128
  0
LINE
  8
0
 10
96.194
 11
123.578
 20
5.128
 21
5.128
  0
LINE
  8
0
 10
123.578
 11
123.578
 20
5.128
 21
23.384
  0
LINE
  8
0
 10
123.578
 11
132.707
 20
23.384
 21
23.384
  0
LINE
  8
0
 10
132.707
 11
132.707
 20
23.384
 21
-4
  0
LINE
  8
0
 10
132.707
 11
105.322
 20
-4
 21
-4
  0
LINE
  8
0
 10
105.322
 11
105.322
 20
-4
 21
-13.128
  0
LINE
  8
0
 10
105.322
 11
96.194
 20
-13.128
 21
-13.128
  0
LINE
  8
0
 10
101.281
 11
101.281
 20
-101.281
 21
-83.025
  0
LINE
  8
0
 10
101.281
 11
119.537
 20
-83.025
 21
-83.025
  0
LINE
  8
0
 10
119.537
 11
119.537
 20
-83.025
 21
-64.769
  0
LINE
  8
0
 10
119.537
 11
156.05
 20
-64.769
 21
-64.769
  0
LINE
  8
0
 10
156.05
 11
156.05
 20
-64.769
 21
-73.897
  0
LINE
  8
0
 10
156.05
 11
128.666
 20
-73.897
 21
-73.897
  0
LINE
  8
0
 10
128.666
 11
128.666
 20
-73.897
 21
-92.153
  0
LINE
  8
0
 10
128.666
 11
110.409
 20
-92.153
 21
-92.153
  0
LINE
  8
0
 10
110.409
 11
110.409
 20
-92.153
 21
-101.281
  0
LINE
  8
0
 10
110.409
 11
101.281
 20
-101.281
 21
-101.281
  0
LINE
  8
0
 10
102.363
 11
102.363
 20
-132.386
 21
-114.13
  0
LINE
  8
0
 10
102.363
 11
120.619
 20
-114.13
 21
-114.13
  0
LINE
  8
0
 10
120.619
 11
120.619
 20
-114.13
 21
-123.258
  0
LINE
  8
0
 10
120.619
 11
111.491
 20
-123.258
 21
-123.258
  0
LINE
  8
0
 10
111.491
 11
111.491
 20
-123.258
 21
-132.386
  0
LINE
  8
0
 10
111.491
 11
102.363
 20
-132.386
 21
-132.386
  0
LINE
  8
0
 10
106.322
 11
106.322
 20
-23.256
 21
-5
  0
LINE
  8
0
 10
106.322
 11
133.707
 20
-5
 21
-5
  0
LINE
  8
0
 10
133.707
 11
133.707
 20
-5
 21
13.256
  0
LINE
  8
0
 10
133.707
 11
142.835
 20
13.256
 21
13.256
  0
LINE
  8
0
 10
142.835
 11
142.835
 20
13.256
 21
-14.128
  0
LINE
  8
0
 10
142.835
 11
115.45
 20
-14.128
 21
-14.128
  0
LINE
  8
0
 10
115.45
 11
115.45
 20
-14.128
 21
-23.256
  0
LINE
  8
0
 10
115.45
 11
106.322
 20
-23.256
 21
-23.256
  0
LINE
  8
0
 10
111.409
 11
111.409
 20
-111.409
 21
-93.153
  0
LINE
  8
0
 10
111.409
 11
129.666
 20
-93.153
 21
-93.153
  0
LINE
  8
0
 10
129.666
 11
129.666
 20
-93.153
 21
-74.897
  0
LINE
  8
0
 10
129.666
 11
166.178
 20
-74.897
 21
-74.897
  0
LINE
  8
0
 10
166.178
 11
166.178
 20
-74.897
 21
-84.025
  0
LINE
  8
0
 10
166.178
 11
138.794
 20
-84.025
 21
-84.025
  0
LINE
  8
0
 10
138.794
 11
138.794
 20
-84.025
 21
-102.281
  0
LINE
  8
0
 10
138.794
 11
120.537
 20
-102.281
 21
-102.281
  0
LINE
  8
0
 10
120.537
 11
120.537
 20
-102.281
 21
-111.409
  0
LINE
  8
0
 10
120.537
 11
111.409
 20
-111.409
 21
-111.409
  0
LINE
  8
0
 10
112.491
 11
112.491
 20
-142.514
 21
-124.258
  0
LINE
  8
0
 10
112.491
 11
130.748
 20
-124.258
 21
-124.258
  0
LINE
  8
0
 10
130.748
 11
130.748
 20
-124.258
 21
-133.386
  0
LINE
  8
0
 10
130.748
 11
121.619
 20
-133.386
 21
-133.386
  0
LINE
  8
0
 10
121.619
 11
121.619
 20
-133.386
 21
-142.514
  0
LINE
  8
0
 10
121.619
 11
112.491
 20
-142.514
 21
-142.514
  0
LINE
  8
0
 10
116.45
 11
116.45
 20
-33.384
 21
-15.128
  0
LINE
  8
0
 10
116.45
 11
143.835
 20
-15.128
 21
-15.128
  0
LINE
  8
0
 10
143.835
 11
143.835
 20
-15.128
 21
3.128
  0
LINE
  8
0
 10
143.835
 11
152.963
 20
3.128
 21
3.128
  0
LINE
  8
0
 10
152.963
 11
152.963
 20
3.128
 21
-24.256
  0
LINE
  8
0
 10
152.963
 11
125.578
 20
-24.256
 21
-24.256
  0
LINE
  8
0
 10
125.578
 11
125.578
 20
-24.256
 21
-33.384
  0
LINE
  8
0
 10
125.578
 11
116.45
 20
-33.384
 21
-33.384
  0
LINE
  8
0
 10
121.537
 11
121.537
 20
-121.537
 21
-103.281
  0
LINE
  8
0
 10
121.537
 11
139.794
 20
-103.281
 21
-103.281
  0
LINE
  8
0
 10
139.794
 11
139.794
 20
-103.281
 21
-85.025
  0
LINE
  8
0
 10
139.794
 11
176.306
 20
-85.025
 21
-85.025
  0
LINE
  8
0
 10
176.306
 11
176.306
 20
-85.025
 21
-94.153
  0
LINE
  8
0
 10
176.306
 11
148.922
 20
-94.153
 21
-94.153
  0
LINE
  8
0
 10
148.922
 11
148.922
 20
-94.153
 21
-112.409
  0
LINE
  8
0
 10
148.922
 11
130.666
 20
-112.409
 21
-112.409
  0
LINE
  8
0
 10
130.666
 11
130.666
 20
-112.409
 21
-121.537
  0
LINE
  8
0
 10
130.666
 11
121.537
 20
-121.537
 21
-121.537
  0
LINE
  8
0
 10
122.619
 11
122.619
 20
-152.642
 21
-134.386
  0
LINE
  8
0
 10
122.619
 11
140.876
 20
-134.386
 21
-134.386
  0
LINE
  8
0
 10
140.876
 11
140.876
 20
-134.386
 21
-143.514
  0
LINE
  8
0
 10
140.876
 11
131.748
 20
-143.514
 21
-143.514
  0
LINE
  8
0
 10
131.748
 11
131.748
 20
-143.514
 21
-152.642
  0
LINE
  8
0
 10
131.748
 11
122.619
 20
-152.642
 21
-152.642
  0
LINE
  8
0
 10
126.578
 11
126.578
 20
-43.512
 21
-25.256
  0
LINE
  8
0
 10
126.578
 11
153.963
 20
-25.256
 21
-25.256
  0
LINE
  8
0
 10
153.963
 11
153.963
 20
-25.256
 21
-7
  0
LINE
  8
0
 10
153.963
 11
163.091
 20
-7
 21
-7
  0
LINE
  8
0
 10
163.091
 11
163.091
 20
-7
 21
-34.384
  0
LINE
  8
0
 10
163.091
 11
135.707
 20
-34.384
 21
-34.384
  0
LINE
  8
0
 10
135.707
 11
135.707
 20
-34.384
 21
-43.512
  0
LINE
  8
0
 10
135.707
 11
126.578
 20
-43.512
 21
-43.512
  0
LINE
  8
0
 10
131.666
 11
131.666
 20
-131.666
 21
-113.409
  0
LINE
  8
0
 10
131.666
 11
149.922
 20
-113.409
 21
-113.409
  0
LINE
  8
0
 10
149.922
 11
149.922
 20
-113.409
 21
-95.153
  0
LINE
  8
0
 10
149.922
 11
186.434
 20
-95.153
 21
-95.153
  0
LINE
  8
0
 10
186.434
 11
186.434
 20
-95.153
 21
-104.281
  0
LINE
  8
0
 10
186.434
 11
159.05
 20
-104.281
 21
-104.281
  0
LINE
  8
0
 10
159.05
 11
159.05
 20
-104.281
 21
-122.537
  0
LINE
  8
0
 10
159.05
 11
140.794
 20
-122.537
 21
-122.537
  0
LINE
  8
0
 10
140.794
 11
140.794
 20
-122.537
 21
-131.666
  0
LINE
  8
0
 10
140.794
 11
131.666
 20
-131.666
 21
-131.666
  0
LINE
  8
0
 10
132.747
 11
132.747
 20
-162.77
 21
-144.514
  0
LINE
  8
0
 10
132.747
 11
151.004
 20
-144.514
 21
-144.514
  0
LINE
  8
0
 10
151.004
 11
151.004
 20
-144.514
 21
-153.642
  0
LINE
  8
0
 10
151.004
 11
141.876
 20
-153.642
 21
-153.642
  0
LINE
  8
0
 10
141.876
 11
141.876
 20
-153.642
 21
-162.77
  0
LINE
  8
0
 10
141.876
 11
132.747
 20
-162.77
 21
-162.77
  0
LINE
  8
0
 10
136.707
 11
136.707
 20
-53.641
 21
-35.384
  0
LINE
  8
0
 10
136.707
 11
164.091
 20
-35.384
 21
-35.384
  0
LINE
  8
0
 10
164.091
 11
164.091
 20
-35.384
 21
-17.128
  0
LINE
  8
0
 10
164.091
 11
173.219
 20
-17.128
 21
-17.128
  0
LINE
  8
0
 10
173.219
 11
173.219
 20
-17.128
 21
-44.512
  0
LINE
  8
0
 10
173.219
 11
145.835
 20
-44.512
 21
-44.512
  0
LINE
  8
0
 10
145.835
 11
145.835
 20
-44.512
 21
-53.641
  0
LINE
  8
0
 10
145.835
 11
136.707
 20
-53.641
 21
-53.641
  0
LINE
  8
0
 10
141.794
 11
141.794
 20
-141.794
 21
-123.537
  0
LINE
  8
0
 10
141.794
 11
160.05
 20
-123.537
 21
-123.537
  0
LINE
  8
0
 10
160.05
 11
160.05
 20
-123.537
 21
-105.281
  0
LINE
  8
0
 10
160.05
 11
196.563
 20
-105.281
 21
-105.281
  0
LINE
  8
0
 10
196.563
 11
196.563
 20
-105.281
 21
-114.409
  0
LINE
  8
0
 10
196.563
 11
169.178
 20
-114.409
 21
-114.409
  0
LINE
  8
0
 10
169.178
 11
169.178
 20
-114.409
 21
-132.666
  0
LINE
  8
0
 10
169.178
 11
150.922
 20
-132.666
 21
-132.666
  0
LINE
  8
0
 10
150.922
 11
150.922
 20
-132.666
 21
-141.794
  0
LINE
  8
0
 10
150.922
 11
141.794
 20
-141.794
 21
-141.794
  0
LINE
  8
0
 10
142.876
 11
142.876
 20
-172.898
 21
-154.642
  0
LINE
  8
0
 10
142.876
 11
161.132
 20
-154.642
 21
-154.642
  0
LINE
  8
0
 10
161.132
 11
161.132
 20
-154.642
 21
-163.77
  0
LINE
  8
0
 10
161.132
 11
152.004
 20
-163.77
 21
-163.77
  0
LINE
  8
0
 10
152.004
 11
152.004
 20
-163.77
 21
-172.898
  0
LINE
  8
0
 10
152.004
 11
142.876
 20
-172.898
 21
-172.898
  0
LINE
  8
0
 10
146.835
 11
146.835
 20
-63.769
 21
-45.512
  0
LINE
  8
0
 10
146.835
 11
174.219
 20
-45.512
 21
-45.512
  0
LINE
  8
0
 10
174.219
 11
174.219
 20
-45.512
 21
-27.256
  0
LINE
  8
0
 10
174.219
 11
183.347
 20
-27.256
 21
-27.256
  0
LINE
  8
0
 10
183.347
 11
183.347
 20
-27.256
 21
-54.641
  0
LINE
  8
0
 10
183.347
 11
155.963
 20
-54.641
 21
-54.641
  0
LINE
  8
0
 10
155.963
 11
155.963
 20
-54.641
 21
-63.769
  0
LINE
  8
0
 10
155.963
 11
146.835
 20
-63.769
 21
-63.769
  0
LINE
  8
0
 10
151.922
 11
151.922
 20
-151.922
 21
-133.666
  0
LINE
  8
0
 10
151.922
 11
170.178
 20
-133.666
 21
-133.666
  0
LINE
  8
0
 10
170.178
 11
170.178
 20
-133.666
 21
-115.409
  0
LINE
  8
0
 10
170.178
 11
206.691
 20
-115.409
 21
-115.409
  0
LINE
  8
0
 10
206.691
 11
206.691
 20
-115.409
 21
-124.537
  0
LINE
  8
0
 10
206.691
 11
179.306
 20
-124.537
 21
-124.537
  0
LINE
  8
0
 10
179.306
 11
179.306
 20
-124.537
 21
-142.794
  0
LINE
  8
0
 10
179.306
 11
161.05
 20
-142.794
 21
-142.794
  0
LINE
  8
0
 10
161.05
 11
161.05
 20
-142.794
 21
-151.922
  0
LINE
  8
0
 10
161.05
 11
151.922
 20
-151.922
 21
-151.922
  0
LINE
  8
0
 10
153.004
 11
153.004
 20
-183.027
 21
-164.77
  0
LINE
  8
0
 10
153.004
 11
171.26
 20
-164.77
 21
-164.77
  0
LINE
  8
0
 10
171.26
 11
171.26
 20
-164.77
 21
-173.898
  0
LINE
  8
0
 10
171.26
 11
162.132
 20
-173.898
 21
-173.898
  0
LINE
  8
0
 10
162.132
 11
162.132
 20
-173.898
 21
-183.027
  0
LINE
  8
0
 10
162.132
 11
153.004
 20
-183.027
 21
-183.027
  0
LINE
  8
0
 10
156.963
 11
156.963
 20
-73.897
 21
-55.641
  0
LINE
  8
0
 10
156.963
 11
184.347
 20
-55.641
 21
-55.641
  0
LINE
  8
0
 10
184.347
 11
184.347
 20
-55.641
 21
-37.384
  0
LINE
  8
0
 10
184.347
 11
193.475
 20
-37.384
 21
-37.384
  0
LINE
  8
0
 10
193.475
 11
193.475
 20
-37.384
 21
-64.769
  0
LINE
  8
0
 10
193.475
 11
166.091
 20
-64.769
 21
-64.769
  0
LINE
  8
0
 10
166.091
 11
166.091
 20
-64.769
 21
-73.897
  0
LINE
  8
0
 10
166.091
 11
156.963
 20
-73.897
 21
-73.897
  0
LINE
  8
0
 10
162.05
 11
162.05
 20
-162.05
 21
-143.794
  0
LINE
  8
0
 10
162.05
 11
180.306
 20
-143.794
 21
-143.794
  0
LINE
  8
0
 10
180.306
 11
180.306
 20
-143.794
 21
-125.537
  0
LINE
  8
0
 10
180.306
 11
216.819
 20
-125.537
 21
-125.537
  0
LINE
  8
0
 10
216.819
 11
216.819
 20
-125.537
 21
-134.666
  0
LINE
  8
0
 10
216.819
 11
189.434
 20
-134.666
 21
-134.666
  0
LINE
  8
0
 10
189.434
 11
189.434
 20
-134.666
 21
-152.922
  0
LINE
  8
0
 10
189.434
 11
171.178
 20
-152.922
 21
-152.922
  0
LINE
  8
0
 10
171.178
 11
171.178
 20
-152.922
 21
-162.05
  0
LINE
  8
0
 10
171.178
 11
162.05
 20
-162.05
 21
-162.05
  0
LINE
  8
0
 10
163.132
 11
163.132
 20
-193.155
 21
-174.898
  0
LINE
  8
0
 10
163.132
 11
181.388
 20
-174.898
 21
-174.898
  0
LINE
  8
0
 10
181.388
 11
181.388
 20
-174.898
 21
-184.027
  0
LINE
  8
0
 10
181.388
 11
172.26
 20
-184.027
 21
-184.027
  0
LINE
  8
0
 10
172.26
 11
172.26
 20
-184.027
 21
-193.155
  0
LINE
  8
0
 10
172.26
 11
163.132
 20
-193.155
 21
-193.155
  0
LINE
  8
0
 10
167.091
 11
167.091
 20
-84.025
 21
-65.769
  0
LINE
  8
0
 10
167.091
 11
194.475
 20
-65.769
 21
-65.769
  0
LINE
  8
0
 10
194.475
 11
194.475
 20
-65.769
 21
-47.512
  0
LINE
  8
0
 10
194.475
 11
203.603
 20
-47.512
 21
-47.512
  0
LINE
  8
0
 10
203.603
 11
203.603
 20
-47.512
 21
-74.897
  0
LINE
  8
0
 10
203.603
 11
176.219
 20
-74.897
 21
-74.897
  0
LINE
  8
0
 10
176.219
 11
176.219
 20
-74.897
 21
-84.025
  0
LINE
  8
0
 10
176.219
 11
167.091
 20
-84.025
 21
-84.025
  0
LINE
  8
0
 10
172.178
 11
172.178
 20
-172.178
 21
-153.922
  0
LINE
  8
0
 10
172.178
 11
190.434
 20
-153.922
 21
-153.922
  0
LINE
  8
0
 10
190.434
 11
190.434
 20
-153.922
 21
-135.666
  0
LINE
  8
0
 10
190.434
 11
226.947
 20
-135.666
 21
-135.666
  0
LINE
  8
0
 10
226.947
 11
226.947
 20
-135.666
 21
-144.794
  0
LINE
  8
0
 10
226.947
 11
199.563
 20
-144.794
 21
-144.794
  0
LINE
  8
0
 10
199.563
 11
199.563
 20
-144.794
 21
-163.05
  0
LINE
  8
0
 10
199.563
 11
181.306
 20
-163.05
 21
-163.05
  0
LINE
  8
0
 10
181.306
 11
181.306
 20
-163.05
 21
-172.178
  0
LINE
  8
0
 10
181.306
 11
172.178
 20
-172.178
 21
-172.178
  0
LINE
  8
0
 10
173.26
 11
173.26
 20
-203.283
 21
-185.027
  0
LINE
  8
0
 10
173.26
 11
191.516
 20
-185.027
 21
-185.027
  0
LINE
  8
0
 10
191.516
 11
191.516
 20
-185.027
 21
-194.155
  0
LINE
  8
0
 10
191.516
 11
182.388
 20
-194.155
 21
-194.155
  0
LINE
  8
0
 10
182.388
 11
182.388
 20
-194.155
 21
-203.283
  0
LINE
  8
0
 10
182.388
 11
173.26
 20
-203.283
 21
-203.283
  0
LINE
  8
0
 10
177.219
 11
177.219
 20
-94.153
 21
-75.897
  0
LINE
  8
0
 10
177.219
 11
204.603
 20
-75.897
 21
-75.897
  0
LINE
  8
0
 10
204.603
 11
204.603
 20
-75.897
 21
-57.641
  0
LINE
  8
0
 10
204.603
 11
213.732
 20
-57.641
 21
-57.641
  0
LINE
  8
0
 10
213.732
 11
213.732
 20
-57.641
 21
-85.025
  0
LINE
  8
0
 10
213.732
 11
186.347
 20
-85.025
 21
-85.025
  0
LINE
  8
0
 10
186.347
 11
186.347
 20
-85.025
 21
-94.153
  0
LINE
  8
0
 10
186.347
 11
177.219
 20
-94.153
 21
-94.153
  0
LINE
  8
0
 10
182.306
 11
182.306
 20
-182.306
 21
-164.05
  0
LINE
  8
0
 10
182.306
 11
200.563
 20
-164.05
 21
-164.05
  0
LINE
  8
0
 10
200.563
 11
200.563
 20
-164.05
 21
-145.794
  0
LINE
  8
0
 10
200.563
 11
237.075
 20
-145.794
 21
-145.794
  0
LINE
  8
0
 10
237.075
 11
237.075
 20
-145.794
 21
-154.922
  0
LINE
  8
0
 10
237.075
 11
209.691
 20
-154.922
 21
-154.922
  0
LINE
  8
0
 10
209.691
 11
209.691
 20
-154.922
 21
-173.178
  0
LINE
  8
0
 10
209.691
 11
191.434
 20
-173.178
 21
-173.178
  0
LINE
  8
0
 10
191.434
 11
191.434
 20
-173.178
 21
-182.306
  0
LINE
  8
0
 10
191.434
 11
182.306
 20
-182.306
 21
-182.306
  0
LINE
  8
0
 10
183.388
 11
183.388
 20
-213.411
 21
-195.155
  0
LINE
  8
0
 10
183.388
 11
201.644
 20
-195.155
 21
-195.155
  0
LINE
  8
0
 10
201.644
 11
201.644
 20
-195.155
 21
-204.283
  0
LINE
  8
0
 10
201.644
 11
192.516
 20
-204.283
 21
-204.283
  0
LINE
  8
0
 10
192.516
 11
192.516
 20
-204.283
 21
-213.411
  0
LINE
  8
0
 10
192.516
 11
183.388
 20
-213.411
 21
-213.411
  0
LINE
  8
0
 10
187.347
 11
187.347
 20
-104.281
 21
-86.025
  0
LINE
  8
0
 10
187.347
 11
214.732
 20
-86.025
 21
-86.025
  0
LINE
  8
0
 10
214.732
 11
214.732
 20
-86.025
 21
-67.769
  0
LINE
  8
0
 10
214.732
 11
223.86
 20
-67.769
 21
-67.769
  0
LINE
  8
0
 10
223.86
 11
223.86
 20
-67.769
 21
-95.153
  0
LINE
  8
0
 10
223.86
 11
196.475
 20
-95.153
 21
-95.153
  0
LINE
  8
0
 10
196.475
 11
196.475
 20
-95.153
 21
-104.281
  0
LINE
  8
0
 10
196.475
 11
187.347
 20
-104.281
 21
-104.281
  0
LINE
  8
0
 10
192.434
 11
192.434
 20
-192.434
 21
-174.178
  0
LINE
  8
0
 10
192.434
 11
210.691
 20
-174.178
 21
-174.178
  0
LINE
  8
0
 10
210.691
 11
210.691
 20
-174.178
 21
-155.922
  0
LINE
  8
0
 10
210.691
 11
247.203
 20
-155.922
 21
-155.922
  0
LINE
  8
0
 10
247.203
 11
247.203
 20
-155.922
 21
-165.05
  0
LINE
  8
0
 10
247.203
 11
219.819
 20
-165.05
 21
-165.05
  0
LINE
  8
0
 10
219.819
 11
219.819
 20
-165.05
 21
-183.306
  0
LINE
  8
0
 10
219.819
 11
201.563
 20
-183.306
 21
-183.306
  0
LINE
  8
0
 10
201.563
 11
201.563
 20
-183.306
 21
-192.434
  0
LINE
  8
0
 10
201.563
 11
192.434
 20
-192.434
 21
-192.434
  0
LINE
  8
0
 10
193.516
 11
193.516
 20
-223.539
 21
-205.283
  0
LINE
  8
0
 10
193.516
 11
211.772
 20
-205.283
 21
-205.283
  0
LINE
  8
0
 10
211.772
 11
211.772
 20
-205.283
 21
-214.411
  0
LINE
  8
0
 10
211.772
 11
202.644
 20
-214.411
 21
-214.411
  0
LINE
  8
0
 10
202.644
 11
202.644
 20
-214.411
 21
-223.539
  0
LINE
  8
0
 10
202.644
 11
193.516
 20
-223.539
 21
-223.539
  0
LINE
  8
0
 10
196.255
 11
196.255
 20
-31.948
 21
-22.82
  0
LINE
  8
0
 10
196.255
 11
205.383
 20
-22.82
 21
-22.82
  0
LINE
  8
0
 10
205.383
 11
205.383
 20
-22.82
 21
-31.948
  0
LINE
  8
0
 10
205.383
 11
196.255
 20
-31.948
 21
-31.948
  0
LINE
  8
0
 10
196.255
 11
196.255
 20
-21.82
 21
-12.692
  0
LINE
  8
0
 10
196.255
 11
205.383
 20
-12.692
 21
-12.692
  0
LINE
  8
0
 10
205.383
 11
205.383
 20
-12.692
 21
-21.82
  0
LINE
  8
0
 10
205.383
 11
196.255
 20
-21.82
 21
-21.82
  0
LINE
  8
0
 10
196.255
 11
196.255
 20
-11.692
 21
-2.564
  0
LINE
  8
0
 10
196.255
 11
205.383
 20
-2.564
 21
-2.564
  0
LINE
  8
0
 10
205.383
 11
205.383
 20
-2.564
 21
-11.692
  0
LINE
  8
0
 10
205.383
 11
196.255
 20
-11.692
 21
-11.692
  0
LINE
  8
0
 10
196.255
 11
196.255
 20
-1.564
 21
7.564
  0
LINE
  8
0
 10
196.255
 11
205.383
 20
7.564
 21
7.564
  0
LINE
  8
0
 10
205.383
 11
205.383
 20
7.564
 21
-1.564
  0
LINE
  8
0
 10
205.383
 11
196.255
 20
-1.564
 21
-1.564
  0
LINE
  8
0
 10
196.255
 11
196.255
 20
8.564
 21
17.692
  0
LINE
  8
0
 10
196.255
 11
205.383
 20
17.692
 21
17.692
  0
LINE
  8
0
 10
205.383
 11
205.383
 20
17.692
 21
8.564
  0
LINE
  8
0
 10
205.383
 11
196.255
 20
8.564
 21
8.564
  0
LINE
  8
0
 10
196.255
 11
196.255
 20
18.692
 21
27.82
  0
LINE
  8
0
 10
196.255
 11
205.383
 20
27.82
 21
27.82
  0
LINE
  8
0
 10
205.383
 11
205.383
 20
27.82
 21
18.692
  0
LINE
  8
0
 10
205.383
 11
196.255
 20
18.692
 21
18.692
  0
LINE
  8
0
 10
196.255
 11
196.255
 20
28.82
 21
37.948
  0
LINE
  8
0
 10
196.255
 11
205.383
 20
37.948
 21
37.948
  0
LINE
  8
0
 10
205.383
 11
205.383
 20
37.948
 21
28.82
  0
LINE
  8
0
 10
205.383
 11
196.255
 20
28.82
 21
28.82
  0
LINE
  8
0
 10
196.255
 11
196.255
 20
38.948
 21
48.077
  0
LINE
  8
0
 10
196.255
 11
205.383
 20
48.077
 21
48.077
  0
LINE
  8
0
 10
205.383
 11
205.383
 20
48.077
 21
38.948
  0
LINE
  8
0
 10
205.383
 11
196.255
 20
38.948
 21
38.948
  0
LINE
  8
0
 10
197.475
 11
197.475
 20
-114.409
 21
-96.153
  0
LINE
  8
0
 10
197.475
 11
224.86
 20
-96.153
 21
-96.153
  0
LINE
  8
0
 10
224.86
 11
224.86
 20
-96.153
 21
-77.897
  0
LINE
  8
0
 10
224.86
 11
233.988
 20
-77.897
 21
-77.897
  0
LINE
  8
0
 10
233.988
 11
233.988
 20
-77.897
 21
-105.281
  0
LINE
  8
0
 10
233.988
 11
206.603
 20
-105.281
 21
-105.281
  0
LINE
  8
0
 10
206.603
 11
206.603
 20
-105.281
 21
-114.409
  0
LINE
  8
0
 10
206.603
 11
197.475
 20
-114.409
 21
-114.409
  0
LINE
  8
0
 10
206.383
 11
206.383
 20
-31.948
 21
-22.82
  0
LINE
  8
0
 10
206.383
 11
215.511
 20
-22.82
 21
-22.82
  0
LINE
  8
0
 10
215.511
 11
215.511
 20
-22.82
 21
-31.948
  0
LINE
  8
0
 10
215.511
 11
206.383
 20
-31.948
 21
-31.948
  0
LINE
  8
0
 10
206.383
 11
206.383
 20
-21.82
 21
-12.692
  0
LINE
  8
0
 10
206.383
 11
215.511
 20
-12.692
 21
-12.692
  0
LINE
  8
0
 10
215.511
 11
215.511
 20
-12.692
 21
-21.82
  0
LINE
  8
0
 10
215.511
 11
206.383
 20
-21.82
 21
-21.82
  0
LINE
  8
0
 10
206.383
 11
206.383
 20
-11.692
 21
-2.564
  0
LINE
  8
0
 10
206.383
 11
215.511
 20
-2.564
 21
-2.564
  0
LINE
  8
0
 10
215.511
 11
215.511
 20
-2.564
 21
-11.692
  0
LINE
  8
0
 10
215.511
 11
206.383
 20
-11.692
 21
-11.692
  0
LINE
  8
0
 10
206.383
 11
206.383
 20
-1.564
 21
7.564
  0
LINE
  8
0
 10
206.383
 11
215.511
 20
7.564
 21
7.564
  0
LINE
  8
0
 10
215.511
 11
215.511
 20
7.564
 21
-1.564
  0
LINE
  8
0
 10
215.511
 11
206.383
 20
-1.564
 21
-1.564
  0
LINE
  8
0
 10
206.383
 11
206.383
 20
8.564
 21
17.692
  0
LINE
  8
0
 10
206.383
 11
215.511
 20
17.692
 21
17.692
  0
LINE
  8
0
 10
215.511
 11
215.511
 20
17.692
 21
8.564
  0
LINE
  8
0
 10
215.511
 11
206.383
 20
8.564
 21
8.564
  0
LINE
  8
0
 10
206.383
 11
206.383
 20
18.692
 21
27.82
  0
LINE
  8
0
 10
206.383
 11
215.511
 20
27.82
 21
27.82
  0
LINE
  8
0
 10
215.511
 11
215.511
 20
27.82
 21
18.692
  0
LINE
  8
0
 10
215.511
 11
206.383
 20
18.692
 21
18.692
  0
LINE
  8
0
 10
206.383
 11
206.383
 20
28.82
 21
37.948
  0
LINE
  8
0
 10
206.383
 11
215.511
 20
37.948
 21
37.948
  0
LINE
  8
0
 10
215.511
 11
215.511
 20
37.948
 21
28.82
  0
LINE
  8
0
 10
215.511
 11
206.383
 20
28.82
 21
28.82
  0
LINE
  8
0
 10
206.383
 11
206.383
 20
38.948
 21
48.077
  0
LINE
  8
0
 10
206.383
 11
215.511
 20
48.077
 21
48.077
  0
LINE
  8
0
 10
215.511
 11
215.511
 20
48.077
 21
38.948
  0
LINE
  8
0
 10
215.511
 11
206.383
 20
38.948
 21
38.948
  0
LINE
  8
0
 10
207.603
 11
207.603
 20
-124.537
 21
-106.281
  0
LINE
  8
0
 10
207.603
 11
234.988
 20
-106.281
 21
-106.281
  0
LINE
  8
0
 10
234.988
 11
234.988
 20
-106.281
 21
-88.025
  0
LINE
  8
0
 10
234.988
 11
244.116
 20
-88.025
 21
-88.025
  0
LINE
  8
0
 10
244.116
 11
244.116
 20
-88.025
 21
-115.409
  0
LINE
  8
0
 10
244.116
 11
216.732
 20
-115.409
 21
-115.409
  0
LINE
  8
0
 10
216.732
 11
216.732
 20
-115.409
 21
-124.537
  0
LINE
  8
0
 10
216.732
 11
207.603
 20
-124.537
 21
-124.537
  0
LINE
  8
0
 10
216.511
 11
216.511
 20
-31.948
 21
-22.82
  0
LINE
  8
0
 10
216.511
 11
225.639
 20
-22.82
 21
-22.82
  0
LINE
  8
0
 10
225.639
 11
225.639
 20
-22.82
 21
-31.948
  0
LINE
  8
0
 10
225.639
 11
216.511
 20
-31.948
 21
-31.948
  0
LINE
  8
0
 10
216.511
 11
216.511
 20
-21.82
 21
-12.692
  0
LINE
  8
0
 10
216.511
 11
225.639
 20
-12.692
 21
-12.692
  0
LINE
  8
0
 10
225.639
 11
225.639
 20
-12.692
 21
-21.82
  0
LINE
  8
0
 10
225.639
 11
216.511
 20
-21.82
 21
-21.82
  0
LINE
  8
0
 10
216.511
 11
216.511
 20
-11.692
 21
-2.564
  0
LINE
  8
0
 10
216.511
 11
225.639
 20
-2.564
 21
-2.564
  0
LINE
  8
0
 10
225.639
 11
225.639
 20
-2.564
 21
-11.692
  0
LINE
  8
0
 10
225.639
 11
216.511
 20
-11.692
 21
-11.692
  0
LINE
  8
0
 10
216.511
 11
216.511
 20
-1.564
 21
7.564
  0
LINE
  8
0
 10
216.511
 11
225.639
 20
7.564
 21
7.564
  0
LINE
  8
0
 10
225.639
 11
225.639
 20
7.564
 21
-1.564
  0
LINE
  8
0
 10
225.639
 11
216.511
 20
-1.564
 21
-1.564
  0
LINE
  8
0
 10
216.511
 11
216.511
 20
8.564
 21
17.692
  0
LINE
  8
0
 10
216.511
 11
225.639
 20
17.692
 21
17.692
  0
LINE
  8
0
 10
225.639
 11
225.639
 20
17.692
 21
8.564
  0
LINE
  8
0
 10
225.639
 11
216.511
 20
8.564
 21
8.564
  0
LINE
  8
0
 10
216.511
 11
216.511
 20
18.692
 21
27.82
  0
LINE
  8
0
 10
216.511
 11
225.639
 20
27.82
 21
27.82
  0
LINE
  8
0
 10
225.639
 11
225.639
 20
27.82
 21
18.692
  0
LINE
  8
0
 10
225.639
 11
216.511
 20
18.692
 21
18.692
  0
LINE
  8
0
 10
216.511
 11
216.511
 20
28.82
 21
37.948
  0
LINE
  8
0
 10
216.511
 11
225.639
 20
37.948
 21
37.948
  0
LINE
  8
0
 10
225.639
 11
225.639
 20
37.948
 21
28.82
  0
LINE
  8
0
 10
225.639
 11
216.511
 20
28.82
 21
28.82
  0
LINE
  8
0
 10
216.511
 11
216.511
 20
38.948
 21
48.077
  0
LINE
  8
0
 10
216.511
 11
225.639
 20
48.077
 21
48.077
  0
LINE
  8
0
 10
225.639
 11
225.639
 20
48.077
 21
38.948
  0
LINE
  8
0
 10
225.639
 11
216.511
 20
38.948
 21
38.948
  0
LINE
  8
0
 10
217.732
 11
217.732
 20
-134.666
 21
-116.409
  0
LINE
  8
0
 10
217.732
 11
245.116
 20
-116.409
 21
-116.409
  0
LINE
  8
0
 10
245.116
 11
245.116
 20
-116.409
 21
-98.153
  0
LINE
  8
0
 10
245.116
 11
254.244
 20
-98.153
 21
-98.153
  0
LINE
  8
0
 10
254.244
 11
254.244
 20
-98.153
 21
-125.537
  0
LINE
  8
0
 10
254.244
 11
226.86
 20
-125.537
 21
-125.537
  0
LINE
  8
0
 10
226.86
 11
226.86
 20
-125.537
 21
-134.666
  0
LINE
  8
0
 10
226.86
 11
217.732
 20
-134.666
 21
-134.666
  0
LINE
  8
0
 10
226.639
 11
226.639
 20
-31.948
 21
-22.82
  0
LINE
  8
0
 10
226.639
 11
235.767
 20
-22.82
 21
-22.82
  0
LINE
  8
0
 10
235.767
 11
235.767
 20
-22.82
 21
-31.948
  0
LINE
  8
0
 10
235.767
 11
226.639
 20
-31.948
 21
-31.948
  0
LINE
  8
0
 10
226.639
 11
226.639
 20
-21.82
 21
-12.692
  0
LINE
  8
0
 10
226.639
 11
235.767
 20
-12.692
 21
-12.692
  0
LINE
  8
0
 10
235.767
 11
235.767
 20
-12.692
 21
-21.82
  0
LINE
  8
0
 10
235.767
 11
226.639
 20
-21.82
 21
-21.82
  0
LINE
  8
0
 10
226.639
 11
226.639
 20
-11.692
 21
-2.564
  0
LINE
  8
0
 10
226.639
 11
235.767
 20
-2.564
 21
-2.564
  0
LINE
  8
0
 10
235.767
 11
235.767
 20
-2.564
 21
-11.692
  0
LINE
  8
0
 10
235.767
 11
226.639
 20
-11.692
 21
-11.692
  0
LINE
  8
0
 10
226.639
 11
226.639
 20
-1.564
 21
7.564
  0
LINE
  8
0
 10
226.639
 11
235.767
 20
7.564
 21
7.564
  0
LINE
  8
0
 10
235.767
 11
235.767
 20
7.564
 21
-1.564
  0
LINE
  8
0
 10
235.767
 11
226.639
 20
-1.564
 21
-1.564
  0
LINE
  8
0
 10
226.639
 11
226.639
 20
8.564
 21
17.692
  0
LINE
  8
0
 10
226.639
 11
235.767
 20
17.692
 21
17.692
  0
LINE
  8
0
 10
235.767
 11
235.767
 20
17.692
 21
8.564
  0
LINE
  8
0
 10
235.767
 11
226.639
 20
8.564
 21
8.564
  0
LINE
  8
0
 10
226.639
 11
226.639
 20
18.692
 21
27.82
  0
LINE
  8
0
 10
226.639
 11
235.767
 20
27.82
 21
27.82
  0
LINE
  8
0
 10
235.767
 11
235.767
 20
27.82
 21
18.692
  0
LINE
  8
0
 10
235.767
 11
226.639
 20
18.692
 21
18.692
  0
LINE
  8
0
 10
226.639
 11
226.639
 20
28.82
 21
37.948
  0
LINE
  8
0
 10
226.639
 11
235.767
 20
37.948
 21
37.948
  0
LINE
  8
0
 10
235.767
 11
235.767
 20
37.948
 21
28.82
  0
LINE
  8
0
 10
235.767
 11
226.639
 20
28.82
 21
28.82
  0
LINE
  8
0
 10
226.639
 11
226.639
 20
38.948
 21
48.077
  0
LINE
  8
0
 10
226.639
 11
235.767
 20
48.077
 21
48.077
  0
LINE
  8
0
 10
235.767
 11
235.767
 20
48.077
 21
38.948
  0
LINE
  8
0
 10
235.767
 11
226.639
 20
38.948
 21
38.948
  0
LINE
  8
0
 10
227.86
 11
227.86
 20
-144.794
 21
-126.537
  0
LINE
  8
0
 10
227.86
 11
255.244
 20
-126.537
 21
-126.537
  0
LINE
  8
0
 10
255.244
 11
255.244
 20
-126.537
 21
-108.281
  0
LINE
  8
0
 10
255.244
 11
264.372
 20
-108.281
 21
-108.281
  0
LINE
  8
0
 10
264.372
 11
264.372
 20
-108.281
 21
-135.666
  0
LINE
  8
0
 10
264.372
 11
236.988
 20
-135.666
 21
-135.666
  0
LINE
  8
0
 10
236.988
 11
236.988
 20
-135.666
 21
-144.794
  0
LINE
  8
0
 10
236.988
 11
227.86
 20
-144.794
 21
-144.794
  0
LINE
  8
0
 10
236.767
 11
236.767
 20
-31.948
 21
-22.82
  0
LINE
  8
0
 10
236.767
 11
245.895
 20
-22.82
 21
-22.82
  0
LINE
  8
0
 10
245.895
 11
245.895
 20
-22.82
 21
-31.948
  0
LINE
  8
0
 10
245.895
 11
236.767
 20
-31.948
 21
-31.948
  0
LINE
  8
0
 10
236.767
 11
236.767
 20
-21.82
 21
-12.692
  0
LINE
  8
0
 10
236.767
 11
245.895
 20
-12.692
 21
-12.692
  0
LINE
  8
0
 10
245.895
 11
245.895
 20
-12.692
 21
-21.82
  0
LINE
  8
0
 10
245.895
 11
236.767
 20
-21.82
 21
-21.82
  0
LINE
  8
0
 10
236.767
 11
236.767
 20
-11.692
 21
-2.564
  0
LINE
  8
0
 10
236.767
 11
245.895
 20
-2.564
 21
-2.564
  0
LINE
  8
0
 10
245.895
 11
245.895
 20
-2.564
 21
-11.692
  0
LINE
  8
0
 10
245.895
 11
236.767
 20
-11.692
 21
-11.692
  0
LINE
  8
0
 10
236.767
 11
236.767
 20
-1.564
 21
7.564
  0
LINE
  8
0
 10
236.767
 11
245.895
 20
7.564
 21
7.564
  0
LINE
  8
0
 10
245.895
 11
245.895
 20
7.564
 21
-1.564
  0
LINE
  8
0
 10
245.895
 11
236.767
 20
-1.564
 21
-1.564
  0
LINE
  8
0
 10
236.767
 11
236.767
 20
8.564
 21
17.692
  0
LINE
  8
0
 10
236.767
 11
245.895
 20
17.692
 21
17.692
  0
LINE
  8
0
 10
245.895
 11
245.895
 20
17.692
 21
8.564
  0
LINE
  8
0
 10
245.895
 11
236.767
 20
8.564
 21
8.564
  0
LINE
  8
0
 10
236.767
 11
236.767
 20
18.692
 21
27.82
  0
LINE
  8
0
 10
236.767
 11
245.895
 20
27.82
 21
27.82
  0
LINE
  8
0
 10
245.895
 11
245.895
 20
27.82
 21
18.692
  0
LINE
  8
0
 10
245.895
 11
236.767
 20
18.692
 21
18.692
  0
LINE
  8
0
 10
236.767
 11
236.767
 20
28.82
 21
37.948
  0
LINE
  8
0
 10
236.767
 11
245.895
 20
37.948
 21
37.948
  0
LINE
  8
0
 10
245.895
 11
245.895
 20
37.948
 21
28.82
  0
LINE
  8
0
 10
245.895
 11
236.767
 20
28.82
 21
28.82
  0
LINE
  8
0
 10
236.767
 11
236.767
 20
38.948
 21
48.077
  0
LINE
  8
0
 10
236.767
 11
245.895
 20
48.077
 21
48.077
  0
LINE
  8
0
 10
245.895
 11
245.895
 20
48.077
 21
38.948
  0
LINE
  8
0
 10
245.895
 11
236.767
 20
38.948
 21
38.948
  0
LINE
  8
0
 10
237.988
 11
237.988
 20
-154.922
 21
-136.666
  0
LINE
  8
0
 10
237.988
 11
265.372
 20
-136.666
 21
-136.666
  0
LINE
  8
0
 10
265.372
 11
265.372
 20
-136.666
 21
-118.409
  0
LINE
  8
0
 10
265.372
 11
274.5
 20
-118.409
 21
-118.409
  0
LINE
  8
0
 10
274.5
 11
274.5
 20
-118.409
 21
-145.794
  0
LINE
  8
0
 10
274.5
 11
247.116
 20
-145.794
 21
-145.794
  0
LINE
  8
0
 10
247.116
 11
247.116
 20
-145.794
 21
-154.922
  0
LINE
  8
0
 10
247.116
 11
237.988
 20
-154.922
 21
-154.922
  0
LINE
  8
0
 10
246.895
 11
246.895
 20
-31.948
 21
-22.82
  0
LINE
  8
0
 10
246.895
 11
256.023
 20
-22.82
 21
-22.82
  0
LINE
  8
0
 10
256.023
 11
256.023
 20
-22.82
 21
-31.948
  0
LINE
  8
0
 10
256.023
 11
246.895
 20
-31.948
 21
-31.948
  0
LINE
  8
0
 10
246.895
 11
246.895
 20
-21.82
 21
-12.692
  0
LINE
  8
0
 10
246.895
 11
256.023
 20
-12.692
 21
-12.692
  0
LINE
  8
0
 10
256.023
 11
256.023
 20
-12.692
 21
-21.82
  0
LINE
  8
0
 10
256.023
 11
246.895
 20
-21.82
 21
-21.82
  0
LINE
  8
0
 10
246.895
 11
246.895
 20
-11.692
 21
-2.564
  0
LINE
  8
0
 10
246.895
 11
256.023
 20
-2.564
 21
-2.564
  0
LINE
  8
0
 10
256.023
 11
256.023
 20
-2.564
 21
-11.692
  0
LINE
  8
0
 10
256.023
 11
246.895
 20
-11.692
 21
-11.692
  0
LINE
  8
0
 10
246.895
 11
246.895
 20
-1.564
 21
7.564
  0
LINE
  8
0
 10
246.895
 11
256.023
 20
7.564
 21
7.564
  0
LINE
  8
0
 10
256.023
 11
256.023
 20
7.564
 21
-1.564
  0
LINE
  8
0
 10
256.023
 11
246.895
 20
-1.564
 21
-1.564
  0
LINE
  8
0
 10
246.895
 11
246.895
 20
8.564
 21
17.692
  0
LINE
  8
0
 10
246.895
 11
256.023
 20
17.692
 21
17.692
  0
LINE
  8
0
 10
256.023
 11
256.023
 20
17.692
 21
8.564
  0
LINE
  8
0
 10
256.023
 11
246.895
 20
8.564
 21
8.564
  0
LINE
  8
0
 10
246.895
 11
246.895
 20
18.692
 21
27.82
  0
LINE
  8
0
 10
246.895
 11
256.023
 20
27.82
 21
27.82
  0
LINE
  8
0
 10
256.023
 11
256.023
 20
27.82
 21
18.692
  0
LINE
  8
0
 10
256.023
 11
246.895
 20
18.692
 21
18.692
  0
LINE
  8
0
 10
246.895
 11
246.895
 20
28.82
 21
37.948
  0
LINE
  8
0
 10
246.895
 11
256.023
 20
37.948
 21
37.948
  0
LINE
  8
0
 10
256.023
 11
256.023
 20
37.948
 21
28.82
  0
LINE
  8
0
 10
256.023
 11
246.895
 20
28.82
 21
28.82
  0
LINE
  8
0
 10
246.895
 11
246.895
 20
38.948
 21
48.077
  0
LINE
  8
0
 10
246.895
 11
256.023
 20
48.077
 21
48.077
  0
LINE
  8
0
 10
256.023
 11
256.023
 20
48.077
 21
38.948
  0
LINE
  8
0
 10
256.023
 11
246.895
 20
38.948
 21
38.948
  0
LINE
  8
0
 10
248.116
 11
248.116
 20
-165.05
 21
-146.794
  0
LINE
  8
0
 10
248.116
 11
275.5
 20
-146.794
 21
-146.794
  0
LINE
  8
0
 10
275.5
 11
275.5
 20
-146.794
 21
-128.537
  0
LINE
  8
0
 10
275.5
 11
284.628
 20
-128.537
 21
-128.537
  0
LINE
  8
0
 10
284.628
 11
284.628
 20
-128.537
 21
-155.922
  0
LINE
  8
0
 10
284.628
 11
257.244
 20
-155.922
 21
-155.922
  0
LINE
  8
0
 10
257.244
 11
257.244
 20
-155.922
 21
-165.05
  0
LINE
  8
0
 10
257.244
 11
248.116
 20
-165.05
 21
-165.05
  0
LINE
  8
0
 10
257.023
 11
257.023
 20
-31.948
 21
-22.82
  0
LINE
  8
0
 10
257.023
 11
266.152
 20
-22.82
 21
-22.82
  0
LINE
  8
0
 10
266.152
 11
266.152
 20
-22.82
 21
-31.948
  0
LINE
  8
0
 10
266.152
 11
257.023
 20
-31.948
 21
-31.948
  0
LINE
  8
0
 10
257.023
 11
257.023
 20
-21.82
 21
-12.692
  0
LINE
  8
0
 10
257.023
 11
266.152
 20
-12.692
 21
-12.692
  0
LINE
  8
0
 10
266.152
 11
266.152
 20
-12.692
 21
-21.82
  0
LINE
  8
0
 10
266.152
 11
257.023
 20
-21.82
 21
-21.82
  0
LINE
  8
0
 10
257.023
 11
257.023
 20
-11.692
 21
-2.564
  0
LINE
  8
0
 10
257.023
 11
266.152
 20
-2.564
 21
-2.564
  0
LINE
  8
0
 10
266.152
 11
266.152
 20
-2.564
 21
-11.692
  0
LINE
  8
0
 10
266.152
 11
257.023
 20
-11.692
 21
-11.692
  0
LINE
  8
0
 10
257.023
 11
257.023
 20
-1.564
 21
7.564
  0
LINE
  8
0
 10
257.023
 11
266.152
 20
7.564
 21
7.564
  0
LINE
  8
0
 10
266.152
 11
266.152
 20
7.564
 21
-1.564
  0
LINE
  8
0
 10
266.152
 11
257.023
 20
-1.564
 21
-1.564
  0
LINE
  8
0
 10
257.023
 11
257.023
 20
8.564
 21
17.692
  0
LINE
  8
0
 10
257.023
 11
266.152
 20
17.692
 21
17.692
  0
LINE
  8
0
 10
266.152
 11
266.152
 20
17.692
 21
8.564
  0
LINE
  8
0
 10
266.152
 11
257.023
 20
8.564
 21
8.564
  0
LINE
  8
0
 10
257.023
 11
257.023
 20
18.692
 21
27.82
  0
LINE
  8
0
 10
257.023
 11
266.152
 20
27.82
 21
27.82
  0
LINE
  8
0
 10
266.152
 11
266.152
 20
27.82
 21
18.692
  0
LINE
  8
0
 10
266.152
 11
257.023
 20
18.692
 21
18.692
  0
LINE
  8
0
 10
257.023
 11
257.023
 20
28.82
 21
37.948
  0
LINE
  8
0
 10
257.023
 11
266.152
 20
37.948
 21
37.948
  0
LINE
  8
0
 10
266.152
 11
266.152
 20
37.948
 21
28.82
  0
LINE
  8
0
 10
266.152
 11
257.023
 20
28.82
 21
28.82
  0
LINE
  8
0
 10
257.023
 11
257.023
 20
38.948
 21
48.077
  0
LINE
  8
0
 10
257.023
 11
266.152
 20
48.077
 21
48.077
  0
LINE
  8
0
 10
266.152
 11
266.152
 20
48.077
 21
38.948
  0
LINE
  8
0
 10
266.152
 11
257.023
 20
38.948
 21
38.948
  0
LINE
  8
0
 10
267.152
 11
267.152
 20
-31.948
 21
-22.82
  0
LINE
  8
0
 10
267.152
 11
276.28
 20
-22.82
 21
-22.82
  0
LINE
  8
0
 10
276.28
 11
276.28
 20
-22.82
 21
-31.948
  0
LINE
  8
0
 10
276.28
 11
267.152
 20
-31.948
 21
-31.948
  0
LINE
  8
0
 10
267.152
 11
267.152
 20
-21.82
 21
-12.692
  0
LINE
  8
0
 10
267.152
 11
276.28
 20
-12.692
 21
-12.692
  0
LINE
  8
0
 10
276.28
 11
276.28
 20
-12.692
 21
-21.82
  0
LINE
  8
0
 10
276.28
 11
267.152
 20
-21.82
 21
-21.82
  0
LINE
  8
0
 10
267.152
 11
267.152
 20
-11.692
 21
-2.564
  0
LINE
  8
0
 10
267.152
 11
276.28
 20
-2.564
 21
-2.564
  0
LINE
  8
0
 10
276.28
 11
276.28
 20
-2.564
 21
-11.692
  0
LINE
  8
0
 10
276.28
 11
267.152
 20
-11.692
 21
-11.692
  0
LINE
  8
0
 10
267.152
 11
267.152
 20
-1.564
 21
7.564
  0
LINE
  8
0
 10
267.152
 11
276.28
 20
7.564
 21
7.564
  0
LINE
  8
0
 10
276.28
 11
276.28
 20
7.564
 21
-1.564
  0
LINE
  8
0
 10
276.28
 11
267.152
 20
-1.564
 21
-1.564
  0
LINE
  8
0
 10
267.152
 11
267.152
 20
8.564
 21
17.692
  0
LINE
  8
0
 10
267.152
 11
276.28
 20
17.692
 21
17.692
  0
LINE
  8
0
 10
276.28
 11
276.28
 20
17.692
 21
8.564
  0
LINE
  8
0
 10
276.28
 11
267.152
 20
8.564
 21
8.564
  0
LINE
  8
0
 10
267.152
 11
267.152
 20
18.692
 21
27.82
  0
LINE
  8
0
 10
267.152
 11
276.28
 20
27.82
 21
27.82
  0
LINE
  8
0
 10
276.28
 11
276.28
 20
27.82
 21
18.692
  0
LINE
  8
0
 10
276.28
 11
267.152
 20
18.692
 21
18.692
  0
LINE
  8
0
 10
267.152
 11
267.152
 20
28.82
 21
37.948
  0
LINE
  8
0
 10
267.152
 11
276.28
 20
37.948
 21
37.948
  0
LINE
  8
0
 10
276.28
 11
276.28
 20
37.948
 21
28.82
  0
LINE
  8
0
 10
276.28
 11
267.152
 20
28.82
 21
28.82
  0
LINE
  8
0
 10
267.152
 11
267.152
 20
38.948
 21
48.077
  0
LINE
  8
0
 10
267.152
 11
276.28
 20
48.077
 21
48.077
  0
LINE
  8
0
 10
276.28
 11
276.28
 20
48.077
 21
38.948
  0
LINE
  8
0
 10
276.28
 11
267.152
 20
38.948
 21
38.948
  0
LINE
  8
0
 10
277.28
 11
277.28
 20
-31.948
 21
-22.82
  0
LINE
  8
0
 10
277.28
 11
286.408
 20
-22.82
 21
-22.82
  0
LINE
  8
0
 10
286.408
 11
286.408
 20
-22.82
 21
-31.948
  0
LINE
  8
0
 10
286.408
 11
277.28
 20
-31.948
 21
-31.948
  0
LINE
  8
0
 10
277.28
 11
277.28
 20
-21.82
 21
-12.692
  0
LINE
  8
0
 10
277.28
 11
286.408
 20
-12.692
 21
-12.692
  0
LINE
  8
0
 10
286.408
 11
286.408
 20
-12.692
 21
-21.82
  0
LINE
  8
0
 10
286.408
 11
277.28
 20
-21.82
 21
-21.82
  0
LINE
  8
0
 10
277.28
 11
277.28
 20
-11.692
 21
-2.564
  0
LINE
  8
0
 10
277.28
 11
286.408
 20
-2.564
 21
-2.564
  0
LINE
  8
0
 10
286.408
 11
286.408
 20
-2.564
 21
-11.692
  0
LINE
  8
0
 10
286.408
 11
277.28
 20
-11.692
 21
-11.692
  0
LINE
  8
0
 10
277.28
 11
277.28
 20
-1.564
 21
7.564
  0
LINE
  8
0
 10
277.28
 11
286.408
 20
7.564
 21
7.564
  0
LINE
  8
0
 10
286.408
 11
286.408
 20
7.564
 21
-1.564
  0
LINE
  8
0
 10
286.408
 11
277.28
 20
-1.564
 21
-1.564
  0
LINE
  8
0
 10
277.28
 11
277.28
 20
8.564
 21
17.692
  0
LINE
  8
0
 10
277.28
 11
286.408
 20
17.692
 21
17.692
  0
LINE
  8
0
 10
286.408
 11
286.408
 20
17.692
 21
8.564
  0
LINE
  8
0
 10
286.408
 11
277.28
 20
8.564
 21
8.564
  0
LINE
  8
0
 10
277.28
 11
277.28
 20
18.692
 21
27.82
  0
LINE
  8
0
 10
277.28
 11
286.408
 20
27.82
 21
27.82
  0
LINE
  8
0
 10
286.408
 11
286.408
 20
27.82
 21
18.692
  0
LINE
  8
0
 10
286.408
 11
277.28
 20
18.692
 21
18.692
  0
LINE
  8
0
 10
277.28
 11
277.28
 20
28.82
 21
37.948
  0
LINE
  8
0
 10
277.28
 11
286.408
 20
37.948
 21
37.948
  0
LINE
  8
0
 10
286.408
 11
286.408
 20
37.948
 21
28.82
  0
LINE
  8
0
 10
286.408
 11
277.28
 20
28.82
 21
28.82
  0
LINE
  8
0
 10
277.28
 11
277.28
 20
38.948
 21
48.077
  0
LINE
  8
0
 10
277.28
 11
286.408
 20
48.077
 21
48.077
  0
LINE
  8
0
 10
286.408
 11
286.408
 20
48.077
 21
38.948
  0
LINE
  8
0
 10
286.408
 11
277.28
 20
38.948
 21
38.948
  0
LINE
  8
0
 10
287.408
 11
287.408
 20
-31.948
 21
-22.82
  0
LINE
  8
0
 10
287.408
 11
296.536
 20
-22.82
 21
-22.82
  0
LINE
  8
0
 10
296.536
 11
296.536
 20
-22.82
 21
-31.948
  0
LINE
  8
0
 10
296.536
 11
287.408
 20
-31.948
 21
-31.948
  0
LINE
  8
0
 10
287.408
 11
287.408
 20
-21.82
 21
-12.692
  0
LINE
  8
0
 10
287.408
 11
296.536
 20
-12.692
 21
-12.692
  0
LINE
  8
0
 10
296.536
 11
296.536
 20
-12.692
 21
-21.82
  0
LINE
  8
0
 10
296.536
 11
287.408
 20
-21.82
 21
-21.82
  0
LINE
  8
0
 10
287.408
 11
287.408
 20
-11.692
 21
-2.564
  0
LINE
  8
0
 10
287.408
 11
296.536
 20
-2.564
 21
-2.564
  0
LINE
  8
0
 10
296.536
 11
296.536
 20
-2.564
 21
-11.692
  0
LINE
  8
0
 10
296.536
 11
287.408
 20
-11.692
 21
-11.692
  0
LINE
  8
0
 10
287.408
 11
287.408
 20
-1.564
 21
7.564
  0
LINE
  8
0
 10
287.408
 11
296.536
 20
7.564
 21
7.564
  0
LINE
  8
0
 10
296.536
 11
296.536
 20
7.564
 21
-1.564
  0
LINE
  8
0
 10
296.536
 11
287.408
 20
-1.564
 21
-1.564
  0
LINE
  8
0
 10
287.408
 11
287.408
 20
8.564
 21
17.692
  0
LINE
  8
0
 10
287.408
 11
296.536
 20
17.692
 21
17.692
  0
LINE
  8
0
 10
296.536
 11
296.536
 20
17.692
 21
8.564
  0
LINE
  8
0
 10
296.536
 11
287.408
 20
8.564
 21
8.564
  0
LINE
  8
0
 10
287.408
 11
287.408
 20
18.692
 21
27.82
  0
LINE
  8
0
 10
287.408
 11
296.536
 20
27.82
 21
27.82
  0
LINE
  8
0
 10
296.536
 11
296.536
 20
27.82
 21
18.692
  0
LINE
  8
0
 10
296.536
 11
287.408
 20
18.692
 21
18.692
  0
LINE
  8
0
 10
287.408
 11
287.408
 20
28.82
 21
37.948
  0
LINE
  8
0
 10
287.408
 11
296.536
 20
37.948
 21
37.948
  0
LINE
  8
0
 10
296.536
 11
296.536
 20
37.948
 21
28.82
  0
LINE
  8
0
 10
296.536
 11
287.408
 20
28.82
 21
28.82
  0
LINE
  8
0
 10
287.408
 11
287.408
 20
38.948
 21
48.077
  0
LINE
  8
0
 10
287.408
 11
296.536
 20
48.077
 21
48.077
  0
LINE
  8
0
 10
296.536
 11
296.536
 20
48.077
 21
38.948
  0
LINE
  8
0
 10
296.536
 11
287.408
 20
38.948
 21
38.948
  0
ENDSEC
  0
SECTION
  2
OBJECTS
  0
DICTIONARY
  0
ENDSEC
  0
EOF
