  0
SECTION
  2
BLOCKS
  0
ENDSEC
  0
SECTION
  2
ENTITIES
  0
LINE
  8
0
 10
-10.269
 11
-10.269
 20
-2.728
 21
5.209
  0
LINE
  8
0
 10
-10.269
 11
-2.331
 20
5.209
 21
5.209
  0
LINE
  8
0
 10
-2.331
 11
-2.331
 20
5.209
 21
1.241
  0
LINE
  8
0
 10
-2.331
 11
-6.3
 20
1.241
 21
1.241
  0
LINE
  8
0
 10
-6.3
 11
-6.3
 20
1.241
 21
-2.728
  0
LINE
  8
0
 10
-6.3
 11
-10.269
 20
-2.728
 21
-2.728
  0
LINE
  8
0
 10
-5.3
 11
-5.3
 20
-7.697
 21
0.241
  0
LINE
  8
0
 10
-5.3
 11
0
 20
0.241
 21
0.241
  0
LINE
  8
0
 10
0
 11
0
 20
0.241
 21
7.938
  0
LINE
  8
0
 10
0
 11
7.938
 20
7.938
 21
7.938
  0
LINE
  8
0
 10
7.938
 11
7.938
 20
7.938
 21
15.875
  0
LINE
  8
0
 10
7.938
 11
23.813
 20
15.875
 21
15.875
  0
LINE
  8
0
 10
23.813
 11
23.813
 20
15.875
 21
11.906
  0
LINE
  8
0
 10
23.813
 11
11.906
 20
11.906
 21
11.906
  0
LINE
  8
0
 10
11.906
 11
11.906
 20
11.906
 21
3.969
  0
LINE
  8
0
 10
11.906
 11
3.969
 20
3.969
 21
3.969
  0
LINE
  8
0
 10
3.969
 11
3.969
 20
3.969
 21
0
  0
LINE
  8
0
 10
3.969
 11
2.637
 20
0
 21
0
  0
LINE
  8
0
 10
2.637
 11
2.637
 20
0
 21
-3.728
  0
LINE
  8
0
 10
2.637
 11
-1.331
 20
-3.728
 21
-3.728
  0
LINE
  8
0
 10
-1.331
 11
-1.331
 20
-3.728
 21
-7.697
  0
LINE
  8
0
 10
-1.331
 11
-5.3
 20
-7.697
 21
-7.697
  0
LINE
  8
0
 10
-0.331
 11
-0.331
 20
-12.666
 21
-4.728
  0
LINE
  8
0
 10
-0.331
 11
4.969
 20
-4.728
 21
-4.728
  0
LINE
  8
0
 10
4.969
 11
4.969
 20
-4.728
 21
2.969
  0
LINE
  8
0
 10
4.969
 11
12.906
 20
2.969
 21
2.969
  0
LINE
  8
0
 10
12.906
 11
12.906
 20
2.969
 21
10.906
  0
LINE
  8
0
 10
12.906
 11
28.781
 20
10.906
 21
10.906
  0
LINE
  8
0
 10
28.781
 11
28.781
 20
10.906
 21
6.938
  0
LINE
  8
0
 10
28.781
 11
16.875
 20
6.938
 21
6.938
  0
LINE
  8
0
 10
16.875
 11
16.875
 20
6.938
 21
-1
  0
LINE
  8
0
 10
16.875
 11
8.938
 20
-1
 21
-1
  0
LINE
  8
0
 10
8.938
 11
8.938
 20
-1
 21
-4.969
  0
LINE
  8
0
 10
8.938
 11
7.606
 20
-4.969
 21
-4.969
  0
LINE
  8
0
 10
7.606
 11
7.606
 20
-4.969
 21
-8.697
  0
LINE
  8
0
 10
7.606
 11
3.637
 20
-8.697
 21
-8.697
  0
LINE
  8
0
 10
3.637
 11
3.637
 20
-8.697
 21
-12.666
  0
LINE
  8
0
 10
3.637
 11
-0.331
 20
-12.666
 21
-12.666
  0
LINE
  8
0
 10
1.984
 11
1.984
 20
-101.203
 21
-97.234
  0
LINE
  8
0
 10
1.984
 11
5.953
 20
-97.234
 21
-97.234
  0
LINE
  8
0
 10
5.953
 11
5.953
 20
-97.234
 21
-101.203
  0
LINE
  8
0
 10
5.953
 11
1.984
 20
-101.203
 21
-101.203
  0
LINE
  8
0
 10
1.984
 11
1.984
 20
-96.234
 21
-92.266
  0
LINE
  8
0
 10
1.984
 11
5.953
 20
-92.266
 21
-92.266
  0
LINE
  8
0
 10
5.953
 11
5.953
 20
-92.266
 21
-96.234
  0
LINE
  8
0
 10
5.953
 11
1.984
 20
-96.234
 21
-96.234
  0
LINE
  8
0
 10
1.984
 11
1.984
 20
-91.266
 21
-87.297
  0
LINE
  8
0
 10
1.984
 11
5.953
 20
-87.297
 21
-87.297
  0
LINE
  8
0
 10
5.953
 11
5.953
 20
-87.297
 21
-91.266
  0
LINE
  8
0
 10
5.953
 11
1.984
 20
-91.266
 21
-91.266
  0
LINE
  8
0
 10
1.984
 11
1.984
 20
-86.297
 21
-82.328
  0
LINE
  8
0
 10
1.984
 11
5.953
 20
-82.328
 21
-82.328
  0
LINE
  8
0
 10
5.953
 11
5.953
 20
-82.328
 21
-86.297
  0
LINE
  8
0
 10
5.953
 11
1.984
 20
-86.297
 21
-86.297
  0
LINE
  8
0
 10
1.984
 11
1.984
 20
-81.328
 21
-77.359
  0
LINE
  8
0
 10
1.984
 11
5.953
 20
-77.359
 21
-77.359
  0
LINE
  8
0
 10
5.953
 11
5.953
 20
-77.359
 21
-81.328
  0
LINE
  8
0
 10
5.953
 11
1.984
 20
-81.328
 21
-81.328
  0
LINE
  8
0
 10
1.984
 11
1.984
 20
-76.359
 21
-72.391
  0
LINE
  8
0
 10
1.984
 11
5.953
 20
-72.391
 21
-72.391
  0
LINE
  8
0
 10
5.953
 11
5.953
 20
-72.391
 21
-76.359
  0
LINE
  8
0
 10
5.953
 11
1.984
 20
-76.359
 21
-76.359
  0
LINE
  8
0
 10
1.984
 11
1.984
 20
-71.391
 21
-67.422
  0
LINE
  8
0
 10
1.984
 11
5.953
 20
-67.422
 21
-67.422
  0
LINE
  8
0
 10
5.953
 11
5.953
 20
-67.422
 21
-71.391
  0
LINE
  8
0
 10
5.953
 11
1.984
 20
-71.391
 21
-71.391
  0
LINE
  8
0
 10
1.984
 11
1.984
 20
-66.422
 21
-62.453
  0
LINE
  8
0
 10
1.984
 11
5.953
 20
-62.453
 21
-62.453
  0
LINE
  8
0
 10
5.953
 11
5.953
 20
-62.453
 21
-66.422
  0
LINE
  8
0
 10
5.953
 11
1.984
 20
-66.422
 21
-66.422
  0
LINE
  8
0
 10
4.638
 11
4.638
 20
-17.634
 21
-9.697
  0
LINE
  8
0
 10
4.638
 11
9.938
 20
-9.697
 21
-9.697
  0
LINE
  8
0
 10
9.938
 11
9.938
 20
-9.697
 21
-2
  0
LINE
  8
0
 10
9.938
 11
17.875
 20
-2
 21
-2
  0
LINE
  8
0
 10
17.875
 11
17.875
 20
-2
 21
5.938
  0
LINE
  8
0
 10
17.875
 11
33.75
 20
5.938
 21
5.938
  0
LINE
  8
0
 10
33.75
 11
33.75
 20
5.938
 21
1.969
  0
LINE
  8
0
 10
33.75
 11
21.844
 20
1.969
 21
1.969
  0
LINE
  8
0
 10
21.844
 11
21.844
 20
1.969
 21
-5.969
  0
LINE
  8
0
 10
21.844
 11
13.906
 20
-5.969
 21
-5.969
  0
LINE
  8
0
 10
13.906
 11
13.906
 20
-5.969
 21
-9.938
  0
LINE
  8
0
 10
13.906
 11
12.575
 20
-9.938
 21
-9.938
  0
LINE
  8
0
 10
12.575
 11
12.575
 20
-9.938
 21
-13.666
  0
LINE
  8
0
 10
12.575
 11
8.606
 20
-13.666
 21
-13.666
  0
LINE
  8
0
 10
8.606
 11
8.606
 20
-13.666
 21
-17.634
  0
LINE
  8
0
 10
8.606
 11
4.638
 20
-17.634
 21
-17.634
  0
LINE
  8
0
 10
6.953
 11
6.953
 20
-101.203
 21
-97.234
  0
LINE
  8
0
 10
6.953
 11
10.922
 20
-97.234
 21
-97.234
  0
LINE
  8
0
 10
10.922
 11
10.922
 20
-97.234
 21
-101.203
  0
LINE
  8
0
 10
10.922
 11
6.953
 20
-101.203
 21
-101.203
  0
LINE
  8
0
 10
6.953
 11
6.953
 20
-96.234
 21
-92.266
  0
LINE
  8
0
 10
6.953
 11
10.922
 20
-92.266
 21
-92.266
  0
LINE
  8
0
 10
10.922
 11
10.922
 20
-92.266
 21
-96.234
  0
LINE
  8
0
 10
10.922
 11
6.953
 20
-96.234
 21
-96.234
  0
LINE
  8
0
 10
6.953
 11
6.953
 20
-91.266
 21
-87.297
  0
LINE
  8
0
 10
6.953
 11
10.922
 20
-87.297
 21
-87.297
  0
LINE
  8
0
 10
10.922
 11
10.922
 20
-87.297
 21
-91.266
  0
LINE
  8
0
 10
10.922
 11
6.953
 20
-91.266
 21
-91.266
  0
LINE
  8
0
 10
6.953
 11
6.953
 20
-86.297
 21
-82.328
  0
LINE
  8
0
 10
6.953
 11
10.922
 20
-82.328
 21
-82.328
  0
LINE
  8
0
 10
10.922
 11
10.922
 20
-82.328
 21
-86.297
  0
LINE
  8
0
 10
10.922
 11
6.953
 20
-86.297
 21
-86.297
  0
LINE
  8
0
 10
6.953
 11
6.953
 20
-81.328
 21
-77.359
  0
LINE
  8
0
 10
6.953
 11
10.922
 20
-77.359
 21
-77.359
  0
LINE
  8
0
 10
10.922
 11
10.922
 20
-77.359
 21
-81.328
  0
LINE
  8
0
 10
10.922
 11
6.953
 20
-81.328
 21
-81.328
  0
LINE
  8
0
 10
6.953
 11
6.953
 20
-76.359
 21
-72.391
  0
LINE
  8
0
 10
6.953
 11
10.922
 20
-72.391
 21
-72.391
  0
LINE
  8
0
 10
10.922
 11
10.922
 20
-72.391
 21
-76.359
  0
LINE
  8
0
 10
10.922
 11
6.953
 20
-76.359
 21
-76.359
  0
LINE
  8
0
 10
6.953
 11
6.953
 20
-71.391
 21
-67.422
  0
LINE
  8
0
 10
6.953
 11
10.922
 20
-67.422
 21
-67.422
  0
LINE
  8
0
 10
10.922
 11
10.922
 20
-67.422
 21
-71.391
  0
LINE
  8
0
 10
10.922
 11
6.953
 20
-71.391
 21
-71.391
  0
LINE
  8
0
 10
6.953
 11
6.953
 20
-66.422
 21
-62.453
  0
LINE
  8
0
 10
6.953
 11
10.922
 20
-62.453
 21
-62.453
  0
LINE
  8
0
 10
10.922
 11
10.922
 20
-62.453
 21
-66.422
  0
LINE
  8
0
 10
10.922
 11
6.953
 20
-66.422
 21
-66.422
  0
LINE
  8
0
 10
9.606
 11
9.606
 20
-22.603
 21
-14.666
  0
LINE
  8
0
 10
9.606
 11
14.906
 20
-14.666
 21
-14.666
  0
LINE
  8
0
 10
14.906
 11
14.906
 20
-14.666
 21
-6.969
  0
LINE
  8
0
 10
14.906
 11
22.844
 20
-6.969
 21
-6.969
  0
LINE
  8
0
 10
22.844
 11
22.844
 20
-6.969
 21
0.969
  0
LINE
  8
0
 10
22.844
 11
38.719
 20
0.969
 21
0.969
  0
LINE
  8
0
 10
38.719
 11
38.719
 20
0.969
 21
-3
  0
LINE
  8
0
 10
38.719
 11
26.813
 20
-3
 21
-3
  0
LINE
  8
0
 10
26.813
 11
26.813
 20
-3
 21
-10.938
  0
LINE
  8
0
 10
26.813
 11
18.875
 20
-10.938
 21
-10.938
  0
LINE
  8
0
 10
18.875
 11
18.875
 20
-10.938
 21
-14.906
  0
LINE
  8
0
 10
18.875
 11
17.544
 20
-14.906
 21
-14.906
  0
LINE
  8
0
 10
17.544
 11
17.544
 20
-14.906
 21
-18.634
  0
LINE
  8
0
 10
17.544
 11
13.575
 20
-18.634
 21
-18.634
  0
LINE
  8
0
 10
13.575
 11
13.575
 20
-18.634
 21
-22.603
  0
LINE
  8
0
 10
13.575
 11
9.606
 20
-22.603
 21
-22.603
  0
LINE
  8
0
 10
11.922
 11
11.922
 20
-101.203
 21
-97.234
  0
LINE
  8
0
 10
11.922
 11
15.891
 20
-97.234
 21
-97.234
  0
LINE
  8
0
 10
15.891
 11
15.891
 20
-97.234
 21
-101.203
  0
LINE
  8
0
 10
15.891
 11
11.922
 20
-101.203
 21
-101.203
  0
LINE
  8
0
 10
11.922
 11
11.922
 20
-96.234
 21
-92.266
  0
LINE
  8
0
 10
11.922
 11
15.891
 20
-92.266
 21
-92.266
  0
LINE
  8
0
 10
15.891
 11
15.891
 20
-92.266
 21
-96.234
  0
LINE
  8
0
 10
15.891
 11
11.922
 20
-96.234
 21
-96.234
  0
LINE
  8
0
 10
11.922
 11
11.922
 20
-91.266
 21
-87.297
  0
LINE
  8
0
 10
11.922
 11
15.891
 20
-87.297
 21
-87.297
  0
LINE
  8
0
 10
15.891
 11
15.891
 20
-87.297
 21
-91.266
  0
LINE
  8
0
 10
15.891
 11
11.922
 20
-91.266
 21
-91.266
  0
LINE
  8
0
 10
11.922
 11
11.922
 20
-86.297
 21
-82.328
  0
LINE
  8
0
 10
11.922
 11
15.891
 20
-82.328
 21
-82.328
  0
LINE
  8
0
 10
15.891
 11
15.891
 20
-82.328
 21
-86.297
  0
LINE
  8
0
 10
15.891
 11
11.922
 20
-86.297
 21
-86.297
  0
LINE
  8
0
 10
11.922
 11
11.922
 20
-81.328
 21
-77.359
  0
LINE
  8
0
 10
11.922
 11
15.891
 20
-77.359
 21
-77.359
  0
LINE
  8
0
 10
15.891
 11
15.891
 20
-77.359
 21
-81.328
  0
LINE
  8
0
 10
15.891
 11
11.922
 20
-81.328
 21
-81.328
  0
LINE
  8
0
 10
11.922
 11
11.922
 20
-76.359
 21
-72.391
  0
LINE
  8
0
 10
11.922
 11
15.891
 20
-72.391
 21
-72.391
  0
LINE
  8
0
 10
15.891
 11
15.891
 20
-72.391
 21
-76.359
  0
LINE
  8
0
 10
15.891
 11
11.922
 20
-76.359
 21
-76.359
  0
LINE
  8
0
 10
11.922
 11
11.922
 20
-71.391
 21
-67.422
  0
LINE
  8
0
 10
11.922
 11
15.891
 20
-67.422
 21
-67.422
  0
LINE
  8
0
 10
15.891
 11
15.891
 20
-67.422
 21
-71.391
  0
LINE
  8
0
 10
15.891
 11
11.922
 20
-71.391
 21
-71.391
  0
LINE
  8
0
 10
11.922
 11
11.922
 20
-66.422
 21
-62.453
  0
LINE
  8
0
 10
11.922
 11
15.891
 20
-62.453
 21
-62.453
  0
LINE
  8
0
 10
15.891
 11
15.891
 20
-62.453
 21
-66.422
  0
LINE
  8
0
 10
15.891
 11
11.922
 20
-66.422
 21
-66.422
  0
LINE
  8
0
 10
14.575
 11
14.575
 20
-27.572
 21
-19.634
  0
LINE
  8
0
 10
14.575
 11
19.875
 20
-19.634
 21
-19.634
  0
LINE
  8
0
 10
19.875
 11
19.875
 20
-19.634
 21
-11.938
  0
LINE
  8
0
 10
19.875
 11
27.813
 20
-11.938
 21
-11.938
  0
LINE
  8
0
 10
27.813
 11
27.813
 20
-11.938
 21
-4
  0
LINE
  8
0
 10
27.813
 11
43.688
 20
-4
 21
-4
  0
LINE
  8
0
 10
43.688
 11
43.688
 20
-4
 21
-7.969
  0
LINE
  8
0
 10
43.688
 11
31.781
 20
-7.969
 21
-7.969
  0
LINE
  8
0
 10
31.781
 11
31.781
 20
-7.969
 21
-15.906
  0
LINE
  8
0
 10
31.781
 11
23.844
 20
-15.906
 21
-15.906
  0
LINE
  8
0
 10
23.844
 11
23.844
 20
-15.906
 21
-19.875
  0
LINE
  8
0
 10
23.844
 11
22.513
 20
-19.875
 21
-19.875
  0
LINE
  8
0
 10
22.513
 11
22.513
 20
-19.875
 21
-23.603
  0
LINE
  8
0
 10
22.513
 11
18.544
 20
-23.603
 21
-23.603
  0
LINE
  8
0
 10
18.544
 11
18.544
 20
-23.603
 21
-27.572
  0
LINE
  8
0
 10
18.544
 11
14.575
 20
-27.572
 21
-27.572
  0
LINE
  8
0
 10
16.891
 11
16.891
 20
-101.203
 21
-97.234
  0
LINE
  8
0
 10
16.891
 11
20.859
 20
-97.234
 21
-97.234
  0
LINE
  8
0
 10
20.859
 11
20.859
 20
-97.234
 21
-101.203
  0
LINE
  8
0
 10
20.859
 11
16.891
 20
-101.203
 21
-101.203
  0
LINE
  8
0
 10
16.891
 11
16.891
 20
-96.234
 21
-92.266
  0
LINE
  8
0
 10
16.891
 11
20.859
 20
-92.266
 21
-92.266
  0
LINE
  8
0
 10
20.859
 11
20.859
 20
-92.266
 21
-96.234
  0
LINE
  8
0
 10
20.859
 11
16.891
 20
-96.234
 21
-96.234
  0
LINE
  8
0
 10
16.891
 11
16.891
 20
-91.266
 21
-87.297
  0
LINE
  8
0
 10
16.891
 11
20.859
 20
-87.297
 21
-87.297
  0
LINE
  8
0
 10
20.859
 11
20.859
 20
-87.297
 21
-91.266
  0
LINE
  8
0
 10
20.859
 11
16.891
 20
-91.266
 21
-91.266
  0
LINE
  8
0
 10
16.891
 11
16.891
 20
-86.297
 21
-82.328
  0
LINE
  8
0
 10
16.891
 11
20.859
 20
-82.328
 21
-82.328
  0
LINE
  8
0
 10
20.859
 11
20.859
 20
-82.328
 21
-86.297
  0
LINE
  8
0
 10
20.859
 11
16.891
 20
-86.297
 21
-86.297
  0
LINE
  8
0
 10
16.891
 11
16.891
 20
-81.328
 21
-77.359
  0
LINE
  8
0
 10
16.891
 11
20.859
 20
-77.359
 21
-77.359
  0
LINE
  8
0
 10
20.859
 11
20.859
 20
-77.359
 21
-81.328
  0
LINE
  8
0
 10
20.859
 11
16.891
 20
-81.328
 21
-81.328
  0
LINE
  8
0
 10
16.891
 11
16.891
 20
-76.359
 21
-72.391
  0
LINE
  8
0
 10
16.891
 11
20.859
 20
-72.391
 21
-72.391
  0
LINE
  8
0
 10
20.859
 11
20.859
 20
-72.391
 21
-76.359
  0
LINE
  8
0
 10
20.859
 11
16.891
 20
-76.359
 21
-76.359
  0
LINE
  8
0
 10
16.891
 11
16.891
 20
-71.391
 21
-67.422
  0
LINE
  8
0
 10
16.891
 11
20.859
 20
-67.422
 21
-67.422
  0
LINE
  8
0
 10
20.859
 11
20.859
 20
-67.422
 21
-71.391
  0
LINE
  8
0
 10
20.859
 11
16.891
 20
-71.391
 21
-71.391
  0
LINE
  8
0
 10
16.891
 11
16.891
 20
-66.422
 21
-62.453
  0
LINE
  8
0
 10
16.891
 11
20.859
 20
-62.453
 21
-62.453
  0
LINE
  8
0
 10
20.859
 11
20.859
 20
-62.453
 21
-66.422
  0
LINE
  8
0
 10
20.859
 11
16.891
 20
-66.422
 21
-66.422
  0
LINE
  8
0
 10
19.544
 11
19.544
 20
-32.541
 21
-24.603
  0
LINE
  8
0
 10
19.544
 11
24.844
 20
-24.603
 21
-24.603
  0
LINE
  8
0
 10
24.844
 11
24.844
 20
-24.603
 21
-16.906
  0
LINE
  8
0
 10
24.844
 11
32.781
 20
-16.906
 21
-16.906
  0
LINE
  8
0
 10
32.781
 11
32.781
 20
-16.906
 21
-8.969
  0
LINE
  8
0
 10
32.781
 11
48.656
 20
-8.969
 21
-8.969
  0
LINE
  8
0
 10
48.656
 11
48.656
 20
-8.969
 21
-12.938
  0
LINE
  8
0
 10
48.656
 11
36.75
 20
-12.938
 21
-12.938
  0
LINE
  8
0
 10
36.75
 11
36.75
 20
-12.938
 21
-20.875
  0
LINE
  8
0
 10
36.75
 11
28.813
 20
-20.875
 21
-20.875
  0
LINE
  8
0
 10
28.813
 11
28.813
 20
-20.875
 21
-24.844
  0
LINE
  8
0
 10
28.813
 11
27.481
 20
-24.844
 21
-24.844
  0
LINE
  8
0
 10
27.481
 11
27.481
 20
-24.844
 21
-28.572
  0
LINE
  8
0
 10
27.481
 11
23.513
 20
-28.572
 21
-28.572
  0
LINE
  8
0
 10
23.513
 11
23.513
 20
-28.572
 21
-32.541
  0
LINE
  8
0
 10
23.513
 11
19.544
 20
-32.541
 21
-32.541
  0
LINE
  8
0
 10
21.859
 11
21.859
 20
-101.203
 21
-97.234
  0
LINE
  8
0
 10
21.859
 11
25.828
 20
-97.234
 21
-97.234
  0
LINE
  8
0
 10
25.828
 11
25.828
 20
-97.234
 21
-101.203
  0
LINE
  8
0
 10
25.828
 11
21.859
 20
-101.203
 21
-101.203
  0
LINE
  8
0
 10
21.859
 11
21.859
 20
-96.234
 21
-92.266
  0
LINE
  8
0
 10
21.859
 11
25.828
 20
-92.266
 21
-92.266
  0
LINE
  8
0
 10
25.828
 11
25.828
 20
-92.266
 21
-96.234
  0
LINE
  8
0
 10
25.828
 11
21.859
 20
-96.234
 21
-96.234
  0
LINE
  8
0
 10
21.859
 11
21.859
 20
-91.266
 21
-87.297
  0
LINE
  8
0
 10
21.859
 11
25.828
 20
-87.297
 21
-87.297
  0
LINE
  8
0
 10
25.828
 11
25.828
 20
-87.297
 21
-91.266
  0
LINE
  8
0
 10
25.828
 11
21.859
 20
-91.266
 21
-91.266
  0
LINE
  8
0
 10
21.859
 11
21.859
 20
-86.297
 21
-82.328
  0
LINE
  8
0
 10
21.859
 11
25.828
 20
-82.328
 21
-82.328
  0
LINE
  8
0
 10
25.828
 11
25.828
 20
-82.328
 21
-86.297
  0
LINE
  8
0
 10
25.828
 11
21.859
 20
-86.297
 21
-86.297
  0
LINE
  8
0
 10
21.859
 11
21.859
 20
-81.328
 21
-77.359
  0
LINE
  8
0
 10
21.859
 11
25.828
 20
-77.359
 21
-77.359
  0
LINE
  8
0
 10
25.828
 11
25.828
 20
-77.359
 21
-81.328
  0
LINE
  8
0
 10
25.828
 11
21.859
 20
-81.328
 21
-81.328
  0
LINE
  8
0
 10
21.859
 11
21.859
 20
-76.359
 21
-72.391
  0
LINE
  8
0
 10
21.859
 11
25.828
 20
-72.391
 21
-72.391
  0
LINE
  8
0
 10
25.828
 11
25.828
 20
-72.391
 21
-76.359
  0
LINE
  8
0
 10
25.828
 11
21.859
 20
-76.359
 21
-76.359
  0
LINE
  8
0
 10
21.859
 11
21.859
 20
-71.391
 21
-67.422
  0
LINE
  8
0
 10
21.859
 11
25.828
 20
-67.422
 21
-67.422
  0
LINE
  8
0
 10
25.828
 11
25.828
 20
-67.422
 21
-71.391
  0
LINE
  8
0
 10
25.828
 11
21.859
 20
-71.391
 21
-71.391
  0
LINE
  8
0
 10
21.859
 11
21.859
 20
-66.422
 21
-62.453
  0
LINE
  8
0
 10
21.859
 11
25.828
 20
-62.453
 21
-62.453
  0
LINE
  8
0
 10
25.828
 11
25.828
 20
-62.453
 21
-66.422
  0
LINE
  8
0
 10
25.828
 11
21.859
 20
-66.422
 21
-66.422
  0
LINE
  8
0
 10
24.209
 11
24.209
 20
11.906
 21
19.844
  0
LINE
  8
0
 10
24.209
 11
36.116
 20
19.844
 21
19.844
  0
LINE
  8
0
 10
36.116
 11
36.116
 20
19.844
 21
27.781
  0
LINE
  8
0
 10
36.116
 11
40.084
 20
27.781
 21
27.781
  0
LINE
  8
0
 10
40.084
 11
40.084
 20
27.781
 21
15.875
  0
LINE
  8
0
 10
40.084
 11
28.178
 20
15.875
 21
15.875
  0
LINE
  8
0
 10
28.178
 11
28.178
 20
15.875
 21
11.906
  0
LINE
  8
0
 10
28.178
 11
24.209
 20
11.906
 21
11.906
  0
LINE
  8
0
 10
24.513
 11
24.513
 20
-37.509
 21
-29.572
  0
LINE
  8
0
 10
24.513
 11
29.813
 20
-29.572
 21
-29.572
  0
LINE
  8
0
 10
29.813
 11
29.813
 20
-29.572
 21
-21.875
  0
LINE
  8
0
 10
29.813
 11
37.75
 20
-21.875
 21
-21.875
  0
LINE
  8
0
 10
37.75
 11
37.75
 20
-21.875
 21
-13.938
  0
LINE
  8
0
 10
37.75
 11
53.625
 20
-13.938
 21
-13.938
  0
LINE
  8
0
 10
53.625
 11
53.625
 20
-13.938
 21
-17.906
  0
LINE
  8
0
 10
53.625
 11
41.719
 20
-17.906
 21
-17.906
  0
LINE
  8
0
 10
41.719
 11
41.719
 20
-17.906
 21
-25.844
  0
LINE
  8
0
 10
41.719
 11
33.781
 20
-25.844
 21
-25.844
  0
LINE
  8
0
 10
33.781
 11
33.781
 20
-25.844
 21
-29.813
  0
LINE
  8
0
 10
33.781
 11
32.45
 20
-29.813
 21
-29.813
  0
LINE
  8
0
 10
32.45
 11
32.45
 20
-29.813
 21
-33.541
  0
LINE
  8
0
 10
32.45
 11
28.481
 20
-33.541
 21
-33.541
  0
LINE
  8
0
 10
28.481
 11
28.481
 20
-33.541
 21
-37.509
  0
LINE
  8
0
 10
28.481
 11
24.513
 20
-37.509
 21
-37.509
  0
LINE
  8
0
 10
26.828
 11
26.828
 20
-101.203
 21
-97.234
  0
LINE
  8
0
 10
26.828
 11
30.797
 20
-97.234
 21
-97.234
  0
LINE
  8
0
 10
30.797
 11
30.797
 20
-97.234
 21
-101.203
  0
LINE
  8
0
 10
30.797
 11
26.828
 20
-101.203
 21
-101.203
  0
LINE
  8
0
 10
26.828
 11
26.828
 20
-96.234
 21
-92.266
  0
LINE
  8
0
 10
26.828
 11
30.797
 20
-92.266
 21
-92.266
  0
LINE
  8
0
 10
30.797
 11
30.797
 20
-92.266
 21
-96.234
  0
LINE
  8
0
 10
30.797
 11
26.828
 20
-96.234
 21
-96.234
  0
LINE
  8
0
 10
26.828
 11
26.828
 20
-91.266
 21
-87.297
  0
LINE
  8
0
 10
26.828
 11
30.797
 20
-87.297
 21
-87.297
  0
LINE
  8
0
 10
30.797
 11
30.797
 20
-87.297
 21
-91.266
  0
LINE
  8
0
 10
30.797
 11
26.828
 20
-91.266
 21
-91.266
  0
LINE
  8
0
 10
26.828
 11
26.828
 20
-86.297
 21
-82.328
  0
LINE
  8
0
 10
26.828
 11
30.797
 20
-82.328
 21
-82.328
  0
LINE
  8
0
 10
30.797
 11
30.797
 20
-82.328
 21
-86.297
  0
LINE
  8
0
 10
30.797
 11
26.828
 20
-86.297
 21
-86.297
  0
LINE
  8
0
 10
26.828
 11
26.828
 20
-81.328
 21
-77.359
  0
LINE
  8
0
 10
26.828
 11
30.797
 20
-77.359
 21
-77.359
  0
LINE
  8
0
 10
30.797
 11
30.797
 20
-77.359
 21
-81.328
  0
LINE
  8
0
 10
30.797
 11
26.828
 20
-81.328
 21
-81.328
  0
LINE
  8
0
 10
26.828
 11
26.828
 20
-76.359
 21
-72.391
  0
LINE
  8
0
 10
26.828
 11
30.797
 20
-72.391
 21
-72.391
  0
LINE
  8
0
 10
30.797
 11
30.797
 20
-72.391
 21
-76.359
  0
LINE
  8
0
 10
30.797
 11
26.828
 20
-76.359
 21
-76.359
  0
LINE
  8
0
 10
26.828
 11
26.828
 20
-71.391
 21
-67.422
  0
LINE
  8
0
 10
26.828
 11
30.797
 20
-67.422
 21
-67.422
  0
LINE
  8
0
 10
30.797
 11
30.797
 20
-67.422
 21
-71.391
  0
LINE
  8
0
 10
30.797
 11
26.828
 20
-71.391
 21
-71.391
  0
LINE
  8
0
 10
26.828
 11
26.828
 20
-66.422
 21
-62.453
  0
LINE
  8
0
 10
26.828
 11
30.797
 20
-62.453
 21
-62.453
  0
LINE
  8
0
 10
30.797
 11
30.797
 20
-62.453
 21
-66.422
  0
LINE
  8
0
 10
30.797
 11
26.828
 20
-66.422
 21
-66.422
  0
LINE
  8
0
 10
29.178
 11
29.178
 20
6.938
 21
14.875
  0
LINE
  8
0
 10
29.178
 11
41.084
 20
14.875
 21
14.875
  0
LINE
  8
0
 10
41.084
 11
41.084
 20
14.875
 21
22.813
  0
LINE
  8
0
 10
41.084
 11
45.053
 20
22.813
 21
22.813
  0
LINE
  8
0
 10
45.053
 11
45.053
 20
22.813
 21
10.906
  0
LINE
  8
0
 10
45.053
 11
33.147
 20
10.906
 21
10.906
  0
LINE
  8
0
 10
33.147
 11
33.147
 20
10.906
 21
6.938
  0
LINE
  8
0
 10
33.147
 11
29.178
 20
6.938
 21
6.938
  0
LINE
  8
0
 10
29.481
 11
29.481
 20
-42.478
 21
-34.541
  0
LINE
  8
0
 10
29.481
 11
34.781
 20
-34.541
 21
-34.541
  0
LINE
  8
0
 10
34.781
 11
34.781
 20
-34.541
 21
-26.844
  0
LINE
  8
0
 10
34.781
 11
42.719
 20
-26.844
 21
-26.844
  0
LINE
  8
0
 10
42.719
 11
42.719
 20
-26.844
 21
-18.906
  0
LINE
  8
0
 10
42.719
 11
58.594
 20
-18.906
 21
-18.906
  0
LINE
  8
0
 10
58.594
 11
58.594
 20
-18.906
 21
-22.875
  0
LINE
  8
0
 10
58.594
 11
46.688
 20
-22.875
 21
-22.875
  0
LINE
  8
0
 10
46.688
 11
46.688
 20
-22.875
 21
-30.813
  0
LINE
  8
0
 10
46.688
 11
38.75
 20
-30.813
 21
-30.813
  0
LINE
  8
0
 10
38.75
 11
38.75
 20
-30.813
 21
-34.781
  0
LINE
  8
0
 10
38.75
 11
37.419
 20
-34.781
 21
-34.781
  0
LINE
  8
0
 10
37.419
 11
37.419
 20
-34.781
 21
-38.509
  0
LINE
  8
0
 10
37.419
 11
33.45
 20
-38.509
 21
-38.509
  0
LINE
  8
0
 10
33.45
 11
33.45
 20
-38.509
 21
-42.478
  0
LINE
  8
0
 10
33.45
 11
29.481
 20
-42.478
 21
-42.478
  0
LINE
  8
0
 10
31.797
 11
31.797
 20
-101.203
 21
-97.234
  0
LINE
  8
0
 10
31.797
 11
35.766
 20
-97.234
 21
-97.234
  0
LINE
  8
0
 10
35.766
 11
35.766
 20
-97.234
 21
-101.203
  0
LINE
  8
0
 10
35.766
 11
31.797
 20
-101.203
 21
-101.203
  0
LINE
  8
0
 10
31.797
 11
31.797
 20
-96.234
 21
-92.266
  0
LINE
  8
0
 10
31.797
 11
35.766
 20
-92.266
 21
-92.266
  0
LINE
  8
0
 10
35.766
 11
35.766
 20
-92.266
 21
-96.234
  0
LINE
  8
0
 10
35.766
 11
31.797
 20
-96.234
 21
-96.234
  0
LINE
  8
0
 10
31.797
 11
31.797
 20
-91.266
 21
-87.297
  0
LINE
  8
0
 10
31.797
 11
35.766
 20
-87.297
 21
-87.297
  0
LINE
  8
0
 10
35.766
 11
35.766
 20
-87.297
 21
-91.266
  0
LINE
  8
0
 10
35.766
 11
31.797
 20
-91.266
 21
-91.266
  0
LINE
  8
0
 10
31.797
 11
31.797
 20
-86.297
 21
-82.328
  0
LINE
  8
0
 10
31.797
 11
35.766
 20
-82.328
 21
-82.328
  0
LINE
  8
0
 10
35.766
 11
35.766
 20
-82.328
 21
-86.297
  0
LINE
  8
0
 10
35.766
 11
31.797
 20
-86.297
 21
-86.297
  0
LINE
  8
0
 10
31.797
 11
31.797
 20
-81.328
 21
-77.359
  0
LINE
  8
0
 10
31.797
 11
35.766
 20
-77.359
 21
-77.359
  0
LINE
  8
0
 10
35.766
 11
35.766
 20
-77.359
 21
-81.328
  0
LINE
  8
0
 10
35.766
 11
31.797
 20
-81.328
 21
-81.328
  0
LINE
  8
0
 10
31.797
 11
31.797
 20
-76.359
 21
-72.391
  0
LINE
  8
0
 10
31.797
 11
35.766
 20
-72.391
 21
-72.391
  0
LINE
  8
0
 10
35.766
 11
35.766
 20
-72.391
 21
-76.359
  0
LINE
  8
0
 10
35.766
 11
31.797
 20
-76.359
 21
-76.359
  0
LINE
  8
0
 10
31.797
 11
31.797
 20
-71.391
 21
-67.422
  0
LINE
  8
0
 10
31.797
 11
35.766
 20
-67.422
 21
-67.422
  0
LINE
  8
0
 10
35.766
 11
35.766
 20
-67.422
 21
-71.391
  0
LINE
  8
0
 10
35.766
 11
31.797
 20
-71.391
 21
-71.391
  0
LINE
  8
0
 10
31.797
 11
31.797
 20
-66.422
 21
-62.453
  0
LINE
  8
0
 10
31.797
 11
35.766
 20
-62.453
 21
-62.453
  0
LINE
  8
0
 10
35.766
 11
35.766
 20
-62.453
 21
-66.422
  0
LINE
  8
0
 10
35.766
 11
31.797
 20
-66.422
 21
-66.422
  0
LINE
  8
0
 10
34.147
 11
34.147
 20
1.969
 21
9.906
  0
LINE
  8
0
 10
34.147
 11
46.053
 20
9.906
 21
9.906
  0
LINE
  8
0
 10
46.053
 11
46.053
 20
9.906
 21
17.844
  0
LINE
  8
0
 10
46.053
 11
50.022
 20
17.844
 21
17.844
  0
LINE
  8
0
 10
50.022
 11
50.022
 20
17.844
 21
5.938
  0
LINE
  8
0
 10
50.022
 11
38.116
 20
5.938
 21
5.938
  0
LINE
  8
0
 10
38.116
 11
38.116
 20
5.938
 21
1.969
  0
LINE
  8
0
 10
38.116
 11
34.147
 20
1.969
 21
1.969
  0
LINE
  8
0
 10
34.45
 11
34.45
 20
-47.447
 21
-39.509
  0
LINE
  8
0
 10
34.45
 11
39.75
 20
-39.509
 21
-39.509
  0
LINE
  8
0
 10
39.75
 11
39.75
 20
-39.509
 21
-31.813
  0
LINE
  8
0
 10
39.75
 11
47.688
 20
-31.813
 21
-31.813
  0
LINE
  8
0
 10
47.688
 11
47.688
 20
-31.813
 21
-23.875
  0
LINE
  8
0
 10
47.688
 11
63.563
 20
-23.875
 21
-23.875
  0
LINE
  8
0
 10
63.563
 11
63.563
 20
-23.875
 21
-27.844
  0
LINE
  8
0
 10
63.563
 11
51.656
 20
-27.844
 21
-27.844
  0
LINE
  8
0
 10
51.656
 11
51.656
 20
-27.844
 21
-35.781
  0
LINE
  8
0
 10
51.656
 11
43.719
 20
-35.781
 21
-35.781
  0
LINE
  8
0
 10
43.719
 11
43.719
 20
-35.781
 21
-39.75
  0
LINE
  8
0
 10
43.719
 11
42.387
 20
-39.75
 21
-39.75
  0
LINE
  8
0
 10
42.387
 11
42.387
 20
-39.75
 21
-43.478
  0
LINE
  8
0
 10
42.387
 11
38.419
 20
-43.478
 21
-43.478
  0
LINE
  8
0
 10
38.419
 11
38.419
 20
-43.478
 21
-47.447
  0
LINE
  8
0
 10
38.419
 11
34.45
 20
-47.447
 21
-47.447
  0
LINE
  8
0
 10
36.766
 11
36.766
 20
-101.203
 21
-97.234
  0
LINE
  8
0
 10
36.766
 11
40.734
 20
-97.234
 21
-97.234
  0
LINE
  8
0
 10
40.734
 11
40.734
 20
-97.234
 21
-101.203
  0
LINE
  8
0
 10
40.734
 11
36.766
 20
-101.203
 21
-101.203
  0
LINE
  8
0
 10
36.766
 11
36.766
 20
-96.234
 21
-92.266
  0
LINE
  8
0
 10
36.766
 11
40.734
 20
-92.266
 21
-92.266
  0
LINE
  8
0
 10
40.734
 11
40.734
 20
-92.266
 21
-96.234
  0
LINE
  8
0
 10
40.734
 11
36.766
 20
-96.234
 21
-96.234
  0
LINE
  8
0
 10
36.766
 11
36.766
 20
-91.266
 21
-87.297
  0
LINE
  8
0
 10
36.766
 11
40.734
 20
-87.297
 21
-87.297
  0
LINE
  8
0
 10
40.734
 11
40.734
 20
-87.297
 21
-91.266
  0
LINE
  8
0
 10
40.734
 11
36.766
 20
-91.266
 21
-91.266
  0
LINE
  8
0
 10
36.766
 11
36.766
 20
-86.297
 21
-82.328
  0
LINE
  8
0
 10
36.766
 11
40.734
 20
-82.328
 21
-82.328
  0
LINE
  8
0
 10
40.734
 11
40.734
 20
-82.328
 21
-86.297
  0
LINE
  8
0
 10
40.734
 11
36.766
 20
-86.297
 21
-86.297
  0
LINE
  8
0
 10
36.766
 11
36.766
 20
-81.328
 21
-77.359
  0
LINE
  8
0
 10
36.766
 11
40.734
 20
-77.359
 21
-77.359
  0
LINE
  8
0
 10
40.734
 11
40.734
 20
-77.359
 21
-81.328
  0
LINE
  8
0
 10
40.734
 11
36.766
 20
-81.328
 21
-81.328
  0
LINE
  8
0
 10
36.766
 11
36.766
 20
-76.359
 21
-72.391
  0
LINE
  8
0
 10
36.766
 11
40.734
 20
-72.391
 21
-72.391
  0
LINE
  8
0
 10
40.734
 11
40.734
 20
-72.391
 21
-76.359
  0
LINE
  8
0
 10
40.734
 11
36.766
 20
-76.359
 21
-76.359
  0
LINE
  8
0
 10
36.766
 11
36.766
 20
-71.391
 21
-67.422
  0
LINE
  8
0
 10
36.766
 11
40.734
 20
-67.422
 21
-67.422
  0
LINE
  8
0
 10
40.734
 11
40.734
 20
-67.422
 21
-71.391
  0
LINE
  8
0
 10
40.734
 11
36.766
 20
-71.391
 21
-71.391
  0
LINE
  8
0
 10
36.766
 11
36.766
 20
-66.422
 21
-62.453
  0
LINE
  8
0
 10
36.766
 11
40.734
 20
-62.453
 21
-62.453
  0
LINE
  8
0
 10
40.734
 11
40.734
 20
-62.453
 21
-66.422
  0
LINE
  8
0
 10
40.734
 11
36.766
 20
-66.422
 21
-66.422
  0
LINE
  8
0
 10
39.116
 11
39.116
 20
-3
 21
4.938
  0
LINE
  8
0
 10
39.116
 11
51.022
 20
4.938
 21
4.938
  0
LINE
  8
0
 10
51.022
 11
51.022
 20
4.938
 21
12.875
  0
LINE
  8
0
 10
51.022
 11
54.991
 20
12.875
 21
12.875
  0
LINE
  8
0
 10
54.991
 11
54.991
 20
12.875
 21
0.969
  0
LINE
  8
0
 10
54.991
 11
43.084
 20
0.969
 21
0.969
  0
LINE
  8
0
 10
43.084
 11
43.084
 20
0.969
 21
-3
  0
LINE
  8
0
 10
43.084
 11
39.116
 20
-3
 21
-3
  0
LINE
  8
0
 10
39.419
 11
39.419
 20
-52.416
 21
-44.478
  0
LINE
  8
0
 10
39.419
 11
44.719
 20
-44.478
 21
-44.478
  0
LINE
  8
0
 10
44.719
 11
44.719
 20
-44.478
 21
-36.781
  0
LINE
  8
0
 10
44.719
 11
52.656
 20
-36.781
 21
-36.781
  0
LINE
  8
0
 10
52.656
 11
52.656
 20
-36.781
 21
-28.844
  0
LINE
  8
0
 10
52.656
 11
68.531
 20
-28.844
 21
-28.844
  0
LINE
  8
0
 10
68.531
 11
68.531
 20
-28.844
 21
-32.813
  0
LINE
  8
0
 10
68.531
 11
56.625
 20
-32.813
 21
-32.813
  0
LINE
  8
0
 10
56.625
 11
56.625
 20
-32.813
 21
-40.75
  0
LINE
  8
0
 10
56.625
 11
48.688
 20
-40.75
 21
-40.75
  0
LINE
  8
0
 10
48.688
 11
48.688
 20
-40.75
 21
-44.719
  0
LINE
  8
0
 10
48.688
 11
47.356
 20
-44.719
 21
-44.719
  0
LINE
  8
0
 10
47.356
 11
47.356
 20
-44.719
 21
-48.447
  0
LINE
  8
0
 10
47.356
 11
43.387
 20
-48.447
 21
-48.447
  0
LINE
  8
0
 10
43.387
 11
43.387
 20
-48.447
 21
-52.416
  0
LINE
  8
0
 10
43.387
 11
39.419
 20
-52.416
 21
-52.416
  0
LINE
  8
0
 10
41.734
 11
41.734
 20
-101.203
 21
-97.234
  0
LINE
  8
0
 10
41.734
 11
45.703
 20
-97.234
 21
-97.234
  0
LINE
  8
0
 10
45.703
 11
45.703
 20
-97.234
 21
-101.203
  0
LINE
  8
0
 10
45.703
 11
41.734
 20
-101.203
 21
-101.203
  0
LINE
  8
0
 10
41.734
 11
41.734
 20
-96.234
 21
-92.266
  0
LINE
  8
0
 10
41.734
 11
45.703
 20
-92.266
 21
-92.266
  0
LINE
  8
0
 10
45.703
 11
45.703
 20
-92.266
 21
-96.234
  0
LINE
  8
0
 10
45.703
 11
41.734
 20
-96.234
 21
-96.234
  0
LINE
  8
0
 10
41.734
 11
41.734
 20
-91.266
 21
-87.297
  0
LINE
  8
0
 10
41.734
 11
45.703
 20
-87.297
 21
-87.297
  0
LINE
  8
0
 10
45.703
 11
45.703
 20
-87.297
 21
-91.266
  0
LINE
  8
0
 10
45.703
 11
41.734
 20
-91.266
 21
-91.266
  0
LINE
  8
0
 10
41.734
 11
41.734
 20
-86.297
 21
-82.328
  0
LINE
  8
0
 10
41.734
 11
45.703
 20
-82.328
 21
-82.328
  0
LINE
  8
0
 10
45.703
 11
45.703
 20
-82.328
 21
-86.297
  0
LINE
  8
0
 10
45.703
 11
41.734
 20
-86.297
 21
-86.297
  0
LINE
  8
0
 10
41.734
 11
41.734
 20
-81.328
 21
-77.359
  0
LINE
  8
0
 10
41.734
 11
45.703
 20
-77.359
 21
-77.359
  0
LINE
  8
0
 10
45.703
 11
45.703
 20
-77.359
 21
-81.328
  0
LINE
  8
0
 10
45.703
 11
41.734
 20
-81.328
 21
-81.328
  0
LINE
  8
0
 10
41.734
 11
41.734
 20
-76.359
 21
-72.391
  0
LINE
  8
0
 10
41.734
 11
45.703
 20
-72.391
 21
-72.391
  0
LINE
  8
0
 10
45.703
 11
45.703
 20
-72.391
 21
-76.359
  0
LINE
  8
0
 10
45.703
 11
41.734
 20
-76.359
 21
-76.359
  0
LINE
  8
0
 10
41.734
 11
41.734
 20
-71.391
 21
-67.422
  0
LINE
  8
0
 10
41.734
 11
45.703
 20
-67.422
 21
-67.422
  0
LINE
  8
0
 10
45.703
 11
45.703
 20
-67.422
 21
-71.391
  0
LINE
  8
0
 10
45.703
 11
41.734
 20
-71.391
 21
-71.391
  0
LINE
  8
0
 10
41.734
 11
41.734
 20
-66.422
 21
-62.453
  0
LINE
  8
0
 10
41.734
 11
45.703
 20
-62.453
 21
-62.453
  0
LINE
  8
0
 10
45.703
 11
45.703
 20
-62.453
 21
-66.422
  0
LINE
  8
0
 10
45.703
 11
41.734
 20
-66.422
 21
-66.422
  0
LINE
  8
0
 10
44.084
 11
44.084
 20
-7.969
 21
-0.031
  0
LINE
  8
0
 10
44.084
 11
55.991
 20
-0.031
 21
-0.031
  0
LINE
  8
0
 10
55.991
 11
55.991
 20
-0.031
 21
7.906
  0
LINE
  8
0
 10
55.991
 11
59.959
 20
7.906
 21
7.906
  0
LINE
  8
0
 10
59.959
 11
59.959
 20
7.906
 21
-4
  0
LINE
  8
0
 10
59.959
 11
48.053
 20
-4
 21
-4
  0
LINE
  8
0
 10
48.053
 11
48.053
 20
-4
 21
-7.969
  0
LINE
  8
0
 10
48.053
 11
44.084
 20
-7.969
 21
-7.969
  0
LINE
  8
0
 10
44.387
 11
44.387
 20
-57.384
 21
-49.447
  0
LINE
  8
0
 10
44.387
 11
49.688
 20
-49.447
 21
-49.447
  0
LINE
  8
0
 10
49.688
 11
49.688
 20
-49.447
 21
-41.75
  0
LINE
  8
0
 10
49.688
 11
57.625
 20
-41.75
 21
-41.75
  0
LINE
  8
0
 10
57.625
 11
57.625
 20
-41.75
 21
-33.813
  0
LINE
  8
0
 10
57.625
 11
73.5
 20
-33.813
 21
-33.813
  0
LINE
  8
0
 10
73.5
 11
73.5
 20
-33.813
 21
-37.781
  0
LINE
  8
0
 10
73.5
 11
61.594
 20
-37.781
 21
-37.781
  0
LINE
  8
0
 10
61.594
 11
61.594
 20
-37.781
 21
-45.719
  0
LINE
  8
0
 10
61.594
 11
53.656
 20
-45.719
 21
-45.719
  0
LINE
  8
0
 10
53.656
 11
53.656
 20
-45.719
 21
-49.688
  0
LINE
  8
0
 10
53.656
 11
52.325
 20
-49.688
 21
-49.688
  0
LINE
  8
0
 10
52.325
 11
52.325
 20
-49.688
 21
-53.416
  0
LINE
  8
0
 10
52.325
 11
48.356
 20
-53.416
 21
-53.416
  0
LINE
  8
0
 10
48.356
 11
48.356
 20
-53.416
 21
-57.384
  0
LINE
  8
0
 10
48.356
 11
44.387
 20
-57.384
 21
-57.384
  0
LINE
  8
0
 10
46.703
 11
46.703
 20
-101.203
 21
-97.234
  0
LINE
  8
0
 10
46.703
 11
50.672
 20
-97.234
 21
-97.234
  0
LINE
  8
0
 10
50.672
 11
50.672
 20
-97.234
 21
-101.203
  0
LINE
  8
0
 10
50.672
 11
46.703
 20
-101.203
 21
-101.203
  0
LINE
  8
0
 10
46.703
 11
46.703
 20
-96.234
 21
-92.266
  0
LINE
  8
0
 10
46.703
 11
50.672
 20
-92.266
 21
-92.266
  0
LINE
  8
0
 10
50.672
 11
50.672
 20
-92.266
 21
-96.234
  0
LINE
  8
0
 10
50.672
 11
46.703
 20
-96.234
 21
-96.234
  0
LINE
  8
0
 10
46.703
 11
46.703
 20
-91.266
 21
-87.297
  0
LINE
  8
0
 10
46.703
 11
50.672
 20
-87.297
 21
-87.297
  0
LINE
  8
0
 10
50.672
 11
50.672
 20
-87.297
 21
-91.266
  0
LINE
  8
0
 10
50.672
 11
46.703
 20
-91.266
 21
-91.266
  0
LINE
  8
0
 10
46.703
 11
46.703
 20
-86.297
 21
-82.328
  0
LINE
  8
0
 10
46.703
 11
50.672
 20
-82.328
 21
-82.328
  0
LINE
  8
0
 10
50.672
 11
50.672
 20
-82.328
 21
-86.297
  0
LINE
  8
0
 10
50.672
 11
46.703
 20
-86.297
 21
-86.297
  0
LINE
  8
0
 10
46.703
 11
46.703
 20
-81.328
 21
-77.359
  0
LINE
  8
0
 10
46.703
 11
50.672
 20
-77.359
 21
-77.359
  0
LINE
  8
0
 10
50.672
 11
50.672
 20
-77.359
 21
-81.328
  0
LINE
  8
0
 10
50.672
 11
46.703
 20
-81.328
 21
-81.328
  0
LINE
  8
0
 10
46.703
 11
46.703
 20
-76.359
 21
-72.391
  0
LINE
  8
0
 10
46.703
 11
50.672
 20
-72.391
 21
-72.391
  0
LINE
  8
0
 10
50.672
 11
50.672
 20
-72.391
 21
-76.359
  0
LINE
  8
0
 10
50.672
 11
46.703
 20
-76.359
 21
-76.359
  0
LINE
  8
0
 10
46.703
 11
46.703
 20
-71.391
 21
-67.422
  0
LINE
  8
0
 10
46.703
 11
50.672
 20
-67.422
 21
-67.422
  0
LINE
  8
0
 10
50.672
 11
50.672
 20
-67.422
 21
-71.391
  0
LINE
  8
0
 10
50.672
 11
46.703
 20
-71.391
 21
-71.391
  0
LINE
  8
0
 10
46.703
 11
46.703
 20
-66.422
 21
-62.453
  0
LINE
  8
0
 10
46.703
 11
50.672
 20
-62.453
 21
-62.453
  0
LINE
  8
0
 10
50.672
 11
50.672
 20
-62.453
 21
-66.422
  0
LINE
  8
0
 10
50.672
 11
46.703
 20
-66.422
 21
-66.422
  0
LINE
  8
0
 10
49.053
 11
49.053
 20
-12.938
 21
-5
  0
LINE
  8
0
 10
49.053
 11
60.959
 20
-5
 21
-5
  0
LINE
  8
0
 10
60.959
 11
60.959
 20
-5
 21
2.938
  0
LINE
  8
0
 10
60.959
 11
64.928
 20
2.938
 21
2.938
  0
LINE
  8
0
 10
64.928
 11
64.928
 20
2.938
 21
-8.969
  0
LINE
  8
0
 10
64.928
 11
53.022
 20
-8.969
 21
-8.969
  0
LINE
  8
0
 10
53.022
 11
53.022
 20
-8.969
 21
-12.938
  0
LINE
  8
0
 10
53.022
 11
49.053
 20
-12.938
 21
-12.938
  0
LINE
  8
0
 10
49.356
 11
49.356
 20
-62.353
 21
-54.416
  0
LINE
  8
0
 10
49.356
 11
54.656
 20
-54.416
 21
-54.416
  0
LINE
  8
0
 10
54.656
 11
54.656
 20
-54.416
 21
-46.719
  0
LINE
  8
0
 10
54.656
 11
62.594
 20
-46.719
 21
-46.719
  0
LINE
  8
0
 10
62.594
 11
62.594
 20
-46.719
 21
-38.781
  0
LINE
  8
0
 10
62.594
 11
78.469
 20
-38.781
 21
-38.781
  0
LINE
  8
0
 10
78.469
 11
78.469
 20
-38.781
 21
-42.75
  0
LINE
  8
0
 10
78.469
 11
66.563
 20
-42.75
 21
-42.75
  0
LINE
  8
0
 10
66.563
 11
66.563
 20
-42.75
 21
-50.688
  0
LINE
  8
0
 10
66.563
 11
58.625
 20
-50.688
 21
-50.688
  0
LINE
  8
0
 10
58.625
 11
58.625
 20
-50.688
 21
-54.656
  0
LINE
  8
0
 10
58.625
 11
57.294
 20
-54.656
 21
-54.656
  0
LINE
  8
0
 10
57.294
 11
57.294
 20
-54.656
 21
-58.384
  0
LINE
  8
0
 10
57.294
 11
53.325
 20
-58.384
 21
-58.384
  0
LINE
  8
0
 10
53.325
 11
53.325
 20
-58.384
 21
-62.353
  0
LINE
  8
0
 10
53.325
 11
49.356
 20
-62.353
 21
-62.353
  0
LINE
  8
0
 10
54.022
 11
54.022
 20
-17.906
 21
-9.969
  0
LINE
  8
0
 10
54.022
 11
65.928
 20
-9.969
 21
-9.969
  0
LINE
  8
0
 10
65.928
 11
65.928
 20
-9.969
 21
-2.031
  0
LINE
  8
0
 10
65.928
 11
69.897
 20
-2.031
 21
-2.031
  0
LINE
  8
0
 10
69.897
 11
69.897
 20
-2.031
 21
-13.938
  0
LINE
  8
0
 10
69.897
 11
57.991
 20
-13.938
 21
-13.938
  0
LINE
  8
0
 10
57.991
 11
57.991
 20
-13.938
 21
-17.906
  0
LINE
  8
0
 10
57.991
 11
54.022
 20
-17.906
 21
-17.906
  0
LINE
  8
0
 10
54.325
 11
54.325
 20
-67.322
 21
-59.384
  0
LINE
  8
0
 10
54.325
 11
59.625
 20
-59.384
 21
-59.384
  0
LINE
  8
0
 10
59.625
 11
59.625
 20
-59.384
 21
-51.688
  0
LINE
  8
0
 10
59.625
 11
67.563
 20
-51.688
 21
-51.688
  0
LINE
  8
0
 10
67.563
 11
67.563
 20
-51.688
 21
-43.75
  0
LINE
  8
0
 10
67.563
 11
83.438
 20
-43.75
 21
-43.75
  0
LINE
  8
0
 10
83.438
 11
83.438
 20
-43.75
 21
-47.719
  0
LINE
  8
0
 10
83.438
 11
71.531
 20
-47.719
 21
-47.719
  0
LINE
  8
0
 10
71.531
 11
71.531
 20
-47.719
 21
-55.656
  0
LINE
  8
0
 10
71.531
 11
63.594
 20
-55.656
 21
-55.656
  0
LINE
  8
0
 10
63.594
 11
63.594
 20
-55.656
 21
-59.625
  0
LINE
  8
0
 10
63.594
 11
62.262
 20
-59.625
 21
-59.625
  0
LINE
  8
0
 10
62.262
 11
62.262
 20
-59.625
 21
-63.353
  0
LINE
  8
0
 10
62.262
 11
58.294
 20
-63.353
 21
-63.353
  0
LINE
  8
0
 10
58.294
 11
58.294
 20
-63.353
 21
-67.322
  0
LINE
  8
0
 10
58.294
 11
54.325
 20
-67.322
 21
-67.322
  0
LINE
  8
0
 10
58.991
 11
58.991
 20
-22.875
 21
-14.938
  0
LINE
  8
0
 10
58.991
 11
70.897
 20
-14.938
 21
-14.938
  0
LINE
  8
0
 10
70.897
 11
70.897
 20
-14.938
 21
-7
  0
LINE
  8
0
 10
70.897
 11
74.866
 20
-7
 21
-7
  0
LINE
  8
0
 10
74.866
 11
74.866
 20
-7
 21
-18.906
  0
LINE
  8
0
 10
74.866
 11
62.959
 20
-18.906
 21
-18.906
  0
LINE
  8
0
 10
62.959
 11
62.959
 20
-18.906
 21
-22.875
  0
LINE
  8
0
 10
62.959
 11
58.991
 20
-22.875
 21
-22.875
  0
LINE
  8
0
 10
59.294
 11
59.294
 20
-72.291
 21
-64.353
  0
LINE
  8
0
 10
59.294
 11
64.594
 20
-64.353
 21
-64.353
  0
LINE
  8
0
 10
64.594
 11
64.594
 20
-64.353
 21
-56.656
  0
LINE
  8
0
 10
64.594
 11
72.531
 20
-56.656
 21
-56.656
  0
LINE
  8
0
 10
72.531
 11
72.531
 20
-56.656
 21
-48.719
  0
LINE
  8
0
 10
72.531
 11
88.406
 20
-48.719
 21
-48.719
  0
LINE
  8
0
 10
88.406
 11
88.406
 20
-48.719
 21
-52.688
  0
LINE
  8
0
 10
88.406
 11
76.5
 20
-52.688
 21
-52.688
  0
LINE
  8
0
 10
76.5
 11
76.5
 20
-52.688
 21
-60.625
  0
LINE
  8
0
 10
76.5
 11
68.563
 20
-60.625
 21
-60.625
  0
LINE
  8
0
 10
68.563
 11
68.563
 20
-60.625
 21
-64.594
  0
LINE
  8
0
 10
68.563
 11
67.231
 20
-64.594
 21
-64.594
  0
LINE
  8
0
 10
67.231
 11
67.231
 20
-64.594
 21
-68.322
  0
LINE
  8
0
 10
67.231
 11
63.262
 20
-68.322
 21
-68.322
  0
LINE
  8
0
 10
63.262
 11
63.262
 20
-68.322
 21
-72.291
  0
LINE
  8
0
 10
63.262
 11
59.294
 20
-72.291
 21
-72.291
  0
LINE
  8
0
 10
63.959
 11
63.959
 20
-27.844
 21
-19.906
  0
LINE
  8
0
 10
63.959
 11
75.866
 20
-19.906
 21
-19.906
  0
LINE
  8
0
 10
75.866
 11
75.866
 20
-19.906
 21
-11.969
  0
LINE
  8
0
 10
75.866
 11
79.834
 20
-11.969
 21
-11.969
  0
LINE
  8
0
 10
79.834
 11
79.834
 20
-11.969
 21
-23.875
  0
LINE
  8
0
 10
79.834
 11
67.928
 20
-23.875
 21
-23.875
  0
LINE
  8
0
 10
67.928
 11
67.928
 20
-23.875
 21
-27.844
  0
LINE
  8
0
 10
67.928
 11
63.959
 20
-27.844
 21
-27.844
  0
LINE
  8
0
 10
64.263
 11
64.263
 20
-77.259
 21
-69.322
  0
LINE
  8
0
 10
64.263
 11
69.563
 20
-69.322
 21
-69.322
  0
LINE
  8
0
 10
69.563
 11
69.563
 20
-69.322
 21
-61.625
  0
LINE
  8
0
 10
69.563
 11
77.5
 20
-61.625
 21
-61.625
  0
LINE
  8
0
 10
77.5
 11
77.5
 20
-61.625
 21
-53.688
  0
LINE
  8
0
 10
77.5
 11
93.375
 20
-53.688
 21
-53.688
  0
LINE
  8
0
 10
93.375
 11
93.375
 20
-53.688
 21
-57.656
  0
LINE
  8
0
 10
93.375
 11
81.469
 20
-57.656
 21
-57.656
  0
LINE
  8
0
 10
81.469
 11
81.469
 20
-57.656
 21
-65.594
  0
LINE
  8
0
 10
81.469
 11
73.531
 20
-65.594
 21
-65.594
  0
LINE
  8
0
 10
73.531
 11
73.531
 20
-65.594
 21
-69.563
  0
LINE
  8
0
 10
73.531
 11
72.2
 20
-69.563
 21
-69.563
  0
LINE
  8
0
 10
72.2
 11
72.2
 20
-69.563
 21
-73.291
  0
LINE
  8
0
 10
72.2
 11
68.231
 20
-73.291
 21
-73.291
  0
LINE
  8
0
 10
68.231
 11
68.231
 20
-73.291
 21
-77.259
  0
LINE
  8
0
 10
68.231
 11
64.263
 20
-77.259
 21
-77.259
  0
LINE
  8
0
 10
68.928
 11
68.928
 20
-32.813
 21
-24.875
  0
LINE
  8
0
 10
68.928
 11
80.834
 20
-24.875
 21
-24.875
  0
LINE
  8
0
 10
80.834
 11
80.834
 20
-24.875
 21
-16.938
  0
LINE
  8
0
 10
80.834
 11
84.803
 20
-16.938
 21
-16.938
  0
LINE
  8
0
 10
84.803
 11
84.803
 20
-16.938
 21
-28.844
  0
LINE
  8
0
 10
84.803
 11
72.897
 20
-28.844
 21
-28.844
  0
LINE
  8
0
 10
72.897
 11
72.897
 20
-28.844
 21
-32.813
  0
LINE
  8
0
 10
72.897
 11
68.928
 20
-32.813
 21
-32.813
  0
LINE
  8
0
 10
69.231
 11
69.231
 20
-82.228
 21
-74.291
  0
LINE
  8
0
 10
69.231
 11
74.531
 20
-74.291
 21
-74.291
  0
LINE
  8
0
 10
74.531
 11
74.531
 20
-74.291
 21
-66.594
  0
LINE
  8
0
 10
74.531
 11
82.469
 20
-66.594
 21
-66.594
  0
LINE
  8
0
 10
82.469
 11
82.469
 20
-66.594
 21
-58.656
  0
LINE
  8
0
 10
82.469
 11
98.344
 20
-58.656
 21
-58.656
  0
LINE
  8
0
 10
98.344
 11
98.344
 20
-58.656
 21
-62.625
  0
LINE
  8
0
 10
98.344
 11
86.438
 20
-62.625
 21
-62.625
  0
LINE
  8
0
 10
86.438
 11
86.438
 20
-62.625
 21
-70.563
  0
LINE
  8
0
 10
86.438
 11
78.5
 20
-70.563
 21
-70.563
  0
LINE
  8
0
 10
78.5
 11
78.5
 20
-70.563
 21
-74.531
  0
LINE
  8
0
 10
78.5
 11
77.169
 20
-74.531
 21
-74.531
  0
LINE
  8
0
 10
77.169
 11
77.169
 20
-74.531
 21
-78.259
  0
LINE
  8
0
 10
77.169
 11
73.2
 20
-78.259
 21
-78.259
  0
LINE
  8
0
 10
73.2
 11
73.2
 20
-78.259
 21
-82.228
  0
LINE
  8
0
 10
73.2
 11
69.231
 20
-82.228
 21
-82.228
  0
LINE
  8
0
 10
73.897
 11
73.897
 20
-37.781
 21
-29.844
  0
LINE
  8
0
 10
73.897
 11
85.803
 20
-29.844
 21
-29.844
  0
LINE
  8
0
 10
85.803
 11
85.803
 20
-29.844
 21
-21.906
  0
LINE
  8
0
 10
85.803
 11
89.772
 20
-21.906
 21
-21.906
  0
LINE
  8
0
 10
89.772
 11
89.772
 20
-21.906
 21
-33.813
  0
LINE
  8
0
 10
89.772
 11
77.866
 20
-33.813
 21
-33.813
  0
LINE
  8
0
 10
77.866
 11
77.866
 20
-33.813
 21
-37.781
  0
LINE
  8
0
 10
77.866
 11
73.897
 20
-37.781
 21
-37.781
  0
LINE
  8
0
 10
74.2
 11
74.2
 20
-87.197
 21
-79.259
  0
LINE
  8
0
 10
74.2
 11
79.5
 20
-79.259
 21
-79.259
  0
LINE
  8
0
 10
79.5
 11
79.5
 20
-79.259
 21
-71.563
  0
LINE
  8
0
 10
79.5
 11
87.438
 20
-71.563
 21
-71.563
  0
LINE
  8
0
 10
87.438
 11
87.438
 20
-71.563
 21
-63.625
  0
LINE
  8
0
 10
87.438
 11
103.313
 20
-63.625
 21
-63.625
  0
LINE
  8
0
 10
103.313
 11
103.313
 20
-63.625
 21
-67.594
  0
LINE
  8
0
 10
103.313
 11
91.406
 20
-67.594
 21
-67.594
  0
LINE
  8
0
 10
91.406
 11
91.406
 20
-67.594
 21
-75.531
  0
LINE
  8
0
 10
91.406
 11
83.469
 20
-75.531
 21
-75.531
  0
LINE
  8
0
 10
83.469
 11
83.469
 20
-75.531
 21
-79.5
  0
LINE
  8
0
 10
83.469
 11
82.138
 20
-79.5
 21
-79.5
  0
LINE
  8
0
 10
82.138
 11
82.138
 20
-79.5
 21
-83.228
  0
LINE
  8
0
 10
82.138
 11
78.169
 20
-83.228
 21
-83.228
  0
LINE
  8
0
 10
78.169
 11
78.169
 20
-83.228
 21
-87.197
  0
LINE
  8
0
 10
78.169
 11
74.2
 20
-87.197
 21
-87.197
  0
LINE
  8
0
 10
78.866
 11
78.866
 20
-42.75
 21
-34.813
  0
LINE
  8
0
 10
78.866
 11
90.772
 20
-34.813
 21
-34.813
  0
LINE
  8
0
 10
90.772
 11
90.772
 20
-34.813
 21
-26.875
  0
LINE
  8
0
 10
90.772
 11
94.741
 20
-26.875
 21
-26.875
  0
LINE
  8
0
 10
94.741
 11
94.741
 20
-26.875
 21
-38.781
  0
LINE
  8
0
 10
94.741
 11
82.834
 20
-38.781
 21
-38.781
  0
LINE
  8
0
 10
82.834
 11
82.834
 20
-38.781
 21
-42.75
  0
LINE
  8
0
 10
82.834
 11
78.866
 20
-42.75
 21
-42.75
  0
LINE
  8
0
 10
79.169
 11
79.169
 20
-92.166
 21
-84.228
  0
LINE
  8
0
 10
79.169
 11
84.469
 20
-84.228
 21
-84.228
  0
LINE
  8
0
 10
84.469
 11
84.469
 20
-84.228
 21
-76.531
  0
LINE
  8
0
 10
84.469
 11
92.406
 20
-76.531
 21
-76.531
  0
LINE
  8
0
 10
92.406
 11
92.406
 20
-76.531
 21
-68.594
  0
LINE
  8
0
 10
92.406
 11
108.281
 20
-68.594
 21
-68.594
  0
LINE
  8
0
 10
108.281
 11
108.281
 20
-68.594
 21
-72.563
  0
LINE
  8
0
 10
108.281
 11
96.375
 20
-72.563
 21
-72.563
  0
LINE
  8
0
 10
96.375
 11
96.375
 20
-72.563
 21
-80.5
  0
LINE
  8
0
 10
96.375
 11
88.438
 20
-80.5
 21
-80.5
  0
LINE
  8
0
 10
88.438
 11
88.438
 20
-80.5
 21
-84.469
  0
LINE
  8
0
 10
88.438
 11
87.106
 20
-84.469
 21
-84.469
  0
LINE
  8
0
 10
87.106
 11
87.106
 20
-84.469
 21
-88.197
  0
LINE
  8
0
 10
87.106
 11
83.138
 20
-88.197
 21
-88.197
  0
LINE
  8
0
 10
83.138
 11
83.138
 20
-88.197
 21
-92.166
  0
LINE
  8
0
 10
83.138
 11
79.169
 20
-92.166
 21
-92.166
  0
LINE
  8
0
 10
83.834
 11
83.834
 20
-47.719
 21
-39.781
  0
LINE
  8
0
 10
83.834
 11
95.741
 20
-39.781
 21
-39.781
  0
LINE
  8
0
 10
95.741
 11
95.741
 20
-39.781
 21
-31.844
  0
LINE
  8
0
 10
95.741
 11
99.709
 20
-31.844
 21
-31.844
  0
LINE
  8
0
 10
99.709
 11
99.709
 20
-31.844
 21
-43.75
  0
LINE
  8
0
 10
99.709
 11
87.803
 20
-43.75
 21
-43.75
  0
LINE
  8
0
 10
87.803
 11
87.803
 20
-43.75
 21
-47.719
  0
LINE
  8
0
 10
87.803
 11
83.834
 20
-47.719
 21
-47.719
  0
LINE
  8
0
 10
84.138
 11
84.138
 20
-97.134
 21
-89.197
  0
LINE
  8
0
 10
84.138
 11
89.438
 20
-89.197
 21
-89.197
  0
LINE
  8
0
 10
89.438
 11
89.438
 20
-89.197
 21
-81.5
  0
LINE
  8
0
 10
89.438
 11
97.375
 20
-81.5
 21
-81.5
  0
LINE
  8
0
 10
97.375
 11
97.375
 20
-81.5
 21
-73.563
  0
LINE
  8
0
 10
97.375
 11
113.25
 20
-73.563
 21
-73.563
  0
LINE
  8
0
 10
113.25
 11
113.25
 20
-73.563
 21
-77.531
  0
LINE
  8
0
 10
113.25
 11
101.344
 20
-77.531
 21
-77.531
  0
LINE
  8
0
 10
101.344
 11
101.344
 20
-77.531
 21
-85.469
  0
LINE
  8
0
 10
101.344
 11
93.406
 20
-85.469
 21
-85.469
  0
LINE
  8
0
 10
93.406
 11
93.406
 20
-85.469
 21
-89.438
  0
LINE
  8
0
 10
93.406
 11
92.075
 20
-89.438
 21
-89.438
  0
LINE
  8
0
 10
92.075
 11
92.075
 20
-89.438
 21
-93.166
  0
LINE
  8
0
 10
92.075
 11
88.106
 20
-93.166
 21
-93.166
  0
LINE
  8
0
 10
88.106
 11
88.106
 20
-93.166
 21
-97.134
  0
LINE
  8
0
 10
88.106
 11
84.138
 20
-97.134
 21
-97.134
  0
LINE
  8
0
 10
85.328
 11
85.328
 20
-13.891
 21
-9.922
  0
LINE
  8
0
 10
85.328
 11
89.297
 20
-9.922
 21
-9.922
  0
LINE
  8
0
 10
89.297
 11
89.297
 20
-9.922
 21
-13.891
  0
LINE
  8
0
 10
89.297
 11
85.328
 20
-13.891
 21
-13.891
  0
LINE
  8
0
 10
85.328
 11
85.328
 20
-8.922
 21
-4.953
  0
LINE
  8
0
 10
85.328
 11
89.297
 20
-4.953
 21
-4.953
  0
LINE
  8
0
 10
89.297
 11
89.297
 20
-4.953
 21
-8.922
  0
LINE
  8
0
 10
89.297
 11
85.328
 20
-8.922
 21
-8.922
  0
LINE
  8
0
 10
85.328
 11
85.328
 20
-3.953
 21
0.016
  0
LINE
  8
0
 10
85.328
 11
89.297
 20
0.016
 21
0.016
  0
LINE
  8
0
 10
89.297
 11
89.297
 20
0.016
 21
-3.953
  0
LINE
  8
0
 10
89.297
 11
85.328
 20
-3.953
 21
-3.953
  0
LINE
  8
0
 10
85.328
 11
85.328
 20
1.016
 21
4.984
  0
LINE
  8
0
 10
85.328
 11
89.297
 20
4.984
 21
4.984
  0
LINE
  8
0
 10
89.297
 11
89.297
 20
4.984
 21
1.016
  0
LINE
  8
0
 10
89.297
 11
85.328
 20
1.016
 21
1.016
  0
LINE
  8
0
 10
85.328
 11
85.328
 20
5.984
 21
9.953
  0
LINE
  8
0
 10
85.328
 11
89.297
 20
9.953
 21
9.953
  0
LINE
  8
0
 10
89.297
 11
89.297
 20
9.953
 21
5.984
  0
LINE
  8
0
 10
89.297
 11
85.328
 20
5.984
 21
5.984
  0
LINE
  8
0
 10
85.328
 11
85.328
 20
10.953
 21
14.922
  0
LINE
  8
0
 10
85.328
 11
89.297
 20
14.922
 21
14.922
  0
LINE
  8
0
 10
89.297
 11
89.297
 20
14.922
 21
10.953
  0
LINE
  8
0
 10
89.297
 11
85.328
 20
10.953
 21
10.953
  0
LINE
  8
0
 10
85.328
 11
85.328
 20
15.922
 21
19.891
  0
LINE
  8
0
 10
85.328
 11
89.297
 20
19.891
 21
19.891
  0
LINE
  8
0
 10
89.297
 11
89.297
 20
19.891
 21
15.922
  0
LINE
  8
0
 10
89.297
 11
85.328
 20
15.922
 21
15.922
  0
LINE
  8
0
 10
85.328
 11
85.328
 20
20.891
 21
24.859
  0
LINE
  8
0
 10
85.328
 11
89.297
 20
24.859
 21
24.859
  0
LINE
  8
0
 10
89.297
 11
89.297
 20
24.859
 21
20.891
  0
LINE
  8
0
 10
89.297
 11
85.328
 20
20.891
 21
20.891
  0
LINE
  8
0
 10
88.803
 11
88.803
 20
-52.688
 21
-44.75
  0
LINE
  8
0
 10
88.803
 11
100.709
 20
-44.75
 21
-44.75
  0
LINE
  8
0
 10
100.709
 11
100.709
 20
-44.75
 21
-36.813
  0
LINE
  8
0
 10
100.709
 11
104.678
 20
-36.813
 21
-36.813
  0
LINE
  8
0
 10
104.678
 11
104.678
 20
-36.813
 21
-48.719
  0
LINE
  8
0
 10
104.678
 11
92.772
 20
-48.719
 21
-48.719
  0
LINE
  8
0
 10
92.772
 11
92.772
 20
-48.719
 21
-52.688
  0
LINE
  8
0
 10
92.772
 11
88.803
 20
-52.688
 21
-52.688
  0
LINE
  8
0
 10
90.297
 11
90.297
 20
-13.891
 21
-9.922
  0
LINE
  8
0
 10
90.297
 11
94.266
 20
-9.922
 21
-9.922
  0
LINE
  8
0
 10
94.266
 11
94.266
 20
-9.922
 21
-13.891
  0
LINE
  8
0
 10
94.266
 11
90.297
 20
-13.891
 21
-13.891
  0
LINE
  8
0
 10
90.297
 11
90.297
 20
-8.922
 21
-4.953
  0
LINE
  8
0
 10
90.297
 11
94.266
 20
-4.953
 21
-4.953
  0
LINE
  8
0
 10
94.266
 11
94.266
 20
-4.953
 21
-8.922
  0
LINE
  8
0
 10
94.266
 11
90.297
 20
-8.922
 21
-8.922
  0
LINE
  8
0
 10
90.297
 11
90.297
 20
-3.953
 21
0.016
  0
LINE
  8
0
 10
90.297
 11
94.266
 20
0.016
 21
0.016
  0
LINE
  8
0
 10
94.266
 11
94.266
 20
0.016
 21
-3.953
  0
LINE
  8
0
 10
94.266
 11
90.297
 20
-3.953
 21
-3.953
  0
LINE
  8
0
 10
90.297
 11
90.297
 20
1.016
 21
4.984
  0
LINE
  8
0
 10
90.297
 11
94.266
 20
4.984
 21
4.984
  0
LINE
  8
0
 10
94.266
 11
94.266
 20
4.984
 21
1.016
  0
LINE
  8
0
 10
94.266
 11
90.297
 20
1.016
 21
1.016
  0
LINE
  8
0
 10
90.297
 11
90.297
 20
5.984
 21
9.953
  0
LINE
  8
0
 10
90.297
 11
94.266
 20
9.953
 21
9.953
  0
LINE
  8
0
 10
94.266
 11
94.266
 20
9.953
 21
5.984
  0
LINE
  8
0
 10
94.266
 11
90.297
 20
5.984
 21
5.984
  0
LINE
  8
0
 10
90.297
 11
90.297
 20
10.953
 21
14.922
  0
LINE
  8
0
 10
90.297
 11
94.266
 20
14.922
 21
14.922
  0
LINE
  8
0
 10
94.266
 11
94.266
 20
14.922
 21
10.953
  0
LINE
  8
0
 10
94.266
 11
90.297
 20
10.953
 21
10.953
  0
LINE
  8
0
 10
90.297
 11
90.297
 20
15.922
 21
19.891
  0
LINE
  8
0
 10
90.297
 11
94.266
 20
19.891
 21
19.891
  0
LINE
  8
0
 10
94.266
 11
94.266
 20
19.891
 21
15.922
  0
LINE
  8
0
 10
94.266
 11
90.297
 20
15.922
 21
15.922
  0
LINE
  8
0
 10
90.297
 11
90.297
 20
20.891
 21
24.859
  0
LINE
  8
0
 10
90.297
 11
94.266
 20
24.859
 21
24.859
  0
LINE
  8
0
 10
94.266
 11
94.266
 20
24.859
 21
20.891
  0
LINE
  8
0
 10
94.266
 11
90.297
 20
20.891
 21
20.891
  0
LINE
  8
0
 10
93.772
 11
93.772
 20
-57.656
 21
-49.719
  0
LINE
  8
0
 10
93.772
 11
105.678
 20
-49.719
 21
-49.719
  0
LINE
  8
0
 10
105.678
 11
105.678
 20
-49.719
 21
-41.781
  0
LINE
  8
0
 10
105.678
 11
109.647
 20
-41.781
 21
-41.781
  0
LINE
  8
0
 10
109.647
 11
109.647
 20
-41.781
 21
-53.688
  0
LINE
  8
0
 10
109.647
 11
97.741
 20
-53.688
 21
-53.688
  0
LINE
  8
0
 10
97.741
 11
97.741
 20
-53.688
 21
-57.656
  0
LINE
  8
0
 10
97.741
 11
93.772
 20
-57.656
 21
-57.656
  0
LINE
  8
0
 10
94.406
 11
94.406
 20
-94.406
 21
-86.469
  0
LINE
  8
0
 10
94.406
 11
102.344
 20
-86.469
 21
-86.469
  0
LINE
  8
0
 10
102.344
 11
102.344
 20
-86.469
 21
-78.531
  0
LINE
  8
0
 10
102.344
 11
118.219
 20
-78.531
 21
-78.531
  0
LINE
  8
0
 10
118.219
 11
118.219
 20
-78.531
 21
-82.5
  0
LINE
  8
0
 10
118.219
 11
106.313
 20
-82.5
 21
-82.5
  0
LINE
  8
0
 10
106.313
 11
106.313
 20
-82.5
 21
-90.438
  0
LINE
  8
0
 10
106.313
 11
98.375
 20
-90.438
 21
-90.438
  0
LINE
  8
0
 10
98.375
 11
98.375
 20
-90.438
 21
-94.406
  0
LINE
  8
0
 10
98.375
 11
94.406
 20
-94.406
 21
-94.406
  0
LINE
  8
0
 10
95.266
 11
95.266
 20
-13.891
 21
-9.922
  0
LINE
  8
0
 10
95.266
 11
99.234
 20
-9.922
 21
-9.922
  0
LINE
  8
0
 10
99.234
 11
99.234
 20
-9.922
 21
-13.891
  0
LINE
  8
0
 10
99.234
 11
95.266
 20
-13.891
 21
-13.891
  0
LINE
  8
0
 10
95.266
 11
95.266
 20
-8.922
 21
-4.953
  0
LINE
  8
0
 10
95.266
 11
99.234
 20
-4.953
 21
-4.953
  0
LINE
  8
0
 10
99.234
 11
99.234
 20
-4.953
 21
-8.922
  0
LINE
  8
0
 10
99.234
 11
95.266
 20
-8.922
 21
-8.922
  0
LINE
  8
0
 10
95.266
 11
95.266
 20
-3.953
 21
0.016
  0
LINE
  8
0
 10
95.266
 11
99.234
 20
0.016
 21
0.016
  0
LINE
  8
0
 10
99.234
 11
99.234
 20
0.016
 21
-3.953
  0
LINE
  8
0
 10
99.234
 11
95.266
 20
-3.953
 21
-3.953
  0
LINE
  8
0
 10
95.266
 11
95.266
 20
1.016
 21
4.984
  0
LINE
  8
0
 10
95.266
 11
99.234
 20
4.984
 21
4.984
  0
LINE
  8
0
 10
99.234
 11
99.234
 20
4.984
 21
1.016
  0
LINE
  8
0
 10
99.234
 11
95.266
 20
1.016
 21
1.016
  0
LINE
  8
0
 10
95.266
 11
95.266
 20
5.984
 21
9.953
  0
LINE
  8
0
 10
95.266
 11
99.234
 20
9.953
 21
9.953
  0
LINE
  8
0
 10
99.234
 11
99.234
 20
9.953
 21
5.984
  0
LINE
  8
0
 10
99.234
 11
95.266
 20
5.984
 21
5.984
  0
LINE
  8
0
 10
95.266
 11
95.266
 20
10.953
 21
14.922
  0
LINE
  8
0
 10
95.266
 11
99.234
 20
14.922
 21
14.922
  0
LINE
  8
0
 10
99.234
 11
99.234
 20
14.922
 21
10.953
  0
LINE
  8
0
 10
99.234
 11
95.266
 20
10.953
 21
10.953
  0
LINE
  8
0
 10
95.266
 11
95.266
 20
15.922
 21
19.891
  0
LINE
  8
0
 10
95.266
 11
99.234
 20
19.891
 21
19.891
  0
LINE
  8
0
 10
99.234
 11
99.234
 20
19.891
 21
15.922
  0
LINE
  8
0
 10
99.234
 11
95.266
 20
15.922
 21
15.922
  0
LINE
  8
0
 10
95.266
 11
95.266
 20
20.891
 21
24.859
  0
LINE
  8
0
 10
95.266
 11
99.234
 20
24.859
 21
24.859
  0
LINE
  8
0
 10
99.234
 11
99.234
 20
24.859
 21
20.891
  0
LINE
  8
0
 10
99.234
 11
95.266
 20
20.891
 21
20.891
  0
LINE
  8
0
 10
98.741
 11
98.741
 20
-62.625
 21
-54.688
  0
LINE
  8
0
 10
98.741
 11
110.647
 20
-54.688
 21
-54.688
  0
LINE
  8
0
 10
110.647
 11
110.647
 20
-54.688
 21
-46.75
  0
LINE
  8
0
 10
110.647
 11
114.616
 20
-46.75
 21
-46.75
  0
LINE
  8
0
 10
114.616
 11
114.616
 20
-46.75
 21
-58.656
  0
LINE
  8
0
 10
114.616
 11
102.709
 20
-58.656
 21
-58.656
  0
LINE
  8
0
 10
102.709
 11
102.709
 20
-58.656
 21
-62.625
  0
LINE
  8
0
 10
102.709
 11
98.741
 20
-62.625
 21
-62.625
  0
LINE
  8
0
 10
100.234
 11
100.234
 20
-13.891
 21
-9.922
  0
LINE
  8
0
 10
100.234
 11
104.203
 20
-9.922
 21
-9.922
  0
LINE
  8
0
 10
104.203
 11
104.203
 20
-9.922
 21
-13.891
  0
LINE
  8
0
 10
104.203
 11
100.234
 20
-13.891
 21
-13.891
  0
LINE
  8
0
 10
100.234
 11
100.234
 20
-8.922
 21
-4.953
  0
LINE
  8
0
 10
100.234
 11
104.203
 20
-4.953
 21
-4.953
  0
LINE
  8
0
 10
104.203
 11
104.203
 20
-4.953
 21
-8.922
  0
LINE
  8
0
 10
104.203
 11
100.234
 20
-8.922
 21
-8.922
  0
LINE
  8
0
 10
100.234
 11
100.234
 20
-3.953
 21
0.016
  0
LINE
  8
0
 10
100.234
 11
104.203
 20
0.016
 21
0.016
  0
LINE
  8
0
 10
104.203
 11
104.203
 20
0.016
 21
-3.953
  0
LINE
  8
0
 10
104.203
 11
100.234
 20
-3.953
 21
-3.953
  0
LINE
  8
0
 10
100.234
 11
100.234
 20
1.016
 21
4.984
  0
LINE
  8
0
 10
100.234
 11
104.203
 20
4.984
 21
4.984
  0
LINE
  8
0
 10
104.203
 11
104.203
 20
4.984
 21
1.016
  0
LINE
  8
0
 10
104.203
 11
100.234
 20
1.016
 21
1.016
  0
LINE
  8
0
 10
100.234
 11
100.234
 20
5.984
 21
9.953
  0
LINE
  8
0
 10
100.234
 11
104.203
 20
9.953
 21
9.953
  0
LINE
  8
0
 10
104.203
 11
104.203
 20
9.953
 21
5.984
  0
LINE
  8
0
 10
104.203
 11
100.234
 20
5.984
 21
5.984
  0
LINE
  8
0
 10
100.234
 11
100.234
 20
10.953
 21
14.922
  0
LINE
  8
0
 10
100.234
 11
104.203
 20
14.922
 21
14.922
  0
LINE
  8
0
 10
104.203
 11
104.203
 20
14.922
 21
10.953
  0
LINE
  8
0
 10
104.203
 11
100.234
 20
10.953
 21
10.953
  0
LINE
  8
0
 10
100.234
 11
100.234
 20
15.922
 21
19.891
  0
LINE
  8
0
 10
100.234
 11
104.203
 20
19.891
 21
19.891
  0
LINE
  8
0
 10
104.203
 11
104.203
 20
19.891
 21
15.922
  0
LINE
  8
0
 10
104.203
 11
100.234
 20
15.922
 21
15.922
  0
LINE
  8
0
 10
100.234
 11
100.234
 20
20.891
 21
24.859
  0
LINE
  8
0
 10
100.234
 11
104.203
 20
24.859
 21
24.859
  0
LINE
  8
0
 10
104.203
 11
104.203
 20
24.859
 21
20.891
  0
LINE
  8
0
 10
104.203
 11
100.234
 20
20.891
 21
20.891
  0
LINE
  8
0
 10
103.709
 11
103.709
 20
-67.594
 21
-59.656
  0
LINE
  8
0
 10
103.709
 11
115.616
 20
-59.656
 21
-59.656
  0
LINE
  8
0
 10
115.616
 11
115.616
 20
-59.656
 21
-51.719
  0
LINE
  8
0
 10
115.616
 11
119.584
 20
-51.719
 21
-51.719
  0
LINE
  8
0
 10
119.584
 11
119.584
 20
-51.719
 21
-63.625
  0
LINE
  8
0
 10
119.584
 11
107.678
 20
-63.625
 21
-63.625
  0
LINE
  8
0
 10
107.678
 11
107.678
 20
-63.625
 21
-67.594
  0
LINE
  8
0
 10
107.678
 11
103.709
 20
-67.594
 21
-67.594
  0
LINE
  8
0
 10
105.203
 11
105.203
 20
-13.891
 21
-9.922
  0
LINE
  8
0
 10
105.203
 11
109.172
 20
-9.922
 21
-9.922
  0
LINE
  8
0
 10
109.172
 11
109.172
 20
-9.922
 21
-13.891
  0
LINE
  8
0
 10
109.172
 11
105.203
 20
-13.891
 21
-13.891
  0
LINE
  8
0
 10
105.203
 11
105.203
 20
-8.922
 21
-4.953
  0
LINE
  8
0
 10
105.203
 11
109.172
 20
-4.953
 21
-4.953
  0
LINE
  8
0
 10
109.172
 11
109.172
 20
-4.953
 21
-8.922
  0
LINE
  8
0
 10
109.172
 11
105.203
 20
-8.922
 21
-8.922
  0
LINE
  8
0
 10
105.203
 11
105.203
 20
-3.953
 21
0.016
  0
LINE
  8
0
 10
105.203
 11
109.172
 20
0.016
 21
0.016
  0
LINE
  8
0
 10
109.172
 11
109.172
 20
0.016
 21
-3.953
  0
LINE
  8
0
 10
109.172
 11
105.203
 20
-3.953
 21
-3.953
  0
LINE
  8
0
 10
105.203
 11
105.203
 20
1.016
 21
4.984
  0
LINE
  8
0
 10
105.203
 11
109.172
 20
4.984
 21
4.984
  0
LINE
  8
0
 10
109.172
 11
109.172
 20
4.984
 21
1.016
  0
LINE
  8
0
 10
109.172
 11
105.203
 20
1.016
 21
1.016
  0
LINE
  8
0
 10
105.203
 11
105.203
 20
5.984
 21
9.953
  0
LINE
  8
0
 10
105.203
 11
109.172
 20
9.953
 21
9.953
  0
LINE
  8
0
 10
109.172
 11
109.172
 20
9.953
 21
5.984
  0
LINE
  8
0
 10
109.172
 11
105.203
 20
5.984
 21
5.984
  0
LINE
  8
0
 10
105.203
 11
105.203
 20
10.953
 21
14.922
  0
LINE
  8
0
 10
105.203
 11
109.172
 20
14.922
 21
14.922
  0
LINE
  8
0
 10
109.172
 11
109.172
 20
14.922
 21
10.953
  0
LINE
  8
0
 10
109.172
 11
105.203
 20
10.953
 21
10.953
  0
LINE
  8
0
 10
105.203
 11
105.203
 20
15.922
 21
19.891
  0
LINE
  8
0
 10
105.203
 11
109.172
 20
19.891
 21
19.891
  0
LINE
  8
0
 10
109.172
 11
109.172
 20
19.891
 21
15.922
  0
LINE
  8
0
 10
109.172
 11
105.203
 20
15.922
 21
15.922
  0
LINE
  8
0
 10
105.203
 11
105.203
 20
20.891
 21
24.859
  0
LINE
  8
0
 10
105.203
 11
109.172
 20
24.859
 21
24.859
  0
LINE
  8
0
 10
109.172
 11
109.172
 20
24.859
 21
20.891
  0
LINE
  8
0
 10
109.172
 11
105.203
 20
20.891
 21
20.891
  0
LINE
  8
0
 10
108.678
 11
108.678
 20
-72.563
 21
-64.625
  0
LINE
  8
0
 10
108.678
 11
120.584
 20
-64.625
 21
-64.625
  0
LINE
  8
0
 10
120.584
 11
120.584
 20
-64.625
 21
-56.688
  0
LINE
  8
0
 10
120.584
 11
124.553
 20
-56.688
 21
-56.688
  0
LINE
  8
0
 10
124.553
 11
124.553
 20
-56.688
 21
-68.594
  0
LINE
  8
0
 10
124.553
 11
112.647
 20
-68.594
 21
-68.594
  0
LINE
  8
0
 10
112.647
 11
112.647
 20
-68.594
 21
-72.563
  0
LINE
  8
0
 10
112.647
 11
108.678
 20
-72.563
 21
-72.563
  0
LINE
  8
0
 10
110.172
 11
110.172
 20
-13.891
 21
-9.922
  0
LINE
  8
0
 10
110.172
 11
114.141
 20
-9.922
 21
-9.922
  0
LINE
  8
0
 10
114.141
 11
114.141
 20
-9.922
 21
-13.891
  0
LINE
  8
0
 10
114.141
 11
110.172
 20
-13.891
 21
-13.891
  0
LINE
  8
0
 10
110.172
 11
110.172
 20
-8.922
 21
-4.953
  0
LINE
  8
0
 10
110.172
 11
114.141
 20
-4.953
 21
-4.953
  0
LINE
  8
0
 10
114.141
 11
114.141
 20
-4.953
 21
-8.922
  0
LINE
  8
0
 10
114.141
 11
110.172
 20
-8.922
 21
-8.922
  0
LINE
  8
0
 10
110.172
 11
110.172
 20
-3.953
 21
0.016
  0
LINE
  8
0
 10
110.172
 11
114.141
 20
0.016
 21
0.016
  0
LINE
  8
0
 10
114.141
 11
114.141
 20
0.016
 21
-3.953
  0
LINE
  8
0
 10
114.141
 11
110.172
 20
-3.953
 21
-3.953
  0
LINE
  8
0
 10
110.172
 11
110.172
 20
1.016
 21
4.984
  0
LINE
  8
0
 10
110.172
 11
114.141
 20
4.984
 21
4.984
  0
LINE
  8
0
 10
114.141
 11
114.141
 20
4.984
 21
1.016
  0
LINE
  8
0
 10
114.141
 11
110.172
 20
1.016
 21
1.016
  0
LINE
  8
0
 10
110.172
 11
110.172
 20
5.984
 21
9.953
  0
LINE
  8
0
 10
110.172
 11
114.141
 20
9.953
 21
9.953
  0
LINE
  8
0
 10
114.141
 11
114.141
 20
9.953
 21
5.984
  0
LINE
  8
0
 10
114.141
 11
110.172
 20
5.984
 21
5.984
  0
LINE
  8
0
 10
110.172
 11
110.172
 20
10.953
 21
14.922
  0
LINE
  8
0
 10
110.172
 11
114.141
 20
14.922
 21
14.922
  0
LINE
  8
0
 10
114.141
 11
114.141
 20
14.922
 21
10.953
  0
LINE
  8
0
 10
114.141
 11
110.172
 20
10.953
 21
10.953
  0
LINE
  8
0
 10
110.172
 11
110.172
 20
15.922
 21
19.891
  0
LINE
  8
0
 10
110.172
 11
114.141
 20
19.891
 21
19.891
  0
LINE
  8
0
 10
114.141
 11
114.141
 20
19.891
 21
15.922
  0
LINE
  8
0
 10
114.141
 11
110.172
 20
15.922
 21
15.922
  0
LINE
  8
0
 10
110.172
 11
110.172
 20
20.891
 21
24.859
  0
LINE
  8
0
 10
110.172
 11
114.141
 20
24.859
 21
24.859
  0
LINE
  8
0
 10
114.141
 11
114.141
 20
24.859
 21
20.891
  0
LINE
  8
0
 10
114.141
 11
110.172
 20
20.891
 21
20.891
  0
LINE
  8
0
 10
113.647
 11
113.647
 20
-77.531
 21
-69.594
  0
LINE
  8
0
 10
113.647
 11
125.553
 20
-69.594
 21
-69.594
  0
LINE
  8
0
 10
125.553
 11
125.553
 20
-69.594
 21
-61.656
  0
LINE
  8
0
 10
125.553
 11
129.522
 20
-61.656
 21
-61.656
  0
LINE
  8
0
 10
129.522
 11
129.522
 20
-61.656
 21
-73.563
  0
LINE
  8
0
 10
129.522
 11
117.616
 20
-73.563
 21
-73.563
  0
LINE
  8
0
 10
117.616
 11
117.616
 20
-73.563
 21
-77.531
  0
LINE
  8
0
 10
117.616
 11
113.647
 20
-77.531
 21
-77.531
  0
LINE
  8
0
 10
115.141
 11
115.141
 20
-13.891
 21
-9.922
  0
LINE
  8
0
 10
115.141
 11
119.109
 20
-9.922
 21
-9.922
  0
LINE
  8
0
 10
119.109
 11
119.109
 20
-9.922
 21
-13.891
  0
LINE
  8
0
 10
119.109
 11
115.141
 20
-13.891
 21
-13.891
  0
LINE
  8
0
 10
115.141
 11
115.141
 20
-8.922
 21
-4.953
  0
LINE
  8
0
 10
115.141
 11
119.109
 20
-4.953
 21
-4.953
  0
LINE
  8
0
 10
119.109
 11
119.109
 20
-4.953
 21
-8.922
  0
LINE
  8
0
 10
119.109
 11
115.141
 20
-8.922
 21
-8.922
  0
LINE
  8
0
 10
115.141
 11
115.141
 20
-3.953
 21
0.016
  0
LINE
  8
0
 10
115.141
 11
119.109
 20
0.016
 21
0.016
  0
LINE
  8
0
 10
119.109
 11
119.109
 20
0.016
 21
-3.953
  0
LINE
  8
0
 10
119.109
 11
115.141
 20
-3.953
 21
-3.953
  0
LINE
  8
0
 10
115.141
 11
115.141
 20
1.016
 21
4.984
  0
LINE
  8
0
 10
115.141
 11
119.109
 20
4.984
 21
4.984
  0
LINE
  8
0
 10
119.109
 11
119.109
 20
4.984
 21
1.016
  0
LINE
  8
0
 10
119.109
 11
115.141
 20
1.016
 21
1.016
  0
LINE
  8
0
 10
115.141
 11
115.141
 20
5.984
 21
9.953
  0
LINE
  8
0
 10
115.141
 11
119.109
 20
9.953
 21
9.953
  0
LINE
  8
0
 10
119.109
 11
119.109
 20
9.953
 21
5.984
  0
LINE
  8
0
 10
119.109
 11
115.141
 20
5.984
 21
5.984
  0
LINE
  8
0
 10
115.141
 11
115.141
 20
10.953
 21
14.922
  0
LINE
  8
0
 10
115.141
 11
119.109
 20
14.922
 21
14.922
  0
LINE
  8
0
 10
119.109
 11
119.109
 20
14.922
 21
10.953
  0
LINE
  8
0
 10
119.109
 11
115.141
 20
10.953
 21
10.953
  0
LINE
  8
0
 10
115.141
 11
115.141
 20
15.922
 21
19.891
  0
LINE
  8
0
 10
115.141
 11
119.109
 20
19.891
 21
19.891
  0
LINE
  8
0
 10
119.109
 11
119.109
 20
19.891
 21
15.922
  0
LINE
  8
0
 10
119.109
 11
115.141
 20
15.922
 21
15.922
  0
LINE
  8
0
 10
115.141
 11
115.141
 20
20.891
 21
24.859
  0
LINE
  8
0
 10
115.141
 11
119.109
 20
24.859
 21
24.859
  0
LINE
  8
0
 10
119.109
 11
119.109
 20
24.859
 21
20.891
  0
LINE
  8
0
 10
119.109
 11
115.141
 20
20.891
 21
20.891
  0
LINE
  8
0
 10
118.616
 11
118.616
 20
-82.5
 21
-74.563
  0
LINE
  8
0
 10
118.616
 11
130.522
 20
-74.563
 21
-74.563
  0
LINE
  8
0
 10
130.522
 11
130.522
 20
-74.563
 21
-66.625
  0
LINE
  8
0
 10
130.522
 11
134.491
 20
-66.625
 21
-66.625
  0
LINE
  8
0
 10
134.491
 11
134.491
 20
-66.625
 21
-78.531
  0
LINE
  8
0
 10
134.491
 11
122.584
 20
-78.531
 21
-78.531
  0
LINE
  8
0
 10
122.584
 11
122.584
 20
-78.531
 21
-82.5
  0
LINE
  8
0
 10
122.584
 11
118.616
 20
-82.5
 21
-82.5
  0
LINE
  8
0
 10
120.109
 11
120.109
 20
-13.891
 21
-9.922
  0
LINE
  8
0
 10
120.109
 11
124.078
 20
-9.922
 21
-9.922
  0
LINE
  8
0
 10
124.078
 11
124.078
 20
-9.922
 21
-13.891
  0
LINE
  8
0
 10
124.078
 11
120.109
 20
-13.891
 21
-13.891
  0
LINE
  8
0
 10
120.109
 11
120.109
 20
-8.922
 21
-4.953
  0
LINE
  8
0
 10
120.109
 11
124.078
 20
-4.953
 21
-4.953
  0
LINE
  8
0
 10
124.078
 11
124.078
 20
-4.953
 21
-8.922
  0
LINE
  8
0
 10
124.078
 11
120.109
 20
-8.922
 21
-8.922
  0
LINE
  8
0
 10
120.109
 11
120.109
 20
-3.953
 21
0.016
  0
LINE
  8
0
 10
120.109
 11
124.078
 20
0.016
 21
0.016
  0
LINE
  8
0
 10
124.078
 11
124.078
 20
0.016
 21
-3.953
  0
LINE
  8
0
 10
124.078
 11
120.109
 20
-3.953
 21
-3.953
  0
LINE
  8
0
 10
120.109
 11
120.109
 20
1.016
 21
4.984
  0
LINE
  8
0
 10
120.109
 11
124.078
 20
4.984
 21
4.984
  0
LINE
  8
0
 10
124.078
 11
124.078
 20
4.984
 21
1.016
  0
LINE
  8
0
 10
124.078
 11
120.109
 20
1.016
 21
1.016
  0
LINE
  8
0
 10
120.109
 11
120.109
 20
5.984
 21
9.953
  0
LINE
  8
0
 10
120.109
 11
124.078
 20
9.953
 21
9.953
  0
LINE
  8
0
 10
124.078
 11
124.078
 20
9.953
 21
5.984
  0
LINE
  8
0
 10
124.078
 11
120.109
 20
5.984
 21
5.984
  0
LINE
  8
0
 10
120.109
 11
120.109
 20
10.953
 21
14.922
  0
LINE
  8
0
 10
120.109
 11
124.078
 20
14.922
 21
14.922
  0
LINE
  8
0
 10
124.078
 11
124.078
 20
14.922
 21
10.953
  0
LINE
  8
0
 10
124.078
 11
120.109
 20
10.953
 21
10.953
  0
LINE
  8
0
 10
120.109
 11
120.109
 20
15.922
 21
19.891
  0
LINE
  8
0
 10
120.109
 11
124.078
 20
19.891
 21
19.891
  0
LINE
  8
0
 10
124.078
 11
124.078
 20
19.891
 21
15.922
  0
LINE
  8
0
 10
124.078
 11
120.109
 20
15.922
 21
15.922
  0
LINE
  8
0
 10
120.109
 11
120.109
 20
20.891
 21
24.859
  0
LINE
  8
0
 10
120.109
 11
124.078
 20
24.859
 21
24.859
  0
LINE
  8
0
 10
124.078
 11
124.078
 20
24.859
 21
20.891
  0
LINE
  8
0
 10
124.078
 11
120.109
 20
20.891
 21
20.891
  0
LINE
  8
0
 10
125.078
 11
125.078
 20
-13.891
 21
-9.922
  0
LINE
  8
0
 10
125.078
 11
129.047
 20
-9.922
 21
-9.922
  0
LINE
  8
0
 10
129.047
 11
129.047
 20
-9.922
 21
-13.891
  0
LINE
  8
0
 10
129.047
 11
125.078
 20
-13.891
 21
-13.891
  0
LINE
  8
0
 10
125.078
 11
125.078
 20
-8.922
 21
-4.953
  0
LINE
  8
0
 10
125.078
 11
129.047
 20
-4.953
 21
-4.953
  0
LINE
  8
0
 10
129.047
 11
129.047
 20
-4.953
 21
-8.922
  0
LINE
  8
0
 10
129.047
 11
125.078
 20
-8.922
 21
-8.922
  0
LINE
  8
0
 10
125.078
 11
125.078
 20
-3.953
 21
0.016
  0
LINE
  8
0
 10
125.078
 11
129.047
 20
0.016
 21
0.016
  0
LINE
  8
0
 10
129.047
 11
129.047
 20
0.016
 21
-3.953
  0
LINE
  8
0
 10
129.047
 11
125.078
 20
-3.953
 21
-3.953
  0
LINE
  8
0
 10
125.078
 11
125.078
 20
1.016
 21
4.984
  0
LINE
  8
0
 10
125.078
 11
129.047
 20
4.984
 21
4.984
  0
LINE
  8
0
 10
129.047
 11
129.047
 20
4.984
 21
1.016
  0
LINE
  8
0
 10
129.047
 11
125.078
 20
1.016
 21
1.016
  0
LINE
  8
0
 10
125.078
 11
125.078
 20
5.984
 21
9.953
  0
LINE
  8
0
 10
125.078
 11
129.047
 20
9.953
 21
9.953
  0
LINE
  8
0
 10
129.047
 11
129.047
 20
9.953
 21
5.984
  0
LINE
  8
0
 10
129.047
 11
125.078
 20
5.984
 21
5.984
  0
LINE
  8
0
 10
125.078
 11
125.078
 20
10.953
 21
14.922
  0
LINE
  8
0
 10
125.078
 11
129.047
 20
14.922
 21
14.922
  0
LINE
  8
0
 10
129.047
 11
129.047
 20
14.922
 21
10.953
  0
LINE
  8
0
 10
129.047
 11
125.078
 20
10.953
 21
10.953
  0
LINE
  8
0
 10
125.078
 11
125.078
 20
15.922
 21
19.891
  0
LINE
  8
0
 10
125.078
 11
129.047
 20
19.891
 21
19.891
  0
LINE
  8
0
 10
129.047
 11
129.047
 20
19.891
 21
15.922
  0
LINE
  8
0
 10
129.047
 11
125.078
 20
15.922
 21
15.922
  0
LINE
  8
0
 10
125.078
 11
125.078
 20
20.891
 21
24.859
  0
LINE
  8
0
 10
125.078
 11
129.047
 20
24.859
 21
24.859
  0
LINE
  8
0
 10
129.047
 11
129.047
 20
24.859
 21
20.891
  0
LINE
  8
0
 10
129.047
 11
125.078
 20
20.891
 21
20.891
  0
LINE
  8
0
 10
130.047
 11
130.047
 20
-13.891
 21
-9.922
  0
LINE
  8
0
 10
130.047
 11
134.016
 20
-9.922
 21
-9.922
  0
LINE
  8
0
 10
134.016
 11
134.016
 20
-9.922
 21
-13.891
  0
LINE
  8
0
 10
134.016
 11
130.047
 20
-13.891
 21
-13.891
  0
LINE
  8
0
 10
130.047
 11
130.047
 20
-8.922
 21
-4.953
  0
LINE
  8
0
 10
130.047
 11
134.016
 20
-4.953
 21
-4.953
  0
LINE
  8
0
 10
134.016
 11
134.016
 20
-4.953
 21
-8.922
  0
LINE
  8
0
 10
134.016
 11
130.047
 20
-8.922
 21
-8.922
  0
LINE
  8
0
 10
130.047
 11
130.047
 20
-3.953
 21
0.016
  0
LINE
  8
0
 10
130.047
 11
134.016
 20
0.016
 21
0.016
  0
LINE
  8
0
 10
134.016
 11
134.016
 20
0.016
 21
-3.953
  0
LINE
  8
0
 10
134.016
 11
130.047
 20
-3.953
 21
-3.953
  0
LINE
  8
0
 10
130.047
 11
130.047
 20
1.016
 21
4.984
  0
LINE
  8
0
 10
130.047
 11
134.016
 20
4.984
 21
4.984
  0
LINE
  8
0
 10
134.016
 11
134.016
 20
4.984
 21
1.016
  0
LINE
  8
0
 10
134.016
 11
130.047
 20
1.016
 21
1.016
  0
LINE
  8
0
 10
130.047
 11
130.047
 20
5.984
 21
9.953
  0
LINE
  8
0
 10
130.047
 11
134.016
 20
9.953
 21
9.953
  0
LINE
  8
0
 10
134.016
 11
134.016
 20
9.953
 21
5.984
  0
LINE
  8
0
 10
134.016
 11
130.047
 20
5.984
 21
5.984
  0
LINE
  8
0
 10
130.047
 11
130.047
 20
10.953
 21
14.922
  0
LINE
  8
0
 10
130.047
 11
134.016
 20
14.922
 21
14.922
  0
LINE
  8
0
 10
134.016
 11
134.016
 20
14.922
 21
10.953
  0
LINE
  8
0
 10
134.016
 11
130.047
 20
10.953
 21
10.953
  0
LINE
  8
0
 10
130.047
 11
130.047
 20
15.922
 21
19.891
  0
LINE
  8
0
 10
130.047
 11
134.016
 20
19.891
 21
19.891
  0
LINE
  8
0
 10
134.016
 11
134.016
 20
19.891
 21
15.922
  0
LINE
  8
0
 10
134.016
 11
130.047
 20
15.922
 21
15.922
  0
LINE
  8
0
 10
130.047
 11
130.047
 20
20.891
 21
24.859
  0
LINE
  8
0
 10
130.047
 11
134.016
 20
24.859
 21
24.859
  0
LINE
  8
0
 10
134.016
 11
134.016
 20
24.859
 21
20.891
  0
LINE
  8
0
 10
134.016
 11
130.047
 20
20.891
 21
20.891
  0
ENDSEC
  0
SECTION
  2
OBJECTS
  0
DICTIONARY
  0
ENDSEC
  0
EOF
