  0
SECTION
  2
BLOCKS
  0
ENDSEC
  0
SECTION
  2
ENTITIES
  0
LINE
  8
0
 10
-42.862
 11
-42.862
 20
42.862
 21
61.912
  0
LINE
  8
0
 10
-42.862
 11
-23.813
 20
61.912
 21
61.912
  0
LINE
  8
0
 10
-23.813
 11
-23.813
 20
61.912
 21
80.962
  0
LINE
  8
0
 10
-23.813
 11
14.288
 20
80.962
 21
80.962
  0
LINE
  8
0
 10
14.288
 11
14.288
 20
80.962
 21
71.438
  0
LINE
  8
0
 10
14.288
 11
-14.288
 20
71.438
 21
71.438
  0
LINE
  8
0
 10
-14.288
 11
-14.288
 20
71.438
 21
52.387
  0
LINE
  8
0
 10
-14.288
 11
-33.338
 20
52.387
 21
52.387
  0
LINE
  8
0
 10
-33.338
 11
-33.338
 20
52.387
 21
42.862
  0
LINE
  8
0
 10
-33.338
 11
-42.862
 20
42.862
 21
42.862
  0
LINE
  8
0
 10
-41.1
 11
-41.1
 20
3
 21
22.05
  0
LINE
  8
0
 10
-41.1
 11
-22.05
 20
22.05
 21
22.05
  0
LINE
  8
0
 10
-22.05
 11
-22.05
 20
22.05
 21
12.525
  0
LINE
  8
0
 10
-22.05
 11
-31.575
 20
12.525
 21
12.525
  0
LINE
  8
0
 10
-31.575
 11
-31.575
 20
12.525
 21
3
  0
LINE
  8
0
 10
-31.575
 11
-41.1
 20
3
 21
3
  0
LINE
  8
0
 10
-32.337
 11
-32.337
 20
32.337
 21
51.387
  0
LINE
  8
0
 10
-32.337
 11
-13.288
 20
51.387
 21
51.387
  0
LINE
  8
0
 10
-13.288
 11
-13.288
 20
51.387
 21
70.438
  0
LINE
  8
0
 10
-13.288
 11
24.813
 20
70.438
 21
70.438
  0
LINE
  8
0
 10
24.813
 11
24.813
 20
70.438
 21
60.912
  0
LINE
  8
0
 10
24.813
 11
-3.762
 20
60.912
 21
60.912
  0
LINE
  8
0
 10
-3.762
 11
-3.762
 20
60.912
 21
41.862
  0
LINE
  8
0
 10
-3.762
 11
-22.813
 20
41.862
 21
41.862
  0
LINE
  8
0
 10
-22.813
 11
-22.813
 20
41.862
 21
32.337
  0
LINE
  8
0
 10
-22.813
 11
-32.337
 20
32.337
 21
32.337
  0
LINE
  8
0
 10
-30.575
 11
-30.575
 20
-7.525
 21
11.525
  0
LINE
  8
0
 10
-30.575
 11
-11.525
 20
11.525
 21
11.525
  0
LINE
  8
0
 10
-11.525
 11
-11.525
 20
11.525
 21
2
  0
LINE
  8
0
 10
-11.525
 11
-21.05
 20
2
 21
2
  0
LINE
  8
0
 10
-21.05
 11
-21.05
 20
2
 21
-7.525
  0
LINE
  8
0
 10
-21.05
 11
-30.575
 20
-7.525
 21
-7.525
  0
LINE
  8
0
 10
-21.813
 11
-21.813
 20
21.813
 21
40.862
  0
LINE
  8
0
 10
-21.813
 11
-2.762
 20
40.862
 21
40.862
  0
LINE
  8
0
 10
-2.762
 11
-2.762
 20
40.862
 21
59.912
  0
LINE
  8
0
 10
-2.762
 11
35.338
 20
59.912
 21
59.912
  0
LINE
  8
0
 10
35.338
 11
35.338
 20
59.912
 21
50.387
  0
LINE
  8
0
 10
35.338
 11
6.762
 20
50.387
 21
50.387
  0
LINE
  8
0
 10
6.762
 11
6.762
 20
50.387
 21
31.337
  0
LINE
  8
0
 10
6.762
 11
-12.288
 20
31.337
 21
31.337
  0
LINE
  8
0
 10
-12.288
 11
-12.288
 20
31.337
 21
21.813
  0
LINE
  8
0
 10
-12.288
 11
-21.813
 20
21.813
 21
21.813
  0
LINE
  8
0
 10
-20.05
 11
-20.05
 20
-18.05
 21
1
  0
LINE
  8
0
 10
-20.05
 11
-1
 20
1
 21
1
  0
LINE
  8
0
 10
-1
 11
-1
 20
1
 21
-8.525
  0
LINE
  8
0
 10
-1
 11
-10.525
 20
-8.525
 21
-8.525
  0
LINE
  8
0
 10
-10.525
 11
-10.525
 20
-8.525
 21
-18.05
  0
LINE
  8
0
 10
-10.525
 11
-20.05
 20
-18.05
 21
-18.05
  0
LINE
  8
0
 10
-11.288
 11
-11.288
 20
11.288
 21
30.337
  0
LINE
  8
0
 10
-11.288
 11
7.762
 20
30.337
 21
30.337
  0
LINE
  8
0
 10
7.762
 11
7.762
 20
30.337
 21
49.387
  0
LINE
  8
0
 10
7.762
 11
45.862
 20
49.387
 21
49.387
  0
LINE
  8
0
 10
45.862
 11
45.862
 20
49.387
 21
39.862
  0
LINE
  8
0
 10
45.862
 11
17.287
 20
39.862
 21
39.862
  0
LINE
  8
0
 10
17.287
 11
17.287
 20
39.862
 21
20.813
  0
LINE
  8
0
 10
17.287
 11
-1.763
 20
20.813
 21
20.813
  0
LINE
  8
0
 10
-1.763
 11
-1.763
 20
20.813
 21
11.288
  0
LINE
  8
0
 10
-1.763
 11
-11.288
 20
11.288
 21
11.288
  0
LINE
  8
0
 10
-9.525
 11
-9.525
 20
-28.575
 21
-9.525
  0
LINE
  8
0
 10
-9.525
 11
9.525
 20
-9.525
 21
-9.525
  0
LINE
  8
0
 10
9.525
 11
9.525
 20
-9.525
 21
-19.05
  0
LINE
  8
0
 10
9.525
 11
0
 20
-19.05
 21
-19.05
  0
LINE
  8
0
 10
0
 11
0
 20
-19.05
 21
-28.575
  0
LINE
  8
0
 10
0
 11
-9.525
 20
-28.575
 21
-28.575
  0
LINE
  8
0
 10
0
 11
0
 20
0
 21
19.05
  0
LINE
  8
0
 10
0
 11
28.575
 20
19.05
 21
19.05
  0
LINE
  8
0
 10
28.575
 11
28.575
 20
19.05
 21
38.1
  0
LINE
  8
0
 10
28.575
 11
38.1
 20
38.1
 21
38.1
  0
LINE
  8
0
 10
38.1
 11
38.1
 20
38.1
 21
9.525
  0
LINE
  8
0
 10
38.1
 11
9.525
 20
9.525
 21
9.525
  0
LINE
  8
0
 10
9.525
 11
9.525
 20
9.525
 21
0
  0
LINE
  8
0
 10
9.525
 11
0
 20
0
 21
0
  0
LINE
  8
0
 10
10.525
 11
10.525
 20
-10.525
 21
8.525
  0
LINE
  8
0
 10
10.525
 11
39.1
 20
8.525
 21
8.525
  0
LINE
  8
0
 10
39.1
 11
39.1
 20
8.525
 21
27.575
  0
LINE
  8
0
 10
39.1
 11
48.625
 20
27.575
 21
27.575
  0
LINE
  8
0
 10
48.625
 11
48.625
 20
27.575
 21
-1
  0
LINE
  8
0
 10
48.625
 11
20.05
 20
-1
 21
-1
  0
LINE
  8
0
 10
20.05
 11
20.05
 20
-1
 21
-10.525
  0
LINE
  8
0
 10
20.05
 11
10.525
 20
-10.525
 21
-10.525
  0
LINE
  8
0
 10
21.05
 11
21.05
 20
-21.05
 21
-2
  0
LINE
  8
0
 10
21.05
 11
49.625
 20
-2
 21
-2
  0
LINE
  8
0
 10
49.625
 11
49.625
 20
-2
 21
17.05
  0
LINE
  8
0
 10
49.625
 11
59.15
 20
17.05
 21
17.05
  0
LINE
  8
0
 10
59.15
 11
59.15
 20
17.05
 21
-11.525
  0
LINE
  8
0
 10
59.15
 11
30.575
 20
-11.525
 21
-11.525
  0
LINE
  8
0
 10
30.575
 11
30.575
 20
-11.525
 21
-21.05
  0
LINE
  8
0
 10
30.575
 11
21.05
 20
-21.05
 21
-21.05
  0
LINE
  8
0
 10
31.575
 11
31.575
 20
-31.575
 21
-12.525
  0
LINE
  8
0
 10
31.575
 11
60.15
 20
-12.525
 21
-12.525
  0
LINE
  8
0
 10
60.15
 11
60.15
 20
-12.525
 21
6.525
  0
LINE
  8
0
 10
60.15
 11
69.675
 20
6.525
 21
6.525
  0
LINE
  8
0
 10
69.675
 11
69.675
 20
6.525
 21
-22.05
  0
LINE
  8
0
 10
69.675
 11
41.1
 20
-22.05
 21
-22.05
  0
LINE
  8
0
 10
41.1
 11
41.1
 20
-22.05
 21
-31.575
  0
LINE
  8
0
 10
41.1
 11
31.575
 20
-31.575
 21
-31.575
  0
LINE
  8
0
 10
47.625
 11
47.625
 20
33.338
 21
42.862
  0
LINE
  8
0
 10
47.625
 11
57.15
 20
42.862
 21
42.862
  0
LINE
  8
0
 10
57.15
 11
57.15
 20
42.862
 21
33.338
  0
LINE
  8
0
 10
57.15
 11
47.625
 20
33.338
 21
33.338
  0
LINE
  8
0
 10
47.625
 11
47.625
 20
43.862
 21
53.387
  0
LINE
  8
0
 10
47.625
 11
57.15
 20
53.387
 21
53.387
  0
LINE
  8
0
 10
57.15
 11
57.15
 20
53.387
 21
43.862
  0
LINE
  8
0
 10
57.15
 11
47.625
 20
43.862
 21
43.862
  0
LINE
  8
0
 10
47.625
 11
47.625
 20
54.387
 21
63.912
  0
LINE
  8
0
 10
47.625
 11
57.15
 20
63.912
 21
63.912
  0
LINE
  8
0
 10
57.15
 11
57.15
 20
63.912
 21
54.387
  0
LINE
  8
0
 10
57.15
 11
47.625
 20
54.387
 21
54.387
  0
LINE
  8
0
 10
47.625
 11
47.625
 20
64.912
 21
74.438
  0
LINE
  8
0
 10
47.625
 11
57.15
 20
74.438
 21
74.438
  0
LINE
  8
0
 10
57.15
 11
57.15
 20
74.438
 21
64.912
  0
LINE
  8
0
 10
57.15
 11
47.625
 20
64.912
 21
64.912
  0
LINE
  8
0
 10
58.15
 11
58.15
 20
33.338
 21
42.862
  0
LINE
  8
0
 10
58.15
 11
67.675
 20
42.862
 21
42.862
  0
LINE
  8
0
 10
67.675
 11
67.675
 20
42.862
 21
33.338
  0
LINE
  8
0
 10
67.675
 11
58.15
 20
33.338
 21
33.338
  0
LINE
  8
0
 10
58.15
 11
58.15
 20
43.862
 21
53.387
  0
LINE
  8
0
 10
58.15
 11
67.675
 20
53.387
 21
53.387
  0
LINE
  8
0
 10
67.675
 11
67.675
 20
53.387
 21
43.862
  0
LINE
  8
0
 10
67.675
 11
58.15
 20
43.862
 21
43.862
  0
LINE
  8
0
 10
58.15
 11
58.15
 20
54.387
 21
63.912
  0
LINE
  8
0
 10
58.15
 11
67.675
 20
63.912
 21
63.912
  0
LINE
  8
0
 10
67.675
 11
67.675
 20
63.912
 21
54.387
  0
LINE
  8
0
 10
67.675
 11
58.15
 20
54.387
 21
54.387
  0
LINE
  8
0
 10
58.15
 11
58.15
 20
64.912
 21
74.438
  0
LINE
  8
0
 10
58.15
 11
67.675
 20
74.438
 21
74.438
  0
LINE
  8
0
 10
67.675
 11
67.675
 20
74.438
 21
64.912
  0
LINE
  8
0
 10
67.675
 11
58.15
 20
64.912
 21
64.912
  0
LINE
  8
0
 10
68.675
 11
68.675
 20
33.338
 21
42.862
  0
LINE
  8
0
 10
68.675
 11
78.2
 20
42.862
 21
42.862
  0
LINE
  8
0
 10
78.2
 11
78.2
 20
42.862
 21
33.338
  0
LINE
  8
0
 10
78.2
 11
68.675
 20
33.338
 21
33.338
  0
LINE
  8
0
 10
68.675
 11
68.675
 20
43.862
 21
53.387
  0
LINE
  8
0
 10
68.675
 11
78.2
 20
53.387
 21
53.387
  0
LINE
  8
0
 10
78.2
 11
78.2
 20
53.387
 21
43.862
  0
LINE
  8
0
 10
78.2
 11
68.675
 20
43.862
 21
43.862
  0
LINE
  8
0
 10
68.675
 11
68.675
 20
54.387
 21
63.912
  0
LINE
  8
0
 10
68.675
 11
78.2
 20
63.912
 21
63.912
  0
LINE
  8
0
 10
78.2
 11
78.2
 20
63.912
 21
54.387
  0
LINE
  8
0
 10
78.2
 11
68.675
 20
54.387
 21
54.387
  0
LINE
  8
0
 10
68.675
 11
68.675
 20
64.912
 21
74.438
  0
LINE
  8
0
 10
68.675
 11
78.2
 20
74.438
 21
74.438
  0
LINE
  8
0
 10
78.2
 11
78.2
 20
74.438
 21
64.912
  0
LINE
  8
0
 10
78.2
 11
68.675
 20
64.912
 21
64.912
  0
LINE
  8
0
 10
79.2
 11
79.2
 20
33.338
 21
42.862
  0
LINE
  8
0
 10
79.2
 11
88.725
 20
42.862
 21
42.862
  0
LINE
  8
0
 10
88.725
 11
88.725
 20
42.862
 21
33.338
  0
LINE
  8
0
 10
88.725
 11
79.2
 20
33.338
 21
33.338
  0
LINE
  8
0
 10
79.2
 11
79.2
 20
43.862
 21
53.387
  0
LINE
  8
0
 10
79.2
 11
88.725
 20
53.387
 21
53.387
  0
LINE
  8
0
 10
88.725
 11
88.725
 20
53.387
 21
43.862
  0
LINE
  8
0
 10
88.725
 11
79.2
 20
43.862
 21
43.862
  0
LINE
  8
0
 10
79.2
 11
79.2
 20
54.387
 21
63.912
  0
LINE
  8
0
 10
79.2
 11
88.725
 20
63.912
 21
63.912
  0
LINE
  8
0
 10
88.725
 11
88.725
 20
63.912
 21
54.387
  0
LINE
  8
0
 10
88.725
 11
79.2
 20
54.387
 21
54.387
  0
LINE
  8
0
 10
79.2
 11
79.2
 20
64.912
 21
74.438
  0
LINE
  8
0
 10
79.2
 11
88.725
 20
74.438
 21
74.438
  0
LINE
  8
0
 10
88.725
 11
88.725
 20
74.438
 21
64.912
  0
LINE
  8
0
 10
88.725
 11
79.2
 20
64.912
 21
64.912
  0
ENDSEC
  0
SECTION
  2
OBJECTS
  0
DICTIONARY
  0
ENDSEC
  0
EOF
