  0
SECTION
  2
BLOCKS
  0
ENDSEC
  0
SECTION
  2
ENTITIES
  0
LINE
  8
0
 10
-63.897
 11
-63.897
 20
-63.897
 21
63.897
  0
LINE
  8
0
 10
-63.897
 11
63.897
 20
63.897
 21
63.897
  0
LINE
  8
0
 10
63.897
 11
63.897
 20
63.897
 21
-63.897
  0
LINE
  8
0
 10
63.897
 11
-63.897
 20
-63.897
 21
-63.897
  0
LINE
  8
0
 10
-63.897
 11
-63.897
 20
64.897
 21
192.691
  0
LINE
  8
0
 10
-63.897
 11
63.897
 20
192.691
 21
192.691
  0
LINE
  8
0
 10
63.897
 11
63.897
 20
192.691
 21
64.897
  0
LINE
  8
0
 10
63.897
 11
-63.897
 20
64.897
 21
64.897
  0
LINE
  8
0
 10
-54.769
 11
-54.769
 20
-54.769
 21
-45.641
  0
LINE
  8
0
 10
-54.769
 11
-45.641
 20
-45.641
 21
-45.641
  0
LINE
  8
0
 10
-45.641
 11
-45.641
 20
-45.641
 21
-54.769
  0
LINE
  8
0
 10
-45.641
 11
-54.769
 20
-54.769
 21
-54.769
  0
LINE
  8
0
 10
-54.769
 11
-54.769
 20
0
 21
18.256
  0
LINE
  8
0
 10
-54.769
 11
-36.512
 20
18.256
 21
18.256
  0
LINE
  8
0
 10
-36.512
 11
-36.512
 20
18.256
 21
9.129
  0
LINE
  8
0
 10
-36.512
 11
-27.384
 20
9.129
 21
9.129
  0
LINE
  8
0
 10
-27.384
 11
-27.384
 20
9.129
 21
18.256
  0
LINE
  8
0
 10
-27.384
 11
-9.128
 20
18.256
 21
18.256
  0
LINE
  8
0
 10
-9.128
 11
-9.128
 20
18.256
 21
36.512
  0
LINE
  8
0
 10
-9.128
 11
27.384
 20
36.512
 21
36.512
  0
LINE
  8
0
 10
27.384
 11
27.384
 20
36.512
 21
27.43
  0
LINE
  8
0
 10
27.384
 11
36.558
 20
27.43
 21
27.43
  0
LINE
  8
0
 10
36.558
 11
36.558
 20
27.43
 21
18.302
  0
LINE
  8
0
 10
36.558
 11
45.686
 20
18.302
 21
18.302
  0
LINE
  8
0
 10
45.686
 11
45.686
 20
18.302
 21
-27.43
  0
LINE
  8
0
 10
45.686
 11
36.558
 20
-27.43
 21
-27.43
  0
LINE
  8
0
 10
36.558
 11
36.558
 20
-27.43
 21
-36.558
  0
LINE
  8
0
 10
36.558
 11
9.082
 20
-36.558
 21
-36.558
  0
LINE
  8
0
 10
9.082
 11
9.082
 20
-36.558
 21
-27.384
  0
LINE
  8
0
 10
9.082
 11
0
 20
-27.384
 21
-27.384
  0
LINE
  8
0
 10
0
 11
0
 20
-27.384
 21
-9.174
  0
LINE
  8
0
 10
0
 11
-18.302
 20
-9.174
 21
-9.174
  0
LINE
  8
0
 10
-18.302
 11
-18.302
 20
-9.174
 21
0
  0
LINE
  8
0
 10
-18.302
 11
-27.384
 20
0
 21
0
  0
LINE
  8
0
 10
-27.384
 11
-27.384
 20
0
 21
-9.129
  0
LINE
  8
0
 10
-27.384
 11
-45.641
 20
-9.129
 21
-9.129
  0
LINE
  8
0
 10
-45.641
 11
-45.641
 20
-9.129
 21
0
  0
LINE
  8
0
 10
-45.641
 11
-54.769
 20
0
 21
0
  0
LINE
  8
0
 10
-54.769
 11
-54.769
 20
45.641
 21
54.769
  0
LINE
  8
0
 10
-54.769
 11
-45.641
 20
54.769
 21
54.769
  0
LINE
  8
0
 10
-45.641
 11
-45.641
 20
54.769
 21
45.641
  0
LINE
  8
0
 10
-45.641
 11
-54.769
 20
45.641
 21
45.641
  0
LINE
  8
0
 10
-54.769
 11
-54.769
 20
74.025
 21
83.153
  0
LINE
  8
0
 10
-54.769
 11
-45.641
 20
83.153
 21
83.153
  0
LINE
  8
0
 10
-45.641
 11
-45.641
 20
83.153
 21
74.025
  0
LINE
  8
0
 10
-45.641
 11
-54.769
 20
74.025
 21
74.025
  0
LINE
  8
0
 10
-54.769
 11
-54.769
 20
128.794
 21
147.05
  0
LINE
  8
0
 10
-54.769
 11
-36.512
 20
147.05
 21
147.05
  0
LINE
  8
0
 10
-36.512
 11
-36.512
 20
147.05
 21
137.922
  0
LINE
  8
0
 10
-36.512
 11
-27.384
 20
137.922
 21
137.922
  0
LINE
  8
0
 10
-27.384
 11
-27.384
 20
137.922
 21
147.05
  0
LINE
  8
0
 10
-27.384
 11
-9.128
 20
147.05
 21
147.05
  0
LINE
  8
0
 10
-9.128
 11
-9.128
 20
147.05
 21
165.306
  0
LINE
  8
0
 10
-9.128
 11
27.384
 20
165.306
 21
165.306
  0
LINE
  8
0
 10
27.384
 11
27.384
 20
165.306
 21
156.224
  0
LINE
  8
0
 10
27.384
 11
36.558
 20
156.224
 21
156.224
  0
LINE
  8
0
 10
36.558
 11
36.558
 20
156.224
 21
147.096
  0
LINE
  8
0
 10
36.558
 11
45.686
 20
147.096
 21
147.096
  0
LINE
  8
0
 10
45.686
 11
45.686
 20
147.096
 21
101.364
  0
LINE
  8
0
 10
45.686
 11
36.558
 20
101.364
 21
101.364
  0
LINE
  8
0
 10
36.558
 11
36.558
 20
101.364
 21
92.236
  0
LINE
  8
0
 10
36.558
 11
9.082
 20
92.236
 21
92.236
  0
LINE
  8
0
 10
9.082
 11
9.082
 20
92.236
 21
101.409
  0
LINE
  8
0
 10
9.082
 11
0
 20
101.409
 21
101.409
  0
LINE
  8
0
 10
0
 11
0
 20
101.409
 21
119.62
  0
LINE
  8
0
 10
0
 11
-18.302
 20
119.62
 21
119.62
  0
LINE
  8
0
 10
-18.302
 11
-18.302
 20
119.62
 21
128.794
  0
LINE
  8
0
 10
-18.302
 11
-27.384
 20
128.794
 21
128.794
  0
LINE
  8
0
 10
-27.384
 11
-27.384
 20
128.794
 21
119.665
  0
LINE
  8
0
 10
-27.384
 11
-45.641
 20
119.665
 21
119.665
  0
LINE
  8
0
 10
-45.641
 11
-45.641
 20
119.665
 21
128.794
  0
LINE
  8
0
 10
-45.641
 11
-54.769
 20
128.794
 21
128.794
  0
LINE
  8
0
 10
-54.769
 11
-54.769
 20
174.434
 21
183.563
  0
LINE
  8
0
 10
-54.769
 11
-45.641
 20
183.563
 21
183.563
  0
LINE
  8
0
 10
-45.641
 11
-45.641
 20
183.563
 21
174.434
  0
LINE
  8
0
 10
-45.641
 11
-54.769
 20
174.434
 21
174.434
  0
LINE
  8
0
 10
0.046
 11
0.046
 20
-9.128
 21
-0.046
  0
LINE
  8
0
 10
0.046
 11
9.174
 20
-0.046
 21
-0.046
  0
LINE
  8
0
 10
9.174
 11
9.174
 20
-0.046
 21
9.082
  0
LINE
  8
0
 10
9.174
 11
27.384
 20
9.082
 21
9.082
  0
LINE
  8
0
 10
27.384
 11
27.384
 20
9.082
 21
-9.128
  0
LINE
  8
0
 10
27.384
 11
0.046
 20
-9.128
 21
-9.128
  0
LINE
  8
0
 10
0.046
 11
0.046
 20
119.666
 21
128.748
  0
LINE
  8
0
 10
0.046
 11
9.174
 20
128.748
 21
128.748
  0
LINE
  8
0
 10
9.174
 11
9.174
 20
128.748
 21
137.876
  0
LINE
  8
0
 10
9.174
 11
27.384
 20
137.876
 21
137.876
  0
LINE
  8
0
 10
27.384
 11
27.384
 20
137.876
 21
119.666
  0
LINE
  8
0
 10
27.384
 11
0.046
 20
119.666
 21
119.666
  0
LINE
  8
0
 10
45.641
 11
45.641
 20
-54.769
 21
-45.641
  0
LINE
  8
0
 10
45.641
 11
54.769
 20
-45.641
 21
-45.641
  0
LINE
  8
0
 10
54.769
 11
54.769
 20
-45.641
 21
-54.769
  0
LINE
  8
0
 10
54.769
 11
45.641
 20
-54.769
 21
-54.769
  0
LINE
  8
0
 10
45.641
 11
45.641
 20
45.641
 21
54.769
  0
LINE
  8
0
 10
45.641
 11
54.769
 20
54.769
 21
54.769
  0
LINE
  8
0
 10
54.769
 11
54.769
 20
54.769
 21
45.641
  0
LINE
  8
0
 10
54.769
 11
45.641
 20
45.641
 21
45.641
  0
LINE
  8
0
 10
45.641
 11
45.641
 20
74.025
 21
83.153
  0
LINE
  8
0
 10
45.641
 11
54.769
 20
83.153
 21
83.153
  0
LINE
  8
0
 10
54.769
 11
54.769
 20
83.153
 21
74.025
  0
LINE
  8
0
 10
54.769
 11
45.641
 20
74.025
 21
74.025
  0
LINE
  8
0
 10
45.641
 11
45.641
 20
174.434
 21
183.563
  0
LINE
  8
0
 10
45.641
 11
54.769
 20
183.563
 21
183.563
  0
LINE
  8
0
 10
54.769
 11
54.769
 20
183.563
 21
174.434
  0
LINE
  8
0
 10
54.769
 11
45.641
 20
174.434
 21
174.434
  0
LINE
  8
0
 10
64.897
 11
64.897
 20
-63.897
 21
63.897
  0
LINE
  8
0
 10
64.897
 11
192.691
 20
63.897
 21
63.897
  0
LINE
  8
0
 10
192.691
 11
192.691
 20
63.897
 21
-63.897
  0
LINE
  8
0
 10
192.691
 11
64.897
 20
-63.897
 21
-63.897
  0
LINE
  8
0
 10
64.897
 11
64.897
 20
64.897
 21
192.691
  0
LINE
  8
0
 10
64.897
 11
192.691
 20
192.691
 21
192.691
  0
LINE
  8
0
 10
192.691
 11
192.691
 20
192.691
 21
64.897
  0
LINE
  8
0
 10
192.691
 11
64.897
 20
64.897
 21
64.897
  0
LINE
  8
0
 10
74.025
 11
74.025
 20
-54.769
 21
-45.641
  0
LINE
  8
0
 10
74.025
 11
83.153
 20
-45.641
 21
-45.641
  0
LINE
  8
0
 10
83.153
 11
83.153
 20
-45.641
 21
-54.769
  0
LINE
  8
0
 10
83.153
 11
74.025
 20
-54.769
 21
-54.769
  0
LINE
  8
0
 10
74.025
 11
74.025
 20
0
 21
18.256
  0
LINE
  8
0
 10
74.025
 11
92.281
 20
18.256
 21
18.256
  0
LINE
  8
0
 10
92.281
 11
92.281
 20
18.256
 21
9.129
  0
LINE
  8
0
 10
92.281
 11
101.409
 20
9.129
 21
9.129
  0
LINE
  8
0
 10
101.409
 11
101.409
 20
9.129
 21
18.256
  0
LINE
  8
0
 10
101.409
 11
119.666
 20
18.256
 21
18.256
  0
LINE
  8
0
 10
119.666
 11
119.666
 20
18.256
 21
36.512
  0
LINE
  8
0
 10
119.666
 11
156.178
 20
36.512
 21
36.512
  0
LINE
  8
0
 10
156.178
 11
156.178
 20
36.512
 21
27.43
  0
LINE
  8
0
 10
156.178
 11
165.352
 20
27.43
 21
27.43
  0
LINE
  8
0
 10
165.352
 11
165.352
 20
27.43
 21
18.302
  0
LINE
  8
0
 10
165.352
 11
174.48
 20
18.302
 21
18.302
  0
LINE
  8
0
 10
174.48
 11
174.48
 20
18.302
 21
-27.43
  0
LINE
  8
0
 10
174.48
 11
165.352
 20
-27.43
 21
-27.43
  0
LINE
  8
0
 10
165.352
 11
165.352
 20
-27.43
 21
-36.558
  0
LINE
  8
0
 10
165.352
 11
137.876
 20
-36.558
 21
-36.558
  0
LINE
  8
0
 10
137.876
 11
137.876
 20
-36.558
 21
-27.384
  0
LINE
  8
0
 10
137.876
 11
128.794
 20
-27.384
 21
-27.384
  0
LINE
  8
0
 10
128.794
 11
128.794
 20
-27.384
 21
-9.174
  0
LINE
  8
0
 10
128.794
 11
110.492
 20
-9.174
 21
-9.174
  0
LINE
  8
0
 10
110.492
 11
110.492
 20
-9.174
 21
0
  0
LINE
  8
0
 10
110.492
 11
101.409
 20
0
 21
0
  0
LINE
  8
0
 10
101.409
 11
101.409
 20
0
 21
-9.129
  0
LINE
  8
0
 10
101.409
 11
83.153
 20
-9.129
 21
-9.129
  0
LINE
  8
0
 10
83.153
 11
83.153
 20
-9.129
 21
0
  0
LINE
  8
0
 10
83.153
 11
74.025
 20
0
 21
0
  0
LINE
  8
0
 10
74.025
 11
74.025
 20
45.641
 21
54.769
  0
LINE
  8
0
 10
74.025
 11
83.153
 20
54.769
 21
54.769
  0
LINE
  8
0
 10
83.153
 11
83.153
 20
54.769
 21
45.641
  0
LINE
  8
0
 10
83.153
 11
74.025
 20
45.641
 21
45.641
  0
LINE
  8
0
 10
74.025
 11
74.025
 20
74.025
 21
83.153
  0
LINE
  8
0
 10
74.025
 11
83.153
 20
83.153
 21
83.153
  0
LINE
  8
0
 10
83.153
 11
83.153
 20
83.153
 21
74.025
  0
LINE
  8
0
 10
83.153
 11
74.025
 20
74.025
 21
74.025
  0
LINE
  8
0
 10
74.025
 11
74.025
 20
128.794
 21
147.05
  0
LINE
  8
0
 10
74.025
 11
92.281
 20
147.05
 21
147.05
  0
LINE
  8
0
 10
92.281
 11
92.281
 20
147.05
 21
137.922
  0
LINE
  8
0
 10
92.281
 11
101.409
 20
137.922
 21
137.922
  0
LINE
  8
0
 10
101.409
 11
101.409
 20
137.922
 21
147.05
  0
LINE
  8
0
 10
101.409
 11
119.666
 20
147.05
 21
147.05
  0
LINE
  8
0
 10
119.666
 11
119.666
 20
147.05
 21
165.306
  0
LINE
  8
0
 10
119.666
 11
156.178
 20
165.306
 21
165.306
  0
LINE
  8
0
 10
156.178
 11
156.178
 20
165.306
 21
156.224
  0
LINE
  8
0
 10
156.178
 11
165.352
 20
156.224
 21
156.224
  0
LINE
  8
0
 10
165.352
 11
165.352
 20
156.224
 21
147.096
  0
LINE
  8
0
 10
165.352
 11
174.48
 20
147.096
 21
147.096
  0
LINE
  8
0
 10
174.48
 11
174.48
 20
147.096
 21
101.364
  0
LINE
  8
0
 10
174.48
 11
165.352
 20
101.364
 21
101.364
  0
LINE
  8
0
 10
165.352
 11
165.352
 20
101.364
 21
92.236
  0
LINE
  8
0
 10
165.352
 11
137.876
 20
92.236
 21
92.236
  0
LINE
  8
0
 10
137.876
 11
137.876
 20
92.236
 21
101.409
  0
LINE
  8
0
 10
137.876
 11
128.794
 20
101.409
 21
101.409
  0
LINE
  8
0
 10
128.794
 11
128.794
 20
101.409
 21
119.62
  0
LINE
  8
0
 10
128.794
 11
110.492
 20
119.62
 21
119.62
  0
LINE
  8
0
 10
110.492
 11
110.492
 20
119.62
 21
128.794
  0
LINE
  8
0
 10
110.492
 11
101.409
 20
128.794
 21
128.794
  0
LINE
  8
0
 10
101.409
 11
101.409
 20
128.794
 21
119.665
  0
LINE
  8
0
 10
101.409
 11
83.153
 20
119.665
 21
119.665
  0
LINE
  8
0
 10
83.153
 11
83.153
 20
119.665
 21
128.794
  0
LINE
  8
0
 10
83.153
 11
74.025
 20
128.794
 21
128.794
  0
LINE
  8
0
 10
74.025
 11
74.025
 20
174.434
 21
183.563
  0
LINE
  8
0
 10
74.025
 11
83.153
 20
183.563
 21
183.563
  0
LINE
  8
0
 10
83.153
 11
83.153
 20
183.563
 21
174.434
  0
LINE
  8
0
 10
83.153
 11
74.025
 20
174.434
 21
174.434
  0
LINE
  8
0
 10
128.839
 11
128.839
 20
-9.128
 21
-0.046
  0
LINE
  8
0
 10
128.839
 11
137.968
 20
-0.046
 21
-0.046
  0
LINE
  8
0
 10
137.968
 11
137.968
 20
-0.046
 21
9.082
  0
LINE
  8
0
 10
137.968
 11
156.178
 20
9.082
 21
9.082
  0
LINE
  8
0
 10
156.178
 11
156.178
 20
9.082
 21
-9.128
  0
LINE
  8
0
 10
156.178
 11
128.839
 20
-9.128
 21
-9.128
  0
LINE
  8
0
 10
128.839
 11
128.839
 20
119.666
 21
128.748
  0
LINE
  8
0
 10
128.839
 11
137.968
 20
128.748
 21
128.748
  0
LINE
  8
0
 10
137.968
 11
137.968
 20
128.748
 21
137.876
  0
LINE
  8
0
 10
137.968
 11
156.178
 20
137.876
 21
137.876
  0
LINE
  8
0
 10
156.178
 11
156.178
 20
137.876
 21
119.666
  0
LINE
  8
0
 10
156.178
 11
128.839
 20
119.666
 21
119.666
  0
LINE
  8
0
 10
174.434
 11
174.434
 20
-54.769
 21
-45.641
  0
LINE
  8
0
 10
174.434
 11
183.563
 20
-45.641
 21
-45.641
  0
LINE
  8
0
 10
183.563
 11
183.563
 20
-45.641
 21
-54.769
  0
LINE
  8
0
 10
183.563
 11
174.434
 20
-54.769
 21
-54.769
  0
LINE
  8
0
 10
174.434
 11
174.434
 20
45.641
 21
54.769
  0
LINE
  8
0
 10
174.434
 11
183.563
 20
54.769
 21
54.769
  0
LINE
  8
0
 10
183.563
 11
183.563
 20
54.769
 21
45.641
  0
LINE
  8
0
 10
183.563
 11
174.434
 20
45.641
 21
45.641
  0
LINE
  8
0
 10
174.434
 11
174.434
 20
74.025
 21
83.153
  0
LINE
  8
0
 10
174.434
 11
183.563
 20
83.153
 21
83.153
  0
LINE
  8
0
 10
183.563
 11
183.563
 20
83.153
 21
74.025
  0
LINE
  8
0
 10
183.563
 11
174.434
 20
74.025
 21
74.025
  0
LINE
  8
0
 10
174.434
 11
174.434
 20
174.434
 21
183.563
  0
LINE
  8
0
 10
174.434
 11
183.563
 20
183.563
 21
183.563
  0
LINE
  8
0
 10
183.563
 11
183.563
 20
183.563
 21
174.434
  0
LINE
  8
0
 10
183.563
 11
174.434
 20
174.434
 21
174.434
  0
ENDSEC
  0
SECTION
  2
OBJECTS
  0
DICTIONARY
  0
ENDSEC
  0
EOF
