  0
SECTION
  2
BLOCKS
  0
ENDSEC
  0
SECTION
  2
ENTITIES
  0
LINE
  8
0
 10
-101.6
 11
-101.6
 20
-293.05
 21
-280.45
  0
LINE
  8
0
 10
-101.6
 11
-98.6
 20
-280.45
 21
-280.45
  0
LINE
  8
0
 10
-98.6
 11
-98.6
 20
-280.45
 21
-267.65
  0
LINE
  8
0
 10
-98.6
 11
-101.6
 20
-267.65
 21
-267.65
  0
LINE
  8
0
 10
-101.6
 11
-101.6
 20
-267.65
 21
-255.05
  0
LINE
  8
0
 10
-101.6
 11
-98.6
 20
-255.05
 21
-255.05
  0
LINE
  8
0
 10
-98.6
 11
-98.6
 20
-255.05
 21
-242.25
  0
LINE
  8
0
 10
-98.6
 11
-101.6
 20
-242.25
 21
-242.25
  0
LINE
  8
0
 10
-101.6
 11
-101.6
 20
-242.25
 21
-229.65
  0
LINE
  8
0
 10
-101.6
 11
-98.6
 20
-229.65
 21
-229.65
  0
LINE
  8
0
 10
-98.6
 11
-98.6
 20
-229.65
 21
-216.85
  0
LINE
  8
0
 10
-98.6
 11
-101.6
 20
-216.85
 21
-216.85
  0
LINE
  8
0
 10
-101.6
 11
-101.6
 20
-216.85
 21
-204.25
  0
LINE
  8
0
 10
-101.6
 11
-98.6
 20
-204.25
 21
-204.25
  0
LINE
  8
0
 10
-98.6
 11
-98.6
 20
-204.25
 21
-191.45
  0
LINE
  8
0
 10
-98.6
 11
-101.6
 20
-191.45
 21
-191.45
  0
LINE
  8
0
 10
-101.6
 11
-101.6
 20
-191.45
 21
-178.85
  0
LINE
  8
0
 10
-101.6
 11
-98.6
 20
-178.85
 21
-178.85
  0
LINE
  8
0
 10
-98.6
 11
-98.6
 20
-178.85
 21
-166.05
  0
LINE
  8
0
 10
-98.6
 11
-101.6
 20
-166.05
 21
-166.05
  0
LINE
  8
0
 10
-101.6
 11
-101.6
 20
-166.05
 21
-153.45
  0
LINE
  8
0
 10
-101.6
 11
-98.6
 20
-153.45
 21
-153.45
  0
LINE
  8
0
 10
-98.6
 11
-98.6
 20
-153.45
 21
-140.65
  0
LINE
  8
0
 10
-98.6
 11
-101.6
 20
-140.65
 21
-140.65
  0
LINE
  8
0
 10
-101.6
 11
-101.6
 20
-140.65
 21
-128.05
  0
LINE
  8
0
 10
-101.6
 11
-98.6
 20
-128.05
 21
-128.05
  0
LINE
  8
0
 10
-98.6
 11
-98.6
 20
-128.05
 21
-115.25
  0
LINE
  8
0
 10
-98.6
 11
-101.6
 20
-115.25
 21
-115.25
  0
LINE
  8
0
 10
-101.6
 11
-101.6
 20
-115.25
 21
-105.6
  0
LINE
  8
0
 10
-101.6
 11
-101.55
 20
-105.6
 21
-105.6
  0
LINE
  8
0
 10
-101.55
 11
-101.55
 20
-105.6
 21
-102.65
  0
LINE
  8
0
 10
-101.55
 11
-98.6
 20
-102.65
 21
-102.65
  0
LINE
  8
0
 10
-98.6
 11
-98.6
 20
-102.65
 21
-102.6
  0
LINE
  8
0
 10
-98.6
 11
-88.95
 20
-102.6
 21
-102.6
  0
LINE
  8
0
 10
-88.95
 11
-88.95
 20
-102.6
 21
-105.6
  0
LINE
  8
0
 10
-88.95
 11
-76.15
 20
-105.6
 21
-105.6
  0
LINE
  8
0
 10
-76.15
 11
-76.15
 20
-105.6
 21
-102.6
  0
LINE
  8
0
 10
-76.15
 11
-63.55
 20
-102.6
 21
-102.6
  0
LINE
  8
0
 10
-63.55
 11
-63.55
 20
-102.6
 21
-105.6
  0
LINE
  8
0
 10
-63.55
 11
-50.75
 20
-105.6
 21
-105.6
  0
LINE
  8
0
 10
-50.75
 11
-50.75
 20
-105.6
 21
-102.6
  0
LINE
  8
0
 10
-50.75
 11
-38.15
 20
-102.6
 21
-102.6
  0
LINE
  8
0
 10
-38.15
 11
-38.15
 20
-102.6
 21
-105.6
  0
LINE
  8
0
 10
-38.15
 11
-25.35
 20
-105.6
 21
-105.6
  0
LINE
  8
0
 10
-25.35
 11
-25.35
 20
-105.6
 21
-102.6
  0
LINE
  8
0
 10
-25.35
 11
-12.75
 20
-102.6
 21
-102.6
  0
LINE
  8
0
 10
-12.75
 11
-12.75
 20
-102.6
 21
-105.6
  0
LINE
  8
0
 10
-12.75
 11
0.05
 20
-105.6
 21
-105.6
  0
LINE
  8
0
 10
0.05
 11
0.05
 20
-105.6
 21
-102.6
  0
LINE
  8
0
 10
0.05
 11
12.65
 20
-102.6
 21
-102.6
  0
LINE
  8
0
 10
12.65
 11
12.65
 20
-102.6
 21
-105.6
  0
LINE
  8
0
 10
12.65
 11
25.45
 20
-105.6
 21
-105.6
  0
LINE
  8
0
 10
25.45
 11
25.45
 20
-105.6
 21
-102.6
  0
LINE
  8
0
 10
25.45
 11
38.05
 20
-102.6
 21
-102.6
  0
LINE
  8
0
 10
38.05
 11
38.05
 20
-102.6
 21
-105.6
  0
LINE
  8
0
 10
38.05
 11
50.85
 20
-105.6
 21
-105.6
  0
LINE
  8
0
 10
50.85
 11
50.85
 20
-105.6
 21
-102.6
  0
LINE
  8
0
 10
50.85
 11
63.45
 20
-102.6
 21
-102.6
  0
LINE
  8
0
 10
63.45
 11
63.45
 20
-102.6
 21
-105.6
  0
LINE
  8
0
 10
63.45
 11
76.25
 20
-105.6
 21
-105.6
  0
LINE
  8
0
 10
76.25
 11
76.25
 20
-105.6
 21
-102.6
  0
LINE
  8
0
 10
76.25
 11
88.85
 20
-102.6
 21
-102.6
  0
LINE
  8
0
 10
88.85
 11
88.85
 20
-102.6
 21
-105.6
  0
LINE
  8
0
 10
88.85
 11
98.6
 20
-105.6
 21
-105.6
  0
LINE
  8
0
 10
98.6
 11
98.6
 20
-105.6
 21
-115.35
  0
LINE
  8
0
 10
98.6
 11
101.6
 20
-115.35
 21
-115.35
  0
LINE
  8
0
 10
101.6
 11
101.6
 20
-115.35
 21
-127.95
  0
LINE
  8
0
 10
101.6
 11
98.6
 20
-127.95
 21
-127.95
  0
LINE
  8
0
 10
98.6
 11
98.6
 20
-127.95
 21
-140.75
  0
LINE
  8
0
 10
98.6
 11
101.6
 20
-140.75
 21
-140.75
  0
LINE
  8
0
 10
101.6
 11
101.6
 20
-140.75
 21
-153.35
  0
LINE
  8
0
 10
101.6
 11
98.6
 20
-153.35
 21
-153.35
  0
LINE
  8
0
 10
98.6
 11
98.6
 20
-153.35
 21
-166.15
  0
LINE
  8
0
 10
98.6
 11
101.6
 20
-166.15
 21
-166.15
  0
LINE
  8
0
 10
101.6
 11
101.6
 20
-166.15
 21
-178.75
  0
LINE
  8
0
 10
101.6
 11
98.6
 20
-178.75
 21
-178.75
  0
LINE
  8
0
 10
98.6
 11
98.6
 20
-178.75
 21
-191.55
  0
LINE
  8
0
 10
98.6
 11
101.6
 20
-191.55
 21
-191.55
  0
LINE
  8
0
 10
101.6
 11
101.6
 20
-191.55
 21
-204.15
  0
LINE
  8
0
 10
101.6
 11
98.6
 20
-204.15
 21
-204.15
  0
LINE
  8
0
 10
98.6
 11
98.6
 20
-204.15
 21
-216.95
  0
LINE
  8
0
 10
98.6
 11
101.6
 20
-216.95
 21
-216.95
  0
LINE
  8
0
 10
101.6
 11
101.6
 20
-216.95
 21
-229.55
  0
LINE
  8
0
 10
101.6
 11
98.6
 20
-229.55
 21
-229.55
  0
LINE
  8
0
 10
98.6
 11
98.6
 20
-229.55
 21
-242.35
  0
LINE
  8
0
 10
98.6
 11
101.6
 20
-242.35
 21
-242.35
  0
LINE
  8
0
 10
101.6
 11
101.6
 20
-242.35
 21
-254.95
  0
LINE
  8
0
 10
101.6
 11
98.6
 20
-254.95
 21
-254.95
  0
LINE
  8
0
 10
98.6
 11
98.6
 20
-254.95
 21
-267.75
  0
LINE
  8
0
 10
98.6
 11
101.6
 20
-267.75
 21
-267.75
  0
LINE
  8
0
 10
101.6
 11
101.6
 20
-267.75
 21
-280.35
  0
LINE
  8
0
 10
101.6
 11
98.6
 20
-280.35
 21
-280.35
  0
LINE
  8
0
 10
98.6
 11
98.6
 20
-280.35
 21
-293.15
  0
LINE
  8
0
 10
98.6
 11
101.6
 20
-293.15
 21
-293.15
  0
LINE
  8
0
 10
101.6
 11
101.6
 20
-293.15
 21
-302.8
  0
LINE
  8
0
 10
101.6
 11
101.55
 20
-302.8
 21
-302.8
  0
LINE
  8
0
 10
101.55
 11
101.55
 20
-302.8
 21
-305.75
  0
LINE
  8
0
 10
101.55
 11
98.6
 20
-305.75
 21
-305.75
  0
LINE
  8
0
 10
98.6
 11
98.6
 20
-305.75
 21
-305.8
  0
LINE
  8
0
 10
98.6
 11
88.95
 20
-305.8
 21
-305.8
  0
LINE
  8
0
 10
88.95
 11
88.95
 20
-305.8
 21
-302.8
  0
LINE
  8
0
 10
88.95
 11
76.15
 20
-302.8
 21
-302.8
  0
LINE
  8
0
 10
76.15
 11
76.15
 20
-302.8
 21
-305.8
  0
LINE
  8
0
 10
76.15
 11
63.55
 20
-305.8
 21
-305.8
  0
LINE
  8
0
 10
63.55
 11
63.55
 20
-305.8
 21
-302.8
  0
LINE
  8
0
 10
63.55
 11
50.75
 20
-302.8
 21
-302.8
  0
LINE
  8
0
 10
50.75
 11
50.75
 20
-302.8
 21
-305.8
  0
LINE
  8
0
 10
50.75
 11
38.15
 20
-305.8
 21
-305.8
  0
LINE
  8
0
 10
38.15
 11
38.15
 20
-305.8
 21
-302.8
  0
LINE
  8
0
 10
38.15
 11
25.35
 20
-302.8
 21
-302.8
  0
LINE
  8
0
 10
25.35
 11
25.35
 20
-302.8
 21
-305.8
  0
LINE
  8
0
 10
25.35
 11
12.75
 20
-305.8
 21
-305.8
  0
LINE
  8
0
 10
12.75
 11
12.75
 20
-305.8
 21
-302.8
  0
LINE
  8
0
 10
12.75
 11
-0.05
 20
-302.8
 21
-302.8
  0
LINE
  8
0
 10
-0.05
 11
-0.05
 20
-302.8
 21
-305.8
  0
LINE
  8
0
 10
-0.05
 11
-12.65
 20
-305.8
 21
-305.8
  0
LINE
  8
0
 10
-12.65
 11
-12.65
 20
-305.8
 21
-302.8
  0
LINE
  8
0
 10
-12.65
 11
-25.45
 20
-302.8
 21
-302.8
  0
LINE
  8
0
 10
-25.45
 11
-25.45
 20
-302.8
 21
-305.8
  0
LINE
  8
0
 10
-25.45
 11
-38.05
 20
-305.8
 21
-305.8
  0
LINE
  8
0
 10
-38.05
 11
-38.05
 20
-305.8
 21
-302.8
  0
LINE
  8
0
 10
-38.05
 11
-50.85
 20
-302.8
 21
-302.8
  0
LINE
  8
0
 10
-50.85
 11
-50.85
 20
-302.8
 21
-305.8
  0
LINE
  8
0
 10
-50.85
 11
-63.45
 20
-305.8
 21
-305.8
  0
LINE
  8
0
 10
-63.45
 11
-63.45
 20
-305.8
 21
-302.8
  0
LINE
  8
0
 10
-63.45
 11
-76.25
 20
-302.8
 21
-302.8
  0
LINE
  8
0
 10
-76.25
 11
-76.25
 20
-302.8
 21
-305.8
  0
LINE
  8
0
 10
-76.25
 11
-88.85
 20
-305.8
 21
-305.8
  0
LINE
  8
0
 10
-88.85
 11
-88.85
 20
-305.8
 21
-302.8
  0
LINE
  8
0
 10
-88.85
 11
-98.6
 20
-302.8
 21
-302.8
  0
LINE
  8
0
 10
-98.6
 11
-98.6
 20
-302.8
 21
-293.05
  0
LINE
  8
0
 10
-98.6
 11
-101.6
 20
-293.05
 21
-293.05
  0
LINE
  8
0
 10
-101.6
 11
-101.6
 20
-88.85
 21
-76.25
  0
LINE
  8
0
 10
-101.6
 11
-98.6
 20
-76.25
 21
-76.25
  0
LINE
  8
0
 10
-98.6
 11
-98.6
 20
-76.25
 21
-63.45
  0
LINE
  8
0
 10
-98.6
 11
-101.6
 20
-63.45
 21
-63.45
  0
LINE
  8
0
 10
-101.6
 11
-101.6
 20
-63.45
 21
-50.85
  0
LINE
  8
0
 10
-101.6
 11
-98.6
 20
-50.85
 21
-50.85
  0
LINE
  8
0
 10
-98.6
 11
-98.6
 20
-50.85
 21
-38.05
  0
LINE
  8
0
 10
-98.6
 11
-101.6
 20
-38.05
 21
-38.05
  0
LINE
  8
0
 10
-101.6
 11
-101.6
 20
-38.05
 21
-25.45
  0
LINE
  8
0
 10
-101.6
 11
-98.6
 20
-25.45
 21
-25.45
  0
LINE
  8
0
 10
-98.6
 11
-98.6
 20
-25.45
 21
-12.65
  0
LINE
  8
0
 10
-98.6
 11
-101.6
 20
-12.65
 21
-12.65
  0
LINE
  8
0
 10
-101.6
 11
-101.6
 20
-12.65
 21
-0.05
  0
LINE
  8
0
 10
-101.6
 11
-98.6
 20
-0.05
 21
-0.05
  0
LINE
  8
0
 10
-98.6
 11
-98.6
 20
-0.05
 21
12.75
  0
LINE
  8
0
 10
-98.6
 11
-101.6
 20
12.75
 21
12.75
  0
LINE
  8
0
 10
-101.6
 11
-101.6
 20
12.75
 21
25.35
  0
LINE
  8
0
 10
-101.6
 11
-98.6
 20
25.35
 21
25.35
  0
LINE
  8
0
 10
-98.6
 11
-98.6
 20
25.35
 21
38.15
  0
LINE
  8
0
 10
-98.6
 11
-101.6
 20
38.15
 21
38.15
  0
LINE
  8
0
 10
-101.6
 11
-101.6
 20
38.15
 21
50.75
  0
LINE
  8
0
 10
-101.6
 11
-98.6
 20
50.75
 21
50.75
  0
LINE
  8
0
 10
-98.6
 11
-98.6
 20
50.75
 21
63.55
  0
LINE
  8
0
 10
-98.6
 11
-101.6
 20
63.55
 21
63.55
  0
LINE
  8
0
 10
-101.6
 11
-101.6
 20
63.55
 21
76.15
  0
LINE
  8
0
 10
-101.6
 11
-98.6
 20
76.15
 21
76.15
  0
LINE
  8
0
 10
-98.6
 11
-98.6
 20
76.15
 21
88.95
  0
LINE
  8
0
 10
-98.6
 11
-101.6
 20
88.95
 21
88.95
  0
LINE
  8
0
 10
-101.6
 11
-101.6
 20
88.95
 21
98.6
  0
LINE
  8
0
 10
-101.6
 11
-101.55
 20
98.6
 21
98.6
  0
LINE
  8
0
 10
-101.55
 11
-101.55
 20
98.6
 21
101.55
  0
LINE
  8
0
 10
-101.55
 11
-98.6
 20
101.55
 21
101.55
  0
LINE
  8
0
 10
-98.6
 11
-98.6
 20
101.55
 21
101.6
  0
LINE
  8
0
 10
-98.6
 11
-88.95
 20
101.6
 21
101.6
  0
LINE
  8
0
 10
-88.95
 11
-88.95
 20
101.6
 21
98.6
  0
LINE
  8
0
 10
-88.95
 11
-76.15
 20
98.6
 21
98.6
  0
LINE
  8
0
 10
-76.15
 11
-76.15
 20
98.6
 21
101.6
  0
LINE
  8
0
 10
-76.15
 11
-63.55
 20
101.6
 21
101.6
  0
LINE
  8
0
 10
-63.55
 11
-63.55
 20
101.6
 21
98.6
  0
LINE
  8
0
 10
-63.55
 11
-50.75
 20
98.6
 21
98.6
  0
LINE
  8
0
 10
-50.75
 11
-50.75
 20
98.6
 21
101.6
  0
LINE
  8
0
 10
-50.75
 11
-38.15
 20
101.6
 21
101.6
  0
LINE
  8
0
 10
-38.15
 11
-38.15
 20
101.6
 21
98.6
  0
LINE
  8
0
 10
-38.15
 11
-25.35
 20
98.6
 21
98.6
  0
LINE
  8
0
 10
-25.35
 11
-25.35
 20
98.6
 21
101.6
  0
LINE
  8
0
 10
-25.35
 11
-12.75
 20
101.6
 21
101.6
  0
LINE
  8
0
 10
-12.75
 11
-12.75
 20
101.6
 21
98.6
  0
LINE
  8
0
 10
-12.75
 11
0.05
 20
98.6
 21
98.6
  0
LINE
  8
0
 10
0.05
 11
0.05
 20
98.6
 21
101.6
  0
LINE
  8
0
 10
0.05
 11
12.65
 20
101.6
 21
101.6
  0
LINE
  8
0
 10
12.65
 11
12.65
 20
101.6
 21
98.6
  0
LINE
  8
0
 10
12.65
 11
25.45
 20
98.6
 21
98.6
  0
LINE
  8
0
 10
25.45
 11
25.45
 20
98.6
 21
101.6
  0
LINE
  8
0
 10
25.45
 11
38.05
 20
101.6
 21
101.6
  0
LINE
  8
0
 10
38.05
 11
38.05
 20
101.6
 21
98.6
  0
LINE
  8
0
 10
38.05
 11
50.85
 20
98.6
 21
98.6
  0
LINE
  8
0
 10
50.85
 11
50.85
 20
98.6
 21
101.6
  0
LINE
  8
0
 10
50.85
 11
63.45
 20
101.6
 21
101.6
  0
LINE
  8
0
 10
63.45
 11
63.45
 20
101.6
 21
98.6
  0
LINE
  8
0
 10
63.45
 11
76.25
 20
98.6
 21
98.6
  0
LINE
  8
0
 10
76.25
 11
76.25
 20
98.6
 21
101.6
  0
LINE
  8
0
 10
76.25
 11
88.85
 20
101.6
 21
101.6
  0
LINE
  8
0
 10
88.85
 11
88.85
 20
101.6
 21
98.6
  0
LINE
  8
0
 10
88.85
 11
98.6
 20
98.6
 21
98.6
  0
LINE
  8
0
 10
98.6
 11
98.6
 20
98.6
 21
88.85
  0
LINE
  8
0
 10
98.6
 11
101.6
 20
88.85
 21
88.85
  0
LINE
  8
0
 10
101.6
 11
101.6
 20
88.85
 21
76.25
  0
LINE
  8
0
 10
101.6
 11
98.6
 20
76.25
 21
76.25
  0
LINE
  8
0
 10
98.6
 11
98.6
 20
76.25
 21
63.45
  0
LINE
  8
0
 10
98.6
 11
101.6
 20
63.45
 21
63.45
  0
LINE
  8
0
 10
101.6
 11
101.6
 20
63.45
 21
50.85
  0
LINE
  8
0
 10
101.6
 11
98.6
 20
50.85
 21
50.85
  0
LINE
  8
0
 10
98.6
 11
98.6
 20
50.85
 21
38.05
  0
LINE
  8
0
 10
98.6
 11
101.6
 20
38.05
 21
38.05
  0
LINE
  8
0
 10
101.6
 11
101.6
 20
38.05
 21
25.45
  0
LINE
  8
0
 10
101.6
 11
98.6
 20
25.45
 21
25.45
  0
LINE
  8
0
 10
98.6
 11
98.6
 20
25.45
 21
12.65
  0
LINE
  8
0
 10
98.6
 11
101.6
 20
12.65
 21
12.65
  0
LINE
  8
0
 10
101.6
 11
101.6
 20
12.65
 21
0.05
  0
LINE
  8
0
 10
101.6
 11
98.6
 20
0.05
 21
0.05
  0
LINE
  8
0
 10
98.6
 11
98.6
 20
0.05
 21
-12.75
  0
LINE
  8
0
 10
98.6
 11
101.6
 20
-12.75
 21
-12.75
  0
LINE
  8
0
 10
101.6
 11
101.6
 20
-12.75
 21
-25.35
  0
LINE
  8
0
 10
101.6
 11
98.6
 20
-25.35
 21
-25.35
  0
LINE
  8
0
 10
98.6
 11
98.6
 20
-25.35
 21
-38.15
  0
LINE
  8
0
 10
98.6
 11
101.6
 20
-38.15
 21
-38.15
  0
LINE
  8
0
 10
101.6
 11
101.6
 20
-38.15
 21
-50.75
  0
LINE
  8
0
 10
101.6
 11
98.6
 20
-50.75
 21
-50.75
  0
LINE
  8
0
 10
98.6
 11
98.6
 20
-50.75
 21
-63.55
  0
LINE
  8
0
 10
98.6
 11
101.6
 20
-63.55
 21
-63.55
  0
LINE
  8
0
 10
101.6
 11
101.6
 20
-63.55
 21
-76.15
  0
LINE
  8
0
 10
101.6
 11
98.6
 20
-76.15
 21
-76.15
  0
LINE
  8
0
 10
98.6
 11
98.6
 20
-76.15
 21
-88.95
  0
LINE
  8
0
 10
98.6
 11
101.6
 20
-88.95
 21
-88.95
  0
LINE
  8
0
 10
101.6
 11
101.6
 20
-88.95
 21
-98.6
  0
LINE
  8
0
 10
101.6
 11
101.55
 20
-98.6
 21
-98.6
  0
LINE
  8
0
 10
101.55
 11
101.55
 20
-98.6
 21
-101.55
  0
LINE
  8
0
 10
101.55
 11
98.6
 20
-101.55
 21
-101.55
  0
LINE
  8
0
 10
98.6
 11
98.6
 20
-101.55
 21
-101.6
  0
LINE
  8
0
 10
98.6
 11
88.95
 20
-101.6
 21
-101.6
  0
LINE
  8
0
 10
88.95
 11
88.95
 20
-101.6
 21
-98.6
  0
LINE
  8
0
 10
88.95
 11
76.15
 20
-98.6
 21
-98.6
  0
LINE
  8
0
 10
76.15
 11
76.15
 20
-98.6
 21
-101.6
  0
LINE
  8
0
 10
76.15
 11
63.55
 20
-101.6
 21
-101.6
  0
LINE
  8
0
 10
63.55
 11
63.55
 20
-101.6
 21
-98.6
  0
LINE
  8
0
 10
63.55
 11
50.75
 20
-98.6
 21
-98.6
  0
LINE
  8
0
 10
50.75
 11
50.75
 20
-98.6
 21
-101.6
  0
LINE
  8
0
 10
50.75
 11
38.15
 20
-101.6
 21
-101.6
  0
LINE
  8
0
 10
38.15
 11
38.15
 20
-101.6
 21
-98.6
  0
LINE
  8
0
 10
38.15
 11
25.35
 20
-98.6
 21
-98.6
  0
LINE
  8
0
 10
25.35
 11
25.35
 20
-98.6
 21
-101.6
  0
LINE
  8
0
 10
25.35
 11
12.75
 20
-101.6
 21
-101.6
  0
LINE
  8
0
 10
12.75
 11
12.75
 20
-101.6
 21
-98.6
  0
LINE
  8
0
 10
12.75
 11
-0.05
 20
-98.6
 21
-98.6
  0
LINE
  8
0
 10
-0.05
 11
-0.05
 20
-98.6
 21
-101.6
  0
LINE
  8
0
 10
-0.05
 11
-12.65
 20
-101.6
 21
-101.6
  0
LINE
  8
0
 10
-12.65
 11
-12.65
 20
-101.6
 21
-98.6
  0
LINE
  8
0
 10
-12.65
 11
-25.45
 20
-98.6
 21
-98.6
  0
LINE
  8
0
 10
-25.45
 11
-25.45
 20
-98.6
 21
-101.6
  0
LINE
  8
0
 10
-25.45
 11
-38.05
 20
-101.6
 21
-101.6
  0
LINE
  8
0
 10
-38.05
 11
-38.05
 20
-101.6
 21
-98.6
  0
LINE
  8
0
 10
-38.05
 11
-50.85
 20
-98.6
 21
-98.6
  0
LINE
  8
0
 10
-50.85
 11
-50.85
 20
-98.6
 21
-101.6
  0
LINE
  8
0
 10
-50.85
 11
-63.45
 20
-101.6
 21
-101.6
  0
LINE
  8
0
 10
-63.45
 11
-63.45
 20
-101.6
 21
-98.6
  0
LINE
  8
0
 10
-63.45
 11
-76.25
 20
-98.6
 21
-98.6
  0
LINE
  8
0
 10
-76.25
 11
-76.25
 20
-98.6
 21
-101.6
  0
LINE
  8
0
 10
-76.25
 11
-88.85
 20
-101.6
 21
-101.6
  0
LINE
  8
0
 10
-88.85
 11
-88.85
 20
-101.6
 21
-98.6
  0
LINE
  8
0
 10
-88.85
 11
-98.6
 20
-98.6
 21
-98.6
  0
LINE
  8
0
 10
-98.6
 11
-98.6
 20
-98.6
 21
-88.85
  0
LINE
  8
0
 10
-98.6
 11
-101.6
 20
-88.85
 21
-88.85
  0
LINE
  8
0
 10
102.6
 11
102.6
 20
-302.8
 21
-293.15
  0
LINE
  8
0
 10
102.6
 11
105.6
 20
-293.15
 21
-293.15
  0
LINE
  8
0
 10
105.6
 11
105.6
 20
-293.15
 21
-280.35
  0
LINE
  8
0
 10
105.6
 11
102.6
 20
-280.35
 21
-280.35
  0
LINE
  8
0
 10
102.6
 11
102.6
 20
-280.35
 21
-267.75
  0
LINE
  8
0
 10
102.6
 11
105.6
 20
-267.75
 21
-267.75
  0
LINE
  8
0
 10
105.6
 11
105.6
 20
-267.75
 21
-254.95
  0
LINE
  8
0
 10
105.6
 11
102.6
 20
-254.95
 21
-254.95
  0
LINE
  8
0
 10
102.6
 11
102.6
 20
-254.95
 21
-242.35
  0
LINE
  8
0
 10
102.6
 11
105.6
 20
-242.35
 21
-242.35
  0
LINE
  8
0
 10
105.6
 11
105.6
 20
-242.35
 21
-229.55
  0
LINE
  8
0
 10
105.6
 11
102.6
 20
-229.55
 21
-229.55
  0
LINE
  8
0
 10
102.6
 11
102.6
 20
-229.55
 21
-216.95
  0
LINE
  8
0
 10
102.6
 11
105.6
 20
-216.95
 21
-216.95
  0
LINE
  8
0
 10
105.6
 11
105.6
 20
-216.95
 21
-204.15
  0
LINE
  8
0
 10
105.6
 11
102.6
 20
-204.15
 21
-204.15
  0
LINE
  8
0
 10
102.6
 11
102.6
 20
-204.15
 21
-191.55
  0
LINE
  8
0
 10
102.6
 11
105.6
 20
-191.55
 21
-191.55
  0
LINE
  8
0
 10
105.6
 11
105.6
 20
-191.55
 21
-178.75
  0
LINE
  8
0
 10
105.6
 11
102.6
 20
-178.75
 21
-178.75
  0
LINE
  8
0
 10
102.6
 11
102.6
 20
-178.75
 21
-166.15
  0
LINE
  8
0
 10
102.6
 11
105.6
 20
-166.15
 21
-166.15
  0
LINE
  8
0
 10
105.6
 11
105.6
 20
-166.15
 21
-153.35
  0
LINE
  8
0
 10
105.6
 11
102.6
 20
-153.35
 21
-153.35
  0
LINE
  8
0
 10
102.6
 11
102.6
 20
-153.35
 21
-140.75
  0
LINE
  8
0
 10
102.6
 11
105.6
 20
-140.75
 21
-140.75
  0
LINE
  8
0
 10
105.6
 11
105.6
 20
-140.75
 21
-127.95
  0
LINE
  8
0
 10
105.6
 11
102.6
 20
-127.95
 21
-127.95
  0
LINE
  8
0
 10
102.6
 11
102.6
 20
-127.95
 21
-115.35
  0
LINE
  8
0
 10
102.6
 11
105.6
 20
-115.35
 21
-115.35
  0
LINE
  8
0
 10
105.6
 11
105.6
 20
-115.35
 21
-102.6
  0
LINE
  8
0
 10
105.6
 11
115.25
 20
-102.6
 21
-102.6
  0
LINE
  8
0
 10
115.25
 11
115.25
 20
-102.6
 21
-105.6
  0
LINE
  8
0
 10
115.25
 11
128.05
 20
-105.6
 21
-105.6
  0
LINE
  8
0
 10
128.05
 11
128.05
 20
-105.6
 21
-102.6
  0
LINE
  8
0
 10
128.05
 11
140.65
 20
-102.6
 21
-102.6
  0
LINE
  8
0
 10
140.65
 11
140.65
 20
-102.6
 21
-105.6
  0
LINE
  8
0
 10
140.65
 11
153.45
 20
-105.6
 21
-105.6
  0
LINE
  8
0
 10
153.45
 11
153.45
 20
-105.6
 21
-102.6
  0
LINE
  8
0
 10
153.45
 11
166.05
 20
-102.6
 21
-102.6
  0
LINE
  8
0
 10
166.05
 11
166.05
 20
-102.6
 21
-105.6
  0
LINE
  8
0
 10
166.05
 11
178.85
 20
-105.6
 21
-105.6
  0
LINE
  8
0
 10
178.85
 11
178.85
 20
-105.6
 21
-102.6
  0
LINE
  8
0
 10
178.85
 11
191.45
 20
-102.6
 21
-102.6
  0
LINE
  8
0
 10
191.45
 11
191.45
 20
-102.6
 21
-105.6
  0
LINE
  8
0
 10
191.45
 11
204.25
 20
-105.6
 21
-105.6
  0
LINE
  8
0
 10
204.25
 11
204.25
 20
-105.6
 21
-102.6
  0
LINE
  8
0
 10
204.25
 11
216.85
 20
-102.6
 21
-102.6
  0
LINE
  8
0
 10
216.85
 11
216.85
 20
-102.6
 21
-105.6
  0
LINE
  8
0
 10
216.85
 11
229.65
 20
-105.6
 21
-105.6
  0
LINE
  8
0
 10
229.65
 11
229.65
 20
-105.6
 21
-102.6
  0
LINE
  8
0
 10
229.65
 11
242.25
 20
-102.6
 21
-102.6
  0
LINE
  8
0
 10
242.25
 11
242.25
 20
-102.6
 21
-105.6
  0
LINE
  8
0
 10
242.25
 11
255.05
 20
-105.6
 21
-105.6
  0
LINE
  8
0
 10
255.05
 11
255.05
 20
-105.6
 21
-102.6
  0
LINE
  8
0
 10
255.05
 11
267.65
 20
-102.6
 21
-102.6
  0
LINE
  8
0
 10
267.65
 11
267.65
 20
-102.6
 21
-105.6
  0
LINE
  8
0
 10
267.65
 11
280.45
 20
-105.6
 21
-105.6
  0
LINE
  8
0
 10
280.45
 11
280.45
 20
-105.6
 21
-102.6
  0
LINE
  8
0
 10
280.45
 11
293.05
 20
-102.6
 21
-102.6
  0
LINE
  8
0
 10
293.05
 11
293.05
 20
-102.6
 21
-105.6
  0
LINE
  8
0
 10
293.05
 11
305.8
 20
-105.6
 21
-105.6
  0
LINE
  8
0
 10
305.8
 11
305.8
 20
-105.6
 21
-115.25
  0
LINE
  8
0
 10
305.8
 11
302.8
 20
-115.25
 21
-115.25
  0
LINE
  8
0
 10
302.8
 11
302.8
 20
-115.25
 21
-128.05
  0
LINE
  8
0
 10
302.8
 11
305.8
 20
-128.05
 21
-128.05
  0
LINE
  8
0
 10
305.8
 11
305.8
 20
-128.05
 21
-140.65
  0
LINE
  8
0
 10
305.8
 11
302.8
 20
-140.65
 21
-140.65
  0
LINE
  8
0
 10
302.8
 11
302.8
 20
-140.65
 21
-153.45
  0
LINE
  8
0
 10
302.8
 11
305.8
 20
-153.45
 21
-153.45
  0
LINE
  8
0
 10
305.8
 11
305.8
 20
-153.45
 21
-166.05
  0
LINE
  8
0
 10
305.8
 11
302.8
 20
-166.05
 21
-166.05
  0
LINE
  8
0
 10
302.8
 11
302.8
 20
-166.05
 21
-178.85
  0
LINE
  8
0
 10
302.8
 11
305.8
 20
-178.85
 21
-178.85
  0
LINE
  8
0
 10
305.8
 11
305.8
 20
-178.85
 21
-191.45
  0
LINE
  8
0
 10
305.8
 11
302.8
 20
-191.45
 21
-191.45
  0
LINE
  8
0
 10
302.8
 11
302.8
 20
-191.45
 21
-204.25
  0
LINE
  8
0
 10
302.8
 11
305.8
 20
-204.25
 21
-204.25
  0
LINE
  8
0
 10
305.8
 11
305.8
 20
-204.25
 21
-216.85
  0
LINE
  8
0
 10
305.8
 11
302.8
 20
-216.85
 21
-216.85
  0
LINE
  8
0
 10
302.8
 11
302.8
 20
-216.85
 21
-229.65
  0
LINE
  8
0
 10
302.8
 11
305.8
 20
-229.65
 21
-229.65
  0
LINE
  8
0
 10
305.8
 11
305.8
 20
-229.65
 21
-242.25
  0
LINE
  8
0
 10
305.8
 11
302.8
 20
-242.25
 21
-242.25
  0
LINE
  8
0
 10
302.8
 11
302.8
 20
-242.25
 21
-255.05
  0
LINE
  8
0
 10
302.8
 11
305.8
 20
-255.05
 21
-255.05
  0
LINE
  8
0
 10
305.8
 11
305.8
 20
-255.05
 21
-267.65
  0
LINE
  8
0
 10
305.8
 11
302.8
 20
-267.65
 21
-267.65
  0
LINE
  8
0
 10
302.8
 11
302.8
 20
-267.65
 21
-280.45
  0
LINE
  8
0
 10
302.8
 11
305.8
 20
-280.45
 21
-280.45
  0
LINE
  8
0
 10
305.8
 11
305.8
 20
-280.45
 21
-293.05
  0
LINE
  8
0
 10
305.8
 11
302.8
 20
-293.05
 21
-293.05
  0
LINE
  8
0
 10
302.8
 11
302.8
 20
-293.05
 21
-305.8
  0
LINE
  8
0
 10
302.8
 11
293.15
 20
-305.8
 21
-305.8
  0
LINE
  8
0
 10
293.15
 11
293.15
 20
-305.8
 21
-302.8
  0
LINE
  8
0
 10
293.15
 11
280.35
 20
-302.8
 21
-302.8
  0
LINE
  8
0
 10
280.35
 11
280.35
 20
-302.8
 21
-305.8
  0
LINE
  8
0
 10
280.35
 11
267.75
 20
-305.8
 21
-305.8
  0
LINE
  8
0
 10
267.75
 11
267.75
 20
-305.8
 21
-302.8
  0
LINE
  8
0
 10
267.75
 11
254.95
 20
-302.8
 21
-302.8
  0
LINE
  8
0
 10
254.95
 11
254.95
 20
-302.8
 21
-305.8
  0
LINE
  8
0
 10
254.95
 11
242.35
 20
-305.8
 21
-305.8
  0
LINE
  8
0
 10
242.35
 11
242.35
 20
-305.8
 21
-302.8
  0
LINE
  8
0
 10
242.35
 11
229.55
 20
-302.8
 21
-302.8
  0
LINE
  8
0
 10
229.55
 11
229.55
 20
-302.8
 21
-305.8
  0
LINE
  8
0
 10
229.55
 11
216.95
 20
-305.8
 21
-305.8
  0
LINE
  8
0
 10
216.95
 11
216.95
 20
-305.8
 21
-302.8
  0
LINE
  8
0
 10
216.95
 11
204.15
 20
-302.8
 21
-302.8
  0
LINE
  8
0
 10
204.15
 11
204.15
 20
-302.8
 21
-305.8
  0
LINE
  8
0
 10
204.15
 11
191.55
 20
-305.8
 21
-305.8
  0
LINE
  8
0
 10
191.55
 11
191.55
 20
-305.8
 21
-302.8
  0
LINE
  8
0
 10
191.55
 11
178.75
 20
-302.8
 21
-302.8
  0
LINE
  8
0
 10
178.75
 11
178.75
 20
-302.8
 21
-305.8
  0
LINE
  8
0
 10
178.75
 11
166.15
 20
-305.8
 21
-305.8
  0
LINE
  8
0
 10
166.15
 11
166.15
 20
-305.8
 21
-302.8
  0
LINE
  8
0
 10
166.15
 11
153.35
 20
-302.8
 21
-302.8
  0
LINE
  8
0
 10
153.35
 11
153.35
 20
-302.8
 21
-305.8
  0
LINE
  8
0
 10
153.35
 11
140.75
 20
-305.8
 21
-305.8
  0
LINE
  8
0
 10
140.75
 11
140.75
 20
-305.8
 21
-302.8
  0
LINE
  8
0
 10
140.75
 11
127.95
 20
-302.8
 21
-302.8
  0
LINE
  8
0
 10
127.95
 11
127.95
 20
-302.8
 21
-305.8
  0
LINE
  8
0
 10
127.95
 11
115.35
 20
-305.8
 21
-305.8
  0
LINE
  8
0
 10
115.35
 11
115.35
 20
-305.8
 21
-302.8
  0
LINE
  8
0
 10
115.35
 11
102.6
 20
-302.8
 21
-302.8
  0
LINE
  8
0
 10
102.6
 11
102.6
 20
-88.85
 21
-76.25
  0
LINE
  8
0
 10
102.6
 11
105.6
 20
-76.25
 21
-76.25
  0
LINE
  8
0
 10
105.6
 11
105.6
 20
-76.25
 21
-63.45
  0
LINE
  8
0
 10
105.6
 11
102.6
 20
-63.45
 21
-63.45
  0
LINE
  8
0
 10
102.6
 11
102.6
 20
-63.45
 21
-50.85
  0
LINE
  8
0
 10
102.6
 11
105.6
 20
-50.85
 21
-50.85
  0
LINE
  8
0
 10
105.6
 11
105.6
 20
-50.85
 21
-38.05
  0
LINE
  8
0
 10
105.6
 11
102.6
 20
-38.05
 21
-38.05
  0
LINE
  8
0
 10
102.6
 11
102.6
 20
-38.05
 21
-25.45
  0
LINE
  8
0
 10
102.6
 11
105.6
 20
-25.45
 21
-25.45
  0
LINE
  8
0
 10
105.6
 11
105.6
 20
-25.45
 21
-12.65
  0
LINE
  8
0
 10
105.6
 11
102.6
 20
-12.65
 21
-12.65
  0
LINE
  8
0
 10
102.6
 11
102.6
 20
-12.65
 21
-0.05
  0
LINE
  8
0
 10
102.6
 11
105.6
 20
-0.05
 21
-0.05
  0
LINE
  8
0
 10
105.6
 11
105.6
 20
-0.05
 21
12.75
  0
LINE
  8
0
 10
105.6
 11
102.6
 20
12.75
 21
12.75
  0
LINE
  8
0
 10
102.6
 11
102.6
 20
12.75
 21
25.35
  0
LINE
  8
0
 10
102.6
 11
105.6
 20
25.35
 21
25.35
  0
LINE
  8
0
 10
105.6
 11
105.6
 20
25.35
 21
38.15
  0
LINE
  8
0
 10
105.6
 11
102.6
 20
38.15
 21
38.15
  0
LINE
  8
0
 10
102.6
 11
102.6
 20
38.15
 21
50.75
  0
LINE
  8
0
 10
102.6
 11
105.6
 20
50.75
 21
50.75
  0
LINE
  8
0
 10
105.6
 11
105.6
 20
50.75
 21
63.55
  0
LINE
  8
0
 10
105.6
 11
102.6
 20
63.55
 21
63.55
  0
LINE
  8
0
 10
102.6
 11
102.6
 20
63.55
 21
76.15
  0
LINE
  8
0
 10
102.6
 11
105.6
 20
76.15
 21
76.15
  0
LINE
  8
0
 10
105.6
 11
105.6
 20
76.15
 21
88.95
  0
LINE
  8
0
 10
105.6
 11
102.6
 20
88.95
 21
88.95
  0
LINE
  8
0
 10
102.6
 11
102.6
 20
88.95
 21
98.6
  0
LINE
  8
0
 10
102.6
 11
102.65
 20
98.6
 21
98.6
  0
LINE
  8
0
 10
102.65
 11
102.65
 20
98.6
 21
101.55
  0
LINE
  8
0
 10
102.65
 11
105.6
 20
101.55
 21
101.55
  0
LINE
  8
0
 10
105.6
 11
105.6
 20
101.55
 21
101.6
  0
LINE
  8
0
 10
105.6
 11
115.25
 20
101.6
 21
101.6
  0
LINE
  8
0
 10
115.25
 11
115.25
 20
101.6
 21
98.6
  0
LINE
  8
0
 10
115.25
 11
128.05
 20
98.6
 21
98.6
  0
LINE
  8
0
 10
128.05
 11
128.05
 20
98.6
 21
101.6
  0
LINE
  8
0
 10
128.05
 11
140.65
 20
101.6
 21
101.6
  0
LINE
  8
0
 10
140.65
 11
140.65
 20
101.6
 21
98.6
  0
LINE
  8
0
 10
140.65
 11
153.45
 20
98.6
 21
98.6
  0
LINE
  8
0
 10
153.45
 11
153.45
 20
98.6
 21
101.6
  0
LINE
  8
0
 10
153.45
 11
166.05
 20
101.6
 21
101.6
  0
LINE
  8
0
 10
166.05
 11
166.05
 20
101.6
 21
98.6
  0
LINE
  8
0
 10
166.05
 11
178.85
 20
98.6
 21
98.6
  0
LINE
  8
0
 10
178.85
 11
178.85
 20
98.6
 21
101.6
  0
LINE
  8
0
 10
178.85
 11
191.45
 20
101.6
 21
101.6
  0
LINE
  8
0
 10
191.45
 11
191.45
 20
101.6
 21
98.6
  0
LINE
  8
0
 10
191.45
 11
204.25
 20
98.6
 21
98.6
  0
LINE
  8
0
 10
204.25
 11
204.25
 20
98.6
 21
101.6
  0
LINE
  8
0
 10
204.25
 11
216.85
 20
101.6
 21
101.6
  0
LINE
  8
0
 10
216.85
 11
216.85
 20
101.6
 21
98.6
  0
LINE
  8
0
 10
216.85
 11
229.65
 20
98.6
 21
98.6
  0
LINE
  8
0
 10
229.65
 11
229.65
 20
98.6
 21
101.6
  0
LINE
  8
0
 10
229.65
 11
242.25
 20
101.6
 21
101.6
  0
LINE
  8
0
 10
242.25
 11
242.25
 20
101.6
 21
98.6
  0
LINE
  8
0
 10
242.25
 11
255.05
 20
98.6
 21
98.6
  0
LINE
  8
0
 10
255.05
 11
255.05
 20
98.6
 21
101.6
  0
LINE
  8
0
 10
255.05
 11
267.65
 20
101.6
 21
101.6
  0
LINE
  8
0
 10
267.65
 11
267.65
 20
101.6
 21
98.6
  0
LINE
  8
0
 10
267.65
 11
280.45
 20
98.6
 21
98.6
  0
LINE
  8
0
 10
280.45
 11
280.45
 20
98.6
 21
101.6
  0
LINE
  8
0
 10
280.45
 11
293.05
 20
101.6
 21
101.6
  0
LINE
  8
0
 10
293.05
 11
293.05
 20
101.6
 21
98.6
  0
LINE
  8
0
 10
293.05
 11
302.8
 20
98.6
 21
98.6
  0
LINE
  8
0
 10
302.8
 11
302.8
 20
98.6
 21
88.85
  0
LINE
  8
0
 10
302.8
 11
305.8
 20
88.85
 21
88.85
  0
LINE
  8
0
 10
305.8
 11
305.8
 20
88.85
 21
76.25
  0
LINE
  8
0
 10
305.8
 11
302.8
 20
76.25
 21
76.25
  0
LINE
  8
0
 10
302.8
 11
302.8
 20
76.25
 21
63.45
  0
LINE
  8
0
 10
302.8
 11
305.8
 20
63.45
 21
63.45
  0
LINE
  8
0
 10
305.8
 11
305.8
 20
63.45
 21
50.85
  0
LINE
  8
0
 10
305.8
 11
302.8
 20
50.85
 21
50.85
  0
LINE
  8
0
 10
302.8
 11
302.8
 20
50.85
 21
38.05
  0
LINE
  8
0
 10
302.8
 11
305.8
 20
38.05
 21
38.05
  0
LINE
  8
0
 10
305.8
 11
305.8
 20
38.05
 21
25.45
  0
LINE
  8
0
 10
305.8
 11
302.8
 20
25.45
 21
25.45
  0
LINE
  8
0
 10
302.8
 11
302.8
 20
25.45
 21
12.65
  0
LINE
  8
0
 10
302.8
 11
305.8
 20
12.65
 21
12.65
  0
LINE
  8
0
 10
305.8
 11
305.8
 20
12.65
 21
0.05
  0
LINE
  8
0
 10
305.8
 11
302.8
 20
0.05
 21
0.05
  0
LINE
  8
0
 10
302.8
 11
302.8
 20
0.05
 21
-12.75
  0
LINE
  8
0
 10
302.8
 11
305.8
 20
-12.75
 21
-12.75
  0
LINE
  8
0
 10
305.8
 11
305.8
 20
-12.75
 21
-25.35
  0
LINE
  8
0
 10
305.8
 11
302.8
 20
-25.35
 21
-25.35
  0
LINE
  8
0
 10
302.8
 11
302.8
 20
-25.35
 21
-38.15
  0
LINE
  8
0
 10
302.8
 11
305.8
 20
-38.15
 21
-38.15
  0
LINE
  8
0
 10
305.8
 11
305.8
 20
-38.15
 21
-50.75
  0
LINE
  8
0
 10
305.8
 11
302.8
 20
-50.75
 21
-50.75
  0
LINE
  8
0
 10
302.8
 11
302.8
 20
-50.75
 21
-63.55
  0
LINE
  8
0
 10
302.8
 11
305.8
 20
-63.55
 21
-63.55
  0
LINE
  8
0
 10
305.8
 11
305.8
 20
-63.55
 21
-76.15
  0
LINE
  8
0
 10
305.8
 11
302.8
 20
-76.15
 21
-76.15
  0
LINE
  8
0
 10
302.8
 11
302.8
 20
-76.15
 21
-88.95
  0
LINE
  8
0
 10
302.8
 11
305.8
 20
-88.95
 21
-88.95
  0
LINE
  8
0
 10
305.8
 11
305.8
 20
-88.95
 21
-98.6
  0
LINE
  8
0
 10
305.8
 11
305.75
 20
-98.6
 21
-98.6
  0
LINE
  8
0
 10
305.75
 11
305.75
 20
-98.6
 21
-101.55
  0
LINE
  8
0
 10
305.75
 11
302.8
 20
-101.55
 21
-101.55
  0
LINE
  8
0
 10
302.8
 11
302.8
 20
-101.55
 21
-101.6
  0
LINE
  8
0
 10
302.8
 11
293.15
 20
-101.6
 21
-101.6
  0
LINE
  8
0
 10
293.15
 11
293.15
 20
-101.6
 21
-98.6
  0
LINE
  8
0
 10
293.15
 11
280.35
 20
-98.6
 21
-98.6
  0
LINE
  8
0
 10
280.35
 11
280.35
 20
-98.6
 21
-101.6
  0
LINE
  8
0
 10
280.35
 11
267.75
 20
-101.6
 21
-101.6
  0
LINE
  8
0
 10
267.75
 11
267.75
 20
-101.6
 21
-98.6
  0
LINE
  8
0
 10
267.75
 11
254.95
 20
-98.6
 21
-98.6
  0
LINE
  8
0
 10
254.95
 11
254.95
 20
-98.6
 21
-101.6
  0
LINE
  8
0
 10
254.95
 11
242.35
 20
-101.6
 21
-101.6
  0
LINE
  8
0
 10
242.35
 11
242.35
 20
-101.6
 21
-98.6
  0
LINE
  8
0
 10
242.35
 11
229.55
 20
-98.6
 21
-98.6
  0
LINE
  8
0
 10
229.55
 11
229.55
 20
-98.6
 21
-101.6
  0
LINE
  8
0
 10
229.55
 11
216.95
 20
-101.6
 21
-101.6
  0
LINE
  8
0
 10
216.95
 11
216.95
 20
-101.6
 21
-98.6
  0
LINE
  8
0
 10
216.95
 11
204.15
 20
-98.6
 21
-98.6
  0
LINE
  8
0
 10
204.15
 11
204.15
 20
-98.6
 21
-101.6
  0
LINE
  8
0
 10
204.15
 11
191.55
 20
-101.6
 21
-101.6
  0
LINE
  8
0
 10
191.55
 11
191.55
 20
-101.6
 21
-98.6
  0
LINE
  8
0
 10
191.55
 11
178.75
 20
-98.6
 21
-98.6
  0
LINE
  8
0
 10
178.75
 11
178.75
 20
-98.6
 21
-101.6
  0
LINE
  8
0
 10
178.75
 11
166.15
 20
-101.6
 21
-101.6
  0
LINE
  8
0
 10
166.15
 11
166.15
 20
-101.6
 21
-98.6
  0
LINE
  8
0
 10
166.15
 11
153.35
 20
-98.6
 21
-98.6
  0
LINE
  8
0
 10
153.35
 11
153.35
 20
-98.6
 21
-101.6
  0
LINE
  8
0
 10
153.35
 11
140.75
 20
-101.6
 21
-101.6
  0
LINE
  8
0
 10
140.75
 11
140.75
 20
-101.6
 21
-98.6
  0
LINE
  8
0
 10
140.75
 11
127.95
 20
-98.6
 21
-98.6
  0
LINE
  8
0
 10
127.95
 11
127.95
 20
-98.6
 21
-101.6
  0
LINE
  8
0
 10
127.95
 11
115.35
 20
-101.6
 21
-101.6
  0
LINE
  8
0
 10
115.35
 11
115.35
 20
-101.6
 21
-98.6
  0
LINE
  8
0
 10
115.35
 11
105.6
 20
-98.6
 21
-98.6
  0
LINE
  8
0
 10
105.6
 11
105.6
 20
-98.6
 21
-88.85
  0
LINE
  8
0
 10
105.6
 11
102.6
 20
-88.85
 21
-88.85
  0
LINE
  8
0
 10
201.2
 11
201.773
 20
-204.2
 21
-202.437
  0
LINE
  8
0
 10
201.773
 11
203.273
 20
-202.437
 21
-201.347
  0
LINE
  8
0
 10
203.273
 11
205.127
 20
-201.347
 21
-201.347
  0
LINE
  8
0
 10
205.127
 11
206.627
 20
-201.347
 21
-202.437
  0
LINE
  8
0
 10
206.627
 11
207.2
 20
-202.437
 21
-204.2
  0
LINE
  8
0
 10
207.2
 11
206.627
 20
-204.2
 21
-205.963
  0
LINE
  8
0
 10
206.627
 11
205.127
 20
-205.963
 21
-207.053
  0
LINE
  8
0
 10
205.127
 11
203.273
 20
-207.053
 21
-207.053
  0
LINE
  8
0
 10
203.273
 11
201.773
 20
-207.053
 21
-205.963
  0
LINE
  8
0
 10
201.773
 11
201.2
 20
-205.963
 21
-204.2
  0
LINE
  8
0
 10
306.8
 11
306.8
 20
-293.05
 21
-280.45
  0
LINE
  8
0
 10
306.8
 11
309.8
 20
-280.45
 21
-280.45
  0
LINE
  8
0
 10
309.8
 11
309.8
 20
-280.45
 21
-267.65
  0
LINE
  8
0
 10
309.8
 11
306.8
 20
-267.65
 21
-267.65
  0
LINE
  8
0
 10
306.8
 11
306.8
 20
-267.65
 21
-255.05
  0
LINE
  8
0
 10
306.8
 11
309.8
 20
-255.05
 21
-255.05
  0
LINE
  8
0
 10
309.8
 11
309.8
 20
-255.05
 21
-242.25
  0
LINE
  8
0
 10
309.8
 11
306.8
 20
-242.25
 21
-242.25
  0
LINE
  8
0
 10
306.8
 11
306.8
 20
-242.25
 21
-229.65
  0
LINE
  8
0
 10
306.8
 11
309.8
 20
-229.65
 21
-229.65
  0
LINE
  8
0
 10
309.8
 11
309.8
 20
-229.65
 21
-216.85
  0
LINE
  8
0
 10
309.8
 11
306.8
 20
-216.85
 21
-216.85
  0
LINE
  8
0
 10
306.8
 11
306.8
 20
-216.85
 21
-204.25
  0
LINE
  8
0
 10
306.8
 11
309.8
 20
-204.25
 21
-204.25
  0
LINE
  8
0
 10
309.8
 11
309.8
 20
-204.25
 21
-191.45
  0
LINE
  8
0
 10
309.8
 11
306.8
 20
-191.45
 21
-191.45
  0
LINE
  8
0
 10
306.8
 11
306.8
 20
-191.45
 21
-178.85
  0
LINE
  8
0
 10
306.8
 11
309.8
 20
-178.85
 21
-178.85
  0
LINE
  8
0
 10
309.8
 11
309.8
 20
-178.85
 21
-166.05
  0
LINE
  8
0
 10
309.8
 11
306.8
 20
-166.05
 21
-166.05
  0
LINE
  8
0
 10
306.8
 11
306.8
 20
-166.05
 21
-153.45
  0
LINE
  8
0
 10
306.8
 11
309.8
 20
-153.45
 21
-153.45
  0
LINE
  8
0
 10
309.8
 11
309.8
 20
-153.45
 21
-140.65
  0
LINE
  8
0
 10
309.8
 11
306.8
 20
-140.65
 21
-140.65
  0
LINE
  8
0
 10
306.8
 11
306.8
 20
-140.65
 21
-128.05
  0
LINE
  8
0
 10
306.8
 11
309.8
 20
-128.05
 21
-128.05
  0
LINE
  8
0
 10
309.8
 11
309.8
 20
-128.05
 21
-115.25
  0
LINE
  8
0
 10
309.8
 11
306.8
 20
-115.25
 21
-115.25
  0
LINE
  8
0
 10
306.8
 11
306.8
 20
-115.25
 21
-105.6
  0
LINE
  8
0
 10
306.8
 11
319.55
 20
-105.6
 21
-105.6
  0
LINE
  8
0
 10
319.55
 11
319.55
 20
-105.6
 21
-102.6
  0
LINE
  8
0
 10
319.55
 11
332.15
 20
-102.6
 21
-102.6
  0
LINE
  8
0
 10
332.15
 11
332.15
 20
-102.6
 21
-105.6
  0
LINE
  8
0
 10
332.15
 11
344.95
 20
-105.6
 21
-105.6
  0
LINE
  8
0
 10
344.95
 11
344.95
 20
-105.6
 21
-102.6
  0
LINE
  8
0
 10
344.95
 11
357.55
 20
-102.6
 21
-102.6
  0
LINE
  8
0
 10
357.55
 11
357.55
 20
-102.6
 21
-105.6
  0
LINE
  8
0
 10
357.55
 11
370.35
 20
-105.6
 21
-105.6
  0
LINE
  8
0
 10
370.35
 11
370.35
 20
-105.6
 21
-102.6
  0
LINE
  8
0
 10
370.35
 11
382.95
 20
-102.6
 21
-102.6
  0
LINE
  8
0
 10
382.95
 11
382.95
 20
-102.6
 21
-105.6
  0
LINE
  8
0
 10
382.95
 11
395.75
 20
-105.6
 21
-105.6
  0
LINE
  8
0
 10
395.75
 11
395.75
 20
-105.6
 21
-102.6
  0
LINE
  8
0
 10
395.75
 11
408.35
 20
-102.6
 21
-102.6
  0
LINE
  8
0
 10
408.35
 11
408.35
 20
-102.6
 21
-105.6
  0
LINE
  8
0
 10
408.35
 11
421.15
 20
-105.6
 21
-105.6
  0
LINE
  8
0
 10
421.15
 11
421.15
 20
-105.6
 21
-102.6
  0
LINE
  8
0
 10
421.15
 11
433.75
 20
-102.6
 21
-102.6
  0
LINE
  8
0
 10
433.75
 11
433.75
 20
-102.6
 21
-105.6
  0
LINE
  8
0
 10
433.75
 11
446.55
 20
-105.6
 21
-105.6
  0
LINE
  8
0
 10
446.55
 11
446.55
 20
-105.6
 21
-102.6
  0
LINE
  8
0
 10
446.55
 11
459.15
 20
-102.6
 21
-102.6
  0
LINE
  8
0
 10
459.15
 11
459.15
 20
-102.6
 21
-105.6
  0
LINE
  8
0
 10
459.15
 11
471.95
 20
-105.6
 21
-105.6
  0
LINE
  8
0
 10
471.95
 11
471.95
 20
-105.6
 21
-102.6
  0
LINE
  8
0
 10
471.95
 11
484.55
 20
-102.6
 21
-102.6
  0
LINE
  8
0
 10
484.55
 11
484.55
 20
-102.6
 21
-105.6
  0
LINE
  8
0
 10
484.55
 11
497.35
 20
-105.6
 21
-105.6
  0
LINE
  8
0
 10
497.35
 11
497.35
 20
-105.6
 21
-102.6
  0
LINE
  8
0
 10
497.35
 11
507
 20
-102.6
 21
-102.6
  0
LINE
  8
0
 10
507
 11
507
 20
-102.6
 21
-115.35
  0
LINE
  8
0
 10
507
 11
510
 20
-115.35
 21
-115.35
  0
LINE
  8
0
 10
510
 11
510
 20
-115.35
 21
-127.95
  0
LINE
  8
0
 10
510
 11
507
 20
-127.95
 21
-127.95
  0
LINE
  8
0
 10
507
 11
507
 20
-127.95
 21
-140.75
  0
LINE
  8
0
 10
507
 11
510
 20
-140.75
 21
-140.75
  0
LINE
  8
0
 10
510
 11
510
 20
-140.75
 21
-153.35
  0
LINE
  8
0
 10
510
 11
507
 20
-153.35
 21
-153.35
  0
LINE
  8
0
 10
507
 11
507
 20
-153.35
 21
-166.15
  0
LINE
  8
0
 10
507
 11
510
 20
-166.15
 21
-166.15
  0
LINE
  8
0
 10
510
 11
510
 20
-166.15
 21
-178.75
  0
LINE
  8
0
 10
510
 11
507
 20
-178.75
 21
-178.75
  0
LINE
  8
0
 10
507
 11
507
 20
-178.75
 21
-191.55
  0
LINE
  8
0
 10
507
 11
510
 20
-191.55
 21
-191.55
  0
LINE
  8
0
 10
510
 11
510
 20
-191.55
 21
-204.15
  0
LINE
  8
0
 10
510
 11
507
 20
-204.15
 21
-204.15
  0
LINE
  8
0
 10
507
 11
507
 20
-204.15
 21
-216.95
  0
LINE
  8
0
 10
507
 11
510
 20
-216.95
 21
-216.95
  0
LINE
  8
0
 10
510
 11
510
 20
-216.95
 21
-229.55
  0
LINE
  8
0
 10
510
 11
507
 20
-229.55
 21
-229.55
  0
LINE
  8
0
 10
507
 11
507
 20
-229.55
 21
-242.35
  0
LINE
  8
0
 10
507
 11
510
 20
-242.35
 21
-242.35
  0
LINE
  8
0
 10
510
 11
510
 20
-242.35
 21
-254.95
  0
LINE
  8
0
 10
510
 11
507
 20
-254.95
 21
-254.95
  0
LINE
  8
0
 10
507
 11
507
 20
-254.95
 21
-267.75
  0
LINE
  8
0
 10
507
 11
510
 20
-267.75
 21
-267.75
  0
LINE
  8
0
 10
510
 11
510
 20
-267.75
 21
-280.35
  0
LINE
  8
0
 10
510
 11
507
 20
-280.35
 21
-280.35
  0
LINE
  8
0
 10
507
 11
507
 20
-280.35
 21
-293.15
  0
LINE
  8
0
 10
507
 11
510
 20
-293.15
 21
-293.15
  0
LINE
  8
0
 10
510
 11
510
 20
-293.15
 21
-302.8
  0
LINE
  8
0
 10
510
 11
497.25
 20
-302.8
 21
-302.8
  0
LINE
  8
0
 10
497.25
 11
497.25
 20
-302.8
 21
-305.8
  0
LINE
  8
0
 10
497.25
 11
484.65
 20
-305.8
 21
-305.8
  0
LINE
  8
0
 10
484.65
 11
484.65
 20
-305.8
 21
-302.8
  0
LINE
  8
0
 10
484.65
 11
471.85
 20
-302.8
 21
-302.8
  0
LINE
  8
0
 10
471.85
 11
471.85
 20
-302.8
 21
-305.8
  0
LINE
  8
0
 10
471.85
 11
459.25
 20
-305.8
 21
-305.8
  0
LINE
  8
0
 10
459.25
 11
459.25
 20
-305.8
 21
-302.8
  0
LINE
  8
0
 10
459.25
 11
446.45
 20
-302.8
 21
-302.8
  0
LINE
  8
0
 10
446.45
 11
446.45
 20
-302.8
 21
-305.8
  0
LINE
  8
0
 10
446.45
 11
433.85
 20
-305.8
 21
-305.8
  0
LINE
  8
0
 10
433.85
 11
433.85
 20
-305.8
 21
-302.8
  0
LINE
  8
0
 10
433.85
 11
421.05
 20
-302.8
 21
-302.8
  0
LINE
  8
0
 10
421.05
 11
421.05
 20
-302.8
 21
-305.8
  0
LINE
  8
0
 10
421.05
 11
408.45
 20
-305.8
 21
-305.8
  0
LINE
  8
0
 10
408.45
 11
408.45
 20
-305.8
 21
-302.8
  0
LINE
  8
0
 10
408.45
 11
395.65
 20
-302.8
 21
-302.8
  0
LINE
  8
0
 10
395.65
 11
395.65
 20
-302.8
 21
-305.8
  0
LINE
  8
0
 10
395.65
 11
383.05
 20
-305.8
 21
-305.8
  0
LINE
  8
0
 10
383.05
 11
383.05
 20
-305.8
 21
-302.8
  0
LINE
  8
0
 10
383.05
 11
370.25
 20
-302.8
 21
-302.8
  0
LINE
  8
0
 10
370.25
 11
370.25
 20
-302.8
 21
-305.8
  0
LINE
  8
0
 10
370.25
 11
357.65
 20
-305.8
 21
-305.8
  0
LINE
  8
0
 10
357.65
 11
357.65
 20
-305.8
 21
-302.8
  0
LINE
  8
0
 10
357.65
 11
344.85
 20
-302.8
 21
-302.8
  0
LINE
  8
0
 10
344.85
 11
344.85
 20
-302.8
 21
-305.8
  0
LINE
  8
0
 10
344.85
 11
332.25
 20
-305.8
 21
-305.8
  0
LINE
  8
0
 10
332.25
 11
332.25
 20
-305.8
 21
-302.8
  0
LINE
  8
0
 10
332.25
 11
319.45
 20
-302.8
 21
-302.8
  0
LINE
  8
0
 10
319.45
 11
319.45
 20
-302.8
 21
-305.8
  0
LINE
  8
0
 10
319.45
 11
309.8
 20
-305.8
 21
-305.8
  0
LINE
  8
0
 10
309.8
 11
309.8
 20
-305.8
 21
-293.05
  0
LINE
  8
0
 10
309.8
 11
306.8
 20
-293.05
 21
-293.05
  0
LINE
  8
0
 10
306.8
 11
306.8
 20
-88.85
 21
-76.25
  0
LINE
  8
0
 10
306.8
 11
309.8
 20
-76.25
 21
-76.25
  0
LINE
  8
0
 10
309.8
 11
309.8
 20
-76.25
 21
-63.45
  0
LINE
  8
0
 10
309.8
 11
306.8
 20
-63.45
 21
-63.45
  0
LINE
  8
0
 10
306.8
 11
306.8
 20
-63.45
 21
-50.85
  0
LINE
  8
0
 10
306.8
 11
309.8
 20
-50.85
 21
-50.85
  0
LINE
  8
0
 10
309.8
 11
309.8
 20
-50.85
 21
-38.05
  0
LINE
  8
0
 10
309.8
 11
306.8
 20
-38.05
 21
-38.05
  0
LINE
  8
0
 10
306.8
 11
306.8
 20
-38.05
 21
-25.45
  0
LINE
  8
0
 10
306.8
 11
309.8
 20
-25.45
 21
-25.45
  0
LINE
  8
0
 10
309.8
 11
309.8
 20
-25.45
 21
-12.65
  0
LINE
  8
0
 10
309.8
 11
306.8
 20
-12.65
 21
-12.65
  0
LINE
  8
0
 10
306.8
 11
306.8
 20
-12.65
 21
-0.05
  0
LINE
  8
0
 10
306.8
 11
309.8
 20
-0.05
 21
-0.05
  0
LINE
  8
0
 10
309.8
 11
309.8
 20
-0.05
 21
12.75
  0
LINE
  8
0
 10
309.8
 11
306.8
 20
12.75
 21
12.75
  0
LINE
  8
0
 10
306.8
 11
306.8
 20
12.75
 21
25.35
  0
LINE
  8
0
 10
306.8
 11
309.8
 20
25.35
 21
25.35
  0
LINE
  8
0
 10
309.8
 11
309.8
 20
25.35
 21
38.15
  0
LINE
  8
0
 10
309.8
 11
306.8
 20
38.15
 21
38.15
  0
LINE
  8
0
 10
306.8
 11
306.8
 20
38.15
 21
50.75
  0
LINE
  8
0
 10
306.8
 11
309.8
 20
50.75
 21
50.75
  0
LINE
  8
0
 10
309.8
 11
309.8
 20
50.75
 21
63.55
  0
LINE
  8
0
 10
309.8
 11
306.8
 20
63.55
 21
63.55
  0
LINE
  8
0
 10
306.8
 11
306.8
 20
63.55
 21
76.15
  0
LINE
  8
0
 10
306.8
 11
309.8
 20
76.15
 21
76.15
  0
LINE
  8
0
 10
309.8
 11
309.8
 20
76.15
 21
88.95
  0
LINE
  8
0
 10
309.8
 11
306.8
 20
88.95
 21
88.95
  0
LINE
  8
0
 10
306.8
 11
306.8
 20
88.95
 21
98.6
  0
LINE
  8
0
 10
306.8
 11
306.85
 20
98.6
 21
98.6
  0
LINE
  8
0
 10
306.85
 11
306.85
 20
98.6
 21
101.55
  0
LINE
  8
0
 10
306.85
 11
309.8
 20
101.55
 21
101.55
  0
LINE
  8
0
 10
309.8
 11
309.8
 20
101.55
 21
101.6
  0
LINE
  8
0
 10
309.8
 11
319.45
 20
101.6
 21
101.6
  0
LINE
  8
0
 10
319.45
 11
319.45
 20
101.6
 21
98.6
  0
LINE
  8
0
 10
319.45
 11
332.25
 20
98.6
 21
98.6
  0
LINE
  8
0
 10
332.25
 11
332.25
 20
98.6
 21
101.6
  0
LINE
  8
0
 10
332.25
 11
344.85
 20
101.6
 21
101.6
  0
LINE
  8
0
 10
344.85
 11
344.85
 20
101.6
 21
98.6
  0
LINE
  8
0
 10
344.85
 11
357.65
 20
98.6
 21
98.6
  0
LINE
  8
0
 10
357.65
 11
357.65
 20
98.6
 21
101.6
  0
LINE
  8
0
 10
357.65
 11
370.25
 20
101.6
 21
101.6
  0
LINE
  8
0
 10
370.25
 11
370.25
 20
101.6
 21
98.6
  0
LINE
  8
0
 10
370.25
 11
383.05
 20
98.6
 21
98.6
  0
LINE
  8
0
 10
383.05
 11
383.05
 20
98.6
 21
101.6
  0
LINE
  8
0
 10
383.05
 11
395.65
 20
101.6
 21
101.6
  0
LINE
  8
0
 10
395.65
 11
395.65
 20
101.6
 21
98.6
  0
LINE
  8
0
 10
395.65
 11
408.45
 20
98.6
 21
98.6
  0
LINE
  8
0
 10
408.45
 11
408.45
 20
98.6
 21
101.6
  0
LINE
  8
0
 10
408.45
 11
421.05
 20
101.6
 21
101.6
  0
LINE
  8
0
 10
421.05
 11
421.05
 20
101.6
 21
98.6
  0
LINE
  8
0
 10
421.05
 11
433.85
 20
98.6
 21
98.6
  0
LINE
  8
0
 10
433.85
 11
433.85
 20
98.6
 21
101.6
  0
LINE
  8
0
 10
433.85
 11
446.45
 20
101.6
 21
101.6
  0
LINE
  8
0
 10
446.45
 11
446.45
 20
101.6
 21
98.6
  0
LINE
  8
0
 10
446.45
 11
459.25
 20
98.6
 21
98.6
  0
LINE
  8
0
 10
459.25
 11
459.25
 20
98.6
 21
101.6
  0
LINE
  8
0
 10
459.25
 11
471.85
 20
101.6
 21
101.6
  0
LINE
  8
0
 10
471.85
 11
471.85
 20
101.6
 21
98.6
  0
LINE
  8
0
 10
471.85
 11
484.65
 20
98.6
 21
98.6
  0
LINE
  8
0
 10
484.65
 11
484.65
 20
98.6
 21
101.6
  0
LINE
  8
0
 10
484.65
 11
497.25
 20
101.6
 21
101.6
  0
LINE
  8
0
 10
497.25
 11
497.25
 20
101.6
 21
98.6
  0
LINE
  8
0
 10
497.25
 11
507
 20
98.6
 21
98.6
  0
LINE
  8
0
 10
507
 11
507
 20
98.6
 21
88.85
  0
LINE
  8
0
 10
507
 11
510
 20
88.85
 21
88.85
  0
LINE
  8
0
 10
510
 11
510
 20
88.85
 21
76.25
  0
LINE
  8
0
 10
510
 11
507
 20
76.25
 21
76.25
  0
LINE
  8
0
 10
507
 11
507
 20
76.25
 21
63.45
  0
LINE
  8
0
 10
507
 11
510
 20
63.45
 21
63.45
  0
LINE
  8
0
 10
510
 11
510
 20
63.45
 21
50.85
  0
LINE
  8
0
 10
510
 11
507
 20
50.85
 21
50.85
  0
LINE
  8
0
 10
507
 11
507
 20
50.85
 21
38.05
  0
LINE
  8
0
 10
507
 11
510
 20
38.05
 21
38.05
  0
LINE
  8
0
 10
510
 11
510
 20
38.05
 21
25.45
  0
LINE
  8
0
 10
510
 11
507
 20
25.45
 21
25.45
  0
LINE
  8
0
 10
507
 11
507
 20
25.45
 21
12.65
  0
LINE
  8
0
 10
507
 11
510
 20
12.65
 21
12.65
  0
LINE
  8
0
 10
510
 11
510
 20
12.65
 21
0.05
  0
LINE
  8
0
 10
510
 11
507
 20
0.05
 21
0.05
  0
LINE
  8
0
 10
507
 11
507
 20
0.05
 21
-12.75
  0
LINE
  8
0
 10
507
 11
510
 20
-12.75
 21
-12.75
  0
LINE
  8
0
 10
510
 11
510
 20
-12.75
 21
-25.35
  0
LINE
  8
0
 10
510
 11
507
 20
-25.35
 21
-25.35
  0
LINE
  8
0
 10
507
 11
507
 20
-25.35
 21
-38.15
  0
LINE
  8
0
 10
507
 11
510
 20
-38.15
 21
-38.15
  0
LINE
  8
0
 10
510
 11
510
 20
-38.15
 21
-50.75
  0
LINE
  8
0
 10
510
 11
507
 20
-50.75
 21
-50.75
  0
LINE
  8
0
 10
507
 11
507
 20
-50.75
 21
-63.55
  0
LINE
  8
0
 10
507
 11
510
 20
-63.55
 21
-63.55
  0
LINE
  8
0
 10
510
 11
510
 20
-63.55
 21
-76.15
  0
LINE
  8
0
 10
510
 11
507
 20
-76.15
 21
-76.15
  0
LINE
  8
0
 10
507
 11
507
 20
-76.15
 21
-88.95
  0
LINE
  8
0
 10
507
 11
510
 20
-88.95
 21
-88.95
  0
LINE
  8
0
 10
510
 11
510
 20
-88.95
 21
-98.6
  0
LINE
  8
0
 10
510
 11
509.95
 20
-98.6
 21
-98.6
  0
LINE
  8
0
 10
509.95
 11
509.95
 20
-98.6
 21
-101.55
  0
LINE
  8
0
 10
509.95
 11
507
 20
-101.55
 21
-101.55
  0
LINE
  8
0
 10
507
 11
507
 20
-101.55
 21
-101.6
  0
LINE
  8
0
 10
507
 11
497.35
 20
-101.6
 21
-101.6
  0
LINE
  8
0
 10
497.35
 11
497.35
 20
-101.6
 21
-98.6
  0
LINE
  8
0
 10
497.35
 11
484.55
 20
-98.6
 21
-98.6
  0
LINE
  8
0
 10
484.55
 11
484.55
 20
-98.6
 21
-101.6
  0
LINE
  8
0
 10
484.55
 11
471.95
 20
-101.6
 21
-101.6
  0
LINE
  8
0
 10
471.95
 11
471.95
 20
-101.6
 21
-98.6
  0
LINE
  8
0
 10
471.95
 11
459.15
 20
-98.6
 21
-98.6
  0
LINE
  8
0
 10
459.15
 11
459.15
 20
-98.6
 21
-101.6
  0
LINE
  8
0
 10
459.15
 11
446.55
 20
-101.6
 21
-101.6
  0
LINE
  8
0
 10
446.55
 11
446.55
 20
-101.6
 21
-98.6
  0
LINE
  8
0
 10
446.55
 11
433.75
 20
-98.6
 21
-98.6
  0
LINE
  8
0
 10
433.75
 11
433.75
 20
-98.6
 21
-101.6
  0
LINE
  8
0
 10
433.75
 11
421.15
 20
-101.6
 21
-101.6
  0
LINE
  8
0
 10
421.15
 11
421.15
 20
-101.6
 21
-98.6
  0
LINE
  8
0
 10
421.15
 11
408.35
 20
-98.6
 21
-98.6
  0
LINE
  8
0
 10
408.35
 11
408.35
 20
-98.6
 21
-101.6
  0
LINE
  8
0
 10
408.35
 11
395.75
 20
-101.6
 21
-101.6
  0
LINE
  8
0
 10
395.75
 11
395.75
 20
-101.6
 21
-98.6
  0
LINE
  8
0
 10
395.75
 11
382.95
 20
-98.6
 21
-98.6
  0
LINE
  8
0
 10
382.95
 11
382.95
 20
-98.6
 21
-101.6
  0
LINE
  8
0
 10
382.95
 11
370.35
 20
-101.6
 21
-101.6
  0
LINE
  8
0
 10
370.35
 11
370.35
 20
-101.6
 21
-98.6
  0
LINE
  8
0
 10
370.35
 11
357.55
 20
-98.6
 21
-98.6
  0
LINE
  8
0
 10
357.55
 11
357.55
 20
-98.6
 21
-101.6
  0
LINE
  8
0
 10
357.55
 11
344.95
 20
-101.6
 21
-101.6
  0
LINE
  8
0
 10
344.95
 11
344.95
 20
-101.6
 21
-98.6
  0
LINE
  8
0
 10
344.95
 11
332.15
 20
-98.6
 21
-98.6
  0
LINE
  8
0
 10
332.15
 11
332.15
 20
-98.6
 21
-101.6
  0
LINE
  8
0
 10
332.15
 11
319.55
 20
-101.6
 21
-101.6
  0
LINE
  8
0
 10
319.55
 11
319.55
 20
-101.6
 21
-98.6
  0
LINE
  8
0
 10
319.55
 11
309.8
 20
-98.6
 21
-98.6
  0
LINE
  8
0
 10
309.8
 11
309.8
 20
-98.6
 21
-88.85
  0
LINE
  8
0
 10
309.8
 11
306.8
 20
-88.85
 21
-88.85
  0
ENDSEC
  0
SECTION
  2
OBJECTS
  0
DICTIONARY
  0
ENDSEC
  0
EOF
