  0
SECTION
  2
BLOCKS
  0
ENDSEC
  0
SECTION
  2
ENTITIES
  0
LINE
  8
0
 10
-76.2
 11
-76.2
 20
-220.025
 21
-210.6
  0
LINE
  8
0
 10
-76.2
 11
-73.2
 20
-210.6
 21
-210.6
  0
LINE
  8
0
 10
-73.2
 11
-73.2
 20
-210.6
 21
-200.975
  0
LINE
  8
0
 10
-73.2
 11
-76.2
 20
-200.975
 21
-200.975
  0
LINE
  8
0
 10
-76.2
 11
-76.2
 20
-200.975
 21
-191.55
  0
LINE
  8
0
 10
-76.2
 11
-73.2
 20
-191.55
 21
-191.55
  0
LINE
  8
0
 10
-73.2
 11
-73.2
 20
-191.55
 21
-181.925
  0
LINE
  8
0
 10
-73.2
 11
-76.2
 20
-181.925
 21
-181.925
  0
LINE
  8
0
 10
-76.2
 11
-76.2
 20
-181.925
 21
-172.5
  0
LINE
  8
0
 10
-76.2
 11
-73.2
 20
-172.5
 21
-172.5
  0
LINE
  8
0
 10
-73.2
 11
-73.2
 20
-172.5
 21
-162.875
  0
LINE
  8
0
 10
-73.2
 11
-76.2
 20
-162.875
 21
-162.875
  0
LINE
  8
0
 10
-76.2
 11
-76.2
 20
-162.875
 21
-153.45
  0
LINE
  8
0
 10
-76.2
 11
-73.2
 20
-153.45
 21
-153.45
  0
LINE
  8
0
 10
-73.2
 11
-73.2
 20
-153.45
 21
-143.825
  0
LINE
  8
0
 10
-73.2
 11
-76.2
 20
-143.825
 21
-143.825
  0
LINE
  8
0
 10
-76.2
 11
-76.2
 20
-143.825
 21
-134.4
  0
LINE
  8
0
 10
-76.2
 11
-73.2
 20
-134.4
 21
-134.4
  0
LINE
  8
0
 10
-73.2
 11
-73.2
 20
-134.4
 21
-124.775
  0
LINE
  8
0
 10
-73.2
 11
-76.2
 20
-124.775
 21
-124.775
  0
LINE
  8
0
 10
-76.2
 11
-76.2
 20
-124.775
 21
-115.35
  0
LINE
  8
0
 10
-76.2
 11
-73.2
 20
-115.35
 21
-115.35
  0
LINE
  8
0
 10
-73.2
 11
-73.2
 20
-115.35
 21
-105.725
  0
LINE
  8
0
 10
-73.2
 11
-76.2
 20
-105.725
 21
-105.725
  0
LINE
  8
0
 10
-76.2
 11
-76.2
 20
-105.725
 21
-96.3
  0
LINE
  8
0
 10
-76.2
 11
-73.2
 20
-96.3
 21
-96.3
  0
LINE
  8
0
 10
-73.2
 11
-73.2
 20
-96.3
 21
-86.675
  0
LINE
  8
0
 10
-73.2
 11
-76.2
 20
-86.675
 21
-86.675
  0
LINE
  8
0
 10
-76.2
 11
-76.2
 20
-86.675
 21
-80.2
  0
LINE
  8
0
 10
-76.2
 11
-76.15
 20
-80.2
 21
-80.2
  0
LINE
  8
0
 10
-76.15
 11
-76.15
 20
-80.2
 21
-77.25
  0
LINE
  8
0
 10
-76.15
 11
-73.2
 20
-77.25
 21
-77.25
  0
LINE
  8
0
 10
-73.2
 11
-73.2
 20
-77.25
 21
-77.2
  0
LINE
  8
0
 10
-73.2
 11
-66.725
 20
-77.2
 21
-77.2
  0
LINE
  8
0
 10
-66.725
 11
-66.725
 20
-77.2
 21
-80.2
  0
LINE
  8
0
 10
-66.725
 11
-57.1
 20
-80.2
 21
-80.2
  0
LINE
  8
0
 10
-57.1
 11
-57.1
 20
-80.2
 21
-77.2
  0
LINE
  8
0
 10
-57.1
 11
-47.675
 20
-77.2
 21
-77.2
  0
LINE
  8
0
 10
-47.675
 11
-47.675
 20
-77.2
 21
-80.2
  0
LINE
  8
0
 10
-47.675
 11
-38.05
 20
-80.2
 21
-80.2
  0
LINE
  8
0
 10
-38.05
 11
-38.05
 20
-80.2
 21
-77.2
  0
LINE
  8
0
 10
-38.05
 11
-28.625
 20
-77.2
 21
-77.2
  0
LINE
  8
0
 10
-28.625
 11
-28.625
 20
-77.2
 21
-80.2
  0
LINE
  8
0
 10
-28.625
 11
-19
 20
-80.2
 21
-80.2
  0
LINE
  8
0
 10
-19
 11
-19
 20
-80.2
 21
-77.2
  0
LINE
  8
0
 10
-19
 11
-9.575
 20
-77.2
 21
-77.2
  0
LINE
  8
0
 10
-9.575
 11
-9.575
 20
-77.2
 21
-80.2
  0
LINE
  8
0
 10
-9.575
 11
0.05
 20
-80.2
 21
-80.2
  0
LINE
  8
0
 10
0.05
 11
0.05
 20
-80.2
 21
-77.2
  0
LINE
  8
0
 10
0.05
 11
9.475
 20
-77.2
 21
-77.2
  0
LINE
  8
0
 10
9.475
 11
9.475
 20
-77.2
 21
-80.2
  0
LINE
  8
0
 10
9.475
 11
19.1
 20
-80.2
 21
-80.2
  0
LINE
  8
0
 10
19.1
 11
19.1
 20
-80.2
 21
-77.2
  0
LINE
  8
0
 10
19.1
 11
28.525
 20
-77.2
 21
-77.2
  0
LINE
  8
0
 10
28.525
 11
28.525
 20
-77.2
 21
-80.2
  0
LINE
  8
0
 10
28.525
 11
38.15
 20
-80.2
 21
-80.2
  0
LINE
  8
0
 10
38.15
 11
38.15
 20
-80.2
 21
-77.2
  0
LINE
  8
0
 10
38.15
 11
47.575
 20
-77.2
 21
-77.2
  0
LINE
  8
0
 10
47.575
 11
47.575
 20
-77.2
 21
-80.2
  0
LINE
  8
0
 10
47.575
 11
57.2
 20
-80.2
 21
-80.2
  0
LINE
  8
0
 10
57.2
 11
57.2
 20
-80.2
 21
-77.2
  0
LINE
  8
0
 10
57.2
 11
66.625
 20
-77.2
 21
-77.2
  0
LINE
  8
0
 10
66.625
 11
66.625
 20
-77.2
 21
-80.2
  0
LINE
  8
0
 10
66.625
 11
73.2
 20
-80.2
 21
-80.2
  0
LINE
  8
0
 10
73.2
 11
73.2
 20
-80.2
 21
-86.775
  0
LINE
  8
0
 10
73.2
 11
76.2
 20
-86.775
 21
-86.775
  0
LINE
  8
0
 10
76.2
 11
76.2
 20
-86.775
 21
-96.2
  0
LINE
  8
0
 10
76.2
 11
73.2
 20
-96.2
 21
-96.2
  0
LINE
  8
0
 10
73.2
 11
73.2
 20
-96.2
 21
-105.825
  0
LINE
  8
0
 10
73.2
 11
76.2
 20
-105.825
 21
-105.825
  0
LINE
  8
0
 10
76.2
 11
76.2
 20
-105.825
 21
-115.25
  0
LINE
  8
0
 10
76.2
 11
73.2
 20
-115.25
 21
-115.25
  0
LINE
  8
0
 10
73.2
 11
73.2
 20
-115.25
 21
-124.875
  0
LINE
  8
0
 10
73.2
 11
76.2
 20
-124.875
 21
-124.875
  0
LINE
  8
0
 10
76.2
 11
76.2
 20
-124.875
 21
-134.3
  0
LINE
  8
0
 10
76.2
 11
73.2
 20
-134.3
 21
-134.3
  0
LINE
  8
0
 10
73.2
 11
73.2
 20
-134.3
 21
-143.925
  0
LINE
  8
0
 10
73.2
 11
76.2
 20
-143.925
 21
-143.925
  0
LINE
  8
0
 10
76.2
 11
76.2
 20
-143.925
 21
-153.35
  0
LINE
  8
0
 10
76.2
 11
73.2
 20
-153.35
 21
-153.35
  0
LINE
  8
0
 10
73.2
 11
73.2
 20
-153.35
 21
-162.975
  0
LINE
  8
0
 10
73.2
 11
76.2
 20
-162.975
 21
-162.975
  0
LINE
  8
0
 10
76.2
 11
76.2
 20
-162.975
 21
-172.4
  0
LINE
  8
0
 10
76.2
 11
73.2
 20
-172.4
 21
-172.4
  0
LINE
  8
0
 10
73.2
 11
73.2
 20
-172.4
 21
-182.025
  0
LINE
  8
0
 10
73.2
 11
76.2
 20
-182.025
 21
-182.025
  0
LINE
  8
0
 10
76.2
 11
76.2
 20
-182.025
 21
-191.45
  0
LINE
  8
0
 10
76.2
 11
73.2
 20
-191.45
 21
-191.45
  0
LINE
  8
0
 10
73.2
 11
73.2
 20
-191.45
 21
-201.075
  0
LINE
  8
0
 10
73.2
 11
76.2
 20
-201.075
 21
-201.075
  0
LINE
  8
0
 10
76.2
 11
76.2
 20
-201.075
 21
-210.5
  0
LINE
  8
0
 10
76.2
 11
73.2
 20
-210.5
 21
-210.5
  0
LINE
  8
0
 10
73.2
 11
73.2
 20
-210.5
 21
-220.125
  0
LINE
  8
0
 10
73.2
 11
76.2
 20
-220.125
 21
-220.125
  0
LINE
  8
0
 10
76.2
 11
76.2
 20
-220.125
 21
-226.6
  0
LINE
  8
0
 10
76.2
 11
76.15
 20
-226.6
 21
-226.6
  0
LINE
  8
0
 10
76.15
 11
76.15
 20
-226.6
 21
-229.55
  0
LINE
  8
0
 10
76.15
 11
73.2
 20
-229.55
 21
-229.55
  0
LINE
  8
0
 10
73.2
 11
73.2
 20
-229.55
 21
-229.6
  0
LINE
  8
0
 10
73.2
 11
66.725
 20
-229.6
 21
-229.6
  0
LINE
  8
0
 10
66.725
 11
66.725
 20
-229.6
 21
-226.6
  0
LINE
  8
0
 10
66.725
 11
57.1
 20
-226.6
 21
-226.6
  0
LINE
  8
0
 10
57.1
 11
57.1
 20
-226.6
 21
-229.6
  0
LINE
  8
0
 10
57.1
 11
47.675
 20
-229.6
 21
-229.6
  0
LINE
  8
0
 10
47.675
 11
47.675
 20
-229.6
 21
-226.6
  0
LINE
  8
0
 10
47.675
 11
38.05
 20
-226.6
 21
-226.6
  0
LINE
  8
0
 10
38.05
 11
38.05
 20
-226.6
 21
-229.6
  0
LINE
  8
0
 10
38.05
 11
28.625
 20
-229.6
 21
-229.6
  0
LINE
  8
0
 10
28.625
 11
28.625
 20
-229.6
 21
-226.6
  0
LINE
  8
0
 10
28.625
 11
19
 20
-226.6
 21
-226.6
  0
LINE
  8
0
 10
19
 11
19
 20
-226.6
 21
-229.6
  0
LINE
  8
0
 10
19
 11
9.575
 20
-229.6
 21
-229.6
  0
LINE
  8
0
 10
9.575
 11
9.575
 20
-229.6
 21
-226.6
  0
LINE
  8
0
 10
9.575
 11
-0.05
 20
-226.6
 21
-226.6
  0
LINE
  8
0
 10
-0.05
 11
-0.05
 20
-226.6
 21
-229.6
  0
LINE
  8
0
 10
-0.05
 11
-9.475
 20
-229.6
 21
-229.6
  0
LINE
  8
0
 10
-9.475
 11
-9.475
 20
-229.6
 21
-226.6
  0
LINE
  8
0
 10
-9.475
 11
-19.1
 20
-226.6
 21
-226.6
  0
LINE
  8
0
 10
-19.1
 11
-19.1
 20
-226.6
 21
-229.6
  0
LINE
  8
0
 10
-19.1
 11
-28.525
 20
-229.6
 21
-229.6
  0
LINE
  8
0
 10
-28.525
 11
-28.525
 20
-229.6
 21
-226.6
  0
LINE
  8
0
 10
-28.525
 11
-38.15
 20
-226.6
 21
-226.6
  0
LINE
  8
0
 10
-38.15
 11
-38.15
 20
-226.6
 21
-229.6
  0
LINE
  8
0
 10
-38.15
 11
-47.575
 20
-229.6
 21
-229.6
  0
LINE
  8
0
 10
-47.575
 11
-47.575
 20
-229.6
 21
-226.6
  0
LINE
  8
0
 10
-47.575
 11
-57.2
 20
-226.6
 21
-226.6
  0
LINE
  8
0
 10
-57.2
 11
-57.2
 20
-226.6
 21
-229.6
  0
LINE
  8
0
 10
-57.2
 11
-66.625
 20
-229.6
 21
-229.6
  0
LINE
  8
0
 10
-66.625
 11
-66.625
 20
-229.6
 21
-226.6
  0
LINE
  8
0
 10
-66.625
 11
-73.2
 20
-226.6
 21
-226.6
  0
LINE
  8
0
 10
-73.2
 11
-73.2
 20
-226.6
 21
-220.025
  0
LINE
  8
0
 10
-73.2
 11
-76.2
 20
-220.025
 21
-220.025
  0
LINE
  8
0
 10
-76.2
 11
-76.2
 20
-66.625
 21
-57.2
  0
LINE
  8
0
 10
-76.2
 11
-73.2
 20
-57.2
 21
-57.2
  0
LINE
  8
0
 10
-73.2
 11
-73.2
 20
-57.2
 21
-47.575
  0
LINE
  8
0
 10
-73.2
 11
-76.2
 20
-47.575
 21
-47.575
  0
LINE
  8
0
 10
-76.2
 11
-76.2
 20
-47.575
 21
-38.15
  0
LINE
  8
0
 10
-76.2
 11
-73.2
 20
-38.15
 21
-38.15
  0
LINE
  8
0
 10
-73.2
 11
-73.2
 20
-38.15
 21
-28.525
  0
LINE
  8
0
 10
-73.2
 11
-76.2
 20
-28.525
 21
-28.525
  0
LINE
  8
0
 10
-76.2
 11
-76.2
 20
-28.525
 21
-19.1
  0
LINE
  8
0
 10
-76.2
 11
-73.2
 20
-19.1
 21
-19.1
  0
LINE
  8
0
 10
-73.2
 11
-73.2
 20
-19.1
 21
-9.475
  0
LINE
  8
0
 10
-73.2
 11
-76.2
 20
-9.475
 21
-9.475
  0
LINE
  8
0
 10
-76.2
 11
-76.2
 20
-9.475
 21
-0.05
  0
LINE
  8
0
 10
-76.2
 11
-73.2
 20
-0.05
 21
-0.05
  0
LINE
  8
0
 10
-73.2
 11
-73.2
 20
-0.05
 21
9.575
  0
LINE
  8
0
 10
-73.2
 11
-76.2
 20
9.575
 21
9.575
  0
LINE
  8
0
 10
-76.2
 11
-76.2
 20
9.575
 21
19
  0
LINE
  8
0
 10
-76.2
 11
-73.2
 20
19
 21
19
  0
LINE
  8
0
 10
-73.2
 11
-73.2
 20
19
 21
28.625
  0
LINE
  8
0
 10
-73.2
 11
-76.2
 20
28.625
 21
28.625
  0
LINE
  8
0
 10
-76.2
 11
-76.2
 20
28.625
 21
38.05
  0
LINE
  8
0
 10
-76.2
 11
-73.2
 20
38.05
 21
38.05
  0
LINE
  8
0
 10
-73.2
 11
-73.2
 20
38.05
 21
47.675
  0
LINE
  8
0
 10
-73.2
 11
-76.2
 20
47.675
 21
47.675
  0
LINE
  8
0
 10
-76.2
 11
-76.2
 20
47.675
 21
57.1
  0
LINE
  8
0
 10
-76.2
 11
-73.2
 20
57.1
 21
57.1
  0
LINE
  8
0
 10
-73.2
 11
-73.2
 20
57.1
 21
66.725
  0
LINE
  8
0
 10
-73.2
 11
-76.2
 20
66.725
 21
66.725
  0
LINE
  8
0
 10
-76.2
 11
-76.2
 20
66.725
 21
73.2
  0
LINE
  8
0
 10
-76.2
 11
-76.15
 20
73.2
 21
73.2
  0
LINE
  8
0
 10
-76.15
 11
-76.15
 20
73.2
 21
76.15
  0
LINE
  8
0
 10
-76.15
 11
-73.2
 20
76.15
 21
76.15
  0
LINE
  8
0
 10
-73.2
 11
-73.2
 20
76.15
 21
76.2
  0
LINE
  8
0
 10
-73.2
 11
-66.725
 20
76.2
 21
76.2
  0
LINE
  8
0
 10
-66.725
 11
-66.725
 20
76.2
 21
73.2
  0
LINE
  8
0
 10
-66.725
 11
-57.1
 20
73.2
 21
73.2
  0
LINE
  8
0
 10
-57.1
 11
-57.1
 20
73.2
 21
76.2
  0
LINE
  8
0
 10
-57.1
 11
-47.675
 20
76.2
 21
76.2
  0
LINE
  8
0
 10
-47.675
 11
-47.675
 20
76.2
 21
73.2
  0
LINE
  8
0
 10
-47.675
 11
-38.05
 20
73.2
 21
73.2
  0
LINE
  8
0
 10
-38.05
 11
-38.05
 20
73.2
 21
76.2
  0
LINE
  8
0
 10
-38.05
 11
-28.625
 20
76.2
 21
76.2
  0
LINE
  8
0
 10
-28.625
 11
-28.625
 20
76.2
 21
73.2
  0
LINE
  8
0
 10
-28.625
 11
-19
 20
73.2
 21
73.2
  0
LINE
  8
0
 10
-19
 11
-19
 20
73.2
 21
76.2
  0
LINE
  8
0
 10
-19
 11
-9.575
 20
76.2
 21
76.2
  0
LINE
  8
0
 10
-9.575
 11
-9.575
 20
76.2
 21
73.2
  0
LINE
  8
0
 10
-9.575
 11
0.05
 20
73.2
 21
73.2
  0
LINE
  8
0
 10
0.05
 11
0.05
 20
73.2
 21
76.2
  0
LINE
  8
0
 10
0.05
 11
9.475
 20
76.2
 21
76.2
  0
LINE
  8
0
 10
9.475
 11
9.475
 20
76.2
 21
73.2
  0
LINE
  8
0
 10
9.475
 11
19.1
 20
73.2
 21
73.2
  0
LINE
  8
0
 10
19.1
 11
19.1
 20
73.2
 21
76.2
  0
LINE
  8
0
 10
19.1
 11
28.525
 20
76.2
 21
76.2
  0
LINE
  8
0
 10
28.525
 11
28.525
 20
76.2
 21
73.2
  0
LINE
  8
0
 10
28.525
 11
38.15
 20
73.2
 21
73.2
  0
LINE
  8
0
 10
38.15
 11
38.15
 20
73.2
 21
76.2
  0
LINE
  8
0
 10
38.15
 11
47.575
 20
76.2
 21
76.2
  0
LINE
  8
0
 10
47.575
 11
47.575
 20
76.2
 21
73.2
  0
LINE
  8
0
 10
47.575
 11
57.2
 20
73.2
 21
73.2
  0
LINE
  8
0
 10
57.2
 11
57.2
 20
73.2
 21
76.2
  0
LINE
  8
0
 10
57.2
 11
66.625
 20
76.2
 21
76.2
  0
LINE
  8
0
 10
66.625
 11
66.625
 20
76.2
 21
73.2
  0
LINE
  8
0
 10
66.625
 11
73.2
 20
73.2
 21
73.2
  0
LINE
  8
0
 10
73.2
 11
73.2
 20
73.2
 21
66.625
  0
LINE
  8
0
 10
73.2
 11
76.2
 20
66.625
 21
66.625
  0
LINE
  8
0
 10
76.2
 11
76.2
 20
66.625
 21
57.2
  0
LINE
  8
0
 10
76.2
 11
73.2
 20
57.2
 21
57.2
  0
LINE
  8
0
 10
73.2
 11
73.2
 20
57.2
 21
47.575
  0
LINE
  8
0
 10
73.2
 11
76.2
 20
47.575
 21
47.575
  0
LINE
  8
0
 10
76.2
 11
76.2
 20
47.575
 21
38.15
  0
LINE
  8
0
 10
76.2
 11
73.2
 20
38.15
 21
38.15
  0
LINE
  8
0
 10
73.2
 11
73.2
 20
38.15
 21
28.525
  0
LINE
  8
0
 10
73.2
 11
76.2
 20
28.525
 21
28.525
  0
LINE
  8
0
 10
76.2
 11
76.2
 20
28.525
 21
19.1
  0
LINE
  8
0
 10
76.2
 11
73.2
 20
19.1
 21
19.1
  0
LINE
  8
0
 10
73.2
 11
73.2
 20
19.1
 21
9.475
  0
LINE
  8
0
 10
73.2
 11
76.2
 20
9.475
 21
9.475
  0
LINE
  8
0
 10
76.2
 11
76.2
 20
9.475
 21
0.05
  0
LINE
  8
0
 10
76.2
 11
73.2
 20
0.05
 21
0.05
  0
LINE
  8
0
 10
73.2
 11
73.2
 20
0.05
 21
-9.575
  0
LINE
  8
0
 10
73.2
 11
76.2
 20
-9.575
 21
-9.575
  0
LINE
  8
0
 10
76.2
 11
76.2
 20
-9.575
 21
-19
  0
LINE
  8
0
 10
76.2
 11
73.2
 20
-19
 21
-19
  0
LINE
  8
0
 10
73.2
 11
73.2
 20
-19
 21
-28.625
  0
LINE
  8
0
 10
73.2
 11
76.2
 20
-28.625
 21
-28.625
  0
LINE
  8
0
 10
76.2
 11
76.2
 20
-28.625
 21
-38.05
  0
LINE
  8
0
 10
76.2
 11
73.2
 20
-38.05
 21
-38.05
  0
LINE
  8
0
 10
73.2
 11
73.2
 20
-38.05
 21
-47.675
  0
LINE
  8
0
 10
73.2
 11
76.2
 20
-47.675
 21
-47.675
  0
LINE
  8
0
 10
76.2
 11
76.2
 20
-47.675
 21
-57.1
  0
LINE
  8
0
 10
76.2
 11
73.2
 20
-57.1
 21
-57.1
  0
LINE
  8
0
 10
73.2
 11
73.2
 20
-57.1
 21
-66.725
  0
LINE
  8
0
 10
73.2
 11
76.2
 20
-66.725
 21
-66.725
  0
LINE
  8
0
 10
76.2
 11
76.2
 20
-66.725
 21
-73.2
  0
LINE
  8
0
 10
76.2
 11
76.15
 20
-73.2
 21
-73.2
  0
LINE
  8
0
 10
76.15
 11
76.15
 20
-73.2
 21
-76.15
  0
LINE
  8
0
 10
76.15
 11
73.2
 20
-76.15
 21
-76.15
  0
LINE
  8
0
 10
73.2
 11
73.2
 20
-76.15
 21
-76.2
  0
LINE
  8
0
 10
73.2
 11
66.725
 20
-76.2
 21
-76.2
  0
LINE
  8
0
 10
66.725
 11
66.725
 20
-76.2
 21
-73.2
  0
LINE
  8
0
 10
66.725
 11
57.1
 20
-73.2
 21
-73.2
  0
LINE
  8
0
 10
57.1
 11
57.1
 20
-73.2
 21
-76.2
  0
LINE
  8
0
 10
57.1
 11
47.675
 20
-76.2
 21
-76.2
  0
LINE
  8
0
 10
47.675
 11
47.675
 20
-76.2
 21
-73.2
  0
LINE
  8
0
 10
47.675
 11
38.05
 20
-73.2
 21
-73.2
  0
LINE
  8
0
 10
38.05
 11
38.05
 20
-73.2
 21
-76.2
  0
LINE
  8
0
 10
38.05
 11
28.625
 20
-76.2
 21
-76.2
  0
LINE
  8
0
 10
28.625
 11
28.625
 20
-76.2
 21
-73.2
  0
LINE
  8
0
 10
28.625
 11
19
 20
-73.2
 21
-73.2
  0
LINE
  8
0
 10
19
 11
19
 20
-73.2
 21
-76.2
  0
LINE
  8
0
 10
19
 11
9.575
 20
-76.2
 21
-76.2
  0
LINE
  8
0
 10
9.575
 11
9.575
 20
-76.2
 21
-73.2
  0
LINE
  8
0
 10
9.575
 11
-0.05
 20
-73.2
 21
-73.2
  0
LINE
  8
0
 10
-0.05
 11
-0.05
 20
-73.2
 21
-76.2
  0
LINE
  8
0
 10
-0.05
 11
-9.475
 20
-76.2
 21
-76.2
  0
LINE
  8
0
 10
-9.475
 11
-9.475
 20
-76.2
 21
-73.2
  0
LINE
  8
0
 10
-9.475
 11
-19.1
 20
-73.2
 21
-73.2
  0
LINE
  8
0
 10
-19.1
 11
-19.1
 20
-73.2
 21
-76.2
  0
LINE
  8
0
 10
-19.1
 11
-28.525
 20
-76.2
 21
-76.2
  0
LINE
  8
0
 10
-28.525
 11
-28.525
 20
-76.2
 21
-73.2
  0
LINE
  8
0
 10
-28.525
 11
-38.15
 20
-73.2
 21
-73.2
  0
LINE
  8
0
 10
-38.15
 11
-38.15
 20
-73.2
 21
-76.2
  0
LINE
  8
0
 10
-38.15
 11
-47.575
 20
-76.2
 21
-76.2
  0
LINE
  8
0
 10
-47.575
 11
-47.575
 20
-76.2
 21
-73.2
  0
LINE
  8
0
 10
-47.575
 11
-57.2
 20
-73.2
 21
-73.2
  0
LINE
  8
0
 10
-57.2
 11
-57.2
 20
-73.2
 21
-76.2
  0
LINE
  8
0
 10
-57.2
 11
-66.625
 20
-76.2
 21
-76.2
  0
LINE
  8
0
 10
-66.625
 11
-66.625
 20
-76.2
 21
-73.2
  0
LINE
  8
0
 10
-66.625
 11
-73.2
 20
-73.2
 21
-73.2
  0
LINE
  8
0
 10
-73.2
 11
-73.2
 20
-73.2
 21
-66.625
  0
LINE
  8
0
 10
-73.2
 11
-76.2
 20
-66.625
 21
-66.625
  0
LINE
  8
0
 10
77.2
 11
77.2
 20
-226.6
 21
-220.125
  0
LINE
  8
0
 10
77.2
 11
80.2
 20
-220.125
 21
-220.125
  0
LINE
  8
0
 10
80.2
 11
80.2
 20
-220.125
 21
-210.5
  0
LINE
  8
0
 10
80.2
 11
77.2
 20
-210.5
 21
-210.5
  0
LINE
  8
0
 10
77.2
 11
77.2
 20
-210.5
 21
-201.075
  0
LINE
  8
0
 10
77.2
 11
80.2
 20
-201.075
 21
-201.075
  0
LINE
  8
0
 10
80.2
 11
80.2
 20
-201.075
 21
-191.45
  0
LINE
  8
0
 10
80.2
 11
77.2
 20
-191.45
 21
-191.45
  0
LINE
  8
0
 10
77.2
 11
77.2
 20
-191.45
 21
-182.025
  0
LINE
  8
0
 10
77.2
 11
80.2
 20
-182.025
 21
-182.025
  0
LINE
  8
0
 10
80.2
 11
80.2
 20
-182.025
 21
-172.4
  0
LINE
  8
0
 10
80.2
 11
77.2
 20
-172.4
 21
-172.4
  0
LINE
  8
0
 10
77.2
 11
77.2
 20
-172.4
 21
-162.975
  0
LINE
  8
0
 10
77.2
 11
80.2
 20
-162.975
 21
-162.975
  0
LINE
  8
0
 10
80.2
 11
80.2
 20
-162.975
 21
-153.35
  0
LINE
  8
0
 10
80.2
 11
77.2
 20
-153.35
 21
-153.35
  0
LINE
  8
0
 10
77.2
 11
77.2
 20
-153.35
 21
-143.925
  0
LINE
  8
0
 10
77.2
 11
80.2
 20
-143.925
 21
-143.925
  0
LINE
  8
0
 10
80.2
 11
80.2
 20
-143.925
 21
-134.3
  0
LINE
  8
0
 10
80.2
 11
77.2
 20
-134.3
 21
-134.3
  0
LINE
  8
0
 10
77.2
 11
77.2
 20
-134.3
 21
-124.875
  0
LINE
  8
0
 10
77.2
 11
80.2
 20
-124.875
 21
-124.875
  0
LINE
  8
0
 10
80.2
 11
80.2
 20
-124.875
 21
-115.25
  0
LINE
  8
0
 10
80.2
 11
77.2
 20
-115.25
 21
-115.25
  0
LINE
  8
0
 10
77.2
 11
77.2
 20
-115.25
 21
-105.825
  0
LINE
  8
0
 10
77.2
 11
80.2
 20
-105.825
 21
-105.825
  0
LINE
  8
0
 10
80.2
 11
80.2
 20
-105.825
 21
-96.2
  0
LINE
  8
0
 10
80.2
 11
77.2
 20
-96.2
 21
-96.2
  0
LINE
  8
0
 10
77.2
 11
77.2
 20
-96.2
 21
-86.775
  0
LINE
  8
0
 10
77.2
 11
80.2
 20
-86.775
 21
-86.775
  0
LINE
  8
0
 10
80.2
 11
80.2
 20
-86.775
 21
-77.2
  0
LINE
  8
0
 10
80.2
 11
86.675
 20
-77.2
 21
-77.2
  0
LINE
  8
0
 10
86.675
 11
86.675
 20
-77.2
 21
-80.2
  0
LINE
  8
0
 10
86.675
 11
96.3
 20
-80.2
 21
-80.2
  0
LINE
  8
0
 10
96.3
 11
96.3
 20
-80.2
 21
-77.2
  0
LINE
  8
0
 10
96.3
 11
105.725
 20
-77.2
 21
-77.2
  0
LINE
  8
0
 10
105.725
 11
105.725
 20
-77.2
 21
-80.2
  0
LINE
  8
0
 10
105.725
 11
115.35
 20
-80.2
 21
-80.2
  0
LINE
  8
0
 10
115.35
 11
115.35
 20
-80.2
 21
-77.2
  0
LINE
  8
0
 10
115.35
 11
124.775
 20
-77.2
 21
-77.2
  0
LINE
  8
0
 10
124.775
 11
124.775
 20
-77.2
 21
-80.2
  0
LINE
  8
0
 10
124.775
 11
134.4
 20
-80.2
 21
-80.2
  0
LINE
  8
0
 10
134.4
 11
134.4
 20
-80.2
 21
-77.2
  0
LINE
  8
0
 10
134.4
 11
143.825
 20
-77.2
 21
-77.2
  0
LINE
  8
0
 10
143.825
 11
143.825
 20
-77.2
 21
-80.2
  0
LINE
  8
0
 10
143.825
 11
153.45
 20
-80.2
 21
-80.2
  0
LINE
  8
0
 10
153.45
 11
153.45
 20
-80.2
 21
-77.2
  0
LINE
  8
0
 10
153.45
 11
162.875
 20
-77.2
 21
-77.2
  0
LINE
  8
0
 10
162.875
 11
162.875
 20
-77.2
 21
-80.2
  0
LINE
  8
0
 10
162.875
 11
172.5
 20
-80.2
 21
-80.2
  0
LINE
  8
0
 10
172.5
 11
172.5
 20
-80.2
 21
-77.2
  0
LINE
  8
0
 10
172.5
 11
181.925
 20
-77.2
 21
-77.2
  0
LINE
  8
0
 10
181.925
 11
181.925
 20
-77.2
 21
-80.2
  0
LINE
  8
0
 10
181.925
 11
191.55
 20
-80.2
 21
-80.2
  0
LINE
  8
0
 10
191.55
 11
191.55
 20
-80.2
 21
-77.2
  0
LINE
  8
0
 10
191.55
 11
200.975
 20
-77.2
 21
-77.2
  0
LINE
  8
0
 10
200.975
 11
200.975
 20
-77.2
 21
-80.2
  0
LINE
  8
0
 10
200.975
 11
210.6
 20
-80.2
 21
-80.2
  0
LINE
  8
0
 10
210.6
 11
210.6
 20
-80.2
 21
-77.2
  0
LINE
  8
0
 10
210.6
 11
220.025
 20
-77.2
 21
-77.2
  0
LINE
  8
0
 10
220.025
 11
220.025
 20
-77.2
 21
-80.2
  0
LINE
  8
0
 10
220.025
 11
229.6
 20
-80.2
 21
-80.2
  0
LINE
  8
0
 10
229.6
 11
229.6
 20
-80.2
 21
-86.675
  0
LINE
  8
0
 10
229.6
 11
226.6
 20
-86.675
 21
-86.675
  0
LINE
  8
0
 10
226.6
 11
226.6
 20
-86.675
 21
-96.3
  0
LINE
  8
0
 10
226.6
 11
229.6
 20
-96.3
 21
-96.3
  0
LINE
  8
0
 10
229.6
 11
229.6
 20
-96.3
 21
-105.725
  0
LINE
  8
0
 10
229.6
 11
226.6
 20
-105.725
 21
-105.725
  0
LINE
  8
0
 10
226.6
 11
226.6
 20
-105.725
 21
-115.35
  0
LINE
  8
0
 10
226.6
 11
229.6
 20
-115.35
 21
-115.35
  0
LINE
  8
0
 10
229.6
 11
229.6
 20
-115.35
 21
-124.775
  0
LINE
  8
0
 10
229.6
 11
226.6
 20
-124.775
 21
-124.775
  0
LINE
  8
0
 10
226.6
 11
226.6
 20
-124.775
 21
-134.4
  0
LINE
  8
0
 10
226.6
 11
229.6
 20
-134.4
 21
-134.4
  0
LINE
  8
0
 10
229.6
 11
229.6
 20
-134.4
 21
-143.825
  0
LINE
  8
0
 10
229.6
 11
226.6
 20
-143.825
 21
-143.825
  0
LINE
  8
0
 10
226.6
 11
226.6
 20
-143.825
 21
-153.45
  0
LINE
  8
0
 10
226.6
 11
229.6
 20
-153.45
 21
-153.45
  0
LINE
  8
0
 10
229.6
 11
229.6
 20
-153.45
 21
-162.875
  0
LINE
  8
0
 10
229.6
 11
226.6
 20
-162.875
 21
-162.875
  0
LINE
  8
0
 10
226.6
 11
226.6
 20
-162.875
 21
-172.5
  0
LINE
  8
0
 10
226.6
 11
229.6
 20
-172.5
 21
-172.5
  0
LINE
  8
0
 10
229.6
 11
229.6
 20
-172.5
 21
-181.925
  0
LINE
  8
0
 10
229.6
 11
226.6
 20
-181.925
 21
-181.925
  0
LINE
  8
0
 10
226.6
 11
226.6
 20
-181.925
 21
-191.55
  0
LINE
  8
0
 10
226.6
 11
229.6
 20
-191.55
 21
-191.55
  0
LINE
  8
0
 10
229.6
 11
229.6
 20
-191.55
 21
-200.975
  0
LINE
  8
0
 10
229.6
 11
226.6
 20
-200.975
 21
-200.975
  0
LINE
  8
0
 10
226.6
 11
226.6
 20
-200.975
 21
-210.6
  0
LINE
  8
0
 10
226.6
 11
229.6
 20
-210.6
 21
-210.6
  0
LINE
  8
0
 10
229.6
 11
229.6
 20
-210.6
 21
-220.025
  0
LINE
  8
0
 10
229.6
 11
226.6
 20
-220.025
 21
-220.025
  0
LINE
  8
0
 10
226.6
 11
226.6
 20
-220.025
 21
-229.6
  0
LINE
  8
0
 10
226.6
 11
220.125
 20
-229.6
 21
-229.6
  0
LINE
  8
0
 10
220.125
 11
220.125
 20
-229.6
 21
-226.6
  0
LINE
  8
0
 10
220.125
 11
210.5
 20
-226.6
 21
-226.6
  0
LINE
  8
0
 10
210.5
 11
210.5
 20
-226.6
 21
-229.6
  0
LINE
  8
0
 10
210.5
 11
201.075
 20
-229.6
 21
-229.6
  0
LINE
  8
0
 10
201.075
 11
201.075
 20
-229.6
 21
-226.6
  0
LINE
  8
0
 10
201.075
 11
191.45
 20
-226.6
 21
-226.6
  0
LINE
  8
0
 10
191.45
 11
191.45
 20
-226.6
 21
-229.6
  0
LINE
  8
0
 10
191.45
 11
182.025
 20
-229.6
 21
-229.6
  0
LINE
  8
0
 10
182.025
 11
182.025
 20
-229.6
 21
-226.6
  0
LINE
  8
0
 10
182.025
 11
172.4
 20
-226.6
 21
-226.6
  0
LINE
  8
0
 10
172.4
 11
172.4
 20
-226.6
 21
-229.6
  0
LINE
  8
0
 10
172.4
 11
162.975
 20
-229.6
 21
-229.6
  0
LINE
  8
0
 10
162.975
 11
162.975
 20
-229.6
 21
-226.6
  0
LINE
  8
0
 10
162.975
 11
153.35
 20
-226.6
 21
-226.6
  0
LINE
  8
0
 10
153.35
 11
153.35
 20
-226.6
 21
-229.6
  0
LINE
  8
0
 10
153.35
 11
143.925
 20
-229.6
 21
-229.6
  0
LINE
  8
0
 10
143.925
 11
143.925
 20
-229.6
 21
-226.6
  0
LINE
  8
0
 10
143.925
 11
134.3
 20
-226.6
 21
-226.6
  0
LINE
  8
0
 10
134.3
 11
134.3
 20
-226.6
 21
-229.6
  0
LINE
  8
0
 10
134.3
 11
124.875
 20
-229.6
 21
-229.6
  0
LINE
  8
0
 10
124.875
 11
124.875
 20
-229.6
 21
-226.6
  0
LINE
  8
0
 10
124.875
 11
115.25
 20
-226.6
 21
-226.6
  0
LINE
  8
0
 10
115.25
 11
115.25
 20
-226.6
 21
-229.6
  0
LINE
  8
0
 10
115.25
 11
105.825
 20
-229.6
 21
-229.6
  0
LINE
  8
0
 10
105.825
 11
105.825
 20
-229.6
 21
-226.6
  0
LINE
  8
0
 10
105.825
 11
96.2
 20
-226.6
 21
-226.6
  0
LINE
  8
0
 10
96.2
 11
96.2
 20
-226.6
 21
-229.6
  0
LINE
  8
0
 10
96.2
 11
86.775
 20
-229.6
 21
-229.6
  0
LINE
  8
0
 10
86.775
 11
86.775
 20
-229.6
 21
-226.6
  0
LINE
  8
0
 10
86.775
 11
77.2
 20
-226.6
 21
-226.6
  0
LINE
  8
0
 10
77.2
 11
77.2
 20
-66.625
 21
-57.2
  0
LINE
  8
0
 10
77.2
 11
80.2
 20
-57.2
 21
-57.2
  0
LINE
  8
0
 10
80.2
 11
80.2
 20
-57.2
 21
-47.575
  0
LINE
  8
0
 10
80.2
 11
77.2
 20
-47.575
 21
-47.575
  0
LINE
  8
0
 10
77.2
 11
77.2
 20
-47.575
 21
-38.15
  0
LINE
  8
0
 10
77.2
 11
80.2
 20
-38.15
 21
-38.15
  0
LINE
  8
0
 10
80.2
 11
80.2
 20
-38.15
 21
-28.525
  0
LINE
  8
0
 10
80.2
 11
77.2
 20
-28.525
 21
-28.525
  0
LINE
  8
0
 10
77.2
 11
77.2
 20
-28.525
 21
-19.1
  0
LINE
  8
0
 10
77.2
 11
80.2
 20
-19.1
 21
-19.1
  0
LINE
  8
0
 10
80.2
 11
80.2
 20
-19.1
 21
-9.475
  0
LINE
  8
0
 10
80.2
 11
77.2
 20
-9.475
 21
-9.475
  0
LINE
  8
0
 10
77.2
 11
77.2
 20
-9.475
 21
-0.05
  0
LINE
  8
0
 10
77.2
 11
80.2
 20
-0.05
 21
-0.05
  0
LINE
  8
0
 10
80.2
 11
80.2
 20
-0.05
 21
9.575
  0
LINE
  8
0
 10
80.2
 11
77.2
 20
9.575
 21
9.575
  0
LINE
  8
0
 10
77.2
 11
77.2
 20
9.575
 21
19
  0
LINE
  8
0
 10
77.2
 11
80.2
 20
19
 21
19
  0
LINE
  8
0
 10
80.2
 11
80.2
 20
19
 21
28.625
  0
LINE
  8
0
 10
80.2
 11
77.2
 20
28.625
 21
28.625
  0
LINE
  8
0
 10
77.2
 11
77.2
 20
28.625
 21
38.05
  0
LINE
  8
0
 10
77.2
 11
80.2
 20
38.05
 21
38.05
  0
LINE
  8
0
 10
80.2
 11
80.2
 20
38.05
 21
47.675
  0
LINE
  8
0
 10
80.2
 11
77.2
 20
47.675
 21
47.675
  0
LINE
  8
0
 10
77.2
 11
77.2
 20
47.675
 21
57.1
  0
LINE
  8
0
 10
77.2
 11
80.2
 20
57.1
 21
57.1
  0
LINE
  8
0
 10
80.2
 11
80.2
 20
57.1
 21
66.725
  0
LINE
  8
0
 10
80.2
 11
77.2
 20
66.725
 21
66.725
  0
LINE
  8
0
 10
77.2
 11
77.2
 20
66.725
 21
73.2
  0
LINE
  8
0
 10
77.2
 11
77.25
 20
73.2
 21
73.2
  0
LINE
  8
0
 10
77.25
 11
77.25
 20
73.2
 21
76.15
  0
LINE
  8
0
 10
77.25
 11
80.2
 20
76.15
 21
76.15
  0
LINE
  8
0
 10
80.2
 11
80.2
 20
76.15
 21
76.2
  0
LINE
  8
0
 10
80.2
 11
86.675
 20
76.2
 21
76.2
  0
LINE
  8
0
 10
86.675
 11
86.675
 20
76.2
 21
73.2
  0
LINE
  8
0
 10
86.675
 11
96.3
 20
73.2
 21
73.2
  0
LINE
  8
0
 10
96.3
 11
96.3
 20
73.2
 21
76.2
  0
LINE
  8
0
 10
96.3
 11
105.725
 20
76.2
 21
76.2
  0
LINE
  8
0
 10
105.725
 11
105.725
 20
76.2
 21
73.2
  0
LINE
  8
0
 10
105.725
 11
115.35
 20
73.2
 21
73.2
  0
LINE
  8
0
 10
115.35
 11
115.35
 20
73.2
 21
76.2
  0
LINE
  8
0
 10
115.35
 11
124.775
 20
76.2
 21
76.2
  0
LINE
  8
0
 10
124.775
 11
124.775
 20
76.2
 21
73.2
  0
LINE
  8
0
 10
124.775
 11
134.4
 20
73.2
 21
73.2
  0
LINE
  8
0
 10
134.4
 11
134.4
 20
73.2
 21
76.2
  0
LINE
  8
0
 10
134.4
 11
143.825
 20
76.2
 21
76.2
  0
LINE
  8
0
 10
143.825
 11
143.825
 20
76.2
 21
73.2
  0
LINE
  8
0
 10
143.825
 11
153.45
 20
73.2
 21
73.2
  0
LINE
  8
0
 10
153.45
 11
153.45
 20
73.2
 21
76.2
  0
LINE
  8
0
 10
153.45
 11
162.875
 20
76.2
 21
76.2
  0
LINE
  8
0
 10
162.875
 11
162.875
 20
76.2
 21
73.2
  0
LINE
  8
0
 10
162.875
 11
172.5
 20
73.2
 21
73.2
  0
LINE
  8
0
 10
172.5
 11
172.5
 20
73.2
 21
76.2
  0
LINE
  8
0
 10
172.5
 11
181.925
 20
76.2
 21
76.2
  0
LINE
  8
0
 10
181.925
 11
181.925
 20
76.2
 21
73.2
  0
LINE
  8
0
 10
181.925
 11
191.55
 20
73.2
 21
73.2
  0
LINE
  8
0
 10
191.55
 11
191.55
 20
73.2
 21
76.2
  0
LINE
  8
0
 10
191.55
 11
200.975
 20
76.2
 21
76.2
  0
LINE
  8
0
 10
200.975
 11
200.975
 20
76.2
 21
73.2
  0
LINE
  8
0
 10
200.975
 11
210.6
 20
73.2
 21
73.2
  0
LINE
  8
0
 10
210.6
 11
210.6
 20
73.2
 21
76.2
  0
LINE
  8
0
 10
210.6
 11
220.025
 20
76.2
 21
76.2
  0
LINE
  8
0
 10
220.025
 11
220.025
 20
76.2
 21
73.2
  0
LINE
  8
0
 10
220.025
 11
226.6
 20
73.2
 21
73.2
  0
LINE
  8
0
 10
226.6
 11
226.6
 20
73.2
 21
66.625
  0
LINE
  8
0
 10
226.6
 11
229.6
 20
66.625
 21
66.625
  0
LINE
  8
0
 10
229.6
 11
229.6
 20
66.625
 21
57.2
  0
LINE
  8
0
 10
229.6
 11
226.6
 20
57.2
 21
57.2
  0
LINE
  8
0
 10
226.6
 11
226.6
 20
57.2
 21
47.575
  0
LINE
  8
0
 10
226.6
 11
229.6
 20
47.575
 21
47.575
  0
LINE
  8
0
 10
229.6
 11
229.6
 20
47.575
 21
38.15
  0
LINE
  8
0
 10
229.6
 11
226.6
 20
38.15
 21
38.15
  0
LINE
  8
0
 10
226.6
 11
226.6
 20
38.15
 21
28.525
  0
LINE
  8
0
 10
226.6
 11
229.6
 20
28.525
 21
28.525
  0
LINE
  8
0
 10
229.6
 11
229.6
 20
28.525
 21
19.1
  0
LINE
  8
0
 10
229.6
 11
226.6
 20
19.1
 21
19.1
  0
LINE
  8
0
 10
226.6
 11
226.6
 20
19.1
 21
9.475
  0
LINE
  8
0
 10
226.6
 11
229.6
 20
9.475
 21
9.475
  0
LINE
  8
0
 10
229.6
 11
229.6
 20
9.475
 21
0.05
  0
LINE
  8
0
 10
229.6
 11
226.6
 20
0.05
 21
0.05
  0
LINE
  8
0
 10
226.6
 11
226.6
 20
0.05
 21
-9.575
  0
LINE
  8
0
 10
226.6
 11
229.6
 20
-9.575
 21
-9.575
  0
LINE
  8
0
 10
229.6
 11
229.6
 20
-9.575
 21
-19
  0
LINE
  8
0
 10
229.6
 11
226.6
 20
-19
 21
-19
  0
LINE
  8
0
 10
226.6
 11
226.6
 20
-19
 21
-28.625
  0
LINE
  8
0
 10
226.6
 11
229.6
 20
-28.625
 21
-28.625
  0
LINE
  8
0
 10
229.6
 11
229.6
 20
-28.625
 21
-38.05
  0
LINE
  8
0
 10
229.6
 11
226.6
 20
-38.05
 21
-38.05
  0
LINE
  8
0
 10
226.6
 11
226.6
 20
-38.05
 21
-47.675
  0
LINE
  8
0
 10
226.6
 11
229.6
 20
-47.675
 21
-47.675
  0
LINE
  8
0
 10
229.6
 11
229.6
 20
-47.675
 21
-57.1
  0
LINE
  8
0
 10
229.6
 11
226.6
 20
-57.1
 21
-57.1
  0
LINE
  8
0
 10
226.6
 11
226.6
 20
-57.1
 21
-66.725
  0
LINE
  8
0
 10
226.6
 11
229.6
 20
-66.725
 21
-66.725
  0
LINE
  8
0
 10
229.6
 11
229.6
 20
-66.725
 21
-73.2
  0
LINE
  8
0
 10
229.6
 11
229.55
 20
-73.2
 21
-73.2
  0
LINE
  8
0
 10
229.55
 11
229.55
 20
-73.2
 21
-76.15
  0
LINE
  8
0
 10
229.55
 11
226.6
 20
-76.15
 21
-76.15
  0
LINE
  8
0
 10
226.6
 11
226.6
 20
-76.15
 21
-76.2
  0
LINE
  8
0
 10
226.6
 11
220.125
 20
-76.2
 21
-76.2
  0
LINE
  8
0
 10
220.125
 11
220.125
 20
-76.2
 21
-73.2
  0
LINE
  8
0
 10
220.125
 11
210.5
 20
-73.2
 21
-73.2
  0
LINE
  8
0
 10
210.5
 11
210.5
 20
-73.2
 21
-76.2
  0
LINE
  8
0
 10
210.5
 11
201.075
 20
-76.2
 21
-76.2
  0
LINE
  8
0
 10
201.075
 11
201.075
 20
-76.2
 21
-73.2
  0
LINE
  8
0
 10
201.075
 11
191.45
 20
-73.2
 21
-73.2
  0
LINE
  8
0
 10
191.45
 11
191.45
 20
-73.2
 21
-76.2
  0
LINE
  8
0
 10
191.45
 11
182.025
 20
-76.2
 21
-76.2
  0
LINE
  8
0
 10
182.025
 11
182.025
 20
-76.2
 21
-73.2
  0
LINE
  8
0
 10
182.025
 11
172.4
 20
-73.2
 21
-73.2
  0
LINE
  8
0
 10
172.4
 11
172.4
 20
-73.2
 21
-76.2
  0
LINE
  8
0
 10
172.4
 11
162.975
 20
-76.2
 21
-76.2
  0
LINE
  8
0
 10
162.975
 11
162.975
 20
-76.2
 21
-73.2
  0
LINE
  8
0
 10
162.975
 11
153.35
 20
-73.2
 21
-73.2
  0
LINE
  8
0
 10
153.35
 11
153.35
 20
-73.2
 21
-76.2
  0
LINE
  8
0
 10
153.35
 11
143.925
 20
-76.2
 21
-76.2
  0
LINE
  8
0
 10
143.925
 11
143.925
 20
-76.2
 21
-73.2
  0
LINE
  8
0
 10
143.925
 11
134.3
 20
-73.2
 21
-73.2
  0
LINE
  8
0
 10
134.3
 11
134.3
 20
-73.2
 21
-76.2
  0
LINE
  8
0
 10
134.3
 11
124.875
 20
-76.2
 21
-76.2
  0
LINE
  8
0
 10
124.875
 11
124.875
 20
-76.2
 21
-73.2
  0
LINE
  8
0
 10
124.875
 11
115.25
 20
-73.2
 21
-73.2
  0
LINE
  8
0
 10
115.25
 11
115.25
 20
-73.2
 21
-76.2
  0
LINE
  8
0
 10
115.25
 11
105.825
 20
-76.2
 21
-76.2
  0
LINE
  8
0
 10
105.825
 11
105.825
 20
-76.2
 21
-73.2
  0
LINE
  8
0
 10
105.825
 11
96.2
 20
-73.2
 21
-73.2
  0
LINE
  8
0
 10
96.2
 11
96.2
 20
-73.2
 21
-76.2
  0
LINE
  8
0
 10
96.2
 11
86.775
 20
-76.2
 21
-76.2
  0
LINE
  8
0
 10
86.775
 11
86.775
 20
-76.2
 21
-73.2
  0
LINE
  8
0
 10
86.775
 11
80.2
 20
-73.2
 21
-73.2
  0
LINE
  8
0
 10
80.2
 11
80.2
 20
-73.2
 21
-66.625
  0
LINE
  8
0
 10
80.2
 11
77.2
 20
-66.625
 21
-66.625
  0
LINE
  8
0
 10
149.516
 11
149.516
 20
-154.357
 21
-152.443
  0
LINE
  8
0
 10
149.516
 11
150.406
 20
-152.443
 21
-150.748
  0
LINE
  8
0
 10
150.406
 11
151.982
 20
-150.748
 21
-149.66
  0
LINE
  8
0
 10
151.982
 11
153.882
 20
-149.66
 21
-149.429
  0
LINE
  8
0
 10
153.882
 11
155.672
 20
-149.429
 21
-150.108
  0
LINE
  8
0
 10
155.672
 11
156.942
 20
-150.108
 21
-151.541
  0
LINE
  8
0
 10
156.942
 11
157.4
 20
-151.541
 21
-153.4
  0
LINE
  8
0
 10
157.4
 11
156.942
 20
-153.4
 21
-155.259
  0
LINE
  8
0
 10
156.942
 11
155.672
 20
-155.259
 21
-156.692
  0
LINE
  8
0
 10
155.672
 11
153.882
 20
-156.692
 21
-157.371
  0
LINE
  8
0
 10
153.882
 11
151.982
 20
-157.371
 21
-157.14
  0
LINE
  8
0
 10
151.982
 11
150.406
 20
-157.14
 21
-156.052
  0
LINE
  8
0
 10
150.406
 11
149.516
 20
-156.052
 21
-154.357
  0
LINE
  8
0
 10
230.6
 11
230.6
 20
-220.025
 21
-210.6
  0
LINE
  8
0
 10
230.6
 11
233.6
 20
-210.6
 21
-210.6
  0
LINE
  8
0
 10
233.6
 11
233.6
 20
-210.6
 21
-200.975
  0
LINE
  8
0
 10
233.6
 11
230.6
 20
-200.975
 21
-200.975
  0
LINE
  8
0
 10
230.6
 11
230.6
 20
-200.975
 21
-191.55
  0
LINE
  8
0
 10
230.6
 11
233.6
 20
-191.55
 21
-191.55
  0
LINE
  8
0
 10
233.6
 11
233.6
 20
-191.55
 21
-181.925
  0
LINE
  8
0
 10
233.6
 11
230.6
 20
-181.925
 21
-181.925
  0
LINE
  8
0
 10
230.6
 11
230.6
 20
-181.925
 21
-172.5
  0
LINE
  8
0
 10
230.6
 11
233.6
 20
-172.5
 21
-172.5
  0
LINE
  8
0
 10
233.6
 11
233.6
 20
-172.5
 21
-162.875
  0
LINE
  8
0
 10
233.6
 11
230.6
 20
-162.875
 21
-162.875
  0
LINE
  8
0
 10
230.6
 11
230.6
 20
-162.875
 21
-153.45
  0
LINE
  8
0
 10
230.6
 11
233.6
 20
-153.45
 21
-153.45
  0
LINE
  8
0
 10
233.6
 11
233.6
 20
-153.45
 21
-143.825
  0
LINE
  8
0
 10
233.6
 11
230.6
 20
-143.825
 21
-143.825
  0
LINE
  8
0
 10
230.6
 11
230.6
 20
-143.825
 21
-134.4
  0
LINE
  8
0
 10
230.6
 11
233.6
 20
-134.4
 21
-134.4
  0
LINE
  8
0
 10
233.6
 11
233.6
 20
-134.4
 21
-124.775
  0
LINE
  8
0
 10
233.6
 11
230.6
 20
-124.775
 21
-124.775
  0
LINE
  8
0
 10
230.6
 11
230.6
 20
-124.775
 21
-115.35
  0
LINE
  8
0
 10
230.6
 11
233.6
 20
-115.35
 21
-115.35
  0
LINE
  8
0
 10
233.6
 11
233.6
 20
-115.35
 21
-105.725
  0
LINE
  8
0
 10
233.6
 11
230.6
 20
-105.725
 21
-105.725
  0
LINE
  8
0
 10
230.6
 11
230.6
 20
-105.725
 21
-96.3
  0
LINE
  8
0
 10
230.6
 11
233.6
 20
-96.3
 21
-96.3
  0
LINE
  8
0
 10
233.6
 11
233.6
 20
-96.3
 21
-86.675
  0
LINE
  8
0
 10
233.6
 11
230.6
 20
-86.675
 21
-86.675
  0
LINE
  8
0
 10
230.6
 11
230.6
 20
-86.675
 21
-80.2
  0
LINE
  8
0
 10
230.6
 11
240.175
 20
-80.2
 21
-80.2
  0
LINE
  8
0
 10
240.175
 11
240.175
 20
-80.2
 21
-77.2
  0
LINE
  8
0
 10
240.175
 11
249.6
 20
-77.2
 21
-77.2
  0
LINE
  8
0
 10
249.6
 11
249.6
 20
-77.2
 21
-80.2
  0
LINE
  8
0
 10
249.6
 11
259.225
 20
-80.2
 21
-80.2
  0
LINE
  8
0
 10
259.225
 11
259.225
 20
-80.2
 21
-77.2
  0
LINE
  8
0
 10
259.225
 11
268.65
 20
-77.2
 21
-77.2
  0
LINE
  8
0
 10
268.65
 11
268.65
 20
-77.2
 21
-80.2
  0
LINE
  8
0
 10
268.65
 11
278.275
 20
-80.2
 21
-80.2
  0
LINE
  8
0
 10
278.275
 11
278.275
 20
-80.2
 21
-77.2
  0
LINE
  8
0
 10
278.275
 11
287.7
 20
-77.2
 21
-77.2
  0
LINE
  8
0
 10
287.7
 11
287.7
 20
-77.2
 21
-80.2
  0
LINE
  8
0
 10
287.7
 11
297.325
 20
-80.2
 21
-80.2
  0
LINE
  8
0
 10
297.325
 11
297.325
 20
-80.2
 21
-77.2
  0
LINE
  8
0
 10
297.325
 11
306.75
 20
-77.2
 21
-77.2
  0
LINE
  8
0
 10
306.75
 11
306.75
 20
-77.2
 21
-80.2
  0
LINE
  8
0
 10
306.75
 11
316.375
 20
-80.2
 21
-80.2
  0
LINE
  8
0
 10
316.375
 11
316.375
 20
-80.2
 21
-77.2
  0
LINE
  8
0
 10
316.375
 11
325.8
 20
-77.2
 21
-77.2
  0
LINE
  8
0
 10
325.8
 11
325.8
 20
-77.2
 21
-80.2
  0
LINE
  8
0
 10
325.8
 11
335.425
 20
-80.2
 21
-80.2
  0
LINE
  8
0
 10
335.425
 11
335.425
 20
-80.2
 21
-77.2
  0
LINE
  8
0
 10
335.425
 11
344.85
 20
-77.2
 21
-77.2
  0
LINE
  8
0
 10
344.85
 11
344.85
 20
-77.2
 21
-80.2
  0
LINE
  8
0
 10
344.85
 11
354.475
 20
-80.2
 21
-80.2
  0
LINE
  8
0
 10
354.475
 11
354.475
 20
-80.2
 21
-77.2
  0
LINE
  8
0
 10
354.475
 11
363.9
 20
-77.2
 21
-77.2
  0
LINE
  8
0
 10
363.9
 11
363.9
 20
-77.2
 21
-80.2
  0
LINE
  8
0
 10
363.9
 11
373.525
 20
-80.2
 21
-80.2
  0
LINE
  8
0
 10
373.525
 11
373.525
 20
-80.2
 21
-77.2
  0
LINE
  8
0
 10
373.525
 11
380
 20
-77.2
 21
-77.2
  0
LINE
  8
0
 10
380
 11
380
 20
-77.2
 21
-86.775
  0
LINE
  8
0
 10
380
 11
383
 20
-86.775
 21
-86.775
  0
LINE
  8
0
 10
383
 11
383
 20
-86.775
 21
-96.2
  0
LINE
  8
0
 10
383
 11
380
 20
-96.2
 21
-96.2
  0
LINE
  8
0
 10
380
 11
380
 20
-96.2
 21
-105.825
  0
LINE
  8
0
 10
380
 11
383
 20
-105.825
 21
-105.825
  0
LINE
  8
0
 10
383
 11
383
 20
-105.825
 21
-115.25
  0
LINE
  8
0
 10
383
 11
380
 20
-115.25
 21
-115.25
  0
LINE
  8
0
 10
380
 11
380
 20
-115.25
 21
-124.875
  0
LINE
  8
0
 10
380
 11
383
 20
-124.875
 21
-124.875
  0
LINE
  8
0
 10
383
 11
383
 20
-124.875
 21
-134.3
  0
LINE
  8
0
 10
383
 11
380
 20
-134.3
 21
-134.3
  0
LINE
  8
0
 10
380
 11
380
 20
-134.3
 21
-143.925
  0
LINE
  8
0
 10
380
 11
383
 20
-143.925
 21
-143.925
  0
LINE
  8
0
 10
383
 11
383
 20
-143.925
 21
-153.35
  0
LINE
  8
0
 10
383
 11
380
 20
-153.35
 21
-153.35
  0
LINE
  8
0
 10
380
 11
380
 20
-153.35
 21
-162.975
  0
LINE
  8
0
 10
380
 11
383
 20
-162.975
 21
-162.975
  0
LINE
  8
0
 10
383
 11
383
 20
-162.975
 21
-172.4
  0
LINE
  8
0
 10
383
 11
380
 20
-172.4
 21
-172.4
  0
LINE
  8
0
 10
380
 11
380
 20
-172.4
 21
-182.025
  0
LINE
  8
0
 10
380
 11
383
 20
-182.025
 21
-182.025
  0
LINE
  8
0
 10
383
 11
383
 20
-182.025
 21
-191.45
  0
LINE
  8
0
 10
383
 11
380
 20
-191.45
 21
-191.45
  0
LINE
  8
0
 10
380
 11
380
 20
-191.45
 21
-201.075
  0
LINE
  8
0
 10
380
 11
383
 20
-201.075
 21
-201.075
  0
LINE
  8
0
 10
383
 11
383
 20
-201.075
 21
-210.5
  0
LINE
  8
0
 10
383
 11
380
 20
-210.5
 21
-210.5
  0
LINE
  8
0
 10
380
 11
380
 20
-210.5
 21
-220.125
  0
LINE
  8
0
 10
380
 11
383
 20
-220.125
 21
-220.125
  0
LINE
  8
0
 10
383
 11
383
 20
-220.125
 21
-226.6
  0
LINE
  8
0
 10
383
 11
373.425
 20
-226.6
 21
-226.6
  0
LINE
  8
0
 10
373.425
 11
373.425
 20
-226.6
 21
-229.6
  0
LINE
  8
0
 10
373.425
 11
364
 20
-229.6
 21
-229.6
  0
LINE
  8
0
 10
364
 11
364
 20
-229.6
 21
-226.6
  0
LINE
  8
0
 10
364
 11
354.375
 20
-226.6
 21
-226.6
  0
LINE
  8
0
 10
354.375
 11
354.375
 20
-226.6
 21
-229.6
  0
LINE
  8
0
 10
354.375
 11
344.95
 20
-229.6
 21
-229.6
  0
LINE
  8
0
 10
344.95
 11
344.95
 20
-229.6
 21
-226.6
  0
LINE
  8
0
 10
344.95
 11
335.325
 20
-226.6
 21
-226.6
  0
LINE
  8
0
 10
335.325
 11
335.325
 20
-226.6
 21
-229.6
  0
LINE
  8
0
 10
335.325
 11
325.9
 20
-229.6
 21
-229.6
  0
LINE
  8
0
 10
325.9
 11
325.9
 20
-229.6
 21
-226.6
  0
LINE
  8
0
 10
325.9
 11
316.275
 20
-226.6
 21
-226.6
  0
LINE
  8
0
 10
316.275
 11
316.275
 20
-226.6
 21
-229.6
  0
LINE
  8
0
 10
316.275
 11
306.85
 20
-229.6
 21
-229.6
  0
LINE
  8
0
 10
306.85
 11
306.85
 20
-229.6
 21
-226.6
  0
LINE
  8
0
 10
306.85
 11
297.225
 20
-226.6
 21
-226.6
  0
LINE
  8
0
 10
297.225
 11
297.225
 20
-226.6
 21
-229.6
  0
LINE
  8
0
 10
297.225
 11
287.8
 20
-229.6
 21
-229.6
  0
LINE
  8
0
 10
287.8
 11
287.8
 20
-229.6
 21
-226.6
  0
LINE
  8
0
 10
287.8
 11
278.175
 20
-226.6
 21
-226.6
  0
LINE
  8
0
 10
278.175
 11
278.175
 20
-226.6
 21
-229.6
  0
LINE
  8
0
 10
278.175
 11
268.75
 20
-229.6
 21
-229.6
  0
LINE
  8
0
 10
268.75
 11
268.75
 20
-229.6
 21
-226.6
  0
LINE
  8
0
 10
268.75
 11
259.125
 20
-226.6
 21
-226.6
  0
LINE
  8
0
 10
259.125
 11
259.125
 20
-226.6
 21
-229.6
  0
LINE
  8
0
 10
259.125
 11
249.7
 20
-229.6
 21
-229.6
  0
LINE
  8
0
 10
249.7
 11
249.7
 20
-229.6
 21
-226.6
  0
LINE
  8
0
 10
249.7
 11
240.075
 20
-226.6
 21
-226.6
  0
LINE
  8
0
 10
240.075
 11
240.075
 20
-226.6
 21
-229.6
  0
LINE
  8
0
 10
240.075
 11
233.6
 20
-229.6
 21
-229.6
  0
LINE
  8
0
 10
233.6
 11
233.6
 20
-229.6
 21
-220.025
  0
LINE
  8
0
 10
233.6
 11
230.6
 20
-220.025
 21
-220.025
  0
LINE
  8
0
 10
230.6
 11
230.6
 20
-66.625
 21
-57.2
  0
LINE
  8
0
 10
230.6
 11
233.6
 20
-57.2
 21
-57.2
  0
LINE
  8
0
 10
233.6
 11
233.6
 20
-57.2
 21
-47.575
  0
LINE
  8
0
 10
233.6
 11
230.6
 20
-47.575
 21
-47.575
  0
LINE
  8
0
 10
230.6
 11
230.6
 20
-47.575
 21
-38.15
  0
LINE
  8
0
 10
230.6
 11
233.6
 20
-38.15
 21
-38.15
  0
LINE
  8
0
 10
233.6
 11
233.6
 20
-38.15
 21
-28.525
  0
LINE
  8
0
 10
233.6
 11
230.6
 20
-28.525
 21
-28.525
  0
LINE
  8
0
 10
230.6
 11
230.6
 20
-28.525
 21
-19.1
  0
LINE
  8
0
 10
230.6
 11
233.6
 20
-19.1
 21
-19.1
  0
LINE
  8
0
 10
233.6
 11
233.6
 20
-19.1
 21
-9.475
  0
LINE
  8
0
 10
233.6
 11
230.6
 20
-9.475
 21
-9.475
  0
LINE
  8
0
 10
230.6
 11
230.6
 20
-9.475
 21
-0.05
  0
LINE
  8
0
 10
230.6
 11
233.6
 20
-0.05
 21
-0.05
  0
LINE
  8
0
 10
233.6
 11
233.6
 20
-0.05
 21
9.575
  0
LINE
  8
0
 10
233.6
 11
230.6
 20
9.575
 21
9.575
  0
LINE
  8
0
 10
230.6
 11
230.6
 20
9.575
 21
19
  0
LINE
  8
0
 10
230.6
 11
233.6
 20
19
 21
19
  0
LINE
  8
0
 10
233.6
 11
233.6
 20
19
 21
28.625
  0
LINE
  8
0
 10
233.6
 11
230.6
 20
28.625
 21
28.625
  0
LINE
  8
0
 10
230.6
 11
230.6
 20
28.625
 21
38.05
  0
LINE
  8
0
 10
230.6
 11
233.6
 20
38.05
 21
38.05
  0
LINE
  8
0
 10
233.6
 11
233.6
 20
38.05
 21
47.675
  0
LINE
  8
0
 10
233.6
 11
230.6
 20
47.675
 21
47.675
  0
LINE
  8
0
 10
230.6
 11
230.6
 20
47.675
 21
57.1
  0
LINE
  8
0
 10
230.6
 11
233.6
 20
57.1
 21
57.1
  0
LINE
  8
0
 10
233.6
 11
233.6
 20
57.1
 21
66.725
  0
LINE
  8
0
 10
233.6
 11
230.6
 20
66.725
 21
66.725
  0
LINE
  8
0
 10
230.6
 11
230.6
 20
66.725
 21
73.2
  0
LINE
  8
0
 10
230.6
 11
230.65
 20
73.2
 21
73.2
  0
LINE
  8
0
 10
230.65
 11
230.65
 20
73.2
 21
76.15
  0
LINE
  8
0
 10
230.65
 11
233.6
 20
76.15
 21
76.15
  0
LINE
  8
0
 10
233.6
 11
233.6
 20
76.15
 21
76.2
  0
LINE
  8
0
 10
233.6
 11
240.075
 20
76.2
 21
76.2
  0
LINE
  8
0
 10
240.075
 11
240.075
 20
76.2
 21
73.2
  0
LINE
  8
0
 10
240.075
 11
249.7
 20
73.2
 21
73.2
  0
LINE
  8
0
 10
249.7
 11
249.7
 20
73.2
 21
76.2
  0
LINE
  8
0
 10
249.7
 11
259.125
 20
76.2
 21
76.2
  0
LINE
  8
0
 10
259.125
 11
259.125
 20
76.2
 21
73.2
  0
LINE
  8
0
 10
259.125
 11
268.75
 20
73.2
 21
73.2
  0
LINE
  8
0
 10
268.75
 11
268.75
 20
73.2
 21
76.2
  0
LINE
  8
0
 10
268.75
 11
278.175
 20
76.2
 21
76.2
  0
LINE
  8
0
 10
278.175
 11
278.175
 20
76.2
 21
73.2
  0
LINE
  8
0
 10
278.175
 11
287.8
 20
73.2
 21
73.2
  0
LINE
  8
0
 10
287.8
 11
287.8
 20
73.2
 21
76.2
  0
LINE
  8
0
 10
287.8
 11
297.225
 20
76.2
 21
76.2
  0
LINE
  8
0
 10
297.225
 11
297.225
 20
76.2
 21
73.2
  0
LINE
  8
0
 10
297.225
 11
306.85
 20
73.2
 21
73.2
  0
LINE
  8
0
 10
306.85
 11
306.85
 20
73.2
 21
76.2
  0
LINE
  8
0
 10
306.85
 11
316.275
 20
76.2
 21
76.2
  0
LINE
  8
0
 10
316.275
 11
316.275
 20
76.2
 21
73.2
  0
LINE
  8
0
 10
316.275
 11
325.9
 20
73.2
 21
73.2
  0
LINE
  8
0
 10
325.9
 11
325.9
 20
73.2
 21
76.2
  0
LINE
  8
0
 10
325.9
 11
335.325
 20
76.2
 21
76.2
  0
LINE
  8
0
 10
335.325
 11
335.325
 20
76.2
 21
73.2
  0
LINE
  8
0
 10
335.325
 11
344.95
 20
73.2
 21
73.2
  0
LINE
  8
0
 10
344.95
 11
344.95
 20
73.2
 21
76.2
  0
LINE
  8
0
 10
344.95
 11
354.375
 20
76.2
 21
76.2
  0
LINE
  8
0
 10
354.375
 11
354.375
 20
76.2
 21
73.2
  0
LINE
  8
0
 10
354.375
 11
364
 20
73.2
 21
73.2
  0
LINE
  8
0
 10
364
 11
364
 20
73.2
 21
76.2
  0
LINE
  8
0
 10
364
 11
373.425
 20
76.2
 21
76.2
  0
LINE
  8
0
 10
373.425
 11
373.425
 20
76.2
 21
73.2
  0
LINE
  8
0
 10
373.425
 11
380
 20
73.2
 21
73.2
  0
LINE
  8
0
 10
380
 11
380
 20
73.2
 21
66.625
  0
LINE
  8
0
 10
380
 11
383
 20
66.625
 21
66.625
  0
LINE
  8
0
 10
383
 11
383
 20
66.625
 21
57.2
  0
LINE
  8
0
 10
383
 11
380
 20
57.2
 21
57.2
  0
LINE
  8
0
 10
380
 11
380
 20
57.2
 21
47.575
  0
LINE
  8
0
 10
380
 11
383
 20
47.575
 21
47.575
  0
LINE
  8
0
 10
383
 11
383
 20
47.575
 21
38.15
  0
LINE
  8
0
 10
383
 11
380
 20
38.15
 21
38.15
  0
LINE
  8
0
 10
380
 11
380
 20
38.15
 21
28.525
  0
LINE
  8
0
 10
380
 11
383
 20
28.525
 21
28.525
  0
LINE
  8
0
 10
383
 11
383
 20
28.525
 21
19.1
  0
LINE
  8
0
 10
383
 11
380
 20
19.1
 21
19.1
  0
LINE
  8
0
 10
380
 11
380
 20
19.1
 21
9.475
  0
LINE
  8
0
 10
380
 11
383
 20
9.475
 21
9.475
  0
LINE
  8
0
 10
383
 11
383
 20
9.475
 21
0.05
  0
LINE
  8
0
 10
383
 11
380
 20
0.05
 21
0.05
  0
LINE
  8
0
 10
380
 11
380
 20
0.05
 21
-9.575
  0
LINE
  8
0
 10
380
 11
383
 20
-9.575
 21
-9.575
  0
LINE
  8
0
 10
383
 11
383
 20
-9.575
 21
-19
  0
LINE
  8
0
 10
383
 11
380
 20
-19
 21
-19
  0
LINE
  8
0
 10
380
 11
380
 20
-19
 21
-28.625
  0
LINE
  8
0
 10
380
 11
383
 20
-28.625
 21
-28.625
  0
LINE
  8
0
 10
383
 11
383
 20
-28.625
 21
-38.05
  0
LINE
  8
0
 10
383
 11
380
 20
-38.05
 21
-38.05
  0
LINE
  8
0
 10
380
 11
380
 20
-38.05
 21
-47.675
  0
LINE
  8
0
 10
380
 11
383
 20
-47.675
 21
-47.675
  0
LINE
  8
0
 10
383
 11
383
 20
-47.675
 21
-57.1
  0
LINE
  8
0
 10
383
 11
380
 20
-57.1
 21
-57.1
  0
LINE
  8
0
 10
380
 11
380
 20
-57.1
 21
-66.725
  0
LINE
  8
0
 10
380
 11
383
 20
-66.725
 21
-66.725
  0
LINE
  8
0
 10
383
 11
383
 20
-66.725
 21
-73.2
  0
LINE
  8
0
 10
383
 11
382.95
 20
-73.2
 21
-73.2
  0
LINE
  8
0
 10
382.95
 11
382.95
 20
-73.2
 21
-76.15
  0
LINE
  8
0
 10
382.95
 11
380
 20
-76.15
 21
-76.15
  0
LINE
  8
0
 10
380
 11
380
 20
-76.15
 21
-76.2
  0
LINE
  8
0
 10
380
 11
373.525
 20
-76.2
 21
-76.2
  0
LINE
  8
0
 10
373.525
 11
373.525
 20
-76.2
 21
-73.2
  0
LINE
  8
0
 10
373.525
 11
363.9
 20
-73.2
 21
-73.2
  0
LINE
  8
0
 10
363.9
 11
363.9
 20
-73.2
 21
-76.2
  0
LINE
  8
0
 10
363.9
 11
354.475
 20
-76.2
 21
-76.2
  0
LINE
  8
0
 10
354.475
 11
354.475
 20
-76.2
 21
-73.2
  0
LINE
  8
0
 10
354.475
 11
344.85
 20
-73.2
 21
-73.2
  0
LINE
  8
0
 10
344.85
 11
344.85
 20
-73.2
 21
-76.2
  0
LINE
  8
0
 10
344.85
 11
335.425
 20
-76.2
 21
-76.2
  0
LINE
  8
0
 10
335.425
 11
335.425
 20
-76.2
 21
-73.2
  0
LINE
  8
0
 10
335.425
 11
325.8
 20
-73.2
 21
-73.2
  0
LINE
  8
0
 10
325.8
 11
325.8
 20
-73.2
 21
-76.2
  0
LINE
  8
0
 10
325.8
 11
316.375
 20
-76.2
 21
-76.2
  0
LINE
  8
0
 10
316.375
 11
316.375
 20
-76.2
 21
-73.2
  0
LINE
  8
0
 10
316.375
 11
306.75
 20
-73.2
 21
-73.2
  0
LINE
  8
0
 10
306.75
 11
306.75
 20
-73.2
 21
-76.2
  0
LINE
  8
0
 10
306.75
 11
297.325
 20
-76.2
 21
-76.2
  0
LINE
  8
0
 10
297.325
 11
297.325
 20
-76.2
 21
-73.2
  0
LINE
  8
0
 10
297.325
 11
287.7
 20
-73.2
 21
-73.2
  0
LINE
  8
0
 10
287.7
 11
287.7
 20
-73.2
 21
-76.2
  0
LINE
  8
0
 10
287.7
 11
278.275
 20
-76.2
 21
-76.2
  0
LINE
  8
0
 10
278.275
 11
278.275
 20
-76.2
 21
-73.2
  0
LINE
  8
0
 10
278.275
 11
268.65
 20
-73.2
 21
-73.2
  0
LINE
  8
0
 10
268.65
 11
268.65
 20
-73.2
 21
-76.2
  0
LINE
  8
0
 10
268.65
 11
259.225
 20
-76.2
 21
-76.2
  0
LINE
  8
0
 10
259.225
 11
259.225
 20
-76.2
 21
-73.2
  0
LINE
  8
0
 10
259.225
 11
249.6
 20
-73.2
 21
-73.2
  0
LINE
  8
0
 10
249.6
 11
249.6
 20
-73.2
 21
-76.2
  0
LINE
  8
0
 10
249.6
 11
240.175
 20
-76.2
 21
-76.2
  0
LINE
  8
0
 10
240.175
 11
240.175
 20
-76.2
 21
-73.2
  0
LINE
  8
0
 10
240.175
 11
233.6
 20
-73.2
 21
-73.2
  0
LINE
  8
0
 10
233.6
 11
233.6
 20
-73.2
 21
-66.625
  0
LINE
  8
0
 10
233.6
 11
230.6
 20
-66.625
 21
-66.625
  0
ENDSEC
  0
SECTION
  2
OBJECTS
  0
DICTIONARY
  0
ENDSEC
  0
EOF
