  0
SECTION
  2
BLOCKS
  0
ENDSEC
  0
SECTION
  2
ENTITIES
  0
LINE
  8
0
 10
-31.75
 11
-31.75
 20
-96.25
 21
-96.187
  0
LINE
  8
0
 10
-31.75
 11
-31.686
 20
-96.187
 21
-96.187
  0
LINE
  8
0
 10
-31.686
 11
-31.686
 20
-96.187
 21
-96.25
  0
LINE
  8
0
 10
-31.686
 11
-31.75
 20
-96.25
 21
-96.25
  0
LINE
  8
0
 10
-31.75
 11
-31.75
 20
-92.345
 21
-88.249
  0
LINE
  8
0
 10
-31.75
 11
-28.813
 20
-88.249
 21
-88.249
  0
LINE
  8
0
 10
-28.813
 11
-28.813
 20
-88.249
 21
-84.407
  0
LINE
  8
0
 10
-28.813
 11
-31.75
 20
-84.407
 21
-84.407
  0
LINE
  8
0
 10
-31.75
 11
-31.75
 20
-84.407
 21
-80.312
  0
LINE
  8
0
 10
-31.75
 11
-28.813
 20
-80.312
 21
-80.312
  0
LINE
  8
0
 10
-28.813
 11
-28.813
 20
-80.312
 21
-76.47
  0
LINE
  8
0
 10
-28.813
 11
-31.75
 20
-76.47
 21
-76.47
  0
LINE
  8
0
 10
-31.75
 11
-31.75
 20
-76.47
 21
-72.374
  0
LINE
  8
0
 10
-31.75
 11
-28.813
 20
-72.374
 21
-72.374
  0
LINE
  8
0
 10
-28.813
 11
-28.813
 20
-72.374
 21
-68.532
  0
LINE
  8
0
 10
-28.813
 11
-31.75
 20
-68.532
 21
-68.532
  0
LINE
  8
0
 10
-31.75
 11
-31.75
 20
-68.532
 21
-64.436
  0
LINE
  8
0
 10
-31.75
 11
-28.813
 20
-64.436
 21
-64.436
  0
LINE
  8
0
 10
-28.813
 11
-28.813
 20
-64.436
 21
-60.595
  0
LINE
  8
0
 10
-28.813
 11
-31.75
 20
-60.595
 21
-60.595
  0
LINE
  8
0
 10
-31.75
 11
-31.75
 20
-60.595
 21
-56.499
  0
LINE
  8
0
 10
-31.75
 11
-28.813
 20
-56.499
 21
-56.499
  0
LINE
  8
0
 10
-28.813
 11
-28.813
 20
-56.499
 21
-52.657
  0
LINE
  8
0
 10
-28.813
 11
-31.75
 20
-52.657
 21
-52.657
  0
LINE
  8
0
 10
-31.75
 11
-31.75
 20
-52.657
 21
-48.561
  0
LINE
  8
0
 10
-31.75
 11
-28.813
 20
-48.561
 21
-48.561
  0
LINE
  8
0
 10
-28.813
 11
-28.813
 20
-48.561
 21
-44.72
  0
LINE
  8
0
 10
-28.813
 11
-31.75
 20
-44.72
 21
-44.72
  0
LINE
  8
0
 10
-31.75
 11
-31.75
 20
-44.72
 21
-40.624
  0
LINE
  8
0
 10
-31.75
 11
-28.813
 20
-40.624
 21
-40.624
  0
LINE
  8
0
 10
-28.813
 11
-28.813
 20
-40.624
 21
-36.782
  0
LINE
  8
0
 10
-28.813
 11
-31.75
 20
-36.782
 21
-36.782
  0
LINE
  8
0
 10
-31.75
 11
-31.75
 20
-36.782
 21
-32.75
  0
LINE
  8
0
 10
-31.75
 11
-27.718
 20
-32.75
 21
-32.75
  0
LINE
  8
0
 10
-27.718
 11
-27.718
 20
-32.75
 21
-35.686
  0
LINE
  8
0
 10
-27.718
 11
-23.876
 20
-35.686
 21
-35.686
  0
LINE
  8
0
 10
-23.876
 11
-23.876
 20
-35.686
 21
-32.75
  0
LINE
  8
0
 10
-23.876
 11
-19.78
 20
-32.75
 21
-32.75
  0
LINE
  8
0
 10
-19.78
 11
-19.78
 20
-32.75
 21
-35.686
  0
LINE
  8
0
 10
-19.78
 11
-15.939
 20
-35.686
 21
-35.686
  0
LINE
  8
0
 10
-15.939
 11
-15.939
 20
-35.686
 21
-32.75
  0
LINE
  8
0
 10
-15.939
 11
-11.843
 20
-32.75
 21
-32.75
  0
LINE
  8
0
 10
-11.843
 11
-11.843
 20
-32.75
 21
-35.686
  0
LINE
  8
0
 10
-11.843
 11
-8.001
 20
-35.686
 21
-35.686
  0
LINE
  8
0
 10
-8.001
 11
-8.001
 20
-35.686
 21
-32.75
  0
LINE
  8
0
 10
-8.001
 11
-3.905
 20
-32.75
 21
-32.75
  0
LINE
  8
0
 10
-3.905
 11
-3.905
 20
-32.75
 21
-35.686
  0
LINE
  8
0
 10
-3.905
 11
-0.064
 20
-35.686
 21
-35.686
  0
LINE
  8
0
 10
-0.064
 11
-0.064
 20
-35.686
 21
-32.75
  0
LINE
  8
0
 10
-0.064
 11
4.032
 20
-32.75
 21
-32.75
  0
LINE
  8
0
 10
4.032
 11
4.032
 20
-32.75
 21
-35.686
  0
LINE
  8
0
 10
4.032
 11
7.874
 20
-35.686
 21
-35.686
  0
LINE
  8
0
 10
7.874
 11
7.874
 20
-35.686
 21
-32.75
  0
LINE
  8
0
 10
7.874
 11
11.97
 20
-32.75
 21
-32.75
  0
LINE
  8
0
 10
11.97
 11
11.97
 20
-32.75
 21
-35.686
  0
LINE
  8
0
 10
11.97
 11
15.811
 20
-35.686
 21
-35.686
  0
LINE
  8
0
 10
15.811
 11
15.811
 20
-35.686
 21
-32.75
  0
LINE
  8
0
 10
15.811
 11
19.907
 20
-32.75
 21
-32.75
  0
LINE
  8
0
 10
19.907
 11
19.907
 20
-32.75
 21
-35.686
  0
LINE
  8
0
 10
19.907
 11
23.749
 20
-35.686
 21
-35.686
  0
LINE
  8
0
 10
23.749
 11
23.749
 20
-35.686
 21
-32.75
  0
LINE
  8
0
 10
23.749
 11
27.845
 20
-32.75
 21
-32.75
  0
LINE
  8
0
 10
27.845
 11
27.845
 20
-32.75
 21
-35.686
  0
LINE
  8
0
 10
27.845
 11
28.813
 20
-35.686
 21
-35.686
  0
LINE
  8
0
 10
28.813
 11
28.813
 20
-35.686
 21
-36.655
  0
LINE
  8
0
 10
28.813
 11
31.75
 20
-36.655
 21
-36.655
  0
LINE
  8
0
 10
31.75
 11
31.75
 20
-36.655
 21
-40.751
  0
LINE
  8
0
 10
31.75
 11
28.813
 20
-40.751
 21
-40.751
  0
LINE
  8
0
 10
28.813
 11
28.813
 20
-40.751
 21
-44.593
  0
LINE
  8
0
 10
28.813
 11
31.75
 20
-44.593
 21
-44.593
  0
LINE
  8
0
 10
31.75
 11
31.75
 20
-44.593
 21
-48.689
  0
LINE
  8
0
 10
31.75
 11
28.813
 20
-48.689
 21
-48.689
  0
LINE
  8
0
 10
28.813
 11
28.813
 20
-48.689
 21
-52.53
  0
LINE
  8
0
 10
28.813
 11
31.75
 20
-52.53
 21
-52.53
  0
LINE
  8
0
 10
31.75
 11
31.75
 20
-52.53
 21
-56.626
  0
LINE
  8
0
 10
31.75
 11
28.813
 20
-56.626
 21
-56.626
  0
LINE
  8
0
 10
28.813
 11
28.813
 20
-56.626
 21
-60.468
  0
LINE
  8
0
 10
28.813
 11
31.75
 20
-60.468
 21
-60.468
  0
LINE
  8
0
 10
31.75
 11
31.75
 20
-60.468
 21
-64.563
  0
LINE
  8
0
 10
31.75
 11
28.813
 20
-64.563
 21
-64.563
  0
LINE
  8
0
 10
28.813
 11
28.813
 20
-64.563
 21
-68.405
  0
LINE
  8
0
 10
28.813
 11
31.75
 20
-68.405
 21
-68.405
  0
LINE
  8
0
 10
31.75
 11
31.75
 20
-68.405
 21
-72.501
  0
LINE
  8
0
 10
31.75
 11
28.813
 20
-72.501
 21
-72.501
  0
LINE
  8
0
 10
28.813
 11
28.813
 20
-72.501
 21
-76.343
  0
LINE
  8
0
 10
28.813
 11
31.75
 20
-76.343
 21
-76.343
  0
LINE
  8
0
 10
31.75
 11
31.75
 20
-76.343
 21
-80.438
  0
LINE
  8
0
 10
31.75
 11
28.813
 20
-80.438
 21
-80.438
  0
LINE
  8
0
 10
28.813
 11
28.813
 20
-80.438
 21
-84.28
  0
LINE
  8
0
 10
28.813
 11
31.75
 20
-84.28
 21
-84.28
  0
LINE
  8
0
 10
31.75
 11
31.75
 20
-84.28
 21
-88.376
  0
LINE
  8
0
 10
31.75
 11
28.813
 20
-88.376
 21
-88.376
  0
LINE
  8
0
 10
28.813
 11
28.813
 20
-88.376
 21
-92.218
  0
LINE
  8
0
 10
28.813
 11
31.75
 20
-92.218
 21
-92.218
  0
LINE
  8
0
 10
31.75
 11
31.75
 20
-92.218
 21
-96.25
  0
LINE
  8
0
 10
31.75
 11
27.718
 20
-96.25
 21
-96.25
  0
LINE
  8
0
 10
27.718
 11
27.718
 20
-96.25
 21
-93.313
  0
LINE
  8
0
 10
27.718
 11
23.876
 20
-93.313
 21
-93.313
  0
LINE
  8
0
 10
23.876
 11
23.876
 20
-93.313
 21
-96.25
  0
LINE
  8
0
 10
23.876
 11
19.78
 20
-96.25
 21
-96.25
  0
LINE
  8
0
 10
19.78
 11
19.78
 20
-96.25
 21
-93.313
  0
LINE
  8
0
 10
19.78
 11
15.939
 20
-93.313
 21
-93.313
  0
LINE
  8
0
 10
15.939
 11
15.939
 20
-93.313
 21
-96.25
  0
LINE
  8
0
 10
15.939
 11
11.843
 20
-96.25
 21
-96.25
  0
LINE
  8
0
 10
11.843
 11
11.843
 20
-96.25
 21
-93.313
  0
LINE
  8
0
 10
11.843
 11
8.001
 20
-93.313
 21
-93.313
  0
LINE
  8
0
 10
8.001
 11
8.001
 20
-93.313
 21
-96.25
  0
LINE
  8
0
 10
8.001
 11
3.905
 20
-96.25
 21
-96.25
  0
LINE
  8
0
 10
3.905
 11
3.905
 20
-96.25
 21
-93.313
  0
LINE
  8
0
 10
3.905
 11
0.064
 20
-93.313
 21
-93.313
  0
LINE
  8
0
 10
0.064
 11
0.064
 20
-93.313
 21
-96.25
  0
LINE
  8
0
 10
0.064
 11
-4.032
 20
-96.25
 21
-96.25
  0
LINE
  8
0
 10
-4.032
 11
-4.032
 20
-96.25
 21
-93.313
  0
LINE
  8
0
 10
-4.032
 11
-7.874
 20
-93.313
 21
-93.313
  0
LINE
  8
0
 10
-7.874
 11
-7.874
 20
-93.313
 21
-96.25
  0
LINE
  8
0
 10
-7.874
 11
-11.97
 20
-96.25
 21
-96.25
  0
LINE
  8
0
 10
-11.97
 11
-11.97
 20
-96.25
 21
-93.313
  0
LINE
  8
0
 10
-11.97
 11
-15.811
 20
-93.313
 21
-93.313
  0
LINE
  8
0
 10
-15.811
 11
-15.811
 20
-93.313
 21
-96.25
  0
LINE
  8
0
 10
-15.811
 11
-19.907
 20
-96.25
 21
-96.25
  0
LINE
  8
0
 10
-19.907
 11
-19.907
 20
-96.25
 21
-93.313
  0
LINE
  8
0
 10
-19.907
 11
-23.749
 20
-93.313
 21
-93.313
  0
LINE
  8
0
 10
-23.749
 11
-23.749
 20
-93.313
 21
-96.25
  0
LINE
  8
0
 10
-23.749
 11
-27.845
 20
-96.25
 21
-96.25
  0
LINE
  8
0
 10
-27.845
 11
-27.845
 20
-96.25
 21
-93.313
  0
LINE
  8
0
 10
-27.845
 11
-28.813
 20
-93.313
 21
-93.313
  0
LINE
  8
0
 10
-28.813
 11
-28.813
 20
-93.313
 21
-92.345
  0
LINE
  8
0
 10
-28.813
 11
-31.75
 20
-92.345
 21
-92.345
  0
LINE
  8
0
 10
-31.75
 11
-31.75
 20
-31.75
 21
-31.686
  0
LINE
  8
0
 10
-31.75
 11
-31.686
 20
-31.686
 21
-31.686
  0
LINE
  8
0
 10
-31.686
 11
-31.686
 20
-31.686
 21
-31.75
  0
LINE
  8
0
 10
-31.686
 11
-31.75
 20
-31.75
 21
-31.75
  0
LINE
  8
0
 10
-31.75
 11
-31.75
 20
-27.845
 21
-23.749
  0
LINE
  8
0
 10
-31.75
 11
-28.813
 20
-23.749
 21
-23.749
  0
LINE
  8
0
 10
-28.813
 11
-28.813
 20
-23.749
 21
-19.907
  0
LINE
  8
0
 10
-28.813
 11
-31.75
 20
-19.907
 21
-19.907
  0
LINE
  8
0
 10
-31.75
 11
-31.75
 20
-19.907
 21
-15.811
  0
LINE
  8
0
 10
-31.75
 11
-28.813
 20
-15.811
 21
-15.811
  0
LINE
  8
0
 10
-28.813
 11
-28.813
 20
-15.811
 21
-11.97
  0
LINE
  8
0
 10
-28.813
 11
-31.75
 20
-11.97
 21
-11.97
  0
LINE
  8
0
 10
-31.75
 11
-31.75
 20
-11.97
 21
-7.874
  0
LINE
  8
0
 10
-31.75
 11
-28.813
 20
-7.874
 21
-7.874
  0
LINE
  8
0
 10
-28.813
 11
-28.813
 20
-7.874
 21
-4.032
  0
LINE
  8
0
 10
-28.813
 11
-31.75
 20
-4.032
 21
-4.032
  0
LINE
  8
0
 10
-31.75
 11
-31.75
 20
-4.032
 21
0.064
  0
LINE
  8
0
 10
-31.75
 11
-28.813
 20
0.064
 21
0.064
  0
LINE
  8
0
 10
-28.813
 11
-28.813
 20
0.064
 21
3.905
  0
LINE
  8
0
 10
-28.813
 11
-31.75
 20
3.905
 21
3.905
  0
LINE
  8
0
 10
-31.75
 11
-31.75
 20
3.905
 21
8.001
  0
LINE
  8
0
 10
-31.75
 11
-28.813
 20
8.001
 21
8.001
  0
LINE
  8
0
 10
-28.813
 11
-28.813
 20
8.001
 21
11.843
  0
LINE
  8
0
 10
-28.813
 11
-31.75
 20
11.843
 21
11.843
  0
LINE
  8
0
 10
-31.75
 11
-31.75
 20
11.843
 21
15.939
  0
LINE
  8
0
 10
-31.75
 11
-28.813
 20
15.939
 21
15.939
  0
LINE
  8
0
 10
-28.813
 11
-28.813
 20
15.939
 21
19.78
  0
LINE
  8
0
 10
-28.813
 11
-31.75
 20
19.78
 21
19.78
  0
LINE
  8
0
 10
-31.75
 11
-31.75
 20
19.78
 21
23.876
  0
LINE
  8
0
 10
-31.75
 11
-28.813
 20
23.876
 21
23.876
  0
LINE
  8
0
 10
-28.813
 11
-28.813
 20
23.876
 21
27.718
  0
LINE
  8
0
 10
-28.813
 11
-31.75
 20
27.718
 21
27.718
  0
LINE
  8
0
 10
-31.75
 11
-31.75
 20
27.718
 21
31.75
  0
LINE
  8
0
 10
-31.75
 11
-27.718
 20
31.75
 21
31.75
  0
LINE
  8
0
 10
-27.718
 11
-27.718
 20
31.75
 21
28.813
  0
LINE
  8
0
 10
-27.718
 11
-23.876
 20
28.813
 21
28.813
  0
LINE
  8
0
 10
-23.876
 11
-23.876
 20
28.813
 21
31.75
  0
LINE
  8
0
 10
-23.876
 11
-19.78
 20
31.75
 21
31.75
  0
LINE
  8
0
 10
-19.78
 11
-19.78
 20
31.75
 21
28.813
  0
LINE
  8
0
 10
-19.78
 11
-15.939
 20
28.813
 21
28.813
  0
LINE
  8
0
 10
-15.939
 11
-15.939
 20
28.813
 21
31.75
  0
LINE
  8
0
 10
-15.939
 11
-11.843
 20
31.75
 21
31.75
  0
LINE
  8
0
 10
-11.843
 11
-11.843
 20
31.75
 21
28.813
  0
LINE
  8
0
 10
-11.843
 11
-8.001
 20
28.813
 21
28.813
  0
LINE
  8
0
 10
-8.001
 11
-8.001
 20
28.813
 21
31.75
  0
LINE
  8
0
 10
-8.001
 11
-3.905
 20
31.75
 21
31.75
  0
LINE
  8
0
 10
-3.905
 11
-3.905
 20
31.75
 21
28.813
  0
LINE
  8
0
 10
-3.905
 11
-0.064
 20
28.813
 21
28.813
  0
LINE
  8
0
 10
-0.064
 11
-0.064
 20
28.813
 21
31.75
  0
LINE
  8
0
 10
-0.064
 11
4.032
 20
31.75
 21
31.75
  0
LINE
  8
0
 10
4.032
 11
4.032
 20
31.75
 21
28.813
  0
LINE
  8
0
 10
4.032
 11
7.874
 20
28.813
 21
28.813
  0
LINE
  8
0
 10
7.874
 11
7.874
 20
28.813
 21
31.75
  0
LINE
  8
0
 10
7.874
 11
11.97
 20
31.75
 21
31.75
  0
LINE
  8
0
 10
11.97
 11
11.97
 20
31.75
 21
28.813
  0
LINE
  8
0
 10
11.97
 11
15.811
 20
28.813
 21
28.813
  0
LINE
  8
0
 10
15.811
 11
15.811
 20
28.813
 21
31.75
  0
LINE
  8
0
 10
15.811
 11
19.907
 20
31.75
 21
31.75
  0
LINE
  8
0
 10
19.907
 11
19.907
 20
31.75
 21
28.813
  0
LINE
  8
0
 10
19.907
 11
23.749
 20
28.813
 21
28.813
  0
LINE
  8
0
 10
23.749
 11
23.749
 20
28.813
 21
31.75
  0
LINE
  8
0
 10
23.749
 11
27.845
 20
31.75
 21
31.75
  0
LINE
  8
0
 10
27.845
 11
27.845
 20
31.75
 21
28.813
  0
LINE
  8
0
 10
27.845
 11
28.813
 20
28.813
 21
28.813
  0
LINE
  8
0
 10
28.813
 11
28.813
 20
28.813
 21
27.845
  0
LINE
  8
0
 10
28.813
 11
31.75
 20
27.845
 21
27.845
  0
LINE
  8
0
 10
31.75
 11
31.75
 20
27.845
 21
23.749
  0
LINE
  8
0
 10
31.75
 11
28.813
 20
23.749
 21
23.749
  0
LINE
  8
0
 10
28.813
 11
28.813
 20
23.749
 21
19.907
  0
LINE
  8
0
 10
28.813
 11
31.75
 20
19.907
 21
19.907
  0
LINE
  8
0
 10
31.75
 11
31.75
 20
19.907
 21
15.811
  0
LINE
  8
0
 10
31.75
 11
28.813
 20
15.811
 21
15.811
  0
LINE
  8
0
 10
28.813
 11
28.813
 20
15.811
 21
11.97
  0
LINE
  8
0
 10
28.813
 11
31.75
 20
11.97
 21
11.97
  0
LINE
  8
0
 10
31.75
 11
31.75
 20
11.97
 21
7.874
  0
LINE
  8
0
 10
31.75
 11
28.813
 20
7.874
 21
7.874
  0
LINE
  8
0
 10
28.813
 11
28.813
 20
7.874
 21
4.032
  0
LINE
  8
0
 10
28.813
 11
31.75
 20
4.032
 21
4.032
  0
LINE
  8
0
 10
31.75
 11
31.75
 20
4.032
 21
-0.064
  0
LINE
  8
0
 10
31.75
 11
28.813
 20
-0.064
 21
-0.064
  0
LINE
  8
0
 10
28.813
 11
28.813
 20
-0.064
 21
-3.905
  0
LINE
  8
0
 10
28.813
 11
31.75
 20
-3.905
 21
-3.905
  0
LINE
  8
0
 10
31.75
 11
31.75
 20
-3.905
 21
-8.001
  0
LINE
  8
0
 10
31.75
 11
28.813
 20
-8.001
 21
-8.001
  0
LINE
  8
0
 10
28.813
 11
28.813
 20
-8.001
 21
-11.843
  0
LINE
  8
0
 10
28.813
 11
31.75
 20
-11.843
 21
-11.843
  0
LINE
  8
0
 10
31.75
 11
31.75
 20
-11.843
 21
-15.939
  0
LINE
  8
0
 10
31.75
 11
28.813
 20
-15.939
 21
-15.939
  0
LINE
  8
0
 10
28.813
 11
28.813
 20
-15.939
 21
-19.78
  0
LINE
  8
0
 10
28.813
 11
31.75
 20
-19.78
 21
-19.78
  0
LINE
  8
0
 10
31.75
 11
31.75
 20
-19.78
 21
-23.876
  0
LINE
  8
0
 10
31.75
 11
28.813
 20
-23.876
 21
-23.876
  0
LINE
  8
0
 10
28.813
 11
28.813
 20
-23.876
 21
-27.718
  0
LINE
  8
0
 10
28.813
 11
31.75
 20
-27.718
 21
-27.718
  0
LINE
  8
0
 10
31.75
 11
31.75
 20
-27.718
 21
-31.75
  0
LINE
  8
0
 10
31.75
 11
27.718
 20
-31.75
 21
-31.75
  0
LINE
  8
0
 10
27.718
 11
27.718
 20
-31.75
 21
-28.813
  0
LINE
  8
0
 10
27.718
 11
23.876
 20
-28.813
 21
-28.813
  0
LINE
  8
0
 10
23.876
 11
23.876
 20
-28.813
 21
-31.75
  0
LINE
  8
0
 10
23.876
 11
19.78
 20
-31.75
 21
-31.75
  0
LINE
  8
0
 10
19.78
 11
19.78
 20
-31.75
 21
-28.813
  0
LINE
  8
0
 10
19.78
 11
15.939
 20
-28.813
 21
-28.813
  0
LINE
  8
0
 10
15.939
 11
15.939
 20
-28.813
 21
-31.75
  0
LINE
  8
0
 10
15.939
 11
11.843
 20
-31.75
 21
-31.75
  0
LINE
  8
0
 10
11.843
 11
11.843
 20
-31.75
 21
-28.813
  0
LINE
  8
0
 10
11.843
 11
8.001
 20
-28.813
 21
-28.813
  0
LINE
  8
0
 10
8.001
 11
8.001
 20
-28.813
 21
-31.75
  0
LINE
  8
0
 10
8.001
 11
3.905
 20
-31.75
 21
-31.75
  0
LINE
  8
0
 10
3.905
 11
3.905
 20
-31.75
 21
-28.813
  0
LINE
  8
0
 10
3.905
 11
0.064
 20
-28.813
 21
-28.813
  0
LINE
  8
0
 10
0.064
 11
0.064
 20
-28.813
 21
-31.75
  0
LINE
  8
0
 10
0.064
 11
-4.032
 20
-31.75
 21
-31.75
  0
LINE
  8
0
 10
-4.032
 11
-4.032
 20
-31.75
 21
-28.813
  0
LINE
  8
0
 10
-4.032
 11
-7.874
 20
-28.813
 21
-28.813
  0
LINE
  8
0
 10
-7.874
 11
-7.874
 20
-28.813
 21
-31.75
  0
LINE
  8
0
 10
-7.874
 11
-11.97
 20
-31.75
 21
-31.75
  0
LINE
  8
0
 10
-11.97
 11
-11.97
 20
-31.75
 21
-28.813
  0
LINE
  8
0
 10
-11.97
 11
-15.811
 20
-28.813
 21
-28.813
  0
LINE
  8
0
 10
-15.811
 11
-15.811
 20
-28.813
 21
-31.75
  0
LINE
  8
0
 10
-15.811
 11
-19.907
 20
-31.75
 21
-31.75
  0
LINE
  8
0
 10
-19.907
 11
-19.907
 20
-31.75
 21
-28.813
  0
LINE
  8
0
 10
-19.907
 11
-23.749
 20
-28.813
 21
-28.813
  0
LINE
  8
0
 10
-23.749
 11
-23.749
 20
-28.813
 21
-31.75
  0
LINE
  8
0
 10
-23.749
 11
-27.845
 20
-31.75
 21
-31.75
  0
LINE
  8
0
 10
-27.845
 11
-27.845
 20
-31.75
 21
-28.813
  0
LINE
  8
0
 10
-27.845
 11
-28.813
 20
-28.813
 21
-28.813
  0
LINE
  8
0
 10
-28.813
 11
-28.813
 20
-28.813
 21
-27.845
  0
LINE
  8
0
 10
-28.813
 11
-31.75
 20
-27.845
 21
-27.845
  0
LINE
  8
0
 10
31.686
 11
31.686
 20
-32.814
 21
-32.75
  0
LINE
  8
0
 10
31.686
 11
31.75
 20
-32.75
 21
-32.75
  0
LINE
  8
0
 10
31.75
 11
31.75
 20
-32.75
 21
-32.814
  0
LINE
  8
0
 10
31.75
 11
31.686
 20
-32.814
 21
-32.814
  0
LINE
  8
0
 10
31.686
 11
31.686
 20
31.686
 21
31.75
  0
LINE
  8
0
 10
31.686
 11
31.75
 20
31.75
 21
31.75
  0
LINE
  8
0
 10
31.75
 11
31.75
 20
31.75
 21
31.686
  0
LINE
  8
0
 10
31.75
 11
31.686
 20
31.686
 21
31.686
  0
LINE
  8
0
 10
32.75
 11
32.75
 20
-93.313
 21
-92.218
  0
LINE
  8
0
 10
32.75
 11
35.75
 20
-92.218
 21
-92.218
  0
LINE
  8
0
 10
35.75
 11
35.75
 20
-92.218
 21
-88.376
  0
LINE
  8
0
 10
35.75
 11
32.75
 20
-88.376
 21
-88.376
  0
LINE
  8
0
 10
32.75
 11
32.75
 20
-88.376
 21
-84.28
  0
LINE
  8
0
 10
32.75
 11
35.75
 20
-84.28
 21
-84.28
  0
LINE
  8
0
 10
35.75
 11
35.75
 20
-84.28
 21
-80.438
  0
LINE
  8
0
 10
35.75
 11
32.75
 20
-80.438
 21
-80.438
  0
LINE
  8
0
 10
32.75
 11
32.75
 20
-80.438
 21
-76.343
  0
LINE
  8
0
 10
32.75
 11
35.75
 20
-76.343
 21
-76.343
  0
LINE
  8
0
 10
35.75
 11
35.75
 20
-76.343
 21
-72.501
  0
LINE
  8
0
 10
35.75
 11
32.75
 20
-72.501
 21
-72.501
  0
LINE
  8
0
 10
32.75
 11
32.75
 20
-72.501
 21
-68.405
  0
LINE
  8
0
 10
32.75
 11
35.75
 20
-68.405
 21
-68.405
  0
LINE
  8
0
 10
35.75
 11
35.75
 20
-68.405
 21
-64.563
  0
LINE
  8
0
 10
35.75
 11
32.75
 20
-64.563
 21
-64.563
  0
LINE
  8
0
 10
32.75
 11
32.75
 20
-64.563
 21
-60.468
  0
LINE
  8
0
 10
32.75
 11
35.75
 20
-60.468
 21
-60.468
  0
LINE
  8
0
 10
35.75
 11
35.75
 20
-60.468
 21
-56.626
  0
LINE
  8
0
 10
35.75
 11
32.75
 20
-56.626
 21
-56.626
  0
LINE
  8
0
 10
32.75
 11
32.75
 20
-56.626
 21
-52.53
  0
LINE
  8
0
 10
32.75
 11
35.75
 20
-52.53
 21
-52.53
  0
LINE
  8
0
 10
35.75
 11
35.75
 20
-52.53
 21
-48.689
  0
LINE
  8
0
 10
35.75
 11
32.75
 20
-48.689
 21
-48.689
  0
LINE
  8
0
 10
32.75
 11
32.75
 20
-48.689
 21
-44.593
  0
LINE
  8
0
 10
32.75
 11
35.75
 20
-44.593
 21
-44.593
  0
LINE
  8
0
 10
35.75
 11
35.75
 20
-44.593
 21
-40.751
  0
LINE
  8
0
 10
35.75
 11
32.75
 20
-40.751
 21
-40.751
  0
LINE
  8
0
 10
32.75
 11
32.75
 20
-40.751
 21
-36.655
  0
LINE
  8
0
 10
32.75
 11
35.75
 20
-36.655
 21
-36.655
  0
LINE
  8
0
 10
35.75
 11
35.75
 20
-36.655
 21
-32.814
  0
LINE
  8
0
 10
35.75
 11
35.686
 20
-32.814
 21
-32.814
  0
LINE
  8
0
 10
35.686
 11
35.686
 20
-32.814
 21
-32.75
  0
LINE
  8
0
 10
35.686
 11
36.782
 20
-32.75
 21
-32.75
  0
LINE
  8
0
 10
36.782
 11
36.782
 20
-32.75
 21
-35.75
  0
LINE
  8
0
 10
36.782
 11
40.624
 20
-35.75
 21
-35.75
  0
LINE
  8
0
 10
40.624
 11
40.624
 20
-35.75
 21
-32.75
  0
LINE
  8
0
 10
40.624
 11
44.72
 20
-32.75
 21
-32.75
  0
LINE
  8
0
 10
44.72
 11
44.72
 20
-32.75
 21
-35.75
  0
LINE
  8
0
 10
44.72
 11
48.561
 20
-35.75
 21
-35.75
  0
LINE
  8
0
 10
48.561
 11
48.561
 20
-35.75
 21
-32.75
  0
LINE
  8
0
 10
48.561
 11
52.657
 20
-32.75
 21
-32.75
  0
LINE
  8
0
 10
52.657
 11
52.657
 20
-32.75
 21
-35.75
  0
LINE
  8
0
 10
52.657
 11
56.499
 20
-35.75
 21
-35.75
  0
LINE
  8
0
 10
56.499
 11
56.499
 20
-35.75
 21
-32.75
  0
LINE
  8
0
 10
56.499
 11
60.595
 20
-32.75
 21
-32.75
  0
LINE
  8
0
 10
60.595
 11
60.595
 20
-32.75
 21
-35.75
  0
LINE
  8
0
 10
60.595
 11
64.436
 20
-35.75
 21
-35.75
  0
LINE
  8
0
 10
64.436
 11
64.436
 20
-35.75
 21
-32.75
  0
LINE
  8
0
 10
64.436
 11
68.532
 20
-32.75
 21
-32.75
  0
LINE
  8
0
 10
68.532
 11
68.532
 20
-32.75
 21
-35.75
  0
LINE
  8
0
 10
68.532
 11
72.374
 20
-35.75
 21
-35.75
  0
LINE
  8
0
 10
72.374
 11
72.374
 20
-35.75
 21
-32.75
  0
LINE
  8
0
 10
72.374
 11
76.47
 20
-32.75
 21
-32.75
  0
LINE
  8
0
 10
76.47
 11
76.47
 20
-32.75
 21
-35.75
  0
LINE
  8
0
 10
76.47
 11
80.312
 20
-35.75
 21
-35.75
  0
LINE
  8
0
 10
80.312
 11
80.312
 20
-35.75
 21
-32.75
  0
LINE
  8
0
 10
80.312
 11
84.407
 20
-32.75
 21
-32.75
  0
LINE
  8
0
 10
84.407
 11
84.407
 20
-32.75
 21
-35.75
  0
LINE
  8
0
 10
84.407
 11
88.249
 20
-35.75
 21
-35.75
  0
LINE
  8
0
 10
88.249
 11
88.249
 20
-35.75
 21
-32.75
  0
LINE
  8
0
 10
88.249
 11
92.345
 20
-32.75
 21
-32.75
  0
LINE
  8
0
 10
92.345
 11
92.345
 20
-32.75
 21
-35.75
  0
LINE
  8
0
 10
92.345
 11
96.187
 20
-35.75
 21
-35.75
  0
LINE
  8
0
 10
96.187
 11
96.187
 20
-35.75
 21
-35.686
  0
LINE
  8
0
 10
96.187
 11
96.25
 20
-35.686
 21
-35.686
  0
LINE
  8
0
 10
96.25
 11
96.25
 20
-35.686
 21
-36.782
  0
LINE
  8
0
 10
96.25
 11
93.25
 20
-36.782
 21
-36.782
  0
LINE
  8
0
 10
93.25
 11
93.25
 20
-36.782
 21
-40.624
  0
LINE
  8
0
 10
93.25
 11
96.25
 20
-40.624
 21
-40.624
  0
LINE
  8
0
 10
96.25
 11
96.25
 20
-40.624
 21
-44.72
  0
LINE
  8
0
 10
96.25
 11
93.25
 20
-44.72
 21
-44.72
  0
LINE
  8
0
 10
93.25
 11
93.25
 20
-44.72
 21
-48.561
  0
LINE
  8
0
 10
93.25
 11
96.25
 20
-48.561
 21
-48.561
  0
LINE
  8
0
 10
96.25
 11
96.25
 20
-48.561
 21
-52.657
  0
LINE
  8
0
 10
96.25
 11
93.25
 20
-52.657
 21
-52.657
  0
LINE
  8
0
 10
93.25
 11
93.25
 20
-52.657
 21
-56.499
  0
LINE
  8
0
 10
93.25
 11
96.25
 20
-56.499
 21
-56.499
  0
LINE
  8
0
 10
96.25
 11
96.25
 20
-56.499
 21
-60.595
  0
LINE
  8
0
 10
96.25
 11
93.25
 20
-60.595
 21
-60.595
  0
LINE
  8
0
 10
93.25
 11
93.25
 20
-60.595
 21
-64.436
  0
LINE
  8
0
 10
93.25
 11
96.25
 20
-64.436
 21
-64.436
  0
LINE
  8
0
 10
96.25
 11
96.25
 20
-64.436
 21
-68.532
  0
LINE
  8
0
 10
96.25
 11
93.25
 20
-68.532
 21
-68.532
  0
LINE
  8
0
 10
93.25
 11
93.25
 20
-68.532
 21
-72.374
  0
LINE
  8
0
 10
93.25
 11
96.25
 20
-72.374
 21
-72.374
  0
LINE
  8
0
 10
96.25
 11
96.25
 20
-72.374
 21
-76.47
  0
LINE
  8
0
 10
96.25
 11
93.25
 20
-76.47
 21
-76.47
  0
LINE
  8
0
 10
93.25
 11
93.25
 20
-76.47
 21
-80.312
  0
LINE
  8
0
 10
93.25
 11
96.25
 20
-80.312
 21
-80.312
  0
LINE
  8
0
 10
96.25
 11
96.25
 20
-80.312
 21
-84.407
  0
LINE
  8
0
 10
96.25
 11
93.25
 20
-84.407
 21
-84.407
  0
LINE
  8
0
 10
93.25
 11
93.25
 20
-84.407
 21
-88.249
  0
LINE
  8
0
 10
93.25
 11
96.25
 20
-88.249
 21
-88.249
  0
LINE
  8
0
 10
96.25
 11
96.25
 20
-88.249
 21
-92.345
  0
LINE
  8
0
 10
96.25
 11
93.25
 20
-92.345
 21
-92.345
  0
LINE
  8
0
 10
93.25
 11
93.25
 20
-92.345
 21
-96.187
  0
LINE
  8
0
 10
93.25
 11
93.313
 20
-96.187
 21
-96.187
  0
LINE
  8
0
 10
93.313
 11
93.313
 20
-96.187
 21
-96.25
  0
LINE
  8
0
 10
93.313
 11
92.218
 20
-96.25
 21
-96.25
  0
LINE
  8
0
 10
92.218
 11
92.218
 20
-96.25
 21
-93.25
  0
LINE
  8
0
 10
92.218
 11
88.376
 20
-93.25
 21
-93.25
  0
LINE
  8
0
 10
88.376
 11
88.376
 20
-93.25
 21
-96.25
  0
LINE
  8
0
 10
88.376
 11
84.28
 20
-96.25
 21
-96.25
  0
LINE
  8
0
 10
84.28
 11
84.28
 20
-96.25
 21
-93.25
  0
LINE
  8
0
 10
84.28
 11
80.438
 20
-93.25
 21
-93.25
  0
LINE
  8
0
 10
80.438
 11
80.438
 20
-93.25
 21
-96.25
  0
LINE
  8
0
 10
80.438
 11
76.343
 20
-96.25
 21
-96.25
  0
LINE
  8
0
 10
76.343
 11
76.343
 20
-96.25
 21
-93.25
  0
LINE
  8
0
 10
76.343
 11
72.501
 20
-93.25
 21
-93.25
  0
LINE
  8
0
 10
72.501
 11
72.501
 20
-93.25
 21
-96.25
  0
LINE
  8
0
 10
72.501
 11
68.405
 20
-96.25
 21
-96.25
  0
LINE
  8
0
 10
68.405
 11
68.405
 20
-96.25
 21
-93.25
  0
LINE
  8
0
 10
68.405
 11
64.563
 20
-93.25
 21
-93.25
  0
LINE
  8
0
 10
64.563
 11
64.563
 20
-93.25
 21
-96.25
  0
LINE
  8
0
 10
64.563
 11
60.468
 20
-96.25
 21
-96.25
  0
LINE
  8
0
 10
60.468
 11
60.468
 20
-96.25
 21
-93.25
  0
LINE
  8
0
 10
60.468
 11
56.626
 20
-93.25
 21
-93.25
  0
LINE
  8
0
 10
56.626
 11
56.626
 20
-93.25
 21
-96.25
  0
LINE
  8
0
 10
56.626
 11
52.53
 20
-96.25
 21
-96.25
  0
LINE
  8
0
 10
52.53
 11
52.53
 20
-96.25
 21
-93.25
  0
LINE
  8
0
 10
52.53
 11
48.689
 20
-93.25
 21
-93.25
  0
LINE
  8
0
 10
48.689
 11
48.689
 20
-93.25
 21
-96.25
  0
LINE
  8
0
 10
48.689
 11
44.593
 20
-96.25
 21
-96.25
  0
LINE
  8
0
 10
44.593
 11
44.593
 20
-96.25
 21
-93.25
  0
LINE
  8
0
 10
44.593
 11
40.751
 20
-93.25
 21
-93.25
  0
LINE
  8
0
 10
40.751
 11
40.751
 20
-93.25
 21
-96.25
  0
LINE
  8
0
 10
40.751
 11
36.655
 20
-96.25
 21
-96.25
  0
LINE
  8
0
 10
36.655
 11
36.655
 20
-96.25
 21
-93.25
  0
LINE
  8
0
 10
36.655
 11
32.814
 20
-93.25
 21
-93.25
  0
LINE
  8
0
 10
32.814
 11
32.814
 20
-93.25
 21
-93.313
  0
LINE
  8
0
 10
32.814
 11
32.75
 20
-93.313
 21
-93.313
  0
LINE
  8
0
 10
32.75
 11
32.75
 20
-31.75
 21
-31.686
  0
LINE
  8
0
 10
32.75
 11
32.814
 20
-31.686
 21
-31.686
  0
LINE
  8
0
 10
32.814
 11
32.814
 20
-31.686
 21
-31.75
  0
LINE
  8
0
 10
32.814
 11
32.75
 20
-31.75
 21
-31.75
  0
LINE
  8
0
 10
32.75
 11
32.75
 20
-27.845
 21
-23.749
  0
LINE
  8
0
 10
32.75
 11
35.686
 20
-23.749
 21
-23.749
  0
LINE
  8
0
 10
35.686
 11
35.686
 20
-23.749
 21
-19.907
  0
LINE
  8
0
 10
35.686
 11
32.75
 20
-19.907
 21
-19.907
  0
LINE
  8
0
 10
32.75
 11
32.75
 20
-19.907
 21
-15.811
  0
LINE
  8
0
 10
32.75
 11
35.686
 20
-15.811
 21
-15.811
  0
LINE
  8
0
 10
35.686
 11
35.686
 20
-15.811
 21
-11.97
  0
LINE
  8
0
 10
35.686
 11
32.75
 20
-11.97
 21
-11.97
  0
LINE
  8
0
 10
32.75
 11
32.75
 20
-11.97
 21
-7.874
  0
LINE
  8
0
 10
32.75
 11
35.686
 20
-7.874
 21
-7.874
  0
LINE
  8
0
 10
35.686
 11
35.686
 20
-7.874
 21
-4.032
  0
LINE
  8
0
 10
35.686
 11
32.75
 20
-4.032
 21
-4.032
  0
LINE
  8
0
 10
32.75
 11
32.75
 20
-4.032
 21
0.064
  0
LINE
  8
0
 10
32.75
 11
35.686
 20
0.064
 21
0.064
  0
LINE
  8
0
 10
35.686
 11
35.686
 20
0.064
 21
3.905
  0
LINE
  8
0
 10
35.686
 11
32.75
 20
3.905
 21
3.905
  0
LINE
  8
0
 10
32.75
 11
32.75
 20
3.905
 21
8.001
  0
LINE
  8
0
 10
32.75
 11
35.686
 20
8.001
 21
8.001
  0
LINE
  8
0
 10
35.686
 11
35.686
 20
8.001
 21
11.843
  0
LINE
  8
0
 10
35.686
 11
32.75
 20
11.843
 21
11.843
  0
LINE
  8
0
 10
32.75
 11
32.75
 20
11.843
 21
15.939
  0
LINE
  8
0
 10
32.75
 11
35.686
 20
15.939
 21
15.939
  0
LINE
  8
0
 10
35.686
 11
35.686
 20
15.939
 21
19.78
  0
LINE
  8
0
 10
35.686
 11
32.75
 20
19.78
 21
19.78
  0
LINE
  8
0
 10
32.75
 11
32.75
 20
19.78
 21
23.876
  0
LINE
  8
0
 10
32.75
 11
35.686
 20
23.876
 21
23.876
  0
LINE
  8
0
 10
35.686
 11
35.686
 20
23.876
 21
27.718
  0
LINE
  8
0
 10
35.686
 11
32.75
 20
27.718
 21
27.718
  0
LINE
  8
0
 10
32.75
 11
32.75
 20
27.718
 21
31.75
  0
LINE
  8
0
 10
32.75
 11
36.782
 20
31.75
 21
31.75
  0
LINE
  8
0
 10
36.782
 11
36.782
 20
31.75
 21
28.813
  0
LINE
  8
0
 10
36.782
 11
40.624
 20
28.813
 21
28.813
  0
LINE
  8
0
 10
40.624
 11
40.624
 20
28.813
 21
31.75
  0
LINE
  8
0
 10
40.624
 11
44.72
 20
31.75
 21
31.75
  0
LINE
  8
0
 10
44.72
 11
44.72
 20
31.75
 21
28.813
  0
LINE
  8
0
 10
44.72
 11
48.561
 20
28.813
 21
28.813
  0
LINE
  8
0
 10
48.561
 11
48.561
 20
28.813
 21
31.75
  0
LINE
  8
0
 10
48.561
 11
52.657
 20
31.75
 21
31.75
  0
LINE
  8
0
 10
52.657
 11
52.657
 20
31.75
 21
28.813
  0
LINE
  8
0
 10
52.657
 11
56.499
 20
28.813
 21
28.813
  0
LINE
  8
0
 10
56.499
 11
56.499
 20
28.813
 21
31.75
  0
LINE
  8
0
 10
56.499
 11
60.595
 20
31.75
 21
31.75
  0
LINE
  8
0
 10
60.595
 11
60.595
 20
31.75
 21
28.813
  0
LINE
  8
0
 10
60.595
 11
64.436
 20
28.813
 21
28.813
  0
LINE
  8
0
 10
64.436
 11
64.436
 20
28.813
 21
31.75
  0
LINE
  8
0
 10
64.436
 11
68.532
 20
31.75
 21
31.75
  0
LINE
  8
0
 10
68.532
 11
68.532
 20
31.75
 21
28.813
  0
LINE
  8
0
 10
68.532
 11
72.374
 20
28.813
 21
28.813
  0
LINE
  8
0
 10
72.374
 11
72.374
 20
28.813
 21
31.75
  0
LINE
  8
0
 10
72.374
 11
76.47
 20
31.75
 21
31.75
  0
LINE
  8
0
 10
76.47
 11
76.47
 20
31.75
 21
28.813
  0
LINE
  8
0
 10
76.47
 11
80.312
 20
28.813
 21
28.813
  0
LINE
  8
0
 10
80.312
 11
80.312
 20
28.813
 21
31.75
  0
LINE
  8
0
 10
80.312
 11
84.407
 20
31.75
 21
31.75
  0
LINE
  8
0
 10
84.407
 11
84.407
 20
31.75
 21
28.813
  0
LINE
  8
0
 10
84.407
 11
88.249
 20
28.813
 21
28.813
  0
LINE
  8
0
 10
88.249
 11
88.249
 20
28.813
 21
31.75
  0
LINE
  8
0
 10
88.249
 11
92.345
 20
31.75
 21
31.75
  0
LINE
  8
0
 10
92.345
 11
92.345
 20
31.75
 21
28.813
  0
LINE
  8
0
 10
92.345
 11
93.313
 20
28.813
 21
28.813
  0
LINE
  8
0
 10
93.313
 11
93.313
 20
28.813
 21
27.845
  0
LINE
  8
0
 10
93.313
 11
96.25
 20
27.845
 21
27.845
  0
LINE
  8
0
 10
96.25
 11
96.25
 20
27.845
 21
23.749
  0
LINE
  8
0
 10
96.25
 11
93.313
 20
23.749
 21
23.749
  0
LINE
  8
0
 10
93.313
 11
93.313
 20
23.749
 21
19.907
  0
LINE
  8
0
 10
93.313
 11
96.25
 20
19.907
 21
19.907
  0
LINE
  8
0
 10
96.25
 11
96.25
 20
19.907
 21
15.811
  0
LINE
  8
0
 10
96.25
 11
93.313
 20
15.811
 21
15.811
  0
LINE
  8
0
 10
93.313
 11
93.313
 20
15.811
 21
11.97
  0
LINE
  8
0
 10
93.313
 11
96.25
 20
11.97
 21
11.97
  0
LINE
  8
0
 10
96.25
 11
96.25
 20
11.97
 21
7.874
  0
LINE
  8
0
 10
96.25
 11
93.313
 20
7.874
 21
7.874
  0
LINE
  8
0
 10
93.313
 11
93.313
 20
7.874
 21
4.032
  0
LINE
  8
0
 10
93.313
 11
96.25
 20
4.032
 21
4.032
  0
LINE
  8
0
 10
96.25
 11
96.25
 20
4.032
 21
-0.064
  0
LINE
  8
0
 10
96.25
 11
93.313
 20
-0.064
 21
-0.064
  0
LINE
  8
0
 10
93.313
 11
93.313
 20
-0.064
 21
-3.905
  0
LINE
  8
0
 10
93.313
 11
96.25
 20
-3.905
 21
-3.905
  0
LINE
  8
0
 10
96.25
 11
96.25
 20
-3.905
 21
-8.001
  0
LINE
  8
0
 10
96.25
 11
93.313
 20
-8.001
 21
-8.001
  0
LINE
  8
0
 10
93.313
 11
93.313
 20
-8.001
 21
-11.843
  0
LINE
  8
0
 10
93.313
 11
96.25
 20
-11.843
 21
-11.843
  0
LINE
  8
0
 10
96.25
 11
96.25
 20
-11.843
 21
-15.939
  0
LINE
  8
0
 10
96.25
 11
93.313
 20
-15.939
 21
-15.939
  0
LINE
  8
0
 10
93.313
 11
93.313
 20
-15.939
 21
-19.78
  0
LINE
  8
0
 10
93.313
 11
96.25
 20
-19.78
 21
-19.78
  0
LINE
  8
0
 10
96.25
 11
96.25
 20
-19.78
 21
-23.876
  0
LINE
  8
0
 10
96.25
 11
93.313
 20
-23.876
 21
-23.876
  0
LINE
  8
0
 10
93.313
 11
93.313
 20
-23.876
 21
-27.718
  0
LINE
  8
0
 10
93.313
 11
96.25
 20
-27.718
 21
-27.718
  0
LINE
  8
0
 10
96.25
 11
96.25
 20
-27.718
 21
-31.75
  0
LINE
  8
0
 10
96.25
 11
92.218
 20
-31.75
 21
-31.75
  0
LINE
  8
0
 10
92.218
 11
92.218
 20
-31.75
 21
-28.813
  0
LINE
  8
0
 10
92.218
 11
88.376
 20
-28.813
 21
-28.813
  0
LINE
  8
0
 10
88.376
 11
88.376
 20
-28.813
 21
-31.75
  0
LINE
  8
0
 10
88.376
 11
84.28
 20
-31.75
 21
-31.75
  0
LINE
  8
0
 10
84.28
 11
84.28
 20
-31.75
 21
-28.813
  0
LINE
  8
0
 10
84.28
 11
80.438
 20
-28.813
 21
-28.813
  0
LINE
  8
0
 10
80.438
 11
80.438
 20
-28.813
 21
-31.75
  0
LINE
  8
0
 10
80.438
 11
76.343
 20
-31.75
 21
-31.75
  0
LINE
  8
0
 10
76.343
 11
76.343
 20
-31.75
 21
-28.813
  0
LINE
  8
0
 10
76.343
 11
72.501
 20
-28.813
 21
-28.813
  0
LINE
  8
0
 10
72.501
 11
72.501
 20
-28.813
 21
-31.75
  0
LINE
  8
0
 10
72.501
 11
68.405
 20
-31.75
 21
-31.75
  0
LINE
  8
0
 10
68.405
 11
68.405
 20
-31.75
 21
-28.813
  0
LINE
  8
0
 10
68.405
 11
64.563
 20
-28.813
 21
-28.813
  0
LINE
  8
0
 10
64.563
 11
64.563
 20
-28.813
 21
-31.75
  0
LINE
  8
0
 10
64.563
 11
60.468
 20
-31.75
 21
-31.75
  0
LINE
  8
0
 10
60.468
 11
60.468
 20
-31.75
 21
-28.813
  0
LINE
  8
0
 10
60.468
 11
56.626
 20
-28.813
 21
-28.813
  0
LINE
  8
0
 10
56.626
 11
56.626
 20
-28.813
 21
-31.75
  0
LINE
  8
0
 10
56.626
 11
52.53
 20
-31.75
 21
-31.75
  0
LINE
  8
0
 10
52.53
 11
52.53
 20
-31.75
 21
-28.813
  0
LINE
  8
0
 10
52.53
 11
48.689
 20
-28.813
 21
-28.813
  0
LINE
  8
0
 10
48.689
 11
48.689
 20
-28.813
 21
-31.75
  0
LINE
  8
0
 10
48.689
 11
44.593
 20
-31.75
 21
-31.75
  0
LINE
  8
0
 10
44.593
 11
44.593
 20
-31.75
 21
-28.813
  0
LINE
  8
0
 10
44.593
 11
40.751
 20
-28.813
 21
-28.813
  0
LINE
  8
0
 10
40.751
 11
40.751
 20
-28.813
 21
-31.75
  0
LINE
  8
0
 10
40.751
 11
36.655
 20
-31.75
 21
-31.75
  0
LINE
  8
0
 10
36.655
 11
36.655
 20
-31.75
 21
-28.813
  0
LINE
  8
0
 10
36.655
 11
35.686
 20
-28.813
 21
-28.813
  0
LINE
  8
0
 10
35.686
 11
35.686
 20
-28.813
 21
-27.845
  0
LINE
  8
0
 10
35.686
 11
32.75
 20
-27.845
 21
-27.845
  0
LINE
  8
0
 10
60.616
 11
60.616
 20
-65.457
 21
-63.543
  0
LINE
  8
0
 10
60.616
 11
61.506
 20
-63.543
 21
-61.848
  0
LINE
  8
0
 10
61.506
 11
63.082
 20
-61.848
 21
-60.76
  0
LINE
  8
0
 10
63.082
 11
64.982
 20
-60.76
 21
-60.529
  0
LINE
  8
0
 10
64.982
 11
66.772
 20
-60.529
 21
-61.208
  0
LINE
  8
0
 10
66.772
 11
68.042
 20
-61.208
 21
-62.641
  0
LINE
  8
0
 10
68.042
 11
68.5
 20
-62.641
 21
-64.5
  0
LINE
  8
0
 10
68.5
 11
68.042
 20
-64.5
 21
-66.359
  0
LINE
  8
0
 10
68.042
 11
66.772
 20
-66.359
 21
-67.792
  0
LINE
  8
0
 10
66.772
 11
64.982
 20
-67.792
 21
-68.471
  0
LINE
  8
0
 10
64.982
 11
63.082
 20
-68.471
 21
-68.24
  0
LINE
  8
0
 10
63.082
 11
61.506
 20
-68.24
 21
-67.152
  0
LINE
  8
0
 10
61.506
 11
60.616
 20
-67.152
 21
-65.457
  0
LINE
  8
0
 10
96.187
 11
96.187
 20
31.686
 21
31.75
  0
LINE
  8
0
 10
96.187
 11
96.25
 20
31.75
 21
31.75
  0
LINE
  8
0
 10
96.25
 11
96.25
 20
31.75
 21
31.686
  0
LINE
  8
0
 10
96.25
 11
96.187
 20
31.686
 21
31.686
  0
LINE
  8
0
 10
97.25
 11
97.25
 20
-92.345
 21
-88.249
  0
LINE
  8
0
 10
97.25
 11
100.25
 20
-88.249
 21
-88.249
  0
LINE
  8
0
 10
100.25
 11
100.25
 20
-88.249
 21
-84.407
  0
LINE
  8
0
 10
100.25
 11
97.25
 20
-84.407
 21
-84.407
  0
LINE
  8
0
 10
97.25
 11
97.25
 20
-84.407
 21
-80.312
  0
LINE
  8
0
 10
97.25
 11
100.25
 20
-80.312
 21
-80.312
  0
LINE
  8
0
 10
100.25
 11
100.25
 20
-80.312
 21
-76.47
  0
LINE
  8
0
 10
100.25
 11
97.25
 20
-76.47
 21
-76.47
  0
LINE
  8
0
 10
97.25
 11
97.25
 20
-76.47
 21
-72.374
  0
LINE
  8
0
 10
97.25
 11
100.25
 20
-72.374
 21
-72.374
  0
LINE
  8
0
 10
100.25
 11
100.25
 20
-72.374
 21
-68.532
  0
LINE
  8
0
 10
100.25
 11
97.25
 20
-68.532
 21
-68.532
  0
LINE
  8
0
 10
97.25
 11
97.25
 20
-68.532
 21
-64.436
  0
LINE
  8
0
 10
97.25
 11
100.25
 20
-64.436
 21
-64.436
  0
LINE
  8
0
 10
100.25
 11
100.25
 20
-64.436
 21
-60.595
  0
LINE
  8
0
 10
100.25
 11
97.25
 20
-60.595
 21
-60.595
  0
LINE
  8
0
 10
97.25
 11
97.25
 20
-60.595
 21
-56.499
  0
LINE
  8
0
 10
97.25
 11
100.25
 20
-56.499
 21
-56.499
  0
LINE
  8
0
 10
100.25
 11
100.25
 20
-56.499
 21
-52.657
  0
LINE
  8
0
 10
100.25
 11
97.25
 20
-52.657
 21
-52.657
  0
LINE
  8
0
 10
97.25
 11
97.25
 20
-52.657
 21
-48.561
  0
LINE
  8
0
 10
97.25
 11
100.25
 20
-48.561
 21
-48.561
  0
LINE
  8
0
 10
100.25
 11
100.25
 20
-48.561
 21
-44.72
  0
LINE
  8
0
 10
100.25
 11
97.25
 20
-44.72
 21
-44.72
  0
LINE
  8
0
 10
97.25
 11
97.25
 20
-44.72
 21
-40.624
  0
LINE
  8
0
 10
97.25
 11
100.25
 20
-40.624
 21
-40.624
  0
LINE
  8
0
 10
100.25
 11
100.25
 20
-40.624
 21
-36.782
  0
LINE
  8
0
 10
100.25
 11
97.25
 20
-36.782
 21
-36.782
  0
LINE
  8
0
 10
97.25
 11
97.25
 20
-36.782
 21
-35.686
  0
LINE
  8
0
 10
97.25
 11
97.313
 20
-35.686
 21
-35.686
  0
LINE
  8
0
 10
97.313
 11
97.313
 20
-35.686
 21
-35.75
  0
LINE
  8
0
 10
97.313
 11
101.155
 20
-35.75
 21
-35.75
  0
LINE
  8
0
 10
101.155
 11
101.155
 20
-35.75
 21
-32.75
  0
LINE
  8
0
 10
101.155
 11
105.251
 20
-32.75
 21
-32.75
  0
LINE
  8
0
 10
105.251
 11
105.251
 20
-32.75
 21
-35.75
  0
LINE
  8
0
 10
105.251
 11
109.093
 20
-35.75
 21
-35.75
  0
LINE
  8
0
 10
109.093
 11
109.093
 20
-35.75
 21
-32.75
  0
LINE
  8
0
 10
109.093
 11
113.188
 20
-32.75
 21
-32.75
  0
LINE
  8
0
 10
113.188
 11
113.188
 20
-32.75
 21
-35.75
  0
LINE
  8
0
 10
113.188
 11
117.03
 20
-35.75
 21
-35.75
  0
LINE
  8
0
 10
117.03
 11
117.03
 20
-35.75
 21
-32.75
  0
LINE
  8
0
 10
117.03
 11
121.126
 20
-32.75
 21
-32.75
  0
LINE
  8
0
 10
121.126
 11
121.126
 20
-32.75
 21
-35.75
  0
LINE
  8
0
 10
121.126
 11
124.968
 20
-35.75
 21
-35.75
  0
LINE
  8
0
 10
124.968
 11
124.968
 20
-35.75
 21
-32.75
  0
LINE
  8
0
 10
124.968
 11
129.064
 20
-32.75
 21
-32.75
  0
LINE
  8
0
 10
129.064
 11
129.064
 20
-32.75
 21
-35.75
  0
LINE
  8
0
 10
129.064
 11
132.905
 20
-35.75
 21
-35.75
  0
LINE
  8
0
 10
132.905
 11
132.905
 20
-35.75
 21
-32.75
  0
LINE
  8
0
 10
132.905
 11
137.001
 20
-32.75
 21
-32.75
  0
LINE
  8
0
 10
137.001
 11
137.001
 20
-32.75
 21
-35.75
  0
LINE
  8
0
 10
137.001
 11
140.843
 20
-35.75
 21
-35.75
  0
LINE
  8
0
 10
140.843
 11
140.843
 20
-35.75
 21
-32.75
  0
LINE
  8
0
 10
140.843
 11
144.939
 20
-32.75
 21
-32.75
  0
LINE
  8
0
 10
144.939
 11
144.939
 20
-32.75
 21
-35.75
  0
LINE
  8
0
 10
144.939
 11
148.78
 20
-35.75
 21
-35.75
  0
LINE
  8
0
 10
148.78
 11
148.78
 20
-35.75
 21
-32.75
  0
LINE
  8
0
 10
148.78
 11
152.876
 20
-32.75
 21
-32.75
  0
LINE
  8
0
 10
152.876
 11
152.876
 20
-32.75
 21
-35.75
  0
LINE
  8
0
 10
152.876
 11
156.718
 20
-35.75
 21
-35.75
  0
LINE
  8
0
 10
156.718
 11
156.718
 20
-35.75
 21
-32.75
  0
LINE
  8
0
 10
156.718
 11
157.814
 20
-32.75
 21
-32.75
  0
LINE
  8
0
 10
157.814
 11
157.814
 20
-32.75
 21
-32.814
  0
LINE
  8
0
 10
157.814
 11
157.75
 20
-32.814
 21
-32.814
  0
LINE
  8
0
 10
157.75
 11
157.75
 20
-32.814
 21
-36.655
  0
LINE
  8
0
 10
157.75
 11
160.75
 20
-36.655
 21
-36.655
  0
LINE
  8
0
 10
160.75
 11
160.75
 20
-36.655
 21
-40.751
  0
LINE
  8
0
 10
160.75
 11
157.75
 20
-40.751
 21
-40.751
  0
LINE
  8
0
 10
157.75
 11
157.75
 20
-40.751
 21
-44.593
  0
LINE
  8
0
 10
157.75
 11
160.75
 20
-44.593
 21
-44.593
  0
LINE
  8
0
 10
160.75
 11
160.75
 20
-44.593
 21
-48.689
  0
LINE
  8
0
 10
160.75
 11
157.75
 20
-48.689
 21
-48.689
  0
LINE
  8
0
 10
157.75
 11
157.75
 20
-48.689
 21
-52.53
  0
LINE
  8
0
 10
157.75
 11
160.75
 20
-52.53
 21
-52.53
  0
LINE
  8
0
 10
160.75
 11
160.75
 20
-52.53
 21
-56.626
  0
LINE
  8
0
 10
160.75
 11
157.75
 20
-56.626
 21
-56.626
  0
LINE
  8
0
 10
157.75
 11
157.75
 20
-56.626
 21
-60.468
  0
LINE
  8
0
 10
157.75
 11
160.75
 20
-60.468
 21
-60.468
  0
LINE
  8
0
 10
160.75
 11
160.75
 20
-60.468
 21
-64.563
  0
LINE
  8
0
 10
160.75
 11
157.75
 20
-64.563
 21
-64.563
  0
LINE
  8
0
 10
157.75
 11
157.75
 20
-64.563
 21
-68.405
  0
LINE
  8
0
 10
157.75
 11
160.75
 20
-68.405
 21
-68.405
  0
LINE
  8
0
 10
160.75
 11
160.75
 20
-68.405
 21
-72.501
  0
LINE
  8
0
 10
160.75
 11
157.75
 20
-72.501
 21
-72.501
  0
LINE
  8
0
 10
157.75
 11
157.75
 20
-72.501
 21
-76.343
  0
LINE
  8
0
 10
157.75
 11
160.75
 20
-76.343
 21
-76.343
  0
LINE
  8
0
 10
160.75
 11
160.75
 20
-76.343
 21
-80.438
  0
LINE
  8
0
 10
160.75
 11
157.75
 20
-80.438
 21
-80.438
  0
LINE
  8
0
 10
157.75
 11
157.75
 20
-80.438
 21
-84.28
  0
LINE
  8
0
 10
157.75
 11
160.75
 20
-84.28
 21
-84.28
  0
LINE
  8
0
 10
160.75
 11
160.75
 20
-84.28
 21
-88.376
  0
LINE
  8
0
 10
160.75
 11
157.75
 20
-88.376
 21
-88.376
  0
LINE
  8
0
 10
157.75
 11
157.75
 20
-88.376
 21
-92.218
  0
LINE
  8
0
 10
157.75
 11
160.75
 20
-92.218
 21
-92.218
  0
LINE
  8
0
 10
160.75
 11
160.75
 20
-92.218
 21
-93.313
  0
LINE
  8
0
 10
160.75
 11
160.687
 20
-93.313
 21
-93.313
  0
LINE
  8
0
 10
160.687
 11
160.687
 20
-93.313
 21
-93.25
  0
LINE
  8
0
 10
160.687
 11
156.845
 20
-93.25
 21
-93.25
  0
LINE
  8
0
 10
156.845
 11
156.845
 20
-93.25
 21
-96.25
  0
LINE
  8
0
 10
156.845
 11
152.749
 20
-96.25
 21
-96.25
  0
LINE
  8
0
 10
152.749
 11
152.749
 20
-96.25
 21
-93.25
  0
LINE
  8
0
 10
152.749
 11
148.907
 20
-93.25
 21
-93.25
  0
LINE
  8
0
 10
148.907
 11
148.907
 20
-93.25
 21
-96.25
  0
LINE
  8
0
 10
148.907
 11
144.812
 20
-96.25
 21
-96.25
  0
LINE
  8
0
 10
144.812
 11
144.812
 20
-96.25
 21
-93.25
  0
LINE
  8
0
 10
144.812
 11
140.97
 20
-93.25
 21
-93.25
  0
LINE
  8
0
 10
140.97
 11
140.97
 20
-93.25
 21
-96.25
  0
LINE
  8
0
 10
140.97
 11
136.874
 20
-96.25
 21
-96.25
  0
LINE
  8
0
 10
136.874
 11
136.874
 20
-96.25
 21
-93.25
  0
LINE
  8
0
 10
136.874
 11
133.032
 20
-93.25
 21
-93.25
  0
LINE
  8
0
 10
133.032
 11
133.032
 20
-93.25
 21
-96.25
  0
LINE
  8
0
 10
133.032
 11
128.936
 20
-96.25
 21
-96.25
  0
LINE
  8
0
 10
128.936
 11
128.936
 20
-96.25
 21
-93.25
  0
LINE
  8
0
 10
128.936
 11
125.095
 20
-93.25
 21
-93.25
  0
LINE
  8
0
 10
125.095
 11
125.095
 20
-93.25
 21
-96.25
  0
LINE
  8
0
 10
125.095
 11
120.999
 20
-96.25
 21
-96.25
  0
LINE
  8
0
 10
120.999
 11
120.999
 20
-96.25
 21
-93.25
  0
LINE
  8
0
 10
120.999
 11
117.157
 20
-93.25
 21
-93.25
  0
LINE
  8
0
 10
117.157
 11
117.157
 20
-93.25
 21
-96.25
  0
LINE
  8
0
 10
117.157
 11
113.062
 20
-96.25
 21
-96.25
  0
LINE
  8
0
 10
113.062
 11
113.062
 20
-96.25
 21
-93.25
  0
LINE
  8
0
 10
113.062
 11
109.22
 20
-93.25
 21
-93.25
  0
LINE
  8
0
 10
109.22
 11
109.22
 20
-93.25
 21
-96.25
  0
LINE
  8
0
 10
109.22
 11
105.124
 20
-96.25
 21
-96.25
  0
LINE
  8
0
 10
105.124
 11
105.124
 20
-96.25
 21
-93.25
  0
LINE
  8
0
 10
105.124
 11
101.282
 20
-93.25
 21
-93.25
  0
LINE
  8
0
 10
101.282
 11
101.282
 20
-93.25
 21
-96.25
  0
LINE
  8
0
 10
101.282
 11
100.187
 20
-96.25
 21
-96.25
  0
LINE
  8
0
 10
100.187
 11
100.187
 20
-96.25
 21
-96.187
  0
LINE
  8
0
 10
100.187
 11
100.25
 20
-96.187
 21
-96.187
  0
LINE
  8
0
 10
100.25
 11
100.25
 20
-96.187
 21
-92.345
  0
LINE
  8
0
 10
100.25
 11
97.25
 20
-92.345
 21
-92.345
  0
LINE
  8
0
 10
97.25
 11
97.25
 20
-31.75
 21
-31.686
  0
LINE
  8
0
 10
97.25
 11
97.313
 20
-31.686
 21
-31.686
  0
LINE
  8
0
 10
97.313
 11
97.313
 20
-31.686
 21
-31.75
  0
LINE
  8
0
 10
97.313
 11
97.25
 20
-31.75
 21
-31.75
  0
LINE
  8
0
 10
97.25
 11
97.25
 20
-27.845
 21
-23.749
  0
LINE
  8
0
 10
97.25
 11
100.187
 20
-23.749
 21
-23.749
  0
LINE
  8
0
 10
100.187
 11
100.187
 20
-23.749
 21
-19.907
  0
LINE
  8
0
 10
100.187
 11
97.25
 20
-19.907
 21
-19.907
  0
LINE
  8
0
 10
97.25
 11
97.25
 20
-19.907
 21
-15.811
  0
LINE
  8
0
 10
97.25
 11
100.187
 20
-15.811
 21
-15.811
  0
LINE
  8
0
 10
100.187
 11
100.187
 20
-15.811
 21
-11.97
  0
LINE
  8
0
 10
100.187
 11
97.25
 20
-11.97
 21
-11.97
  0
LINE
  8
0
 10
97.25
 11
97.25
 20
-11.97
 21
-7.874
  0
LINE
  8
0
 10
97.25
 11
100.187
 20
-7.874
 21
-7.874
  0
LINE
  8
0
 10
100.187
 11
100.187
 20
-7.874
 21
-4.032
  0
LINE
  8
0
 10
100.187
 11
97.25
 20
-4.032
 21
-4.032
  0
LINE
  8
0
 10
97.25
 11
97.25
 20
-4.032
 21
0.064
  0
LINE
  8
0
 10
97.25
 11
100.187
 20
0.064
 21
0.064
  0
LINE
  8
0
 10
100.187
 11
100.187
 20
0.064
 21
3.905
  0
LINE
  8
0
 10
100.187
 11
97.25
 20
3.905
 21
3.905
  0
LINE
  8
0
 10
97.25
 11
97.25
 20
3.905
 21
8.001
  0
LINE
  8
0
 10
97.25
 11
100.187
 20
8.001
 21
8.001
  0
LINE
  8
0
 10
100.187
 11
100.187
 20
8.001
 21
11.843
  0
LINE
  8
0
 10
100.187
 11
97.25
 20
11.843
 21
11.843
  0
LINE
  8
0
 10
97.25
 11
97.25
 20
11.843
 21
15.939
  0
LINE
  8
0
 10
97.25
 11
100.187
 20
15.939
 21
15.939
  0
LINE
  8
0
 10
100.187
 11
100.187
 20
15.939
 21
19.78
  0
LINE
  8
0
 10
100.187
 11
97.25
 20
19.78
 21
19.78
  0
LINE
  8
0
 10
97.25
 11
97.25
 20
19.78
 21
23.876
  0
LINE
  8
0
 10
97.25
 11
100.187
 20
23.876
 21
23.876
  0
LINE
  8
0
 10
100.187
 11
100.187
 20
23.876
 21
27.718
  0
LINE
  8
0
 10
100.187
 11
97.25
 20
27.718
 21
27.718
  0
LINE
  8
0
 10
97.25
 11
97.25
 20
27.718
 21
31.75
  0
LINE
  8
0
 10
97.25
 11
101.282
 20
31.75
 21
31.75
  0
LINE
  8
0
 10
101.282
 11
101.282
 20
31.75
 21
28.813
  0
LINE
  8
0
 10
101.282
 11
105.124
 20
28.813
 21
28.813
  0
LINE
  8
0
 10
105.124
 11
105.124
 20
28.813
 21
31.75
  0
LINE
  8
0
 10
105.124
 11
109.22
 20
31.75
 21
31.75
  0
LINE
  8
0
 10
109.22
 11
109.22
 20
31.75
 21
28.813
  0
LINE
  8
0
 10
109.22
 11
113.062
 20
28.813
 21
28.813
  0
LINE
  8
0
 10
113.062
 11
113.062
 20
28.813
 21
31.75
  0
LINE
  8
0
 10
113.062
 11
117.157
 20
31.75
 21
31.75
  0
LINE
  8
0
 10
117.157
 11
117.157
 20
31.75
 21
28.813
  0
LINE
  8
0
 10
117.157
 11
120.999
 20
28.813
 21
28.813
  0
LINE
  8
0
 10
120.999
 11
120.999
 20
28.813
 21
31.75
  0
LINE
  8
0
 10
120.999
 11
125.095
 20
31.75
 21
31.75
  0
LINE
  8
0
 10
125.095
 11
125.095
 20
31.75
 21
28.813
  0
LINE
  8
0
 10
125.095
 11
128.936
 20
28.813
 21
28.813
  0
LINE
  8
0
 10
128.936
 11
128.936
 20
28.813
 21
31.75
  0
LINE
  8
0
 10
128.936
 11
133.032
 20
31.75
 21
31.75
  0
LINE
  8
0
 10
133.032
 11
133.032
 20
31.75
 21
28.813
  0
LINE
  8
0
 10
133.032
 11
136.874
 20
28.813
 21
28.813
  0
LINE
  8
0
 10
136.874
 11
136.874
 20
28.813
 21
31.75
  0
LINE
  8
0
 10
136.874
 11
140.97
 20
31.75
 21
31.75
  0
LINE
  8
0
 10
140.97
 11
140.97
 20
31.75
 21
28.813
  0
LINE
  8
0
 10
140.97
 11
144.812
 20
28.813
 21
28.813
  0
LINE
  8
0
 10
144.812
 11
144.812
 20
28.813
 21
31.75
  0
LINE
  8
0
 10
144.812
 11
148.907
 20
31.75
 21
31.75
  0
LINE
  8
0
 10
148.907
 11
148.907
 20
31.75
 21
28.813
  0
LINE
  8
0
 10
148.907
 11
152.749
 20
28.813
 21
28.813
  0
LINE
  8
0
 10
152.749
 11
152.749
 20
28.813
 21
31.75
  0
LINE
  8
0
 10
152.749
 11
156.845
 20
31.75
 21
31.75
  0
LINE
  8
0
 10
156.845
 11
156.845
 20
31.75
 21
28.813
  0
LINE
  8
0
 10
156.845
 11
157.814
 20
28.813
 21
28.813
  0
LINE
  8
0
 10
157.814
 11
157.814
 20
28.813
 21
27.845
  0
LINE
  8
0
 10
157.814
 11
160.75
 20
27.845
 21
27.845
  0
LINE
  8
0
 10
160.75
 11
160.75
 20
27.845
 21
23.749
  0
LINE
  8
0
 10
160.75
 11
157.814
 20
23.749
 21
23.749
  0
LINE
  8
0
 10
157.814
 11
157.814
 20
23.749
 21
19.907
  0
LINE
  8
0
 10
157.814
 11
160.75
 20
19.907
 21
19.907
  0
LINE
  8
0
 10
160.75
 11
160.75
 20
19.907
 21
15.811
  0
LINE
  8
0
 10
160.75
 11
157.814
 20
15.811
 21
15.811
  0
LINE
  8
0
 10
157.814
 11
157.814
 20
15.811
 21
11.97
  0
LINE
  8
0
 10
157.814
 11
160.75
 20
11.97
 21
11.97
  0
LINE
  8
0
 10
160.75
 11
160.75
 20
11.97
 21
7.874
  0
LINE
  8
0
 10
160.75
 11
157.814
 20
7.874
 21
7.874
  0
LINE
  8
0
 10
157.814
 11
157.814
 20
7.874
 21
4.032
  0
LINE
  8
0
 10
157.814
 11
160.75
 20
4.032
 21
4.032
  0
LINE
  8
0
 10
160.75
 11
160.75
 20
4.032
 21
-0.064
  0
LINE
  8
0
 10
160.75
 11
157.814
 20
-0.064
 21
-0.064
  0
LINE
  8
0
 10
157.814
 11
157.814
 20
-0.064
 21
-3.905
  0
LINE
  8
0
 10
157.814
 11
160.75
 20
-3.905
 21
-3.905
  0
LINE
  8
0
 10
160.75
 11
160.75
 20
-3.905
 21
-8.001
  0
LINE
  8
0
 10
160.75
 11
157.814
 20
-8.001
 21
-8.001
  0
LINE
  8
0
 10
157.814
 11
157.814
 20
-8.001
 21
-11.843
  0
LINE
  8
0
 10
157.814
 11
160.75
 20
-11.843
 21
-11.843
  0
LINE
  8
0
 10
160.75
 11
160.75
 20
-11.843
 21
-15.939
  0
LINE
  8
0
 10
160.75
 11
157.814
 20
-15.939
 21
-15.939
  0
LINE
  8
0
 10
157.814
 11
157.814
 20
-15.939
 21
-19.78
  0
LINE
  8
0
 10
157.814
 11
160.75
 20
-19.78
 21
-19.78
  0
LINE
  8
0
 10
160.75
 11
160.75
 20
-19.78
 21
-23.876
  0
LINE
  8
0
 10
160.75
 11
157.814
 20
-23.876
 21
-23.876
  0
LINE
  8
0
 10
157.814
 11
157.814
 20
-23.876
 21
-27.718
  0
LINE
  8
0
 10
157.814
 11
160.75
 20
-27.718
 21
-27.718
  0
LINE
  8
0
 10
160.75
 11
160.75
 20
-27.718
 21
-31.75
  0
LINE
  8
0
 10
160.75
 11
156.718
 20
-31.75
 21
-31.75
  0
LINE
  8
0
 10
156.718
 11
156.718
 20
-31.75
 21
-28.813
  0
LINE
  8
0
 10
156.718
 11
152.876
 20
-28.813
 21
-28.813
  0
LINE
  8
0
 10
152.876
 11
152.876
 20
-28.813
 21
-31.75
  0
LINE
  8
0
 10
152.876
 11
148.78
 20
-31.75
 21
-31.75
  0
LINE
  8
0
 10
148.78
 11
148.78
 20
-31.75
 21
-28.813
  0
LINE
  8
0
 10
148.78
 11
144.939
 20
-28.813
 21
-28.813
  0
LINE
  8
0
 10
144.939
 11
144.939
 20
-28.813
 21
-31.75
  0
LINE
  8
0
 10
144.939
 11
140.843
 20
-31.75
 21
-31.75
  0
LINE
  8
0
 10
140.843
 11
140.843
 20
-31.75
 21
-28.813
  0
LINE
  8
0
 10
140.843
 11
137.001
 20
-28.813
 21
-28.813
  0
LINE
  8
0
 10
137.001
 11
137.001
 20
-28.813
 21
-31.75
  0
LINE
  8
0
 10
137.001
 11
132.905
 20
-31.75
 21
-31.75
  0
LINE
  8
0
 10
132.905
 11
132.905
 20
-31.75
 21
-28.813
  0
LINE
  8
0
 10
132.905
 11
129.064
 20
-28.813
 21
-28.813
  0
LINE
  8
0
 10
129.064
 11
129.064
 20
-28.813
 21
-31.75
  0
LINE
  8
0
 10
129.064
 11
124.968
 20
-31.75
 21
-31.75
  0
LINE
  8
0
 10
124.968
 11
124.968
 20
-31.75
 21
-28.813
  0
LINE
  8
0
 10
124.968
 11
121.126
 20
-28.813
 21
-28.813
  0
LINE
  8
0
 10
121.126
 11
121.126
 20
-28.813
 21
-31.75
  0
LINE
  8
0
 10
121.126
 11
117.03
 20
-31.75
 21
-31.75
  0
LINE
  8
0
 10
117.03
 11
117.03
 20
-31.75
 21
-28.813
  0
LINE
  8
0
 10
117.03
 11
113.188
 20
-28.813
 21
-28.813
  0
LINE
  8
0
 10
113.188
 11
113.188
 20
-28.813
 21
-31.75
  0
LINE
  8
0
 10
113.188
 11
109.093
 20
-31.75
 21
-31.75
  0
LINE
  8
0
 10
109.093
 11
109.093
 20
-31.75
 21
-28.813
  0
LINE
  8
0
 10
109.093
 11
105.251
 20
-28.813
 21
-28.813
  0
LINE
  8
0
 10
105.251
 11
105.251
 20
-28.813
 21
-31.75
  0
LINE
  8
0
 10
105.251
 11
101.155
 20
-31.75
 21
-31.75
  0
LINE
  8
0
 10
101.155
 11
101.155
 20
-31.75
 21
-28.813
  0
LINE
  8
0
 10
101.155
 11
100.187
 20
-28.813
 21
-28.813
  0
LINE
  8
0
 10
100.187
 11
100.187
 20
-28.813
 21
-27.845
  0
LINE
  8
0
 10
100.187
 11
97.25
 20
-27.845
 21
-27.845
  0
LINE
  8
0
 10
160.687
 11
160.687
 20
31.686
 21
31.75
  0
LINE
  8
0
 10
160.687
 11
160.75
 20
31.75
 21
31.75
  0
LINE
  8
0
 10
160.75
 11
160.75
 20
31.75
 21
31.686
  0
LINE
  8
0
 10
160.75
 11
160.687
 20
31.686
 21
31.686
  0
ENDSEC
  0
SECTION
  2
OBJECTS
  0
DICTIONARY
  0
ENDSEC
  0
EOF
