  0
SECTION
  2
BLOCKS
  0
ENDSEC
  0
SECTION
  2
ENTITIES
  0
LINE
  8
0
 10
-73.025
 11
-73.025
 20
-220.075
 21
-219.981
  0
LINE
  8
0
 10
-73.025
 11
-72.931
 20
-219.981
 21
-219.981
  0
LINE
  8
0
 10
-72.931
 11
-72.931
 20
-219.981
 21
-220.075
  0
LINE
  8
0
 10
-72.931
 11
-73.025
 20
-220.075
 21
-220.075
  0
LINE
  8
0
 10
-73.025
 11
-73.025
 20
-211.041
 21
-201.725
  0
LINE
  8
0
 10
-73.025
 11
-70.025
 20
-201.725
 21
-201.725
  0
LINE
  8
0
 10
-70.025
 11
-70.025
 20
-201.725
 21
-192.785
  0
LINE
  8
0
 10
-70.025
 11
-73.025
 20
-192.785
 21
-192.785
  0
LINE
  8
0
 10
-73.025
 11
-73.025
 20
-192.785
 21
-183.468
  0
LINE
  8
0
 10
-73.025
 11
-70.025
 20
-183.468
 21
-183.468
  0
LINE
  8
0
 10
-70.025
 11
-70.025
 20
-183.468
 21
-174.528
  0
LINE
  8
0
 10
-70.025
 11
-73.025
 20
-174.528
 21
-174.528
  0
LINE
  8
0
 10
-73.025
 11
-73.025
 20
-174.528
 21
-165.212
  0
LINE
  8
0
 10
-73.025
 11
-70.025
 20
-165.212
 21
-165.212
  0
LINE
  8
0
 10
-70.025
 11
-70.025
 20
-165.212
 21
-156.272
  0
LINE
  8
0
 10
-70.025
 11
-73.025
 20
-156.272
 21
-156.272
  0
LINE
  8
0
 10
-73.025
 11
-73.025
 20
-156.272
 21
-146.956
  0
LINE
  8
0
 10
-73.025
 11
-70.025
 20
-146.956
 21
-146.956
  0
LINE
  8
0
 10
-70.025
 11
-70.025
 20
-146.956
 21
-138.016
  0
LINE
  8
0
 10
-70.025
 11
-73.025
 20
-138.016
 21
-138.016
  0
LINE
  8
0
 10
-73.025
 11
-73.025
 20
-138.016
 21
-128.7
  0
LINE
  8
0
 10
-73.025
 11
-70.025
 20
-128.7
 21
-128.7
  0
LINE
  8
0
 10
-70.025
 11
-70.025
 20
-128.7
 21
-119.76
  0
LINE
  8
0
 10
-70.025
 11
-73.025
 20
-119.76
 21
-119.76
  0
LINE
  8
0
 10
-73.025
 11
-73.025
 20
-119.76
 21
-110.443
  0
LINE
  8
0
 10
-73.025
 11
-70.025
 20
-110.443
 21
-110.443
  0
LINE
  8
0
 10
-70.025
 11
-70.025
 20
-110.443
 21
-101.503
  0
LINE
  8
0
 10
-70.025
 11
-73.025
 20
-101.503
 21
-101.503
  0
LINE
  8
0
 10
-73.025
 11
-73.025
 20
-101.503
 21
-92.187
  0
LINE
  8
0
 10
-73.025
 11
-70.025
 20
-92.187
 21
-92.187
  0
LINE
  8
0
 10
-70.025
 11
-70.025
 20
-92.187
 21
-83.247
  0
LINE
  8
0
 10
-70.025
 11
-73.025
 20
-83.247
 21
-83.247
  0
LINE
  8
0
 10
-73.025
 11
-73.025
 20
-83.247
 21
-74.025
  0
LINE
  8
0
 10
-73.025
 11
-63.803
 20
-74.025
 21
-74.025
  0
LINE
  8
0
 10
-63.803
 11
-63.803
 20
-74.025
 21
-77.025
  0
LINE
  8
0
 10
-63.803
 11
-54.863
 20
-77.025
 21
-77.025
  0
LINE
  8
0
 10
-54.863
 11
-54.863
 20
-77.025
 21
-74.025
  0
LINE
  8
0
 10
-54.863
 11
-45.547
 20
-74.025
 21
-74.025
  0
LINE
  8
0
 10
-45.547
 11
-45.547
 20
-74.025
 21
-77.025
  0
LINE
  8
0
 10
-45.547
 11
-36.607
 20
-77.025
 21
-77.025
  0
LINE
  8
0
 10
-36.607
 11
-36.607
 20
-77.025
 21
-74.025
  0
LINE
  8
0
 10
-36.607
 11
-27.29
 20
-74.025
 21
-74.025
  0
LINE
  8
0
 10
-27.29
 11
-27.29
 20
-74.025
 21
-77.025
  0
LINE
  8
0
 10
-27.29
 11
-18.35
 20
-77.025
 21
-77.025
  0
LINE
  8
0
 10
-18.35
 11
-18.35
 20
-77.025
 21
-74.025
  0
LINE
  8
0
 10
-18.35
 11
-9.034
 20
-74.025
 21
-74.025
  0
LINE
  8
0
 10
-9.034
 11
-9.034
 20
-74.025
 21
-77.025
  0
LINE
  8
0
 10
-9.034
 11
-0.094
 20
-77.025
 21
-77.025
  0
LINE
  8
0
 10
-0.094
 11
-0.094
 20
-77.025
 21
-74.025
  0
LINE
  8
0
 10
-0.094
 11
9.222
 20
-74.025
 21
-74.025
  0
LINE
  8
0
 10
9.222
 11
9.222
 20
-74.025
 21
-77.025
  0
LINE
  8
0
 10
9.222
 11
18.162
 20
-77.025
 21
-77.025
  0
LINE
  8
0
 10
18.162
 11
18.162
 20
-77.025
 21
-74.025
  0
LINE
  8
0
 10
18.162
 11
27.478
 20
-74.025
 21
-74.025
  0
LINE
  8
0
 10
27.478
 11
27.478
 20
-74.025
 21
-77.025
  0
LINE
  8
0
 10
27.478
 11
36.418
 20
-77.025
 21
-77.025
  0
LINE
  8
0
 10
36.418
 11
36.418
 20
-77.025
 21
-74.025
  0
LINE
  8
0
 10
36.418
 11
45.735
 20
-74.025
 21
-74.025
  0
LINE
  8
0
 10
45.735
 11
45.735
 20
-74.025
 21
-77.025
  0
LINE
  8
0
 10
45.735
 11
54.675
 20
-77.025
 21
-77.025
  0
LINE
  8
0
 10
54.675
 11
54.675
 20
-77.025
 21
-74.025
  0
LINE
  8
0
 10
54.675
 11
63.991
 20
-74.025
 21
-74.025
  0
LINE
  8
0
 10
63.991
 11
63.991
 20
-74.025
 21
-77.025
  0
LINE
  8
0
 10
63.991
 11
70.025
 20
-77.025
 21
-77.025
  0
LINE
  8
0
 10
70.025
 11
70.025
 20
-77.025
 21
-83.059
  0
LINE
  8
0
 10
70.025
 11
73.025
 20
-83.059
 21
-83.059
  0
LINE
  8
0
 10
73.025
 11
73.025
 20
-83.059
 21
-92.375
  0
LINE
  8
0
 10
73.025
 11
70.025
 20
-92.375
 21
-92.375
  0
LINE
  8
0
 10
70.025
 11
70.025
 20
-92.375
 21
-101.315
  0
LINE
  8
0
 10
70.025
 11
73.025
 20
-101.315
 21
-101.315
  0
LINE
  8
0
 10
73.025
 11
73.025
 20
-101.315
 21
-110.632
  0
LINE
  8
0
 10
73.025
 11
70.025
 20
-110.632
 21
-110.632
  0
LINE
  8
0
 10
70.025
 11
70.025
 20
-110.632
 21
-119.572
  0
LINE
  8
0
 10
70.025
 11
73.025
 20
-119.572
 21
-119.572
  0
LINE
  8
0
 10
73.025
 11
73.025
 20
-119.572
 21
-128.888
  0
LINE
  8
0
 10
73.025
 11
70.025
 20
-128.888
 21
-128.888
  0
LINE
  8
0
 10
70.025
 11
70.025
 20
-128.888
 21
-137.828
  0
LINE
  8
0
 10
70.025
 11
73.025
 20
-137.828
 21
-137.828
  0
LINE
  8
0
 10
73.025
 11
73.025
 20
-137.828
 21
-147.144
  0
LINE
  8
0
 10
73.025
 11
70.025
 20
-147.144
 21
-147.144
  0
LINE
  8
0
 10
70.025
 11
70.025
 20
-147.144
 21
-156.084
  0
LINE
  8
0
 10
70.025
 11
73.025
 20
-156.084
 21
-156.084
  0
LINE
  8
0
 10
73.025
 11
73.025
 20
-156.084
 21
-165.4
  0
LINE
  8
0
 10
73.025
 11
70.025
 20
-165.4
 21
-165.4
  0
LINE
  8
0
 10
70.025
 11
70.025
 20
-165.4
 21
-174.34
  0
LINE
  8
0
 10
70.025
 11
73.025
 20
-174.34
 21
-174.34
  0
LINE
  8
0
 10
73.025
 11
73.025
 20
-174.34
 21
-183.657
  0
LINE
  8
0
 10
73.025
 11
70.025
 20
-183.657
 21
-183.657
  0
LINE
  8
0
 10
70.025
 11
70.025
 20
-183.657
 21
-192.597
  0
LINE
  8
0
 10
70.025
 11
73.025
 20
-192.597
 21
-192.597
  0
LINE
  8
0
 10
73.025
 11
73.025
 20
-192.597
 21
-201.913
  0
LINE
  8
0
 10
73.025
 11
70.025
 20
-201.913
 21
-201.913
  0
LINE
  8
0
 10
70.025
 11
70.025
 20
-201.913
 21
-210.853
  0
LINE
  8
0
 10
70.025
 11
73.025
 20
-210.853
 21
-210.853
  0
LINE
  8
0
 10
73.025
 11
73.025
 20
-210.853
 21
-220.075
  0
LINE
  8
0
 10
73.025
 11
63.803
 20
-220.075
 21
-220.075
  0
LINE
  8
0
 10
63.803
 11
63.803
 20
-220.075
 21
-217.075
  0
LINE
  8
0
 10
63.803
 11
54.863
 20
-217.075
 21
-217.075
  0
LINE
  8
0
 10
54.863
 11
54.863
 20
-217.075
 21
-220.075
  0
LINE
  8
0
 10
54.863
 11
45.547
 20
-220.075
 21
-220.075
  0
LINE
  8
0
 10
45.547
 11
45.547
 20
-220.075
 21
-217.075
  0
LINE
  8
0
 10
45.547
 11
36.607
 20
-217.075
 21
-217.075
  0
LINE
  8
0
 10
36.607
 11
36.607
 20
-217.075
 21
-220.075
  0
LINE
  8
0
 10
36.607
 11
27.29
 20
-220.075
 21
-220.075
  0
LINE
  8
0
 10
27.29
 11
27.29
 20
-220.075
 21
-217.075
  0
LINE
  8
0
 10
27.29
 11
18.35
 20
-217.075
 21
-217.075
  0
LINE
  8
0
 10
18.35
 11
18.35
 20
-217.075
 21
-220.075
  0
LINE
  8
0
 10
18.35
 11
9.034
 20
-220.075
 21
-220.075
  0
LINE
  8
0
 10
9.034
 11
9.034
 20
-220.075
 21
-217.075
  0
LINE
  8
0
 10
9.034
 11
0.094
 20
-217.075
 21
-217.075
  0
LINE
  8
0
 10
0.094
 11
0.094
 20
-217.075
 21
-220.075
  0
LINE
  8
0
 10
0.094
 11
-9.222
 20
-220.075
 21
-220.075
  0
LINE
  8
0
 10
-9.222
 11
-9.222
 20
-220.075
 21
-217.075
  0
LINE
  8
0
 10
-9.222
 11
-18.162
 20
-217.075
 21
-217.075
  0
LINE
  8
0
 10
-18.162
 11
-18.162
 20
-217.075
 21
-220.075
  0
LINE
  8
0
 10
-18.162
 11
-27.478
 20
-220.075
 21
-220.075
  0
LINE
  8
0
 10
-27.478
 11
-27.478
 20
-220.075
 21
-217.075
  0
LINE
  8
0
 10
-27.478
 11
-36.418
 20
-217.075
 21
-217.075
  0
LINE
  8
0
 10
-36.418
 11
-36.418
 20
-217.075
 21
-220.075
  0
LINE
  8
0
 10
-36.418
 11
-45.735
 20
-220.075
 21
-220.075
  0
LINE
  8
0
 10
-45.735
 11
-45.735
 20
-220.075
 21
-217.075
  0
LINE
  8
0
 10
-45.735
 11
-54.675
 20
-217.075
 21
-217.075
  0
LINE
  8
0
 10
-54.675
 11
-54.675
 20
-217.075
 21
-220.075
  0
LINE
  8
0
 10
-54.675
 11
-63.991
 20
-220.075
 21
-220.075
  0
LINE
  8
0
 10
-63.991
 11
-63.991
 20
-220.075
 21
-217.075
  0
LINE
  8
0
 10
-63.991
 11
-70.025
 20
-217.075
 21
-217.075
  0
LINE
  8
0
 10
-70.025
 11
-70.025
 20
-217.075
 21
-211.041
  0
LINE
  8
0
 10
-70.025
 11
-73.025
 20
-211.041
 21
-211.041
  0
LINE
  8
0
 10
-73.025
 11
-73.025
 20
-73.025
 21
-72.931
  0
LINE
  8
0
 10
-73.025
 11
-72.931
 20
-72.931
 21
-72.931
  0
LINE
  8
0
 10
-72.931
 11
-72.931
 20
-72.931
 21
-73.025
  0
LINE
  8
0
 10
-72.931
 11
-73.025
 20
-73.025
 21
-73.025
  0
LINE
  8
0
 10
-73.025
 11
-73.025
 20
-63.991
 21
-54.675
  0
LINE
  8
0
 10
-73.025
 11
-70.025
 20
-54.675
 21
-54.675
  0
LINE
  8
0
 10
-70.025
 11
-70.025
 20
-54.675
 21
-45.735
  0
LINE
  8
0
 10
-70.025
 11
-73.025
 20
-45.735
 21
-45.735
  0
LINE
  8
0
 10
-73.025
 11
-73.025
 20
-45.735
 21
-36.419
  0
LINE
  8
0
 10
-73.025
 11
-70.025
 20
-36.419
 21
-36.419
  0
LINE
  8
0
 10
-70.025
 11
-70.025
 20
-36.419
 21
-27.478
  0
LINE
  8
0
 10
-70.025
 11
-73.025
 20
-27.478
 21
-27.478
  0
LINE
  8
0
 10
-73.025
 11
-73.025
 20
-27.478
 21
-18.162
  0
LINE
  8
0
 10
-73.025
 11
-70.025
 20
-18.162
 21
-18.162
  0
LINE
  8
0
 10
-70.025
 11
-70.025
 20
-18.162
 21
-9.222
  0
LINE
  8
0
 10
-70.025
 11
-73.025
 20
-9.222
 21
-9.222
  0
LINE
  8
0
 10
-73.025
 11
-73.025
 20
-9.222
 21
0.094
  0
LINE
  8
0
 10
-73.025
 11
-70.025
 20
0.094
 21
0.094
  0
LINE
  8
0
 10
-70.025
 11
-70.025
 20
0.094
 21
9.034
  0
LINE
  8
0
 10
-70.025
 11
-73.025
 20
9.034
 21
9.034
  0
LINE
  8
0
 10
-73.025
 11
-73.025
 20
9.034
 21
18.35
  0
LINE
  8
0
 10
-73.025
 11
-70.025
 20
18.35
 21
18.35
  0
LINE
  8
0
 10
-70.025
 11
-70.025
 20
18.35
 21
27.29
  0
LINE
  8
0
 10
-70.025
 11
-73.025
 20
27.29
 21
27.29
  0
LINE
  8
0
 10
-73.025
 11
-73.025
 20
27.29
 21
36.606
  0
LINE
  8
0
 10
-73.025
 11
-70.025
 20
36.606
 21
36.606
  0
LINE
  8
0
 10
-70.025
 11
-70.025
 20
36.606
 21
45.547
  0
LINE
  8
0
 10
-70.025
 11
-73.025
 20
45.547
 21
45.547
  0
LINE
  8
0
 10
-73.025
 11
-73.025
 20
45.547
 21
54.863
  0
LINE
  8
0
 10
-73.025
 11
-70.025
 20
54.863
 21
54.863
  0
LINE
  8
0
 10
-70.025
 11
-70.025
 20
54.863
 21
63.803
  0
LINE
  8
0
 10
-70.025
 11
-73.025
 20
63.803
 21
63.803
  0
LINE
  8
0
 10
-73.025
 11
-73.025
 20
63.803
 21
73.025
  0
LINE
  8
0
 10
-73.025
 11
-63.803
 20
73.025
 21
73.025
  0
LINE
  8
0
 10
-63.803
 11
-63.803
 20
73.025
 21
70.025
  0
LINE
  8
0
 10
-63.803
 11
-54.863
 20
70.025
 21
70.025
  0
LINE
  8
0
 10
-54.863
 11
-54.863
 20
70.025
 21
73.025
  0
LINE
  8
0
 10
-54.863
 11
-45.547
 20
73.025
 21
73.025
  0
LINE
  8
0
 10
-45.547
 11
-45.547
 20
73.025
 21
70.025
  0
LINE
  8
0
 10
-45.547
 11
-36.607
 20
70.025
 21
70.025
  0
LINE
  8
0
 10
-36.607
 11
-36.607
 20
70.025
 21
73.025
  0
LINE
  8
0
 10
-36.607
 11
-27.29
 20
73.025
 21
73.025
  0
LINE
  8
0
 10
-27.29
 11
-27.29
 20
73.025
 21
70.025
  0
LINE
  8
0
 10
-27.29
 11
-18.35
 20
70.025
 21
70.025
  0
LINE
  8
0
 10
-18.35
 11
-18.35
 20
70.025
 21
73.025
  0
LINE
  8
0
 10
-18.35
 11
-9.034
 20
73.025
 21
73.025
  0
LINE
  8
0
 10
-9.034
 11
-9.034
 20
73.025
 21
70.025
  0
LINE
  8
0
 10
-9.034
 11
-0.094
 20
70.025
 21
70.025
  0
LINE
  8
0
 10
-0.094
 11
-0.094
 20
70.025
 21
73.025
  0
LINE
  8
0
 10
-0.094
 11
9.222
 20
73.025
 21
73.025
  0
LINE
  8
0
 10
9.222
 11
9.222
 20
73.025
 21
70.025
  0
LINE
  8
0
 10
9.222
 11
18.162
 20
70.025
 21
70.025
  0
LINE
  8
0
 10
18.162
 11
18.162
 20
70.025
 21
73.025
  0
LINE
  8
0
 10
18.162
 11
27.478
 20
73.025
 21
73.025
  0
LINE
  8
0
 10
27.478
 11
27.478
 20
73.025
 21
70.025
  0
LINE
  8
0
 10
27.478
 11
36.418
 20
70.025
 21
70.025
  0
LINE
  8
0
 10
36.418
 11
36.418
 20
70.025
 21
73.025
  0
LINE
  8
0
 10
36.418
 11
45.735
 20
73.025
 21
73.025
  0
LINE
  8
0
 10
45.735
 11
45.735
 20
73.025
 21
70.025
  0
LINE
  8
0
 10
45.735
 11
54.675
 20
70.025
 21
70.025
  0
LINE
  8
0
 10
54.675
 11
54.675
 20
70.025
 21
73.025
  0
LINE
  8
0
 10
54.675
 11
63.991
 20
73.025
 21
73.025
  0
LINE
  8
0
 10
63.991
 11
63.991
 20
73.025
 21
70.025
  0
LINE
  8
0
 10
63.991
 11
70.025
 20
70.025
 21
70.025
  0
LINE
  8
0
 10
70.025
 11
70.025
 20
70.025
 21
63.991
  0
LINE
  8
0
 10
70.025
 11
73.025
 20
63.991
 21
63.991
  0
LINE
  8
0
 10
73.025
 11
73.025
 20
63.991
 21
54.675
  0
LINE
  8
0
 10
73.025
 11
70.025
 20
54.675
 21
54.675
  0
LINE
  8
0
 10
70.025
 11
70.025
 20
54.675
 21
45.735
  0
LINE
  8
0
 10
70.025
 11
73.025
 20
45.735
 21
45.735
  0
LINE
  8
0
 10
73.025
 11
73.025
 20
45.735
 21
36.418
  0
LINE
  8
0
 10
73.025
 11
70.025
 20
36.418
 21
36.418
  0
LINE
  8
0
 10
70.025
 11
70.025
 20
36.418
 21
27.478
  0
LINE
  8
0
 10
70.025
 11
73.025
 20
27.478
 21
27.478
  0
LINE
  8
0
 10
73.025
 11
73.025
 20
27.478
 21
18.162
  0
LINE
  8
0
 10
73.025
 11
70.025
 20
18.162
 21
18.162
  0
LINE
  8
0
 10
70.025
 11
70.025
 20
18.162
 21
9.222
  0
LINE
  8
0
 10
70.025
 11
73.025
 20
9.222
 21
9.222
  0
LINE
  8
0
 10
73.025
 11
73.025
 20
9.222
 21
-0.094
  0
LINE
  8
0
 10
73.025
 11
70.025
 20
-0.094
 21
-0.094
  0
LINE
  8
0
 10
70.025
 11
70.025
 20
-0.094
 21
-9.034
  0
LINE
  8
0
 10
70.025
 11
73.025
 20
-9.034
 21
-9.034
  0
LINE
  8
0
 10
73.025
 11
73.025
 20
-9.034
 21
-18.35
  0
LINE
  8
0
 10
73.025
 11
70.025
 20
-18.35
 21
-18.35
  0
LINE
  8
0
 10
70.025
 11
70.025
 20
-18.35
 21
-27.29
  0
LINE
  8
0
 10
70.025
 11
73.025
 20
-27.29
 21
-27.29
  0
LINE
  8
0
 10
73.025
 11
73.025
 20
-27.29
 21
-36.607
  0
LINE
  8
0
 10
73.025
 11
70.025
 20
-36.607
 21
-36.607
  0
LINE
  8
0
 10
70.025
 11
70.025
 20
-36.607
 21
-45.547
  0
LINE
  8
0
 10
70.025
 11
73.025
 20
-45.547
 21
-45.547
  0
LINE
  8
0
 10
73.025
 11
73.025
 20
-45.547
 21
-54.863
  0
LINE
  8
0
 10
73.025
 11
70.025
 20
-54.863
 21
-54.863
  0
LINE
  8
0
 10
70.025
 11
70.025
 20
-54.863
 21
-63.803
  0
LINE
  8
0
 10
70.025
 11
73.025
 20
-63.803
 21
-63.803
  0
LINE
  8
0
 10
73.025
 11
73.025
 20
-63.803
 21
-73.025
  0
LINE
  8
0
 10
73.025
 11
63.803
 20
-73.025
 21
-73.025
  0
LINE
  8
0
 10
63.803
 11
63.803
 20
-73.025
 21
-70.025
  0
LINE
  8
0
 10
63.803
 11
54.863
 20
-70.025
 21
-70.025
  0
LINE
  8
0
 10
54.863
 11
54.863
 20
-70.025
 21
-73.025
  0
LINE
  8
0
 10
54.863
 11
45.547
 20
-73.025
 21
-73.025
  0
LINE
  8
0
 10
45.547
 11
45.547
 20
-73.025
 21
-70.025
  0
LINE
  8
0
 10
45.547
 11
36.607
 20
-70.025
 21
-70.025
  0
LINE
  8
0
 10
36.607
 11
36.607
 20
-70.025
 21
-73.025
  0
LINE
  8
0
 10
36.607
 11
27.29
 20
-73.025
 21
-73.025
  0
LINE
  8
0
 10
27.29
 11
27.29
 20
-73.025
 21
-70.025
  0
LINE
  8
0
 10
27.29
 11
18.35
 20
-70.025
 21
-70.025
  0
LINE
  8
0
 10
18.35
 11
18.35
 20
-70.025
 21
-73.025
  0
LINE
  8
0
 10
18.35
 11
9.034
 20
-73.025
 21
-73.025
  0
LINE
  8
0
 10
9.034
 11
9.034
 20
-73.025
 21
-70.025
  0
LINE
  8
0
 10
9.034
 11
0.094
 20
-70.025
 21
-70.025
  0
LINE
  8
0
 10
0.094
 11
0.094
 20
-70.025
 21
-73.025
  0
LINE
  8
0
 10
0.094
 11
-9.222
 20
-73.025
 21
-73.025
  0
LINE
  8
0
 10
-9.222
 11
-9.222
 20
-73.025
 21
-70.025
  0
LINE
  8
0
 10
-9.222
 11
-18.162
 20
-70.025
 21
-70.025
  0
LINE
  8
0
 10
-18.162
 11
-18.162
 20
-70.025
 21
-73.025
  0
LINE
  8
0
 10
-18.162
 11
-27.478
 20
-73.025
 21
-73.025
  0
LINE
  8
0
 10
-27.478
 11
-27.478
 20
-73.025
 21
-70.025
  0
LINE
  8
0
 10
-27.478
 11
-36.418
 20
-70.025
 21
-70.025
  0
LINE
  8
0
 10
-36.418
 11
-36.418
 20
-70.025
 21
-73.025
  0
LINE
  8
0
 10
-36.418
 11
-45.735
 20
-73.025
 21
-73.025
  0
LINE
  8
0
 10
-45.735
 11
-45.735
 20
-73.025
 21
-70.025
  0
LINE
  8
0
 10
-45.735
 11
-54.675
 20
-70.025
 21
-70.025
  0
LINE
  8
0
 10
-54.675
 11
-54.675
 20
-70.025
 21
-73.025
  0
LINE
  8
0
 10
-54.675
 11
-63.991
 20
-73.025
 21
-73.025
  0
LINE
  8
0
 10
-63.991
 11
-63.991
 20
-73.025
 21
-70.025
  0
LINE
  8
0
 10
-63.991
 11
-70.025
 20
-70.025
 21
-70.025
  0
LINE
  8
0
 10
-70.025
 11
-70.025
 20
-70.025
 21
-63.991
  0
LINE
  8
0
 10
-70.025
 11
-73.025
 20
-63.991
 21
-63.991
  0
LINE
  8
0
 10
72.931
 11
72.931
 20
-74.119
 21
-74.025
  0
LINE
  8
0
 10
72.931
 11
73.025
 20
-74.025
 21
-74.025
  0
LINE
  8
0
 10
73.025
 11
73.025
 20
-74.025
 21
-74.119
  0
LINE
  8
0
 10
73.025
 11
72.931
 20
-74.119
 21
-74.119
  0
LINE
  8
0
 10
72.931
 11
72.931
 20
72.931
 21
73.025
  0
LINE
  8
0
 10
72.931
 11
73.025
 20
73.025
 21
73.025
  0
LINE
  8
0
 10
73.025
 11
73.025
 20
73.025
 21
72.931
  0
LINE
  8
0
 10
73.025
 11
72.931
 20
72.931
 21
72.931
  0
LINE
  8
0
 10
74.025
 11
74.025
 20
-220.075
 21
-210.853
  0
LINE
  8
0
 10
74.025
 11
77.025
 20
-210.853
 21
-210.853
  0
LINE
  8
0
 10
77.025
 11
77.025
 20
-210.853
 21
-201.913
  0
LINE
  8
0
 10
77.025
 11
74.025
 20
-201.913
 21
-201.913
  0
LINE
  8
0
 10
74.025
 11
74.025
 20
-201.913
 21
-192.597
  0
LINE
  8
0
 10
74.025
 11
77.025
 20
-192.597
 21
-192.597
  0
LINE
  8
0
 10
77.025
 11
77.025
 20
-192.597
 21
-183.657
  0
LINE
  8
0
 10
77.025
 11
74.025
 20
-183.657
 21
-183.657
  0
LINE
  8
0
 10
74.025
 11
74.025
 20
-183.657
 21
-174.34
  0
LINE
  8
0
 10
74.025
 11
77.025
 20
-174.34
 21
-174.34
  0
LINE
  8
0
 10
77.025
 11
77.025
 20
-174.34
 21
-165.4
  0
LINE
  8
0
 10
77.025
 11
74.025
 20
-165.4
 21
-165.4
  0
LINE
  8
0
 10
74.025
 11
74.025
 20
-165.4
 21
-156.084
  0
LINE
  8
0
 10
74.025
 11
77.025
 20
-156.084
 21
-156.084
  0
LINE
  8
0
 10
77.025
 11
77.025
 20
-156.084
 21
-147.144
  0
LINE
  8
0
 10
77.025
 11
74.025
 20
-147.144
 21
-147.144
  0
LINE
  8
0
 10
74.025
 11
74.025
 20
-147.144
 21
-137.828
  0
LINE
  8
0
 10
74.025
 11
77.025
 20
-137.828
 21
-137.828
  0
LINE
  8
0
 10
77.025
 11
77.025
 20
-137.828
 21
-128.888
  0
LINE
  8
0
 10
77.025
 11
74.025
 20
-128.888
 21
-128.888
  0
LINE
  8
0
 10
74.025
 11
74.025
 20
-128.888
 21
-119.572
  0
LINE
  8
0
 10
74.025
 11
77.025
 20
-119.572
 21
-119.572
  0
LINE
  8
0
 10
77.025
 11
77.025
 20
-119.572
 21
-110.631
  0
LINE
  8
0
 10
77.025
 11
74.025
 20
-110.631
 21
-110.631
  0
LINE
  8
0
 10
74.025
 11
74.025
 20
-110.631
 21
-101.315
  0
LINE
  8
0
 10
74.025
 11
77.025
 20
-101.315
 21
-101.315
  0
LINE
  8
0
 10
77.025
 11
77.025
 20
-101.315
 21
-92.375
  0
LINE
  8
0
 10
77.025
 11
74.025
 20
-92.375
 21
-92.375
  0
LINE
  8
0
 10
74.025
 11
74.025
 20
-92.375
 21
-83.059
  0
LINE
  8
0
 10
74.025
 11
77.025
 20
-83.059
 21
-83.059
  0
LINE
  8
0
 10
77.025
 11
77.025
 20
-83.059
 21
-74.119
  0
LINE
  8
0
 10
77.025
 11
74.025
 20
-74.119
 21
-74.119
  0
LINE
  8
0
 10
74.025
 11
74.025
 20
-74.119
 21
-74.025
  0
LINE
  8
0
 10
74.025
 11
83.247
 20
-74.025
 21
-74.025
  0
LINE
  8
0
 10
83.247
 11
83.247
 20
-74.025
 21
-77.025
  0
LINE
  8
0
 10
83.247
 11
92.187
 20
-77.025
 21
-77.025
  0
LINE
  8
0
 10
92.187
 11
92.187
 20
-77.025
 21
-74.025
  0
LINE
  8
0
 10
92.187
 11
101.503
 20
-74.025
 21
-74.025
  0
LINE
  8
0
 10
101.503
 11
101.503
 20
-74.025
 21
-77.025
  0
LINE
  8
0
 10
101.503
 11
110.443
 20
-77.025
 21
-77.025
  0
LINE
  8
0
 10
110.443
 11
110.443
 20
-77.025
 21
-74.025
  0
LINE
  8
0
 10
110.443
 11
119.76
 20
-74.025
 21
-74.025
  0
LINE
  8
0
 10
119.76
 11
119.76
 20
-74.025
 21
-77.025
  0
LINE
  8
0
 10
119.76
 11
128.7
 20
-77.025
 21
-77.025
  0
LINE
  8
0
 10
128.7
 11
128.7
 20
-77.025
 21
-74.025
  0
LINE
  8
0
 10
128.7
 11
138.016
 20
-74.025
 21
-74.025
  0
LINE
  8
0
 10
138.016
 11
138.016
 20
-74.025
 21
-77.025
  0
LINE
  8
0
 10
138.016
 11
146.956
 20
-77.025
 21
-77.025
  0
LINE
  8
0
 10
146.956
 11
146.956
 20
-77.025
 21
-74.025
  0
LINE
  8
0
 10
146.956
 11
156.272
 20
-74.025
 21
-74.025
  0
LINE
  8
0
 10
156.272
 11
156.272
 20
-74.025
 21
-77.025
  0
LINE
  8
0
 10
156.272
 11
165.212
 20
-77.025
 21
-77.025
  0
LINE
  8
0
 10
165.212
 11
165.212
 20
-77.025
 21
-74.025
  0
LINE
  8
0
 10
165.212
 11
174.528
 20
-74.025
 21
-74.025
  0
LINE
  8
0
 10
174.528
 11
174.528
 20
-74.025
 21
-77.025
  0
LINE
  8
0
 10
174.528
 11
183.468
 20
-77.025
 21
-77.025
  0
LINE
  8
0
 10
183.468
 11
183.468
 20
-77.025
 21
-74.025
  0
LINE
  8
0
 10
183.468
 11
192.785
 20
-74.025
 21
-74.025
  0
LINE
  8
0
 10
192.785
 11
192.785
 20
-74.025
 21
-77.025
  0
LINE
  8
0
 10
192.785
 11
201.725
 20
-77.025
 21
-77.025
  0
LINE
  8
0
 10
201.725
 11
201.725
 20
-77.025
 21
-74.025
  0
LINE
  8
0
 10
201.725
 11
211.041
 20
-74.025
 21
-74.025
  0
LINE
  8
0
 10
211.041
 11
211.041
 20
-74.025
 21
-77.025
  0
LINE
  8
0
 10
211.041
 11
219.981
 20
-77.025
 21
-77.025
  0
LINE
  8
0
 10
219.981
 11
219.981
 20
-77.025
 21
-74.025
  0
LINE
  8
0
 10
219.981
 11
220.075
 20
-74.025
 21
-74.025
  0
LINE
  8
0
 10
220.075
 11
220.075
 20
-74.025
 21
-83.247
  0
LINE
  8
0
 10
220.075
 11
217.075
 20
-83.247
 21
-83.247
  0
LINE
  8
0
 10
217.075
 11
217.075
 20
-83.247
 21
-92.187
  0
LINE
  8
0
 10
217.075
 11
220.075
 20
-92.187
 21
-92.187
  0
LINE
  8
0
 10
220.075
 11
220.075
 20
-92.187
 21
-101.503
  0
LINE
  8
0
 10
220.075
 11
217.075
 20
-101.503
 21
-101.503
  0
LINE
  8
0
 10
217.075
 11
217.075
 20
-101.503
 21
-110.443
  0
LINE
  8
0
 10
217.075
 11
220.075
 20
-110.443
 21
-110.443
  0
LINE
  8
0
 10
220.075
 11
220.075
 20
-110.443
 21
-119.76
  0
LINE
  8
0
 10
220.075
 11
217.075
 20
-119.76
 21
-119.76
  0
LINE
  8
0
 10
217.075
 11
217.075
 20
-119.76
 21
-128.7
  0
LINE
  8
0
 10
217.075
 11
220.075
 20
-128.7
 21
-128.7
  0
LINE
  8
0
 10
220.075
 11
220.075
 20
-128.7
 21
-138.016
  0
LINE
  8
0
 10
220.075
 11
217.075
 20
-138.016
 21
-138.016
  0
LINE
  8
0
 10
217.075
 11
217.075
 20
-138.016
 21
-146.956
  0
LINE
  8
0
 10
217.075
 11
220.075
 20
-146.956
 21
-146.956
  0
LINE
  8
0
 10
220.075
 11
220.075
 20
-146.956
 21
-156.272
  0
LINE
  8
0
 10
220.075
 11
217.075
 20
-156.272
 21
-156.272
  0
LINE
  8
0
 10
217.075
 11
217.075
 20
-156.272
 21
-165.212
  0
LINE
  8
0
 10
217.075
 11
220.075
 20
-165.212
 21
-165.212
  0
LINE
  8
0
 10
220.075
 11
220.075
 20
-165.212
 21
-174.528
  0
LINE
  8
0
 10
220.075
 11
217.075
 20
-174.528
 21
-174.528
  0
LINE
  8
0
 10
217.075
 11
217.075
 20
-174.528
 21
-183.468
  0
LINE
  8
0
 10
217.075
 11
220.075
 20
-183.468
 21
-183.468
  0
LINE
  8
0
 10
220.075
 11
220.075
 20
-183.468
 21
-192.785
  0
LINE
  8
0
 10
220.075
 11
217.075
 20
-192.785
 21
-192.785
  0
LINE
  8
0
 10
217.075
 11
217.075
 20
-192.785
 21
-201.725
  0
LINE
  8
0
 10
217.075
 11
220.075
 20
-201.725
 21
-201.725
  0
LINE
  8
0
 10
220.075
 11
220.075
 20
-201.725
 21
-211.041
  0
LINE
  8
0
 10
220.075
 11
217.075
 20
-211.041
 21
-211.041
  0
LINE
  8
0
 10
217.075
 11
217.075
 20
-211.041
 21
-219.981
  0
LINE
  8
0
 10
217.075
 11
220.075
 20
-219.981
 21
-219.981
  0
LINE
  8
0
 10
220.075
 11
220.075
 20
-219.981
 21
-220.075
  0
LINE
  8
0
 10
220.075
 11
210.853
 20
-220.075
 21
-220.075
  0
LINE
  8
0
 10
210.853
 11
210.853
 20
-220.075
 21
-217.075
  0
LINE
  8
0
 10
210.853
 11
201.913
 20
-217.075
 21
-217.075
  0
LINE
  8
0
 10
201.913
 11
201.913
 20
-217.075
 21
-220.075
  0
LINE
  8
0
 10
201.913
 11
192.597
 20
-220.075
 21
-220.075
  0
LINE
  8
0
 10
192.597
 11
192.597
 20
-220.075
 21
-217.075
  0
LINE
  8
0
 10
192.597
 11
183.657
 20
-217.075
 21
-217.075
  0
LINE
  8
0
 10
183.657
 11
183.657
 20
-217.075
 21
-220.075
  0
LINE
  8
0
 10
183.657
 11
174.34
 20
-220.075
 21
-220.075
  0
LINE
  8
0
 10
174.34
 11
174.34
 20
-220.075
 21
-217.075
  0
LINE
  8
0
 10
174.34
 11
165.4
 20
-217.075
 21
-217.075
  0
LINE
  8
0
 10
165.4
 11
165.4
 20
-217.075
 21
-220.075
  0
LINE
  8
0
 10
165.4
 11
156.084
 20
-220.075
 21
-220.075
  0
LINE
  8
0
 10
156.084
 11
156.084
 20
-220.075
 21
-217.075
  0
LINE
  8
0
 10
156.084
 11
147.144
 20
-217.075
 21
-217.075
  0
LINE
  8
0
 10
147.144
 11
147.144
 20
-217.075
 21
-220.075
  0
LINE
  8
0
 10
147.144
 11
137.828
 20
-220.075
 21
-220.075
  0
LINE
  8
0
 10
137.828
 11
137.828
 20
-220.075
 21
-217.075
  0
LINE
  8
0
 10
137.828
 11
128.888
 20
-217.075
 21
-217.075
  0
LINE
  8
0
 10
128.888
 11
128.888
 20
-217.075
 21
-220.075
  0
LINE
  8
0
 10
128.888
 11
119.572
 20
-220.075
 21
-220.075
  0
LINE
  8
0
 10
119.572
 11
119.572
 20
-220.075
 21
-217.075
  0
LINE
  8
0
 10
119.572
 11
110.631
 20
-217.075
 21
-217.075
  0
LINE
  8
0
 10
110.631
 11
110.631
 20
-217.075
 21
-220.075
  0
LINE
  8
0
 10
110.631
 11
101.315
 20
-220.075
 21
-220.075
  0
LINE
  8
0
 10
101.315
 11
101.315
 20
-220.075
 21
-217.075
  0
LINE
  8
0
 10
101.315
 11
92.375
 20
-217.075
 21
-217.075
  0
LINE
  8
0
 10
92.375
 11
92.375
 20
-217.075
 21
-220.075
  0
LINE
  8
0
 10
92.375
 11
83.059
 20
-220.075
 21
-220.075
  0
LINE
  8
0
 10
83.059
 11
83.059
 20
-220.075
 21
-217.075
  0
LINE
  8
0
 10
83.059
 11
74.119
 20
-217.075
 21
-217.075
  0
LINE
  8
0
 10
74.119
 11
74.119
 20
-217.075
 21
-220.075
  0
LINE
  8
0
 10
74.119
 11
74.025
 20
-220.075
 21
-220.075
  0
LINE
  8
0
 10
74.025
 11
74.025
 20
-73.025
 21
-72.931
  0
LINE
  8
0
 10
74.025
 11
74.119
 20
-72.931
 21
-72.931
  0
LINE
  8
0
 10
74.119
 11
74.119
 20
-72.931
 21
-73.025
  0
LINE
  8
0
 10
74.119
 11
74.025
 20
-73.025
 21
-73.025
  0
LINE
  8
0
 10
74.025
 11
74.025
 20
-63.991
 21
-54.675
  0
LINE
  8
0
 10
74.025
 11
77.025
 20
-54.675
 21
-54.675
  0
LINE
  8
0
 10
77.025
 11
77.025
 20
-54.675
 21
-45.735
  0
LINE
  8
0
 10
77.025
 11
74.025
 20
-45.735
 21
-45.735
  0
LINE
  8
0
 10
74.025
 11
74.025
 20
-45.735
 21
-36.419
  0
LINE
  8
0
 10
74.025
 11
77.025
 20
-36.419
 21
-36.419
  0
LINE
  8
0
 10
77.025
 11
77.025
 20
-36.419
 21
-27.478
  0
LINE
  8
0
 10
77.025
 11
74.025
 20
-27.478
 21
-27.478
  0
LINE
  8
0
 10
74.025
 11
74.025
 20
-27.478
 21
-18.162
  0
LINE
  8
0
 10
74.025
 11
77.025
 20
-18.162
 21
-18.162
  0
LINE
  8
0
 10
77.025
 11
77.025
 20
-18.162
 21
-9.222
  0
LINE
  8
0
 10
77.025
 11
74.025
 20
-9.222
 21
-9.222
  0
LINE
  8
0
 10
74.025
 11
74.025
 20
-9.222
 21
0.094
  0
LINE
  8
0
 10
74.025
 11
77.025
 20
0.094
 21
0.094
  0
LINE
  8
0
 10
77.025
 11
77.025
 20
0.094
 21
9.034
  0
LINE
  8
0
 10
77.025
 11
74.025
 20
9.034
 21
9.034
  0
LINE
  8
0
 10
74.025
 11
74.025
 20
9.034
 21
18.35
  0
LINE
  8
0
 10
74.025
 11
77.025
 20
18.35
 21
18.35
  0
LINE
  8
0
 10
77.025
 11
77.025
 20
18.35
 21
27.29
  0
LINE
  8
0
 10
77.025
 11
74.025
 20
27.29
 21
27.29
  0
LINE
  8
0
 10
74.025
 11
74.025
 20
27.29
 21
36.606
  0
LINE
  8
0
 10
74.025
 11
77.025
 20
36.606
 21
36.606
  0
LINE
  8
0
 10
77.025
 11
77.025
 20
36.606
 21
45.547
  0
LINE
  8
0
 10
77.025
 11
74.025
 20
45.547
 21
45.547
  0
LINE
  8
0
 10
74.025
 11
74.025
 20
45.547
 21
54.863
  0
LINE
  8
0
 10
74.025
 11
77.025
 20
54.863
 21
54.863
  0
LINE
  8
0
 10
77.025
 11
77.025
 20
54.863
 21
63.803
  0
LINE
  8
0
 10
77.025
 11
74.025
 20
63.803
 21
63.803
  0
LINE
  8
0
 10
74.025
 11
74.025
 20
63.803
 21
73.025
  0
LINE
  8
0
 10
74.025
 11
83.247
 20
73.025
 21
73.025
  0
LINE
  8
0
 10
83.247
 11
83.247
 20
73.025
 21
70.025
  0
LINE
  8
0
 10
83.247
 11
92.187
 20
70.025
 21
70.025
  0
LINE
  8
0
 10
92.187
 11
92.187
 20
70.025
 21
73.025
  0
LINE
  8
0
 10
92.187
 11
101.503
 20
73.025
 21
73.025
  0
LINE
  8
0
 10
101.503
 11
101.503
 20
73.025
 21
70.025
  0
LINE
  8
0
 10
101.503
 11
110.443
 20
70.025
 21
70.025
  0
LINE
  8
0
 10
110.443
 11
110.443
 20
70.025
 21
73.025
  0
LINE
  8
0
 10
110.443
 11
119.76
 20
73.025
 21
73.025
  0
LINE
  8
0
 10
119.76
 11
119.76
 20
73.025
 21
70.025
  0
LINE
  8
0
 10
119.76
 11
128.7
 20
70.025
 21
70.025
  0
LINE
  8
0
 10
128.7
 11
128.7
 20
70.025
 21
73.025
  0
LINE
  8
0
 10
128.7
 11
138.016
 20
73.025
 21
73.025
  0
LINE
  8
0
 10
138.016
 11
138.016
 20
73.025
 21
70.025
  0
LINE
  8
0
 10
138.016
 11
146.956
 20
70.025
 21
70.025
  0
LINE
  8
0
 10
146.956
 11
146.956
 20
70.025
 21
73.025
  0
LINE
  8
0
 10
146.956
 11
156.272
 20
73.025
 21
73.025
  0
LINE
  8
0
 10
156.272
 11
156.272
 20
73.025
 21
70.025
  0
LINE
  8
0
 10
156.272
 11
165.212
 20
70.025
 21
70.025
  0
LINE
  8
0
 10
165.212
 11
165.212
 20
70.025
 21
73.025
  0
LINE
  8
0
 10
165.212
 11
174.528
 20
73.025
 21
73.025
  0
LINE
  8
0
 10
174.528
 11
174.528
 20
73.025
 21
70.025
  0
LINE
  8
0
 10
174.528
 11
183.468
 20
70.025
 21
70.025
  0
LINE
  8
0
 10
183.468
 11
183.468
 20
70.025
 21
73.025
  0
LINE
  8
0
 10
183.468
 11
192.785
 20
73.025
 21
73.025
  0
LINE
  8
0
 10
192.785
 11
192.785
 20
73.025
 21
70.025
  0
LINE
  8
0
 10
192.785
 11
201.725
 20
70.025
 21
70.025
  0
LINE
  8
0
 10
201.725
 11
201.725
 20
70.025
 21
73.025
  0
LINE
  8
0
 10
201.725
 11
211.041
 20
73.025
 21
73.025
  0
LINE
  8
0
 10
211.041
 11
211.041
 20
73.025
 21
70.025
  0
LINE
  8
0
 10
211.041
 11
217.075
 20
70.025
 21
70.025
  0
LINE
  8
0
 10
217.075
 11
217.075
 20
70.025
 21
63.991
  0
LINE
  8
0
 10
217.075
 11
220.075
 20
63.991
 21
63.991
  0
LINE
  8
0
 10
220.075
 11
220.075
 20
63.991
 21
54.675
  0
LINE
  8
0
 10
220.075
 11
217.075
 20
54.675
 21
54.675
  0
LINE
  8
0
 10
217.075
 11
217.075
 20
54.675
 21
45.735
  0
LINE
  8
0
 10
217.075
 11
220.075
 20
45.735
 21
45.735
  0
LINE
  8
0
 10
220.075
 11
220.075
 20
45.735
 21
36.418
  0
LINE
  8
0
 10
220.075
 11
217.075
 20
36.418
 21
36.418
  0
LINE
  8
0
 10
217.075
 11
217.075
 20
36.418
 21
27.478
  0
LINE
  8
0
 10
217.075
 11
220.075
 20
27.478
 21
27.478
  0
LINE
  8
0
 10
220.075
 11
220.075
 20
27.478
 21
18.162
  0
LINE
  8
0
 10
220.075
 11
217.075
 20
18.162
 21
18.162
  0
LINE
  8
0
 10
217.075
 11
217.075
 20
18.162
 21
9.222
  0
LINE
  8
0
 10
217.075
 11
220.075
 20
9.222
 21
9.222
  0
LINE
  8
0
 10
220.075
 11
220.075
 20
9.222
 21
-0.094
  0
LINE
  8
0
 10
220.075
 11
217.075
 20
-0.094
 21
-0.094
  0
LINE
  8
0
 10
217.075
 11
217.075
 20
-0.094
 21
-9.034
  0
LINE
  8
0
 10
217.075
 11
220.075
 20
-9.034
 21
-9.034
  0
LINE
  8
0
 10
220.075
 11
220.075
 20
-9.034
 21
-18.35
  0
LINE
  8
0
 10
220.075
 11
217.075
 20
-18.35
 21
-18.35
  0
LINE
  8
0
 10
217.075
 11
217.075
 20
-18.35
 21
-27.29
  0
LINE
  8
0
 10
217.075
 11
220.075
 20
-27.29
 21
-27.29
  0
LINE
  8
0
 10
220.075
 11
220.075
 20
-27.29
 21
-36.607
  0
LINE
  8
0
 10
220.075
 11
217.075
 20
-36.607
 21
-36.607
  0
LINE
  8
0
 10
217.075
 11
217.075
 20
-36.607
 21
-45.547
  0
LINE
  8
0
 10
217.075
 11
220.075
 20
-45.547
 21
-45.547
  0
LINE
  8
0
 10
220.075
 11
220.075
 20
-45.547
 21
-54.863
  0
LINE
  8
0
 10
220.075
 11
217.075
 20
-54.863
 21
-54.863
  0
LINE
  8
0
 10
217.075
 11
217.075
 20
-54.863
 21
-63.803
  0
LINE
  8
0
 10
217.075
 11
220.075
 20
-63.803
 21
-63.803
  0
LINE
  8
0
 10
220.075
 11
220.075
 20
-63.803
 21
-73.025
  0
LINE
  8
0
 10
220.075
 11
210.853
 20
-73.025
 21
-73.025
  0
LINE
  8
0
 10
210.853
 11
210.853
 20
-73.025
 21
-70.025
  0
LINE
  8
0
 10
210.853
 11
201.913
 20
-70.025
 21
-70.025
  0
LINE
  8
0
 10
201.913
 11
201.913
 20
-70.025
 21
-73.025
  0
LINE
  8
0
 10
201.913
 11
192.597
 20
-73.025
 21
-73.025
  0
LINE
  8
0
 10
192.597
 11
192.597
 20
-73.025
 21
-70.025
  0
LINE
  8
0
 10
192.597
 11
183.657
 20
-70.025
 21
-70.025
  0
LINE
  8
0
 10
183.657
 11
183.657
 20
-70.025
 21
-73.025
  0
LINE
  8
0
 10
183.657
 11
174.34
 20
-73.025
 21
-73.025
  0
LINE
  8
0
 10
174.34
 11
174.34
 20
-73.025
 21
-70.025
  0
LINE
  8
0
 10
174.34
 11
165.4
 20
-70.025
 21
-70.025
  0
LINE
  8
0
 10
165.4
 11
165.4
 20
-70.025
 21
-73.025
  0
LINE
  8
0
 10
165.4
 11
156.084
 20
-73.025
 21
-73.025
  0
LINE
  8
0
 10
156.084
 11
156.084
 20
-73.025
 21
-70.025
  0
LINE
  8
0
 10
156.084
 11
147.144
 20
-70.025
 21
-70.025
  0
LINE
  8
0
 10
147.144
 11
147.144
 20
-70.025
 21
-73.025
  0
LINE
  8
0
 10
147.144
 11
137.828
 20
-73.025
 21
-73.025
  0
LINE
  8
0
 10
137.828
 11
137.828
 20
-73.025
 21
-70.025
  0
LINE
  8
0
 10
137.828
 11
128.888
 20
-70.025
 21
-70.025
  0
LINE
  8
0
 10
128.888
 11
128.888
 20
-70.025
 21
-73.025
  0
LINE
  8
0
 10
128.888
 11
119.572
 20
-73.025
 21
-73.025
  0
LINE
  8
0
 10
119.572
 11
119.572
 20
-73.025
 21
-70.025
  0
LINE
  8
0
 10
119.572
 11
110.631
 20
-70.025
 21
-70.025
  0
LINE
  8
0
 10
110.631
 11
110.631
 20
-70.025
 21
-73.025
  0
LINE
  8
0
 10
110.631
 11
101.315
 20
-73.025
 21
-73.025
  0
LINE
  8
0
 10
101.315
 11
101.315
 20
-73.025
 21
-70.025
  0
LINE
  8
0
 10
101.315
 11
92.375
 20
-70.025
 21
-70.025
  0
LINE
  8
0
 10
92.375
 11
92.375
 20
-70.025
 21
-73.025
  0
LINE
  8
0
 10
92.375
 11
83.059
 20
-73.025
 21
-73.025
  0
LINE
  8
0
 10
83.059
 11
83.059
 20
-73.025
 21
-70.025
  0
LINE
  8
0
 10
83.059
 11
77.025
 20
-70.025
 21
-70.025
  0
LINE
  8
0
 10
77.025
 11
77.025
 20
-70.025
 21
-63.991
  0
LINE
  8
0
 10
77.025
 11
74.025
 20
-63.991
 21
-63.991
  0
LINE
  8
0
 10
143.166
 11
143.166
 20
-148.007
 21
-146.093
  0
LINE
  8
0
 10
143.166
 11
144.056
 20
-146.093
 21
-144.398
  0
LINE
  8
0
 10
144.056
 11
145.632
 20
-144.398
 21
-143.31
  0
LINE
  8
0
 10
145.632
 11
147.532
 20
-143.31
 21
-143.079
  0
LINE
  8
0
 10
147.532
 11
149.322
 20
-143.079
 21
-143.758
  0
LINE
  8
0
 10
149.322
 11
150.592
 20
-143.758
 21
-145.191
  0
LINE
  8
0
 10
150.592
 11
151.05
 20
-145.191
 21
-147.05
  0
LINE
  8
0
 10
151.05
 11
150.592
 20
-147.05
 21
-148.909
  0
LINE
  8
0
 10
150.592
 11
149.322
 20
-148.909
 21
-150.342
  0
LINE
  8
0
 10
149.322
 11
147.532
 20
-150.342
 21
-151.021
  0
LINE
  8
0
 10
147.532
 11
145.632
 20
-151.021
 21
-150.79
  0
LINE
  8
0
 10
145.632
 11
144.056
 20
-150.79
 21
-149.702
  0
LINE
  8
0
 10
144.056
 11
143.166
 20
-149.702
 21
-148.007
  0
LINE
  8
0
 10
219.981
 11
219.981
 20
72.931
 21
73.025
  0
LINE
  8
0
 10
219.981
 11
220.075
 20
73.025
 21
73.025
  0
LINE
  8
0
 10
220.075
 11
220.075
 20
73.025
 21
72.931
  0
LINE
  8
0
 10
220.075
 11
219.981
 20
72.931
 21
72.931
  0
LINE
  8
0
 10
221.075
 11
221.075
 20
-220.075
 21
-219.981
  0
LINE
  8
0
 10
221.075
 11
224.075
 20
-219.981
 21
-219.981
  0
LINE
  8
0
 10
224.075
 11
224.075
 20
-219.981
 21
-211.041
  0
LINE
  8
0
 10
224.075
 11
221.075
 20
-211.041
 21
-211.041
  0
LINE
  8
0
 10
221.075
 11
221.075
 20
-211.041
 21
-201.725
  0
LINE
  8
0
 10
221.075
 11
224.075
 20
-201.725
 21
-201.725
  0
LINE
  8
0
 10
224.075
 11
224.075
 20
-201.725
 21
-192.785
  0
LINE
  8
0
 10
224.075
 11
221.075
 20
-192.785
 21
-192.785
  0
LINE
  8
0
 10
221.075
 11
221.075
 20
-192.785
 21
-183.468
  0
LINE
  8
0
 10
221.075
 11
224.075
 20
-183.468
 21
-183.468
  0
LINE
  8
0
 10
224.075
 11
224.075
 20
-183.468
 21
-174.528
  0
LINE
  8
0
 10
224.075
 11
221.075
 20
-174.528
 21
-174.528
  0
LINE
  8
0
 10
221.075
 11
221.075
 20
-174.528
 21
-165.212
  0
LINE
  8
0
 10
221.075
 11
224.075
 20
-165.212
 21
-165.212
  0
LINE
  8
0
 10
224.075
 11
224.075
 20
-165.212
 21
-156.272
  0
LINE
  8
0
 10
224.075
 11
221.075
 20
-156.272
 21
-156.272
  0
LINE
  8
0
 10
221.075
 11
221.075
 20
-156.272
 21
-146.956
  0
LINE
  8
0
 10
221.075
 11
224.075
 20
-146.956
 21
-146.956
  0
LINE
  8
0
 10
224.075
 11
224.075
 20
-146.956
 21
-138.016
  0
LINE
  8
0
 10
224.075
 11
221.075
 20
-138.016
 21
-138.016
  0
LINE
  8
0
 10
221.075
 11
221.075
 20
-138.016
 21
-128.7
  0
LINE
  8
0
 10
221.075
 11
224.075
 20
-128.7
 21
-128.7
  0
LINE
  8
0
 10
224.075
 11
224.075
 20
-128.7
 21
-119.76
  0
LINE
  8
0
 10
224.075
 11
221.075
 20
-119.76
 21
-119.76
  0
LINE
  8
0
 10
221.075
 11
221.075
 20
-119.76
 21
-110.443
  0
LINE
  8
0
 10
221.075
 11
224.075
 20
-110.443
 21
-110.443
  0
LINE
  8
0
 10
224.075
 11
224.075
 20
-110.443
 21
-101.503
  0
LINE
  8
0
 10
224.075
 11
221.075
 20
-101.503
 21
-101.503
  0
LINE
  8
0
 10
221.075
 11
221.075
 20
-101.503
 21
-92.187
  0
LINE
  8
0
 10
221.075
 11
224.075
 20
-92.187
 21
-92.187
  0
LINE
  8
0
 10
224.075
 11
224.075
 20
-92.187
 21
-83.247
  0
LINE
  8
0
 10
224.075
 11
221.075
 20
-83.247
 21
-83.247
  0
LINE
  8
0
 10
221.075
 11
221.075
 20
-83.247
 21
-74.025
  0
LINE
  8
0
 10
221.075
 11
221.169
 20
-74.025
 21
-74.025
  0
LINE
  8
0
 10
221.169
 11
221.169
 20
-74.025
 21
-77.025
  0
LINE
  8
0
 10
221.169
 11
230.109
 20
-77.025
 21
-77.025
  0
LINE
  8
0
 10
230.109
 11
230.109
 20
-77.025
 21
-74.025
  0
LINE
  8
0
 10
230.109
 11
239.425
 20
-74.025
 21
-74.025
  0
LINE
  8
0
 10
239.425
 11
239.425
 20
-74.025
 21
-77.025
  0
LINE
  8
0
 10
239.425
 11
248.365
 20
-77.025
 21
-77.025
  0
LINE
  8
0
 10
248.365
 11
248.365
 20
-77.025
 21
-74.025
  0
LINE
  8
0
 10
248.365
 11
257.681
 20
-74.025
 21
-74.025
  0
LINE
  8
0
 10
257.681
 11
257.681
 20
-74.025
 21
-77.025
  0
LINE
  8
0
 10
257.681
 11
266.622
 20
-77.025
 21
-77.025
  0
LINE
  8
0
 10
266.622
 11
266.622
 20
-77.025
 21
-74.025
  0
LINE
  8
0
 10
266.622
 11
275.938
 20
-74.025
 21
-74.025
  0
LINE
  8
0
 10
275.938
 11
275.938
 20
-74.025
 21
-77.025
  0
LINE
  8
0
 10
275.938
 11
284.878
 20
-77.025
 21
-77.025
  0
LINE
  8
0
 10
284.878
 11
284.878
 20
-77.025
 21
-74.025
  0
LINE
  8
0
 10
284.878
 11
294.194
 20
-74.025
 21
-74.025
  0
LINE
  8
0
 10
294.194
 11
294.194
 20
-74.025
 21
-77.025
  0
LINE
  8
0
 10
294.194
 11
303.134
 20
-77.025
 21
-77.025
  0
LINE
  8
0
 10
303.134
 11
303.134
 20
-77.025
 21
-74.025
  0
LINE
  8
0
 10
303.134
 11
312.45
 20
-74.025
 21
-74.025
  0
LINE
  8
0
 10
312.45
 11
312.45
 20
-74.025
 21
-77.025
  0
LINE
  8
0
 10
312.45
 11
321.39
 20
-77.025
 21
-77.025
  0
LINE
  8
0
 10
321.39
 11
321.39
 20
-77.025
 21
-74.025
  0
LINE
  8
0
 10
321.39
 11
330.707
 20
-74.025
 21
-74.025
  0
LINE
  8
0
 10
330.707
 11
330.707
 20
-74.025
 21
-77.025
  0
LINE
  8
0
 10
330.707
 11
339.647
 20
-77.025
 21
-77.025
  0
LINE
  8
0
 10
339.647
 11
339.647
 20
-77.025
 21
-74.025
  0
LINE
  8
0
 10
339.647
 11
348.963
 20
-74.025
 21
-74.025
  0
LINE
  8
0
 10
348.963
 11
348.963
 20
-74.025
 21
-77.025
  0
LINE
  8
0
 10
348.963
 11
357.903
 20
-77.025
 21
-77.025
  0
LINE
  8
0
 10
357.903
 11
357.903
 20
-77.025
 21
-74.025
  0
LINE
  8
0
 10
357.903
 11
367.125
 20
-74.025
 21
-74.025
  0
LINE
  8
0
 10
367.125
 11
367.125
 20
-74.025
 21
-74.119
  0
LINE
  8
0
 10
367.125
 11
364.125
 20
-74.119
 21
-74.119
  0
LINE
  8
0
 10
364.125
 11
364.125
 20
-74.119
 21
-83.059
  0
LINE
  8
0
 10
364.125
 11
367.125
 20
-83.059
 21
-83.059
  0
LINE
  8
0
 10
367.125
 11
367.125
 20
-83.059
 21
-92.375
  0
LINE
  8
0
 10
367.125
 11
364.125
 20
-92.375
 21
-92.375
  0
LINE
  8
0
 10
364.125
 11
364.125
 20
-92.375
 21
-101.315
  0
LINE
  8
0
 10
364.125
 11
367.125
 20
-101.315
 21
-101.315
  0
LINE
  8
0
 10
367.125
 11
367.125
 20
-101.315
 21
-110.631
  0
LINE
  8
0
 10
367.125
 11
364.125
 20
-110.631
 21
-110.631
  0
LINE
  8
0
 10
364.125
 11
364.125
 20
-110.631
 21
-119.572
  0
LINE
  8
0
 10
364.125
 11
367.125
 20
-119.572
 21
-119.572
  0
LINE
  8
0
 10
367.125
 11
367.125
 20
-119.572
 21
-128.888
  0
LINE
  8
0
 10
367.125
 11
364.125
 20
-128.888
 21
-128.888
  0
LINE
  8
0
 10
364.125
 11
364.125
 20
-128.888
 21
-137.828
  0
LINE
  8
0
 10
364.125
 11
367.125
 20
-137.828
 21
-137.828
  0
LINE
  8
0
 10
367.125
 11
367.125
 20
-137.828
 21
-147.144
  0
LINE
  8
0
 10
367.125
 11
364.125
 20
-147.144
 21
-147.144
  0
LINE
  8
0
 10
364.125
 11
364.125
 20
-147.144
 21
-156.084
  0
LINE
  8
0
 10
364.125
 11
367.125
 20
-156.084
 21
-156.084
  0
LINE
  8
0
 10
367.125
 11
367.125
 20
-156.084
 21
-165.4
  0
LINE
  8
0
 10
367.125
 11
364.125
 20
-165.4
 21
-165.4
  0
LINE
  8
0
 10
364.125
 11
364.125
 20
-165.4
 21
-174.34
  0
LINE
  8
0
 10
364.125
 11
367.125
 20
-174.34
 21
-174.34
  0
LINE
  8
0
 10
367.125
 11
367.125
 20
-174.34
 21
-183.657
  0
LINE
  8
0
 10
367.125
 11
364.125
 20
-183.657
 21
-183.657
  0
LINE
  8
0
 10
364.125
 11
364.125
 20
-183.657
 21
-192.597
  0
LINE
  8
0
 10
364.125
 11
367.125
 20
-192.597
 21
-192.597
  0
LINE
  8
0
 10
367.125
 11
367.125
 20
-192.597
 21
-201.913
  0
LINE
  8
0
 10
367.125
 11
364.125
 20
-201.913
 21
-201.913
  0
LINE
  8
0
 10
364.125
 11
364.125
 20
-201.913
 21
-210.853
  0
LINE
  8
0
 10
364.125
 11
367.125
 20
-210.853
 21
-210.853
  0
LINE
  8
0
 10
367.125
 11
367.125
 20
-210.853
 21
-220.075
  0
LINE
  8
0
 10
367.125
 11
367.031
 20
-220.075
 21
-220.075
  0
LINE
  8
0
 10
367.031
 11
367.031
 20
-220.075
 21
-217.075
  0
LINE
  8
0
 10
367.031
 11
358.091
 20
-217.075
 21
-217.075
  0
LINE
  8
0
 10
358.091
 11
358.091
 20
-217.075
 21
-220.075
  0
LINE
  8
0
 10
358.091
 11
348.775
 20
-220.075
 21
-220.075
  0
LINE
  8
0
 10
348.775
 11
348.775
 20
-220.075
 21
-217.075
  0
LINE
  8
0
 10
348.775
 11
339.835
 20
-217.075
 21
-217.075
  0
LINE
  8
0
 10
339.835
 11
339.835
 20
-217.075
 21
-220.075
  0
LINE
  8
0
 10
339.835
 11
330.518
 20
-220.075
 21
-220.075
  0
LINE
  8
0
 10
330.518
 11
330.518
 20
-220.075
 21
-217.075
  0
LINE
  8
0
 10
330.518
 11
321.578
 20
-217.075
 21
-217.075
  0
LINE
  8
0
 10
321.578
 11
321.578
 20
-217.075
 21
-220.075
  0
LINE
  8
0
 10
321.578
 11
312.262
 20
-220.075
 21
-220.075
  0
LINE
  8
0
 10
312.262
 11
312.262
 20
-220.075
 21
-217.075
  0
LINE
  8
0
 10
312.262
 11
303.322
 20
-217.075
 21
-217.075
  0
LINE
  8
0
 10
303.322
 11
303.322
 20
-217.075
 21
-220.075
  0
LINE
  8
0
 10
303.322
 11
294.006
 20
-220.075
 21
-220.075
  0
LINE
  8
0
 10
294.006
 11
294.006
 20
-220.075
 21
-217.075
  0
LINE
  8
0
 10
294.006
 11
285.066
 20
-217.075
 21
-217.075
  0
LINE
  8
0
 10
285.066
 11
285.066
 20
-217.075
 21
-220.075
  0
LINE
  8
0
 10
285.066
 11
275.75
 20
-220.075
 21
-220.075
  0
LINE
  8
0
 10
275.75
 11
275.75
 20
-220.075
 21
-217.075
  0
LINE
  8
0
 10
275.75
 11
266.81
 20
-217.075
 21
-217.075
  0
LINE
  8
0
 10
266.81
 11
266.81
 20
-217.075
 21
-220.075
  0
LINE
  8
0
 10
266.81
 11
257.493
 20
-220.075
 21
-220.075
  0
LINE
  8
0
 10
257.493
 11
257.493
 20
-220.075
 21
-217.075
  0
LINE
  8
0
 10
257.493
 11
248.553
 20
-217.075
 21
-217.075
  0
LINE
  8
0
 10
248.553
 11
248.553
 20
-217.075
 21
-220.075
  0
LINE
  8
0
 10
248.553
 11
239.237
 20
-220.075
 21
-220.075
  0
LINE
  8
0
 10
239.237
 11
239.237
 20
-220.075
 21
-217.075
  0
LINE
  8
0
 10
239.237
 11
230.297
 20
-217.075
 21
-217.075
  0
LINE
  8
0
 10
230.297
 11
230.297
 20
-217.075
 21
-220.075
  0
LINE
  8
0
 10
230.297
 11
221.075
 20
-220.075
 21
-220.075
  0
LINE
  8
0
 10
221.075
 11
221.075
 20
-73.025
 21
-72.931
  0
LINE
  8
0
 10
221.075
 11
221.169
 20
-72.931
 21
-72.931
  0
LINE
  8
0
 10
221.169
 11
221.169
 20
-72.931
 21
-73.025
  0
LINE
  8
0
 10
221.169
 11
221.075
 20
-73.025
 21
-73.025
  0
LINE
  8
0
 10
221.075
 11
221.075
 20
-63.991
 21
-54.675
  0
LINE
  8
0
 10
221.075
 11
224.075
 20
-54.675
 21
-54.675
  0
LINE
  8
0
 10
224.075
 11
224.075
 20
-54.675
 21
-45.735
  0
LINE
  8
0
 10
224.075
 11
221.075
 20
-45.735
 21
-45.735
  0
LINE
  8
0
 10
221.075
 11
221.075
 20
-45.735
 21
-36.419
  0
LINE
  8
0
 10
221.075
 11
224.075
 20
-36.419
 21
-36.419
  0
LINE
  8
0
 10
224.075
 11
224.075
 20
-36.419
 21
-27.478
  0
LINE
  8
0
 10
224.075
 11
221.075
 20
-27.478
 21
-27.478
  0
LINE
  8
0
 10
221.075
 11
221.075
 20
-27.478
 21
-18.162
  0
LINE
  8
0
 10
221.075
 11
224.075
 20
-18.162
 21
-18.162
  0
LINE
  8
0
 10
224.075
 11
224.075
 20
-18.162
 21
-9.222
  0
LINE
  8
0
 10
224.075
 11
221.075
 20
-9.222
 21
-9.222
  0
LINE
  8
0
 10
221.075
 11
221.075
 20
-9.222
 21
0.094
  0
LINE
  8
0
 10
221.075
 11
224.075
 20
0.094
 21
0.094
  0
LINE
  8
0
 10
224.075
 11
224.075
 20
0.094
 21
9.034
  0
LINE
  8
0
 10
224.075
 11
221.075
 20
9.034
 21
9.034
  0
LINE
  8
0
 10
221.075
 11
221.075
 20
9.034
 21
18.35
  0
LINE
  8
0
 10
221.075
 11
224.075
 20
18.35
 21
18.35
  0
LINE
  8
0
 10
224.075
 11
224.075
 20
18.35
 21
27.29
  0
LINE
  8
0
 10
224.075
 11
221.075
 20
27.29
 21
27.29
  0
LINE
  8
0
 10
221.075
 11
221.075
 20
27.29
 21
36.606
  0
LINE
  8
0
 10
221.075
 11
224.075
 20
36.606
 21
36.606
  0
LINE
  8
0
 10
224.075
 11
224.075
 20
36.606
 21
45.547
  0
LINE
  8
0
 10
224.075
 11
221.075
 20
45.547
 21
45.547
  0
LINE
  8
0
 10
221.075
 11
221.075
 20
45.547
 21
54.863
  0
LINE
  8
0
 10
221.075
 11
224.075
 20
54.863
 21
54.863
  0
LINE
  8
0
 10
224.075
 11
224.075
 20
54.863
 21
63.803
  0
LINE
  8
0
 10
224.075
 11
221.075
 20
63.803
 21
63.803
  0
LINE
  8
0
 10
221.075
 11
221.075
 20
63.803
 21
73.025
  0
LINE
  8
0
 10
221.075
 11
230.297
 20
73.025
 21
73.025
  0
LINE
  8
0
 10
230.297
 11
230.297
 20
73.025
 21
70.025
  0
LINE
  8
0
 10
230.297
 11
239.237
 20
70.025
 21
70.025
  0
LINE
  8
0
 10
239.237
 11
239.237
 20
70.025
 21
73.025
  0
LINE
  8
0
 10
239.237
 11
248.553
 20
73.025
 21
73.025
  0
LINE
  8
0
 10
248.553
 11
248.553
 20
73.025
 21
70.025
  0
LINE
  8
0
 10
248.553
 11
257.493
 20
70.025
 21
70.025
  0
LINE
  8
0
 10
257.493
 11
257.493
 20
70.025
 21
73.025
  0
LINE
  8
0
 10
257.493
 11
266.81
 20
73.025
 21
73.025
  0
LINE
  8
0
 10
266.81
 11
266.81
 20
73.025
 21
70.025
  0
LINE
  8
0
 10
266.81
 11
275.75
 20
70.025
 21
70.025
  0
LINE
  8
0
 10
275.75
 11
275.75
 20
70.025
 21
73.025
  0
LINE
  8
0
 10
275.75
 11
285.066
 20
73.025
 21
73.025
  0
LINE
  8
0
 10
285.066
 11
285.066
 20
73.025
 21
70.025
  0
LINE
  8
0
 10
285.066
 11
294.006
 20
70.025
 21
70.025
  0
LINE
  8
0
 10
294.006
 11
294.006
 20
70.025
 21
73.025
  0
LINE
  8
0
 10
294.006
 11
303.322
 20
73.025
 21
73.025
  0
LINE
  8
0
 10
303.322
 11
303.322
 20
73.025
 21
70.025
  0
LINE
  8
0
 10
303.322
 11
312.262
 20
70.025
 21
70.025
  0
LINE
  8
0
 10
312.262
 11
312.262
 20
70.025
 21
73.025
  0
LINE
  8
0
 10
312.262
 11
321.578
 20
73.025
 21
73.025
  0
LINE
  8
0
 10
321.578
 11
321.578
 20
73.025
 21
70.025
  0
LINE
  8
0
 10
321.578
 11
330.518
 20
70.025
 21
70.025
  0
LINE
  8
0
 10
330.518
 11
330.518
 20
70.025
 21
73.025
  0
LINE
  8
0
 10
330.518
 11
339.835
 20
73.025
 21
73.025
  0
LINE
  8
0
 10
339.835
 11
339.835
 20
73.025
 21
70.025
  0
LINE
  8
0
 10
339.835
 11
348.775
 20
70.025
 21
70.025
  0
LINE
  8
0
 10
348.775
 11
348.775
 20
70.025
 21
73.025
  0
LINE
  8
0
 10
348.775
 11
358.091
 20
73.025
 21
73.025
  0
LINE
  8
0
 10
358.091
 11
358.091
 20
73.025
 21
70.025
  0
LINE
  8
0
 10
358.091
 11
364.125
 20
70.025
 21
70.025
  0
LINE
  8
0
 10
364.125
 11
364.125
 20
70.025
 21
63.991
  0
LINE
  8
0
 10
364.125
 11
367.125
 20
63.991
 21
63.991
  0
LINE
  8
0
 10
367.125
 11
367.125
 20
63.991
 21
54.675
  0
LINE
  8
0
 10
367.125
 11
364.125
 20
54.675
 21
54.675
  0
LINE
  8
0
 10
364.125
 11
364.125
 20
54.675
 21
45.735
  0
LINE
  8
0
 10
364.125
 11
367.125
 20
45.735
 21
45.735
  0
LINE
  8
0
 10
367.125
 11
367.125
 20
45.735
 21
36.418
  0
LINE
  8
0
 10
367.125
 11
364.125
 20
36.418
 21
36.418
  0
LINE
  8
0
 10
364.125
 11
364.125
 20
36.418
 21
27.478
  0
LINE
  8
0
 10
364.125
 11
367.125
 20
27.478
 21
27.478
  0
LINE
  8
0
 10
367.125
 11
367.125
 20
27.478
 21
18.162
  0
LINE
  8
0
 10
367.125
 11
364.125
 20
18.162
 21
18.162
  0
LINE
  8
0
 10
364.125
 11
364.125
 20
18.162
 21
9.222
  0
LINE
  8
0
 10
364.125
 11
367.125
 20
9.222
 21
9.222
  0
LINE
  8
0
 10
367.125
 11
367.125
 20
9.222
 21
-0.094
  0
LINE
  8
0
 10
367.125
 11
364.125
 20
-0.094
 21
-0.094
  0
LINE
  8
0
 10
364.125
 11
364.125
 20
-0.094
 21
-9.034
  0
LINE
  8
0
 10
364.125
 11
367.125
 20
-9.034
 21
-9.034
  0
LINE
  8
0
 10
367.125
 11
367.125
 20
-9.034
 21
-18.35
  0
LINE
  8
0
 10
367.125
 11
364.125
 20
-18.35
 21
-18.35
  0
LINE
  8
0
 10
364.125
 11
364.125
 20
-18.35
 21
-27.29
  0
LINE
  8
0
 10
364.125
 11
367.125
 20
-27.29
 21
-27.29
  0
LINE
  8
0
 10
367.125
 11
367.125
 20
-27.29
 21
-36.607
  0
LINE
  8
0
 10
367.125
 11
364.125
 20
-36.607
 21
-36.607
  0
LINE
  8
0
 10
364.125
 11
364.125
 20
-36.607
 21
-45.547
  0
LINE
  8
0
 10
364.125
 11
367.125
 20
-45.547
 21
-45.547
  0
LINE
  8
0
 10
367.125
 11
367.125
 20
-45.547
 21
-54.863
  0
LINE
  8
0
 10
367.125
 11
364.125
 20
-54.863
 21
-54.863
  0
LINE
  8
0
 10
364.125
 11
364.125
 20
-54.863
 21
-63.803
  0
LINE
  8
0
 10
364.125
 11
367.125
 20
-63.803
 21
-63.803
  0
LINE
  8
0
 10
367.125
 11
367.125
 20
-63.803
 21
-73.025
  0
LINE
  8
0
 10
367.125
 11
357.903
 20
-73.025
 21
-73.025
  0
LINE
  8
0
 10
357.903
 11
357.903
 20
-73.025
 21
-70.025
  0
LINE
  8
0
 10
357.903
 11
348.963
 20
-70.025
 21
-70.025
  0
LINE
  8
0
 10
348.963
 11
348.963
 20
-70.025
 21
-73.025
  0
LINE
  8
0
 10
348.963
 11
339.647
 20
-73.025
 21
-73.025
  0
LINE
  8
0
 10
339.647
 11
339.647
 20
-73.025
 21
-70.025
  0
LINE
  8
0
 10
339.647
 11
330.707
 20
-70.025
 21
-70.025
  0
LINE
  8
0
 10
330.707
 11
330.707
 20
-70.025
 21
-73.025
  0
LINE
  8
0
 10
330.707
 11
321.39
 20
-73.025
 21
-73.025
  0
LINE
  8
0
 10
321.39
 11
321.39
 20
-73.025
 21
-70.025
  0
LINE
  8
0
 10
321.39
 11
312.45
 20
-70.025
 21
-70.025
  0
LINE
  8
0
 10
312.45
 11
312.45
 20
-70.025
 21
-73.025
  0
LINE
  8
0
 10
312.45
 11
303.134
 20
-73.025
 21
-73.025
  0
LINE
  8
0
 10
303.134
 11
303.134
 20
-73.025
 21
-70.025
  0
LINE
  8
0
 10
303.134
 11
294.194
 20
-70.025
 21
-70.025
  0
LINE
  8
0
 10
294.194
 11
294.194
 20
-70.025
 21
-73.025
  0
LINE
  8
0
 10
294.194
 11
284.878
 20
-73.025
 21
-73.025
  0
LINE
  8
0
 10
284.878
 11
284.878
 20
-73.025
 21
-70.025
  0
LINE
  8
0
 10
284.878
 11
275.938
 20
-70.025
 21
-70.025
  0
LINE
  8
0
 10
275.938
 11
275.938
 20
-70.025
 21
-73.025
  0
LINE
  8
0
 10
275.938
 11
266.622
 20
-73.025
 21
-73.025
  0
LINE
  8
0
 10
266.622
 11
266.622
 20
-73.025
 21
-70.025
  0
LINE
  8
0
 10
266.622
 11
257.681
 20
-70.025
 21
-70.025
  0
LINE
  8
0
 10
257.681
 11
257.681
 20
-70.025
 21
-73.025
  0
LINE
  8
0
 10
257.681
 11
248.365
 20
-73.025
 21
-73.025
  0
LINE
  8
0
 10
248.365
 11
248.365
 20
-73.025
 21
-70.025
  0
LINE
  8
0
 10
248.365
 11
239.425
 20
-70.025
 21
-70.025
  0
LINE
  8
0
 10
239.425
 11
239.425
 20
-70.025
 21
-73.025
  0
LINE
  8
0
 10
239.425
 11
230.109
 20
-73.025
 21
-73.025
  0
LINE
  8
0
 10
230.109
 11
230.109
 20
-73.025
 21
-70.025
  0
LINE
  8
0
 10
230.109
 11
224.075
 20
-70.025
 21
-70.025
  0
LINE
  8
0
 10
224.075
 11
224.075
 20
-70.025
 21
-63.991
  0
LINE
  8
0
 10
224.075
 11
221.075
 20
-63.991
 21
-63.991
  0
LINE
  8
0
 10
367.031
 11
367.031
 20
72.931
 21
73.025
  0
LINE
  8
0
 10
367.031
 11
367.125
 20
73.025
 21
73.025
  0
LINE
  8
0
 10
367.125
 11
367.125
 20
73.025
 21
72.931
  0
LINE
  8
0
 10
367.125
 11
367.031
 20
72.931
 21
72.931
  0
ENDSEC
  0
SECTION
  2
OBJECTS
  0
DICTIONARY
  0
ENDSEC
  0
EOF
