  0
SECTION
  2
BLOCKS
  0
ENDSEC
  0
SECTION
  2
ENTITIES
  0
LINE
  8
0
 10
-73.025
 11
-73.025
 20
-210.947
 21
-201.819
  0
LINE
  8
0
 10
-73.025
 11
-70.025
 20
-201.819
 21
-201.819
  0
LINE
  8
0
 10
-70.025
 11
-70.025
 20
-201.819
 21
-192.691
  0
LINE
  8
0
 10
-70.025
 11
-73.025
 20
-192.691
 21
-192.691
  0
LINE
  8
0
 10
-73.025
 11
-73.025
 20
-192.691
 21
-183.563
  0
LINE
  8
0
 10
-73.025
 11
-70.025
 20
-183.563
 21
-183.563
  0
LINE
  8
0
 10
-70.025
 11
-70.025
 20
-183.563
 21
-174.434
  0
LINE
  8
0
 10
-70.025
 11
-73.025
 20
-174.434
 21
-174.434
  0
LINE
  8
0
 10
-73.025
 11
-73.025
 20
-174.434
 21
-165.306
  0
LINE
  8
0
 10
-73.025
 11
-70.025
 20
-165.306
 21
-165.306
  0
LINE
  8
0
 10
-70.025
 11
-70.025
 20
-165.306
 21
-156.178
  0
LINE
  8
0
 10
-70.025
 11
-73.025
 20
-156.178
 21
-156.178
  0
LINE
  8
0
 10
-73.025
 11
-73.025
 20
-156.178
 21
-147.05
  0
LINE
  8
0
 10
-73.025
 11
-70.025
 20
-147.05
 21
-147.05
  0
LINE
  8
0
 10
-70.025
 11
-70.025
 20
-147.05
 21
-137.922
  0
LINE
  8
0
 10
-70.025
 11
-73.025
 20
-137.922
 21
-137.922
  0
LINE
  8
0
 10
-73.025
 11
-73.025
 20
-137.922
 21
-128.794
  0
LINE
  8
0
 10
-73.025
 11
-70.025
 20
-128.794
 21
-128.794
  0
LINE
  8
0
 10
-70.025
 11
-70.025
 20
-128.794
 21
-119.666
  0
LINE
  8
0
 10
-70.025
 11
-73.025
 20
-119.666
 21
-119.666
  0
LINE
  8
0
 10
-73.025
 11
-73.025
 20
-119.666
 21
-110.538
  0
LINE
  8
0
 10
-73.025
 11
-70.025
 20
-110.538
 21
-110.538
  0
LINE
  8
0
 10
-70.025
 11
-70.025
 20
-110.538
 21
-101.409
  0
LINE
  8
0
 10
-70.025
 11
-73.025
 20
-101.409
 21
-101.409
  0
LINE
  8
0
 10
-73.025
 11
-73.025
 20
-101.409
 21
-92.281
  0
LINE
  8
0
 10
-73.025
 11
-70.025
 20
-92.281
 21
-92.281
  0
LINE
  8
0
 10
-70.025
 11
-70.025
 20
-92.281
 21
-83.153
  0
LINE
  8
0
 10
-70.025
 11
-73.025
 20
-83.153
 21
-83.153
  0
LINE
  8
0
 10
-73.025
 11
-73.025
 20
-83.153
 21
-74.025
  0
LINE
  8
0
 10
-73.025
 11
-63.897
 20
-74.025
 21
-74.025
  0
LINE
  8
0
 10
-63.897
 11
-63.897
 20
-74.025
 21
-77.025
  0
LINE
  8
0
 10
-63.897
 11
-54.769
 20
-77.025
 21
-77.025
  0
LINE
  8
0
 10
-54.769
 11
-54.769
 20
-77.025
 21
-74.025
  0
LINE
  8
0
 10
-54.769
 11
-45.641
 20
-74.025
 21
-74.025
  0
LINE
  8
0
 10
-45.641
 11
-45.641
 20
-74.025
 21
-77.025
  0
LINE
  8
0
 10
-45.641
 11
-36.512
 20
-77.025
 21
-77.025
  0
LINE
  8
0
 10
-36.512
 11
-36.512
 20
-77.025
 21
-74.025
  0
LINE
  8
0
 10
-36.512
 11
-27.384
 20
-74.025
 21
-74.025
  0
LINE
  8
0
 10
-27.384
 11
-27.384
 20
-74.025
 21
-77.025
  0
LINE
  8
0
 10
-27.384
 11
-18.256
 20
-77.025
 21
-77.025
  0
LINE
  8
0
 10
-18.256
 11
-18.256
 20
-77.025
 21
-74.025
  0
LINE
  8
0
 10
-18.256
 11
-9.128
 20
-74.025
 21
-74.025
  0
LINE
  8
0
 10
-9.128
 11
-9.128
 20
-74.025
 21
-77.025
  0
LINE
  8
0
 10
-9.128
 11
0
 20
-77.025
 21
-77.025
  0
LINE
  8
0
 10
0
 11
0
 20
-77.025
 21
-74.025
  0
LINE
  8
0
 10
0
 11
9.128
 20
-74.025
 21
-74.025
  0
LINE
  8
0
 10
9.128
 11
9.128
 20
-74.025
 21
-77.025
  0
LINE
  8
0
 10
9.128
 11
18.256
 20
-77.025
 21
-77.025
  0
LINE
  8
0
 10
18.256
 11
18.256
 20
-77.025
 21
-74.025
  0
LINE
  8
0
 10
18.256
 11
27.384
 20
-74.025
 21
-74.025
  0
LINE
  8
0
 10
27.384
 11
27.384
 20
-74.025
 21
-77.025
  0
LINE
  8
0
 10
27.384
 11
36.513
 20
-77.025
 21
-77.025
  0
LINE
  8
0
 10
36.513
 11
36.513
 20
-77.025
 21
-74.025
  0
LINE
  8
0
 10
36.513
 11
45.641
 20
-74.025
 21
-74.025
  0
LINE
  8
0
 10
45.641
 11
45.641
 20
-74.025
 21
-77.025
  0
LINE
  8
0
 10
45.641
 11
54.769
 20
-77.025
 21
-77.025
  0
LINE
  8
0
 10
54.769
 11
54.769
 20
-77.025
 21
-74.025
  0
LINE
  8
0
 10
54.769
 11
63.897
 20
-74.025
 21
-74.025
  0
LINE
  8
0
 10
63.897
 11
63.897
 20
-74.025
 21
-77.025
  0
LINE
  8
0
 10
63.897
 11
70.025
 20
-77.025
 21
-77.025
  0
LINE
  8
0
 10
70.025
 11
70.025
 20
-77.025
 21
-83.153
  0
LINE
  8
0
 10
70.025
 11
73.025
 20
-83.153
 21
-83.153
  0
LINE
  8
0
 10
73.025
 11
73.025
 20
-83.153
 21
-92.281
  0
LINE
  8
0
 10
73.025
 11
70.025
 20
-92.281
 21
-92.281
  0
LINE
  8
0
 10
70.025
 11
70.025
 20
-92.281
 21
-101.409
  0
LINE
  8
0
 10
70.025
 11
73.025
 20
-101.409
 21
-101.409
  0
LINE
  8
0
 10
73.025
 11
73.025
 20
-101.409
 21
-110.537
  0
LINE
  8
0
 10
73.025
 11
70.025
 20
-110.537
 21
-110.537
  0
LINE
  8
0
 10
70.025
 11
70.025
 20
-110.537
 21
-119.666
  0
LINE
  8
0
 10
70.025
 11
73.025
 20
-119.666
 21
-119.666
  0
LINE
  8
0
 10
73.025
 11
73.025
 20
-119.666
 21
-128.794
  0
LINE
  8
0
 10
73.025
 11
70.025
 20
-128.794
 21
-128.794
  0
LINE
  8
0
 10
70.025
 11
70.025
 20
-128.794
 21
-137.922
  0
LINE
  8
0
 10
70.025
 11
73.025
 20
-137.922
 21
-137.922
  0
LINE
  8
0
 10
73.025
 11
73.025
 20
-137.922
 21
-147.05
  0
LINE
  8
0
 10
73.025
 11
70.025
 20
-147.05
 21
-147.05
  0
LINE
  8
0
 10
70.025
 11
70.025
 20
-147.05
 21
-156.178
  0
LINE
  8
0
 10
70.025
 11
73.025
 20
-156.178
 21
-156.178
  0
LINE
  8
0
 10
73.025
 11
73.025
 20
-156.178
 21
-165.306
  0
LINE
  8
0
 10
73.025
 11
70.025
 20
-165.306
 21
-165.306
  0
LINE
  8
0
 10
70.025
 11
70.025
 20
-165.306
 21
-174.434
  0
LINE
  8
0
 10
70.025
 11
73.025
 20
-174.434
 21
-174.434
  0
LINE
  8
0
 10
73.025
 11
73.025
 20
-174.434
 21
-183.562
  0
LINE
  8
0
 10
73.025
 11
70.025
 20
-183.562
 21
-183.562
  0
LINE
  8
0
 10
70.025
 11
70.025
 20
-183.562
 21
-192.691
  0
LINE
  8
0
 10
70.025
 11
73.025
 20
-192.691
 21
-192.691
  0
LINE
  8
0
 10
73.025
 11
73.025
 20
-192.691
 21
-201.819
  0
LINE
  8
0
 10
73.025
 11
70.025
 20
-201.819
 21
-201.819
  0
LINE
  8
0
 10
70.025
 11
70.025
 20
-201.819
 21
-210.947
  0
LINE
  8
0
 10
70.025
 11
73.025
 20
-210.947
 21
-210.947
  0
LINE
  8
0
 10
73.025
 11
73.025
 20
-210.947
 21
-220.075
  0
LINE
  8
0
 10
73.025
 11
63.897
 20
-220.075
 21
-220.075
  0
LINE
  8
0
 10
63.897
 11
63.897
 20
-220.075
 21
-217.075
  0
LINE
  8
0
 10
63.897
 11
54.769
 20
-217.075
 21
-217.075
  0
LINE
  8
0
 10
54.769
 11
54.769
 20
-217.075
 21
-220.075
  0
LINE
  8
0
 10
54.769
 11
45.641
 20
-220.075
 21
-220.075
  0
LINE
  8
0
 10
45.641
 11
45.641
 20
-220.075
 21
-217.075
  0
LINE
  8
0
 10
45.641
 11
36.512
 20
-217.075
 21
-217.075
  0
LINE
  8
0
 10
36.512
 11
36.512
 20
-217.075
 21
-220.075
  0
LINE
  8
0
 10
36.512
 11
27.384
 20
-220.075
 21
-220.075
  0
LINE
  8
0
 10
27.384
 11
27.384
 20
-220.075
 21
-217.075
  0
LINE
  8
0
 10
27.384
 11
18.256
 20
-217.075
 21
-217.075
  0
LINE
  8
0
 10
18.256
 11
18.256
 20
-217.075
 21
-220.075
  0
LINE
  8
0
 10
18.256
 11
9.128
 20
-220.075
 21
-220.075
  0
LINE
  8
0
 10
9.128
 11
9.128
 20
-220.075
 21
-217.075
  0
LINE
  8
0
 10
9.128
 11
0
 20
-217.075
 21
-217.075
  0
LINE
  8
0
 10
0
 11
0
 20
-217.075
 21
-220.075
  0
LINE
  8
0
 10
0
 11
-9.128
 20
-220.075
 21
-220.075
  0
LINE
  8
0
 10
-9.128
 11
-9.128
 20
-220.075
 21
-217.075
  0
LINE
  8
0
 10
-9.128
 11
-18.256
 20
-217.075
 21
-217.075
  0
LINE
  8
0
 10
-18.256
 11
-18.256
 20
-217.075
 21
-220.075
  0
LINE
  8
0
 10
-18.256
 11
-27.384
 20
-220.075
 21
-220.075
  0
LINE
  8
0
 10
-27.384
 11
-27.384
 20
-220.075
 21
-217.075
  0
LINE
  8
0
 10
-27.384
 11
-36.513
 20
-217.075
 21
-217.075
  0
LINE
  8
0
 10
-36.513
 11
-36.513
 20
-217.075
 21
-220.075
  0
LINE
  8
0
 10
-36.513
 11
-45.641
 20
-220.075
 21
-220.075
  0
LINE
  8
0
 10
-45.641
 11
-45.641
 20
-220.075
 21
-217.075
  0
LINE
  8
0
 10
-45.641
 11
-54.769
 20
-217.075
 21
-217.075
  0
LINE
  8
0
 10
-54.769
 11
-54.769
 20
-217.075
 21
-220.075
  0
LINE
  8
0
 10
-54.769
 11
-63.897
 20
-220.075
 21
-220.075
  0
LINE
  8
0
 10
-63.897
 11
-63.897
 20
-220.075
 21
-217.075
  0
LINE
  8
0
 10
-63.897
 11
-70.025
 20
-217.075
 21
-217.075
  0
LINE
  8
0
 10
-70.025
 11
-70.025
 20
-217.075
 21
-210.947
  0
LINE
  8
0
 10
-70.025
 11
-73.025
 20
-210.947
 21
-210.947
  0
LINE
  8
0
 10
-73.025
 11
-73.025
 20
-63.897
 21
-54.769
  0
LINE
  8
0
 10
-73.025
 11
-70.025
 20
-54.769
 21
-54.769
  0
LINE
  8
0
 10
-70.025
 11
-70.025
 20
-54.769
 21
-45.641
  0
LINE
  8
0
 10
-70.025
 11
-73.025
 20
-45.641
 21
-45.641
  0
LINE
  8
0
 10
-73.025
 11
-73.025
 20
-45.641
 21
-36.513
  0
LINE
  8
0
 10
-73.025
 11
-70.025
 20
-36.513
 21
-36.513
  0
LINE
  8
0
 10
-70.025
 11
-70.025
 20
-36.513
 21
-27.384
  0
LINE
  8
0
 10
-70.025
 11
-73.025
 20
-27.384
 21
-27.384
  0
LINE
  8
0
 10
-73.025
 11
-73.025
 20
-27.384
 21
-18.256
  0
LINE
  8
0
 10
-73.025
 11
-70.025
 20
-18.256
 21
-18.256
  0
LINE
  8
0
 10
-70.025
 11
-70.025
 20
-18.256
 21
-9.128
  0
LINE
  8
0
 10
-70.025
 11
-73.025
 20
-9.128
 21
-9.128
  0
LINE
  8
0
 10
-73.025
 11
-73.025
 20
-9.128
 21
0
  0
LINE
  8
0
 10
-73.025
 11
-70.025
 20
0
 21
0
  0
LINE
  8
0
 10
-70.025
 11
-70.025
 20
0
 21
9.128
  0
LINE
  8
0
 10
-70.025
 11
-73.025
 20
9.128
 21
9.128
  0
LINE
  8
0
 10
-73.025
 11
-73.025
 20
9.128
 21
18.256
  0
LINE
  8
0
 10
-73.025
 11
-70.025
 20
18.256
 21
18.256
  0
LINE
  8
0
 10
-70.025
 11
-70.025
 20
18.256
 21
27.384
  0
LINE
  8
0
 10
-70.025
 11
-73.025
 20
27.384
 21
27.384
  0
LINE
  8
0
 10
-73.025
 11
-73.025
 20
27.384
 21
36.512
  0
LINE
  8
0
 10
-73.025
 11
-70.025
 20
36.512
 21
36.512
  0
LINE
  8
0
 10
-70.025
 11
-70.025
 20
36.512
 21
45.641
  0
LINE
  8
0
 10
-70.025
 11
-73.025
 20
45.641
 21
45.641
  0
LINE
  8
0
 10
-73.025
 11
-73.025
 20
45.641
 21
54.769
  0
LINE
  8
0
 10
-73.025
 11
-70.025
 20
54.769
 21
54.769
  0
LINE
  8
0
 10
-70.025
 11
-70.025
 20
54.769
 21
63.897
  0
LINE
  8
0
 10
-70.025
 11
-73.025
 20
63.897
 21
63.897
  0
LINE
  8
0
 10
-73.025
 11
-73.025
 20
63.897
 21
73.025
  0
LINE
  8
0
 10
-73.025
 11
-63.897
 20
73.025
 21
73.025
  0
LINE
  8
0
 10
-63.897
 11
-63.897
 20
73.025
 21
70.025
  0
LINE
  8
0
 10
-63.897
 11
-54.769
 20
70.025
 21
70.025
  0
LINE
  8
0
 10
-54.769
 11
-54.769
 20
70.025
 21
73.025
  0
LINE
  8
0
 10
-54.769
 11
-45.641
 20
73.025
 21
73.025
  0
LINE
  8
0
 10
-45.641
 11
-45.641
 20
73.025
 21
70.025
  0
LINE
  8
0
 10
-45.641
 11
-36.512
 20
70.025
 21
70.025
  0
LINE
  8
0
 10
-36.512
 11
-36.512
 20
70.025
 21
73.025
  0
LINE
  8
0
 10
-36.512
 11
-27.384
 20
73.025
 21
73.025
  0
LINE
  8
0
 10
-27.384
 11
-27.384
 20
73.025
 21
70.025
  0
LINE
  8
0
 10
-27.384
 11
-18.256
 20
70.025
 21
70.025
  0
LINE
  8
0
 10
-18.256
 11
-18.256
 20
70.025
 21
73.025
  0
LINE
  8
0
 10
-18.256
 11
-9.128
 20
73.025
 21
73.025
  0
LINE
  8
0
 10
-9.128
 11
-9.128
 20
73.025
 21
70.025
  0
LINE
  8
0
 10
-9.128
 11
0
 20
70.025
 21
70.025
  0
LINE
  8
0
 10
0
 11
0
 20
70.025
 21
73.025
  0
LINE
  8
0
 10
0
 11
9.128
 20
73.025
 21
73.025
  0
LINE
  8
0
 10
9.128
 11
9.128
 20
73.025
 21
70.025
  0
LINE
  8
0
 10
9.128
 11
18.256
 20
70.025
 21
70.025
  0
LINE
  8
0
 10
18.256
 11
18.256
 20
70.025
 21
73.025
  0
LINE
  8
0
 10
18.256
 11
27.384
 20
73.025
 21
73.025
  0
LINE
  8
0
 10
27.384
 11
27.384
 20
73.025
 21
70.025
  0
LINE
  8
0
 10
27.384
 11
36.513
 20
70.025
 21
70.025
  0
LINE
  8
0
 10
36.513
 11
36.513
 20
70.025
 21
73.025
  0
LINE
  8
0
 10
36.513
 11
45.641
 20
73.025
 21
73.025
  0
LINE
  8
0
 10
45.641
 11
45.641
 20
73.025
 21
70.025
  0
LINE
  8
0
 10
45.641
 11
54.769
 20
70.025
 21
70.025
  0
LINE
  8
0
 10
54.769
 11
54.769
 20
70.025
 21
73.025
  0
LINE
  8
0
 10
54.769
 11
63.897
 20
73.025
 21
73.025
  0
LINE
  8
0
 10
63.897
 11
63.897
 20
73.025
 21
70.025
  0
LINE
  8
0
 10
63.897
 11
70.025
 20
70.025
 21
70.025
  0
LINE
  8
0
 10
70.025
 11
70.025
 20
70.025
 21
63.897
  0
LINE
  8
0
 10
70.025
 11
73.025
 20
63.897
 21
63.897
  0
LINE
  8
0
 10
73.025
 11
73.025
 20
63.897
 21
54.769
  0
LINE
  8
0
 10
73.025
 11
70.025
 20
54.769
 21
54.769
  0
LINE
  8
0
 10
70.025
 11
70.025
 20
54.769
 21
45.641
  0
LINE
  8
0
 10
70.025
 11
73.025
 20
45.641
 21
45.641
  0
LINE
  8
0
 10
73.025
 11
73.025
 20
45.641
 21
36.513
  0
LINE
  8
0
 10
73.025
 11
70.025
 20
36.513
 21
36.513
  0
LINE
  8
0
 10
70.025
 11
70.025
 20
36.513
 21
27.384
  0
LINE
  8
0
 10
70.025
 11
73.025
 20
27.384
 21
27.384
  0
LINE
  8
0
 10
73.025
 11
73.025
 20
27.384
 21
18.256
  0
LINE
  8
0
 10
73.025
 11
70.025
 20
18.256
 21
18.256
  0
LINE
  8
0
 10
70.025
 11
70.025
 20
18.256
 21
9.128
  0
LINE
  8
0
 10
70.025
 11
73.025
 20
9.128
 21
9.128
  0
LINE
  8
0
 10
73.025
 11
73.025
 20
9.128
 21
0
  0
LINE
  8
0
 10
73.025
 11
70.025
 20
0
 21
0
  0
LINE
  8
0
 10
70.025
 11
70.025
 20
0
 21
-9.128
  0
LINE
  8
0
 10
70.025
 11
73.025
 20
-9.128
 21
-9.128
  0
LINE
  8
0
 10
73.025
 11
73.025
 20
-9.128
 21
-18.256
  0
LINE
  8
0
 10
73.025
 11
70.025
 20
-18.256
 21
-18.256
  0
LINE
  8
0
 10
70.025
 11
70.025
 20
-18.256
 21
-27.384
  0
LINE
  8
0
 10
70.025
 11
73.025
 20
-27.384
 21
-27.384
  0
LINE
  8
0
 10
73.025
 11
73.025
 20
-27.384
 21
-36.512
  0
LINE
  8
0
 10
73.025
 11
70.025
 20
-36.512
 21
-36.512
  0
LINE
  8
0
 10
70.025
 11
70.025
 20
-36.512
 21
-45.641
  0
LINE
  8
0
 10
70.025
 11
73.025
 20
-45.641
 21
-45.641
  0
LINE
  8
0
 10
73.025
 11
73.025
 20
-45.641
 21
-54.769
  0
LINE
  8
0
 10
73.025
 11
70.025
 20
-54.769
 21
-54.769
  0
LINE
  8
0
 10
70.025
 11
70.025
 20
-54.769
 21
-63.897
  0
LINE
  8
0
 10
70.025
 11
73.025
 20
-63.897
 21
-63.897
  0
LINE
  8
0
 10
73.025
 11
73.025
 20
-63.897
 21
-73.025
  0
LINE
  8
0
 10
73.025
 11
63.897
 20
-73.025
 21
-73.025
  0
LINE
  8
0
 10
63.897
 11
63.897
 20
-73.025
 21
-70.025
  0
LINE
  8
0
 10
63.897
 11
54.769
 20
-70.025
 21
-70.025
  0
LINE
  8
0
 10
54.769
 11
54.769
 20
-70.025
 21
-73.025
  0
LINE
  8
0
 10
54.769
 11
45.641
 20
-73.025
 21
-73.025
  0
LINE
  8
0
 10
45.641
 11
45.641
 20
-73.025
 21
-70.025
  0
LINE
  8
0
 10
45.641
 11
36.512
 20
-70.025
 21
-70.025
  0
LINE
  8
0
 10
36.512
 11
36.512
 20
-70.025
 21
-73.025
  0
LINE
  8
0
 10
36.512
 11
27.384
 20
-73.025
 21
-73.025
  0
LINE
  8
0
 10
27.384
 11
27.384
 20
-73.025
 21
-70.025
  0
LINE
  8
0
 10
27.384
 11
18.256
 20
-70.025
 21
-70.025
  0
LINE
  8
0
 10
18.256
 11
18.256
 20
-70.025
 21
-73.025
  0
LINE
  8
0
 10
18.256
 11
9.128
 20
-73.025
 21
-73.025
  0
LINE
  8
0
 10
9.128
 11
9.128
 20
-73.025
 21
-70.025
  0
LINE
  8
0
 10
9.128
 11
0
 20
-70.025
 21
-70.025
  0
LINE
  8
0
 10
0
 11
0
 20
-70.025
 21
-73.025
  0
LINE
  8
0
 10
0
 11
-9.128
 20
-73.025
 21
-73.025
  0
LINE
  8
0
 10
-9.128
 11
-9.128
 20
-73.025
 21
-70.025
  0
LINE
  8
0
 10
-9.128
 11
-18.256
 20
-70.025
 21
-70.025
  0
LINE
  8
0
 10
-18.256
 11
-18.256
 20
-70.025
 21
-73.025
  0
LINE
  8
0
 10
-18.256
 11
-27.384
 20
-73.025
 21
-73.025
  0
LINE
  8
0
 10
-27.384
 11
-27.384
 20
-73.025
 21
-70.025
  0
LINE
  8
0
 10
-27.384
 11
-36.513
 20
-70.025
 21
-70.025
  0
LINE
  8
0
 10
-36.513
 11
-36.513
 20
-70.025
 21
-73.025
  0
LINE
  8
0
 10
-36.513
 11
-45.641
 20
-73.025
 21
-73.025
  0
LINE
  8
0
 10
-45.641
 11
-45.641
 20
-73.025
 21
-70.025
  0
LINE
  8
0
 10
-45.641
 11
-54.769
 20
-70.025
 21
-70.025
  0
LINE
  8
0
 10
-54.769
 11
-54.769
 20
-70.025
 21
-73.025
  0
LINE
  8
0
 10
-54.769
 11
-63.897
 20
-73.025
 21
-73.025
  0
LINE
  8
0
 10
-63.897
 11
-63.897
 20
-73.025
 21
-70.025
  0
LINE
  8
0
 10
-63.897
 11
-70.025
 20
-70.025
 21
-70.025
  0
LINE
  8
0
 10
-70.025
 11
-70.025
 20
-70.025
 21
-63.897
  0
LINE
  8
0
 10
-70.025
 11
-73.025
 20
-63.897
 21
-63.897
  0
LINE
  8
0
 10
74.025
 11
74.025
 20
-63.897
 21
-54.769
  0
LINE
  8
0
 10
74.025
 11
77.025
 20
-54.769
 21
-54.769
  0
LINE
  8
0
 10
77.025
 11
77.025
 20
-54.769
 21
-45.641
  0
LINE
  8
0
 10
77.025
 11
74.025
 20
-45.641
 21
-45.641
  0
LINE
  8
0
 10
74.025
 11
74.025
 20
-45.641
 21
-36.513
  0
LINE
  8
0
 10
74.025
 11
77.025
 20
-36.513
 21
-36.513
  0
LINE
  8
0
 10
77.025
 11
77.025
 20
-36.513
 21
-27.384
  0
LINE
  8
0
 10
77.025
 11
74.025
 20
-27.384
 21
-27.384
  0
LINE
  8
0
 10
74.025
 11
74.025
 20
-27.384
 21
-18.256
  0
LINE
  8
0
 10
74.025
 11
77.025
 20
-18.256
 21
-18.256
  0
LINE
  8
0
 10
77.025
 11
77.025
 20
-18.256
 21
-9.128
  0
LINE
  8
0
 10
77.025
 11
74.025
 20
-9.128
 21
-9.128
  0
LINE
  8
0
 10
74.025
 11
74.025
 20
-9.128
 21
0
  0
LINE
  8
0
 10
74.025
 11
77.025
 20
0
 21
0
  0
LINE
  8
0
 10
77.025
 11
77.025
 20
0
 21
9.128
  0
LINE
  8
0
 10
77.025
 11
74.025
 20
9.128
 21
9.128
  0
LINE
  8
0
 10
74.025
 11
74.025
 20
9.128
 21
18.256
  0
LINE
  8
0
 10
74.025
 11
77.025
 20
18.256
 21
18.256
  0
LINE
  8
0
 10
77.025
 11
77.025
 20
18.256
 21
27.384
  0
LINE
  8
0
 10
77.025
 11
74.025
 20
27.384
 21
27.384
  0
LINE
  8
0
 10
74.025
 11
74.025
 20
27.384
 21
36.512
  0
LINE
  8
0
 10
74.025
 11
77.025
 20
36.512
 21
36.512
  0
LINE
  8
0
 10
77.025
 11
77.025
 20
36.512
 21
45.641
  0
LINE
  8
0
 10
77.025
 11
74.025
 20
45.641
 21
45.641
  0
LINE
  8
0
 10
74.025
 11
74.025
 20
45.641
 21
54.769
  0
LINE
  8
0
 10
74.025
 11
77.025
 20
54.769
 21
54.769
  0
LINE
  8
0
 10
77.025
 11
77.025
 20
54.769
 21
63.897
  0
LINE
  8
0
 10
77.025
 11
74.025
 20
63.897
 21
63.897
  0
LINE
  8
0
 10
74.025
 11
74.025
 20
63.897
 21
73.025
  0
LINE
  8
0
 10
74.025
 11
83.153
 20
73.025
 21
73.025
  0
LINE
  8
0
 10
83.153
 11
83.153
 20
73.025
 21
70.025
  0
LINE
  8
0
 10
83.153
 11
92.281
 20
70.025
 21
70.025
  0
LINE
  8
0
 10
92.281
 11
92.281
 20
70.025
 21
73.025
  0
LINE
  8
0
 10
92.281
 11
101.409
 20
73.025
 21
73.025
  0
LINE
  8
0
 10
101.409
 11
101.409
 20
73.025
 21
70.025
  0
LINE
  8
0
 10
101.409
 11
110.538
 20
70.025
 21
70.025
  0
LINE
  8
0
 10
110.538
 11
110.538
 20
70.025
 21
73.025
  0
LINE
  8
0
 10
110.538
 11
119.666
 20
73.025
 21
73.025
  0
LINE
  8
0
 10
119.666
 11
119.666
 20
73.025
 21
70.025
  0
LINE
  8
0
 10
119.666
 11
128.794
 20
70.025
 21
70.025
  0
LINE
  8
0
 10
128.794
 11
128.794
 20
70.025
 21
73.025
  0
LINE
  8
0
 10
128.794
 11
137.922
 20
73.025
 21
73.025
  0
LINE
  8
0
 10
137.922
 11
137.922
 20
73.025
 21
70.025
  0
LINE
  8
0
 10
137.922
 11
147.05
 20
70.025
 21
70.025
  0
LINE
  8
0
 10
147.05
 11
147.05
 20
70.025
 21
73.025
  0
LINE
  8
0
 10
147.05
 11
156.178
 20
73.025
 21
73.025
  0
LINE
  8
0
 10
156.178
 11
156.178
 20
73.025
 21
70.025
  0
LINE
  8
0
 10
156.178
 11
165.306
 20
70.025
 21
70.025
  0
LINE
  8
0
 10
165.306
 11
165.306
 20
70.025
 21
73.025
  0
LINE
  8
0
 10
165.306
 11
174.434
 20
73.025
 21
73.025
  0
LINE
  8
0
 10
174.434
 11
174.434
 20
73.025
 21
70.025
  0
LINE
  8
0
 10
174.434
 11
183.563
 20
70.025
 21
70.025
  0
LINE
  8
0
 10
183.563
 11
183.563
 20
70.025
 21
73.025
  0
LINE
  8
0
 10
183.563
 11
192.691
 20
73.025
 21
73.025
  0
LINE
  8
0
 10
192.691
 11
192.691
 20
73.025
 21
70.025
  0
LINE
  8
0
 10
192.691
 11
201.819
 20
70.025
 21
70.025
  0
LINE
  8
0
 10
201.819
 11
201.819
 20
70.025
 21
73.025
  0
LINE
  8
0
 10
201.819
 11
210.947
 20
73.025
 21
73.025
  0
LINE
  8
0
 10
210.947
 11
210.947
 20
73.025
 21
70.025
  0
LINE
  8
0
 10
210.947
 11
217.075
 20
70.025
 21
70.025
  0
LINE
  8
0
 10
217.075
 11
217.075
 20
70.025
 21
63.897
  0
LINE
  8
0
 10
217.075
 11
220.075
 20
63.897
 21
63.897
  0
LINE
  8
0
 10
220.075
 11
220.075
 20
63.897
 21
54.769
  0
LINE
  8
0
 10
220.075
 11
217.075
 20
54.769
 21
54.769
  0
LINE
  8
0
 10
217.075
 11
217.075
 20
54.769
 21
45.641
  0
LINE
  8
0
 10
217.075
 11
220.075
 20
45.641
 21
45.641
  0
LINE
  8
0
 10
220.075
 11
220.075
 20
45.641
 21
36.513
  0
LINE
  8
0
 10
220.075
 11
217.075
 20
36.513
 21
36.513
  0
LINE
  8
0
 10
217.075
 11
217.075
 20
36.513
 21
27.384
  0
LINE
  8
0
 10
217.075
 11
220.075
 20
27.384
 21
27.384
  0
LINE
  8
0
 10
220.075
 11
220.075
 20
27.384
 21
18.256
  0
LINE
  8
0
 10
220.075
 11
217.075
 20
18.256
 21
18.256
  0
LINE
  8
0
 10
217.075
 11
217.075
 20
18.256
 21
9.128
  0
LINE
  8
0
 10
217.075
 11
220.075
 20
9.128
 21
9.128
  0
LINE
  8
0
 10
220.075
 11
220.075
 20
9.128
 21
0
  0
LINE
  8
0
 10
220.075
 11
217.075
 20
0
 21
0
  0
LINE
  8
0
 10
217.075
 11
217.075
 20
0
 21
-9.128
  0
LINE
  8
0
 10
217.075
 11
220.075
 20
-9.128
 21
-9.128
  0
LINE
  8
0
 10
220.075
 11
220.075
 20
-9.128
 21
-18.256
  0
LINE
  8
0
 10
220.075
 11
217.075
 20
-18.256
 21
-18.256
  0
LINE
  8
0
 10
217.075
 11
217.075
 20
-18.256
 21
-27.384
  0
LINE
  8
0
 10
217.075
 11
220.075
 20
-27.384
 21
-27.384
  0
LINE
  8
0
 10
220.075
 11
220.075
 20
-27.384
 21
-36.512
  0
LINE
  8
0
 10
220.075
 11
217.075
 20
-36.512
 21
-36.512
  0
LINE
  8
0
 10
217.075
 11
217.075
 20
-36.512
 21
-45.641
  0
LINE
  8
0
 10
217.075
 11
220.075
 20
-45.641
 21
-45.641
  0
LINE
  8
0
 10
220.075
 11
220.075
 20
-45.641
 21
-54.769
  0
LINE
  8
0
 10
220.075
 11
217.075
 20
-54.769
 21
-54.769
  0
LINE
  8
0
 10
217.075
 11
217.075
 20
-54.769
 21
-63.897
  0
LINE
  8
0
 10
217.075
 11
220.075
 20
-63.897
 21
-63.897
  0
LINE
  8
0
 10
220.075
 11
220.075
 20
-63.897
 21
-73.025
  0
LINE
  8
0
 10
220.075
 11
210.947
 20
-73.025
 21
-73.025
  0
LINE
  8
0
 10
210.947
 11
210.947
 20
-73.025
 21
-70.025
  0
LINE
  8
0
 10
210.947
 11
201.819
 20
-70.025
 21
-70.025
  0
LINE
  8
0
 10
201.819
 11
201.819
 20
-70.025
 21
-73.025
  0
LINE
  8
0
 10
201.819
 11
192.691
 20
-73.025
 21
-73.025
  0
LINE
  8
0
 10
192.691
 11
192.691
 20
-73.025
 21
-70.025
  0
LINE
  8
0
 10
192.691
 11
183.562
 20
-70.025
 21
-70.025
  0
LINE
  8
0
 10
183.562
 11
183.562
 20
-70.025
 21
-73.025
  0
LINE
  8
0
 10
183.562
 11
174.434
 20
-73.025
 21
-73.025
  0
LINE
  8
0
 10
174.434
 11
174.434
 20
-73.025
 21
-70.025
  0
LINE
  8
0
 10
174.434
 11
165.306
 20
-70.025
 21
-70.025
  0
LINE
  8
0
 10
165.306
 11
165.306
 20
-70.025
 21
-73.025
  0
LINE
  8
0
 10
165.306
 11
156.178
 20
-73.025
 21
-73.025
  0
LINE
  8
0
 10
156.178
 11
156.178
 20
-73.025
 21
-70.025
  0
LINE
  8
0
 10
156.178
 11
147.05
 20
-70.025
 21
-70.025
  0
LINE
  8
0
 10
147.05
 11
147.05
 20
-70.025
 21
-73.025
  0
LINE
  8
0
 10
147.05
 11
137.922
 20
-73.025
 21
-73.025
  0
LINE
  8
0
 10
137.922
 11
137.922
 20
-73.025
 21
-70.025
  0
LINE
  8
0
 10
137.922
 11
128.794
 20
-70.025
 21
-70.025
  0
LINE
  8
0
 10
128.794
 11
128.794
 20
-70.025
 21
-73.025
  0
LINE
  8
0
 10
128.794
 11
119.666
 20
-73.025
 21
-73.025
  0
LINE
  8
0
 10
119.666
 11
119.666
 20
-73.025
 21
-70.025
  0
LINE
  8
0
 10
119.666
 11
110.537
 20
-70.025
 21
-70.025
  0
LINE
  8
0
 10
110.537
 11
110.537
 20
-70.025
 21
-73.025
  0
LINE
  8
0
 10
110.537
 11
101.409
 20
-73.025
 21
-73.025
  0
LINE
  8
0
 10
101.409
 11
101.409
 20
-73.025
 21
-70.025
  0
LINE
  8
0
 10
101.409
 11
92.281
 20
-70.025
 21
-70.025
  0
LINE
  8
0
 10
92.281
 11
92.281
 20
-70.025
 21
-73.025
  0
LINE
  8
0
 10
92.281
 11
83.153
 20
-73.025
 21
-73.025
  0
LINE
  8
0
 10
83.153
 11
83.153
 20
-73.025
 21
-70.025
  0
LINE
  8
0
 10
83.153
 11
77.025
 20
-70.025
 21
-70.025
  0
LINE
  8
0
 10
77.025
 11
77.025
 20
-70.025
 21
-63.897
  0
LINE
  8
0
 10
77.025
 11
74.025
 20
-63.897
 21
-63.897
  0
LINE
  8
0
 10
74.025
 11
74.025
 20
-217.075
 21
-210.947
  0
LINE
  8
0
 10
74.025
 11
77.025
 20
-210.947
 21
-210.947
  0
LINE
  8
0
 10
77.025
 11
77.025
 20
-210.947
 21
-201.819
  0
LINE
  8
0
 10
77.025
 11
74.025
 20
-201.819
 21
-201.819
  0
LINE
  8
0
 10
74.025
 11
74.025
 20
-201.819
 21
-192.691
  0
LINE
  8
0
 10
74.025
 11
77.025
 20
-192.691
 21
-192.691
  0
LINE
  8
0
 10
77.025
 11
77.025
 20
-192.691
 21
-183.562
  0
LINE
  8
0
 10
77.025
 11
74.025
 20
-183.562
 21
-183.562
  0
LINE
  8
0
 10
74.025
 11
74.025
 20
-183.562
 21
-174.434
  0
LINE
  8
0
 10
74.025
 11
77.025
 20
-174.434
 21
-174.434
  0
LINE
  8
0
 10
77.025
 11
77.025
 20
-174.434
 21
-165.306
  0
LINE
  8
0
 10
77.025
 11
74.025
 20
-165.306
 21
-165.306
  0
LINE
  8
0
 10
74.025
 11
74.025
 20
-165.306
 21
-156.178
  0
LINE
  8
0
 10
74.025
 11
77.025
 20
-156.178
 21
-156.178
  0
LINE
  8
0
 10
77.025
 11
77.025
 20
-156.178
 21
-147.05
  0
LINE
  8
0
 10
77.025
 11
74.025
 20
-147.05
 21
-147.05
  0
LINE
  8
0
 10
74.025
 11
74.025
 20
-147.05
 21
-137.922
  0
LINE
  8
0
 10
74.025
 11
77.025
 20
-137.922
 21
-137.922
  0
LINE
  8
0
 10
77.025
 11
77.025
 20
-137.922
 21
-128.794
  0
LINE
  8
0
 10
77.025
 11
74.025
 20
-128.794
 21
-128.794
  0
LINE
  8
0
 10
74.025
 11
74.025
 20
-128.794
 21
-119.666
  0
LINE
  8
0
 10
74.025
 11
77.025
 20
-119.666
 21
-119.666
  0
LINE
  8
0
 10
77.025
 11
77.025
 20
-119.666
 21
-110.537
  0
LINE
  8
0
 10
77.025
 11
74.025
 20
-110.537
 21
-110.537
  0
LINE
  8
0
 10
74.025
 11
74.025
 20
-110.537
 21
-101.409
  0
LINE
  8
0
 10
74.025
 11
77.025
 20
-101.409
 21
-101.409
  0
LINE
  8
0
 10
77.025
 11
77.025
 20
-101.409
 21
-92.281
  0
LINE
  8
0
 10
77.025
 11
74.025
 20
-92.281
 21
-92.281
  0
LINE
  8
0
 10
74.025
 11
74.025
 20
-92.281
 21
-83.153
  0
LINE
  8
0
 10
74.025
 11
77.025
 20
-83.153
 21
-83.153
  0
LINE
  8
0
 10
77.025
 11
77.025
 20
-83.153
 21
-74.025
  0
LINE
  8
0
 10
77.025
 11
83.153
 20
-74.025
 21
-74.025
  0
LINE
  8
0
 10
83.153
 11
83.153
 20
-74.025
 21
-77.025
  0
LINE
  8
0
 10
83.153
 11
92.281
 20
-77.025
 21
-77.025
  0
LINE
  8
0
 10
92.281
 11
92.281
 20
-77.025
 21
-74.025
  0
LINE
  8
0
 10
92.281
 11
101.409
 20
-74.025
 21
-74.025
  0
LINE
  8
0
 10
101.409
 11
101.409
 20
-74.025
 21
-77.025
  0
LINE
  8
0
 10
101.409
 11
110.538
 20
-77.025
 21
-77.025
  0
LINE
  8
0
 10
110.538
 11
110.538
 20
-77.025
 21
-74.025
  0
LINE
  8
0
 10
110.538
 11
119.666
 20
-74.025
 21
-74.025
  0
LINE
  8
0
 10
119.666
 11
119.666
 20
-74.025
 21
-77.025
  0
LINE
  8
0
 10
119.666
 11
128.794
 20
-77.025
 21
-77.025
  0
LINE
  8
0
 10
128.794
 11
128.794
 20
-77.025
 21
-74.025
  0
LINE
  8
0
 10
128.794
 11
137.922
 20
-74.025
 21
-74.025
  0
LINE
  8
0
 10
137.922
 11
137.922
 20
-74.025
 21
-77.025
  0
LINE
  8
0
 10
137.922
 11
147.05
 20
-77.025
 21
-77.025
  0
LINE
  8
0
 10
147.05
 11
147.05
 20
-77.025
 21
-74.025
  0
LINE
  8
0
 10
147.05
 11
156.178
 20
-74.025
 21
-74.025
  0
LINE
  8
0
 10
156.178
 11
156.178
 20
-74.025
 21
-77.025
  0
LINE
  8
0
 10
156.178
 11
165.306
 20
-77.025
 21
-77.025
  0
LINE
  8
0
 10
165.306
 11
165.306
 20
-77.025
 21
-74.025
  0
LINE
  8
0
 10
165.306
 11
174.434
 20
-74.025
 21
-74.025
  0
LINE
  8
0
 10
174.434
 11
174.434
 20
-74.025
 21
-77.025
  0
LINE
  8
0
 10
174.434
 11
183.563
 20
-77.025
 21
-77.025
  0
LINE
  8
0
 10
183.563
 11
183.563
 20
-77.025
 21
-74.025
  0
LINE
  8
0
 10
183.563
 11
192.691
 20
-74.025
 21
-74.025
  0
LINE
  8
0
 10
192.691
 11
192.691
 20
-74.025
 21
-77.025
  0
LINE
  8
0
 10
192.691
 11
201.819
 20
-77.025
 21
-77.025
  0
LINE
  8
0
 10
201.819
 11
201.819
 20
-77.025
 21
-74.025
  0
LINE
  8
0
 10
201.819
 11
210.947
 20
-74.025
 21
-74.025
  0
LINE
  8
0
 10
210.947
 11
210.947
 20
-74.025
 21
-77.025
  0
LINE
  8
0
 10
210.947
 11
220.075
 20
-77.025
 21
-77.025
  0
LINE
  8
0
 10
220.075
 11
220.075
 20
-77.025
 21
-83.153
  0
LINE
  8
0
 10
220.075
 11
217.075
 20
-83.153
 21
-83.153
  0
LINE
  8
0
 10
217.075
 11
217.075
 20
-83.153
 21
-92.281
  0
LINE
  8
0
 10
217.075
 11
220.075
 20
-92.281
 21
-92.281
  0
LINE
  8
0
 10
220.075
 11
220.075
 20
-92.281
 21
-101.409
  0
LINE
  8
0
 10
220.075
 11
217.075
 20
-101.409
 21
-101.409
  0
LINE
  8
0
 10
217.075
 11
217.075
 20
-101.409
 21
-110.538
  0
LINE
  8
0
 10
217.075
 11
220.075
 20
-110.538
 21
-110.538
  0
LINE
  8
0
 10
220.075
 11
220.075
 20
-110.538
 21
-119.666
  0
LINE
  8
0
 10
220.075
 11
217.075
 20
-119.666
 21
-119.666
  0
LINE
  8
0
 10
217.075
 11
217.075
 20
-119.666
 21
-128.794
  0
LINE
  8
0
 10
217.075
 11
220.075
 20
-128.794
 21
-128.794
  0
LINE
  8
0
 10
220.075
 11
220.075
 20
-128.794
 21
-137.922
  0
LINE
  8
0
 10
220.075
 11
217.075
 20
-137.922
 21
-137.922
  0
LINE
  8
0
 10
217.075
 11
217.075
 20
-137.922
 21
-147.05
  0
LINE
  8
0
 10
217.075
 11
220.075
 20
-147.05
 21
-147.05
  0
LINE
  8
0
 10
220.075
 11
220.075
 20
-147.05
 21
-156.178
  0
LINE
  8
0
 10
220.075
 11
217.075
 20
-156.178
 21
-156.178
  0
LINE
  8
0
 10
217.075
 11
217.075
 20
-156.178
 21
-165.306
  0
LINE
  8
0
 10
217.075
 11
220.075
 20
-165.306
 21
-165.306
  0
LINE
  8
0
 10
220.075
 11
220.075
 20
-165.306
 21
-174.434
  0
LINE
  8
0
 10
220.075
 11
217.075
 20
-174.434
 21
-174.434
  0
LINE
  8
0
 10
217.075
 11
217.075
 20
-174.434
 21
-183.563
  0
LINE
  8
0
 10
217.075
 11
220.075
 20
-183.563
 21
-183.563
  0
LINE
  8
0
 10
220.075
 11
220.075
 20
-183.563
 21
-192.691
  0
LINE
  8
0
 10
220.075
 11
217.075
 20
-192.691
 21
-192.691
  0
LINE
  8
0
 10
217.075
 11
217.075
 20
-192.691
 21
-201.819
  0
LINE
  8
0
 10
217.075
 11
220.075
 20
-201.819
 21
-201.819
  0
LINE
  8
0
 10
220.075
 11
220.075
 20
-201.819
 21
-210.947
  0
LINE
  8
0
 10
220.075
 11
217.075
 20
-210.947
 21
-210.947
  0
LINE
  8
0
 10
217.075
 11
217.075
 20
-210.947
 21
-220.075
  0
LINE
  8
0
 10
217.075
 11
210.947
 20
-220.075
 21
-220.075
  0
LINE
  8
0
 10
210.947
 11
210.947
 20
-220.075
 21
-217.075
  0
LINE
  8
0
 10
210.947
 11
201.819
 20
-217.075
 21
-217.075
  0
LINE
  8
0
 10
201.819
 11
201.819
 20
-217.075
 21
-220.075
  0
LINE
  8
0
 10
201.819
 11
192.691
 20
-220.075
 21
-220.075
  0
LINE
  8
0
 10
192.691
 11
192.691
 20
-220.075
 21
-217.075
  0
LINE
  8
0
 10
192.691
 11
183.562
 20
-217.075
 21
-217.075
  0
LINE
  8
0
 10
183.562
 11
183.562
 20
-217.075
 21
-220.075
  0
LINE
  8
0
 10
183.562
 11
174.434
 20
-220.075
 21
-220.075
  0
LINE
  8
0
 10
174.434
 11
174.434
 20
-220.075
 21
-217.075
  0
LINE
  8
0
 10
174.434
 11
165.306
 20
-217.075
 21
-217.075
  0
LINE
  8
0
 10
165.306
 11
165.306
 20
-217.075
 21
-220.075
  0
LINE
  8
0
 10
165.306
 11
156.178
 20
-220.075
 21
-220.075
  0
LINE
  8
0
 10
156.178
 11
156.178
 20
-220.075
 21
-217.075
  0
LINE
  8
0
 10
156.178
 11
147.05
 20
-217.075
 21
-217.075
  0
LINE
  8
0
 10
147.05
 11
147.05
 20
-217.075
 21
-220.075
  0
LINE
  8
0
 10
147.05
 11
137.922
 20
-220.075
 21
-220.075
  0
LINE
  8
0
 10
137.922
 11
137.922
 20
-220.075
 21
-217.075
  0
LINE
  8
0
 10
137.922
 11
128.794
 20
-217.075
 21
-217.075
  0
LINE
  8
0
 10
128.794
 11
128.794
 20
-217.075
 21
-220.075
  0
LINE
  8
0
 10
128.794
 11
119.666
 20
-220.075
 21
-220.075
  0
LINE
  8
0
 10
119.666
 11
119.666
 20
-220.075
 21
-217.075
  0
LINE
  8
0
 10
119.666
 11
110.537
 20
-217.075
 21
-217.075
  0
LINE
  8
0
 10
110.537
 11
110.537
 20
-217.075
 21
-220.075
  0
LINE
  8
0
 10
110.537
 11
101.409
 20
-220.075
 21
-220.075
  0
LINE
  8
0
 10
101.409
 11
101.409
 20
-220.075
 21
-217.075
  0
LINE
  8
0
 10
101.409
 11
92.281
 20
-217.075
 21
-217.075
  0
LINE
  8
0
 10
92.281
 11
92.281
 20
-217.075
 21
-220.075
  0
LINE
  8
0
 10
92.281
 11
83.153
 20
-220.075
 21
-220.075
  0
LINE
  8
0
 10
83.153
 11
83.153
 20
-220.075
 21
-217.075
  0
LINE
  8
0
 10
83.153
 11
74.025
 20
-217.075
 21
-217.075
  0
LINE
  8
0
 10
143.166
 11
143.166
 20
-148.007
 21
-146.093
  0
LINE
  8
0
 10
143.166
 11
144.056
 20
-146.093
 21
-144.398
  0
LINE
  8
0
 10
144.056
 11
145.632
 20
-144.398
 21
-143.31
  0
LINE
  8
0
 10
145.632
 11
147.532
 20
-143.31
 21
-143.079
  0
LINE
  8
0
 10
147.532
 11
149.322
 20
-143.079
 21
-143.758
  0
LINE
  8
0
 10
149.322
 11
150.592
 20
-143.758
 21
-145.191
  0
LINE
  8
0
 10
150.592
 11
151.05
 20
-145.191
 21
-147.05
  0
LINE
  8
0
 10
151.05
 11
150.592
 20
-147.05
 21
-148.909
  0
LINE
  8
0
 10
150.592
 11
149.322
 20
-148.909
 21
-150.342
  0
LINE
  8
0
 10
149.322
 11
147.532
 20
-150.342
 21
-151.021
  0
LINE
  8
0
 10
147.532
 11
145.632
 20
-151.021
 21
-150.79
  0
LINE
  8
0
 10
145.632
 11
144.056
 20
-150.79
 21
-149.702
  0
LINE
  8
0
 10
144.056
 11
143.166
 20
-149.702
 21
-148.007
  0
LINE
  8
0
 10
221.075
 11
221.075
 20
-210.947
 21
-201.819
  0
LINE
  8
0
 10
221.075
 11
224.075
 20
-201.819
 21
-201.819
  0
LINE
  8
0
 10
224.075
 11
224.075
 20
-201.819
 21
-192.691
  0
LINE
  8
0
 10
224.075
 11
221.075
 20
-192.691
 21
-192.691
  0
LINE
  8
0
 10
221.075
 11
221.075
 20
-192.691
 21
-183.563
  0
LINE
  8
0
 10
221.075
 11
224.075
 20
-183.563
 21
-183.563
  0
LINE
  8
0
 10
224.075
 11
224.075
 20
-183.563
 21
-174.434
  0
LINE
  8
0
 10
224.075
 11
221.075
 20
-174.434
 21
-174.434
  0
LINE
  8
0
 10
221.075
 11
221.075
 20
-174.434
 21
-165.306
  0
LINE
  8
0
 10
221.075
 11
224.075
 20
-165.306
 21
-165.306
  0
LINE
  8
0
 10
224.075
 11
224.075
 20
-165.306
 21
-156.178
  0
LINE
  8
0
 10
224.075
 11
221.075
 20
-156.178
 21
-156.178
  0
LINE
  8
0
 10
221.075
 11
221.075
 20
-156.178
 21
-147.05
  0
LINE
  8
0
 10
221.075
 11
224.075
 20
-147.05
 21
-147.05
  0
LINE
  8
0
 10
224.075
 11
224.075
 20
-147.05
 21
-137.922
  0
LINE
  8
0
 10
224.075
 11
221.075
 20
-137.922
 21
-137.922
  0
LINE
  8
0
 10
221.075
 11
221.075
 20
-137.922
 21
-128.794
  0
LINE
  8
0
 10
221.075
 11
224.075
 20
-128.794
 21
-128.794
  0
LINE
  8
0
 10
224.075
 11
224.075
 20
-128.794
 21
-119.666
  0
LINE
  8
0
 10
224.075
 11
221.075
 20
-119.666
 21
-119.666
  0
LINE
  8
0
 10
221.075
 11
221.075
 20
-119.666
 21
-110.538
  0
LINE
  8
0
 10
221.075
 11
224.075
 20
-110.538
 21
-110.538
  0
LINE
  8
0
 10
224.075
 11
224.075
 20
-110.538
 21
-101.409
  0
LINE
  8
0
 10
224.075
 11
221.075
 20
-101.409
 21
-101.409
  0
LINE
  8
0
 10
221.075
 11
221.075
 20
-101.409
 21
-92.281
  0
LINE
  8
0
 10
221.075
 11
224.075
 20
-92.281
 21
-92.281
  0
LINE
  8
0
 10
224.075
 11
224.075
 20
-92.281
 21
-83.153
  0
LINE
  8
0
 10
224.075
 11
221.075
 20
-83.153
 21
-83.153
  0
LINE
  8
0
 10
221.075
 11
221.075
 20
-83.153
 21
-77.025
  0
LINE
  8
0
 10
221.075
 11
230.203
 20
-77.025
 21
-77.025
  0
LINE
  8
0
 10
230.203
 11
230.203
 20
-77.025
 21
-74.025
  0
LINE
  8
0
 10
230.203
 11
239.331
 20
-74.025
 21
-74.025
  0
LINE
  8
0
 10
239.331
 11
239.331
 20
-74.025
 21
-77.025
  0
LINE
  8
0
 10
239.331
 11
248.459
 20
-77.025
 21
-77.025
  0
LINE
  8
0
 10
248.459
 11
248.459
 20
-77.025
 21
-74.025
  0
LINE
  8
0
 10
248.459
 11
257.587
 20
-74.025
 21
-74.025
  0
LINE
  8
0
 10
257.587
 11
257.587
 20
-74.025
 21
-77.025
  0
LINE
  8
0
 10
257.587
 11
266.716
 20
-77.025
 21
-77.025
  0
LINE
  8
0
 10
266.716
 11
266.716
 20
-77.025
 21
-74.025
  0
LINE
  8
0
 10
266.716
 11
275.844
 20
-74.025
 21
-74.025
  0
LINE
  8
0
 10
275.844
 11
275.844
 20
-74.025
 21
-77.025
  0
LINE
  8
0
 10
275.844
 11
284.972
 20
-77.025
 21
-77.025
  0
LINE
  8
0
 10
284.972
 11
284.972
 20
-77.025
 21
-74.025
  0
LINE
  8
0
 10
284.972
 11
294.1
 20
-74.025
 21
-74.025
  0
LINE
  8
0
 10
294.1
 11
294.1
 20
-74.025
 21
-77.025
  0
LINE
  8
0
 10
294.1
 11
303.228
 20
-77.025
 21
-77.025
  0
LINE
  8
0
 10
303.228
 11
303.228
 20
-77.025
 21
-74.025
  0
LINE
  8
0
 10
303.228
 11
312.356
 20
-74.025
 21
-74.025
  0
LINE
  8
0
 10
312.356
 11
312.356
 20
-74.025
 21
-77.025
  0
LINE
  8
0
 10
312.356
 11
321.484
 20
-77.025
 21
-77.025
  0
LINE
  8
0
 10
321.484
 11
321.484
 20
-77.025
 21
-74.025
  0
LINE
  8
0
 10
321.484
 11
330.612
 20
-74.025
 21
-74.025
  0
LINE
  8
0
 10
330.612
 11
330.612
 20
-74.025
 21
-77.025
  0
LINE
  8
0
 10
330.612
 11
339.741
 20
-77.025
 21
-77.025
  0
LINE
  8
0
 10
339.741
 11
339.741
 20
-77.025
 21
-74.025
  0
LINE
  8
0
 10
339.741
 11
348.869
 20
-74.025
 21
-74.025
  0
LINE
  8
0
 10
348.869
 11
348.869
 20
-74.025
 21
-77.025
  0
LINE
  8
0
 10
348.869
 11
357.997
 20
-77.025
 21
-77.025
  0
LINE
  8
0
 10
357.997
 11
357.997
 20
-77.025
 21
-74.025
  0
LINE
  8
0
 10
357.997
 11
364.125
 20
-74.025
 21
-74.025
  0
LINE
  8
0
 10
364.125
 11
364.125
 20
-74.025
 21
-83.153
  0
LINE
  8
0
 10
364.125
 11
367.125
 20
-83.153
 21
-83.153
  0
LINE
  8
0
 10
367.125
 11
367.125
 20
-83.153
 21
-92.281
  0
LINE
  8
0
 10
367.125
 11
364.125
 20
-92.281
 21
-92.281
  0
LINE
  8
0
 10
364.125
 11
364.125
 20
-92.281
 21
-101.409
  0
LINE
  8
0
 10
364.125
 11
367.125
 20
-101.409
 21
-101.409
  0
LINE
  8
0
 10
367.125
 11
367.125
 20
-101.409
 21
-110.537
  0
LINE
  8
0
 10
367.125
 11
364.125
 20
-110.537
 21
-110.537
  0
LINE
  8
0
 10
364.125
 11
364.125
 20
-110.537
 21
-119.666
  0
LINE
  8
0
 10
364.125
 11
367.125
 20
-119.666
 21
-119.666
  0
LINE
  8
0
 10
367.125
 11
367.125
 20
-119.666
 21
-128.794
  0
LINE
  8
0
 10
367.125
 11
364.125
 20
-128.794
 21
-128.794
  0
LINE
  8
0
 10
364.125
 11
364.125
 20
-128.794
 21
-137.922
  0
LINE
  8
0
 10
364.125
 11
367.125
 20
-137.922
 21
-137.922
  0
LINE
  8
0
 10
367.125
 11
367.125
 20
-137.922
 21
-147.05
  0
LINE
  8
0
 10
367.125
 11
364.125
 20
-147.05
 21
-147.05
  0
LINE
  8
0
 10
364.125
 11
364.125
 20
-147.05
 21
-156.178
  0
LINE
  8
0
 10
364.125
 11
367.125
 20
-156.178
 21
-156.178
  0
LINE
  8
0
 10
367.125
 11
367.125
 20
-156.178
 21
-165.306
  0
LINE
  8
0
 10
367.125
 11
364.125
 20
-165.306
 21
-165.306
  0
LINE
  8
0
 10
364.125
 11
364.125
 20
-165.306
 21
-174.434
  0
LINE
  8
0
 10
364.125
 11
367.125
 20
-174.434
 21
-174.434
  0
LINE
  8
0
 10
367.125
 11
367.125
 20
-174.434
 21
-183.562
  0
LINE
  8
0
 10
367.125
 11
364.125
 20
-183.562
 21
-183.562
  0
LINE
  8
0
 10
364.125
 11
364.125
 20
-183.562
 21
-192.691
  0
LINE
  8
0
 10
364.125
 11
367.125
 20
-192.691
 21
-192.691
  0
LINE
  8
0
 10
367.125
 11
367.125
 20
-192.691
 21
-201.819
  0
LINE
  8
0
 10
367.125
 11
364.125
 20
-201.819
 21
-201.819
  0
LINE
  8
0
 10
364.125
 11
364.125
 20
-201.819
 21
-210.947
  0
LINE
  8
0
 10
364.125
 11
367.125
 20
-210.947
 21
-210.947
  0
LINE
  8
0
 10
367.125
 11
367.125
 20
-210.947
 21
-217.075
  0
LINE
  8
0
 10
367.125
 11
357.997
 20
-217.075
 21
-217.075
  0
LINE
  8
0
 10
357.997
 11
357.997
 20
-217.075
 21
-220.075
  0
LINE
  8
0
 10
357.997
 11
348.869
 20
-220.075
 21
-220.075
  0
LINE
  8
0
 10
348.869
 11
348.869
 20
-220.075
 21
-217.075
  0
LINE
  8
0
 10
348.869
 11
339.741
 20
-217.075
 21
-217.075
  0
LINE
  8
0
 10
339.741
 11
339.741
 20
-217.075
 21
-220.075
  0
LINE
  8
0
 10
339.741
 11
330.613
 20
-220.075
 21
-220.075
  0
LINE
  8
0
 10
330.613
 11
330.613
 20
-220.075
 21
-217.075
  0
LINE
  8
0
 10
330.613
 11
321.484
 20
-217.075
 21
-217.075
  0
LINE
  8
0
 10
321.484
 11
321.484
 20
-217.075
 21
-220.075
  0
LINE
  8
0
 10
321.484
 11
312.356
 20
-220.075
 21
-220.075
  0
LINE
  8
0
 10
312.356
 11
312.356
 20
-220.075
 21
-217.075
  0
LINE
  8
0
 10
312.356
 11
303.228
 20
-217.075
 21
-217.075
  0
LINE
  8
0
 10
303.228
 11
303.228
 20
-217.075
 21
-220.075
  0
LINE
  8
0
 10
303.228
 11
294.1
 20
-220.075
 21
-220.075
  0
LINE
  8
0
 10
294.1
 11
294.1
 20
-220.075
 21
-217.075
  0
LINE
  8
0
 10
294.1
 11
284.972
 20
-217.075
 21
-217.075
  0
LINE
  8
0
 10
284.972
 11
284.972
 20
-217.075
 21
-220.075
  0
LINE
  8
0
 10
284.972
 11
275.844
 20
-220.075
 21
-220.075
  0
LINE
  8
0
 10
275.844
 11
275.844
 20
-220.075
 21
-217.075
  0
LINE
  8
0
 10
275.844
 11
266.716
 20
-217.075
 21
-217.075
  0
LINE
  8
0
 10
266.716
 11
266.716
 20
-217.075
 21
-220.075
  0
LINE
  8
0
 10
266.716
 11
257.588
 20
-220.075
 21
-220.075
  0
LINE
  8
0
 10
257.588
 11
257.588
 20
-220.075
 21
-217.075
  0
LINE
  8
0
 10
257.588
 11
248.459
 20
-217.075
 21
-217.075
  0
LINE
  8
0
 10
248.459
 11
248.459
 20
-217.075
 21
-220.075
  0
LINE
  8
0
 10
248.459
 11
239.331
 20
-220.075
 21
-220.075
  0
LINE
  8
0
 10
239.331
 11
239.331
 20
-220.075
 21
-217.075
  0
LINE
  8
0
 10
239.331
 11
230.203
 20
-217.075
 21
-217.075
  0
LINE
  8
0
 10
230.203
 11
230.203
 20
-217.075
 21
-220.075
  0
LINE
  8
0
 10
230.203
 11
224.075
 20
-220.075
 21
-220.075
  0
LINE
  8
0
 10
224.075
 11
224.075
 20
-220.075
 21
-210.947
  0
LINE
  8
0
 10
224.075
 11
221.075
 20
-210.947
 21
-210.947
  0
LINE
  8
0
 10
221.075
 11
221.075
 20
-63.897
 21
-54.769
  0
LINE
  8
0
 10
221.075
 11
224.075
 20
-54.769
 21
-54.769
  0
LINE
  8
0
 10
224.075
 11
224.075
 20
-54.769
 21
-45.641
  0
LINE
  8
0
 10
224.075
 11
221.075
 20
-45.641
 21
-45.641
  0
LINE
  8
0
 10
221.075
 11
221.075
 20
-45.641
 21
-36.513
  0
LINE
  8
0
 10
221.075
 11
224.075
 20
-36.513
 21
-36.513
  0
LINE
  8
0
 10
224.075
 11
224.075
 20
-36.513
 21
-27.384
  0
LINE
  8
0
 10
224.075
 11
221.075
 20
-27.384
 21
-27.384
  0
LINE
  8
0
 10
221.075
 11
221.075
 20
-27.384
 21
-18.256
  0
LINE
  8
0
 10
221.075
 11
224.075
 20
-18.256
 21
-18.256
  0
LINE
  8
0
 10
224.075
 11
224.075
 20
-18.256
 21
-9.128
  0
LINE
  8
0
 10
224.075
 11
221.075
 20
-9.128
 21
-9.128
  0
LINE
  8
0
 10
221.075
 11
221.075
 20
-9.128
 21
0
  0
LINE
  8
0
 10
221.075
 11
224.075
 20
0
 21
0
  0
LINE
  8
0
 10
224.075
 11
224.075
 20
0
 21
9.128
  0
LINE
  8
0
 10
224.075
 11
221.075
 20
9.128
 21
9.128
  0
LINE
  8
0
 10
221.075
 11
221.075
 20
9.128
 21
18.256
  0
LINE
  8
0
 10
221.075
 11
224.075
 20
18.256
 21
18.256
  0
LINE
  8
0
 10
224.075
 11
224.075
 20
18.256
 21
27.384
  0
LINE
  8
0
 10
224.075
 11
221.075
 20
27.384
 21
27.384
  0
LINE
  8
0
 10
221.075
 11
221.075
 20
27.384
 21
36.512
  0
LINE
  8
0
 10
221.075
 11
224.075
 20
36.512
 21
36.512
  0
LINE
  8
0
 10
224.075
 11
224.075
 20
36.512
 21
45.641
  0
LINE
  8
0
 10
224.075
 11
221.075
 20
45.641
 21
45.641
  0
LINE
  8
0
 10
221.075
 11
221.075
 20
45.641
 21
54.769
  0
LINE
  8
0
 10
221.075
 11
224.075
 20
54.769
 21
54.769
  0
LINE
  8
0
 10
224.075
 11
224.075
 20
54.769
 21
63.897
  0
LINE
  8
0
 10
224.075
 11
221.075
 20
63.897
 21
63.897
  0
LINE
  8
0
 10
221.075
 11
221.075
 20
63.897
 21
73.025
  0
LINE
  8
0
 10
221.075
 11
230.203
 20
73.025
 21
73.025
  0
LINE
  8
0
 10
230.203
 11
230.203
 20
73.025
 21
70.025
  0
LINE
  8
0
 10
230.203
 11
239.331
 20
70.025
 21
70.025
  0
LINE
  8
0
 10
239.331
 11
239.331
 20
70.025
 21
73.025
  0
LINE
  8
0
 10
239.331
 11
248.459
 20
73.025
 21
73.025
  0
LINE
  8
0
 10
248.459
 11
248.459
 20
73.025
 21
70.025
  0
LINE
  8
0
 10
248.459
 11
257.588
 20
70.025
 21
70.025
  0
LINE
  8
0
 10
257.588
 11
257.588
 20
70.025
 21
73.025
  0
LINE
  8
0
 10
257.588
 11
266.716
 20
73.025
 21
73.025
  0
LINE
  8
0
 10
266.716
 11
266.716
 20
73.025
 21
70.025
  0
LINE
  8
0
 10
266.716
 11
275.844
 20
70.025
 21
70.025
  0
LINE
  8
0
 10
275.844
 11
275.844
 20
70.025
 21
73.025
  0
LINE
  8
0
 10
275.844
 11
284.972
 20
73.025
 21
73.025
  0
LINE
  8
0
 10
284.972
 11
284.972
 20
73.025
 21
70.025
  0
LINE
  8
0
 10
284.972
 11
294.1
 20
70.025
 21
70.025
  0
LINE
  8
0
 10
294.1
 11
294.1
 20
70.025
 21
73.025
  0
LINE
  8
0
 10
294.1
 11
303.228
 20
73.025
 21
73.025
  0
LINE
  8
0
 10
303.228
 11
303.228
 20
73.025
 21
70.025
  0
LINE
  8
0
 10
303.228
 11
312.356
 20
70.025
 21
70.025
  0
LINE
  8
0
 10
312.356
 11
312.356
 20
70.025
 21
73.025
  0
LINE
  8
0
 10
312.356
 11
321.484
 20
73.025
 21
73.025
  0
LINE
  8
0
 10
321.484
 11
321.484
 20
73.025
 21
70.025
  0
LINE
  8
0
 10
321.484
 11
330.613
 20
70.025
 21
70.025
  0
LINE
  8
0
 10
330.613
 11
330.613
 20
70.025
 21
73.025
  0
LINE
  8
0
 10
330.613
 11
339.741
 20
73.025
 21
73.025
  0
LINE
  8
0
 10
339.741
 11
339.741
 20
73.025
 21
70.025
  0
LINE
  8
0
 10
339.741
 11
348.869
 20
70.025
 21
70.025
  0
LINE
  8
0
 10
348.869
 11
348.869
 20
70.025
 21
73.025
  0
LINE
  8
0
 10
348.869
 11
357.997
 20
73.025
 21
73.025
  0
LINE
  8
0
 10
357.997
 11
357.997
 20
73.025
 21
70.025
  0
LINE
  8
0
 10
357.997
 11
364.125
 20
70.025
 21
70.025
  0
LINE
  8
0
 10
364.125
 11
364.125
 20
70.025
 21
63.897
  0
LINE
  8
0
 10
364.125
 11
367.125
 20
63.897
 21
63.897
  0
LINE
  8
0
 10
367.125
 11
367.125
 20
63.897
 21
54.769
  0
LINE
  8
0
 10
367.125
 11
364.125
 20
54.769
 21
54.769
  0
LINE
  8
0
 10
364.125
 11
364.125
 20
54.769
 21
45.641
  0
LINE
  8
0
 10
364.125
 11
367.125
 20
45.641
 21
45.641
  0
LINE
  8
0
 10
367.125
 11
367.125
 20
45.641
 21
36.513
  0
LINE
  8
0
 10
367.125
 11
364.125
 20
36.513
 21
36.513
  0
LINE
  8
0
 10
364.125
 11
364.125
 20
36.513
 21
27.384
  0
LINE
  8
0
 10
364.125
 11
367.125
 20
27.384
 21
27.384
  0
LINE
  8
0
 10
367.125
 11
367.125
 20
27.384
 21
18.256
  0
LINE
  8
0
 10
367.125
 11
364.125
 20
18.256
 21
18.256
  0
LINE
  8
0
 10
364.125
 11
364.125
 20
18.256
 21
9.128
  0
LINE
  8
0
 10
364.125
 11
367.125
 20
9.128
 21
9.128
  0
LINE
  8
0
 10
367.125
 11
367.125
 20
9.128
 21
0
  0
LINE
  8
0
 10
367.125
 11
364.125
 20
0
 21
0
  0
LINE
  8
0
 10
364.125
 11
364.125
 20
0
 21
-9.128
  0
LINE
  8
0
 10
364.125
 11
367.125
 20
-9.128
 21
-9.128
  0
LINE
  8
0
 10
367.125
 11
367.125
 20
-9.128
 21
-18.256
  0
LINE
  8
0
 10
367.125
 11
364.125
 20
-18.256
 21
-18.256
  0
LINE
  8
0
 10
364.125
 11
364.125
 20
-18.256
 21
-27.384
  0
LINE
  8
0
 10
364.125
 11
367.125
 20
-27.384
 21
-27.384
  0
LINE
  8
0
 10
367.125
 11
367.125
 20
-27.384
 21
-36.512
  0
LINE
  8
0
 10
367.125
 11
364.125
 20
-36.512
 21
-36.512
  0
LINE
  8
0
 10
364.125
 11
364.125
 20
-36.512
 21
-45.641
  0
LINE
  8
0
 10
364.125
 11
367.125
 20
-45.641
 21
-45.641
  0
LINE
  8
0
 10
367.125
 11
367.125
 20
-45.641
 21
-54.769
  0
LINE
  8
0
 10
367.125
 11
364.125
 20
-54.769
 21
-54.769
  0
LINE
  8
0
 10
364.125
 11
364.125
 20
-54.769
 21
-63.897
  0
LINE
  8
0
 10
364.125
 11
367.125
 20
-63.897
 21
-63.897
  0
LINE
  8
0
 10
367.125
 11
367.125
 20
-63.897
 21
-73.025
  0
LINE
  8
0
 10
367.125
 11
357.997
 20
-73.025
 21
-73.025
  0
LINE
  8
0
 10
357.997
 11
357.997
 20
-73.025
 21
-70.025
  0
LINE
  8
0
 10
357.997
 11
348.869
 20
-70.025
 21
-70.025
  0
LINE
  8
0
 10
348.869
 11
348.869
 20
-70.025
 21
-73.025
  0
LINE
  8
0
 10
348.869
 11
339.741
 20
-73.025
 21
-73.025
  0
LINE
  8
0
 10
339.741
 11
339.741
 20
-73.025
 21
-70.025
  0
LINE
  8
0
 10
339.741
 11
330.612
 20
-70.025
 21
-70.025
  0
LINE
  8
0
 10
330.612
 11
330.612
 20
-70.025
 21
-73.025
  0
LINE
  8
0
 10
330.612
 11
321.484
 20
-73.025
 21
-73.025
  0
LINE
  8
0
 10
321.484
 11
321.484
 20
-73.025
 21
-70.025
  0
LINE
  8
0
 10
321.484
 11
312.356
 20
-70.025
 21
-70.025
  0
LINE
  8
0
 10
312.356
 11
312.356
 20
-70.025
 21
-73.025
  0
LINE
  8
0
 10
312.356
 11
303.228
 20
-73.025
 21
-73.025
  0
LINE
  8
0
 10
303.228
 11
303.228
 20
-73.025
 21
-70.025
  0
LINE
  8
0
 10
303.228
 11
294.1
 20
-70.025
 21
-70.025
  0
LINE
  8
0
 10
294.1
 11
294.1
 20
-70.025
 21
-73.025
  0
LINE
  8
0
 10
294.1
 11
284.972
 20
-73.025
 21
-73.025
  0
LINE
  8
0
 10
284.972
 11
284.972
 20
-73.025
 21
-70.025
  0
LINE
  8
0
 10
284.972
 11
275.844
 20
-70.025
 21
-70.025
  0
LINE
  8
0
 10
275.844
 11
275.844
 20
-70.025
 21
-73.025
  0
LINE
  8
0
 10
275.844
 11
266.716
 20
-73.025
 21
-73.025
  0
LINE
  8
0
 10
266.716
 11
266.716
 20
-73.025
 21
-70.025
  0
LINE
  8
0
 10
266.716
 11
257.587
 20
-70.025
 21
-70.025
  0
LINE
  8
0
 10
257.587
 11
257.587
 20
-70.025
 21
-73.025
  0
LINE
  8
0
 10
257.587
 11
248.459
 20
-73.025
 21
-73.025
  0
LINE
  8
0
 10
248.459
 11
248.459
 20
-73.025
 21
-70.025
  0
LINE
  8
0
 10
248.459
 11
239.331
 20
-70.025
 21
-70.025
  0
LINE
  8
0
 10
239.331
 11
239.331
 20
-70.025
 21
-73.025
  0
LINE
  8
0
 10
239.331
 11
230.203
 20
-73.025
 21
-73.025
  0
LINE
  8
0
 10
230.203
 11
230.203
 20
-73.025
 21
-70.025
  0
LINE
  8
0
 10
230.203
 11
224.075
 20
-70.025
 21
-70.025
  0
LINE
  8
0
 10
224.075
 11
224.075
 20
-70.025
 21
-63.897
  0
LINE
  8
0
 10
224.075
 11
221.075
 20
-63.897
 21
-63.897
  0
ENDSEC
  0
SECTION
  2
OBJECTS
  0
DICTIONARY
  0
ENDSEC
  0
EOF
