  0
SECTION
  2
BLOCKS
  0
ENDSEC
  0
SECTION
  2
ENTITIES
  0
LINE
  8
0
 10
-73.025
 11
-73.025
 20
-220.075
 21
-219.999
  0
LINE
  8
0
 10
-73.025
 11
-72.949
 20
-219.999
 21
-219.999
  0
LINE
  8
0
 10
-72.949
 11
-72.949
 20
-219.999
 21
-220.075
  0
LINE
  8
0
 10
-72.949
 11
-73.025
 20
-220.075
 21
-220.075
  0
LINE
  8
0
 10
-73.025
 11
-73.025
 20
-211.023
 21
-201.743
  0
LINE
  8
0
 10
-73.025
 11
-70.101
 20
-201.743
 21
-201.743
  0
LINE
  8
0
 10
-70.101
 11
-70.101
 20
-201.743
 21
-192.767
  0
LINE
  8
0
 10
-70.101
 11
-73.025
 20
-192.767
 21
-192.767
  0
LINE
  8
0
 10
-73.025
 11
-73.025
 20
-192.767
 21
-183.486
  0
LINE
  8
0
 10
-73.025
 11
-70.101
 20
-183.486
 21
-183.486
  0
LINE
  8
0
 10
-70.101
 11
-70.101
 20
-183.486
 21
-174.511
  0
LINE
  8
0
 10
-70.101
 11
-73.025
 20
-174.511
 21
-174.511
  0
LINE
  8
0
 10
-73.025
 11
-73.025
 20
-174.511
 21
-165.23
  0
LINE
  8
0
 10
-73.025
 11
-70.101
 20
-165.23
 21
-165.23
  0
LINE
  8
0
 10
-70.101
 11
-70.101
 20
-165.23
 21
-156.254
  0
LINE
  8
0
 10
-70.101
 11
-73.025
 20
-156.254
 21
-156.254
  0
LINE
  8
0
 10
-73.025
 11
-73.025
 20
-156.254
 21
-146.974
  0
LINE
  8
0
 10
-73.025
 11
-70.101
 20
-146.974
 21
-146.974
  0
LINE
  8
0
 10
-70.101
 11
-70.101
 20
-146.974
 21
-137.998
  0
LINE
  8
0
 10
-70.101
 11
-73.025
 20
-137.998
 21
-137.998
  0
LINE
  8
0
 10
-73.025
 11
-73.025
 20
-137.998
 21
-128.718
  0
LINE
  8
0
 10
-73.025
 11
-70.101
 20
-128.718
 21
-128.718
  0
LINE
  8
0
 10
-70.101
 11
-70.101
 20
-128.718
 21
-119.742
  0
LINE
  8
0
 10
-70.101
 11
-73.025
 20
-119.742
 21
-119.742
  0
LINE
  8
0
 10
-73.025
 11
-73.025
 20
-119.742
 21
-110.461
  0
LINE
  8
0
 10
-73.025
 11
-70.101
 20
-110.461
 21
-110.461
  0
LINE
  8
0
 10
-70.101
 11
-70.101
 20
-110.461
 21
-101.486
  0
LINE
  8
0
 10
-70.101
 11
-73.025
 20
-101.486
 21
-101.486
  0
LINE
  8
0
 10
-73.025
 11
-73.025
 20
-101.486
 21
-92.205
  0
LINE
  8
0
 10
-73.025
 11
-70.101
 20
-92.205
 21
-92.205
  0
LINE
  8
0
 10
-70.101
 11
-70.101
 20
-92.205
 21
-83.229
  0
LINE
  8
0
 10
-70.101
 11
-73.025
 20
-83.229
 21
-83.229
  0
LINE
  8
0
 10
-73.025
 11
-73.025
 20
-83.229
 21
-74.025
  0
LINE
  8
0
 10
-73.025
 11
-63.821
 20
-74.025
 21
-74.025
  0
LINE
  8
0
 10
-63.821
 11
-63.821
 20
-74.025
 21
-76.949
  0
LINE
  8
0
 10
-63.821
 11
-54.845
 20
-76.949
 21
-76.949
  0
LINE
  8
0
 10
-54.845
 11
-54.845
 20
-76.949
 21
-74.025
  0
LINE
  8
0
 10
-54.845
 11
-45.564
 20
-74.025
 21
-74.025
  0
LINE
  8
0
 10
-45.564
 11
-45.564
 20
-74.025
 21
-76.949
  0
LINE
  8
0
 10
-45.564
 11
-36.589
 20
-76.949
 21
-76.949
  0
LINE
  8
0
 10
-36.589
 11
-36.589
 20
-76.949
 21
-74.025
  0
LINE
  8
0
 10
-36.589
 11
-27.308
 20
-74.025
 21
-74.025
  0
LINE
  8
0
 10
-27.308
 11
-27.308
 20
-74.025
 21
-76.949
  0
LINE
  8
0
 10
-27.308
 11
-18.332
 20
-76.949
 21
-76.949
  0
LINE
  8
0
 10
-18.332
 11
-18.332
 20
-76.949
 21
-74.025
  0
LINE
  8
0
 10
-18.332
 11
-9.052
 20
-74.025
 21
-74.025
  0
LINE
  8
0
 10
-9.052
 11
-9.052
 20
-74.025
 21
-76.949
  0
LINE
  8
0
 10
-9.052
 11
-0.076
 20
-76.949
 21
-76.949
  0
LINE
  8
0
 10
-0.076
 11
-0.076
 20
-76.949
 21
-74.025
  0
LINE
  8
0
 10
-0.076
 11
9.204
 20
-74.025
 21
-74.025
  0
LINE
  8
0
 10
9.204
 11
9.204
 20
-74.025
 21
-76.949
  0
LINE
  8
0
 10
9.204
 11
18.18
 20
-76.949
 21
-76.949
  0
LINE
  8
0
 10
18.18
 11
18.18
 20
-76.949
 21
-74.025
  0
LINE
  8
0
 10
18.18
 11
27.461
 20
-74.025
 21
-74.025
  0
LINE
  8
0
 10
27.461
 11
27.461
 20
-74.025
 21
-76.949
  0
LINE
  8
0
 10
27.461
 11
36.436
 20
-76.949
 21
-76.949
  0
LINE
  8
0
 10
36.436
 11
36.436
 20
-76.949
 21
-74.025
  0
LINE
  8
0
 10
36.436
 11
45.717
 20
-74.025
 21
-74.025
  0
LINE
  8
0
 10
45.717
 11
45.717
 20
-74.025
 21
-76.949
  0
LINE
  8
0
 10
45.717
 11
54.693
 20
-76.949
 21
-76.949
  0
LINE
  8
0
 10
54.693
 11
54.693
 20
-76.949
 21
-74.025
  0
LINE
  8
0
 10
54.693
 11
63.973
 20
-74.025
 21
-74.025
  0
LINE
  8
0
 10
63.973
 11
63.973
 20
-74.025
 21
-76.949
  0
LINE
  8
0
 10
63.973
 11
70.101
 20
-76.949
 21
-76.949
  0
LINE
  8
0
 10
70.101
 11
70.101
 20
-76.949
 21
-83.077
  0
LINE
  8
0
 10
70.101
 11
73.025
 20
-83.077
 21
-83.077
  0
LINE
  8
0
 10
73.025
 11
73.025
 20
-83.077
 21
-92.357
  0
LINE
  8
0
 10
73.025
 11
70.101
 20
-92.357
 21
-92.357
  0
LINE
  8
0
 10
70.101
 11
70.101
 20
-92.357
 21
-101.333
  0
LINE
  8
0
 10
70.101
 11
73.025
 20
-101.333
 21
-101.333
  0
LINE
  8
0
 10
73.025
 11
73.025
 20
-101.333
 21
-110.614
  0
LINE
  8
0
 10
73.025
 11
70.101
 20
-110.614
 21
-110.614
  0
LINE
  8
0
 10
70.101
 11
70.101
 20
-110.614
 21
-119.589
  0
LINE
  8
0
 10
70.101
 11
73.025
 20
-119.589
 21
-119.589
  0
LINE
  8
0
 10
73.025
 11
73.025
 20
-119.589
 21
-128.87
  0
LINE
  8
0
 10
73.025
 11
70.101
 20
-128.87
 21
-128.87
  0
LINE
  8
0
 10
70.101
 11
70.101
 20
-128.87
 21
-137.846
  0
LINE
  8
0
 10
70.101
 11
73.025
 20
-137.846
 21
-137.846
  0
LINE
  8
0
 10
73.025
 11
73.025
 20
-137.846
 21
-147.126
  0
LINE
  8
0
 10
73.025
 11
70.101
 20
-147.126
 21
-147.126
  0
LINE
  8
0
 10
70.101
 11
70.101
 20
-147.126
 21
-156.102
  0
LINE
  8
0
 10
70.101
 11
73.025
 20
-156.102
 21
-156.102
  0
LINE
  8
0
 10
73.025
 11
73.025
 20
-156.102
 21
-165.382
  0
LINE
  8
0
 10
73.025
 11
70.101
 20
-165.382
 21
-165.382
  0
LINE
  8
0
 10
70.101
 11
70.101
 20
-165.382
 21
-174.358
  0
LINE
  8
0
 10
70.101
 11
73.025
 20
-174.358
 21
-174.358
  0
LINE
  8
0
 10
73.025
 11
73.025
 20
-174.358
 21
-183.639
  0
LINE
  8
0
 10
73.025
 11
70.101
 20
-183.639
 21
-183.639
  0
LINE
  8
0
 10
70.101
 11
70.101
 20
-183.639
 21
-192.614
  0
LINE
  8
0
 10
70.101
 11
73.025
 20
-192.614
 21
-192.614
  0
LINE
  8
0
 10
73.025
 11
73.025
 20
-192.614
 21
-201.895
  0
LINE
  8
0
 10
73.025
 11
70.101
 20
-201.895
 21
-201.895
  0
LINE
  8
0
 10
70.101
 11
70.101
 20
-201.895
 21
-210.871
  0
LINE
  8
0
 10
70.101
 11
73.025
 20
-210.871
 21
-210.871
  0
LINE
  8
0
 10
73.025
 11
73.025
 20
-210.871
 21
-220.075
  0
LINE
  8
0
 10
73.025
 11
63.821
 20
-220.075
 21
-220.075
  0
LINE
  8
0
 10
63.821
 11
63.821
 20
-220.075
 21
-217.151
  0
LINE
  8
0
 10
63.821
 11
54.845
 20
-217.151
 21
-217.151
  0
LINE
  8
0
 10
54.845
 11
54.845
 20
-217.151
 21
-220.075
  0
LINE
  8
0
 10
54.845
 11
45.564
 20
-220.075
 21
-220.075
  0
LINE
  8
0
 10
45.564
 11
45.564
 20
-220.075
 21
-217.151
  0
LINE
  8
0
 10
45.564
 11
36.589
 20
-217.151
 21
-217.151
  0
LINE
  8
0
 10
36.589
 11
36.589
 20
-217.151
 21
-220.075
  0
LINE
  8
0
 10
36.589
 11
27.308
 20
-220.075
 21
-220.075
  0
LINE
  8
0
 10
27.308
 11
27.308
 20
-220.075
 21
-217.151
  0
LINE
  8
0
 10
27.308
 11
18.332
 20
-217.151
 21
-217.151
  0
LINE
  8
0
 10
18.332
 11
18.332
 20
-217.151
 21
-220.075
  0
LINE
  8
0
 10
18.332
 11
9.052
 20
-220.075
 21
-220.075
  0
LINE
  8
0
 10
9.052
 11
9.052
 20
-220.075
 21
-217.151
  0
LINE
  8
0
 10
9.052
 11
0.076
 20
-217.151
 21
-217.151
  0
LINE
  8
0
 10
0.076
 11
0.076
 20
-217.151
 21
-220.075
  0
LINE
  8
0
 10
0.076
 11
-9.204
 20
-220.075
 21
-220.075
  0
LINE
  8
0
 10
-9.204
 11
-9.204
 20
-220.075
 21
-217.151
  0
LINE
  8
0
 10
-9.204
 11
-18.18
 20
-217.151
 21
-217.151
  0
LINE
  8
0
 10
-18.18
 11
-18.18
 20
-217.151
 21
-220.075
  0
LINE
  8
0
 10
-18.18
 11
-27.461
 20
-220.075
 21
-220.075
  0
LINE
  8
0
 10
-27.461
 11
-27.461
 20
-220.075
 21
-217.151
  0
LINE
  8
0
 10
-27.461
 11
-36.436
 20
-217.151
 21
-217.151
  0
LINE
  8
0
 10
-36.436
 11
-36.436
 20
-217.151
 21
-220.075
  0
LINE
  8
0
 10
-36.436
 11
-45.717
 20
-220.075
 21
-220.075
  0
LINE
  8
0
 10
-45.717
 11
-45.717
 20
-220.075
 21
-217.151
  0
LINE
  8
0
 10
-45.717
 11
-54.693
 20
-217.151
 21
-217.151
  0
LINE
  8
0
 10
-54.693
 11
-54.693
 20
-217.151
 21
-220.075
  0
LINE
  8
0
 10
-54.693
 11
-63.973
 20
-220.075
 21
-220.075
  0
LINE
  8
0
 10
-63.973
 11
-63.973
 20
-220.075
 21
-217.151
  0
LINE
  8
0
 10
-63.973
 11
-70.101
 20
-217.151
 21
-217.151
  0
LINE
  8
0
 10
-70.101
 11
-70.101
 20
-217.151
 21
-211.023
  0
LINE
  8
0
 10
-70.101
 11
-73.025
 20
-211.023
 21
-211.023
  0
LINE
  8
0
 10
-73.025
 11
-73.025
 20
-73.025
 21
-72.949
  0
LINE
  8
0
 10
-73.025
 11
-72.949
 20
-72.949
 21
-72.949
  0
LINE
  8
0
 10
-72.949
 11
-72.949
 20
-72.949
 21
-73.025
  0
LINE
  8
0
 10
-72.949
 11
-73.025
 20
-73.025
 21
-73.025
  0
LINE
  8
0
 10
-73.025
 11
-73.025
 20
-63.973
 21
-54.693
  0
LINE
  8
0
 10
-73.025
 11
-70.101
 20
-54.693
 21
-54.693
  0
LINE
  8
0
 10
-70.101
 11
-70.101
 20
-54.693
 21
-45.717
  0
LINE
  8
0
 10
-70.101
 11
-73.025
 20
-45.717
 21
-45.717
  0
LINE
  8
0
 10
-73.025
 11
-73.025
 20
-45.717
 21
-36.436
  0
LINE
  8
0
 10
-73.025
 11
-70.101
 20
-36.436
 21
-36.436
  0
LINE
  8
0
 10
-70.101
 11
-70.101
 20
-36.436
 21
-27.461
  0
LINE
  8
0
 10
-70.101
 11
-73.025
 20
-27.461
 21
-27.461
  0
LINE
  8
0
 10
-73.025
 11
-73.025
 20
-27.461
 21
-18.18
  0
LINE
  8
0
 10
-73.025
 11
-70.101
 20
-18.18
 21
-18.18
  0
LINE
  8
0
 10
-70.101
 11
-70.101
 20
-18.18
 21
-9.204
  0
LINE
  8
0
 10
-70.101
 11
-73.025
 20
-9.204
 21
-9.204
  0
LINE
  8
0
 10
-73.025
 11
-73.025
 20
-9.204
 21
0.076
  0
LINE
  8
0
 10
-73.025
 11
-70.101
 20
0.076
 21
0.076
  0
LINE
  8
0
 10
-70.101
 11
-70.101
 20
0.076
 21
9.052
  0
LINE
  8
0
 10
-70.101
 11
-73.025
 20
9.052
 21
9.052
  0
LINE
  8
0
 10
-73.025
 11
-73.025
 20
9.052
 21
18.332
  0
LINE
  8
0
 10
-73.025
 11
-70.101
 20
18.332
 21
18.332
  0
LINE
  8
0
 10
-70.101
 11
-70.101
 20
18.332
 21
27.308
  0
LINE
  8
0
 10
-70.101
 11
-73.025
 20
27.308
 21
27.308
  0
LINE
  8
0
 10
-73.025
 11
-73.025
 20
27.308
 21
36.589
  0
LINE
  8
0
 10
-73.025
 11
-70.101
 20
36.589
 21
36.589
  0
LINE
  8
0
 10
-70.101
 11
-70.101
 20
36.589
 21
45.564
  0
LINE
  8
0
 10
-70.101
 11
-73.025
 20
45.564
 21
45.564
  0
LINE
  8
0
 10
-73.025
 11
-73.025
 20
45.564
 21
54.845
  0
LINE
  8
0
 10
-73.025
 11
-70.101
 20
54.845
 21
54.845
  0
LINE
  8
0
 10
-70.101
 11
-70.101
 20
54.845
 21
63.821
  0
LINE
  8
0
 10
-70.101
 11
-73.025
 20
63.821
 21
63.821
  0
LINE
  8
0
 10
-73.025
 11
-73.025
 20
63.821
 21
73.025
  0
LINE
  8
0
 10
-73.025
 11
-63.821
 20
73.025
 21
73.025
  0
LINE
  8
0
 10
-63.821
 11
-63.821
 20
73.025
 21
70.101
  0
LINE
  8
0
 10
-63.821
 11
-54.845
 20
70.101
 21
70.101
  0
LINE
  8
0
 10
-54.845
 11
-54.845
 20
70.101
 21
73.025
  0
LINE
  8
0
 10
-54.845
 11
-45.564
 20
73.025
 21
73.025
  0
LINE
  8
0
 10
-45.564
 11
-45.564
 20
73.025
 21
70.101
  0
LINE
  8
0
 10
-45.564
 11
-36.589
 20
70.101
 21
70.101
  0
LINE
  8
0
 10
-36.589
 11
-36.589
 20
70.101
 21
73.025
  0
LINE
  8
0
 10
-36.589
 11
-27.308
 20
73.025
 21
73.025
  0
LINE
  8
0
 10
-27.308
 11
-27.308
 20
73.025
 21
70.101
  0
LINE
  8
0
 10
-27.308
 11
-18.332
 20
70.101
 21
70.101
  0
LINE
  8
0
 10
-18.332
 11
-18.332
 20
70.101
 21
73.025
  0
LINE
  8
0
 10
-18.332
 11
-9.052
 20
73.025
 21
73.025
  0
LINE
  8
0
 10
-9.052
 11
-9.052
 20
73.025
 21
70.101
  0
LINE
  8
0
 10
-9.052
 11
-0.076
 20
70.101
 21
70.101
  0
LINE
  8
0
 10
-0.076
 11
-0.076
 20
70.101
 21
73.025
  0
LINE
  8
0
 10
-0.076
 11
9.204
 20
73.025
 21
73.025
  0
LINE
  8
0
 10
9.204
 11
9.204
 20
73.025
 21
70.101
  0
LINE
  8
0
 10
9.204
 11
18.18
 20
70.101
 21
70.101
  0
LINE
  8
0
 10
18.18
 11
18.18
 20
70.101
 21
73.025
  0
LINE
  8
0
 10
18.18
 11
27.461
 20
73.025
 21
73.025
  0
LINE
  8
0
 10
27.461
 11
27.461
 20
73.025
 21
70.101
  0
LINE
  8
0
 10
27.461
 11
36.436
 20
70.101
 21
70.101
  0
LINE
  8
0
 10
36.436
 11
36.436
 20
70.101
 21
73.025
  0
LINE
  8
0
 10
36.436
 11
45.717
 20
73.025
 21
73.025
  0
LINE
  8
0
 10
45.717
 11
45.717
 20
73.025
 21
70.101
  0
LINE
  8
0
 10
45.717
 11
54.693
 20
70.101
 21
70.101
  0
LINE
  8
0
 10
54.693
 11
54.693
 20
70.101
 21
73.025
  0
LINE
  8
0
 10
54.693
 11
63.973
 20
73.025
 21
73.025
  0
LINE
  8
0
 10
63.973
 11
63.973
 20
73.025
 21
70.101
  0
LINE
  8
0
 10
63.973
 11
70.101
 20
70.101
 21
70.101
  0
LINE
  8
0
 10
70.101
 11
70.101
 20
70.101
 21
63.973
  0
LINE
  8
0
 10
70.101
 11
73.025
 20
63.973
 21
63.973
  0
LINE
  8
0
 10
73.025
 11
73.025
 20
63.973
 21
54.693
  0
LINE
  8
0
 10
73.025
 11
70.101
 20
54.693
 21
54.693
  0
LINE
  8
0
 10
70.101
 11
70.101
 20
54.693
 21
45.717
  0
LINE
  8
0
 10
70.101
 11
73.025
 20
45.717
 21
45.717
  0
LINE
  8
0
 10
73.025
 11
73.025
 20
45.717
 21
36.436
  0
LINE
  8
0
 10
73.025
 11
70.101
 20
36.436
 21
36.436
  0
LINE
  8
0
 10
70.101
 11
70.101
 20
36.436
 21
27.461
  0
LINE
  8
0
 10
70.101
 11
73.025
 20
27.461
 21
27.461
  0
LINE
  8
0
 10
73.025
 11
73.025
 20
27.461
 21
18.18
  0
LINE
  8
0
 10
73.025
 11
70.101
 20
18.18
 21
18.18
  0
LINE
  8
0
 10
70.101
 11
70.101
 20
18.18
 21
9.204
  0
LINE
  8
0
 10
70.101
 11
73.025
 20
9.204
 21
9.204
  0
LINE
  8
0
 10
73.025
 11
73.025
 20
9.204
 21
-0.076
  0
LINE
  8
0
 10
73.025
 11
70.101
 20
-0.076
 21
-0.076
  0
LINE
  8
0
 10
70.101
 11
70.101
 20
-0.076
 21
-9.052
  0
LINE
  8
0
 10
70.101
 11
73.025
 20
-9.052
 21
-9.052
  0
LINE
  8
0
 10
73.025
 11
73.025
 20
-9.052
 21
-18.332
  0
LINE
  8
0
 10
73.025
 11
70.101
 20
-18.332
 21
-18.332
  0
LINE
  8
0
 10
70.101
 11
70.101
 20
-18.332
 21
-27.308
  0
LINE
  8
0
 10
70.101
 11
73.025
 20
-27.308
 21
-27.308
  0
LINE
  8
0
 10
73.025
 11
73.025
 20
-27.308
 21
-36.589
  0
LINE
  8
0
 10
73.025
 11
70.101
 20
-36.589
 21
-36.589
  0
LINE
  8
0
 10
70.101
 11
70.101
 20
-36.589
 21
-45.564
  0
LINE
  8
0
 10
70.101
 11
73.025
 20
-45.564
 21
-45.564
  0
LINE
  8
0
 10
73.025
 11
73.025
 20
-45.564
 21
-54.845
  0
LINE
  8
0
 10
73.025
 11
70.101
 20
-54.845
 21
-54.845
  0
LINE
  8
0
 10
70.101
 11
70.101
 20
-54.845
 21
-63.821
  0
LINE
  8
0
 10
70.101
 11
73.025
 20
-63.821
 21
-63.821
  0
LINE
  8
0
 10
73.025
 11
73.025
 20
-63.821
 21
-73.025
  0
LINE
  8
0
 10
73.025
 11
63.821
 20
-73.025
 21
-73.025
  0
LINE
  8
0
 10
63.821
 11
63.821
 20
-73.025
 21
-70.101
  0
LINE
  8
0
 10
63.821
 11
54.845
 20
-70.101
 21
-70.101
  0
LINE
  8
0
 10
54.845
 11
54.845
 20
-70.101
 21
-73.025
  0
LINE
  8
0
 10
54.845
 11
45.564
 20
-73.025
 21
-73.025
  0
LINE
  8
0
 10
45.564
 11
45.564
 20
-73.025
 21
-70.101
  0
LINE
  8
0
 10
45.564
 11
36.589
 20
-70.101
 21
-70.101
  0
LINE
  8
0
 10
36.589
 11
36.589
 20
-70.101
 21
-73.025
  0
LINE
  8
0
 10
36.589
 11
27.308
 20
-73.025
 21
-73.025
  0
LINE
  8
0
 10
27.308
 11
27.308
 20
-73.025
 21
-70.101
  0
LINE
  8
0
 10
27.308
 11
18.332
 20
-70.101
 21
-70.101
  0
LINE
  8
0
 10
18.332
 11
18.332
 20
-70.101
 21
-73.025
  0
LINE
  8
0
 10
18.332
 11
9.052
 20
-73.025
 21
-73.025
  0
LINE
  8
0
 10
9.052
 11
9.052
 20
-73.025
 21
-70.101
  0
LINE
  8
0
 10
9.052
 11
0.076
 20
-70.101
 21
-70.101
  0
LINE
  8
0
 10
0.076
 11
0.076
 20
-70.101
 21
-73.025
  0
LINE
  8
0
 10
0.076
 11
-9.204
 20
-73.025
 21
-73.025
  0
LINE
  8
0
 10
-9.204
 11
-9.204
 20
-73.025
 21
-70.101
  0
LINE
  8
0
 10
-9.204
 11
-18.18
 20
-70.101
 21
-70.101
  0
LINE
  8
0
 10
-18.18
 11
-18.18
 20
-70.101
 21
-73.025
  0
LINE
  8
0
 10
-18.18
 11
-27.461
 20
-73.025
 21
-73.025
  0
LINE
  8
0
 10
-27.461
 11
-27.461
 20
-73.025
 21
-70.101
  0
LINE
  8
0
 10
-27.461
 11
-36.436
 20
-70.101
 21
-70.101
  0
LINE
  8
0
 10
-36.436
 11
-36.436
 20
-70.101
 21
-73.025
  0
LINE
  8
0
 10
-36.436
 11
-45.717
 20
-73.025
 21
-73.025
  0
LINE
  8
0
 10
-45.717
 11
-45.717
 20
-73.025
 21
-70.101
  0
LINE
  8
0
 10
-45.717
 11
-54.693
 20
-70.101
 21
-70.101
  0
LINE
  8
0
 10
-54.693
 11
-54.693
 20
-70.101
 21
-73.025
  0
LINE
  8
0
 10
-54.693
 11
-63.973
 20
-73.025
 21
-73.025
  0
LINE
  8
0
 10
-63.973
 11
-63.973
 20
-73.025
 21
-70.101
  0
LINE
  8
0
 10
-63.973
 11
-70.101
 20
-70.101
 21
-70.101
  0
LINE
  8
0
 10
-70.101
 11
-70.101
 20
-70.101
 21
-63.973
  0
LINE
  8
0
 10
-70.101
 11
-73.025
 20
-63.973
 21
-63.973
  0
LINE
  8
0
 10
72.949
 11
72.949
 20
-74.101
 21
-74.025
  0
LINE
  8
0
 10
72.949
 11
73.025
 20
-74.025
 21
-74.025
  0
LINE
  8
0
 10
73.025
 11
73.025
 20
-74.025
 21
-74.101
  0
LINE
  8
0
 10
73.025
 11
72.949
 20
-74.101
 21
-74.101
  0
LINE
  8
0
 10
72.949
 11
72.949
 20
72.949
 21
73.025
  0
LINE
  8
0
 10
72.949
 11
73.025
 20
73.025
 21
73.025
  0
LINE
  8
0
 10
73.025
 11
73.025
 20
73.025
 21
72.949
  0
LINE
  8
0
 10
73.025
 11
72.949
 20
72.949
 21
72.949
  0
LINE
  8
0
 10
74.025
 11
74.025
 20
-73.025
 21
-72.949
  0
LINE
  8
0
 10
74.025
 11
74.101
 20
-72.949
 21
-72.949
  0
LINE
  8
0
 10
74.101
 11
74.101
 20
-72.949
 21
-73.025
  0
LINE
  8
0
 10
74.101
 11
74.025
 20
-73.025
 21
-73.025
  0
LINE
  8
0
 10
74.025
 11
74.025
 20
-63.973
 21
-54.693
  0
LINE
  8
0
 10
74.025
 11
76.949
 20
-54.693
 21
-54.693
  0
LINE
  8
0
 10
76.949
 11
76.949
 20
-54.693
 21
-45.717
  0
LINE
  8
0
 10
76.949
 11
74.025
 20
-45.717
 21
-45.717
  0
LINE
  8
0
 10
74.025
 11
74.025
 20
-45.717
 21
-36.436
  0
LINE
  8
0
 10
74.025
 11
76.949
 20
-36.436
 21
-36.436
  0
LINE
  8
0
 10
76.949
 11
76.949
 20
-36.436
 21
-27.461
  0
LINE
  8
0
 10
76.949
 11
74.025
 20
-27.461
 21
-27.461
  0
LINE
  8
0
 10
74.025
 11
74.025
 20
-27.461
 21
-18.18
  0
LINE
  8
0
 10
74.025
 11
76.949
 20
-18.18
 21
-18.18
  0
LINE
  8
0
 10
76.949
 11
76.949
 20
-18.18
 21
-9.204
  0
LINE
  8
0
 10
76.949
 11
74.025
 20
-9.204
 21
-9.204
  0
LINE
  8
0
 10
74.025
 11
74.025
 20
-9.204
 21
0.076
  0
LINE
  8
0
 10
74.025
 11
76.949
 20
0.076
 21
0.076
  0
LINE
  8
0
 10
76.949
 11
76.949
 20
0.076
 21
9.052
  0
LINE
  8
0
 10
76.949
 11
74.025
 20
9.052
 21
9.052
  0
LINE
  8
0
 10
74.025
 11
74.025
 20
9.052
 21
18.332
  0
LINE
  8
0
 10
74.025
 11
76.949
 20
18.332
 21
18.332
  0
LINE
  8
0
 10
76.949
 11
76.949
 20
18.332
 21
27.308
  0
LINE
  8
0
 10
76.949
 11
74.025
 20
27.308
 21
27.308
  0
LINE
  8
0
 10
74.025
 11
74.025
 20
27.308
 21
36.589
  0
LINE
  8
0
 10
74.025
 11
76.949
 20
36.589
 21
36.589
  0
LINE
  8
0
 10
76.949
 11
76.949
 20
36.589
 21
45.564
  0
LINE
  8
0
 10
76.949
 11
74.025
 20
45.564
 21
45.564
  0
LINE
  8
0
 10
74.025
 11
74.025
 20
45.564
 21
54.845
  0
LINE
  8
0
 10
74.025
 11
76.949
 20
54.845
 21
54.845
  0
LINE
  8
0
 10
76.949
 11
76.949
 20
54.845
 21
63.821
  0
LINE
  8
0
 10
76.949
 11
74.025
 20
63.821
 21
63.821
  0
LINE
  8
0
 10
74.025
 11
74.025
 20
63.821
 21
73.025
  0
LINE
  8
0
 10
74.025
 11
83.229
 20
73.025
 21
73.025
  0
LINE
  8
0
 10
83.229
 11
83.229
 20
73.025
 21
70.101
  0
LINE
  8
0
 10
83.229
 11
92.205
 20
70.101
 21
70.101
  0
LINE
  8
0
 10
92.205
 11
92.205
 20
70.101
 21
73.025
  0
LINE
  8
0
 10
92.205
 11
101.486
 20
73.025
 21
73.025
  0
LINE
  8
0
 10
101.486
 11
101.486
 20
73.025
 21
70.101
  0
LINE
  8
0
 10
101.486
 11
110.461
 20
70.101
 21
70.101
  0
LINE
  8
0
 10
110.461
 11
110.461
 20
70.101
 21
73.025
  0
LINE
  8
0
 10
110.461
 11
119.742
 20
73.025
 21
73.025
  0
LINE
  8
0
 10
119.742
 11
119.742
 20
73.025
 21
70.101
  0
LINE
  8
0
 10
119.742
 11
128.718
 20
70.101
 21
70.101
  0
LINE
  8
0
 10
128.718
 11
128.718
 20
70.101
 21
73.025
  0
LINE
  8
0
 10
128.718
 11
137.998
 20
73.025
 21
73.025
  0
LINE
  8
0
 10
137.998
 11
137.998
 20
73.025
 21
70.101
  0
LINE
  8
0
 10
137.998
 11
146.974
 20
70.101
 21
70.101
  0
LINE
  8
0
 10
146.974
 11
146.974
 20
70.101
 21
73.025
  0
LINE
  8
0
 10
146.974
 11
156.254
 20
73.025
 21
73.025
  0
LINE
  8
0
 10
156.254
 11
156.254
 20
73.025
 21
70.101
  0
LINE
  8
0
 10
156.254
 11
165.23
 20
70.101
 21
70.101
  0
LINE
  8
0
 10
165.23
 11
165.23
 20
70.101
 21
73.025
  0
LINE
  8
0
 10
165.23
 11
174.511
 20
73.025
 21
73.025
  0
LINE
  8
0
 10
174.511
 11
174.511
 20
73.025
 21
70.101
  0
LINE
  8
0
 10
174.511
 11
183.486
 20
70.101
 21
70.101
  0
LINE
  8
0
 10
183.486
 11
183.486
 20
70.101
 21
73.025
  0
LINE
  8
0
 10
183.486
 11
192.767
 20
73.025
 21
73.025
  0
LINE
  8
0
 10
192.767
 11
192.767
 20
73.025
 21
70.101
  0
LINE
  8
0
 10
192.767
 11
201.743
 20
70.101
 21
70.101
  0
LINE
  8
0
 10
201.743
 11
201.743
 20
70.101
 21
73.025
  0
LINE
  8
0
 10
201.743
 11
211.023
 20
73.025
 21
73.025
  0
LINE
  8
0
 10
211.023
 11
211.023
 20
73.025
 21
70.101
  0
LINE
  8
0
 10
211.023
 11
217.151
 20
70.101
 21
70.101
  0
LINE
  8
0
 10
217.151
 11
217.151
 20
70.101
 21
63.973
  0
LINE
  8
0
 10
217.151
 11
220.075
 20
63.973
 21
63.973
  0
LINE
  8
0
 10
220.075
 11
220.075
 20
63.973
 21
54.693
  0
LINE
  8
0
 10
220.075
 11
217.151
 20
54.693
 21
54.693
  0
LINE
  8
0
 10
217.151
 11
217.151
 20
54.693
 21
45.717
  0
LINE
  8
0
 10
217.151
 11
220.075
 20
45.717
 21
45.717
  0
LINE
  8
0
 10
220.075
 11
220.075
 20
45.717
 21
36.436
  0
LINE
  8
0
 10
220.075
 11
217.151
 20
36.436
 21
36.436
  0
LINE
  8
0
 10
217.151
 11
217.151
 20
36.436
 21
27.461
  0
LINE
  8
0
 10
217.151
 11
220.075
 20
27.461
 21
27.461
  0
LINE
  8
0
 10
220.075
 11
220.075
 20
27.461
 21
18.18
  0
LINE
  8
0
 10
220.075
 11
217.151
 20
18.18
 21
18.18
  0
LINE
  8
0
 10
217.151
 11
217.151
 20
18.18
 21
9.204
  0
LINE
  8
0
 10
217.151
 11
220.075
 20
9.204
 21
9.204
  0
LINE
  8
0
 10
220.075
 11
220.075
 20
9.204
 21
-0.076
  0
LINE
  8
0
 10
220.075
 11
217.151
 20
-0.076
 21
-0.076
  0
LINE
  8
0
 10
217.151
 11
217.151
 20
-0.076
 21
-9.052
  0
LINE
  8
0
 10
217.151
 11
220.075
 20
-9.052
 21
-9.052
  0
LINE
  8
0
 10
220.075
 11
220.075
 20
-9.052
 21
-18.332
  0
LINE
  8
0
 10
220.075
 11
217.151
 20
-18.332
 21
-18.332
  0
LINE
  8
0
 10
217.151
 11
217.151
 20
-18.332
 21
-27.308
  0
LINE
  8
0
 10
217.151
 11
220.075
 20
-27.308
 21
-27.308
  0
LINE
  8
0
 10
220.075
 11
220.075
 20
-27.308
 21
-36.589
  0
LINE
  8
0
 10
220.075
 11
217.151
 20
-36.589
 21
-36.589
  0
LINE
  8
0
 10
217.151
 11
217.151
 20
-36.589
 21
-45.564
  0
LINE
  8
0
 10
217.151
 11
220.075
 20
-45.564
 21
-45.564
  0
LINE
  8
0
 10
220.075
 11
220.075
 20
-45.564
 21
-54.845
  0
LINE
  8
0
 10
220.075
 11
217.151
 20
-54.845
 21
-54.845
  0
LINE
  8
0
 10
217.151
 11
217.151
 20
-54.845
 21
-63.821
  0
LINE
  8
0
 10
217.151
 11
220.075
 20
-63.821
 21
-63.821
  0
LINE
  8
0
 10
220.075
 11
220.075
 20
-63.821
 21
-73.025
  0
LINE
  8
0
 10
220.075
 11
210.871
 20
-73.025
 21
-73.025
  0
LINE
  8
0
 10
210.871
 11
210.871
 20
-73.025
 21
-70.101
  0
LINE
  8
0
 10
210.871
 11
201.895
 20
-70.101
 21
-70.101
  0
LINE
  8
0
 10
201.895
 11
201.895
 20
-70.101
 21
-73.025
  0
LINE
  8
0
 10
201.895
 11
192.614
 20
-73.025
 21
-73.025
  0
LINE
  8
0
 10
192.614
 11
192.614
 20
-73.025
 21
-70.101
  0
LINE
  8
0
 10
192.614
 11
183.639
 20
-70.101
 21
-70.101
  0
LINE
  8
0
 10
183.639
 11
183.639
 20
-70.101
 21
-73.025
  0
LINE
  8
0
 10
183.639
 11
174.358
 20
-73.025
 21
-73.025
  0
LINE
  8
0
 10
174.358
 11
174.358
 20
-73.025
 21
-70.101
  0
LINE
  8
0
 10
174.358
 11
165.382
 20
-70.101
 21
-70.101
  0
LINE
  8
0
 10
165.382
 11
165.382
 20
-70.101
 21
-73.025
  0
LINE
  8
0
 10
165.382
 11
156.102
 20
-73.025
 21
-73.025
  0
LINE
  8
0
 10
156.102
 11
156.102
 20
-73.025
 21
-70.101
  0
LINE
  8
0
 10
156.102
 11
147.126
 20
-70.101
 21
-70.101
  0
LINE
  8
0
 10
147.126
 11
147.126
 20
-70.101
 21
-73.025
  0
LINE
  8
0
 10
147.126
 11
137.846
 20
-73.025
 21
-73.025
  0
LINE
  8
0
 10
137.846
 11
137.846
 20
-73.025
 21
-70.101
  0
LINE
  8
0
 10
137.846
 11
128.87
 20
-70.101
 21
-70.101
  0
LINE
  8
0
 10
128.87
 11
128.87
 20
-70.101
 21
-73.025
  0
LINE
  8
0
 10
128.87
 11
119.589
 20
-73.025
 21
-73.025
  0
LINE
  8
0
 10
119.589
 11
119.589
 20
-73.025
 21
-70.101
  0
LINE
  8
0
 10
119.589
 11
110.614
 20
-70.101
 21
-70.101
  0
LINE
  8
0
 10
110.614
 11
110.614
 20
-70.101
 21
-73.025
  0
LINE
  8
0
 10
110.614
 11
101.333
 20
-73.025
 21
-73.025
  0
LINE
  8
0
 10
101.333
 11
101.333
 20
-73.025
 21
-70.101
  0
LINE
  8
0
 10
101.333
 11
92.357
 20
-70.101
 21
-70.101
  0
LINE
  8
0
 10
92.357
 11
92.357
 20
-70.101
 21
-73.025
  0
LINE
  8
0
 10
92.357
 11
83.077
 20
-73.025
 21
-73.025
  0
LINE
  8
0
 10
83.077
 11
83.077
 20
-73.025
 21
-70.101
  0
LINE
  8
0
 10
83.077
 11
76.949
 20
-70.101
 21
-70.101
  0
LINE
  8
0
 10
76.949
 11
76.949
 20
-70.101
 21
-63.973
  0
LINE
  8
0
 10
76.949
 11
74.025
 20
-63.973
 21
-63.973
  0
LINE
  8
0
 10
74.025
 11
74.025
 20
-217.151
 21
-210.871
  0
LINE
  8
0
 10
74.025
 11
77.025
 20
-210.871
 21
-210.871
  0
LINE
  8
0
 10
77.025
 11
77.025
 20
-210.871
 21
-201.895
  0
LINE
  8
0
 10
77.025
 11
74.025
 20
-201.895
 21
-201.895
  0
LINE
  8
0
 10
74.025
 11
74.025
 20
-201.895
 21
-192.614
  0
LINE
  8
0
 10
74.025
 11
77.025
 20
-192.614
 21
-192.614
  0
LINE
  8
0
 10
77.025
 11
77.025
 20
-192.614
 21
-183.639
  0
LINE
  8
0
 10
77.025
 11
74.025
 20
-183.639
 21
-183.639
  0
LINE
  8
0
 10
74.025
 11
74.025
 20
-183.639
 21
-174.358
  0
LINE
  8
0
 10
74.025
 11
77.025
 20
-174.358
 21
-174.358
  0
LINE
  8
0
 10
77.025
 11
77.025
 20
-174.358
 21
-165.382
  0
LINE
  8
0
 10
77.025
 11
74.025
 20
-165.382
 21
-165.382
  0
LINE
  8
0
 10
74.025
 11
74.025
 20
-165.382
 21
-156.102
  0
LINE
  8
0
 10
74.025
 11
77.025
 20
-156.102
 21
-156.102
  0
LINE
  8
0
 10
77.025
 11
77.025
 20
-156.102
 21
-147.126
  0
LINE
  8
0
 10
77.025
 11
74.025
 20
-147.126
 21
-147.126
  0
LINE
  8
0
 10
74.025
 11
74.025
 20
-147.126
 21
-137.846
  0
LINE
  8
0
 10
74.025
 11
77.025
 20
-137.846
 21
-137.846
  0
LINE
  8
0
 10
77.025
 11
77.025
 20
-137.846
 21
-128.87
  0
LINE
  8
0
 10
77.025
 11
74.025
 20
-128.87
 21
-128.87
  0
LINE
  8
0
 10
74.025
 11
74.025
 20
-128.87
 21
-119.589
  0
LINE
  8
0
 10
74.025
 11
77.025
 20
-119.589
 21
-119.589
  0
LINE
  8
0
 10
77.025
 11
77.025
 20
-119.589
 21
-110.614
  0
LINE
  8
0
 10
77.025
 11
74.025
 20
-110.614
 21
-110.614
  0
LINE
  8
0
 10
74.025
 11
74.025
 20
-110.614
 21
-101.333
  0
LINE
  8
0
 10
74.025
 11
77.025
 20
-101.333
 21
-101.333
  0
LINE
  8
0
 10
77.025
 11
77.025
 20
-101.333
 21
-92.357
  0
LINE
  8
0
 10
77.025
 11
74.025
 20
-92.357
 21
-92.357
  0
LINE
  8
0
 10
74.025
 11
74.025
 20
-92.357
 21
-83.077
  0
LINE
  8
0
 10
74.025
 11
77.025
 20
-83.077
 21
-83.077
  0
LINE
  8
0
 10
77.025
 11
77.025
 20
-83.077
 21
-74.101
  0
LINE
  8
0
 10
77.025
 11
76.949
 20
-74.101
 21
-74.101
  0
LINE
  8
0
 10
76.949
 11
76.949
 20
-74.101
 21
-74.025
  0
LINE
  8
0
 10
76.949
 11
83.229
 20
-74.025
 21
-74.025
  0
LINE
  8
0
 10
83.229
 11
83.229
 20
-74.025
 21
-77.025
  0
LINE
  8
0
 10
83.229
 11
92.205
 20
-77.025
 21
-77.025
  0
LINE
  8
0
 10
92.205
 11
92.205
 20
-77.025
 21
-74.025
  0
LINE
  8
0
 10
92.205
 11
101.486
 20
-74.025
 21
-74.025
  0
LINE
  8
0
 10
101.486
 11
101.486
 20
-74.025
 21
-77.025
  0
LINE
  8
0
 10
101.486
 11
110.461
 20
-77.025
 21
-77.025
  0
LINE
  8
0
 10
110.461
 11
110.461
 20
-77.025
 21
-74.025
  0
LINE
  8
0
 10
110.461
 11
119.742
 20
-74.025
 21
-74.025
  0
LINE
  8
0
 10
119.742
 11
119.742
 20
-74.025
 21
-77.025
  0
LINE
  8
0
 10
119.742
 11
128.718
 20
-77.025
 21
-77.025
  0
LINE
  8
0
 10
128.718
 11
128.718
 20
-77.025
 21
-74.025
  0
LINE
  8
0
 10
128.718
 11
137.998
 20
-74.025
 21
-74.025
  0
LINE
  8
0
 10
137.998
 11
137.998
 20
-74.025
 21
-77.025
  0
LINE
  8
0
 10
137.998
 11
146.974
 20
-77.025
 21
-77.025
  0
LINE
  8
0
 10
146.974
 11
146.974
 20
-77.025
 21
-74.025
  0
LINE
  8
0
 10
146.974
 11
156.254
 20
-74.025
 21
-74.025
  0
LINE
  8
0
 10
156.254
 11
156.254
 20
-74.025
 21
-77.025
  0
LINE
  8
0
 10
156.254
 11
165.23
 20
-77.025
 21
-77.025
  0
LINE
  8
0
 10
165.23
 11
165.23
 20
-77.025
 21
-74.025
  0
LINE
  8
0
 10
165.23
 11
174.511
 20
-74.025
 21
-74.025
  0
LINE
  8
0
 10
174.511
 11
174.511
 20
-74.025
 21
-77.025
  0
LINE
  8
0
 10
174.511
 11
183.486
 20
-77.025
 21
-77.025
  0
LINE
  8
0
 10
183.486
 11
183.486
 20
-77.025
 21
-74.025
  0
LINE
  8
0
 10
183.486
 11
192.767
 20
-74.025
 21
-74.025
  0
LINE
  8
0
 10
192.767
 11
192.767
 20
-74.025
 21
-77.025
  0
LINE
  8
0
 10
192.767
 11
201.743
 20
-77.025
 21
-77.025
  0
LINE
  8
0
 10
201.743
 11
201.743
 20
-77.025
 21
-74.025
  0
LINE
  8
0
 10
201.743
 11
211.023
 20
-74.025
 21
-74.025
  0
LINE
  8
0
 10
211.023
 11
211.023
 20
-74.025
 21
-77.025
  0
LINE
  8
0
 10
211.023
 11
219.999
 20
-77.025
 21
-77.025
  0
LINE
  8
0
 10
219.999
 11
219.999
 20
-77.025
 21
-76.949
  0
LINE
  8
0
 10
219.999
 11
220.075
 20
-76.949
 21
-76.949
  0
LINE
  8
0
 10
220.075
 11
220.075
 20
-76.949
 21
-83.229
  0
LINE
  8
0
 10
220.075
 11
217.075
 20
-83.229
 21
-83.229
  0
LINE
  8
0
 10
217.075
 11
217.075
 20
-83.229
 21
-92.205
  0
LINE
  8
0
 10
217.075
 11
220.075
 20
-92.205
 21
-92.205
  0
LINE
  8
0
 10
220.075
 11
220.075
 20
-92.205
 21
-101.486
  0
LINE
  8
0
 10
220.075
 11
217.075
 20
-101.486
 21
-101.486
  0
LINE
  8
0
 10
217.075
 11
217.075
 20
-101.486
 21
-110.461
  0
LINE
  8
0
 10
217.075
 11
220.075
 20
-110.461
 21
-110.461
  0
LINE
  8
0
 10
220.075
 11
220.075
 20
-110.461
 21
-119.742
  0
LINE
  8
0
 10
220.075
 11
217.075
 20
-119.742
 21
-119.742
  0
LINE
  8
0
 10
217.075
 11
217.075
 20
-119.742
 21
-128.718
  0
LINE
  8
0
 10
217.075
 11
220.075
 20
-128.718
 21
-128.718
  0
LINE
  8
0
 10
220.075
 11
220.075
 20
-128.718
 21
-137.998
  0
LINE
  8
0
 10
220.075
 11
217.075
 20
-137.998
 21
-137.998
  0
LINE
  8
0
 10
217.075
 11
217.075
 20
-137.998
 21
-146.974
  0
LINE
  8
0
 10
217.075
 11
220.075
 20
-146.974
 21
-146.974
  0
LINE
  8
0
 10
220.075
 11
220.075
 20
-146.974
 21
-156.254
  0
LINE
  8
0
 10
220.075
 11
217.075
 20
-156.254
 21
-156.254
  0
LINE
  8
0
 10
217.075
 11
217.075
 20
-156.254
 21
-165.23
  0
LINE
  8
0
 10
217.075
 11
220.075
 20
-165.23
 21
-165.23
  0
LINE
  8
0
 10
220.075
 11
220.075
 20
-165.23
 21
-174.511
  0
LINE
  8
0
 10
220.075
 11
217.075
 20
-174.511
 21
-174.511
  0
LINE
  8
0
 10
217.075
 11
217.075
 20
-174.511
 21
-183.486
  0
LINE
  8
0
 10
217.075
 11
220.075
 20
-183.486
 21
-183.486
  0
LINE
  8
0
 10
220.075
 11
220.075
 20
-183.486
 21
-192.767
  0
LINE
  8
0
 10
220.075
 11
217.075
 20
-192.767
 21
-192.767
  0
LINE
  8
0
 10
217.075
 11
217.075
 20
-192.767
 21
-201.743
  0
LINE
  8
0
 10
217.075
 11
220.075
 20
-201.743
 21
-201.743
  0
LINE
  8
0
 10
220.075
 11
220.075
 20
-201.743
 21
-211.023
  0
LINE
  8
0
 10
220.075
 11
217.075
 20
-211.023
 21
-211.023
  0
LINE
  8
0
 10
217.075
 11
217.075
 20
-211.023
 21
-219.999
  0
LINE
  8
0
 10
217.075
 11
217.151
 20
-219.999
 21
-219.999
  0
LINE
  8
0
 10
217.151
 11
217.151
 20
-219.999
 21
-220.075
  0
LINE
  8
0
 10
217.151
 11
210.871
 20
-220.075
 21
-220.075
  0
LINE
  8
0
 10
210.871
 11
210.871
 20
-220.075
 21
-217.075
  0
LINE
  8
0
 10
210.871
 11
201.895
 20
-217.075
 21
-217.075
  0
LINE
  8
0
 10
201.895
 11
201.895
 20
-217.075
 21
-220.075
  0
LINE
  8
0
 10
201.895
 11
192.614
 20
-220.075
 21
-220.075
  0
LINE
  8
0
 10
192.614
 11
192.614
 20
-220.075
 21
-217.075
  0
LINE
  8
0
 10
192.614
 11
183.639
 20
-217.075
 21
-217.075
  0
LINE
  8
0
 10
183.639
 11
183.639
 20
-217.075
 21
-220.075
  0
LINE
  8
0
 10
183.639
 11
174.358
 20
-220.075
 21
-220.075
  0
LINE
  8
0
 10
174.358
 11
174.358
 20
-220.075
 21
-217.075
  0
LINE
  8
0
 10
174.358
 11
165.382
 20
-217.075
 21
-217.075
  0
LINE
  8
0
 10
165.382
 11
165.382
 20
-217.075
 21
-220.075
  0
LINE
  8
0
 10
165.382
 11
156.102
 20
-220.075
 21
-220.075
  0
LINE
  8
0
 10
156.102
 11
156.102
 20
-220.075
 21
-217.075
  0
LINE
  8
0
 10
156.102
 11
147.126
 20
-217.075
 21
-217.075
  0
LINE
  8
0
 10
147.126
 11
147.126
 20
-217.075
 21
-220.075
  0
LINE
  8
0
 10
147.126
 11
137.846
 20
-220.075
 21
-220.075
  0
LINE
  8
0
 10
137.846
 11
137.846
 20
-220.075
 21
-217.075
  0
LINE
  8
0
 10
137.846
 11
128.87
 20
-217.075
 21
-217.075
  0
LINE
  8
0
 10
128.87
 11
128.87
 20
-217.075
 21
-220.075
  0
LINE
  8
0
 10
128.87
 11
119.589
 20
-220.075
 21
-220.075
  0
LINE
  8
0
 10
119.589
 11
119.589
 20
-220.075
 21
-217.075
  0
LINE
  8
0
 10
119.589
 11
110.614
 20
-217.075
 21
-217.075
  0
LINE
  8
0
 10
110.614
 11
110.614
 20
-217.075
 21
-220.075
  0
LINE
  8
0
 10
110.614
 11
101.333
 20
-220.075
 21
-220.075
  0
LINE
  8
0
 10
101.333
 11
101.333
 20
-220.075
 21
-217.075
  0
LINE
  8
0
 10
101.333
 11
92.357
 20
-217.075
 21
-217.075
  0
LINE
  8
0
 10
92.357
 11
92.357
 20
-217.075
 21
-220.075
  0
LINE
  8
0
 10
92.357
 11
83.077
 20
-220.075
 21
-220.075
  0
LINE
  8
0
 10
83.077
 11
83.077
 20
-220.075
 21
-217.075
  0
LINE
  8
0
 10
83.077
 11
74.101
 20
-217.075
 21
-217.075
  0
LINE
  8
0
 10
74.101
 11
74.101
 20
-217.075
 21
-217.151
  0
LINE
  8
0
 10
74.101
 11
74.025
 20
-217.151
 21
-217.151
  0
LINE
  8
0
 10
143.166
 11
143.166
 20
-148.007
 21
-146.093
  0
LINE
  8
0
 10
143.166
 11
144.056
 20
-146.093
 21
-144.398
  0
LINE
  8
0
 10
144.056
 11
145.632
 20
-144.398
 21
-143.31
  0
LINE
  8
0
 10
145.632
 11
147.532
 20
-143.31
 21
-143.079
  0
LINE
  8
0
 10
147.532
 11
149.322
 20
-143.079
 21
-143.758
  0
LINE
  8
0
 10
149.322
 11
150.592
 20
-143.758
 21
-145.191
  0
LINE
  8
0
 10
150.592
 11
151.05
 20
-145.191
 21
-147.05
  0
LINE
  8
0
 10
151.05
 11
150.592
 20
-147.05
 21
-148.909
  0
LINE
  8
0
 10
150.592
 11
149.322
 20
-148.909
 21
-150.342
  0
LINE
  8
0
 10
149.322
 11
147.532
 20
-150.342
 21
-151.021
  0
LINE
  8
0
 10
147.532
 11
145.632
 20
-151.021
 21
-150.79
  0
LINE
  8
0
 10
145.632
 11
144.056
 20
-150.79
 21
-149.702
  0
LINE
  8
0
 10
144.056
 11
143.166
 20
-149.702
 21
-148.007
  0
LINE
  8
0
 10
219.999
 11
219.999
 20
72.949
 21
73.025
  0
LINE
  8
0
 10
219.999
 11
220.075
 20
73.025
 21
73.025
  0
LINE
  8
0
 10
220.075
 11
220.075
 20
73.025
 21
72.949
  0
LINE
  8
0
 10
220.075
 11
219.999
 20
72.949
 21
72.949
  0
LINE
  8
0
 10
221.075
 11
221.075
 20
-211.023
 21
-201.743
  0
LINE
  8
0
 10
221.075
 11
224.075
 20
-201.743
 21
-201.743
  0
LINE
  8
0
 10
224.075
 11
224.075
 20
-201.743
 21
-192.767
  0
LINE
  8
0
 10
224.075
 11
221.075
 20
-192.767
 21
-192.767
  0
LINE
  8
0
 10
221.075
 11
221.075
 20
-192.767
 21
-183.486
  0
LINE
  8
0
 10
221.075
 11
224.075
 20
-183.486
 21
-183.486
  0
LINE
  8
0
 10
224.075
 11
224.075
 20
-183.486
 21
-174.511
  0
LINE
  8
0
 10
224.075
 11
221.075
 20
-174.511
 21
-174.511
  0
LINE
  8
0
 10
221.075
 11
221.075
 20
-174.511
 21
-165.23
  0
LINE
  8
0
 10
221.075
 11
224.075
 20
-165.23
 21
-165.23
  0
LINE
  8
0
 10
224.075
 11
224.075
 20
-165.23
 21
-156.254
  0
LINE
  8
0
 10
224.075
 11
221.075
 20
-156.254
 21
-156.254
  0
LINE
  8
0
 10
221.075
 11
221.075
 20
-156.254
 21
-146.974
  0
LINE
  8
0
 10
221.075
 11
224.075
 20
-146.974
 21
-146.974
  0
LINE
  8
0
 10
224.075
 11
224.075
 20
-146.974
 21
-137.998
  0
LINE
  8
0
 10
224.075
 11
221.075
 20
-137.998
 21
-137.998
  0
LINE
  8
0
 10
221.075
 11
221.075
 20
-137.998
 21
-128.718
  0
LINE
  8
0
 10
221.075
 11
224.075
 20
-128.718
 21
-128.718
  0
LINE
  8
0
 10
224.075
 11
224.075
 20
-128.718
 21
-119.742
  0
LINE
  8
0
 10
224.075
 11
221.075
 20
-119.742
 21
-119.742
  0
LINE
  8
0
 10
221.075
 11
221.075
 20
-119.742
 21
-110.461
  0
LINE
  8
0
 10
221.075
 11
224.075
 20
-110.461
 21
-110.461
  0
LINE
  8
0
 10
224.075
 11
224.075
 20
-110.461
 21
-101.486
  0
LINE
  8
0
 10
224.075
 11
221.075
 20
-101.486
 21
-101.486
  0
LINE
  8
0
 10
221.075
 11
221.075
 20
-101.486
 21
-92.205
  0
LINE
  8
0
 10
221.075
 11
224.075
 20
-92.205
 21
-92.205
  0
LINE
  8
0
 10
224.075
 11
224.075
 20
-92.205
 21
-83.229
  0
LINE
  8
0
 10
224.075
 11
221.075
 20
-83.229
 21
-83.229
  0
LINE
  8
0
 10
221.075
 11
221.075
 20
-83.229
 21
-76.949
  0
LINE
  8
0
 10
221.075
 11
221.151
 20
-76.949
 21
-76.949
  0
LINE
  8
0
 10
221.151
 11
221.151
 20
-76.949
 21
-77.025
  0
LINE
  8
0
 10
221.151
 11
230.127
 20
-77.025
 21
-77.025
  0
LINE
  8
0
 10
230.127
 11
230.127
 20
-77.025
 21
-74.025
  0
LINE
  8
0
 10
230.127
 11
239.407
 20
-74.025
 21
-74.025
  0
LINE
  8
0
 10
239.407
 11
239.407
 20
-74.025
 21
-77.025
  0
LINE
  8
0
 10
239.407
 11
248.383
 20
-77.025
 21
-77.025
  0
LINE
  8
0
 10
248.383
 11
248.383
 20
-77.025
 21
-74.025
  0
LINE
  8
0
 10
248.383
 11
257.664
 20
-74.025
 21
-74.025
  0
LINE
  8
0
 10
257.664
 11
257.664
 20
-74.025
 21
-77.025
  0
LINE
  8
0
 10
257.664
 11
266.639
 20
-77.025
 21
-77.025
  0
LINE
  8
0
 10
266.639
 11
266.639
 20
-77.025
 21
-74.025
  0
LINE
  8
0
 10
266.639
 11
275.92
 20
-74.025
 21
-74.025
  0
LINE
  8
0
 10
275.92
 11
275.92
 20
-74.025
 21
-77.025
  0
LINE
  8
0
 10
275.92
 11
284.896
 20
-77.025
 21
-77.025
  0
LINE
  8
0
 10
284.896
 11
284.896
 20
-77.025
 21
-74.025
  0
LINE
  8
0
 10
284.896
 11
294.176
 20
-74.025
 21
-74.025
  0
LINE
  8
0
 10
294.176
 11
294.176
 20
-74.025
 21
-77.025
  0
LINE
  8
0
 10
294.176
 11
303.152
 20
-77.025
 21
-77.025
  0
LINE
  8
0
 10
303.152
 11
303.152
 20
-77.025
 21
-74.025
  0
LINE
  8
0
 10
303.152
 11
312.432
 20
-74.025
 21
-74.025
  0
LINE
  8
0
 10
312.432
 11
312.432
 20
-74.025
 21
-77.025
  0
LINE
  8
0
 10
312.432
 11
321.408
 20
-77.025
 21
-77.025
  0
LINE
  8
0
 10
321.408
 11
321.408
 20
-77.025
 21
-74.025
  0
LINE
  8
0
 10
321.408
 11
330.689
 20
-74.025
 21
-74.025
  0
LINE
  8
0
 10
330.689
 11
330.689
 20
-74.025
 21
-77.025
  0
LINE
  8
0
 10
330.689
 11
339.664
 20
-77.025
 21
-77.025
  0
LINE
  8
0
 10
339.664
 11
339.664
 20
-77.025
 21
-74.025
  0
LINE
  8
0
 10
339.664
 11
348.945
 20
-74.025
 21
-74.025
  0
LINE
  8
0
 10
348.945
 11
348.945
 20
-74.025
 21
-77.025
  0
LINE
  8
0
 10
348.945
 11
357.921
 20
-77.025
 21
-77.025
  0
LINE
  8
0
 10
357.921
 11
357.921
 20
-77.025
 21
-74.025
  0
LINE
  8
0
 10
357.921
 11
364.201
 20
-74.025
 21
-74.025
  0
LINE
  8
0
 10
364.201
 11
364.201
 20
-74.025
 21
-74.101
  0
LINE
  8
0
 10
364.201
 11
364.125
 20
-74.101
 21
-74.101
  0
LINE
  8
0
 10
364.125
 11
364.125
 20
-74.101
 21
-83.077
  0
LINE
  8
0
 10
364.125
 11
367.125
 20
-83.077
 21
-83.077
  0
LINE
  8
0
 10
367.125
 11
367.125
 20
-83.077
 21
-92.357
  0
LINE
  8
0
 10
367.125
 11
364.125
 20
-92.357
 21
-92.357
  0
LINE
  8
0
 10
364.125
 11
364.125
 20
-92.357
 21
-101.333
  0
LINE
  8
0
 10
364.125
 11
367.125
 20
-101.333
 21
-101.333
  0
LINE
  8
0
 10
367.125
 11
367.125
 20
-101.333
 21
-110.614
  0
LINE
  8
0
 10
367.125
 11
364.125
 20
-110.614
 21
-110.614
  0
LINE
  8
0
 10
364.125
 11
364.125
 20
-110.614
 21
-119.589
  0
LINE
  8
0
 10
364.125
 11
367.125
 20
-119.589
 21
-119.589
  0
LINE
  8
0
 10
367.125
 11
367.125
 20
-119.589
 21
-128.87
  0
LINE
  8
0
 10
367.125
 11
364.125
 20
-128.87
 21
-128.87
  0
LINE
  8
0
 10
364.125
 11
364.125
 20
-128.87
 21
-137.846
  0
LINE
  8
0
 10
364.125
 11
367.125
 20
-137.846
 21
-137.846
  0
LINE
  8
0
 10
367.125
 11
367.125
 20
-137.846
 21
-147.126
  0
LINE
  8
0
 10
367.125
 11
364.125
 20
-147.126
 21
-147.126
  0
LINE
  8
0
 10
364.125
 11
364.125
 20
-147.126
 21
-156.102
  0
LINE
  8
0
 10
364.125
 11
367.125
 20
-156.102
 21
-156.102
  0
LINE
  8
0
 10
367.125
 11
367.125
 20
-156.102
 21
-165.382
  0
LINE
  8
0
 10
367.125
 11
364.125
 20
-165.382
 21
-165.382
  0
LINE
  8
0
 10
364.125
 11
364.125
 20
-165.382
 21
-174.358
  0
LINE
  8
0
 10
364.125
 11
367.125
 20
-174.358
 21
-174.358
  0
LINE
  8
0
 10
367.125
 11
367.125
 20
-174.358
 21
-183.639
  0
LINE
  8
0
 10
367.125
 11
364.125
 20
-183.639
 21
-183.639
  0
LINE
  8
0
 10
364.125
 11
364.125
 20
-183.639
 21
-192.614
  0
LINE
  8
0
 10
364.125
 11
367.125
 20
-192.614
 21
-192.614
  0
LINE
  8
0
 10
367.125
 11
367.125
 20
-192.614
 21
-201.895
  0
LINE
  8
0
 10
367.125
 11
364.125
 20
-201.895
 21
-201.895
  0
LINE
  8
0
 10
364.125
 11
364.125
 20
-201.895
 21
-210.871
  0
LINE
  8
0
 10
364.125
 11
367.125
 20
-210.871
 21
-210.871
  0
LINE
  8
0
 10
367.125
 11
367.125
 20
-210.871
 21
-217.151
  0
LINE
  8
0
 10
367.125
 11
367.049
 20
-217.151
 21
-217.151
  0
LINE
  8
0
 10
367.049
 11
367.049
 20
-217.151
 21
-217.075
  0
LINE
  8
0
 10
367.049
 11
358.073
 20
-217.075
 21
-217.075
  0
LINE
  8
0
 10
358.073
 11
358.073
 20
-217.075
 21
-220.075
  0
LINE
  8
0
 10
358.073
 11
348.793
 20
-220.075
 21
-220.075
  0
LINE
  8
0
 10
348.793
 11
348.793
 20
-220.075
 21
-217.075
  0
LINE
  8
0
 10
348.793
 11
339.817
 20
-217.075
 21
-217.075
  0
LINE
  8
0
 10
339.817
 11
339.817
 20
-217.075
 21
-220.075
  0
LINE
  8
0
 10
339.817
 11
330.536
 20
-220.075
 21
-220.075
  0
LINE
  8
0
 10
330.536
 11
330.536
 20
-220.075
 21
-217.075
  0
LINE
  8
0
 10
330.536
 11
321.561
 20
-217.075
 21
-217.075
  0
LINE
  8
0
 10
321.561
 11
321.561
 20
-217.075
 21
-220.075
  0
LINE
  8
0
 10
321.561
 11
312.28
 20
-220.075
 21
-220.075
  0
LINE
  8
0
 10
312.28
 11
312.28
 20
-220.075
 21
-217.075
  0
LINE
  8
0
 10
312.28
 11
303.304
 20
-217.075
 21
-217.075
  0
LINE
  8
0
 10
303.304
 11
303.304
 20
-217.075
 21
-220.075
  0
LINE
  8
0
 10
303.304
 11
294.024
 20
-220.075
 21
-220.075
  0
LINE
  8
0
 10
294.024
 11
294.024
 20
-220.075
 21
-217.075
  0
LINE
  8
0
 10
294.024
 11
285.048
 20
-217.075
 21
-217.075
  0
LINE
  8
0
 10
285.048
 11
285.048
 20
-217.075
 21
-220.075
  0
LINE
  8
0
 10
285.048
 11
275.768
 20
-220.075
 21
-220.075
  0
LINE
  8
0
 10
275.768
 11
275.768
 20
-220.075
 21
-217.075
  0
LINE
  8
0
 10
275.768
 11
266.792
 20
-217.075
 21
-217.075
  0
LINE
  8
0
 10
266.792
 11
266.792
 20
-217.075
 21
-220.075
  0
LINE
  8
0
 10
266.792
 11
257.511
 20
-220.075
 21
-220.075
  0
LINE
  8
0
 10
257.511
 11
257.511
 20
-220.075
 21
-217.075
  0
LINE
  8
0
 10
257.511
 11
248.536
 20
-217.075
 21
-217.075
  0
LINE
  8
0
 10
248.536
 11
248.536
 20
-217.075
 21
-220.075
  0
LINE
  8
0
 10
248.536
 11
239.255
 20
-220.075
 21
-220.075
  0
LINE
  8
0
 10
239.255
 11
239.255
 20
-220.075
 21
-217.075
  0
LINE
  8
0
 10
239.255
 11
230.279
 20
-217.075
 21
-217.075
  0
LINE
  8
0
 10
230.279
 11
230.279
 20
-217.075
 21
-220.075
  0
LINE
  8
0
 10
230.279
 11
223.999
 20
-220.075
 21
-220.075
  0
LINE
  8
0
 10
223.999
 11
223.999
 20
-220.075
 21
-219.999
  0
LINE
  8
0
 10
223.999
 11
224.075
 20
-219.999
 21
-219.999
  0
LINE
  8
0
 10
224.075
 11
224.075
 20
-219.999
 21
-211.023
  0
LINE
  8
0
 10
224.075
 11
221.075
 20
-211.023
 21
-211.023
  0
LINE
  8
0
 10
221.075
 11
221.075
 20
-73.025
 21
-72.949
  0
LINE
  8
0
 10
221.075
 11
221.151
 20
-72.949
 21
-72.949
  0
LINE
  8
0
 10
221.151
 11
221.151
 20
-72.949
 21
-73.025
  0
LINE
  8
0
 10
221.151
 11
221.075
 20
-73.025
 21
-73.025
  0
LINE
  8
0
 10
221.075
 11
221.075
 20
-63.973
 21
-54.693
  0
LINE
  8
0
 10
221.075
 11
223.999
 20
-54.693
 21
-54.693
  0
LINE
  8
0
 10
223.999
 11
223.999
 20
-54.693
 21
-45.717
  0
LINE
  8
0
 10
223.999
 11
221.075
 20
-45.717
 21
-45.717
  0
LINE
  8
0
 10
221.075
 11
221.075
 20
-45.717
 21
-36.436
  0
LINE
  8
0
 10
221.075
 11
223.999
 20
-36.436
 21
-36.436
  0
LINE
  8
0
 10
223.999
 11
223.999
 20
-36.436
 21
-27.461
  0
LINE
  8
0
 10
223.999
 11
221.075
 20
-27.461
 21
-27.461
  0
LINE
  8
0
 10
221.075
 11
221.075
 20
-27.461
 21
-18.18
  0
LINE
  8
0
 10
221.075
 11
223.999
 20
-18.18
 21
-18.18
  0
LINE
  8
0
 10
223.999
 11
223.999
 20
-18.18
 21
-9.204
  0
LINE
  8
0
 10
223.999
 11
221.075
 20
-9.204
 21
-9.204
  0
LINE
  8
0
 10
221.075
 11
221.075
 20
-9.204
 21
0.076
  0
LINE
  8
0
 10
221.075
 11
223.999
 20
0.076
 21
0.076
  0
LINE
  8
0
 10
223.999
 11
223.999
 20
0.076
 21
9.052
  0
LINE
  8
0
 10
223.999
 11
221.075
 20
9.052
 21
9.052
  0
LINE
  8
0
 10
221.075
 11
221.075
 20
9.052
 21
18.332
  0
LINE
  8
0
 10
221.075
 11
223.999
 20
18.332
 21
18.332
  0
LINE
  8
0
 10
223.999
 11
223.999
 20
18.332
 21
27.308
  0
LINE
  8
0
 10
223.999
 11
221.075
 20
27.308
 21
27.308
  0
LINE
  8
0
 10
221.075
 11
221.075
 20
27.308
 21
36.589
  0
LINE
  8
0
 10
221.075
 11
223.999
 20
36.589
 21
36.589
  0
LINE
  8
0
 10
223.999
 11
223.999
 20
36.589
 21
45.564
  0
LINE
  8
0
 10
223.999
 11
221.075
 20
45.564
 21
45.564
  0
LINE
  8
0
 10
221.075
 11
221.075
 20
45.564
 21
54.845
  0
LINE
  8
0
 10
221.075
 11
223.999
 20
54.845
 21
54.845
  0
LINE
  8
0
 10
223.999
 11
223.999
 20
54.845
 21
63.821
  0
LINE
  8
0
 10
223.999
 11
221.075
 20
63.821
 21
63.821
  0
LINE
  8
0
 10
221.075
 11
221.075
 20
63.821
 21
73.025
  0
LINE
  8
0
 10
221.075
 11
230.279
 20
73.025
 21
73.025
  0
LINE
  8
0
 10
230.279
 11
230.279
 20
73.025
 21
70.101
  0
LINE
  8
0
 10
230.279
 11
239.255
 20
70.101
 21
70.101
  0
LINE
  8
0
 10
239.255
 11
239.255
 20
70.101
 21
73.025
  0
LINE
  8
0
 10
239.255
 11
248.536
 20
73.025
 21
73.025
  0
LINE
  8
0
 10
248.536
 11
248.536
 20
73.025
 21
70.101
  0
LINE
  8
0
 10
248.536
 11
257.511
 20
70.101
 21
70.101
  0
LINE
  8
0
 10
257.511
 11
257.511
 20
70.101
 21
73.025
  0
LINE
  8
0
 10
257.511
 11
266.792
 20
73.025
 21
73.025
  0
LINE
  8
0
 10
266.792
 11
266.792
 20
73.025
 21
70.101
  0
LINE
  8
0
 10
266.792
 11
275.768
 20
70.101
 21
70.101
  0
LINE
  8
0
 10
275.768
 11
275.768
 20
70.101
 21
73.025
  0
LINE
  8
0
 10
275.768
 11
285.048
 20
73.025
 21
73.025
  0
LINE
  8
0
 10
285.048
 11
285.048
 20
73.025
 21
70.101
  0
LINE
  8
0
 10
285.048
 11
294.024
 20
70.101
 21
70.101
  0
LINE
  8
0
 10
294.024
 11
294.024
 20
70.101
 21
73.025
  0
LINE
  8
0
 10
294.024
 11
303.304
 20
73.025
 21
73.025
  0
LINE
  8
0
 10
303.304
 11
303.304
 20
73.025
 21
70.101
  0
LINE
  8
0
 10
303.304
 11
312.28
 20
70.101
 21
70.101
  0
LINE
  8
0
 10
312.28
 11
312.28
 20
70.101
 21
73.025
  0
LINE
  8
0
 10
312.28
 11
321.561
 20
73.025
 21
73.025
  0
LINE
  8
0
 10
321.561
 11
321.561
 20
73.025
 21
70.101
  0
LINE
  8
0
 10
321.561
 11
330.536
 20
70.101
 21
70.101
  0
LINE
  8
0
 10
330.536
 11
330.536
 20
70.101
 21
73.025
  0
LINE
  8
0
 10
330.536
 11
339.817
 20
73.025
 21
73.025
  0
LINE
  8
0
 10
339.817
 11
339.817
 20
73.025
 21
70.101
  0
LINE
  8
0
 10
339.817
 11
348.793
 20
70.101
 21
70.101
  0
LINE
  8
0
 10
348.793
 11
348.793
 20
70.101
 21
73.025
  0
LINE
  8
0
 10
348.793
 11
358.073
 20
73.025
 21
73.025
  0
LINE
  8
0
 10
358.073
 11
358.073
 20
73.025
 21
70.101
  0
LINE
  8
0
 10
358.073
 11
364.201
 20
70.101
 21
70.101
  0
LINE
  8
0
 10
364.201
 11
364.201
 20
70.101
 21
63.973
  0
LINE
  8
0
 10
364.201
 11
367.125
 20
63.973
 21
63.973
  0
LINE
  8
0
 10
367.125
 11
367.125
 20
63.973
 21
54.693
  0
LINE
  8
0
 10
367.125
 11
364.201
 20
54.693
 21
54.693
  0
LINE
  8
0
 10
364.201
 11
364.201
 20
54.693
 21
45.717
  0
LINE
  8
0
 10
364.201
 11
367.125
 20
45.717
 21
45.717
  0
LINE
  8
0
 10
367.125
 11
367.125
 20
45.717
 21
36.436
  0
LINE
  8
0
 10
367.125
 11
364.201
 20
36.436
 21
36.436
  0
LINE
  8
0
 10
364.201
 11
364.201
 20
36.436
 21
27.461
  0
LINE
  8
0
 10
364.201
 11
367.125
 20
27.461
 21
27.461
  0
LINE
  8
0
 10
367.125
 11
367.125
 20
27.461
 21
18.18
  0
LINE
  8
0
 10
367.125
 11
364.201
 20
18.18
 21
18.18
  0
LINE
  8
0
 10
364.201
 11
364.201
 20
18.18
 21
9.204
  0
LINE
  8
0
 10
364.201
 11
367.125
 20
9.204
 21
9.204
  0
LINE
  8
0
 10
367.125
 11
367.125
 20
9.204
 21
-0.076
  0
LINE
  8
0
 10
367.125
 11
364.201
 20
-0.076
 21
-0.076
  0
LINE
  8
0
 10
364.201
 11
364.201
 20
-0.076
 21
-9.052
  0
LINE
  8
0
 10
364.201
 11
367.125
 20
-9.052
 21
-9.052
  0
LINE
  8
0
 10
367.125
 11
367.125
 20
-9.052
 21
-18.332
  0
LINE
  8
0
 10
367.125
 11
364.201
 20
-18.332
 21
-18.332
  0
LINE
  8
0
 10
364.201
 11
364.201
 20
-18.332
 21
-27.308
  0
LINE
  8
0
 10
364.201
 11
367.125
 20
-27.308
 21
-27.308
  0
LINE
  8
0
 10
367.125
 11
367.125
 20
-27.308
 21
-36.589
  0
LINE
  8
0
 10
367.125
 11
364.201
 20
-36.589
 21
-36.589
  0
LINE
  8
0
 10
364.201
 11
364.201
 20
-36.589
 21
-45.564
  0
LINE
  8
0
 10
364.201
 11
367.125
 20
-45.564
 21
-45.564
  0
LINE
  8
0
 10
367.125
 11
367.125
 20
-45.564
 21
-54.845
  0
LINE
  8
0
 10
367.125
 11
364.201
 20
-54.845
 21
-54.845
  0
LINE
  8
0
 10
364.201
 11
364.201
 20
-54.845
 21
-63.821
  0
LINE
  8
0
 10
364.201
 11
367.125
 20
-63.821
 21
-63.821
  0
LINE
  8
0
 10
367.125
 11
367.125
 20
-63.821
 21
-73.025
  0
LINE
  8
0
 10
367.125
 11
357.921
 20
-73.025
 21
-73.025
  0
LINE
  8
0
 10
357.921
 11
357.921
 20
-73.025
 21
-70.101
  0
LINE
  8
0
 10
357.921
 11
348.945
 20
-70.101
 21
-70.101
  0
LINE
  8
0
 10
348.945
 11
348.945
 20
-70.101
 21
-73.025
  0
LINE
  8
0
 10
348.945
 11
339.664
 20
-73.025
 21
-73.025
  0
LINE
  8
0
 10
339.664
 11
339.664
 20
-73.025
 21
-70.101
  0
LINE
  8
0
 10
339.664
 11
330.689
 20
-70.101
 21
-70.101
  0
LINE
  8
0
 10
330.689
 11
330.689
 20
-70.101
 21
-73.025
  0
LINE
  8
0
 10
330.689
 11
321.408
 20
-73.025
 21
-73.025
  0
LINE
  8
0
 10
321.408
 11
321.408
 20
-73.025
 21
-70.101
  0
LINE
  8
0
 10
321.408
 11
312.432
 20
-70.101
 21
-70.101
  0
LINE
  8
0
 10
312.432
 11
312.432
 20
-70.101
 21
-73.025
  0
LINE
  8
0
 10
312.432
 11
303.152
 20
-73.025
 21
-73.025
  0
LINE
  8
0
 10
303.152
 11
303.152
 20
-73.025
 21
-70.101
  0
LINE
  8
0
 10
303.152
 11
294.176
 20
-70.101
 21
-70.101
  0
LINE
  8
0
 10
294.176
 11
294.176
 20
-70.101
 21
-73.025
  0
LINE
  8
0
 10
294.176
 11
284.896
 20
-73.025
 21
-73.025
  0
LINE
  8
0
 10
284.896
 11
284.896
 20
-73.025
 21
-70.101
  0
LINE
  8
0
 10
284.896
 11
275.92
 20
-70.101
 21
-70.101
  0
LINE
  8
0
 10
275.92
 11
275.92
 20
-70.101
 21
-73.025
  0
LINE
  8
0
 10
275.92
 11
266.639
 20
-73.025
 21
-73.025
  0
LINE
  8
0
 10
266.639
 11
266.639
 20
-73.025
 21
-70.101
  0
LINE
  8
0
 10
266.639
 11
257.664
 20
-70.101
 21
-70.101
  0
LINE
  8
0
 10
257.664
 11
257.664
 20
-70.101
 21
-73.025
  0
LINE
  8
0
 10
257.664
 11
248.383
 20
-73.025
 21
-73.025
  0
LINE
  8
0
 10
248.383
 11
248.383
 20
-73.025
 21
-70.101
  0
LINE
  8
0
 10
248.383
 11
239.407
 20
-70.101
 21
-70.101
  0
LINE
  8
0
 10
239.407
 11
239.407
 20
-70.101
 21
-73.025
  0
LINE
  8
0
 10
239.407
 11
230.127
 20
-73.025
 21
-73.025
  0
LINE
  8
0
 10
230.127
 11
230.127
 20
-73.025
 21
-70.101
  0
LINE
  8
0
 10
230.127
 11
223.999
 20
-70.101
 21
-70.101
  0
LINE
  8
0
 10
223.999
 11
223.999
 20
-70.101
 21
-63.973
  0
LINE
  8
0
 10
223.999
 11
221.075
 20
-63.973
 21
-63.973
  0
LINE
  8
0
 10
367.049
 11
367.049
 20
72.949
 21
73.025
  0
LINE
  8
0
 10
367.049
 11
367.125
 20
73.025
 21
73.025
  0
LINE
  8
0
 10
367.125
 11
367.125
 20
73.025
 21
72.949
  0
LINE
  8
0
 10
367.125
 11
367.049
 20
72.949
 21
72.949
  0
ENDSEC
  0
SECTION
  2
OBJECTS
  0
DICTIONARY
  0
ENDSEC
  0
EOF
