  0
SECTION
  2
BLOCKS
  0
ENDSEC
  0
SECTION
  2
ENTITIES
  0
LINE
  8
0
 10
-73.025
 11
-73.025
 20
-220.075
 21
-220.037
  0
LINE
  8
0
 10
-73.025
 11
-72.987
 20
-220.037
 21
-220.037
  0
LINE
  8
0
 10
-72.987
 11
-72.987
 20
-220.037
 21
-220.075
  0
LINE
  8
0
 10
-72.987
 11
-73.025
 20
-220.075
 21
-220.075
  0
LINE
  8
0
 10
-73.025
 11
-73.025
 20
-210.985
 21
-201.781
  0
LINE
  8
0
 10
-73.025
 11
-70.063
 20
-201.781
 21
-201.781
  0
LINE
  8
0
 10
-70.063
 11
-70.063
 20
-201.781
 21
-192.729
  0
LINE
  8
0
 10
-70.063
 11
-73.025
 20
-192.729
 21
-192.729
  0
LINE
  8
0
 10
-73.025
 11
-73.025
 20
-192.729
 21
-183.524
  0
LINE
  8
0
 10
-73.025
 11
-70.063
 20
-183.524
 21
-183.524
  0
LINE
  8
0
 10
-70.063
 11
-70.063
 20
-183.524
 21
-174.472
  0
LINE
  8
0
 10
-70.063
 11
-73.025
 20
-174.472
 21
-174.472
  0
LINE
  8
0
 10
-73.025
 11
-73.025
 20
-174.472
 21
-165.268
  0
LINE
  8
0
 10
-73.025
 11
-70.063
 20
-165.268
 21
-165.268
  0
LINE
  8
0
 10
-70.063
 11
-70.063
 20
-165.268
 21
-156.216
  0
LINE
  8
0
 10
-70.063
 11
-73.025
 20
-156.216
 21
-156.216
  0
LINE
  8
0
 10
-73.025
 11
-73.025
 20
-156.216
 21
-147.012
  0
LINE
  8
0
 10
-73.025
 11
-70.063
 20
-147.012
 21
-147.012
  0
LINE
  8
0
 10
-70.063
 11
-70.063
 20
-147.012
 21
-137.96
  0
LINE
  8
0
 10
-70.063
 11
-73.025
 20
-137.96
 21
-137.96
  0
LINE
  8
0
 10
-73.025
 11
-73.025
 20
-137.96
 21
-128.756
  0
LINE
  8
0
 10
-73.025
 11
-70.063
 20
-128.756
 21
-128.756
  0
LINE
  8
0
 10
-70.063
 11
-70.063
 20
-128.756
 21
-119.704
  0
LINE
  8
0
 10
-70.063
 11
-73.025
 20
-119.704
 21
-119.704
  0
LINE
  8
0
 10
-73.025
 11
-73.025
 20
-119.704
 21
-110.499
  0
LINE
  8
0
 10
-73.025
 11
-70.063
 20
-110.499
 21
-110.499
  0
LINE
  8
0
 10
-70.063
 11
-70.063
 20
-110.499
 21
-101.447
  0
LINE
  8
0
 10
-70.063
 11
-73.025
 20
-101.447
 21
-101.447
  0
LINE
  8
0
 10
-73.025
 11
-73.025
 20
-101.447
 21
-92.243
  0
LINE
  8
0
 10
-73.025
 11
-70.063
 20
-92.243
 21
-92.243
  0
LINE
  8
0
 10
-70.063
 11
-70.063
 20
-92.243
 21
-83.191
  0
LINE
  8
0
 10
-70.063
 11
-73.025
 20
-83.191
 21
-83.191
  0
LINE
  8
0
 10
-73.025
 11
-73.025
 20
-83.191
 21
-74.025
  0
LINE
  8
0
 10
-73.025
 11
-63.859
 20
-74.025
 21
-74.025
  0
LINE
  8
0
 10
-63.859
 11
-63.859
 20
-74.025
 21
-76.987
  0
LINE
  8
0
 10
-63.859
 11
-54.807
 20
-76.987
 21
-76.987
  0
LINE
  8
0
 10
-54.807
 11
-54.807
 20
-76.987
 21
-74.025
  0
LINE
  8
0
 10
-54.807
 11
-45.603
 20
-74.025
 21
-74.025
  0
LINE
  8
0
 10
-45.603
 11
-45.603
 20
-74.025
 21
-76.987
  0
LINE
  8
0
 10
-45.603
 11
-36.551
 20
-76.987
 21
-76.987
  0
LINE
  8
0
 10
-36.551
 11
-36.551
 20
-76.987
 21
-74.025
  0
LINE
  8
0
 10
-36.551
 11
-27.346
 20
-74.025
 21
-74.025
  0
LINE
  8
0
 10
-27.346
 11
-27.346
 20
-74.025
 21
-76.987
  0
LINE
  8
0
 10
-27.346
 11
-18.294
 20
-76.987
 21
-76.987
  0
LINE
  8
0
 10
-18.294
 11
-18.294
 20
-76.987
 21
-74.025
  0
LINE
  8
0
 10
-18.294
 11
-9.09
 20
-74.025
 21
-74.025
  0
LINE
  8
0
 10
-9.09
 11
-9.09
 20
-74.025
 21
-76.987
  0
LINE
  8
0
 10
-9.09
 11
-0.038
 20
-76.987
 21
-76.987
  0
LINE
  8
0
 10
-0.038
 11
-0.038
 20
-76.987
 21
-74.025
  0
LINE
  8
0
 10
-0.038
 11
9.166
 20
-74.025
 21
-74.025
  0
LINE
  8
0
 10
9.166
 11
9.166
 20
-74.025
 21
-76.987
  0
LINE
  8
0
 10
9.166
 11
18.218
 20
-76.987
 21
-76.987
  0
LINE
  8
0
 10
18.218
 11
18.218
 20
-76.987
 21
-74.025
  0
LINE
  8
0
 10
18.218
 11
27.422
 20
-74.025
 21
-74.025
  0
LINE
  8
0
 10
27.422
 11
27.422
 20
-74.025
 21
-76.987
  0
LINE
  8
0
 10
27.422
 11
36.474
 20
-76.987
 21
-76.987
  0
LINE
  8
0
 10
36.474
 11
36.474
 20
-76.987
 21
-74.025
  0
LINE
  8
0
 10
36.474
 11
45.679
 20
-74.025
 21
-74.025
  0
LINE
  8
0
 10
45.679
 11
45.679
 20
-74.025
 21
-76.987
  0
LINE
  8
0
 10
45.679
 11
54.731
 20
-76.987
 21
-76.987
  0
LINE
  8
0
 10
54.731
 11
54.731
 20
-76.987
 21
-74.025
  0
LINE
  8
0
 10
54.731
 11
63.935
 20
-74.025
 21
-74.025
  0
LINE
  8
0
 10
63.935
 11
63.935
 20
-74.025
 21
-76.987
  0
LINE
  8
0
 10
63.935
 11
70.063
 20
-76.987
 21
-76.987
  0
LINE
  8
0
 10
70.063
 11
70.063
 20
-76.987
 21
-83.115
  0
LINE
  8
0
 10
70.063
 11
73.025
 20
-83.115
 21
-83.115
  0
LINE
  8
0
 10
73.025
 11
73.025
 20
-83.115
 21
-92.319
  0
LINE
  8
0
 10
73.025
 11
70.063
 20
-92.319
 21
-92.319
  0
LINE
  8
0
 10
70.063
 11
70.063
 20
-92.319
 21
-101.371
  0
LINE
  8
0
 10
70.063
 11
73.025
 20
-101.371
 21
-101.371
  0
LINE
  8
0
 10
73.025
 11
73.025
 20
-101.371
 21
-110.576
  0
LINE
  8
0
 10
73.025
 11
70.063
 20
-110.576
 21
-110.576
  0
LINE
  8
0
 10
70.063
 11
70.063
 20
-110.576
 21
-119.628
  0
LINE
  8
0
 10
70.063
 11
73.025
 20
-119.628
 21
-119.628
  0
LINE
  8
0
 10
73.025
 11
73.025
 20
-119.628
 21
-128.832
  0
LINE
  8
0
 10
73.025
 11
70.063
 20
-128.832
 21
-128.832
  0
LINE
  8
0
 10
70.063
 11
70.063
 20
-128.832
 21
-137.884
  0
LINE
  8
0
 10
70.063
 11
73.025
 20
-137.884
 21
-137.884
  0
LINE
  8
0
 10
73.025
 11
73.025
 20
-137.884
 21
-147.088
  0
LINE
  8
0
 10
73.025
 11
70.063
 20
-147.088
 21
-147.088
  0
LINE
  8
0
 10
70.063
 11
70.063
 20
-147.088
 21
-156.14
  0
LINE
  8
0
 10
70.063
 11
73.025
 20
-156.14
 21
-156.14
  0
LINE
  8
0
 10
73.025
 11
73.025
 20
-156.14
 21
-165.344
  0
LINE
  8
0
 10
73.025
 11
70.063
 20
-165.344
 21
-165.344
  0
LINE
  8
0
 10
70.063
 11
70.063
 20
-165.344
 21
-174.396
  0
LINE
  8
0
 10
70.063
 11
73.025
 20
-174.396
 21
-174.396
  0
LINE
  8
0
 10
73.025
 11
73.025
 20
-174.396
 21
-183.601
  0
LINE
  8
0
 10
73.025
 11
70.063
 20
-183.601
 21
-183.601
  0
LINE
  8
0
 10
70.063
 11
70.063
 20
-183.601
 21
-192.653
  0
LINE
  8
0
 10
70.063
 11
73.025
 20
-192.653
 21
-192.653
  0
LINE
  8
0
 10
73.025
 11
73.025
 20
-192.653
 21
-201.857
  0
LINE
  8
0
 10
73.025
 11
70.063
 20
-201.857
 21
-201.857
  0
LINE
  8
0
 10
70.063
 11
70.063
 20
-201.857
 21
-210.909
  0
LINE
  8
0
 10
70.063
 11
73.025
 20
-210.909
 21
-210.909
  0
LINE
  8
0
 10
73.025
 11
73.025
 20
-210.909
 21
-220.075
  0
LINE
  8
0
 10
73.025
 11
63.859
 20
-220.075
 21
-220.075
  0
LINE
  8
0
 10
63.859
 11
63.859
 20
-220.075
 21
-217.113
  0
LINE
  8
0
 10
63.859
 11
54.807
 20
-217.113
 21
-217.113
  0
LINE
  8
0
 10
54.807
 11
54.807
 20
-217.113
 21
-220.075
  0
LINE
  8
0
 10
54.807
 11
45.603
 20
-220.075
 21
-220.075
  0
LINE
  8
0
 10
45.603
 11
45.603
 20
-220.075
 21
-217.113
  0
LINE
  8
0
 10
45.603
 11
36.551
 20
-217.113
 21
-217.113
  0
LINE
  8
0
 10
36.551
 11
36.551
 20
-217.113
 21
-220.075
  0
LINE
  8
0
 10
36.551
 11
27.346
 20
-220.075
 21
-220.075
  0
LINE
  8
0
 10
27.346
 11
27.346
 20
-220.075
 21
-217.113
  0
LINE
  8
0
 10
27.346
 11
18.294
 20
-217.113
 21
-217.113
  0
LINE
  8
0
 10
18.294
 11
18.294
 20
-217.113
 21
-220.075
  0
LINE
  8
0
 10
18.294
 11
9.09
 20
-220.075
 21
-220.075
  0
LINE
  8
0
 10
9.09
 11
9.09
 20
-220.075
 21
-217.113
  0
LINE
  8
0
 10
9.09
 11
0.038
 20
-217.113
 21
-217.113
  0
LINE
  8
0
 10
0.038
 11
0.038
 20
-217.113
 21
-220.075
  0
LINE
  8
0
 10
0.038
 11
-9.166
 20
-220.075
 21
-220.075
  0
LINE
  8
0
 10
-9.166
 11
-9.166
 20
-220.075
 21
-217.113
  0
LINE
  8
0
 10
-9.166
 11
-18.218
 20
-217.113
 21
-217.113
  0
LINE
  8
0
 10
-18.218
 11
-18.218
 20
-217.113
 21
-220.075
  0
LINE
  8
0
 10
-18.218
 11
-27.422
 20
-220.075
 21
-220.075
  0
LINE
  8
0
 10
-27.422
 11
-27.422
 20
-220.075
 21
-217.113
  0
LINE
  8
0
 10
-27.422
 11
-36.474
 20
-217.113
 21
-217.113
  0
LINE
  8
0
 10
-36.474
 11
-36.474
 20
-217.113
 21
-220.075
  0
LINE
  8
0
 10
-36.474
 11
-45.679
 20
-220.075
 21
-220.075
  0
LINE
  8
0
 10
-45.679
 11
-45.679
 20
-220.075
 21
-217.113
  0
LINE
  8
0
 10
-45.679
 11
-54.731
 20
-217.113
 21
-217.113
  0
LINE
  8
0
 10
-54.731
 11
-54.731
 20
-217.113
 21
-220.075
  0
LINE
  8
0
 10
-54.731
 11
-63.935
 20
-220.075
 21
-220.075
  0
LINE
  8
0
 10
-63.935
 11
-63.935
 20
-220.075
 21
-217.113
  0
LINE
  8
0
 10
-63.935
 11
-70.063
 20
-217.113
 21
-217.113
  0
LINE
  8
0
 10
-70.063
 11
-70.063
 20
-217.113
 21
-210.985
  0
LINE
  8
0
 10
-70.063
 11
-73.025
 20
-210.985
 21
-210.985
  0
LINE
  8
0
 10
-73.025
 11
-73.025
 20
-73.025
 21
-72.987
  0
LINE
  8
0
 10
-73.025
 11
-72.987
 20
-72.987
 21
-72.987
  0
LINE
  8
0
 10
-72.987
 11
-72.987
 20
-72.987
 21
-73.025
  0
LINE
  8
0
 10
-72.987
 11
-73.025
 20
-73.025
 21
-73.025
  0
LINE
  8
0
 10
-73.025
 11
-73.025
 20
-63.935
 21
-54.731
  0
LINE
  8
0
 10
-73.025
 11
-70.063
 20
-54.731
 21
-54.731
  0
LINE
  8
0
 10
-70.063
 11
-70.063
 20
-54.731
 21
-45.679
  0
LINE
  8
0
 10
-70.063
 11
-73.025
 20
-45.679
 21
-45.679
  0
LINE
  8
0
 10
-73.025
 11
-73.025
 20
-45.679
 21
-36.474
  0
LINE
  8
0
 10
-73.025
 11
-70.063
 20
-36.474
 21
-36.474
  0
LINE
  8
0
 10
-70.063
 11
-70.063
 20
-36.474
 21
-27.422
  0
LINE
  8
0
 10
-70.063
 11
-73.025
 20
-27.422
 21
-27.422
  0
LINE
  8
0
 10
-73.025
 11
-73.025
 20
-27.422
 21
-18.218
  0
LINE
  8
0
 10
-73.025
 11
-70.063
 20
-18.218
 21
-18.218
  0
LINE
  8
0
 10
-70.063
 11
-70.063
 20
-18.218
 21
-9.166
  0
LINE
  8
0
 10
-70.063
 11
-73.025
 20
-9.166
 21
-9.166
  0
LINE
  8
0
 10
-73.025
 11
-73.025
 20
-9.166
 21
0.038
  0
LINE
  8
0
 10
-73.025
 11
-70.063
 20
0.038
 21
0.038
  0
LINE
  8
0
 10
-70.063
 11
-70.063
 20
0.038
 21
9.09
  0
LINE
  8
0
 10
-70.063
 11
-73.025
 20
9.09
 21
9.09
  0
LINE
  8
0
 10
-73.025
 11
-73.025
 20
9.09
 21
18.294
  0
LINE
  8
0
 10
-73.025
 11
-70.063
 20
18.294
 21
18.294
  0
LINE
  8
0
 10
-70.063
 11
-70.063
 20
18.294
 21
27.346
  0
LINE
  8
0
 10
-70.063
 11
-73.025
 20
27.346
 21
27.346
  0
LINE
  8
0
 10
-73.025
 11
-73.025
 20
27.346
 21
36.551
  0
LINE
  8
0
 10
-73.025
 11
-70.063
 20
36.551
 21
36.551
  0
LINE
  8
0
 10
-70.063
 11
-70.063
 20
36.551
 21
45.603
  0
LINE
  8
0
 10
-70.063
 11
-73.025
 20
45.603
 21
45.603
  0
LINE
  8
0
 10
-73.025
 11
-73.025
 20
45.603
 21
54.807
  0
LINE
  8
0
 10
-73.025
 11
-70.063
 20
54.807
 21
54.807
  0
LINE
  8
0
 10
-70.063
 11
-70.063
 20
54.807
 21
63.859
  0
LINE
  8
0
 10
-70.063
 11
-73.025
 20
63.859
 21
63.859
  0
LINE
  8
0
 10
-73.025
 11
-73.025
 20
63.859
 21
73.025
  0
LINE
  8
0
 10
-73.025
 11
-63.859
 20
73.025
 21
73.025
  0
LINE
  8
0
 10
-63.859
 11
-63.859
 20
73.025
 21
70.063
  0
LINE
  8
0
 10
-63.859
 11
-54.807
 20
70.063
 21
70.063
  0
LINE
  8
0
 10
-54.807
 11
-54.807
 20
70.063
 21
73.025
  0
LINE
  8
0
 10
-54.807
 11
-45.603
 20
73.025
 21
73.025
  0
LINE
  8
0
 10
-45.603
 11
-45.603
 20
73.025
 21
70.063
  0
LINE
  8
0
 10
-45.603
 11
-36.551
 20
70.063
 21
70.063
  0
LINE
  8
0
 10
-36.551
 11
-36.551
 20
70.063
 21
73.025
  0
LINE
  8
0
 10
-36.551
 11
-27.346
 20
73.025
 21
73.025
  0
LINE
  8
0
 10
-27.346
 11
-27.346
 20
73.025
 21
70.063
  0
LINE
  8
0
 10
-27.346
 11
-18.294
 20
70.063
 21
70.063
  0
LINE
  8
0
 10
-18.294
 11
-18.294
 20
70.063
 21
73.025
  0
LINE
  8
0
 10
-18.294
 11
-9.09
 20
73.025
 21
73.025
  0
LINE
  8
0
 10
-9.09
 11
-9.09
 20
73.025
 21
70.063
  0
LINE
  8
0
 10
-9.09
 11
-0.038
 20
70.063
 21
70.063
  0
LINE
  8
0
 10
-0.038
 11
-0.038
 20
70.063
 21
73.025
  0
LINE
  8
0
 10
-0.038
 11
9.166
 20
73.025
 21
73.025
  0
LINE
  8
0
 10
9.166
 11
9.166
 20
73.025
 21
70.063
  0
LINE
  8
0
 10
9.166
 11
18.218
 20
70.063
 21
70.063
  0
LINE
  8
0
 10
18.218
 11
18.218
 20
70.063
 21
73.025
  0
LINE
  8
0
 10
18.218
 11
27.422
 20
73.025
 21
73.025
  0
LINE
  8
0
 10
27.422
 11
27.422
 20
73.025
 21
70.063
  0
LINE
  8
0
 10
27.422
 11
36.474
 20
70.063
 21
70.063
  0
LINE
  8
0
 10
36.474
 11
36.474
 20
70.063
 21
73.025
  0
LINE
  8
0
 10
36.474
 11
45.679
 20
73.025
 21
73.025
  0
LINE
  8
0
 10
45.679
 11
45.679
 20
73.025
 21
70.063
  0
LINE
  8
0
 10
45.679
 11
54.731
 20
70.063
 21
70.063
  0
LINE
  8
0
 10
54.731
 11
54.731
 20
70.063
 21
73.025
  0
LINE
  8
0
 10
54.731
 11
63.935
 20
73.025
 21
73.025
  0
LINE
  8
0
 10
63.935
 11
63.935
 20
73.025
 21
70.063
  0
LINE
  8
0
 10
63.935
 11
70.063
 20
70.063
 21
70.063
  0
LINE
  8
0
 10
70.063
 11
70.063
 20
70.063
 21
63.935
  0
LINE
  8
0
 10
70.063
 11
73.025
 20
63.935
 21
63.935
  0
LINE
  8
0
 10
73.025
 11
73.025
 20
63.935
 21
54.731
  0
LINE
  8
0
 10
73.025
 11
70.063
 20
54.731
 21
54.731
  0
LINE
  8
0
 10
70.063
 11
70.063
 20
54.731
 21
45.679
  0
LINE
  8
0
 10
70.063
 11
73.025
 20
45.679
 21
45.679
  0
LINE
  8
0
 10
73.025
 11
73.025
 20
45.679
 21
36.474
  0
LINE
  8
0
 10
73.025
 11
70.063
 20
36.474
 21
36.474
  0
LINE
  8
0
 10
70.063
 11
70.063
 20
36.474
 21
27.422
  0
LINE
  8
0
 10
70.063
 11
73.025
 20
27.422
 21
27.422
  0
LINE
  8
0
 10
73.025
 11
73.025
 20
27.422
 21
18.218
  0
LINE
  8
0
 10
73.025
 11
70.063
 20
18.218
 21
18.218
  0
LINE
  8
0
 10
70.063
 11
70.063
 20
18.218
 21
9.166
  0
LINE
  8
0
 10
70.063
 11
73.025
 20
9.166
 21
9.166
  0
LINE
  8
0
 10
73.025
 11
73.025
 20
9.166
 21
-0.038
  0
LINE
  8
0
 10
73.025
 11
70.063
 20
-0.038
 21
-0.038
  0
LINE
  8
0
 10
70.063
 11
70.063
 20
-0.038
 21
-9.09
  0
LINE
  8
0
 10
70.063
 11
73.025
 20
-9.09
 21
-9.09
  0
LINE
  8
0
 10
73.025
 11
73.025
 20
-9.09
 21
-18.294
  0
LINE
  8
0
 10
73.025
 11
70.063
 20
-18.294
 21
-18.294
  0
LINE
  8
0
 10
70.063
 11
70.063
 20
-18.294
 21
-27.346
  0
LINE
  8
0
 10
70.063
 11
73.025
 20
-27.346
 21
-27.346
  0
LINE
  8
0
 10
73.025
 11
73.025
 20
-27.346
 21
-36.551
  0
LINE
  8
0
 10
73.025
 11
70.063
 20
-36.551
 21
-36.551
  0
LINE
  8
0
 10
70.063
 11
70.063
 20
-36.551
 21
-45.603
  0
LINE
  8
0
 10
70.063
 11
73.025
 20
-45.603
 21
-45.603
  0
LINE
  8
0
 10
73.025
 11
73.025
 20
-45.603
 21
-54.807
  0
LINE
  8
0
 10
73.025
 11
70.063
 20
-54.807
 21
-54.807
  0
LINE
  8
0
 10
70.063
 11
70.063
 20
-54.807
 21
-63.859
  0
LINE
  8
0
 10
70.063
 11
73.025
 20
-63.859
 21
-63.859
  0
LINE
  8
0
 10
73.025
 11
73.025
 20
-63.859
 21
-73.025
  0
LINE
  8
0
 10
73.025
 11
63.859
 20
-73.025
 21
-73.025
  0
LINE
  8
0
 10
63.859
 11
63.859
 20
-73.025
 21
-70.063
  0
LINE
  8
0
 10
63.859
 11
54.807
 20
-70.063
 21
-70.063
  0
LINE
  8
0
 10
54.807
 11
54.807
 20
-70.063
 21
-73.025
  0
LINE
  8
0
 10
54.807
 11
45.603
 20
-73.025
 21
-73.025
  0
LINE
  8
0
 10
45.603
 11
45.603
 20
-73.025
 21
-70.063
  0
LINE
  8
0
 10
45.603
 11
36.551
 20
-70.063
 21
-70.063
  0
LINE
  8
0
 10
36.551
 11
36.551
 20
-70.063
 21
-73.025
  0
LINE
  8
0
 10
36.551
 11
27.346
 20
-73.025
 21
-73.025
  0
LINE
  8
0
 10
27.346
 11
27.346
 20
-73.025
 21
-70.063
  0
LINE
  8
0
 10
27.346
 11
18.294
 20
-70.063
 21
-70.063
  0
LINE
  8
0
 10
18.294
 11
18.294
 20
-70.063
 21
-73.025
  0
LINE
  8
0
 10
18.294
 11
9.09
 20
-73.025
 21
-73.025
  0
LINE
  8
0
 10
9.09
 11
9.09
 20
-73.025
 21
-70.063
  0
LINE
  8
0
 10
9.09
 11
0.038
 20
-70.063
 21
-70.063
  0
LINE
  8
0
 10
0.038
 11
0.038
 20
-70.063
 21
-73.025
  0
LINE
  8
0
 10
0.038
 11
-9.166
 20
-73.025
 21
-73.025
  0
LINE
  8
0
 10
-9.166
 11
-9.166
 20
-73.025
 21
-70.063
  0
LINE
  8
0
 10
-9.166
 11
-18.218
 20
-70.063
 21
-70.063
  0
LINE
  8
0
 10
-18.218
 11
-18.218
 20
-70.063
 21
-73.025
  0
LINE
  8
0
 10
-18.218
 11
-27.422
 20
-73.025
 21
-73.025
  0
LINE
  8
0
 10
-27.422
 11
-27.422
 20
-73.025
 21
-70.063
  0
LINE
  8
0
 10
-27.422
 11
-36.474
 20
-70.063
 21
-70.063
  0
LINE
  8
0
 10
-36.474
 11
-36.474
 20
-70.063
 21
-73.025
  0
LINE
  8
0
 10
-36.474
 11
-45.679
 20
-73.025
 21
-73.025
  0
LINE
  8
0
 10
-45.679
 11
-45.679
 20
-73.025
 21
-70.063
  0
LINE
  8
0
 10
-45.679
 11
-54.731
 20
-70.063
 21
-70.063
  0
LINE
  8
0
 10
-54.731
 11
-54.731
 20
-70.063
 21
-73.025
  0
LINE
  8
0
 10
-54.731
 11
-63.935
 20
-73.025
 21
-73.025
  0
LINE
  8
0
 10
-63.935
 11
-63.935
 20
-73.025
 21
-70.063
  0
LINE
  8
0
 10
-63.935
 11
-70.063
 20
-70.063
 21
-70.063
  0
LINE
  8
0
 10
-70.063
 11
-70.063
 20
-70.063
 21
-63.935
  0
LINE
  8
0
 10
-70.063
 11
-73.025
 20
-63.935
 21
-63.935
  0
LINE
  8
0
 10
72.987
 11
72.987
 20
-74.063
 21
-74.025
  0
LINE
  8
0
 10
72.987
 11
73.025
 20
-74.025
 21
-74.025
  0
LINE
  8
0
 10
73.025
 11
73.025
 20
-74.025
 21
-74.063
  0
LINE
  8
0
 10
73.025
 11
72.987
 20
-74.063
 21
-74.063
  0
LINE
  8
0
 10
72.987
 11
72.987
 20
72.987
 21
73.025
  0
LINE
  8
0
 10
72.987
 11
73.025
 20
73.025
 21
73.025
  0
LINE
  8
0
 10
73.025
 11
73.025
 20
73.025
 21
72.987
  0
LINE
  8
0
 10
73.025
 11
72.987
 20
72.987
 21
72.987
  0
LINE
  8
0
 10
74.025
 11
74.025
 20
-73.025
 21
-72.987
  0
LINE
  8
0
 10
74.025
 11
74.063
 20
-72.987
 21
-72.987
  0
LINE
  8
0
 10
74.063
 11
74.063
 20
-72.987
 21
-73.025
  0
LINE
  8
0
 10
74.063
 11
74.025
 20
-73.025
 21
-73.025
  0
LINE
  8
0
 10
74.025
 11
74.025
 20
-63.935
 21
-54.731
  0
LINE
  8
0
 10
74.025
 11
76.987
 20
-54.731
 21
-54.731
  0
LINE
  8
0
 10
76.987
 11
76.987
 20
-54.731
 21
-45.679
  0
LINE
  8
0
 10
76.987
 11
74.025
 20
-45.679
 21
-45.679
  0
LINE
  8
0
 10
74.025
 11
74.025
 20
-45.679
 21
-36.474
  0
LINE
  8
0
 10
74.025
 11
76.987
 20
-36.474
 21
-36.474
  0
LINE
  8
0
 10
76.987
 11
76.987
 20
-36.474
 21
-27.422
  0
LINE
  8
0
 10
76.987
 11
74.025
 20
-27.422
 21
-27.422
  0
LINE
  8
0
 10
74.025
 11
74.025
 20
-27.422
 21
-18.218
  0
LINE
  8
0
 10
74.025
 11
76.987
 20
-18.218
 21
-18.218
  0
LINE
  8
0
 10
76.987
 11
76.987
 20
-18.218
 21
-9.166
  0
LINE
  8
0
 10
76.987
 11
74.025
 20
-9.166
 21
-9.166
  0
LINE
  8
0
 10
74.025
 11
74.025
 20
-9.166
 21
0.038
  0
LINE
  8
0
 10
74.025
 11
76.987
 20
0.038
 21
0.038
  0
LINE
  8
0
 10
76.987
 11
76.987
 20
0.038
 21
9.09
  0
LINE
  8
0
 10
76.987
 11
74.025
 20
9.09
 21
9.09
  0
LINE
  8
0
 10
74.025
 11
74.025
 20
9.09
 21
18.294
  0
LINE
  8
0
 10
74.025
 11
76.987
 20
18.294
 21
18.294
  0
LINE
  8
0
 10
76.987
 11
76.987
 20
18.294
 21
27.346
  0
LINE
  8
0
 10
76.987
 11
74.025
 20
27.346
 21
27.346
  0
LINE
  8
0
 10
74.025
 11
74.025
 20
27.346
 21
36.551
  0
LINE
  8
0
 10
74.025
 11
76.987
 20
36.551
 21
36.551
  0
LINE
  8
0
 10
76.987
 11
76.987
 20
36.551
 21
45.603
  0
LINE
  8
0
 10
76.987
 11
74.025
 20
45.603
 21
45.603
  0
LINE
  8
0
 10
74.025
 11
74.025
 20
45.603
 21
54.807
  0
LINE
  8
0
 10
74.025
 11
76.987
 20
54.807
 21
54.807
  0
LINE
  8
0
 10
76.987
 11
76.987
 20
54.807
 21
63.859
  0
LINE
  8
0
 10
76.987
 11
74.025
 20
63.859
 21
63.859
  0
LINE
  8
0
 10
74.025
 11
74.025
 20
63.859
 21
73.025
  0
LINE
  8
0
 10
74.025
 11
83.191
 20
73.025
 21
73.025
  0
LINE
  8
0
 10
83.191
 11
83.191
 20
73.025
 21
70.063
  0
LINE
  8
0
 10
83.191
 11
92.243
 20
70.063
 21
70.063
  0
LINE
  8
0
 10
92.243
 11
92.243
 20
70.063
 21
73.025
  0
LINE
  8
0
 10
92.243
 11
101.447
 20
73.025
 21
73.025
  0
LINE
  8
0
 10
101.447
 11
101.447
 20
73.025
 21
70.063
  0
LINE
  8
0
 10
101.447
 11
110.499
 20
70.063
 21
70.063
  0
LINE
  8
0
 10
110.499
 11
110.499
 20
70.063
 21
73.025
  0
LINE
  8
0
 10
110.499
 11
119.704
 20
73.025
 21
73.025
  0
LINE
  8
0
 10
119.704
 11
119.704
 20
73.025
 21
70.063
  0
LINE
  8
0
 10
119.704
 11
128.756
 20
70.063
 21
70.063
  0
LINE
  8
0
 10
128.756
 11
128.756
 20
70.063
 21
73.025
  0
LINE
  8
0
 10
128.756
 11
137.96
 20
73.025
 21
73.025
  0
LINE
  8
0
 10
137.96
 11
137.96
 20
73.025
 21
70.063
  0
LINE
  8
0
 10
137.96
 11
147.012
 20
70.063
 21
70.063
  0
LINE
  8
0
 10
147.012
 11
147.012
 20
70.063
 21
73.025
  0
LINE
  8
0
 10
147.012
 11
156.216
 20
73.025
 21
73.025
  0
LINE
  8
0
 10
156.216
 11
156.216
 20
73.025
 21
70.063
  0
LINE
  8
0
 10
156.216
 11
165.268
 20
70.063
 21
70.063
  0
LINE
  8
0
 10
165.268
 11
165.268
 20
70.063
 21
73.025
  0
LINE
  8
0
 10
165.268
 11
174.472
 20
73.025
 21
73.025
  0
LINE
  8
0
 10
174.472
 11
174.472
 20
73.025
 21
70.063
  0
LINE
  8
0
 10
174.472
 11
183.524
 20
70.063
 21
70.063
  0
LINE
  8
0
 10
183.524
 11
183.524
 20
70.063
 21
73.025
  0
LINE
  8
0
 10
183.524
 11
192.729
 20
73.025
 21
73.025
  0
LINE
  8
0
 10
192.729
 11
192.729
 20
73.025
 21
70.063
  0
LINE
  8
0
 10
192.729
 11
201.781
 20
70.063
 21
70.063
  0
LINE
  8
0
 10
201.781
 11
201.781
 20
70.063
 21
73.025
  0
LINE
  8
0
 10
201.781
 11
210.985
 20
73.025
 21
73.025
  0
LINE
  8
0
 10
210.985
 11
210.985
 20
73.025
 21
70.063
  0
LINE
  8
0
 10
210.985
 11
217.113
 20
70.063
 21
70.063
  0
LINE
  8
0
 10
217.113
 11
217.113
 20
70.063
 21
63.935
  0
LINE
  8
0
 10
217.113
 11
220.075
 20
63.935
 21
63.935
  0
LINE
  8
0
 10
220.075
 11
220.075
 20
63.935
 21
54.731
  0
LINE
  8
0
 10
220.075
 11
217.113
 20
54.731
 21
54.731
  0
LINE
  8
0
 10
217.113
 11
217.113
 20
54.731
 21
45.679
  0
LINE
  8
0
 10
217.113
 11
220.075
 20
45.679
 21
45.679
  0
LINE
  8
0
 10
220.075
 11
220.075
 20
45.679
 21
36.474
  0
LINE
  8
0
 10
220.075
 11
217.113
 20
36.474
 21
36.474
  0
LINE
  8
0
 10
217.113
 11
217.113
 20
36.474
 21
27.422
  0
LINE
  8
0
 10
217.113
 11
220.075
 20
27.422
 21
27.422
  0
LINE
  8
0
 10
220.075
 11
220.075
 20
27.422
 21
18.218
  0
LINE
  8
0
 10
220.075
 11
217.113
 20
18.218
 21
18.218
  0
LINE
  8
0
 10
217.113
 11
217.113
 20
18.218
 21
9.166
  0
LINE
  8
0
 10
217.113
 11
220.075
 20
9.166
 21
9.166
  0
LINE
  8
0
 10
220.075
 11
220.075
 20
9.166
 21
-0.038
  0
LINE
  8
0
 10
220.075
 11
217.113
 20
-0.038
 21
-0.038
  0
LINE
  8
0
 10
217.113
 11
217.113
 20
-0.038
 21
-9.09
  0
LINE
  8
0
 10
217.113
 11
220.075
 20
-9.09
 21
-9.09
  0
LINE
  8
0
 10
220.075
 11
220.075
 20
-9.09
 21
-18.294
  0
LINE
  8
0
 10
220.075
 11
217.113
 20
-18.294
 21
-18.294
  0
LINE
  8
0
 10
217.113
 11
217.113
 20
-18.294
 21
-27.346
  0
LINE
  8
0
 10
217.113
 11
220.075
 20
-27.346
 21
-27.346
  0
LINE
  8
0
 10
220.075
 11
220.075
 20
-27.346
 21
-36.551
  0
LINE
  8
0
 10
220.075
 11
217.113
 20
-36.551
 21
-36.551
  0
LINE
  8
0
 10
217.113
 11
217.113
 20
-36.551
 21
-45.603
  0
LINE
  8
0
 10
217.113
 11
220.075
 20
-45.603
 21
-45.603
  0
LINE
  8
0
 10
220.075
 11
220.075
 20
-45.603
 21
-54.807
  0
LINE
  8
0
 10
220.075
 11
217.113
 20
-54.807
 21
-54.807
  0
LINE
  8
0
 10
217.113
 11
217.113
 20
-54.807
 21
-63.859
  0
LINE
  8
0
 10
217.113
 11
220.075
 20
-63.859
 21
-63.859
  0
LINE
  8
0
 10
220.075
 11
220.075
 20
-63.859
 21
-73.025
  0
LINE
  8
0
 10
220.075
 11
210.909
 20
-73.025
 21
-73.025
  0
LINE
  8
0
 10
210.909
 11
210.909
 20
-73.025
 21
-70.063
  0
LINE
  8
0
 10
210.909
 11
201.857
 20
-70.063
 21
-70.063
  0
LINE
  8
0
 10
201.857
 11
201.857
 20
-70.063
 21
-73.025
  0
LINE
  8
0
 10
201.857
 11
192.653
 20
-73.025
 21
-73.025
  0
LINE
  8
0
 10
192.653
 11
192.653
 20
-73.025
 21
-70.063
  0
LINE
  8
0
 10
192.653
 11
183.601
 20
-70.063
 21
-70.063
  0
LINE
  8
0
 10
183.601
 11
183.601
 20
-70.063
 21
-73.025
  0
LINE
  8
0
 10
183.601
 11
174.396
 20
-73.025
 21
-73.025
  0
LINE
  8
0
 10
174.396
 11
174.396
 20
-73.025
 21
-70.063
  0
LINE
  8
0
 10
174.396
 11
165.344
 20
-70.063
 21
-70.063
  0
LINE
  8
0
 10
165.344
 11
165.344
 20
-70.063
 21
-73.025
  0
LINE
  8
0
 10
165.344
 11
156.14
 20
-73.025
 21
-73.025
  0
LINE
  8
0
 10
156.14
 11
156.14
 20
-73.025
 21
-70.063
  0
LINE
  8
0
 10
156.14
 11
147.088
 20
-70.063
 21
-70.063
  0
LINE
  8
0
 10
147.088
 11
147.088
 20
-70.063
 21
-73.025
  0
LINE
  8
0
 10
147.088
 11
137.884
 20
-73.025
 21
-73.025
  0
LINE
  8
0
 10
137.884
 11
137.884
 20
-73.025
 21
-70.063
  0
LINE
  8
0
 10
137.884
 11
128.832
 20
-70.063
 21
-70.063
  0
LINE
  8
0
 10
128.832
 11
128.832
 20
-70.063
 21
-73.025
  0
LINE
  8
0
 10
128.832
 11
119.628
 20
-73.025
 21
-73.025
  0
LINE
  8
0
 10
119.628
 11
119.628
 20
-73.025
 21
-70.063
  0
LINE
  8
0
 10
119.628
 11
110.576
 20
-70.063
 21
-70.063
  0
LINE
  8
0
 10
110.576
 11
110.576
 20
-70.063
 21
-73.025
  0
LINE
  8
0
 10
110.576
 11
101.371
 20
-73.025
 21
-73.025
  0
LINE
  8
0
 10
101.371
 11
101.371
 20
-73.025
 21
-70.063
  0
LINE
  8
0
 10
101.371
 11
92.319
 20
-70.063
 21
-70.063
  0
LINE
  8
0
 10
92.319
 11
92.319
 20
-70.063
 21
-73.025
  0
LINE
  8
0
 10
92.319
 11
83.115
 20
-73.025
 21
-73.025
  0
LINE
  8
0
 10
83.115
 11
83.115
 20
-73.025
 21
-70.063
  0
LINE
  8
0
 10
83.115
 11
76.987
 20
-70.063
 21
-70.063
  0
LINE
  8
0
 10
76.987
 11
76.987
 20
-70.063
 21
-63.935
  0
LINE
  8
0
 10
76.987
 11
74.025
 20
-63.935
 21
-63.935
  0
LINE
  8
0
 10
74.025
 11
74.025
 20
-217.113
 21
-210.909
  0
LINE
  8
0
 10
74.025
 11
77.025
 20
-210.909
 21
-210.909
  0
LINE
  8
0
 10
77.025
 11
77.025
 20
-210.909
 21
-201.857
  0
LINE
  8
0
 10
77.025
 11
74.025
 20
-201.857
 21
-201.857
  0
LINE
  8
0
 10
74.025
 11
74.025
 20
-201.857
 21
-192.653
  0
LINE
  8
0
 10
74.025
 11
77.025
 20
-192.653
 21
-192.653
  0
LINE
  8
0
 10
77.025
 11
77.025
 20
-192.653
 21
-183.601
  0
LINE
  8
0
 10
77.025
 11
74.025
 20
-183.601
 21
-183.601
  0
LINE
  8
0
 10
74.025
 11
74.025
 20
-183.601
 21
-174.396
  0
LINE
  8
0
 10
74.025
 11
77.025
 20
-174.396
 21
-174.396
  0
LINE
  8
0
 10
77.025
 11
77.025
 20
-174.396
 21
-165.344
  0
LINE
  8
0
 10
77.025
 11
74.025
 20
-165.344
 21
-165.344
  0
LINE
  8
0
 10
74.025
 11
74.025
 20
-165.344
 21
-156.14
  0
LINE
  8
0
 10
74.025
 11
77.025
 20
-156.14
 21
-156.14
  0
LINE
  8
0
 10
77.025
 11
77.025
 20
-156.14
 21
-147.088
  0
LINE
  8
0
 10
77.025
 11
74.025
 20
-147.088
 21
-147.088
  0
LINE
  8
0
 10
74.025
 11
74.025
 20
-147.088
 21
-137.884
  0
LINE
  8
0
 10
74.025
 11
77.025
 20
-137.884
 21
-137.884
  0
LINE
  8
0
 10
77.025
 11
77.025
 20
-137.884
 21
-128.832
  0
LINE
  8
0
 10
77.025
 11
74.025
 20
-128.832
 21
-128.832
  0
LINE
  8
0
 10
74.025
 11
74.025
 20
-128.832
 21
-119.628
  0
LINE
  8
0
 10
74.025
 11
77.025
 20
-119.628
 21
-119.628
  0
LINE
  8
0
 10
77.025
 11
77.025
 20
-119.628
 21
-110.576
  0
LINE
  8
0
 10
77.025
 11
74.025
 20
-110.576
 21
-110.576
  0
LINE
  8
0
 10
74.025
 11
74.025
 20
-110.576
 21
-101.371
  0
LINE
  8
0
 10
74.025
 11
77.025
 20
-101.371
 21
-101.371
  0
LINE
  8
0
 10
77.025
 11
77.025
 20
-101.371
 21
-92.319
  0
LINE
  8
0
 10
77.025
 11
74.025
 20
-92.319
 21
-92.319
  0
LINE
  8
0
 10
74.025
 11
74.025
 20
-92.319
 21
-83.115
  0
LINE
  8
0
 10
74.025
 11
77.025
 20
-83.115
 21
-83.115
  0
LINE
  8
0
 10
77.025
 11
77.025
 20
-83.115
 21
-74.063
  0
LINE
  8
0
 10
77.025
 11
76.987
 20
-74.063
 21
-74.063
  0
LINE
  8
0
 10
76.987
 11
76.987
 20
-74.063
 21
-74.025
  0
LINE
  8
0
 10
76.987
 11
83.191
 20
-74.025
 21
-74.025
  0
LINE
  8
0
 10
83.191
 11
83.191
 20
-74.025
 21
-77.025
  0
LINE
  8
0
 10
83.191
 11
92.243
 20
-77.025
 21
-77.025
  0
LINE
  8
0
 10
92.243
 11
92.243
 20
-77.025
 21
-74.025
  0
LINE
  8
0
 10
92.243
 11
101.447
 20
-74.025
 21
-74.025
  0
LINE
  8
0
 10
101.447
 11
101.447
 20
-74.025
 21
-77.025
  0
LINE
  8
0
 10
101.447
 11
110.499
 20
-77.025
 21
-77.025
  0
LINE
  8
0
 10
110.499
 11
110.499
 20
-77.025
 21
-74.025
  0
LINE
  8
0
 10
110.499
 11
119.704
 20
-74.025
 21
-74.025
  0
LINE
  8
0
 10
119.704
 11
119.704
 20
-74.025
 21
-77.025
  0
LINE
  8
0
 10
119.704
 11
128.756
 20
-77.025
 21
-77.025
  0
LINE
  8
0
 10
128.756
 11
128.756
 20
-77.025
 21
-74.025
  0
LINE
  8
0
 10
128.756
 11
137.96
 20
-74.025
 21
-74.025
  0
LINE
  8
0
 10
137.96
 11
137.96
 20
-74.025
 21
-77.025
  0
LINE
  8
0
 10
137.96
 11
147.012
 20
-77.025
 21
-77.025
  0
LINE
  8
0
 10
147.012
 11
147.012
 20
-77.025
 21
-74.025
  0
LINE
  8
0
 10
147.012
 11
156.216
 20
-74.025
 21
-74.025
  0
LINE
  8
0
 10
156.216
 11
156.216
 20
-74.025
 21
-77.025
  0
LINE
  8
0
 10
156.216
 11
165.268
 20
-77.025
 21
-77.025
  0
LINE
  8
0
 10
165.268
 11
165.268
 20
-77.025
 21
-74.025
  0
LINE
  8
0
 10
165.268
 11
174.472
 20
-74.025
 21
-74.025
  0
LINE
  8
0
 10
174.472
 11
174.472
 20
-74.025
 21
-77.025
  0
LINE
  8
0
 10
174.472
 11
183.524
 20
-77.025
 21
-77.025
  0
LINE
  8
0
 10
183.524
 11
183.524
 20
-77.025
 21
-74.025
  0
LINE
  8
0
 10
183.524
 11
192.729
 20
-74.025
 21
-74.025
  0
LINE
  8
0
 10
192.729
 11
192.729
 20
-74.025
 21
-77.025
  0
LINE
  8
0
 10
192.729
 11
201.781
 20
-77.025
 21
-77.025
  0
LINE
  8
0
 10
201.781
 11
201.781
 20
-77.025
 21
-74.025
  0
LINE
  8
0
 10
201.781
 11
210.985
 20
-74.025
 21
-74.025
  0
LINE
  8
0
 10
210.985
 11
210.985
 20
-74.025
 21
-77.025
  0
LINE
  8
0
 10
210.985
 11
220.037
 20
-77.025
 21
-77.025
  0
LINE
  8
0
 10
220.037
 11
220.037
 20
-77.025
 21
-76.987
  0
LINE
  8
0
 10
220.037
 11
220.075
 20
-76.987
 21
-76.987
  0
LINE
  8
0
 10
220.075
 11
220.075
 20
-76.987
 21
-83.191
  0
LINE
  8
0
 10
220.075
 11
217.075
 20
-83.191
 21
-83.191
  0
LINE
  8
0
 10
217.075
 11
217.075
 20
-83.191
 21
-92.243
  0
LINE
  8
0
 10
217.075
 11
220.075
 20
-92.243
 21
-92.243
  0
LINE
  8
0
 10
220.075
 11
220.075
 20
-92.243
 21
-101.447
  0
LINE
  8
0
 10
220.075
 11
217.075
 20
-101.447
 21
-101.447
  0
LINE
  8
0
 10
217.075
 11
217.075
 20
-101.447
 21
-110.499
  0
LINE
  8
0
 10
217.075
 11
220.075
 20
-110.499
 21
-110.499
  0
LINE
  8
0
 10
220.075
 11
220.075
 20
-110.499
 21
-119.704
  0
LINE
  8
0
 10
220.075
 11
217.075
 20
-119.704
 21
-119.704
  0
LINE
  8
0
 10
217.075
 11
217.075
 20
-119.704
 21
-128.756
  0
LINE
  8
0
 10
217.075
 11
220.075
 20
-128.756
 21
-128.756
  0
LINE
  8
0
 10
220.075
 11
220.075
 20
-128.756
 21
-137.96
  0
LINE
  8
0
 10
220.075
 11
217.075
 20
-137.96
 21
-137.96
  0
LINE
  8
0
 10
217.075
 11
217.075
 20
-137.96
 21
-147.012
  0
LINE
  8
0
 10
217.075
 11
220.075
 20
-147.012
 21
-147.012
  0
LINE
  8
0
 10
220.075
 11
220.075
 20
-147.012
 21
-156.216
  0
LINE
  8
0
 10
220.075
 11
217.075
 20
-156.216
 21
-156.216
  0
LINE
  8
0
 10
217.075
 11
217.075
 20
-156.216
 21
-165.268
  0
LINE
  8
0
 10
217.075
 11
220.075
 20
-165.268
 21
-165.268
  0
LINE
  8
0
 10
220.075
 11
220.075
 20
-165.268
 21
-174.472
  0
LINE
  8
0
 10
220.075
 11
217.075
 20
-174.472
 21
-174.472
  0
LINE
  8
0
 10
217.075
 11
217.075
 20
-174.472
 21
-183.524
  0
LINE
  8
0
 10
217.075
 11
220.075
 20
-183.524
 21
-183.524
  0
LINE
  8
0
 10
220.075
 11
220.075
 20
-183.524
 21
-192.729
  0
LINE
  8
0
 10
220.075
 11
217.075
 20
-192.729
 21
-192.729
  0
LINE
  8
0
 10
217.075
 11
217.075
 20
-192.729
 21
-201.781
  0
LINE
  8
0
 10
217.075
 11
220.075
 20
-201.781
 21
-201.781
  0
LINE
  8
0
 10
220.075
 11
220.075
 20
-201.781
 21
-210.985
  0
LINE
  8
0
 10
220.075
 11
217.075
 20
-210.985
 21
-210.985
  0
LINE
  8
0
 10
217.075
 11
217.075
 20
-210.985
 21
-220.037
  0
LINE
  8
0
 10
217.075
 11
217.113
 20
-220.037
 21
-220.037
  0
LINE
  8
0
 10
217.113
 11
217.113
 20
-220.037
 21
-220.075
  0
LINE
  8
0
 10
217.113
 11
210.909
 20
-220.075
 21
-220.075
  0
LINE
  8
0
 10
210.909
 11
210.909
 20
-220.075
 21
-217.075
  0
LINE
  8
0
 10
210.909
 11
201.857
 20
-217.075
 21
-217.075
  0
LINE
  8
0
 10
201.857
 11
201.857
 20
-217.075
 21
-220.075
  0
LINE
  8
0
 10
201.857
 11
192.653
 20
-220.075
 21
-220.075
  0
LINE
  8
0
 10
192.653
 11
192.653
 20
-220.075
 21
-217.075
  0
LINE
  8
0
 10
192.653
 11
183.601
 20
-217.075
 21
-217.075
  0
LINE
  8
0
 10
183.601
 11
183.601
 20
-217.075
 21
-220.075
  0
LINE
  8
0
 10
183.601
 11
174.396
 20
-220.075
 21
-220.075
  0
LINE
  8
0
 10
174.396
 11
174.396
 20
-220.075
 21
-217.075
  0
LINE
  8
0
 10
174.396
 11
165.344
 20
-217.075
 21
-217.075
  0
LINE
  8
0
 10
165.344
 11
165.344
 20
-217.075
 21
-220.075
  0
LINE
  8
0
 10
165.344
 11
156.14
 20
-220.075
 21
-220.075
  0
LINE
  8
0
 10
156.14
 11
156.14
 20
-220.075
 21
-217.075
  0
LINE
  8
0
 10
156.14
 11
147.088
 20
-217.075
 21
-217.075
  0
LINE
  8
0
 10
147.088
 11
147.088
 20
-217.075
 21
-220.075
  0
LINE
  8
0
 10
147.088
 11
137.884
 20
-220.075
 21
-220.075
  0
LINE
  8
0
 10
137.884
 11
137.884
 20
-220.075
 21
-217.075
  0
LINE
  8
0
 10
137.884
 11
128.832
 20
-217.075
 21
-217.075
  0
LINE
  8
0
 10
128.832
 11
128.832
 20
-217.075
 21
-220.075
  0
LINE
  8
0
 10
128.832
 11
119.628
 20
-220.075
 21
-220.075
  0
LINE
  8
0
 10
119.628
 11
119.628
 20
-220.075
 21
-217.075
  0
LINE
  8
0
 10
119.628
 11
110.576
 20
-217.075
 21
-217.075
  0
LINE
  8
0
 10
110.576
 11
110.576
 20
-217.075
 21
-220.075
  0
LINE
  8
0
 10
110.576
 11
101.371
 20
-220.075
 21
-220.075
  0
LINE
  8
0
 10
101.371
 11
101.371
 20
-220.075
 21
-217.075
  0
LINE
  8
0
 10
101.371
 11
92.319
 20
-217.075
 21
-217.075
  0
LINE
  8
0
 10
92.319
 11
92.319
 20
-217.075
 21
-220.075
  0
LINE
  8
0
 10
92.319
 11
83.115
 20
-220.075
 21
-220.075
  0
LINE
  8
0
 10
83.115
 11
83.115
 20
-220.075
 21
-217.075
  0
LINE
  8
0
 10
83.115
 11
74.063
 20
-217.075
 21
-217.075
  0
LINE
  8
0
 10
74.063
 11
74.063
 20
-217.075
 21
-217.113
  0
LINE
  8
0
 10
74.063
 11
74.025
 20
-217.113
 21
-217.113
  0
LINE
  8
0
 10
143.166
 11
143.166
 20
-148.007
 21
-146.093
  0
LINE
  8
0
 10
143.166
 11
144.056
 20
-146.093
 21
-144.398
  0
LINE
  8
0
 10
144.056
 11
145.632
 20
-144.398
 21
-143.31
  0
LINE
  8
0
 10
145.632
 11
147.532
 20
-143.31
 21
-143.079
  0
LINE
  8
0
 10
147.532
 11
149.322
 20
-143.079
 21
-143.758
  0
LINE
  8
0
 10
149.322
 11
150.592
 20
-143.758
 21
-145.191
  0
LINE
  8
0
 10
150.592
 11
151.05
 20
-145.191
 21
-147.05
  0
LINE
  8
0
 10
151.05
 11
150.592
 20
-147.05
 21
-148.909
  0
LINE
  8
0
 10
150.592
 11
149.322
 20
-148.909
 21
-150.342
  0
LINE
  8
0
 10
149.322
 11
147.532
 20
-150.342
 21
-151.021
  0
LINE
  8
0
 10
147.532
 11
145.632
 20
-151.021
 21
-150.79
  0
LINE
  8
0
 10
145.632
 11
144.056
 20
-150.79
 21
-149.702
  0
LINE
  8
0
 10
144.056
 11
143.166
 20
-149.702
 21
-148.007
  0
LINE
  8
0
 10
220.037
 11
220.037
 20
72.987
 21
73.025
  0
LINE
  8
0
 10
220.037
 11
220.075
 20
73.025
 21
73.025
  0
LINE
  8
0
 10
220.075
 11
220.075
 20
73.025
 21
72.987
  0
LINE
  8
0
 10
220.075
 11
220.037
 20
72.987
 21
72.987
  0
LINE
  8
0
 10
221.075
 11
221.075
 20
-210.985
 21
-201.781
  0
LINE
  8
0
 10
221.075
 11
224.075
 20
-201.781
 21
-201.781
  0
LINE
  8
0
 10
224.075
 11
224.075
 20
-201.781
 21
-192.729
  0
LINE
  8
0
 10
224.075
 11
221.075
 20
-192.729
 21
-192.729
  0
LINE
  8
0
 10
221.075
 11
221.075
 20
-192.729
 21
-183.524
  0
LINE
  8
0
 10
221.075
 11
224.075
 20
-183.524
 21
-183.524
  0
LINE
  8
0
 10
224.075
 11
224.075
 20
-183.524
 21
-174.472
  0
LINE
  8
0
 10
224.075
 11
221.075
 20
-174.472
 21
-174.472
  0
LINE
  8
0
 10
221.075
 11
221.075
 20
-174.472
 21
-165.268
  0
LINE
  8
0
 10
221.075
 11
224.075
 20
-165.268
 21
-165.268
  0
LINE
  8
0
 10
224.075
 11
224.075
 20
-165.268
 21
-156.216
  0
LINE
  8
0
 10
224.075
 11
221.075
 20
-156.216
 21
-156.216
  0
LINE
  8
0
 10
221.075
 11
221.075
 20
-156.216
 21
-147.012
  0
LINE
  8
0
 10
221.075
 11
224.075
 20
-147.012
 21
-147.012
  0
LINE
  8
0
 10
224.075
 11
224.075
 20
-147.012
 21
-137.96
  0
LINE
  8
0
 10
224.075
 11
221.075
 20
-137.96
 21
-137.96
  0
LINE
  8
0
 10
221.075
 11
221.075
 20
-137.96
 21
-128.756
  0
LINE
  8
0
 10
221.075
 11
224.075
 20
-128.756
 21
-128.756
  0
LINE
  8
0
 10
224.075
 11
224.075
 20
-128.756
 21
-119.704
  0
LINE
  8
0
 10
224.075
 11
221.075
 20
-119.704
 21
-119.704
  0
LINE
  8
0
 10
221.075
 11
221.075
 20
-119.704
 21
-110.499
  0
LINE
  8
0
 10
221.075
 11
224.075
 20
-110.499
 21
-110.499
  0
LINE
  8
0
 10
224.075
 11
224.075
 20
-110.499
 21
-101.447
  0
LINE
  8
0
 10
224.075
 11
221.075
 20
-101.447
 21
-101.447
  0
LINE
  8
0
 10
221.075
 11
221.075
 20
-101.447
 21
-92.243
  0
LINE
  8
0
 10
221.075
 11
224.075
 20
-92.243
 21
-92.243
  0
LINE
  8
0
 10
224.075
 11
224.075
 20
-92.243
 21
-83.191
  0
LINE
  8
0
 10
224.075
 11
221.075
 20
-83.191
 21
-83.191
  0
LINE
  8
0
 10
221.075
 11
221.075
 20
-83.191
 21
-76.987
  0
LINE
  8
0
 10
221.075
 11
221.113
 20
-76.987
 21
-76.987
  0
LINE
  8
0
 10
221.113
 11
221.113
 20
-76.987
 21
-77.025
  0
LINE
  8
0
 10
221.113
 11
230.165
 20
-77.025
 21
-77.025
  0
LINE
  8
0
 10
230.165
 11
230.165
 20
-77.025
 21
-74.025
  0
LINE
  8
0
 10
230.165
 11
239.369
 20
-74.025
 21
-74.025
  0
LINE
  8
0
 10
239.369
 11
239.369
 20
-74.025
 21
-77.025
  0
LINE
  8
0
 10
239.369
 11
248.421
 20
-77.025
 21
-77.025
  0
LINE
  8
0
 10
248.421
 11
248.421
 20
-77.025
 21
-74.025
  0
LINE
  8
0
 10
248.421
 11
257.626
 20
-74.025
 21
-74.025
  0
LINE
  8
0
 10
257.626
 11
257.626
 20
-74.025
 21
-77.025
  0
LINE
  8
0
 10
257.626
 11
266.678
 20
-77.025
 21
-77.025
  0
LINE
  8
0
 10
266.678
 11
266.678
 20
-77.025
 21
-74.025
  0
LINE
  8
0
 10
266.678
 11
275.882
 20
-74.025
 21
-74.025
  0
LINE
  8
0
 10
275.882
 11
275.882
 20
-74.025
 21
-77.025
  0
LINE
  8
0
 10
275.882
 11
284.934
 20
-77.025
 21
-77.025
  0
LINE
  8
0
 10
284.934
 11
284.934
 20
-77.025
 21
-74.025
  0
LINE
  8
0
 10
284.934
 11
294.138
 20
-74.025
 21
-74.025
  0
LINE
  8
0
 10
294.138
 11
294.138
 20
-74.025
 21
-77.025
  0
LINE
  8
0
 10
294.138
 11
303.19
 20
-77.025
 21
-77.025
  0
LINE
  8
0
 10
303.19
 11
303.19
 20
-77.025
 21
-74.025
  0
LINE
  8
0
 10
303.19
 11
312.394
 20
-74.025
 21
-74.025
  0
LINE
  8
0
 10
312.394
 11
312.394
 20
-74.025
 21
-77.025
  0
LINE
  8
0
 10
312.394
 11
321.446
 20
-77.025
 21
-77.025
  0
LINE
  8
0
 10
321.446
 11
321.446
 20
-77.025
 21
-74.025
  0
LINE
  8
0
 10
321.446
 11
330.651
 20
-74.025
 21
-74.025
  0
LINE
  8
0
 10
330.651
 11
330.651
 20
-74.025
 21
-77.025
  0
LINE
  8
0
 10
330.651
 11
339.703
 20
-77.025
 21
-77.025
  0
LINE
  8
0
 10
339.703
 11
339.703
 20
-77.025
 21
-74.025
  0
LINE
  8
0
 10
339.703
 11
348.907
 20
-74.025
 21
-74.025
  0
LINE
  8
0
 10
348.907
 11
348.907
 20
-74.025
 21
-77.025
  0
LINE
  8
0
 10
348.907
 11
357.959
 20
-77.025
 21
-77.025
  0
LINE
  8
0
 10
357.959
 11
357.959
 20
-77.025
 21
-74.025
  0
LINE
  8
0
 10
357.959
 11
364.163
 20
-74.025
 21
-74.025
  0
LINE
  8
0
 10
364.163
 11
364.163
 20
-74.025
 21
-74.063
  0
LINE
  8
0
 10
364.163
 11
364.125
 20
-74.063
 21
-74.063
  0
LINE
  8
0
 10
364.125
 11
364.125
 20
-74.063
 21
-83.115
  0
LINE
  8
0
 10
364.125
 11
367.125
 20
-83.115
 21
-83.115
  0
LINE
  8
0
 10
367.125
 11
367.125
 20
-83.115
 21
-92.319
  0
LINE
  8
0
 10
367.125
 11
364.125
 20
-92.319
 21
-92.319
  0
LINE
  8
0
 10
364.125
 11
364.125
 20
-92.319
 21
-101.371
  0
LINE
  8
0
 10
364.125
 11
367.125
 20
-101.371
 21
-101.371
  0
LINE
  8
0
 10
367.125
 11
367.125
 20
-101.371
 21
-110.576
  0
LINE
  8
0
 10
367.125
 11
364.125
 20
-110.576
 21
-110.576
  0
LINE
  8
0
 10
364.125
 11
364.125
 20
-110.576
 21
-119.628
  0
LINE
  8
0
 10
364.125
 11
367.125
 20
-119.628
 21
-119.628
  0
LINE
  8
0
 10
367.125
 11
367.125
 20
-119.628
 21
-128.832
  0
LINE
  8
0
 10
367.125
 11
364.125
 20
-128.832
 21
-128.832
  0
LINE
  8
0
 10
364.125
 11
364.125
 20
-128.832
 21
-137.884
  0
LINE
  8
0
 10
364.125
 11
367.125
 20
-137.884
 21
-137.884
  0
LINE
  8
0
 10
367.125
 11
367.125
 20
-137.884
 21
-147.088
  0
LINE
  8
0
 10
367.125
 11
364.125
 20
-147.088
 21
-147.088
  0
LINE
  8
0
 10
364.125
 11
364.125
 20
-147.088
 21
-156.14
  0
LINE
  8
0
 10
364.125
 11
367.125
 20
-156.14
 21
-156.14
  0
LINE
  8
0
 10
367.125
 11
367.125
 20
-156.14
 21
-165.344
  0
LINE
  8
0
 10
367.125
 11
364.125
 20
-165.344
 21
-165.344
  0
LINE
  8
0
 10
364.125
 11
364.125
 20
-165.344
 21
-174.396
  0
LINE
  8
0
 10
364.125
 11
367.125
 20
-174.396
 21
-174.396
  0
LINE
  8
0
 10
367.125
 11
367.125
 20
-174.396
 21
-183.601
  0
LINE
  8
0
 10
367.125
 11
364.125
 20
-183.601
 21
-183.601
  0
LINE
  8
0
 10
364.125
 11
364.125
 20
-183.601
 21
-192.653
  0
LINE
  8
0
 10
364.125
 11
367.125
 20
-192.653
 21
-192.653
  0
LINE
  8
0
 10
367.125
 11
367.125
 20
-192.653
 21
-201.857
  0
LINE
  8
0
 10
367.125
 11
364.125
 20
-201.857
 21
-201.857
  0
LINE
  8
0
 10
364.125
 11
364.125
 20
-201.857
 21
-210.909
  0
LINE
  8
0
 10
364.125
 11
367.125
 20
-210.909
 21
-210.909
  0
LINE
  8
0
 10
367.125
 11
367.125
 20
-210.909
 21
-217.113
  0
LINE
  8
0
 10
367.125
 11
367.087
 20
-217.113
 21
-217.113
  0
LINE
  8
0
 10
367.087
 11
367.087
 20
-217.113
 21
-217.075
  0
LINE
  8
0
 10
367.087
 11
358.035
 20
-217.075
 21
-217.075
  0
LINE
  8
0
 10
358.035
 11
358.035
 20
-217.075
 21
-220.075
  0
LINE
  8
0
 10
358.035
 11
348.831
 20
-220.075
 21
-220.075
  0
LINE
  8
0
 10
348.831
 11
348.831
 20
-220.075
 21
-217.075
  0
LINE
  8
0
 10
348.831
 11
339.779
 20
-217.075
 21
-217.075
  0
LINE
  8
0
 10
339.779
 11
339.779
 20
-217.075
 21
-220.075
  0
LINE
  8
0
 10
339.779
 11
330.574
 20
-220.075
 21
-220.075
  0
LINE
  8
0
 10
330.574
 11
330.574
 20
-220.075
 21
-217.075
  0
LINE
  8
0
 10
330.574
 11
321.522
 20
-217.075
 21
-217.075
  0
LINE
  8
0
 10
321.522
 11
321.522
 20
-217.075
 21
-220.075
  0
LINE
  8
0
 10
321.522
 11
312.318
 20
-220.075
 21
-220.075
  0
LINE
  8
0
 10
312.318
 11
312.318
 20
-220.075
 21
-217.075
  0
LINE
  8
0
 10
312.318
 11
303.266
 20
-217.075
 21
-217.075
  0
LINE
  8
0
 10
303.266
 11
303.266
 20
-217.075
 21
-220.075
  0
LINE
  8
0
 10
303.266
 11
294.062
 20
-220.075
 21
-220.075
  0
LINE
  8
0
 10
294.062
 11
294.062
 20
-220.075
 21
-217.075
  0
LINE
  8
0
 10
294.062
 11
285.01
 20
-217.075
 21
-217.075
  0
LINE
  8
0
 10
285.01
 11
285.01
 20
-217.075
 21
-220.075
  0
LINE
  8
0
 10
285.01
 11
275.806
 20
-220.075
 21
-220.075
  0
LINE
  8
0
 10
275.806
 11
275.806
 20
-220.075
 21
-217.075
  0
LINE
  8
0
 10
275.806
 11
266.754
 20
-217.075
 21
-217.075
  0
LINE
  8
0
 10
266.754
 11
266.754
 20
-217.075
 21
-220.075
  0
LINE
  8
0
 10
266.754
 11
257.549
 20
-220.075
 21
-220.075
  0
LINE
  8
0
 10
257.549
 11
257.549
 20
-220.075
 21
-217.075
  0
LINE
  8
0
 10
257.549
 11
248.497
 20
-217.075
 21
-217.075
  0
LINE
  8
0
 10
248.497
 11
248.497
 20
-217.075
 21
-220.075
  0
LINE
  8
0
 10
248.497
 11
239.293
 20
-220.075
 21
-220.075
  0
LINE
  8
0
 10
239.293
 11
239.293
 20
-220.075
 21
-217.075
  0
LINE
  8
0
 10
239.293
 11
230.241
 20
-217.075
 21
-217.075
  0
LINE
  8
0
 10
230.241
 11
230.241
 20
-217.075
 21
-220.075
  0
LINE
  8
0
 10
230.241
 11
224.037
 20
-220.075
 21
-220.075
  0
LINE
  8
0
 10
224.037
 11
224.037
 20
-220.075
 21
-220.037
  0
LINE
  8
0
 10
224.037
 11
224.075
 20
-220.037
 21
-220.037
  0
LINE
  8
0
 10
224.075
 11
224.075
 20
-220.037
 21
-210.985
  0
LINE
  8
0
 10
224.075
 11
221.075
 20
-210.985
 21
-210.985
  0
LINE
  8
0
 10
221.075
 11
221.075
 20
-73.025
 21
-72.987
  0
LINE
  8
0
 10
221.075
 11
221.113
 20
-72.987
 21
-72.987
  0
LINE
  8
0
 10
221.113
 11
221.113
 20
-72.987
 21
-73.025
  0
LINE
  8
0
 10
221.113
 11
221.075
 20
-73.025
 21
-73.025
  0
LINE
  8
0
 10
221.075
 11
221.075
 20
-63.935
 21
-54.731
  0
LINE
  8
0
 10
221.075
 11
224.037
 20
-54.731
 21
-54.731
  0
LINE
  8
0
 10
224.037
 11
224.037
 20
-54.731
 21
-45.679
  0
LINE
  8
0
 10
224.037
 11
221.075
 20
-45.679
 21
-45.679
  0
LINE
  8
0
 10
221.075
 11
221.075
 20
-45.679
 21
-36.474
  0
LINE
  8
0
 10
221.075
 11
224.037
 20
-36.474
 21
-36.474
  0
LINE
  8
0
 10
224.037
 11
224.037
 20
-36.474
 21
-27.422
  0
LINE
  8
0
 10
224.037
 11
221.075
 20
-27.422
 21
-27.422
  0
LINE
  8
0
 10
221.075
 11
221.075
 20
-27.422
 21
-18.218
  0
LINE
  8
0
 10
221.075
 11
224.037
 20
-18.218
 21
-18.218
  0
LINE
  8
0
 10
224.037
 11
224.037
 20
-18.218
 21
-9.166
  0
LINE
  8
0
 10
224.037
 11
221.075
 20
-9.166
 21
-9.166
  0
LINE
  8
0
 10
221.075
 11
221.075
 20
-9.166
 21
0.038
  0
LINE
  8
0
 10
221.075
 11
224.037
 20
0.038
 21
0.038
  0
LINE
  8
0
 10
224.037
 11
224.037
 20
0.038
 21
9.09
  0
LINE
  8
0
 10
224.037
 11
221.075
 20
9.09
 21
9.09
  0
LINE
  8
0
 10
221.075
 11
221.075
 20
9.09
 21
18.294
  0
LINE
  8
0
 10
221.075
 11
224.037
 20
18.294
 21
18.294
  0
LINE
  8
0
 10
224.037
 11
224.037
 20
18.294
 21
27.346
  0
LINE
  8
0
 10
224.037
 11
221.075
 20
27.346
 21
27.346
  0
LINE
  8
0
 10
221.075
 11
221.075
 20
27.346
 21
36.551
  0
LINE
  8
0
 10
221.075
 11
224.037
 20
36.551
 21
36.551
  0
LINE
  8
0
 10
224.037
 11
224.037
 20
36.551
 21
45.603
  0
LINE
  8
0
 10
224.037
 11
221.075
 20
45.603
 21
45.603
  0
LINE
  8
0
 10
221.075
 11
221.075
 20
45.603
 21
54.807
  0
LINE
  8
0
 10
221.075
 11
224.037
 20
54.807
 21
54.807
  0
LINE
  8
0
 10
224.037
 11
224.037
 20
54.807
 21
63.859
  0
LINE
  8
0
 10
224.037
 11
221.075
 20
63.859
 21
63.859
  0
LINE
  8
0
 10
221.075
 11
221.075
 20
63.859
 21
73.025
  0
LINE
  8
0
 10
221.075
 11
230.241
 20
73.025
 21
73.025
  0
LINE
  8
0
 10
230.241
 11
230.241
 20
73.025
 21
70.063
  0
LINE
  8
0
 10
230.241
 11
239.293
 20
70.063
 21
70.063
  0
LINE
  8
0
 10
239.293
 11
239.293
 20
70.063
 21
73.025
  0
LINE
  8
0
 10
239.293
 11
248.497
 20
73.025
 21
73.025
  0
LINE
  8
0
 10
248.497
 11
248.497
 20
73.025
 21
70.063
  0
LINE
  8
0
 10
248.497
 11
257.549
 20
70.063
 21
70.063
  0
LINE
  8
0
 10
257.549
 11
257.549
 20
70.063
 21
73.025
  0
LINE
  8
0
 10
257.549
 11
266.754
 20
73.025
 21
73.025
  0
LINE
  8
0
 10
266.754
 11
266.754
 20
73.025
 21
70.063
  0
LINE
  8
0
 10
266.754
 11
275.806
 20
70.063
 21
70.063
  0
LINE
  8
0
 10
275.806
 11
275.806
 20
70.063
 21
73.025
  0
LINE
  8
0
 10
275.806
 11
285.01
 20
73.025
 21
73.025
  0
LINE
  8
0
 10
285.01
 11
285.01
 20
73.025
 21
70.063
  0
LINE
  8
0
 10
285.01
 11
294.062
 20
70.063
 21
70.063
  0
LINE
  8
0
 10
294.062
 11
294.062
 20
70.063
 21
73.025
  0
LINE
  8
0
 10
294.062
 11
303.266
 20
73.025
 21
73.025
  0
LINE
  8
0
 10
303.266
 11
303.266
 20
73.025
 21
70.063
  0
LINE
  8
0
 10
303.266
 11
312.318
 20
70.063
 21
70.063
  0
LINE
  8
0
 10
312.318
 11
312.318
 20
70.063
 21
73.025
  0
LINE
  8
0
 10
312.318
 11
321.522
 20
73.025
 21
73.025
  0
LINE
  8
0
 10
321.522
 11
321.522
 20
73.025
 21
70.063
  0
LINE
  8
0
 10
321.522
 11
330.574
 20
70.063
 21
70.063
  0
LINE
  8
0
 10
330.574
 11
330.574
 20
70.063
 21
73.025
  0
LINE
  8
0
 10
330.574
 11
339.779
 20
73.025
 21
73.025
  0
LINE
  8
0
 10
339.779
 11
339.779
 20
73.025
 21
70.063
  0
LINE
  8
0
 10
339.779
 11
348.831
 20
70.063
 21
70.063
  0
LINE
  8
0
 10
348.831
 11
348.831
 20
70.063
 21
73.025
  0
LINE
  8
0
 10
348.831
 11
358.035
 20
73.025
 21
73.025
  0
LINE
  8
0
 10
358.035
 11
358.035
 20
73.025
 21
70.063
  0
LINE
  8
0
 10
358.035
 11
364.163
 20
70.063
 21
70.063
  0
LINE
  8
0
 10
364.163
 11
364.163
 20
70.063
 21
63.935
  0
LINE
  8
0
 10
364.163
 11
367.125
 20
63.935
 21
63.935
  0
LINE
  8
0
 10
367.125
 11
367.125
 20
63.935
 21
54.731
  0
LINE
  8
0
 10
367.125
 11
364.163
 20
54.731
 21
54.731
  0
LINE
  8
0
 10
364.163
 11
364.163
 20
54.731
 21
45.679
  0
LINE
  8
0
 10
364.163
 11
367.125
 20
45.679
 21
45.679
  0
LINE
  8
0
 10
367.125
 11
367.125
 20
45.679
 21
36.474
  0
LINE
  8
0
 10
367.125
 11
364.163
 20
36.474
 21
36.474
  0
LINE
  8
0
 10
364.163
 11
364.163
 20
36.474
 21
27.422
  0
LINE
  8
0
 10
364.163
 11
367.125
 20
27.422
 21
27.422
  0
LINE
  8
0
 10
367.125
 11
367.125
 20
27.422
 21
18.218
  0
LINE
  8
0
 10
367.125
 11
364.163
 20
18.218
 21
18.218
  0
LINE
  8
0
 10
364.163
 11
364.163
 20
18.218
 21
9.166
  0
LINE
  8
0
 10
364.163
 11
367.125
 20
9.166
 21
9.166
  0
LINE
  8
0
 10
367.125
 11
367.125
 20
9.166
 21
-0.038
  0
LINE
  8
0
 10
367.125
 11
364.163
 20
-0.038
 21
-0.038
  0
LINE
  8
0
 10
364.163
 11
364.163
 20
-0.038
 21
-9.09
  0
LINE
  8
0
 10
364.163
 11
367.125
 20
-9.09
 21
-9.09
  0
LINE
  8
0
 10
367.125
 11
367.125
 20
-9.09
 21
-18.294
  0
LINE
  8
0
 10
367.125
 11
364.163
 20
-18.294
 21
-18.294
  0
LINE
  8
0
 10
364.163
 11
364.163
 20
-18.294
 21
-27.346
  0
LINE
  8
0
 10
364.163
 11
367.125
 20
-27.346
 21
-27.346
  0
LINE
  8
0
 10
367.125
 11
367.125
 20
-27.346
 21
-36.551
  0
LINE
  8
0
 10
367.125
 11
364.163
 20
-36.551
 21
-36.551
  0
LINE
  8
0
 10
364.163
 11
364.163
 20
-36.551
 21
-45.603
  0
LINE
  8
0
 10
364.163
 11
367.125
 20
-45.603
 21
-45.603
  0
LINE
  8
0
 10
367.125
 11
367.125
 20
-45.603
 21
-54.807
  0
LINE
  8
0
 10
367.125
 11
364.163
 20
-54.807
 21
-54.807
  0
LINE
  8
0
 10
364.163
 11
364.163
 20
-54.807
 21
-63.859
  0
LINE
  8
0
 10
364.163
 11
367.125
 20
-63.859
 21
-63.859
  0
LINE
  8
0
 10
367.125
 11
367.125
 20
-63.859
 21
-73.025
  0
LINE
  8
0
 10
367.125
 11
357.959
 20
-73.025
 21
-73.025
  0
LINE
  8
0
 10
357.959
 11
357.959
 20
-73.025
 21
-70.063
  0
LINE
  8
0
 10
357.959
 11
348.907
 20
-70.063
 21
-70.063
  0
LINE
  8
0
 10
348.907
 11
348.907
 20
-70.063
 21
-73.025
  0
LINE
  8
0
 10
348.907
 11
339.703
 20
-73.025
 21
-73.025
  0
LINE
  8
0
 10
339.703
 11
339.703
 20
-73.025
 21
-70.063
  0
LINE
  8
0
 10
339.703
 11
330.651
 20
-70.063
 21
-70.063
  0
LINE
  8
0
 10
330.651
 11
330.651
 20
-70.063
 21
-73.025
  0
LINE
  8
0
 10
330.651
 11
321.446
 20
-73.025
 21
-73.025
  0
LINE
  8
0
 10
321.446
 11
321.446
 20
-73.025
 21
-70.063
  0
LINE
  8
0
 10
321.446
 11
312.394
 20
-70.063
 21
-70.063
  0
LINE
  8
0
 10
312.394
 11
312.394
 20
-70.063
 21
-73.025
  0
LINE
  8
0
 10
312.394
 11
303.19
 20
-73.025
 21
-73.025
  0
LINE
  8
0
 10
303.19
 11
303.19
 20
-73.025
 21
-70.063
  0
LINE
  8
0
 10
303.19
 11
294.138
 20
-70.063
 21
-70.063
  0
LINE
  8
0
 10
294.138
 11
294.138
 20
-70.063
 21
-73.025
  0
LINE
  8
0
 10
294.138
 11
284.934
 20
-73.025
 21
-73.025
  0
LINE
  8
0
 10
284.934
 11
284.934
 20
-73.025
 21
-70.063
  0
LINE
  8
0
 10
284.934
 11
275.882
 20
-70.063
 21
-70.063
  0
LINE
  8
0
 10
275.882
 11
275.882
 20
-70.063
 21
-73.025
  0
LINE
  8
0
 10
275.882
 11
266.678
 20
-73.025
 21
-73.025
  0
LINE
  8
0
 10
266.678
 11
266.678
 20
-73.025
 21
-70.063
  0
LINE
  8
0
 10
266.678
 11
257.626
 20
-70.063
 21
-70.063
  0
LINE
  8
0
 10
257.626
 11
257.626
 20
-70.063
 21
-73.025
  0
LINE
  8
0
 10
257.626
 11
248.421
 20
-73.025
 21
-73.025
  0
LINE
  8
0
 10
248.421
 11
248.421
 20
-73.025
 21
-70.063
  0
LINE
  8
0
 10
248.421
 11
239.369
 20
-70.063
 21
-70.063
  0
LINE
  8
0
 10
239.369
 11
239.369
 20
-70.063
 21
-73.025
  0
LINE
  8
0
 10
239.369
 11
230.165
 20
-73.025
 21
-73.025
  0
LINE
  8
0
 10
230.165
 11
230.165
 20
-73.025
 21
-70.063
  0
LINE
  8
0
 10
230.165
 11
224.037
 20
-70.063
 21
-70.063
  0
LINE
  8
0
 10
224.037
 11
224.037
 20
-70.063
 21
-63.935
  0
LINE
  8
0
 10
224.037
 11
221.075
 20
-63.935
 21
-63.935
  0
LINE
  8
0
 10
367.087
 11
367.087
 20
72.987
 21
73.025
  0
LINE
  8
0
 10
367.087
 11
367.125
 20
73.025
 21
73.025
  0
LINE
  8
0
 10
367.125
 11
367.125
 20
73.025
 21
72.987
  0
LINE
  8
0
 10
367.125
 11
367.087
 20
72.987
 21
72.987
  0
ENDSEC
  0
SECTION
  2
OBJECTS
  0
DICTIONARY
  0
ENDSEC
  0
EOF
