  0
SECTION
  2
BLOCKS
  0
ENDSEC
  0
SECTION
  2
ENTITIES
  0
LINE
  8
0
 10
-73.025
 11
-73.025
 20
-220.075
 21
-220.024
  0
LINE
  8
0
 10
-73.025
 11
-72.974
 20
-220.024
 21
-220.024
  0
LINE
  8
0
 10
-72.974
 11
-72.974
 20
-220.024
 21
-220.075
  0
LINE
  8
0
 10
-72.974
 11
-73.025
 20
-220.075
 21
-220.075
  0
LINE
  8
0
 10
-73.025
 11
-73.025
 20
-210.998
 21
-201.768
  0
LINE
  8
0
 10
-73.025
 11
-70.076
 20
-201.768
 21
-201.768
  0
LINE
  8
0
 10
-70.076
 11
-70.076
 20
-201.768
 21
-192.741
  0
LINE
  8
0
 10
-70.076
 11
-73.025
 20
-192.741
 21
-192.741
  0
LINE
  8
0
 10
-73.025
 11
-73.025
 20
-192.741
 21
-183.512
  0
LINE
  8
0
 10
-73.025
 11
-70.076
 20
-183.512
 21
-183.512
  0
LINE
  8
0
 10
-70.076
 11
-70.076
 20
-183.512
 21
-174.485
  0
LINE
  8
0
 10
-70.076
 11
-73.025
 20
-174.485
 21
-174.485
  0
LINE
  8
0
 10
-73.025
 11
-73.025
 20
-174.485
 21
-165.255
  0
LINE
  8
0
 10
-73.025
 11
-70.076
 20
-165.255
 21
-165.255
  0
LINE
  8
0
 10
-70.076
 11
-70.076
 20
-165.255
 21
-156.229
  0
LINE
  8
0
 10
-70.076
 11
-73.025
 20
-156.229
 21
-156.229
  0
LINE
  8
0
 10
-73.025
 11
-73.025
 20
-156.229
 21
-146.999
  0
LINE
  8
0
 10
-73.025
 11
-70.076
 20
-146.999
 21
-146.999
  0
LINE
  8
0
 10
-70.076
 11
-70.076
 20
-146.999
 21
-137.973
  0
LINE
  8
0
 10
-70.076
 11
-73.025
 20
-137.973
 21
-137.973
  0
LINE
  8
0
 10
-73.025
 11
-73.025
 20
-137.973
 21
-128.743
  0
LINE
  8
0
 10
-73.025
 11
-70.076
 20
-128.743
 21
-128.743
  0
LINE
  8
0
 10
-70.076
 11
-70.076
 20
-128.743
 21
-119.716
  0
LINE
  8
0
 10
-70.076
 11
-73.025
 20
-119.716
 21
-119.716
  0
LINE
  8
0
 10
-73.025
 11
-73.025
 20
-119.716
 21
-110.487
  0
LINE
  8
0
 10
-73.025
 11
-70.076
 20
-110.487
 21
-110.487
  0
LINE
  8
0
 10
-70.076
 11
-70.076
 20
-110.487
 21
-101.46
  0
LINE
  8
0
 10
-70.076
 11
-73.025
 20
-101.46
 21
-101.46
  0
LINE
  8
0
 10
-73.025
 11
-73.025
 20
-101.46
 21
-92.23
  0
LINE
  8
0
 10
-73.025
 11
-70.076
 20
-92.23
 21
-92.23
  0
LINE
  8
0
 10
-70.076
 11
-70.076
 20
-92.23
 21
-83.204
  0
LINE
  8
0
 10
-70.076
 11
-73.025
 20
-83.204
 21
-83.204
  0
LINE
  8
0
 10
-73.025
 11
-73.025
 20
-83.204
 21
-74.025
  0
LINE
  8
0
 10
-73.025
 11
-63.846
 20
-74.025
 21
-74.025
  0
LINE
  8
0
 10
-63.846
 11
-63.846
 20
-74.025
 21
-76.974
  0
LINE
  8
0
 10
-63.846
 11
-54.82
 20
-76.974
 21
-76.974
  0
LINE
  8
0
 10
-54.82
 11
-54.82
 20
-76.974
 21
-74.025
  0
LINE
  8
0
 10
-54.82
 11
-45.59
 20
-74.025
 21
-74.025
  0
LINE
  8
0
 10
-45.59
 11
-45.59
 20
-74.025
 21
-76.974
  0
LINE
  8
0
 10
-45.59
 11
-36.563
 20
-76.974
 21
-76.974
  0
LINE
  8
0
 10
-36.563
 11
-36.563
 20
-76.974
 21
-74.025
  0
LINE
  8
0
 10
-36.563
 11
-27.334
 20
-74.025
 21
-74.025
  0
LINE
  8
0
 10
-27.334
 11
-27.334
 20
-74.025
 21
-76.974
  0
LINE
  8
0
 10
-27.334
 11
-18.307
 20
-76.974
 21
-76.974
  0
LINE
  8
0
 10
-18.307
 11
-18.307
 20
-76.974
 21
-74.025
  0
LINE
  8
0
 10
-18.307
 11
-9.077
 20
-74.025
 21
-74.025
  0
LINE
  8
0
 10
-9.077
 11
-9.077
 20
-74.025
 21
-76.974
  0
LINE
  8
0
 10
-9.077
 11
-0.051
 20
-76.974
 21
-76.974
  0
LINE
  8
0
 10
-0.051
 11
-0.051
 20
-76.974
 21
-74.025
  0
LINE
  8
0
 10
-0.051
 11
9.179
 20
-74.025
 21
-74.025
  0
LINE
  8
0
 10
9.179
 11
9.179
 20
-74.025
 21
-76.974
  0
LINE
  8
0
 10
9.179
 11
18.205
 20
-76.974
 21
-76.974
  0
LINE
  8
0
 10
18.205
 11
18.205
 20
-76.974
 21
-74.025
  0
LINE
  8
0
 10
18.205
 11
27.435
 20
-74.025
 21
-74.025
  0
LINE
  8
0
 10
27.435
 11
27.435
 20
-74.025
 21
-76.974
  0
LINE
  8
0
 10
27.435
 11
36.462
 20
-76.974
 21
-76.974
  0
LINE
  8
0
 10
36.462
 11
36.462
 20
-76.974
 21
-74.025
  0
LINE
  8
0
 10
36.462
 11
45.691
 20
-74.025
 21
-74.025
  0
LINE
  8
0
 10
45.691
 11
45.691
 20
-74.025
 21
-76.974
  0
LINE
  8
0
 10
45.691
 11
54.718
 20
-76.974
 21
-76.974
  0
LINE
  8
0
 10
54.718
 11
54.718
 20
-76.974
 21
-74.025
  0
LINE
  8
0
 10
54.718
 11
63.948
 20
-74.025
 21
-74.025
  0
LINE
  8
0
 10
63.948
 11
63.948
 20
-74.025
 21
-76.974
  0
LINE
  8
0
 10
63.948
 11
70.076
 20
-76.974
 21
-76.974
  0
LINE
  8
0
 10
70.076
 11
70.076
 20
-76.974
 21
-83.102
  0
LINE
  8
0
 10
70.076
 11
73.025
 20
-83.102
 21
-83.102
  0
LINE
  8
0
 10
73.025
 11
73.025
 20
-83.102
 21
-92.332
  0
LINE
  8
0
 10
73.025
 11
70.076
 20
-92.332
 21
-92.332
  0
LINE
  8
0
 10
70.076
 11
70.076
 20
-92.332
 21
-101.359
  0
LINE
  8
0
 10
70.076
 11
73.025
 20
-101.359
 21
-101.359
  0
LINE
  8
0
 10
73.025
 11
73.025
 20
-101.359
 21
-110.588
  0
LINE
  8
0
 10
73.025
 11
70.076
 20
-110.588
 21
-110.588
  0
LINE
  8
0
 10
70.076
 11
70.076
 20
-110.588
 21
-119.615
  0
LINE
  8
0
 10
70.076
 11
73.025
 20
-119.615
 21
-119.615
  0
LINE
  8
0
 10
73.025
 11
73.025
 20
-119.615
 21
-128.845
  0
LINE
  8
0
 10
73.025
 11
70.076
 20
-128.845
 21
-128.845
  0
LINE
  8
0
 10
70.076
 11
70.076
 20
-128.845
 21
-137.871
  0
LINE
  8
0
 10
70.076
 11
73.025
 20
-137.871
 21
-137.871
  0
LINE
  8
0
 10
73.025
 11
73.025
 20
-137.871
 21
-147.101
  0
LINE
  8
0
 10
73.025
 11
70.076
 20
-147.101
 21
-147.101
  0
LINE
  8
0
 10
70.076
 11
70.076
 20
-147.101
 21
-156.127
  0
LINE
  8
0
 10
70.076
 11
73.025
 20
-156.127
 21
-156.127
  0
LINE
  8
0
 10
73.025
 11
73.025
 20
-156.127
 21
-165.357
  0
LINE
  8
0
 10
73.025
 11
70.076
 20
-165.357
 21
-165.357
  0
LINE
  8
0
 10
70.076
 11
70.076
 20
-165.357
 21
-174.384
  0
LINE
  8
0
 10
70.076
 11
73.025
 20
-174.384
 21
-174.384
  0
LINE
  8
0
 10
73.025
 11
73.025
 20
-174.384
 21
-183.613
  0
LINE
  8
0
 10
73.025
 11
70.076
 20
-183.613
 21
-183.613
  0
LINE
  8
0
 10
70.076
 11
70.076
 20
-183.613
 21
-192.64
  0
LINE
  8
0
 10
70.076
 11
73.025
 20
-192.64
 21
-192.64
  0
LINE
  8
0
 10
73.025
 11
73.025
 20
-192.64
 21
-201.87
  0
LINE
  8
0
 10
73.025
 11
70.076
 20
-201.87
 21
-201.87
  0
LINE
  8
0
 10
70.076
 11
70.076
 20
-201.87
 21
-210.896
  0
LINE
  8
0
 10
70.076
 11
73.025
 20
-210.896
 21
-210.896
  0
LINE
  8
0
 10
73.025
 11
73.025
 20
-210.896
 21
-220.075
  0
LINE
  8
0
 10
73.025
 11
63.846
 20
-220.075
 21
-220.075
  0
LINE
  8
0
 10
63.846
 11
63.846
 20
-220.075
 21
-217.126
  0
LINE
  8
0
 10
63.846
 11
54.82
 20
-217.126
 21
-217.126
  0
LINE
  8
0
 10
54.82
 11
54.82
 20
-217.126
 21
-220.075
  0
LINE
  8
0
 10
54.82
 11
45.59
 20
-220.075
 21
-220.075
  0
LINE
  8
0
 10
45.59
 11
45.59
 20
-220.075
 21
-217.126
  0
LINE
  8
0
 10
45.59
 11
36.563
 20
-217.126
 21
-217.126
  0
LINE
  8
0
 10
36.563
 11
36.563
 20
-217.126
 21
-220.075
  0
LINE
  8
0
 10
36.563
 11
27.334
 20
-220.075
 21
-220.075
  0
LINE
  8
0
 10
27.334
 11
27.334
 20
-220.075
 21
-217.126
  0
LINE
  8
0
 10
27.334
 11
18.307
 20
-217.126
 21
-217.126
  0
LINE
  8
0
 10
18.307
 11
18.307
 20
-217.126
 21
-220.075
  0
LINE
  8
0
 10
18.307
 11
9.077
 20
-220.075
 21
-220.075
  0
LINE
  8
0
 10
9.077
 11
9.077
 20
-220.075
 21
-217.126
  0
LINE
  8
0
 10
9.077
 11
0.051
 20
-217.126
 21
-217.126
  0
LINE
  8
0
 10
0.051
 11
0.051
 20
-217.126
 21
-220.075
  0
LINE
  8
0
 10
0.051
 11
-9.179
 20
-220.075
 21
-220.075
  0
LINE
  8
0
 10
-9.179
 11
-9.179
 20
-220.075
 21
-217.126
  0
LINE
  8
0
 10
-9.179
 11
-18.205
 20
-217.126
 21
-217.126
  0
LINE
  8
0
 10
-18.205
 11
-18.205
 20
-217.126
 21
-220.075
  0
LINE
  8
0
 10
-18.205
 11
-27.435
 20
-220.075
 21
-220.075
  0
LINE
  8
0
 10
-27.435
 11
-27.435
 20
-220.075
 21
-217.126
  0
LINE
  8
0
 10
-27.435
 11
-36.462
 20
-217.126
 21
-217.126
  0
LINE
  8
0
 10
-36.462
 11
-36.462
 20
-217.126
 21
-220.075
  0
LINE
  8
0
 10
-36.462
 11
-45.691
 20
-220.075
 21
-220.075
  0
LINE
  8
0
 10
-45.691
 11
-45.691
 20
-220.075
 21
-217.126
  0
LINE
  8
0
 10
-45.691
 11
-54.718
 20
-217.126
 21
-217.126
  0
LINE
  8
0
 10
-54.718
 11
-54.718
 20
-217.126
 21
-220.075
  0
LINE
  8
0
 10
-54.718
 11
-63.948
 20
-220.075
 21
-220.075
  0
LINE
  8
0
 10
-63.948
 11
-63.948
 20
-220.075
 21
-217.126
  0
LINE
  8
0
 10
-63.948
 11
-70.076
 20
-217.126
 21
-217.126
  0
LINE
  8
0
 10
-70.076
 11
-70.076
 20
-217.126
 21
-210.998
  0
LINE
  8
0
 10
-70.076
 11
-73.025
 20
-210.998
 21
-210.998
  0
LINE
  8
0
 10
-73.025
 11
-73.025
 20
-73.025
 21
-72.974
  0
LINE
  8
0
 10
-73.025
 11
-72.974
 20
-72.974
 21
-72.974
  0
LINE
  8
0
 10
-72.974
 11
-72.974
 20
-72.974
 21
-73.025
  0
LINE
  8
0
 10
-72.974
 11
-73.025
 20
-73.025
 21
-73.025
  0
LINE
  8
0
 10
-73.025
 11
-73.025
 20
-63.948
 21
-54.718
  0
LINE
  8
0
 10
-73.025
 11
-70.076
 20
-54.718
 21
-54.718
  0
LINE
  8
0
 10
-70.076
 11
-70.076
 20
-54.718
 21
-45.691
  0
LINE
  8
0
 10
-70.076
 11
-73.025
 20
-45.691
 21
-45.691
  0
LINE
  8
0
 10
-73.025
 11
-73.025
 20
-45.691
 21
-36.462
  0
LINE
  8
0
 10
-73.025
 11
-70.076
 20
-36.462
 21
-36.462
  0
LINE
  8
0
 10
-70.076
 11
-70.076
 20
-36.462
 21
-27.435
  0
LINE
  8
0
 10
-70.076
 11
-73.025
 20
-27.435
 21
-27.435
  0
LINE
  8
0
 10
-73.025
 11
-73.025
 20
-27.435
 21
-18.205
  0
LINE
  8
0
 10
-73.025
 11
-70.076
 20
-18.205
 21
-18.205
  0
LINE
  8
0
 10
-70.076
 11
-70.076
 20
-18.205
 21
-9.179
  0
LINE
  8
0
 10
-70.076
 11
-73.025
 20
-9.179
 21
-9.179
  0
LINE
  8
0
 10
-73.025
 11
-73.025
 20
-9.179
 21
0.051
  0
LINE
  8
0
 10
-73.025
 11
-70.076
 20
0.051
 21
0.051
  0
LINE
  8
0
 10
-70.076
 11
-70.076
 20
0.051
 21
9.077
  0
LINE
  8
0
 10
-70.076
 11
-73.025
 20
9.077
 21
9.077
  0
LINE
  8
0
 10
-73.025
 11
-73.025
 20
9.077
 21
18.307
  0
LINE
  8
0
 10
-73.025
 11
-70.076
 20
18.307
 21
18.307
  0
LINE
  8
0
 10
-70.076
 11
-70.076
 20
18.307
 21
27.334
  0
LINE
  8
0
 10
-70.076
 11
-73.025
 20
27.334
 21
27.334
  0
LINE
  8
0
 10
-73.025
 11
-73.025
 20
27.334
 21
36.563
  0
LINE
  8
0
 10
-73.025
 11
-70.076
 20
36.563
 21
36.563
  0
LINE
  8
0
 10
-70.076
 11
-70.076
 20
36.563
 21
45.59
  0
LINE
  8
0
 10
-70.076
 11
-73.025
 20
45.59
 21
45.59
  0
LINE
  8
0
 10
-73.025
 11
-73.025
 20
45.59
 21
54.82
  0
LINE
  8
0
 10
-73.025
 11
-70.076
 20
54.82
 21
54.82
  0
LINE
  8
0
 10
-70.076
 11
-70.076
 20
54.82
 21
63.846
  0
LINE
  8
0
 10
-70.076
 11
-73.025
 20
63.846
 21
63.846
  0
LINE
  8
0
 10
-73.025
 11
-73.025
 20
63.846
 21
73.025
  0
LINE
  8
0
 10
-73.025
 11
-63.846
 20
73.025
 21
73.025
  0
LINE
  8
0
 10
-63.846
 11
-63.846
 20
73.025
 21
70.076
  0
LINE
  8
0
 10
-63.846
 11
-54.82
 20
70.076
 21
70.076
  0
LINE
  8
0
 10
-54.82
 11
-54.82
 20
70.076
 21
73.025
  0
LINE
  8
0
 10
-54.82
 11
-45.59
 20
73.025
 21
73.025
  0
LINE
  8
0
 10
-45.59
 11
-45.59
 20
73.025
 21
70.076
  0
LINE
  8
0
 10
-45.59
 11
-36.563
 20
70.076
 21
70.076
  0
LINE
  8
0
 10
-36.563
 11
-36.563
 20
70.076
 21
73.025
  0
LINE
  8
0
 10
-36.563
 11
-27.334
 20
73.025
 21
73.025
  0
LINE
  8
0
 10
-27.334
 11
-27.334
 20
73.025
 21
70.076
  0
LINE
  8
0
 10
-27.334
 11
-18.307
 20
70.076
 21
70.076
  0
LINE
  8
0
 10
-18.307
 11
-18.307
 20
70.076
 21
73.025
  0
LINE
  8
0
 10
-18.307
 11
-9.077
 20
73.025
 21
73.025
  0
LINE
  8
0
 10
-9.077
 11
-9.077
 20
73.025
 21
70.076
  0
LINE
  8
0
 10
-9.077
 11
-0.051
 20
70.076
 21
70.076
  0
LINE
  8
0
 10
-0.051
 11
-0.051
 20
70.076
 21
73.025
  0
LINE
  8
0
 10
-0.051
 11
9.179
 20
73.025
 21
73.025
  0
LINE
  8
0
 10
9.179
 11
9.179
 20
73.025
 21
70.076
  0
LINE
  8
0
 10
9.179
 11
18.205
 20
70.076
 21
70.076
  0
LINE
  8
0
 10
18.205
 11
18.205
 20
70.076
 21
73.025
  0
LINE
  8
0
 10
18.205
 11
27.435
 20
73.025
 21
73.025
  0
LINE
  8
0
 10
27.435
 11
27.435
 20
73.025
 21
70.076
  0
LINE
  8
0
 10
27.435
 11
36.462
 20
70.076
 21
70.076
  0
LINE
  8
0
 10
36.462
 11
36.462
 20
70.076
 21
73.025
  0
LINE
  8
0
 10
36.462
 11
45.691
 20
73.025
 21
73.025
  0
LINE
  8
0
 10
45.691
 11
45.691
 20
73.025
 21
70.076
  0
LINE
  8
0
 10
45.691
 11
54.718
 20
70.076
 21
70.076
  0
LINE
  8
0
 10
54.718
 11
54.718
 20
70.076
 21
73.025
  0
LINE
  8
0
 10
54.718
 11
63.948
 20
73.025
 21
73.025
  0
LINE
  8
0
 10
63.948
 11
63.948
 20
73.025
 21
70.076
  0
LINE
  8
0
 10
63.948
 11
70.076
 20
70.076
 21
70.076
  0
LINE
  8
0
 10
70.076
 11
70.076
 20
70.076
 21
63.948
  0
LINE
  8
0
 10
70.076
 11
73.025
 20
63.948
 21
63.948
  0
LINE
  8
0
 10
73.025
 11
73.025
 20
63.948
 21
54.718
  0
LINE
  8
0
 10
73.025
 11
70.076
 20
54.718
 21
54.718
  0
LINE
  8
0
 10
70.076
 11
70.076
 20
54.718
 21
45.691
  0
LINE
  8
0
 10
70.076
 11
73.025
 20
45.691
 21
45.691
  0
LINE
  8
0
 10
73.025
 11
73.025
 20
45.691
 21
36.462
  0
LINE
  8
0
 10
73.025
 11
70.076
 20
36.462
 21
36.462
  0
LINE
  8
0
 10
70.076
 11
70.076
 20
36.462
 21
27.435
  0
LINE
  8
0
 10
70.076
 11
73.025
 20
27.435
 21
27.435
  0
LINE
  8
0
 10
73.025
 11
73.025
 20
27.435
 21
18.205
  0
LINE
  8
0
 10
73.025
 11
70.076
 20
18.205
 21
18.205
  0
LINE
  8
0
 10
70.076
 11
70.076
 20
18.205
 21
9.179
  0
LINE
  8
0
 10
70.076
 11
73.025
 20
9.179
 21
9.179
  0
LINE
  8
0
 10
73.025
 11
73.025
 20
9.179
 21
-0.051
  0
LINE
  8
0
 10
73.025
 11
70.076
 20
-0.051
 21
-0.051
  0
LINE
  8
0
 10
70.076
 11
70.076
 20
-0.051
 21
-9.077
  0
LINE
  8
0
 10
70.076
 11
73.025
 20
-9.077
 21
-9.077
  0
LINE
  8
0
 10
73.025
 11
73.025
 20
-9.077
 21
-18.307
  0
LINE
  8
0
 10
73.025
 11
70.076
 20
-18.307
 21
-18.307
  0
LINE
  8
0
 10
70.076
 11
70.076
 20
-18.307
 21
-27.334
  0
LINE
  8
0
 10
70.076
 11
73.025
 20
-27.334
 21
-27.334
  0
LINE
  8
0
 10
73.025
 11
73.025
 20
-27.334
 21
-36.563
  0
LINE
  8
0
 10
73.025
 11
70.076
 20
-36.563
 21
-36.563
  0
LINE
  8
0
 10
70.076
 11
70.076
 20
-36.563
 21
-45.59
  0
LINE
  8
0
 10
70.076
 11
73.025
 20
-45.59
 21
-45.59
  0
LINE
  8
0
 10
73.025
 11
73.025
 20
-45.59
 21
-54.82
  0
LINE
  8
0
 10
73.025
 11
70.076
 20
-54.82
 21
-54.82
  0
LINE
  8
0
 10
70.076
 11
70.076
 20
-54.82
 21
-63.846
  0
LINE
  8
0
 10
70.076
 11
73.025
 20
-63.846
 21
-63.846
  0
LINE
  8
0
 10
73.025
 11
73.025
 20
-63.846
 21
-73.025
  0
LINE
  8
0
 10
73.025
 11
63.846
 20
-73.025
 21
-73.025
  0
LINE
  8
0
 10
63.846
 11
63.846
 20
-73.025
 21
-70.076
  0
LINE
  8
0
 10
63.846
 11
54.82
 20
-70.076
 21
-70.076
  0
LINE
  8
0
 10
54.82
 11
54.82
 20
-70.076
 21
-73.025
  0
LINE
  8
0
 10
54.82
 11
45.59
 20
-73.025
 21
-73.025
  0
LINE
  8
0
 10
45.59
 11
45.59
 20
-73.025
 21
-70.076
  0
LINE
  8
0
 10
45.59
 11
36.563
 20
-70.076
 21
-70.076
  0
LINE
  8
0
 10
36.563
 11
36.563
 20
-70.076
 21
-73.025
  0
LINE
  8
0
 10
36.563
 11
27.334
 20
-73.025
 21
-73.025
  0
LINE
  8
0
 10
27.334
 11
27.334
 20
-73.025
 21
-70.076
  0
LINE
  8
0
 10
27.334
 11
18.307
 20
-70.076
 21
-70.076
  0
LINE
  8
0
 10
18.307
 11
18.307
 20
-70.076
 21
-73.025
  0
LINE
  8
0
 10
18.307
 11
9.077
 20
-73.025
 21
-73.025
  0
LINE
  8
0
 10
9.077
 11
9.077
 20
-73.025
 21
-70.076
  0
LINE
  8
0
 10
9.077
 11
0.051
 20
-70.076
 21
-70.076
  0
LINE
  8
0
 10
0.051
 11
0.051
 20
-70.076
 21
-73.025
  0
LINE
  8
0
 10
0.051
 11
-9.179
 20
-73.025
 21
-73.025
  0
LINE
  8
0
 10
-9.179
 11
-9.179
 20
-73.025
 21
-70.076
  0
LINE
  8
0
 10
-9.179
 11
-18.205
 20
-70.076
 21
-70.076
  0
LINE
  8
0
 10
-18.205
 11
-18.205
 20
-70.076
 21
-73.025
  0
LINE
  8
0
 10
-18.205
 11
-27.435
 20
-73.025
 21
-73.025
  0
LINE
  8
0
 10
-27.435
 11
-27.435
 20
-73.025
 21
-70.076
  0
LINE
  8
0
 10
-27.435
 11
-36.462
 20
-70.076
 21
-70.076
  0
LINE
  8
0
 10
-36.462
 11
-36.462
 20
-70.076
 21
-73.025
  0
LINE
  8
0
 10
-36.462
 11
-45.691
 20
-73.025
 21
-73.025
  0
LINE
  8
0
 10
-45.691
 11
-45.691
 20
-73.025
 21
-70.076
  0
LINE
  8
0
 10
-45.691
 11
-54.718
 20
-70.076
 21
-70.076
  0
LINE
  8
0
 10
-54.718
 11
-54.718
 20
-70.076
 21
-73.025
  0
LINE
  8
0
 10
-54.718
 11
-63.948
 20
-73.025
 21
-73.025
  0
LINE
  8
0
 10
-63.948
 11
-63.948
 20
-73.025
 21
-70.076
  0
LINE
  8
0
 10
-63.948
 11
-70.076
 20
-70.076
 21
-70.076
  0
LINE
  8
0
 10
-70.076
 11
-70.076
 20
-70.076
 21
-63.948
  0
LINE
  8
0
 10
-70.076
 11
-73.025
 20
-63.948
 21
-63.948
  0
LINE
  8
0
 10
72.974
 11
72.974
 20
-74.076
 21
-74.025
  0
LINE
  8
0
 10
72.974
 11
73.025
 20
-74.025
 21
-74.025
  0
LINE
  8
0
 10
73.025
 11
73.025
 20
-74.025
 21
-74.076
  0
LINE
  8
0
 10
73.025
 11
72.974
 20
-74.076
 21
-74.076
  0
LINE
  8
0
 10
72.974
 11
72.974
 20
72.974
 21
73.025
  0
LINE
  8
0
 10
72.974
 11
73.025
 20
73.025
 21
73.025
  0
LINE
  8
0
 10
73.025
 11
73.025
 20
73.025
 21
72.974
  0
LINE
  8
0
 10
73.025
 11
72.974
 20
72.974
 21
72.974
  0
LINE
  8
0
 10
74.025
 11
74.025
 20
-73.025
 21
-72.974
  0
LINE
  8
0
 10
74.025
 11
74.076
 20
-72.974
 21
-72.974
  0
LINE
  8
0
 10
74.076
 11
74.076
 20
-72.974
 21
-73.025
  0
LINE
  8
0
 10
74.076
 11
74.025
 20
-73.025
 21
-73.025
  0
LINE
  8
0
 10
74.025
 11
74.025
 20
-63.948
 21
-54.718
  0
LINE
  8
0
 10
74.025
 11
76.974
 20
-54.718
 21
-54.718
  0
LINE
  8
0
 10
76.974
 11
76.974
 20
-54.718
 21
-45.691
  0
LINE
  8
0
 10
76.974
 11
74.025
 20
-45.691
 21
-45.691
  0
LINE
  8
0
 10
74.025
 11
74.025
 20
-45.691
 21
-36.462
  0
LINE
  8
0
 10
74.025
 11
76.974
 20
-36.462
 21
-36.462
  0
LINE
  8
0
 10
76.974
 11
76.974
 20
-36.462
 21
-27.435
  0
LINE
  8
0
 10
76.974
 11
74.025
 20
-27.435
 21
-27.435
  0
LINE
  8
0
 10
74.025
 11
74.025
 20
-27.435
 21
-18.205
  0
LINE
  8
0
 10
74.025
 11
76.974
 20
-18.205
 21
-18.205
  0
LINE
  8
0
 10
76.974
 11
76.974
 20
-18.205
 21
-9.179
  0
LINE
  8
0
 10
76.974
 11
74.025
 20
-9.179
 21
-9.179
  0
LINE
  8
0
 10
74.025
 11
74.025
 20
-9.179
 21
0.051
  0
LINE
  8
0
 10
74.025
 11
76.974
 20
0.051
 21
0.051
  0
LINE
  8
0
 10
76.974
 11
76.974
 20
0.051
 21
9.077
  0
LINE
  8
0
 10
76.974
 11
74.025
 20
9.077
 21
9.077
  0
LINE
  8
0
 10
74.025
 11
74.025
 20
9.077
 21
18.307
  0
LINE
  8
0
 10
74.025
 11
76.974
 20
18.307
 21
18.307
  0
LINE
  8
0
 10
76.974
 11
76.974
 20
18.307
 21
27.334
  0
LINE
  8
0
 10
76.974
 11
74.025
 20
27.334
 21
27.334
  0
LINE
  8
0
 10
74.025
 11
74.025
 20
27.334
 21
36.563
  0
LINE
  8
0
 10
74.025
 11
76.974
 20
36.563
 21
36.563
  0
LINE
  8
0
 10
76.974
 11
76.974
 20
36.563
 21
45.59
  0
LINE
  8
0
 10
76.974
 11
74.025
 20
45.59
 21
45.59
  0
LINE
  8
0
 10
74.025
 11
74.025
 20
45.59
 21
54.82
  0
LINE
  8
0
 10
74.025
 11
76.974
 20
54.82
 21
54.82
  0
LINE
  8
0
 10
76.974
 11
76.974
 20
54.82
 21
63.846
  0
LINE
  8
0
 10
76.974
 11
74.025
 20
63.846
 21
63.846
  0
LINE
  8
0
 10
74.025
 11
74.025
 20
63.846
 21
73.025
  0
LINE
  8
0
 10
74.025
 11
83.204
 20
73.025
 21
73.025
  0
LINE
  8
0
 10
83.204
 11
83.204
 20
73.025
 21
70.076
  0
LINE
  8
0
 10
83.204
 11
92.23
 20
70.076
 21
70.076
  0
LINE
  8
0
 10
92.23
 11
92.23
 20
70.076
 21
73.025
  0
LINE
  8
0
 10
92.23
 11
101.46
 20
73.025
 21
73.025
  0
LINE
  8
0
 10
101.46
 11
101.46
 20
73.025
 21
70.076
  0
LINE
  8
0
 10
101.46
 11
110.487
 20
70.076
 21
70.076
  0
LINE
  8
0
 10
110.487
 11
110.487
 20
70.076
 21
73.025
  0
LINE
  8
0
 10
110.487
 11
119.716
 20
73.025
 21
73.025
  0
LINE
  8
0
 10
119.716
 11
119.716
 20
73.025
 21
70.076
  0
LINE
  8
0
 10
119.716
 11
128.743
 20
70.076
 21
70.076
  0
LINE
  8
0
 10
128.743
 11
128.743
 20
70.076
 21
73.025
  0
LINE
  8
0
 10
128.743
 11
137.973
 20
73.025
 21
73.025
  0
LINE
  8
0
 10
137.973
 11
137.973
 20
73.025
 21
70.076
  0
LINE
  8
0
 10
137.973
 11
146.999
 20
70.076
 21
70.076
  0
LINE
  8
0
 10
146.999
 11
146.999
 20
70.076
 21
73.025
  0
LINE
  8
0
 10
146.999
 11
156.229
 20
73.025
 21
73.025
  0
LINE
  8
0
 10
156.229
 11
156.229
 20
73.025
 21
70.076
  0
LINE
  8
0
 10
156.229
 11
165.255
 20
70.076
 21
70.076
  0
LINE
  8
0
 10
165.255
 11
165.255
 20
70.076
 21
73.025
  0
LINE
  8
0
 10
165.255
 11
174.485
 20
73.025
 21
73.025
  0
LINE
  8
0
 10
174.485
 11
174.485
 20
73.025
 21
70.076
  0
LINE
  8
0
 10
174.485
 11
183.512
 20
70.076
 21
70.076
  0
LINE
  8
0
 10
183.512
 11
183.512
 20
70.076
 21
73.025
  0
LINE
  8
0
 10
183.512
 11
192.741
 20
73.025
 21
73.025
  0
LINE
  8
0
 10
192.741
 11
192.741
 20
73.025
 21
70.076
  0
LINE
  8
0
 10
192.741
 11
201.768
 20
70.076
 21
70.076
  0
LINE
  8
0
 10
201.768
 11
201.768
 20
70.076
 21
73.025
  0
LINE
  8
0
 10
201.768
 11
210.998
 20
73.025
 21
73.025
  0
LINE
  8
0
 10
210.998
 11
210.998
 20
73.025
 21
70.076
  0
LINE
  8
0
 10
210.998
 11
217.126
 20
70.076
 21
70.076
  0
LINE
  8
0
 10
217.126
 11
217.126
 20
70.076
 21
63.948
  0
LINE
  8
0
 10
217.126
 11
220.075
 20
63.948
 21
63.948
  0
LINE
  8
0
 10
220.075
 11
220.075
 20
63.948
 21
54.718
  0
LINE
  8
0
 10
220.075
 11
217.126
 20
54.718
 21
54.718
  0
LINE
  8
0
 10
217.126
 11
217.126
 20
54.718
 21
45.691
  0
LINE
  8
0
 10
217.126
 11
220.075
 20
45.691
 21
45.691
  0
LINE
  8
0
 10
220.075
 11
220.075
 20
45.691
 21
36.462
  0
LINE
  8
0
 10
220.075
 11
217.126
 20
36.462
 21
36.462
  0
LINE
  8
0
 10
217.126
 11
217.126
 20
36.462
 21
27.435
  0
LINE
  8
0
 10
217.126
 11
220.075
 20
27.435
 21
27.435
  0
LINE
  8
0
 10
220.075
 11
220.075
 20
27.435
 21
18.205
  0
LINE
  8
0
 10
220.075
 11
217.126
 20
18.205
 21
18.205
  0
LINE
  8
0
 10
217.126
 11
217.126
 20
18.205
 21
9.179
  0
LINE
  8
0
 10
217.126
 11
220.075
 20
9.179
 21
9.179
  0
LINE
  8
0
 10
220.075
 11
220.075
 20
9.179
 21
-0.051
  0
LINE
  8
0
 10
220.075
 11
217.126
 20
-0.051
 21
-0.051
  0
LINE
  8
0
 10
217.126
 11
217.126
 20
-0.051
 21
-9.077
  0
LINE
  8
0
 10
217.126
 11
220.075
 20
-9.077
 21
-9.077
  0
LINE
  8
0
 10
220.075
 11
220.075
 20
-9.077
 21
-18.307
  0
LINE
  8
0
 10
220.075
 11
217.126
 20
-18.307
 21
-18.307
  0
LINE
  8
0
 10
217.126
 11
217.126
 20
-18.307
 21
-27.334
  0
LINE
  8
0
 10
217.126
 11
220.075
 20
-27.334
 21
-27.334
  0
LINE
  8
0
 10
220.075
 11
220.075
 20
-27.334
 21
-36.563
  0
LINE
  8
0
 10
220.075
 11
217.126
 20
-36.563
 21
-36.563
  0
LINE
  8
0
 10
217.126
 11
217.126
 20
-36.563
 21
-45.59
  0
LINE
  8
0
 10
217.126
 11
220.075
 20
-45.59
 21
-45.59
  0
LINE
  8
0
 10
220.075
 11
220.075
 20
-45.59
 21
-54.82
  0
LINE
  8
0
 10
220.075
 11
217.126
 20
-54.82
 21
-54.82
  0
LINE
  8
0
 10
217.126
 11
217.126
 20
-54.82
 21
-63.846
  0
LINE
  8
0
 10
217.126
 11
220.075
 20
-63.846
 21
-63.846
  0
LINE
  8
0
 10
220.075
 11
220.075
 20
-63.846
 21
-73.025
  0
LINE
  8
0
 10
220.075
 11
210.896
 20
-73.025
 21
-73.025
  0
LINE
  8
0
 10
210.896
 11
210.896
 20
-73.025
 21
-70.076
  0
LINE
  8
0
 10
210.896
 11
201.87
 20
-70.076
 21
-70.076
  0
LINE
  8
0
 10
201.87
 11
201.87
 20
-70.076
 21
-73.025
  0
LINE
  8
0
 10
201.87
 11
192.64
 20
-73.025
 21
-73.025
  0
LINE
  8
0
 10
192.64
 11
192.64
 20
-73.025
 21
-70.076
  0
LINE
  8
0
 10
192.64
 11
183.613
 20
-70.076
 21
-70.076
  0
LINE
  8
0
 10
183.613
 11
183.613
 20
-70.076
 21
-73.025
  0
LINE
  8
0
 10
183.613
 11
174.384
 20
-73.025
 21
-73.025
  0
LINE
  8
0
 10
174.384
 11
174.384
 20
-73.025
 21
-70.076
  0
LINE
  8
0
 10
174.384
 11
165.357
 20
-70.076
 21
-70.076
  0
LINE
  8
0
 10
165.357
 11
165.357
 20
-70.076
 21
-73.025
  0
LINE
  8
0
 10
165.357
 11
156.127
 20
-73.025
 21
-73.025
  0
LINE
  8
0
 10
156.127
 11
156.127
 20
-73.025
 21
-70.076
  0
LINE
  8
0
 10
156.127
 11
147.101
 20
-70.076
 21
-70.076
  0
LINE
  8
0
 10
147.101
 11
147.101
 20
-70.076
 21
-73.025
  0
LINE
  8
0
 10
147.101
 11
137.871
 20
-73.025
 21
-73.025
  0
LINE
  8
0
 10
137.871
 11
137.871
 20
-73.025
 21
-70.076
  0
LINE
  8
0
 10
137.871
 11
128.845
 20
-70.076
 21
-70.076
  0
LINE
  8
0
 10
128.845
 11
128.845
 20
-70.076
 21
-73.025
  0
LINE
  8
0
 10
128.845
 11
119.615
 20
-73.025
 21
-73.025
  0
LINE
  8
0
 10
119.615
 11
119.615
 20
-73.025
 21
-70.076
  0
LINE
  8
0
 10
119.615
 11
110.588
 20
-70.076
 21
-70.076
  0
LINE
  8
0
 10
110.588
 11
110.588
 20
-70.076
 21
-73.025
  0
LINE
  8
0
 10
110.588
 11
101.359
 20
-73.025
 21
-73.025
  0
LINE
  8
0
 10
101.359
 11
101.359
 20
-73.025
 21
-70.076
  0
LINE
  8
0
 10
101.359
 11
92.332
 20
-70.076
 21
-70.076
  0
LINE
  8
0
 10
92.332
 11
92.332
 20
-70.076
 21
-73.025
  0
LINE
  8
0
 10
92.332
 11
83.102
 20
-73.025
 21
-73.025
  0
LINE
  8
0
 10
83.102
 11
83.102
 20
-73.025
 21
-70.076
  0
LINE
  8
0
 10
83.102
 11
76.974
 20
-70.076
 21
-70.076
  0
LINE
  8
0
 10
76.974
 11
76.974
 20
-70.076
 21
-63.948
  0
LINE
  8
0
 10
76.974
 11
74.025
 20
-63.948
 21
-63.948
  0
LINE
  8
0
 10
74.025
 11
74.025
 20
-217.126
 21
-210.896
  0
LINE
  8
0
 10
74.025
 11
77.025
 20
-210.896
 21
-210.896
  0
LINE
  8
0
 10
77.025
 11
77.025
 20
-210.896
 21
-201.87
  0
LINE
  8
0
 10
77.025
 11
74.025
 20
-201.87
 21
-201.87
  0
LINE
  8
0
 10
74.025
 11
74.025
 20
-201.87
 21
-192.64
  0
LINE
  8
0
 10
74.025
 11
77.025
 20
-192.64
 21
-192.64
  0
LINE
  8
0
 10
77.025
 11
77.025
 20
-192.64
 21
-183.613
  0
LINE
  8
0
 10
77.025
 11
74.025
 20
-183.613
 21
-183.613
  0
LINE
  8
0
 10
74.025
 11
74.025
 20
-183.613
 21
-174.384
  0
LINE
  8
0
 10
74.025
 11
77.025
 20
-174.384
 21
-174.384
  0
LINE
  8
0
 10
77.025
 11
77.025
 20
-174.384
 21
-165.357
  0
LINE
  8
0
 10
77.025
 11
74.025
 20
-165.357
 21
-165.357
  0
LINE
  8
0
 10
74.025
 11
74.025
 20
-165.357
 21
-156.127
  0
LINE
  8
0
 10
74.025
 11
77.025
 20
-156.127
 21
-156.127
  0
LINE
  8
0
 10
77.025
 11
77.025
 20
-156.127
 21
-147.101
  0
LINE
  8
0
 10
77.025
 11
74.025
 20
-147.101
 21
-147.101
  0
LINE
  8
0
 10
74.025
 11
74.025
 20
-147.101
 21
-137.871
  0
LINE
  8
0
 10
74.025
 11
77.025
 20
-137.871
 21
-137.871
  0
LINE
  8
0
 10
77.025
 11
77.025
 20
-137.871
 21
-128.845
  0
LINE
  8
0
 10
77.025
 11
74.025
 20
-128.845
 21
-128.845
  0
LINE
  8
0
 10
74.025
 11
74.025
 20
-128.845
 21
-119.615
  0
LINE
  8
0
 10
74.025
 11
77.025
 20
-119.615
 21
-119.615
  0
LINE
  8
0
 10
77.025
 11
77.025
 20
-119.615
 21
-110.588
  0
LINE
  8
0
 10
77.025
 11
74.025
 20
-110.588
 21
-110.588
  0
LINE
  8
0
 10
74.025
 11
74.025
 20
-110.588
 21
-101.359
  0
LINE
  8
0
 10
74.025
 11
77.025
 20
-101.359
 21
-101.359
  0
LINE
  8
0
 10
77.025
 11
77.025
 20
-101.359
 21
-92.332
  0
LINE
  8
0
 10
77.025
 11
74.025
 20
-92.332
 21
-92.332
  0
LINE
  8
0
 10
74.025
 11
74.025
 20
-92.332
 21
-83.102
  0
LINE
  8
0
 10
74.025
 11
77.025
 20
-83.102
 21
-83.102
  0
LINE
  8
0
 10
77.025
 11
77.025
 20
-83.102
 21
-74.076
  0
LINE
  8
0
 10
77.025
 11
76.974
 20
-74.076
 21
-74.076
  0
LINE
  8
0
 10
76.974
 11
76.974
 20
-74.076
 21
-74.025
  0
LINE
  8
0
 10
76.974
 11
83.204
 20
-74.025
 21
-74.025
  0
LINE
  8
0
 10
83.204
 11
83.204
 20
-74.025
 21
-77.025
  0
LINE
  8
0
 10
83.204
 11
92.23
 20
-77.025
 21
-77.025
  0
LINE
  8
0
 10
92.23
 11
92.23
 20
-77.025
 21
-74.025
  0
LINE
  8
0
 10
92.23
 11
101.46
 20
-74.025
 21
-74.025
  0
LINE
  8
0
 10
101.46
 11
101.46
 20
-74.025
 21
-77.025
  0
LINE
  8
0
 10
101.46
 11
110.487
 20
-77.025
 21
-77.025
  0
LINE
  8
0
 10
110.487
 11
110.487
 20
-77.025
 21
-74.025
  0
LINE
  8
0
 10
110.487
 11
119.716
 20
-74.025
 21
-74.025
  0
LINE
  8
0
 10
119.716
 11
119.716
 20
-74.025
 21
-77.025
  0
LINE
  8
0
 10
119.716
 11
128.743
 20
-77.025
 21
-77.025
  0
LINE
  8
0
 10
128.743
 11
128.743
 20
-77.025
 21
-74.025
  0
LINE
  8
0
 10
128.743
 11
137.973
 20
-74.025
 21
-74.025
  0
LINE
  8
0
 10
137.973
 11
137.973
 20
-74.025
 21
-77.025
  0
LINE
  8
0
 10
137.973
 11
146.999
 20
-77.025
 21
-77.025
  0
LINE
  8
0
 10
146.999
 11
146.999
 20
-77.025
 21
-74.025
  0
LINE
  8
0
 10
146.999
 11
156.229
 20
-74.025
 21
-74.025
  0
LINE
  8
0
 10
156.229
 11
156.229
 20
-74.025
 21
-77.025
  0
LINE
  8
0
 10
156.229
 11
165.255
 20
-77.025
 21
-77.025
  0
LINE
  8
0
 10
165.255
 11
165.255
 20
-77.025
 21
-74.025
  0
LINE
  8
0
 10
165.255
 11
174.485
 20
-74.025
 21
-74.025
  0
LINE
  8
0
 10
174.485
 11
174.485
 20
-74.025
 21
-77.025
  0
LINE
  8
0
 10
174.485
 11
183.512
 20
-77.025
 21
-77.025
  0
LINE
  8
0
 10
183.512
 11
183.512
 20
-77.025
 21
-74.025
  0
LINE
  8
0
 10
183.512
 11
192.741
 20
-74.025
 21
-74.025
  0
LINE
  8
0
 10
192.741
 11
192.741
 20
-74.025
 21
-77.025
  0
LINE
  8
0
 10
192.741
 11
201.768
 20
-77.025
 21
-77.025
  0
LINE
  8
0
 10
201.768
 11
201.768
 20
-77.025
 21
-74.025
  0
LINE
  8
0
 10
201.768
 11
210.998
 20
-74.025
 21
-74.025
  0
LINE
  8
0
 10
210.998
 11
210.998
 20
-74.025
 21
-77.025
  0
LINE
  8
0
 10
210.998
 11
220.024
 20
-77.025
 21
-77.025
  0
LINE
  8
0
 10
220.024
 11
220.024
 20
-77.025
 21
-76.974
  0
LINE
  8
0
 10
220.024
 11
220.075
 20
-76.974
 21
-76.974
  0
LINE
  8
0
 10
220.075
 11
220.075
 20
-76.974
 21
-83.204
  0
LINE
  8
0
 10
220.075
 11
217.075
 20
-83.204
 21
-83.204
  0
LINE
  8
0
 10
217.075
 11
217.075
 20
-83.204
 21
-92.23
  0
LINE
  8
0
 10
217.075
 11
220.075
 20
-92.23
 21
-92.23
  0
LINE
  8
0
 10
220.075
 11
220.075
 20
-92.23
 21
-101.46
  0
LINE
  8
0
 10
220.075
 11
217.075
 20
-101.46
 21
-101.46
  0
LINE
  8
0
 10
217.075
 11
217.075
 20
-101.46
 21
-110.487
  0
LINE
  8
0
 10
217.075
 11
220.075
 20
-110.487
 21
-110.487
  0
LINE
  8
0
 10
220.075
 11
220.075
 20
-110.487
 21
-119.716
  0
LINE
  8
0
 10
220.075
 11
217.075
 20
-119.716
 21
-119.716
  0
LINE
  8
0
 10
217.075
 11
217.075
 20
-119.716
 21
-128.743
  0
LINE
  8
0
 10
217.075
 11
220.075
 20
-128.743
 21
-128.743
  0
LINE
  8
0
 10
220.075
 11
220.075
 20
-128.743
 21
-137.973
  0
LINE
  8
0
 10
220.075
 11
217.075
 20
-137.973
 21
-137.973
  0
LINE
  8
0
 10
217.075
 11
217.075
 20
-137.973
 21
-146.999
  0
LINE
  8
0
 10
217.075
 11
220.075
 20
-146.999
 21
-146.999
  0
LINE
  8
0
 10
220.075
 11
220.075
 20
-146.999
 21
-156.229
  0
LINE
  8
0
 10
220.075
 11
217.075
 20
-156.229
 21
-156.229
  0
LINE
  8
0
 10
217.075
 11
217.075
 20
-156.229
 21
-165.255
  0
LINE
  8
0
 10
217.075
 11
220.075
 20
-165.255
 21
-165.255
  0
LINE
  8
0
 10
220.075
 11
220.075
 20
-165.255
 21
-174.485
  0
LINE
  8
0
 10
220.075
 11
217.075
 20
-174.485
 21
-174.485
  0
LINE
  8
0
 10
217.075
 11
217.075
 20
-174.485
 21
-183.512
  0
LINE
  8
0
 10
217.075
 11
220.075
 20
-183.512
 21
-183.512
  0
LINE
  8
0
 10
220.075
 11
220.075
 20
-183.512
 21
-192.741
  0
LINE
  8
0
 10
220.075
 11
217.075
 20
-192.741
 21
-192.741
  0
LINE
  8
0
 10
217.075
 11
217.075
 20
-192.741
 21
-201.768
  0
LINE
  8
0
 10
217.075
 11
220.075
 20
-201.768
 21
-201.768
  0
LINE
  8
0
 10
220.075
 11
220.075
 20
-201.768
 21
-210.998
  0
LINE
  8
0
 10
220.075
 11
217.075
 20
-210.998
 21
-210.998
  0
LINE
  8
0
 10
217.075
 11
217.075
 20
-210.998
 21
-220.024
  0
LINE
  8
0
 10
217.075
 11
217.126
 20
-220.024
 21
-220.024
  0
LINE
  8
0
 10
217.126
 11
217.126
 20
-220.024
 21
-220.075
  0
LINE
  8
0
 10
217.126
 11
210.896
 20
-220.075
 21
-220.075
  0
LINE
  8
0
 10
210.896
 11
210.896
 20
-220.075
 21
-217.075
  0
LINE
  8
0
 10
210.896
 11
201.87
 20
-217.075
 21
-217.075
  0
LINE
  8
0
 10
201.87
 11
201.87
 20
-217.075
 21
-220.075
  0
LINE
  8
0
 10
201.87
 11
192.64
 20
-220.075
 21
-220.075
  0
LINE
  8
0
 10
192.64
 11
192.64
 20
-220.075
 21
-217.075
  0
LINE
  8
0
 10
192.64
 11
183.613
 20
-217.075
 21
-217.075
  0
LINE
  8
0
 10
183.613
 11
183.613
 20
-217.075
 21
-220.075
  0
LINE
  8
0
 10
183.613
 11
174.384
 20
-220.075
 21
-220.075
  0
LINE
  8
0
 10
174.384
 11
174.384
 20
-220.075
 21
-217.075
  0
LINE
  8
0
 10
174.384
 11
165.357
 20
-217.075
 21
-217.075
  0
LINE
  8
0
 10
165.357
 11
165.357
 20
-217.075
 21
-220.075
  0
LINE
  8
0
 10
165.357
 11
156.127
 20
-220.075
 21
-220.075
  0
LINE
  8
0
 10
156.127
 11
156.127
 20
-220.075
 21
-217.075
  0
LINE
  8
0
 10
156.127
 11
147.101
 20
-217.075
 21
-217.075
  0
LINE
  8
0
 10
147.101
 11
147.101
 20
-217.075
 21
-220.075
  0
LINE
  8
0
 10
147.101
 11
137.871
 20
-220.075
 21
-220.075
  0
LINE
  8
0
 10
137.871
 11
137.871
 20
-220.075
 21
-217.075
  0
LINE
  8
0
 10
137.871
 11
128.845
 20
-217.075
 21
-217.075
  0
LINE
  8
0
 10
128.845
 11
128.845
 20
-217.075
 21
-220.075
  0
LINE
  8
0
 10
128.845
 11
119.615
 20
-220.075
 21
-220.075
  0
LINE
  8
0
 10
119.615
 11
119.615
 20
-220.075
 21
-217.075
  0
LINE
  8
0
 10
119.615
 11
110.588
 20
-217.075
 21
-217.075
  0
LINE
  8
0
 10
110.588
 11
110.588
 20
-217.075
 21
-220.075
  0
LINE
  8
0
 10
110.588
 11
101.359
 20
-220.075
 21
-220.075
  0
LINE
  8
0
 10
101.359
 11
101.359
 20
-220.075
 21
-217.075
  0
LINE
  8
0
 10
101.359
 11
92.332
 20
-217.075
 21
-217.075
  0
LINE
  8
0
 10
92.332
 11
92.332
 20
-217.075
 21
-220.075
  0
LINE
  8
0
 10
92.332
 11
83.102
 20
-220.075
 21
-220.075
  0
LINE
  8
0
 10
83.102
 11
83.102
 20
-220.075
 21
-217.075
  0
LINE
  8
0
 10
83.102
 11
74.076
 20
-217.075
 21
-217.075
  0
LINE
  8
0
 10
74.076
 11
74.076
 20
-217.075
 21
-217.126
  0
LINE
  8
0
 10
74.076
 11
74.025
 20
-217.126
 21
-217.126
  0
LINE
  8
0
 10
143.166
 11
143.166
 20
-148.007
 21
-146.093
  0
LINE
  8
0
 10
143.166
 11
144.056
 20
-146.093
 21
-144.398
  0
LINE
  8
0
 10
144.056
 11
145.632
 20
-144.398
 21
-143.31
  0
LINE
  8
0
 10
145.632
 11
147.532
 20
-143.31
 21
-143.079
  0
LINE
  8
0
 10
147.532
 11
149.322
 20
-143.079
 21
-143.758
  0
LINE
  8
0
 10
149.322
 11
150.592
 20
-143.758
 21
-145.191
  0
LINE
  8
0
 10
150.592
 11
151.05
 20
-145.191
 21
-147.05
  0
LINE
  8
0
 10
151.05
 11
150.592
 20
-147.05
 21
-148.909
  0
LINE
  8
0
 10
150.592
 11
149.322
 20
-148.909
 21
-150.342
  0
LINE
  8
0
 10
149.322
 11
147.532
 20
-150.342
 21
-151.021
  0
LINE
  8
0
 10
147.532
 11
145.632
 20
-151.021
 21
-150.79
  0
LINE
  8
0
 10
145.632
 11
144.056
 20
-150.79
 21
-149.702
  0
LINE
  8
0
 10
144.056
 11
143.166
 20
-149.702
 21
-148.007
  0
LINE
  8
0
 10
220.024
 11
220.024
 20
72.974
 21
73.025
  0
LINE
  8
0
 10
220.024
 11
220.075
 20
73.025
 21
73.025
  0
LINE
  8
0
 10
220.075
 11
220.075
 20
73.025
 21
72.974
  0
LINE
  8
0
 10
220.075
 11
220.024
 20
72.974
 21
72.974
  0
LINE
  8
0
 10
221.075
 11
221.075
 20
-210.998
 21
-201.768
  0
LINE
  8
0
 10
221.075
 11
224.075
 20
-201.768
 21
-201.768
  0
LINE
  8
0
 10
224.075
 11
224.075
 20
-201.768
 21
-192.741
  0
LINE
  8
0
 10
224.075
 11
221.075
 20
-192.741
 21
-192.741
  0
LINE
  8
0
 10
221.075
 11
221.075
 20
-192.741
 21
-183.512
  0
LINE
  8
0
 10
221.075
 11
224.075
 20
-183.512
 21
-183.512
  0
LINE
  8
0
 10
224.075
 11
224.075
 20
-183.512
 21
-174.485
  0
LINE
  8
0
 10
224.075
 11
221.075
 20
-174.485
 21
-174.485
  0
LINE
  8
0
 10
221.075
 11
221.075
 20
-174.485
 21
-165.255
  0
LINE
  8
0
 10
221.075
 11
224.075
 20
-165.255
 21
-165.255
  0
LINE
  8
0
 10
224.075
 11
224.075
 20
-165.255
 21
-156.229
  0
LINE
  8
0
 10
224.075
 11
221.075
 20
-156.229
 21
-156.229
  0
LINE
  8
0
 10
221.075
 11
221.075
 20
-156.229
 21
-146.999
  0
LINE
  8
0
 10
221.075
 11
224.075
 20
-146.999
 21
-146.999
  0
LINE
  8
0
 10
224.075
 11
224.075
 20
-146.999
 21
-137.973
  0
LINE
  8
0
 10
224.075
 11
221.075
 20
-137.973
 21
-137.973
  0
LINE
  8
0
 10
221.075
 11
221.075
 20
-137.973
 21
-128.743
  0
LINE
  8
0
 10
221.075
 11
224.075
 20
-128.743
 21
-128.743
  0
LINE
  8
0
 10
224.075
 11
224.075
 20
-128.743
 21
-119.716
  0
LINE
  8
0
 10
224.075
 11
221.075
 20
-119.716
 21
-119.716
  0
LINE
  8
0
 10
221.075
 11
221.075
 20
-119.716
 21
-110.487
  0
LINE
  8
0
 10
221.075
 11
224.075
 20
-110.487
 21
-110.487
  0
LINE
  8
0
 10
224.075
 11
224.075
 20
-110.487
 21
-101.46
  0
LINE
  8
0
 10
224.075
 11
221.075
 20
-101.46
 21
-101.46
  0
LINE
  8
0
 10
221.075
 11
221.075
 20
-101.46
 21
-92.23
  0
LINE
  8
0
 10
221.075
 11
224.075
 20
-92.23
 21
-92.23
  0
LINE
  8
0
 10
224.075
 11
224.075
 20
-92.23
 21
-83.204
  0
LINE
  8
0
 10
224.075
 11
221.075
 20
-83.204
 21
-83.204
  0
LINE
  8
0
 10
221.075
 11
221.075
 20
-83.204
 21
-76.974
  0
LINE
  8
0
 10
221.075
 11
221.126
 20
-76.974
 21
-76.974
  0
LINE
  8
0
 10
221.126
 11
221.126
 20
-76.974
 21
-77.025
  0
LINE
  8
0
 10
221.126
 11
230.152
 20
-77.025
 21
-77.025
  0
LINE
  8
0
 10
230.152
 11
230.152
 20
-77.025
 21
-74.025
  0
LINE
  8
0
 10
230.152
 11
239.382
 20
-74.025
 21
-74.025
  0
LINE
  8
0
 10
239.382
 11
239.382
 20
-74.025
 21
-77.025
  0
LINE
  8
0
 10
239.382
 11
248.409
 20
-77.025
 21
-77.025
  0
LINE
  8
0
 10
248.409
 11
248.409
 20
-77.025
 21
-74.025
  0
LINE
  8
0
 10
248.409
 11
257.638
 20
-74.025
 21
-74.025
  0
LINE
  8
0
 10
257.638
 11
257.638
 20
-74.025
 21
-77.025
  0
LINE
  8
0
 10
257.638
 11
266.665
 20
-77.025
 21
-77.025
  0
LINE
  8
0
 10
266.665
 11
266.665
 20
-77.025
 21
-74.025
  0
LINE
  8
0
 10
266.665
 11
275.895
 20
-74.025
 21
-74.025
  0
LINE
  8
0
 10
275.895
 11
275.895
 20
-74.025
 21
-77.025
  0
LINE
  8
0
 10
275.895
 11
284.921
 20
-77.025
 21
-77.025
  0
LINE
  8
0
 10
284.921
 11
284.921
 20
-77.025
 21
-74.025
  0
LINE
  8
0
 10
284.921
 11
294.151
 20
-74.025
 21
-74.025
  0
LINE
  8
0
 10
294.151
 11
294.151
 20
-74.025
 21
-77.025
  0
LINE
  8
0
 10
294.151
 11
303.177
 20
-77.025
 21
-77.025
  0
LINE
  8
0
 10
303.177
 11
303.177
 20
-77.025
 21
-74.025
  0
LINE
  8
0
 10
303.177
 11
312.407
 20
-74.025
 21
-74.025
  0
LINE
  8
0
 10
312.407
 11
312.407
 20
-74.025
 21
-77.025
  0
LINE
  8
0
 10
312.407
 11
321.434
 20
-77.025
 21
-77.025
  0
LINE
  8
0
 10
321.434
 11
321.434
 20
-77.025
 21
-74.025
  0
LINE
  8
0
 10
321.434
 11
330.663
 20
-74.025
 21
-74.025
  0
LINE
  8
0
 10
330.663
 11
330.663
 20
-74.025
 21
-77.025
  0
LINE
  8
0
 10
330.663
 11
339.69
 20
-77.025
 21
-77.025
  0
LINE
  8
0
 10
339.69
 11
339.69
 20
-77.025
 21
-74.025
  0
LINE
  8
0
 10
339.69
 11
348.92
 20
-74.025
 21
-74.025
  0
LINE
  8
0
 10
348.92
 11
348.92
 20
-74.025
 21
-77.025
  0
LINE
  8
0
 10
348.92
 11
357.946
 20
-77.025
 21
-77.025
  0
LINE
  8
0
 10
357.946
 11
357.946
 20
-77.025
 21
-74.025
  0
LINE
  8
0
 10
357.946
 11
364.176
 20
-74.025
 21
-74.025
  0
LINE
  8
0
 10
364.176
 11
364.176
 20
-74.025
 21
-74.076
  0
LINE
  8
0
 10
364.176
 11
364.125
 20
-74.076
 21
-74.076
  0
LINE
  8
0
 10
364.125
 11
364.125
 20
-74.076
 21
-83.102
  0
LINE
  8
0
 10
364.125
 11
367.125
 20
-83.102
 21
-83.102
  0
LINE
  8
0
 10
367.125
 11
367.125
 20
-83.102
 21
-92.332
  0
LINE
  8
0
 10
367.125
 11
364.125
 20
-92.332
 21
-92.332
  0
LINE
  8
0
 10
364.125
 11
364.125
 20
-92.332
 21
-101.359
  0
LINE
  8
0
 10
364.125
 11
367.125
 20
-101.359
 21
-101.359
  0
LINE
  8
0
 10
367.125
 11
367.125
 20
-101.359
 21
-110.588
  0
LINE
  8
0
 10
367.125
 11
364.125
 20
-110.588
 21
-110.588
  0
LINE
  8
0
 10
364.125
 11
364.125
 20
-110.588
 21
-119.615
  0
LINE
  8
0
 10
364.125
 11
367.125
 20
-119.615
 21
-119.615
  0
LINE
  8
0
 10
367.125
 11
367.125
 20
-119.615
 21
-128.845
  0
LINE
  8
0
 10
367.125
 11
364.125
 20
-128.845
 21
-128.845
  0
LINE
  8
0
 10
364.125
 11
364.125
 20
-128.845
 21
-137.871
  0
LINE
  8
0
 10
364.125
 11
367.125
 20
-137.871
 21
-137.871
  0
LINE
  8
0
 10
367.125
 11
367.125
 20
-137.871
 21
-147.101
  0
LINE
  8
0
 10
367.125
 11
364.125
 20
-147.101
 21
-147.101
  0
LINE
  8
0
 10
364.125
 11
364.125
 20
-147.101
 21
-156.127
  0
LINE
  8
0
 10
364.125
 11
367.125
 20
-156.127
 21
-156.127
  0
LINE
  8
0
 10
367.125
 11
367.125
 20
-156.127
 21
-165.357
  0
LINE
  8
0
 10
367.125
 11
364.125
 20
-165.357
 21
-165.357
  0
LINE
  8
0
 10
364.125
 11
364.125
 20
-165.357
 21
-174.384
  0
LINE
  8
0
 10
364.125
 11
367.125
 20
-174.384
 21
-174.384
  0
LINE
  8
0
 10
367.125
 11
367.125
 20
-174.384
 21
-183.613
  0
LINE
  8
0
 10
367.125
 11
364.125
 20
-183.613
 21
-183.613
  0
LINE
  8
0
 10
364.125
 11
364.125
 20
-183.613
 21
-192.64
  0
LINE
  8
0
 10
364.125
 11
367.125
 20
-192.64
 21
-192.64
  0
LINE
  8
0
 10
367.125
 11
367.125
 20
-192.64
 21
-201.87
  0
LINE
  8
0
 10
367.125
 11
364.125
 20
-201.87
 21
-201.87
  0
LINE
  8
0
 10
364.125
 11
364.125
 20
-201.87
 21
-210.896
  0
LINE
  8
0
 10
364.125
 11
367.125
 20
-210.896
 21
-210.896
  0
LINE
  8
0
 10
367.125
 11
367.125
 20
-210.896
 21
-217.126
  0
LINE
  8
0
 10
367.125
 11
367.074
 20
-217.126
 21
-217.126
  0
LINE
  8
0
 10
367.074
 11
367.074
 20
-217.126
 21
-217.075
  0
LINE
  8
0
 10
367.074
 11
358.048
 20
-217.075
 21
-217.075
  0
LINE
  8
0
 10
358.048
 11
358.048
 20
-217.075
 21
-220.075
  0
LINE
  8
0
 10
358.048
 11
348.818
 20
-220.075
 21
-220.075
  0
LINE
  8
0
 10
348.818
 11
348.818
 20
-220.075
 21
-217.075
  0
LINE
  8
0
 10
348.818
 11
339.791
 20
-217.075
 21
-217.075
  0
LINE
  8
0
 10
339.791
 11
339.791
 20
-217.075
 21
-220.075
  0
LINE
  8
0
 10
339.791
 11
330.562
 20
-220.075
 21
-220.075
  0
LINE
  8
0
 10
330.562
 11
330.562
 20
-220.075
 21
-217.075
  0
LINE
  8
0
 10
330.562
 11
321.535
 20
-217.075
 21
-217.075
  0
LINE
  8
0
 10
321.535
 11
321.535
 20
-217.075
 21
-220.075
  0
LINE
  8
0
 10
321.535
 11
312.305
 20
-220.075
 21
-220.075
  0
LINE
  8
0
 10
312.305
 11
312.305
 20
-220.075
 21
-217.075
  0
LINE
  8
0
 10
312.305
 11
303.279
 20
-217.075
 21
-217.075
  0
LINE
  8
0
 10
303.279
 11
303.279
 20
-217.075
 21
-220.075
  0
LINE
  8
0
 10
303.279
 11
294.049
 20
-220.075
 21
-220.075
  0
LINE
  8
0
 10
294.049
 11
294.049
 20
-220.075
 21
-217.075
  0
LINE
  8
0
 10
294.049
 11
285.023
 20
-217.075
 21
-217.075
  0
LINE
  8
0
 10
285.023
 11
285.023
 20
-217.075
 21
-220.075
  0
LINE
  8
0
 10
285.023
 11
275.793
 20
-220.075
 21
-220.075
  0
LINE
  8
0
 10
275.793
 11
275.793
 20
-220.075
 21
-217.075
  0
LINE
  8
0
 10
275.793
 11
266.766
 20
-217.075
 21
-217.075
  0
LINE
  8
0
 10
266.766
 11
266.766
 20
-217.075
 21
-220.075
  0
LINE
  8
0
 10
266.766
 11
257.537
 20
-220.075
 21
-220.075
  0
LINE
  8
0
 10
257.537
 11
257.537
 20
-220.075
 21
-217.075
  0
LINE
  8
0
 10
257.537
 11
248.51
 20
-217.075
 21
-217.075
  0
LINE
  8
0
 10
248.51
 11
248.51
 20
-217.075
 21
-220.075
  0
LINE
  8
0
 10
248.51
 11
239.28
 20
-220.075
 21
-220.075
  0
LINE
  8
0
 10
239.28
 11
239.28
 20
-220.075
 21
-217.075
  0
LINE
  8
0
 10
239.28
 11
230.254
 20
-217.075
 21
-217.075
  0
LINE
  8
0
 10
230.254
 11
230.254
 20
-217.075
 21
-220.075
  0
LINE
  8
0
 10
230.254
 11
224.024
 20
-220.075
 21
-220.075
  0
LINE
  8
0
 10
224.024
 11
224.024
 20
-220.075
 21
-220.024
  0
LINE
  8
0
 10
224.024
 11
224.075
 20
-220.024
 21
-220.024
  0
LINE
  8
0
 10
224.075
 11
224.075
 20
-220.024
 21
-210.998
  0
LINE
  8
0
 10
224.075
 11
221.075
 20
-210.998
 21
-210.998
  0
LINE
  8
0
 10
221.075
 11
221.075
 20
-73.025
 21
-72.974
  0
LINE
  8
0
 10
221.075
 11
221.126
 20
-72.974
 21
-72.974
  0
LINE
  8
0
 10
221.126
 11
221.126
 20
-72.974
 21
-73.025
  0
LINE
  8
0
 10
221.126
 11
221.075
 20
-73.025
 21
-73.025
  0
LINE
  8
0
 10
221.075
 11
221.075
 20
-63.948
 21
-54.718
  0
LINE
  8
0
 10
221.075
 11
224.024
 20
-54.718
 21
-54.718
  0
LINE
  8
0
 10
224.024
 11
224.024
 20
-54.718
 21
-45.691
  0
LINE
  8
0
 10
224.024
 11
221.075
 20
-45.691
 21
-45.691
  0
LINE
  8
0
 10
221.075
 11
221.075
 20
-45.691
 21
-36.462
  0
LINE
  8
0
 10
221.075
 11
224.024
 20
-36.462
 21
-36.462
  0
LINE
  8
0
 10
224.024
 11
224.024
 20
-36.462
 21
-27.435
  0
LINE
  8
0
 10
224.024
 11
221.075
 20
-27.435
 21
-27.435
  0
LINE
  8
0
 10
221.075
 11
221.075
 20
-27.435
 21
-18.205
  0
LINE
  8
0
 10
221.075
 11
224.024
 20
-18.205
 21
-18.205
  0
LINE
  8
0
 10
224.024
 11
224.024
 20
-18.205
 21
-9.179
  0
LINE
  8
0
 10
224.024
 11
221.075
 20
-9.179
 21
-9.179
  0
LINE
  8
0
 10
221.075
 11
221.075
 20
-9.179
 21
0.051
  0
LINE
  8
0
 10
221.075
 11
224.024
 20
0.051
 21
0.051
  0
LINE
  8
0
 10
224.024
 11
224.024
 20
0.051
 21
9.077
  0
LINE
  8
0
 10
224.024
 11
221.075
 20
9.077
 21
9.077
  0
LINE
  8
0
 10
221.075
 11
221.075
 20
9.077
 21
18.307
  0
LINE
  8
0
 10
221.075
 11
224.024
 20
18.307
 21
18.307
  0
LINE
  8
0
 10
224.024
 11
224.024
 20
18.307
 21
27.334
  0
LINE
  8
0
 10
224.024
 11
221.075
 20
27.334
 21
27.334
  0
LINE
  8
0
 10
221.075
 11
221.075
 20
27.334
 21
36.563
  0
LINE
  8
0
 10
221.075
 11
224.024
 20
36.563
 21
36.563
  0
LINE
  8
0
 10
224.024
 11
224.024
 20
36.563
 21
45.59
  0
LINE
  8
0
 10
224.024
 11
221.075
 20
45.59
 21
45.59
  0
LINE
  8
0
 10
221.075
 11
221.075
 20
45.59
 21
54.82
  0
LINE
  8
0
 10
221.075
 11
224.024
 20
54.82
 21
54.82
  0
LINE
  8
0
 10
224.024
 11
224.024
 20
54.82
 21
63.846
  0
LINE
  8
0
 10
224.024
 11
221.075
 20
63.846
 21
63.846
  0
LINE
  8
0
 10
221.075
 11
221.075
 20
63.846
 21
73.025
  0
LINE
  8
0
 10
221.075
 11
230.254
 20
73.025
 21
73.025
  0
LINE
  8
0
 10
230.254
 11
230.254
 20
73.025
 21
70.076
  0
LINE
  8
0
 10
230.254
 11
239.28
 20
70.076
 21
70.076
  0
LINE
  8
0
 10
239.28
 11
239.28
 20
70.076
 21
73.025
  0
LINE
  8
0
 10
239.28
 11
248.51
 20
73.025
 21
73.025
  0
LINE
  8
0
 10
248.51
 11
248.51
 20
73.025
 21
70.076
  0
LINE
  8
0
 10
248.51
 11
257.537
 20
70.076
 21
70.076
  0
LINE
  8
0
 10
257.537
 11
257.537
 20
70.076
 21
73.025
  0
LINE
  8
0
 10
257.537
 11
266.766
 20
73.025
 21
73.025
  0
LINE
  8
0
 10
266.766
 11
266.766
 20
73.025
 21
70.076
  0
LINE
  8
0
 10
266.766
 11
275.793
 20
70.076
 21
70.076
  0
LINE
  8
0
 10
275.793
 11
275.793
 20
70.076
 21
73.025
  0
LINE
  8
0
 10
275.793
 11
285.023
 20
73.025
 21
73.025
  0
LINE
  8
0
 10
285.023
 11
285.023
 20
73.025
 21
70.076
  0
LINE
  8
0
 10
285.023
 11
294.049
 20
70.076
 21
70.076
  0
LINE
  8
0
 10
294.049
 11
294.049
 20
70.076
 21
73.025
  0
LINE
  8
0
 10
294.049
 11
303.279
 20
73.025
 21
73.025
  0
LINE
  8
0
 10
303.279
 11
303.279
 20
73.025
 21
70.076
  0
LINE
  8
0
 10
303.279
 11
312.305
 20
70.076
 21
70.076
  0
LINE
  8
0
 10
312.305
 11
312.305
 20
70.076
 21
73.025
  0
LINE
  8
0
 10
312.305
 11
321.535
 20
73.025
 21
73.025
  0
LINE
  8
0
 10
321.535
 11
321.535
 20
73.025
 21
70.076
  0
LINE
  8
0
 10
321.535
 11
330.562
 20
70.076
 21
70.076
  0
LINE
  8
0
 10
330.562
 11
330.562
 20
70.076
 21
73.025
  0
LINE
  8
0
 10
330.562
 11
339.791
 20
73.025
 21
73.025
  0
LINE
  8
0
 10
339.791
 11
339.791
 20
73.025
 21
70.076
  0
LINE
  8
0
 10
339.791
 11
348.818
 20
70.076
 21
70.076
  0
LINE
  8
0
 10
348.818
 11
348.818
 20
70.076
 21
73.025
  0
LINE
  8
0
 10
348.818
 11
358.048
 20
73.025
 21
73.025
  0
LINE
  8
0
 10
358.048
 11
358.048
 20
73.025
 21
70.076
  0
LINE
  8
0
 10
358.048
 11
364.176
 20
70.076
 21
70.076
  0
LINE
  8
0
 10
364.176
 11
364.176
 20
70.076
 21
63.948
  0
LINE
  8
0
 10
364.176
 11
367.125
 20
63.948
 21
63.948
  0
LINE
  8
0
 10
367.125
 11
367.125
 20
63.948
 21
54.718
  0
LINE
  8
0
 10
367.125
 11
364.176
 20
54.718
 21
54.718
  0
LINE
  8
0
 10
364.176
 11
364.176
 20
54.718
 21
45.691
  0
LINE
  8
0
 10
364.176
 11
367.125
 20
45.691
 21
45.691
  0
LINE
  8
0
 10
367.125
 11
367.125
 20
45.691
 21
36.462
  0
LINE
  8
0
 10
367.125
 11
364.176
 20
36.462
 21
36.462
  0
LINE
  8
0
 10
364.176
 11
364.176
 20
36.462
 21
27.435
  0
LINE
  8
0
 10
364.176
 11
367.125
 20
27.435
 21
27.435
  0
LINE
  8
0
 10
367.125
 11
367.125
 20
27.435
 21
18.205
  0
LINE
  8
0
 10
367.125
 11
364.176
 20
18.205
 21
18.205
  0
LINE
  8
0
 10
364.176
 11
364.176
 20
18.205
 21
9.179
  0
LINE
  8
0
 10
364.176
 11
367.125
 20
9.179
 21
9.179
  0
LINE
  8
0
 10
367.125
 11
367.125
 20
9.179
 21
-0.051
  0
LINE
  8
0
 10
367.125
 11
364.176
 20
-0.051
 21
-0.051
  0
LINE
  8
0
 10
364.176
 11
364.176
 20
-0.051
 21
-9.077
  0
LINE
  8
0
 10
364.176
 11
367.125
 20
-9.077
 21
-9.077
  0
LINE
  8
0
 10
367.125
 11
367.125
 20
-9.077
 21
-18.307
  0
LINE
  8
0
 10
367.125
 11
364.176
 20
-18.307
 21
-18.307
  0
LINE
  8
0
 10
364.176
 11
364.176
 20
-18.307
 21
-27.334
  0
LINE
  8
0
 10
364.176
 11
367.125
 20
-27.334
 21
-27.334
  0
LINE
  8
0
 10
367.125
 11
367.125
 20
-27.334
 21
-36.563
  0
LINE
  8
0
 10
367.125
 11
364.176
 20
-36.563
 21
-36.563
  0
LINE
  8
0
 10
364.176
 11
364.176
 20
-36.563
 21
-45.59
  0
LINE
  8
0
 10
364.176
 11
367.125
 20
-45.59
 21
-45.59
  0
LINE
  8
0
 10
367.125
 11
367.125
 20
-45.59
 21
-54.82
  0
LINE
  8
0
 10
367.125
 11
364.176
 20
-54.82
 21
-54.82
  0
LINE
  8
0
 10
364.176
 11
364.176
 20
-54.82
 21
-63.846
  0
LINE
  8
0
 10
364.176
 11
367.125
 20
-63.846
 21
-63.846
  0
LINE
  8
0
 10
367.125
 11
367.125
 20
-63.846
 21
-73.025
  0
LINE
  8
0
 10
367.125
 11
357.946
 20
-73.025
 21
-73.025
  0
LINE
  8
0
 10
357.946
 11
357.946
 20
-73.025
 21
-70.076
  0
LINE
  8
0
 10
357.946
 11
348.92
 20
-70.076
 21
-70.076
  0
LINE
  8
0
 10
348.92
 11
348.92
 20
-70.076
 21
-73.025
  0
LINE
  8
0
 10
348.92
 11
339.69
 20
-73.025
 21
-73.025
  0
LINE
  8
0
 10
339.69
 11
339.69
 20
-73.025
 21
-70.076
  0
LINE
  8
0
 10
339.69
 11
330.663
 20
-70.076
 21
-70.076
  0
LINE
  8
0
 10
330.663
 11
330.663
 20
-70.076
 21
-73.025
  0
LINE
  8
0
 10
330.663
 11
321.434
 20
-73.025
 21
-73.025
  0
LINE
  8
0
 10
321.434
 11
321.434
 20
-73.025
 21
-70.076
  0
LINE
  8
0
 10
321.434
 11
312.407
 20
-70.076
 21
-70.076
  0
LINE
  8
0
 10
312.407
 11
312.407
 20
-70.076
 21
-73.025
  0
LINE
  8
0
 10
312.407
 11
303.177
 20
-73.025
 21
-73.025
  0
LINE
  8
0
 10
303.177
 11
303.177
 20
-73.025
 21
-70.076
  0
LINE
  8
0
 10
303.177
 11
294.151
 20
-70.076
 21
-70.076
  0
LINE
  8
0
 10
294.151
 11
294.151
 20
-70.076
 21
-73.025
  0
LINE
  8
0
 10
294.151
 11
284.921
 20
-73.025
 21
-73.025
  0
LINE
  8
0
 10
284.921
 11
284.921
 20
-73.025
 21
-70.076
  0
LINE
  8
0
 10
284.921
 11
275.895
 20
-70.076
 21
-70.076
  0
LINE
  8
0
 10
275.895
 11
275.895
 20
-70.076
 21
-73.025
  0
LINE
  8
0
 10
275.895
 11
266.665
 20
-73.025
 21
-73.025
  0
LINE
  8
0
 10
266.665
 11
266.665
 20
-73.025
 21
-70.076
  0
LINE
  8
0
 10
266.665
 11
257.638
 20
-70.076
 21
-70.076
  0
LINE
  8
0
 10
257.638
 11
257.638
 20
-70.076
 21
-73.025
  0
LINE
  8
0
 10
257.638
 11
248.409
 20
-73.025
 21
-73.025
  0
LINE
  8
0
 10
248.409
 11
248.409
 20
-73.025
 21
-70.076
  0
LINE
  8
0
 10
248.409
 11
239.382
 20
-70.076
 21
-70.076
  0
LINE
  8
0
 10
239.382
 11
239.382
 20
-70.076
 21
-73.025
  0
LINE
  8
0
 10
239.382
 11
230.152
 20
-73.025
 21
-73.025
  0
LINE
  8
0
 10
230.152
 11
230.152
 20
-73.025
 21
-70.076
  0
LINE
  8
0
 10
230.152
 11
224.024
 20
-70.076
 21
-70.076
  0
LINE
  8
0
 10
224.024
 11
224.024
 20
-70.076
 21
-63.948
  0
LINE
  8
0
 10
224.024
 11
221.075
 20
-63.948
 21
-63.948
  0
LINE
  8
0
 10
367.074
 11
367.074
 20
72.974
 21
73.025
  0
LINE
  8
0
 10
367.074
 11
367.125
 20
73.025
 21
73.025
  0
LINE
  8
0
 10
367.125
 11
367.125
 20
73.025
 21
72.974
  0
LINE
  8
0
 10
367.125
 11
367.074
 20
72.974
 21
72.974
  0
ENDSEC
  0
SECTION
  2
OBJECTS
  0
DICTIONARY
  0
ENDSEC
  0
EOF
