  0
SECTION
  2
BLOCKS
  0
ENDSEC
  0
SECTION
  2
ENTITIES
  0
LINE
  8
0
 10
-73.025
 11
-73.025
 20
-220.075
 21
-220.011
  0
LINE
  8
0
 10
-73.025
 11
-72.961
 20
-220.011
 21
-220.011
  0
LINE
  8
0
 10
-72.961
 11
-72.961
 20
-220.011
 21
-220.075
  0
LINE
  8
0
 10
-72.961
 11
-73.025
 20
-220.075
 21
-220.075
  0
LINE
  8
0
 10
-73.025
 11
-73.025
 20
-211.01
 21
-201.755
  0
LINE
  8
0
 10
-73.025
 11
-70.089
 20
-201.755
 21
-201.755
  0
LINE
  8
0
 10
-70.089
 11
-70.089
 20
-201.755
 21
-192.754
  0
LINE
  8
0
 10
-70.089
 11
-73.025
 20
-192.754
 21
-192.754
  0
LINE
  8
0
 10
-73.025
 11
-73.025
 20
-192.754
 21
-183.499
  0
LINE
  8
0
 10
-73.025
 11
-70.089
 20
-183.499
 21
-183.499
  0
LINE
  8
0
 10
-70.089
 11
-70.089
 20
-183.499
 21
-174.498
  0
LINE
  8
0
 10
-70.089
 11
-73.025
 20
-174.498
 21
-174.498
  0
LINE
  8
0
 10
-73.025
 11
-73.025
 20
-174.498
 21
-165.243
  0
LINE
  8
0
 10
-73.025
 11
-70.089
 20
-165.243
 21
-165.243
  0
LINE
  8
0
 10
-70.089
 11
-70.089
 20
-165.243
 21
-156.242
  0
LINE
  8
0
 10
-70.089
 11
-73.025
 20
-156.242
 21
-156.242
  0
LINE
  8
0
 10
-73.025
 11
-73.025
 20
-156.242
 21
-146.987
  0
LINE
  8
0
 10
-73.025
 11
-70.089
 20
-146.987
 21
-146.987
  0
LINE
  8
0
 10
-70.089
 11
-70.089
 20
-146.987
 21
-137.985
  0
LINE
  8
0
 10
-70.089
 11
-73.025
 20
-137.985
 21
-137.985
  0
LINE
  8
0
 10
-73.025
 11
-73.025
 20
-137.985
 21
-128.73
  0
LINE
  8
0
 10
-73.025
 11
-70.089
 20
-128.73
 21
-128.73
  0
LINE
  8
0
 10
-70.089
 11
-70.089
 20
-128.73
 21
-119.729
  0
LINE
  8
0
 10
-70.089
 11
-73.025
 20
-119.729
 21
-119.729
  0
LINE
  8
0
 10
-73.025
 11
-73.025
 20
-119.729
 21
-110.474
  0
LINE
  8
0
 10
-73.025
 11
-70.089
 20
-110.474
 21
-110.474
  0
LINE
  8
0
 10
-70.089
 11
-70.089
 20
-110.474
 21
-101.473
  0
LINE
  8
0
 10
-70.089
 11
-73.025
 20
-101.473
 21
-101.473
  0
LINE
  8
0
 10
-73.025
 11
-73.025
 20
-101.473
 21
-92.218
  0
LINE
  8
0
 10
-73.025
 11
-70.089
 20
-92.218
 21
-92.218
  0
LINE
  8
0
 10
-70.089
 11
-70.089
 20
-92.218
 21
-83.217
  0
LINE
  8
0
 10
-70.089
 11
-73.025
 20
-83.217
 21
-83.217
  0
LINE
  8
0
 10
-73.025
 11
-73.025
 20
-83.217
 21
-74.025
  0
LINE
  8
0
 10
-73.025
 11
-63.833
 20
-74.025
 21
-74.025
  0
LINE
  8
0
 10
-63.833
 11
-63.833
 20
-74.025
 21
-76.962
  0
LINE
  8
0
 10
-63.833
 11
-54.832
 20
-76.962
 21
-76.962
  0
LINE
  8
0
 10
-54.832
 11
-54.832
 20
-76.962
 21
-74.025
  0
LINE
  8
0
 10
-54.832
 11
-45.577
 20
-74.025
 21
-74.025
  0
LINE
  8
0
 10
-45.577
 11
-45.577
 20
-74.025
 21
-76.962
  0
LINE
  8
0
 10
-45.577
 11
-36.576
 20
-76.962
 21
-76.962
  0
LINE
  8
0
 10
-36.576
 11
-36.576
 20
-76.962
 21
-74.025
  0
LINE
  8
0
 10
-36.576
 11
-27.321
 20
-74.025
 21
-74.025
  0
LINE
  8
0
 10
-27.321
 11
-27.321
 20
-74.025
 21
-76.962
  0
LINE
  8
0
 10
-27.321
 11
-18.32
 20
-76.962
 21
-76.962
  0
LINE
  8
0
 10
-18.32
 11
-18.32
 20
-76.962
 21
-74.025
  0
LINE
  8
0
 10
-18.32
 11
-9.065
 20
-74.025
 21
-74.025
  0
LINE
  8
0
 10
-9.065
 11
-9.065
 20
-74.025
 21
-76.962
  0
LINE
  8
0
 10
-9.065
 11
-0.064
 20
-76.962
 21
-76.962
  0
LINE
  8
0
 10
-0.064
 11
-0.064
 20
-76.962
 21
-74.025
  0
LINE
  8
0
 10
-0.064
 11
9.192
 20
-74.025
 21
-74.025
  0
LINE
  8
0
 10
9.192
 11
9.192
 20
-74.025
 21
-76.962
  0
LINE
  8
0
 10
9.192
 11
18.193
 20
-76.962
 21
-76.962
  0
LINE
  8
0
 10
18.193
 11
18.193
 20
-76.962
 21
-74.025
  0
LINE
  8
0
 10
18.193
 11
27.448
 20
-74.025
 21
-74.025
  0
LINE
  8
0
 10
27.448
 11
27.448
 20
-74.025
 21
-76.962
  0
LINE
  8
0
 10
27.448
 11
36.449
 20
-76.962
 21
-76.962
  0
LINE
  8
0
 10
36.449
 11
36.449
 20
-76.962
 21
-74.025
  0
LINE
  8
0
 10
36.449
 11
45.704
 20
-74.025
 21
-74.025
  0
LINE
  8
0
 10
45.704
 11
45.704
 20
-74.025
 21
-76.962
  0
LINE
  8
0
 10
45.704
 11
54.705
 20
-76.962
 21
-76.962
  0
LINE
  8
0
 10
54.705
 11
54.705
 20
-76.962
 21
-74.025
  0
LINE
  8
0
 10
54.705
 11
63.96
 20
-74.025
 21
-74.025
  0
LINE
  8
0
 10
63.96
 11
63.96
 20
-74.025
 21
-76.962
  0
LINE
  8
0
 10
63.96
 11
70.089
 20
-76.962
 21
-76.962
  0
LINE
  8
0
 10
70.089
 11
70.089
 20
-76.962
 21
-83.09
  0
LINE
  8
0
 10
70.089
 11
73.025
 20
-83.09
 21
-83.09
  0
LINE
  8
0
 10
73.025
 11
73.025
 20
-83.09
 21
-92.345
  0
LINE
  8
0
 10
73.025
 11
70.089
 20
-92.345
 21
-92.345
  0
LINE
  8
0
 10
70.089
 11
70.089
 20
-92.345
 21
-101.346
  0
LINE
  8
0
 10
70.089
 11
73.025
 20
-101.346
 21
-101.346
  0
LINE
  8
0
 10
73.025
 11
73.025
 20
-101.346
 21
-110.601
  0
LINE
  8
0
 10
73.025
 11
70.089
 20
-110.601
 21
-110.601
  0
LINE
  8
0
 10
70.089
 11
70.089
 20
-110.601
 21
-119.602
  0
LINE
  8
0
 10
70.089
 11
73.025
 20
-119.602
 21
-119.602
  0
LINE
  8
0
 10
73.025
 11
73.025
 20
-119.602
 21
-128.857
  0
LINE
  8
0
 10
73.025
 11
70.089
 20
-128.857
 21
-128.857
  0
LINE
  8
0
 10
70.089
 11
70.089
 20
-128.857
 21
-137.858
  0
LINE
  8
0
 10
70.089
 11
73.025
 20
-137.858
 21
-137.858
  0
LINE
  8
0
 10
73.025
 11
73.025
 20
-137.858
 21
-147.114
  0
LINE
  8
0
 10
73.025
 11
70.089
 20
-147.114
 21
-147.114
  0
LINE
  8
0
 10
70.089
 11
70.089
 20
-147.114
 21
-156.115
  0
LINE
  8
0
 10
70.089
 11
73.025
 20
-156.115
 21
-156.115
  0
LINE
  8
0
 10
73.025
 11
73.025
 20
-156.115
 21
-165.37
  0
LINE
  8
0
 10
73.025
 11
70.089
 20
-165.37
 21
-165.37
  0
LINE
  8
0
 10
70.089
 11
70.089
 20
-165.37
 21
-174.371
  0
LINE
  8
0
 10
70.089
 11
73.025
 20
-174.371
 21
-174.371
  0
LINE
  8
0
 10
73.025
 11
73.025
 20
-174.371
 21
-183.626
  0
LINE
  8
0
 10
73.025
 11
70.089
 20
-183.626
 21
-183.626
  0
LINE
  8
0
 10
70.089
 11
70.089
 20
-183.626
 21
-192.627
  0
LINE
  8
0
 10
70.089
 11
73.025
 20
-192.627
 21
-192.627
  0
LINE
  8
0
 10
73.025
 11
73.025
 20
-192.627
 21
-201.882
  0
LINE
  8
0
 10
73.025
 11
70.089
 20
-201.882
 21
-201.882
  0
LINE
  8
0
 10
70.089
 11
70.089
 20
-201.882
 21
-210.883
  0
LINE
  8
0
 10
70.089
 11
73.025
 20
-210.883
 21
-210.883
  0
LINE
  8
0
 10
73.025
 11
73.025
 20
-210.883
 21
-220.075
  0
LINE
  8
0
 10
73.025
 11
63.833
 20
-220.075
 21
-220.075
  0
LINE
  8
0
 10
63.833
 11
63.833
 20
-220.075
 21
-217.139
  0
LINE
  8
0
 10
63.833
 11
54.832
 20
-217.139
 21
-217.139
  0
LINE
  8
0
 10
54.832
 11
54.832
 20
-217.139
 21
-220.075
  0
LINE
  8
0
 10
54.832
 11
45.577
 20
-220.075
 21
-220.075
  0
LINE
  8
0
 10
45.577
 11
45.577
 20
-220.075
 21
-217.139
  0
LINE
  8
0
 10
45.577
 11
36.576
 20
-217.139
 21
-217.139
  0
LINE
  8
0
 10
36.576
 11
36.576
 20
-217.139
 21
-220.075
  0
LINE
  8
0
 10
36.576
 11
27.321
 20
-220.075
 21
-220.075
  0
LINE
  8
0
 10
27.321
 11
27.321
 20
-220.075
 21
-217.139
  0
LINE
  8
0
 10
27.321
 11
18.32
 20
-217.139
 21
-217.139
  0
LINE
  8
0
 10
18.32
 11
18.32
 20
-217.139
 21
-220.075
  0
LINE
  8
0
 10
18.32
 11
9.065
 20
-220.075
 21
-220.075
  0
LINE
  8
0
 10
9.065
 11
9.065
 20
-220.075
 21
-217.139
  0
LINE
  8
0
 10
9.065
 11
0.064
 20
-217.139
 21
-217.139
  0
LINE
  8
0
 10
0.064
 11
0.064
 20
-217.139
 21
-220.075
  0
LINE
  8
0
 10
0.064
 11
-9.192
 20
-220.075
 21
-220.075
  0
LINE
  8
0
 10
-9.192
 11
-9.192
 20
-220.075
 21
-217.139
  0
LINE
  8
0
 10
-9.192
 11
-18.193
 20
-217.139
 21
-217.139
  0
LINE
  8
0
 10
-18.193
 11
-18.193
 20
-217.139
 21
-220.075
  0
LINE
  8
0
 10
-18.193
 11
-27.448
 20
-220.075
 21
-220.075
  0
LINE
  8
0
 10
-27.448
 11
-27.448
 20
-220.075
 21
-217.139
  0
LINE
  8
0
 10
-27.448
 11
-36.449
 20
-217.139
 21
-217.139
  0
LINE
  8
0
 10
-36.449
 11
-36.449
 20
-217.139
 21
-220.075
  0
LINE
  8
0
 10
-36.449
 11
-45.704
 20
-220.075
 21
-220.075
  0
LINE
  8
0
 10
-45.704
 11
-45.704
 20
-220.075
 21
-217.139
  0
LINE
  8
0
 10
-45.704
 11
-54.705
 20
-217.139
 21
-217.139
  0
LINE
  8
0
 10
-54.705
 11
-54.705
 20
-217.139
 21
-220.075
  0
LINE
  8
0
 10
-54.705
 11
-63.96
 20
-220.075
 21
-220.075
  0
LINE
  8
0
 10
-63.96
 11
-63.96
 20
-220.075
 21
-217.139
  0
LINE
  8
0
 10
-63.96
 11
-70.089
 20
-217.139
 21
-217.139
  0
LINE
  8
0
 10
-70.089
 11
-70.089
 20
-217.139
 21
-211.01
  0
LINE
  8
0
 10
-70.089
 11
-73.025
 20
-211.01
 21
-211.01
  0
LINE
  8
0
 10
-73.025
 11
-73.025
 20
-73.025
 21
-72.961
  0
LINE
  8
0
 10
-73.025
 11
-72.961
 20
-72.961
 21
-72.961
  0
LINE
  8
0
 10
-72.961
 11
-72.961
 20
-72.961
 21
-73.025
  0
LINE
  8
0
 10
-72.961
 11
-73.025
 20
-73.025
 21
-73.025
  0
LINE
  8
0
 10
-73.025
 11
-73.025
 20
-63.96
 21
-54.705
  0
LINE
  8
0
 10
-73.025
 11
-70.089
 20
-54.705
 21
-54.705
  0
LINE
  8
0
 10
-70.089
 11
-70.089
 20
-54.705
 21
-45.704
  0
LINE
  8
0
 10
-70.089
 11
-73.025
 20
-45.704
 21
-45.704
  0
LINE
  8
0
 10
-73.025
 11
-73.025
 20
-45.704
 21
-36.449
  0
LINE
  8
0
 10
-73.025
 11
-70.089
 20
-36.449
 21
-36.449
  0
LINE
  8
0
 10
-70.089
 11
-70.089
 20
-36.449
 21
-27.448
  0
LINE
  8
0
 10
-70.089
 11
-73.025
 20
-27.448
 21
-27.448
  0
LINE
  8
0
 10
-73.025
 11
-73.025
 20
-27.448
 21
-18.193
  0
LINE
  8
0
 10
-73.025
 11
-70.089
 20
-18.193
 21
-18.193
  0
LINE
  8
0
 10
-70.089
 11
-70.089
 20
-18.193
 21
-9.192
  0
LINE
  8
0
 10
-70.089
 11
-73.025
 20
-9.192
 21
-9.192
  0
LINE
  8
0
 10
-73.025
 11
-73.025
 20
-9.192
 21
0.064
  0
LINE
  8
0
 10
-73.025
 11
-70.089
 20
0.064
 21
0.064
  0
LINE
  8
0
 10
-70.089
 11
-70.089
 20
0.064
 21
9.065
  0
LINE
  8
0
 10
-70.089
 11
-73.025
 20
9.065
 21
9.065
  0
LINE
  8
0
 10
-73.025
 11
-73.025
 20
9.065
 21
18.32
  0
LINE
  8
0
 10
-73.025
 11
-70.089
 20
18.32
 21
18.32
  0
LINE
  8
0
 10
-70.089
 11
-70.089
 20
18.32
 21
27.321
  0
LINE
  8
0
 10
-70.089
 11
-73.025
 20
27.321
 21
27.321
  0
LINE
  8
0
 10
-73.025
 11
-73.025
 20
27.321
 21
36.576
  0
LINE
  8
0
 10
-73.025
 11
-70.089
 20
36.576
 21
36.576
  0
LINE
  8
0
 10
-70.089
 11
-70.089
 20
36.576
 21
45.577
  0
LINE
  8
0
 10
-70.089
 11
-73.025
 20
45.577
 21
45.577
  0
LINE
  8
0
 10
-73.025
 11
-73.025
 20
45.577
 21
54.832
  0
LINE
  8
0
 10
-73.025
 11
-70.089
 20
54.832
 21
54.832
  0
LINE
  8
0
 10
-70.089
 11
-70.089
 20
54.832
 21
63.833
  0
LINE
  8
0
 10
-70.089
 11
-73.025
 20
63.833
 21
63.833
  0
LINE
  8
0
 10
-73.025
 11
-73.025
 20
63.833
 21
73.025
  0
LINE
  8
0
 10
-73.025
 11
-63.833
 20
73.025
 21
73.025
  0
LINE
  8
0
 10
-63.833
 11
-63.833
 20
73.025
 21
70.089
  0
LINE
  8
0
 10
-63.833
 11
-54.832
 20
70.089
 21
70.089
  0
LINE
  8
0
 10
-54.832
 11
-54.832
 20
70.089
 21
73.025
  0
LINE
  8
0
 10
-54.832
 11
-45.577
 20
73.025
 21
73.025
  0
LINE
  8
0
 10
-45.577
 11
-45.577
 20
73.025
 21
70.089
  0
LINE
  8
0
 10
-45.577
 11
-36.576
 20
70.089
 21
70.089
  0
LINE
  8
0
 10
-36.576
 11
-36.576
 20
70.089
 21
73.025
  0
LINE
  8
0
 10
-36.576
 11
-27.321
 20
73.025
 21
73.025
  0
LINE
  8
0
 10
-27.321
 11
-27.321
 20
73.025
 21
70.089
  0
LINE
  8
0
 10
-27.321
 11
-18.32
 20
70.089
 21
70.089
  0
LINE
  8
0
 10
-18.32
 11
-18.32
 20
70.089
 21
73.025
  0
LINE
  8
0
 10
-18.32
 11
-9.065
 20
73.025
 21
73.025
  0
LINE
  8
0
 10
-9.065
 11
-9.065
 20
73.025
 21
70.089
  0
LINE
  8
0
 10
-9.065
 11
-0.064
 20
70.089
 21
70.089
  0
LINE
  8
0
 10
-0.064
 11
-0.064
 20
70.089
 21
73.025
  0
LINE
  8
0
 10
-0.064
 11
9.192
 20
73.025
 21
73.025
  0
LINE
  8
0
 10
9.192
 11
9.192
 20
73.025
 21
70.089
  0
LINE
  8
0
 10
9.192
 11
18.193
 20
70.089
 21
70.089
  0
LINE
  8
0
 10
18.193
 11
18.193
 20
70.089
 21
73.025
  0
LINE
  8
0
 10
18.193
 11
27.448
 20
73.025
 21
73.025
  0
LINE
  8
0
 10
27.448
 11
27.448
 20
73.025
 21
70.089
  0
LINE
  8
0
 10
27.448
 11
36.449
 20
70.089
 21
70.089
  0
LINE
  8
0
 10
36.449
 11
36.449
 20
70.089
 21
73.025
  0
LINE
  8
0
 10
36.449
 11
45.704
 20
73.025
 21
73.025
  0
LINE
  8
0
 10
45.704
 11
45.704
 20
73.025
 21
70.089
  0
LINE
  8
0
 10
45.704
 11
54.705
 20
70.089
 21
70.089
  0
LINE
  8
0
 10
54.705
 11
54.705
 20
70.089
 21
73.025
  0
LINE
  8
0
 10
54.705
 11
63.96
 20
73.025
 21
73.025
  0
LINE
  8
0
 10
63.96
 11
63.96
 20
73.025
 21
70.089
  0
LINE
  8
0
 10
63.96
 11
70.089
 20
70.089
 21
70.089
  0
LINE
  8
0
 10
70.089
 11
70.089
 20
70.089
 21
63.96
  0
LINE
  8
0
 10
70.089
 11
73.025
 20
63.96
 21
63.96
  0
LINE
  8
0
 10
73.025
 11
73.025
 20
63.96
 21
54.705
  0
LINE
  8
0
 10
73.025
 11
70.089
 20
54.705
 21
54.705
  0
LINE
  8
0
 10
70.089
 11
70.089
 20
54.705
 21
45.704
  0
LINE
  8
0
 10
70.089
 11
73.025
 20
45.704
 21
45.704
  0
LINE
  8
0
 10
73.025
 11
73.025
 20
45.704
 21
36.449
  0
LINE
  8
0
 10
73.025
 11
70.089
 20
36.449
 21
36.449
  0
LINE
  8
0
 10
70.089
 11
70.089
 20
36.449
 21
27.448
  0
LINE
  8
0
 10
70.089
 11
73.025
 20
27.448
 21
27.448
  0
LINE
  8
0
 10
73.025
 11
73.025
 20
27.448
 21
18.193
  0
LINE
  8
0
 10
73.025
 11
70.089
 20
18.193
 21
18.193
  0
LINE
  8
0
 10
70.089
 11
70.089
 20
18.193
 21
9.192
  0
LINE
  8
0
 10
70.089
 11
73.025
 20
9.192
 21
9.192
  0
LINE
  8
0
 10
73.025
 11
73.025
 20
9.192
 21
-0.064
  0
LINE
  8
0
 10
73.025
 11
70.089
 20
-0.064
 21
-0.064
  0
LINE
  8
0
 10
70.089
 11
70.089
 20
-0.064
 21
-9.065
  0
LINE
  8
0
 10
70.089
 11
73.025
 20
-9.065
 21
-9.065
  0
LINE
  8
0
 10
73.025
 11
73.025
 20
-9.065
 21
-18.32
  0
LINE
  8
0
 10
73.025
 11
70.089
 20
-18.32
 21
-18.32
  0
LINE
  8
0
 10
70.089
 11
70.089
 20
-18.32
 21
-27.321
  0
LINE
  8
0
 10
70.089
 11
73.025
 20
-27.321
 21
-27.321
  0
LINE
  8
0
 10
73.025
 11
73.025
 20
-27.321
 21
-36.576
  0
LINE
  8
0
 10
73.025
 11
70.089
 20
-36.576
 21
-36.576
  0
LINE
  8
0
 10
70.089
 11
70.089
 20
-36.576
 21
-45.577
  0
LINE
  8
0
 10
70.089
 11
73.025
 20
-45.577
 21
-45.577
  0
LINE
  8
0
 10
73.025
 11
73.025
 20
-45.577
 21
-54.832
  0
LINE
  8
0
 10
73.025
 11
70.089
 20
-54.832
 21
-54.832
  0
LINE
  8
0
 10
70.089
 11
70.089
 20
-54.832
 21
-63.833
  0
LINE
  8
0
 10
70.089
 11
73.025
 20
-63.833
 21
-63.833
  0
LINE
  8
0
 10
73.025
 11
73.025
 20
-63.833
 21
-73.025
  0
LINE
  8
0
 10
73.025
 11
63.833
 20
-73.025
 21
-73.025
  0
LINE
  8
0
 10
63.833
 11
63.833
 20
-73.025
 21
-70.089
  0
LINE
  8
0
 10
63.833
 11
54.832
 20
-70.089
 21
-70.089
  0
LINE
  8
0
 10
54.832
 11
54.832
 20
-70.089
 21
-73.025
  0
LINE
  8
0
 10
54.832
 11
45.577
 20
-73.025
 21
-73.025
  0
LINE
  8
0
 10
45.577
 11
45.577
 20
-73.025
 21
-70.089
  0
LINE
  8
0
 10
45.577
 11
36.576
 20
-70.089
 21
-70.089
  0
LINE
  8
0
 10
36.576
 11
36.576
 20
-70.089
 21
-73.025
  0
LINE
  8
0
 10
36.576
 11
27.321
 20
-73.025
 21
-73.025
  0
LINE
  8
0
 10
27.321
 11
27.321
 20
-73.025
 21
-70.089
  0
LINE
  8
0
 10
27.321
 11
18.32
 20
-70.089
 21
-70.089
  0
LINE
  8
0
 10
18.32
 11
18.32
 20
-70.089
 21
-73.025
  0
LINE
  8
0
 10
18.32
 11
9.065
 20
-73.025
 21
-73.025
  0
LINE
  8
0
 10
9.065
 11
9.065
 20
-73.025
 21
-70.089
  0
LINE
  8
0
 10
9.065
 11
0.064
 20
-70.089
 21
-70.089
  0
LINE
  8
0
 10
0.064
 11
0.064
 20
-70.089
 21
-73.025
  0
LINE
  8
0
 10
0.064
 11
-9.192
 20
-73.025
 21
-73.025
  0
LINE
  8
0
 10
-9.192
 11
-9.192
 20
-73.025
 21
-70.089
  0
LINE
  8
0
 10
-9.192
 11
-18.193
 20
-70.089
 21
-70.089
  0
LINE
  8
0
 10
-18.193
 11
-18.193
 20
-70.089
 21
-73.025
  0
LINE
  8
0
 10
-18.193
 11
-27.448
 20
-73.025
 21
-73.025
  0
LINE
  8
0
 10
-27.448
 11
-27.448
 20
-73.025
 21
-70.089
  0
LINE
  8
0
 10
-27.448
 11
-36.449
 20
-70.089
 21
-70.089
  0
LINE
  8
0
 10
-36.449
 11
-36.449
 20
-70.089
 21
-73.025
  0
LINE
  8
0
 10
-36.449
 11
-45.704
 20
-73.025
 21
-73.025
  0
LINE
  8
0
 10
-45.704
 11
-45.704
 20
-73.025
 21
-70.089
  0
LINE
  8
0
 10
-45.704
 11
-54.705
 20
-70.089
 21
-70.089
  0
LINE
  8
0
 10
-54.705
 11
-54.705
 20
-70.089
 21
-73.025
  0
LINE
  8
0
 10
-54.705
 11
-63.96
 20
-73.025
 21
-73.025
  0
LINE
  8
0
 10
-63.96
 11
-63.96
 20
-73.025
 21
-70.089
  0
LINE
  8
0
 10
-63.96
 11
-70.089
 20
-70.089
 21
-70.089
  0
LINE
  8
0
 10
-70.089
 11
-70.089
 20
-70.089
 21
-63.96
  0
LINE
  8
0
 10
-70.089
 11
-73.025
 20
-63.96
 21
-63.96
  0
LINE
  8
0
 10
72.961
 11
72.961
 20
-74.089
 21
-74.025
  0
LINE
  8
0
 10
72.961
 11
73.025
 20
-74.025
 21
-74.025
  0
LINE
  8
0
 10
73.025
 11
73.025
 20
-74.025
 21
-74.089
  0
LINE
  8
0
 10
73.025
 11
72.961
 20
-74.089
 21
-74.089
  0
LINE
  8
0
 10
72.961
 11
72.961
 20
72.961
 21
73.025
  0
LINE
  8
0
 10
72.961
 11
73.025
 20
73.025
 21
73.025
  0
LINE
  8
0
 10
73.025
 11
73.025
 20
73.025
 21
72.961
  0
LINE
  8
0
 10
73.025
 11
72.961
 20
72.961
 21
72.961
  0
LINE
  8
0
 10
74.025
 11
74.025
 20
-73.025
 21
-72.961
  0
LINE
  8
0
 10
74.025
 11
74.089
 20
-72.961
 21
-72.961
  0
LINE
  8
0
 10
74.089
 11
74.089
 20
-72.961
 21
-73.025
  0
LINE
  8
0
 10
74.089
 11
74.025
 20
-73.025
 21
-73.025
  0
LINE
  8
0
 10
74.025
 11
74.025
 20
-63.96
 21
-54.705
  0
LINE
  8
0
 10
74.025
 11
76.962
 20
-54.705
 21
-54.705
  0
LINE
  8
0
 10
76.962
 11
76.962
 20
-54.705
 21
-45.704
  0
LINE
  8
0
 10
76.962
 11
74.025
 20
-45.704
 21
-45.704
  0
LINE
  8
0
 10
74.025
 11
74.025
 20
-45.704
 21
-36.449
  0
LINE
  8
0
 10
74.025
 11
76.962
 20
-36.449
 21
-36.449
  0
LINE
  8
0
 10
76.962
 11
76.962
 20
-36.449
 21
-27.448
  0
LINE
  8
0
 10
76.962
 11
74.025
 20
-27.448
 21
-27.448
  0
LINE
  8
0
 10
74.025
 11
74.025
 20
-27.448
 21
-18.193
  0
LINE
  8
0
 10
74.025
 11
76.962
 20
-18.193
 21
-18.193
  0
LINE
  8
0
 10
76.962
 11
76.962
 20
-18.193
 21
-9.192
  0
LINE
  8
0
 10
76.962
 11
74.025
 20
-9.192
 21
-9.192
  0
LINE
  8
0
 10
74.025
 11
74.025
 20
-9.192
 21
0.064
  0
LINE
  8
0
 10
74.025
 11
76.962
 20
0.064
 21
0.064
  0
LINE
  8
0
 10
76.962
 11
76.962
 20
0.064
 21
9.065
  0
LINE
  8
0
 10
76.962
 11
74.025
 20
9.065
 21
9.065
  0
LINE
  8
0
 10
74.025
 11
74.025
 20
9.065
 21
18.32
  0
LINE
  8
0
 10
74.025
 11
76.962
 20
18.32
 21
18.32
  0
LINE
  8
0
 10
76.962
 11
76.962
 20
18.32
 21
27.321
  0
LINE
  8
0
 10
76.962
 11
74.025
 20
27.321
 21
27.321
  0
LINE
  8
0
 10
74.025
 11
74.025
 20
27.321
 21
36.576
  0
LINE
  8
0
 10
74.025
 11
76.962
 20
36.576
 21
36.576
  0
LINE
  8
0
 10
76.962
 11
76.962
 20
36.576
 21
45.577
  0
LINE
  8
0
 10
76.962
 11
74.025
 20
45.577
 21
45.577
  0
LINE
  8
0
 10
74.025
 11
74.025
 20
45.577
 21
54.832
  0
LINE
  8
0
 10
74.025
 11
76.962
 20
54.832
 21
54.832
  0
LINE
  8
0
 10
76.962
 11
76.962
 20
54.832
 21
63.833
  0
LINE
  8
0
 10
76.962
 11
74.025
 20
63.833
 21
63.833
  0
LINE
  8
0
 10
74.025
 11
74.025
 20
63.833
 21
73.025
  0
LINE
  8
0
 10
74.025
 11
83.217
 20
73.025
 21
73.025
  0
LINE
  8
0
 10
83.217
 11
83.217
 20
73.025
 21
70.089
  0
LINE
  8
0
 10
83.217
 11
92.218
 20
70.089
 21
70.089
  0
LINE
  8
0
 10
92.218
 11
92.218
 20
70.089
 21
73.025
  0
LINE
  8
0
 10
92.218
 11
101.473
 20
73.025
 21
73.025
  0
LINE
  8
0
 10
101.473
 11
101.473
 20
73.025
 21
70.089
  0
LINE
  8
0
 10
101.473
 11
110.474
 20
70.089
 21
70.089
  0
LINE
  8
0
 10
110.474
 11
110.474
 20
70.089
 21
73.025
  0
LINE
  8
0
 10
110.474
 11
119.729
 20
73.025
 21
73.025
  0
LINE
  8
0
 10
119.729
 11
119.729
 20
73.025
 21
70.089
  0
LINE
  8
0
 10
119.729
 11
128.73
 20
70.089
 21
70.089
  0
LINE
  8
0
 10
128.73
 11
128.73
 20
70.089
 21
73.025
  0
LINE
  8
0
 10
128.73
 11
137.985
 20
73.025
 21
73.025
  0
LINE
  8
0
 10
137.985
 11
137.985
 20
73.025
 21
70.089
  0
LINE
  8
0
 10
137.985
 11
146.986
 20
70.089
 21
70.089
  0
LINE
  8
0
 10
146.986
 11
146.986
 20
70.089
 21
73.025
  0
LINE
  8
0
 10
146.986
 11
156.242
 20
73.025
 21
73.025
  0
LINE
  8
0
 10
156.242
 11
156.242
 20
73.025
 21
70.089
  0
LINE
  8
0
 10
156.242
 11
165.243
 20
70.089
 21
70.089
  0
LINE
  8
0
 10
165.243
 11
165.243
 20
70.089
 21
73.025
  0
LINE
  8
0
 10
165.243
 11
174.498
 20
73.025
 21
73.025
  0
LINE
  8
0
 10
174.498
 11
174.498
 20
73.025
 21
70.089
  0
LINE
  8
0
 10
174.498
 11
183.499
 20
70.089
 21
70.089
  0
LINE
  8
0
 10
183.499
 11
183.499
 20
70.089
 21
73.025
  0
LINE
  8
0
 10
183.499
 11
192.754
 20
73.025
 21
73.025
  0
LINE
  8
0
 10
192.754
 11
192.754
 20
73.025
 21
70.089
  0
LINE
  8
0
 10
192.754
 11
201.755
 20
70.089
 21
70.089
  0
LINE
  8
0
 10
201.755
 11
201.755
 20
70.089
 21
73.025
  0
LINE
  8
0
 10
201.755
 11
211.01
 20
73.025
 21
73.025
  0
LINE
  8
0
 10
211.01
 11
211.01
 20
73.025
 21
70.089
  0
LINE
  8
0
 10
211.01
 11
217.139
 20
70.089
 21
70.089
  0
LINE
  8
0
 10
217.139
 11
217.139
 20
70.089
 21
63.96
  0
LINE
  8
0
 10
217.139
 11
220.075
 20
63.96
 21
63.96
  0
LINE
  8
0
 10
220.075
 11
220.075
 20
63.96
 21
54.705
  0
LINE
  8
0
 10
220.075
 11
217.139
 20
54.705
 21
54.705
  0
LINE
  8
0
 10
217.139
 11
217.139
 20
54.705
 21
45.704
  0
LINE
  8
0
 10
217.139
 11
220.075
 20
45.704
 21
45.704
  0
LINE
  8
0
 10
220.075
 11
220.075
 20
45.704
 21
36.449
  0
LINE
  8
0
 10
220.075
 11
217.139
 20
36.449
 21
36.449
  0
LINE
  8
0
 10
217.139
 11
217.139
 20
36.449
 21
27.448
  0
LINE
  8
0
 10
217.139
 11
220.075
 20
27.448
 21
27.448
  0
LINE
  8
0
 10
220.075
 11
220.075
 20
27.448
 21
18.193
  0
LINE
  8
0
 10
220.075
 11
217.139
 20
18.193
 21
18.193
  0
LINE
  8
0
 10
217.139
 11
217.139
 20
18.193
 21
9.192
  0
LINE
  8
0
 10
217.139
 11
220.075
 20
9.192
 21
9.192
  0
LINE
  8
0
 10
220.075
 11
220.075
 20
9.192
 21
-0.064
  0
LINE
  8
0
 10
220.075
 11
217.139
 20
-0.064
 21
-0.064
  0
LINE
  8
0
 10
217.139
 11
217.139
 20
-0.064
 21
-9.065
  0
LINE
  8
0
 10
217.139
 11
220.075
 20
-9.065
 21
-9.065
  0
LINE
  8
0
 10
220.075
 11
220.075
 20
-9.065
 21
-18.32
  0
LINE
  8
0
 10
220.075
 11
217.139
 20
-18.32
 21
-18.32
  0
LINE
  8
0
 10
217.139
 11
217.139
 20
-18.32
 21
-27.321
  0
LINE
  8
0
 10
217.139
 11
220.075
 20
-27.321
 21
-27.321
  0
LINE
  8
0
 10
220.075
 11
220.075
 20
-27.321
 21
-36.576
  0
LINE
  8
0
 10
220.075
 11
217.139
 20
-36.576
 21
-36.576
  0
LINE
  8
0
 10
217.139
 11
217.139
 20
-36.576
 21
-45.577
  0
LINE
  8
0
 10
217.139
 11
220.075
 20
-45.577
 21
-45.577
  0
LINE
  8
0
 10
220.075
 11
220.075
 20
-45.577
 21
-54.832
  0
LINE
  8
0
 10
220.075
 11
217.139
 20
-54.832
 21
-54.832
  0
LINE
  8
0
 10
217.139
 11
217.139
 20
-54.832
 21
-63.833
  0
LINE
  8
0
 10
217.139
 11
220.075
 20
-63.833
 21
-63.833
  0
LINE
  8
0
 10
220.075
 11
220.075
 20
-63.833
 21
-73.025
  0
LINE
  8
0
 10
220.075
 11
210.883
 20
-73.025
 21
-73.025
  0
LINE
  8
0
 10
210.883
 11
210.883
 20
-73.025
 21
-70.089
  0
LINE
  8
0
 10
210.883
 11
201.882
 20
-70.089
 21
-70.089
  0
LINE
  8
0
 10
201.882
 11
201.882
 20
-70.089
 21
-73.025
  0
LINE
  8
0
 10
201.882
 11
192.627
 20
-73.025
 21
-73.025
  0
LINE
  8
0
 10
192.627
 11
192.627
 20
-73.025
 21
-70.089
  0
LINE
  8
0
 10
192.627
 11
183.626
 20
-70.089
 21
-70.089
  0
LINE
  8
0
 10
183.626
 11
183.626
 20
-70.089
 21
-73.025
  0
LINE
  8
0
 10
183.626
 11
174.371
 20
-73.025
 21
-73.025
  0
LINE
  8
0
 10
174.371
 11
174.371
 20
-73.025
 21
-70.089
  0
LINE
  8
0
 10
174.371
 11
165.37
 20
-70.089
 21
-70.089
  0
LINE
  8
0
 10
165.37
 11
165.37
 20
-70.089
 21
-73.025
  0
LINE
  8
0
 10
165.37
 11
156.115
 20
-73.025
 21
-73.025
  0
LINE
  8
0
 10
156.115
 11
156.115
 20
-73.025
 21
-70.089
  0
LINE
  8
0
 10
156.115
 11
147.114
 20
-70.089
 21
-70.089
  0
LINE
  8
0
 10
147.114
 11
147.114
 20
-70.089
 21
-73.025
  0
LINE
  8
0
 10
147.114
 11
137.858
 20
-73.025
 21
-73.025
  0
LINE
  8
0
 10
137.858
 11
137.858
 20
-73.025
 21
-70.089
  0
LINE
  8
0
 10
137.858
 11
128.857
 20
-70.089
 21
-70.089
  0
LINE
  8
0
 10
128.857
 11
128.857
 20
-70.089
 21
-73.025
  0
LINE
  8
0
 10
128.857
 11
119.602
 20
-73.025
 21
-73.025
  0
LINE
  8
0
 10
119.602
 11
119.602
 20
-73.025
 21
-70.089
  0
LINE
  8
0
 10
119.602
 11
110.601
 20
-70.089
 21
-70.089
  0
LINE
  8
0
 10
110.601
 11
110.601
 20
-70.089
 21
-73.025
  0
LINE
  8
0
 10
110.601
 11
101.346
 20
-73.025
 21
-73.025
  0
LINE
  8
0
 10
101.346
 11
101.346
 20
-73.025
 21
-70.089
  0
LINE
  8
0
 10
101.346
 11
92.345
 20
-70.089
 21
-70.089
  0
LINE
  8
0
 10
92.345
 11
92.345
 20
-70.089
 21
-73.025
  0
LINE
  8
0
 10
92.345
 11
83.09
 20
-73.025
 21
-73.025
  0
LINE
  8
0
 10
83.09
 11
83.09
 20
-73.025
 21
-70.089
  0
LINE
  8
0
 10
83.09
 11
76.962
 20
-70.089
 21
-70.089
  0
LINE
  8
0
 10
76.962
 11
76.962
 20
-70.089
 21
-63.96
  0
LINE
  8
0
 10
76.962
 11
74.025
 20
-63.96
 21
-63.96
  0
LINE
  8
0
 10
74.025
 11
74.025
 20
-217.139
 21
-210.883
  0
LINE
  8
0
 10
74.025
 11
77.025
 20
-210.883
 21
-210.883
  0
LINE
  8
0
 10
77.025
 11
77.025
 20
-210.883
 21
-201.882
  0
LINE
  8
0
 10
77.025
 11
74.025
 20
-201.882
 21
-201.882
  0
LINE
  8
0
 10
74.025
 11
74.025
 20
-201.882
 21
-192.627
  0
LINE
  8
0
 10
74.025
 11
77.025
 20
-192.627
 21
-192.627
  0
LINE
  8
0
 10
77.025
 11
77.025
 20
-192.627
 21
-183.626
  0
LINE
  8
0
 10
77.025
 11
74.025
 20
-183.626
 21
-183.626
  0
LINE
  8
0
 10
74.025
 11
74.025
 20
-183.626
 21
-174.371
  0
LINE
  8
0
 10
74.025
 11
77.025
 20
-174.371
 21
-174.371
  0
LINE
  8
0
 10
77.025
 11
77.025
 20
-174.371
 21
-165.37
  0
LINE
  8
0
 10
77.025
 11
74.025
 20
-165.37
 21
-165.37
  0
LINE
  8
0
 10
74.025
 11
74.025
 20
-165.37
 21
-156.115
  0
LINE
  8
0
 10
74.025
 11
77.025
 20
-156.115
 21
-156.115
  0
LINE
  8
0
 10
77.025
 11
77.025
 20
-156.115
 21
-147.113
  0
LINE
  8
0
 10
77.025
 11
74.025
 20
-147.113
 21
-147.113
  0
LINE
  8
0
 10
74.025
 11
74.025
 20
-147.113
 21
-137.858
  0
LINE
  8
0
 10
74.025
 11
77.025
 20
-137.858
 21
-137.858
  0
LINE
  8
0
 10
77.025
 11
77.025
 20
-137.858
 21
-128.857
  0
LINE
  8
0
 10
77.025
 11
74.025
 20
-128.857
 21
-128.857
  0
LINE
  8
0
 10
74.025
 11
74.025
 20
-128.857
 21
-119.602
  0
LINE
  8
0
 10
74.025
 11
77.025
 20
-119.602
 21
-119.602
  0
LINE
  8
0
 10
77.025
 11
77.025
 20
-119.602
 21
-110.601
  0
LINE
  8
0
 10
77.025
 11
74.025
 20
-110.601
 21
-110.601
  0
LINE
  8
0
 10
74.025
 11
74.025
 20
-110.601
 21
-101.346
  0
LINE
  8
0
 10
74.025
 11
77.025
 20
-101.346
 21
-101.346
  0
LINE
  8
0
 10
77.025
 11
77.025
 20
-101.346
 21
-92.345
  0
LINE
  8
0
 10
77.025
 11
74.025
 20
-92.345
 21
-92.345
  0
LINE
  8
0
 10
74.025
 11
74.025
 20
-92.345
 21
-83.09
  0
LINE
  8
0
 10
74.025
 11
77.025
 20
-83.09
 21
-83.09
  0
LINE
  8
0
 10
77.025
 11
77.025
 20
-83.09
 21
-74.089
  0
LINE
  8
0
 10
77.025
 11
76.962
 20
-74.089
 21
-74.089
  0
LINE
  8
0
 10
76.962
 11
76.962
 20
-74.089
 21
-74.025
  0
LINE
  8
0
 10
76.962
 11
83.217
 20
-74.025
 21
-74.025
  0
LINE
  8
0
 10
83.217
 11
83.217
 20
-74.025
 21
-77.025
  0
LINE
  8
0
 10
83.217
 11
92.218
 20
-77.025
 21
-77.025
  0
LINE
  8
0
 10
92.218
 11
92.218
 20
-77.025
 21
-74.025
  0
LINE
  8
0
 10
92.218
 11
101.473
 20
-74.025
 21
-74.025
  0
LINE
  8
0
 10
101.473
 11
101.473
 20
-74.025
 21
-77.025
  0
LINE
  8
0
 10
101.473
 11
110.474
 20
-77.025
 21
-77.025
  0
LINE
  8
0
 10
110.474
 11
110.474
 20
-77.025
 21
-74.025
  0
LINE
  8
0
 10
110.474
 11
119.729
 20
-74.025
 21
-74.025
  0
LINE
  8
0
 10
119.729
 11
119.729
 20
-74.025
 21
-77.025
  0
LINE
  8
0
 10
119.729
 11
128.73
 20
-77.025
 21
-77.025
  0
LINE
  8
0
 10
128.73
 11
128.73
 20
-77.025
 21
-74.025
  0
LINE
  8
0
 10
128.73
 11
137.985
 20
-74.025
 21
-74.025
  0
LINE
  8
0
 10
137.985
 11
137.985
 20
-74.025
 21
-77.025
  0
LINE
  8
0
 10
137.985
 11
146.987
 20
-77.025
 21
-77.025
  0
LINE
  8
0
 10
146.987
 11
146.987
 20
-77.025
 21
-74.025
  0
LINE
  8
0
 10
146.987
 11
156.242
 20
-74.025
 21
-74.025
  0
LINE
  8
0
 10
156.242
 11
156.242
 20
-74.025
 21
-77.025
  0
LINE
  8
0
 10
156.242
 11
165.243
 20
-77.025
 21
-77.025
  0
LINE
  8
0
 10
165.243
 11
165.243
 20
-77.025
 21
-74.025
  0
LINE
  8
0
 10
165.243
 11
174.498
 20
-74.025
 21
-74.025
  0
LINE
  8
0
 10
174.498
 11
174.498
 20
-74.025
 21
-77.025
  0
LINE
  8
0
 10
174.498
 11
183.499
 20
-77.025
 21
-77.025
  0
LINE
  8
0
 10
183.499
 11
183.499
 20
-77.025
 21
-74.025
  0
LINE
  8
0
 10
183.499
 11
192.754
 20
-74.025
 21
-74.025
  0
LINE
  8
0
 10
192.754
 11
192.754
 20
-74.025
 21
-77.025
  0
LINE
  8
0
 10
192.754
 11
201.755
 20
-77.025
 21
-77.025
  0
LINE
  8
0
 10
201.755
 11
201.755
 20
-77.025
 21
-74.025
  0
LINE
  8
0
 10
201.755
 11
211.01
 20
-74.025
 21
-74.025
  0
LINE
  8
0
 10
211.01
 11
211.01
 20
-74.025
 21
-77.025
  0
LINE
  8
0
 10
211.01
 11
220.011
 20
-77.025
 21
-77.025
  0
LINE
  8
0
 10
220.011
 11
220.011
 20
-77.025
 21
-76.962
  0
LINE
  8
0
 10
220.011
 11
220.075
 20
-76.962
 21
-76.962
  0
LINE
  8
0
 10
220.075
 11
220.075
 20
-76.962
 21
-83.217
  0
LINE
  8
0
 10
220.075
 11
217.075
 20
-83.217
 21
-83.217
  0
LINE
  8
0
 10
217.075
 11
217.075
 20
-83.217
 21
-92.218
  0
LINE
  8
0
 10
217.075
 11
220.075
 20
-92.218
 21
-92.218
  0
LINE
  8
0
 10
220.075
 11
220.075
 20
-92.218
 21
-101.473
  0
LINE
  8
0
 10
220.075
 11
217.075
 20
-101.473
 21
-101.473
  0
LINE
  8
0
 10
217.075
 11
217.075
 20
-101.473
 21
-110.474
  0
LINE
  8
0
 10
217.075
 11
220.075
 20
-110.474
 21
-110.474
  0
LINE
  8
0
 10
220.075
 11
220.075
 20
-110.474
 21
-119.729
  0
LINE
  8
0
 10
220.075
 11
217.075
 20
-119.729
 21
-119.729
  0
LINE
  8
0
 10
217.075
 11
217.075
 20
-119.729
 21
-128.73
  0
LINE
  8
0
 10
217.075
 11
220.075
 20
-128.73
 21
-128.73
  0
LINE
  8
0
 10
220.075
 11
220.075
 20
-128.73
 21
-137.985
  0
LINE
  8
0
 10
220.075
 11
217.075
 20
-137.985
 21
-137.985
  0
LINE
  8
0
 10
217.075
 11
217.075
 20
-137.985
 21
-146.986
  0
LINE
  8
0
 10
217.075
 11
220.075
 20
-146.986
 21
-146.986
  0
LINE
  8
0
 10
220.075
 11
220.075
 20
-146.986
 21
-156.242
  0
LINE
  8
0
 10
220.075
 11
217.075
 20
-156.242
 21
-156.242
  0
LINE
  8
0
 10
217.075
 11
217.075
 20
-156.242
 21
-165.243
  0
LINE
  8
0
 10
217.075
 11
220.075
 20
-165.243
 21
-165.243
  0
LINE
  8
0
 10
220.075
 11
220.075
 20
-165.243
 21
-174.498
  0
LINE
  8
0
 10
220.075
 11
217.075
 20
-174.498
 21
-174.498
  0
LINE
  8
0
 10
217.075
 11
217.075
 20
-174.498
 21
-183.499
  0
LINE
  8
0
 10
217.075
 11
220.075
 20
-183.499
 21
-183.499
  0
LINE
  8
0
 10
220.075
 11
220.075
 20
-183.499
 21
-192.754
  0
LINE
  8
0
 10
220.075
 11
217.075
 20
-192.754
 21
-192.754
  0
LINE
  8
0
 10
217.075
 11
217.075
 20
-192.754
 21
-201.755
  0
LINE
  8
0
 10
217.075
 11
220.075
 20
-201.755
 21
-201.755
  0
LINE
  8
0
 10
220.075
 11
220.075
 20
-201.755
 21
-211.01
  0
LINE
  8
0
 10
220.075
 11
217.075
 20
-211.01
 21
-211.01
  0
LINE
  8
0
 10
217.075
 11
217.075
 20
-211.01
 21
-220.011
  0
LINE
  8
0
 10
217.075
 11
217.139
 20
-220.011
 21
-220.011
  0
LINE
  8
0
 10
217.139
 11
217.139
 20
-220.011
 21
-220.075
  0
LINE
  8
0
 10
217.139
 11
210.883
 20
-220.075
 21
-220.075
  0
LINE
  8
0
 10
210.883
 11
210.883
 20
-220.075
 21
-217.075
  0
LINE
  8
0
 10
210.883
 11
201.882
 20
-217.075
 21
-217.075
  0
LINE
  8
0
 10
201.882
 11
201.882
 20
-217.075
 21
-220.075
  0
LINE
  8
0
 10
201.882
 11
192.627
 20
-220.075
 21
-220.075
  0
LINE
  8
0
 10
192.627
 11
192.627
 20
-220.075
 21
-217.075
  0
LINE
  8
0
 10
192.627
 11
183.626
 20
-217.075
 21
-217.075
  0
LINE
  8
0
 10
183.626
 11
183.626
 20
-217.075
 21
-220.075
  0
LINE
  8
0
 10
183.626
 11
174.371
 20
-220.075
 21
-220.075
  0
LINE
  8
0
 10
174.371
 11
174.371
 20
-220.075
 21
-217.075
  0
LINE
  8
0
 10
174.371
 11
165.37
 20
-217.075
 21
-217.075
  0
LINE
  8
0
 10
165.37
 11
165.37
 20
-217.075
 21
-220.075
  0
LINE
  8
0
 10
165.37
 11
156.115
 20
-220.075
 21
-220.075
  0
LINE
  8
0
 10
156.115
 11
156.115
 20
-220.075
 21
-217.075
  0
LINE
  8
0
 10
156.115
 11
147.113
 20
-217.075
 21
-217.075
  0
LINE
  8
0
 10
147.113
 11
147.113
 20
-217.075
 21
-220.075
  0
LINE
  8
0
 10
147.113
 11
137.858
 20
-220.075
 21
-220.075
  0
LINE
  8
0
 10
137.858
 11
137.858
 20
-220.075
 21
-217.075
  0
LINE
  8
0
 10
137.858
 11
128.857
 20
-217.075
 21
-217.075
  0
LINE
  8
0
 10
128.857
 11
128.857
 20
-217.075
 21
-220.075
  0
LINE
  8
0
 10
128.857
 11
119.602
 20
-220.075
 21
-220.075
  0
LINE
  8
0
 10
119.602
 11
119.602
 20
-220.075
 21
-217.075
  0
LINE
  8
0
 10
119.602
 11
110.601
 20
-217.075
 21
-217.075
  0
LINE
  8
0
 10
110.601
 11
110.601
 20
-217.075
 21
-220.075
  0
LINE
  8
0
 10
110.601
 11
101.346
 20
-220.075
 21
-220.075
  0
LINE
  8
0
 10
101.346
 11
101.346
 20
-220.075
 21
-217.075
  0
LINE
  8
0
 10
101.346
 11
92.345
 20
-217.075
 21
-217.075
  0
LINE
  8
0
 10
92.345
 11
92.345
 20
-217.075
 21
-220.075
  0
LINE
  8
0
 10
92.345
 11
83.09
 20
-220.075
 21
-220.075
  0
LINE
  8
0
 10
83.09
 11
83.09
 20
-220.075
 21
-217.075
  0
LINE
  8
0
 10
83.09
 11
74.089
 20
-217.075
 21
-217.075
  0
LINE
  8
0
 10
74.089
 11
74.089
 20
-217.075
 21
-217.139
  0
LINE
  8
0
 10
74.089
 11
74.025
 20
-217.139
 21
-217.139
  0
LINE
  8
0
 10
143.166
 11
143.166
 20
-148.007
 21
-146.093
  0
LINE
  8
0
 10
143.166
 11
144.056
 20
-146.093
 21
-144.398
  0
LINE
  8
0
 10
144.056
 11
145.632
 20
-144.398
 21
-143.31
  0
LINE
  8
0
 10
145.632
 11
147.532
 20
-143.31
 21
-143.079
  0
LINE
  8
0
 10
147.532
 11
149.322
 20
-143.079
 21
-143.758
  0
LINE
  8
0
 10
149.322
 11
150.592
 20
-143.758
 21
-145.191
  0
LINE
  8
0
 10
150.592
 11
151.05
 20
-145.191
 21
-147.05
  0
LINE
  8
0
 10
151.05
 11
150.592
 20
-147.05
 21
-148.909
  0
LINE
  8
0
 10
150.592
 11
149.322
 20
-148.909
 21
-150.342
  0
LINE
  8
0
 10
149.322
 11
147.532
 20
-150.342
 21
-151.021
  0
LINE
  8
0
 10
147.532
 11
145.632
 20
-151.021
 21
-150.79
  0
LINE
  8
0
 10
145.632
 11
144.056
 20
-150.79
 21
-149.702
  0
LINE
  8
0
 10
144.056
 11
143.166
 20
-149.702
 21
-148.007
  0
LINE
  8
0
 10
220.011
 11
220.011
 20
72.961
 21
73.025
  0
LINE
  8
0
 10
220.011
 11
220.075
 20
73.025
 21
73.025
  0
LINE
  8
0
 10
220.075
 11
220.075
 20
73.025
 21
72.961
  0
LINE
  8
0
 10
220.075
 11
220.011
 20
72.961
 21
72.961
  0
LINE
  8
0
 10
221.075
 11
221.075
 20
-211.01
 21
-201.755
  0
LINE
  8
0
 10
221.075
 11
224.075
 20
-201.755
 21
-201.755
  0
LINE
  8
0
 10
224.075
 11
224.075
 20
-201.755
 21
-192.754
  0
LINE
  8
0
 10
224.075
 11
221.075
 20
-192.754
 21
-192.754
  0
LINE
  8
0
 10
221.075
 11
221.075
 20
-192.754
 21
-183.499
  0
LINE
  8
0
 10
221.075
 11
224.075
 20
-183.499
 21
-183.499
  0
LINE
  8
0
 10
224.075
 11
224.075
 20
-183.499
 21
-174.498
  0
LINE
  8
0
 10
224.075
 11
221.075
 20
-174.498
 21
-174.498
  0
LINE
  8
0
 10
221.075
 11
221.075
 20
-174.498
 21
-165.243
  0
LINE
  8
0
 10
221.075
 11
224.075
 20
-165.243
 21
-165.243
  0
LINE
  8
0
 10
224.075
 11
224.075
 20
-165.243
 21
-156.242
  0
LINE
  8
0
 10
224.075
 11
221.075
 20
-156.242
 21
-156.242
  0
LINE
  8
0
 10
221.075
 11
221.075
 20
-156.242
 21
-146.986
  0
LINE
  8
0
 10
221.075
 11
224.075
 20
-146.986
 21
-146.986
  0
LINE
  8
0
 10
224.075
 11
224.075
 20
-146.986
 21
-137.985
  0
LINE
  8
0
 10
224.075
 11
221.075
 20
-137.985
 21
-137.985
  0
LINE
  8
0
 10
221.075
 11
221.075
 20
-137.985
 21
-128.73
  0
LINE
  8
0
 10
221.075
 11
224.075
 20
-128.73
 21
-128.73
  0
LINE
  8
0
 10
224.075
 11
224.075
 20
-128.73
 21
-119.729
  0
LINE
  8
0
 10
224.075
 11
221.075
 20
-119.729
 21
-119.729
  0
LINE
  8
0
 10
221.075
 11
221.075
 20
-119.729
 21
-110.474
  0
LINE
  8
0
 10
221.075
 11
224.075
 20
-110.474
 21
-110.474
  0
LINE
  8
0
 10
224.075
 11
224.075
 20
-110.474
 21
-101.473
  0
LINE
  8
0
 10
224.075
 11
221.075
 20
-101.473
 21
-101.473
  0
LINE
  8
0
 10
221.075
 11
221.075
 20
-101.473
 21
-92.218
  0
LINE
  8
0
 10
221.075
 11
224.075
 20
-92.218
 21
-92.218
  0
LINE
  8
0
 10
224.075
 11
224.075
 20
-92.218
 21
-83.217
  0
LINE
  8
0
 10
224.075
 11
221.075
 20
-83.217
 21
-83.217
  0
LINE
  8
0
 10
221.075
 11
221.075
 20
-83.217
 21
-76.962
  0
LINE
  8
0
 10
221.075
 11
221.139
 20
-76.962
 21
-76.962
  0
LINE
  8
0
 10
221.139
 11
221.139
 20
-76.962
 21
-77.025
  0
LINE
  8
0
 10
221.139
 11
230.14
 20
-77.025
 21
-77.025
  0
LINE
  8
0
 10
230.14
 11
230.14
 20
-77.025
 21
-74.025
  0
LINE
  8
0
 10
230.14
 11
239.395
 20
-74.025
 21
-74.025
  0
LINE
  8
0
 10
239.395
 11
239.395
 20
-74.025
 21
-77.025
  0
LINE
  8
0
 10
239.395
 11
248.396
 20
-77.025
 21
-77.025
  0
LINE
  8
0
 10
248.396
 11
248.396
 20
-77.025
 21
-74.025
  0
LINE
  8
0
 10
248.396
 11
257.651
 20
-74.025
 21
-74.025
  0
LINE
  8
0
 10
257.651
 11
257.651
 20
-74.025
 21
-77.025
  0
LINE
  8
0
 10
257.651
 11
266.652
 20
-77.025
 21
-77.025
  0
LINE
  8
0
 10
266.652
 11
266.652
 20
-77.025
 21
-74.025
  0
LINE
  8
0
 10
266.652
 11
275.907
 20
-74.025
 21
-74.025
  0
LINE
  8
0
 10
275.907
 11
275.907
 20
-74.025
 21
-77.025
  0
LINE
  8
0
 10
275.907
 11
284.908
 20
-77.025
 21
-77.025
  0
LINE
  8
0
 10
284.908
 11
284.908
 20
-77.025
 21
-74.025
  0
LINE
  8
0
 10
284.908
 11
294.164
 20
-74.025
 21
-74.025
  0
LINE
  8
0
 10
294.164
 11
294.164
 20
-74.025
 21
-77.025
  0
LINE
  8
0
 10
294.164
 11
303.165
 20
-77.025
 21
-77.025
  0
LINE
  8
0
 10
303.165
 11
303.165
 20
-77.025
 21
-74.025
  0
LINE
  8
0
 10
303.165
 11
312.42
 20
-74.025
 21
-74.025
  0
LINE
  8
0
 10
312.42
 11
312.42
 20
-74.025
 21
-77.025
  0
LINE
  8
0
 10
312.42
 11
321.421
 20
-77.025
 21
-77.025
  0
LINE
  8
0
 10
321.421
 11
321.421
 20
-77.025
 21
-74.025
  0
LINE
  8
0
 10
321.421
 11
330.676
 20
-74.025
 21
-74.025
  0
LINE
  8
0
 10
330.676
 11
330.676
 20
-74.025
 21
-77.025
  0
LINE
  8
0
 10
330.676
 11
339.677
 20
-77.025
 21
-77.025
  0
LINE
  8
0
 10
339.677
 11
339.677
 20
-77.025
 21
-74.025
  0
LINE
  8
0
 10
339.677
 11
348.932
 20
-74.025
 21
-74.025
  0
LINE
  8
0
 10
348.932
 11
348.932
 20
-74.025
 21
-77.025
  0
LINE
  8
0
 10
348.932
 11
357.933
 20
-77.025
 21
-77.025
  0
LINE
  8
0
 10
357.933
 11
357.933
 20
-77.025
 21
-74.025
  0
LINE
  8
0
 10
357.933
 11
364.188
 20
-74.025
 21
-74.025
  0
LINE
  8
0
 10
364.188
 11
364.188
 20
-74.025
 21
-74.089
  0
LINE
  8
0
 10
364.188
 11
364.125
 20
-74.089
 21
-74.089
  0
LINE
  8
0
 10
364.125
 11
364.125
 20
-74.089
 21
-83.09
  0
LINE
  8
0
 10
364.125
 11
367.125
 20
-83.09
 21
-83.09
  0
LINE
  8
0
 10
367.125
 11
367.125
 20
-83.09
 21
-92.345
  0
LINE
  8
0
 10
367.125
 11
364.125
 20
-92.345
 21
-92.345
  0
LINE
  8
0
 10
364.125
 11
364.125
 20
-92.345
 21
-101.346
  0
LINE
  8
0
 10
364.125
 11
367.125
 20
-101.346
 21
-101.346
  0
LINE
  8
0
 10
367.125
 11
367.125
 20
-101.346
 21
-110.601
  0
LINE
  8
0
 10
367.125
 11
364.125
 20
-110.601
 21
-110.601
  0
LINE
  8
0
 10
364.125
 11
364.125
 20
-110.601
 21
-119.602
  0
LINE
  8
0
 10
364.125
 11
367.125
 20
-119.602
 21
-119.602
  0
LINE
  8
0
 10
367.125
 11
367.125
 20
-119.602
 21
-128.857
  0
LINE
  8
0
 10
367.125
 11
364.125
 20
-128.857
 21
-128.857
  0
LINE
  8
0
 10
364.125
 11
364.125
 20
-128.857
 21
-137.858
  0
LINE
  8
0
 10
364.125
 11
367.125
 20
-137.858
 21
-137.858
  0
LINE
  8
0
 10
367.125
 11
367.125
 20
-137.858
 21
-147.114
  0
LINE
  8
0
 10
367.125
 11
364.125
 20
-147.114
 21
-147.114
  0
LINE
  8
0
 10
364.125
 11
364.125
 20
-147.114
 21
-156.115
  0
LINE
  8
0
 10
364.125
 11
367.125
 20
-156.115
 21
-156.115
  0
LINE
  8
0
 10
367.125
 11
367.125
 20
-156.115
 21
-165.37
  0
LINE
  8
0
 10
367.125
 11
364.125
 20
-165.37
 21
-165.37
  0
LINE
  8
0
 10
364.125
 11
364.125
 20
-165.37
 21
-174.371
  0
LINE
  8
0
 10
364.125
 11
367.125
 20
-174.371
 21
-174.371
  0
LINE
  8
0
 10
367.125
 11
367.125
 20
-174.371
 21
-183.626
  0
LINE
  8
0
 10
367.125
 11
364.125
 20
-183.626
 21
-183.626
  0
LINE
  8
0
 10
364.125
 11
364.125
 20
-183.626
 21
-192.627
  0
LINE
  8
0
 10
364.125
 11
367.125
 20
-192.627
 21
-192.627
  0
LINE
  8
0
 10
367.125
 11
367.125
 20
-192.627
 21
-201.882
  0
LINE
  8
0
 10
367.125
 11
364.125
 20
-201.882
 21
-201.882
  0
LINE
  8
0
 10
364.125
 11
364.125
 20
-201.882
 21
-210.883
  0
LINE
  8
0
 10
364.125
 11
367.125
 20
-210.883
 21
-210.883
  0
LINE
  8
0
 10
367.125
 11
367.125
 20
-210.883
 21
-217.139
  0
LINE
  8
0
 10
367.125
 11
367.061
 20
-217.139
 21
-217.139
  0
LINE
  8
0
 10
367.061
 11
367.061
 20
-217.139
 21
-217.075
  0
LINE
  8
0
 10
367.061
 11
358.06
 20
-217.075
 21
-217.075
  0
LINE
  8
0
 10
358.06
 11
358.06
 20
-217.075
 21
-220.075
  0
LINE
  8
0
 10
358.06
 11
348.805
 20
-220.075
 21
-220.075
  0
LINE
  8
0
 10
348.805
 11
348.805
 20
-220.075
 21
-217.075
  0
LINE
  8
0
 10
348.805
 11
339.804
 20
-217.075
 21
-217.075
  0
LINE
  8
0
 10
339.804
 11
339.804
 20
-217.075
 21
-220.075
  0
LINE
  8
0
 10
339.804
 11
330.549
 20
-220.075
 21
-220.075
  0
LINE
  8
0
 10
330.549
 11
330.549
 20
-220.075
 21
-217.075
  0
LINE
  8
0
 10
330.549
 11
321.548
 20
-217.075
 21
-217.075
  0
LINE
  8
0
 10
321.548
 11
321.548
 20
-217.075
 21
-220.075
  0
LINE
  8
0
 10
321.548
 11
312.293
 20
-220.075
 21
-220.075
  0
LINE
  8
0
 10
312.293
 11
312.293
 20
-220.075
 21
-217.075
  0
LINE
  8
0
 10
312.293
 11
303.292
 20
-217.075
 21
-217.075
  0
LINE
  8
0
 10
303.292
 11
303.292
 20
-217.075
 21
-220.075
  0
LINE
  8
0
 10
303.292
 11
294.036
 20
-220.075
 21
-220.075
  0
LINE
  8
0
 10
294.036
 11
294.036
 20
-220.075
 21
-217.075
  0
LINE
  8
0
 10
294.036
 11
285.035
 20
-217.075
 21
-217.075
  0
LINE
  8
0
 10
285.035
 11
285.035
 20
-217.075
 21
-220.075
  0
LINE
  8
0
 10
285.035
 11
275.78
 20
-220.075
 21
-220.075
  0
LINE
  8
0
 10
275.78
 11
275.78
 20
-220.075
 21
-217.075
  0
LINE
  8
0
 10
275.78
 11
266.779
 20
-217.075
 21
-217.075
  0
LINE
  8
0
 10
266.779
 11
266.779
 20
-217.075
 21
-220.075
  0
LINE
  8
0
 10
266.779
 11
257.524
 20
-220.075
 21
-220.075
  0
LINE
  8
0
 10
257.524
 11
257.524
 20
-220.075
 21
-217.075
  0
LINE
  8
0
 10
257.524
 11
248.523
 20
-217.075
 21
-217.075
  0
LINE
  8
0
 10
248.523
 11
248.523
 20
-217.075
 21
-220.075
  0
LINE
  8
0
 10
248.523
 11
239.268
 20
-220.075
 21
-220.075
  0
LINE
  8
0
 10
239.268
 11
239.268
 20
-220.075
 21
-217.075
  0
LINE
  8
0
 10
239.268
 11
230.267
 20
-217.075
 21
-217.075
  0
LINE
  8
0
 10
230.267
 11
230.267
 20
-217.075
 21
-220.075
  0
LINE
  8
0
 10
230.267
 11
224.011
 20
-220.075
 21
-220.075
  0
LINE
  8
0
 10
224.011
 11
224.011
 20
-220.075
 21
-220.011
  0
LINE
  8
0
 10
224.011
 11
224.075
 20
-220.011
 21
-220.011
  0
LINE
  8
0
 10
224.075
 11
224.075
 20
-220.011
 21
-211.01
  0
LINE
  8
0
 10
224.075
 11
221.075
 20
-211.01
 21
-211.01
  0
LINE
  8
0
 10
221.075
 11
221.075
 20
-73.025
 21
-72.961
  0
LINE
  8
0
 10
221.075
 11
221.139
 20
-72.961
 21
-72.961
  0
LINE
  8
0
 10
221.139
 11
221.139
 20
-72.961
 21
-73.025
  0
LINE
  8
0
 10
221.139
 11
221.075
 20
-73.025
 21
-73.025
  0
LINE
  8
0
 10
221.075
 11
221.075
 20
-63.96
 21
-54.705
  0
LINE
  8
0
 10
221.075
 11
224.011
 20
-54.705
 21
-54.705
  0
LINE
  8
0
 10
224.011
 11
224.011
 20
-54.705
 21
-45.704
  0
LINE
  8
0
 10
224.011
 11
221.075
 20
-45.704
 21
-45.704
  0
LINE
  8
0
 10
221.075
 11
221.075
 20
-45.704
 21
-36.449
  0
LINE
  8
0
 10
221.075
 11
224.011
 20
-36.449
 21
-36.449
  0
LINE
  8
0
 10
224.011
 11
224.011
 20
-36.449
 21
-27.448
  0
LINE
  8
0
 10
224.011
 11
221.075
 20
-27.448
 21
-27.448
  0
LINE
  8
0
 10
221.075
 11
221.075
 20
-27.448
 21
-18.193
  0
LINE
  8
0
 10
221.075
 11
224.011
 20
-18.193
 21
-18.193
  0
LINE
  8
0
 10
224.011
 11
224.011
 20
-18.193
 21
-9.192
  0
LINE
  8
0
 10
224.011
 11
221.075
 20
-9.192
 21
-9.192
  0
LINE
  8
0
 10
221.075
 11
221.075
 20
-9.192
 21
0.064
  0
LINE
  8
0
 10
221.075
 11
224.011
 20
0.064
 21
0.064
  0
LINE
  8
0
 10
224.011
 11
224.011
 20
0.064
 21
9.065
  0
LINE
  8
0
 10
224.011
 11
221.075
 20
9.065
 21
9.065
  0
LINE
  8
0
 10
221.075
 11
221.075
 20
9.065
 21
18.32
  0
LINE
  8
0
 10
221.075
 11
224.011
 20
18.32
 21
18.32
  0
LINE
  8
0
 10
224.011
 11
224.011
 20
18.32
 21
27.321
  0
LINE
  8
0
 10
224.011
 11
221.075
 20
27.321
 21
27.321
  0
LINE
  8
0
 10
221.075
 11
221.075
 20
27.321
 21
36.576
  0
LINE
  8
0
 10
221.075
 11
224.011
 20
36.576
 21
36.576
  0
LINE
  8
0
 10
224.011
 11
224.011
 20
36.576
 21
45.577
  0
LINE
  8
0
 10
224.011
 11
221.075
 20
45.577
 21
45.577
  0
LINE
  8
0
 10
221.075
 11
221.075
 20
45.577
 21
54.832
  0
LINE
  8
0
 10
221.075
 11
224.011
 20
54.832
 21
54.832
  0
LINE
  8
0
 10
224.011
 11
224.011
 20
54.832
 21
63.833
  0
LINE
  8
0
 10
224.011
 11
221.075
 20
63.833
 21
63.833
  0
LINE
  8
0
 10
221.075
 11
221.075
 20
63.833
 21
73.025
  0
LINE
  8
0
 10
221.075
 11
230.267
 20
73.025
 21
73.025
  0
LINE
  8
0
 10
230.267
 11
230.267
 20
73.025
 21
70.089
  0
LINE
  8
0
 10
230.267
 11
239.268
 20
70.089
 21
70.089
  0
LINE
  8
0
 10
239.268
 11
239.268
 20
70.089
 21
73.025
  0
LINE
  8
0
 10
239.268
 11
248.523
 20
73.025
 21
73.025
  0
LINE
  8
0
 10
248.523
 11
248.523
 20
73.025
 21
70.089
  0
LINE
  8
0
 10
248.523
 11
257.524
 20
70.089
 21
70.089
  0
LINE
  8
0
 10
257.524
 11
257.524
 20
70.089
 21
73.025
  0
LINE
  8
0
 10
257.524
 11
266.779
 20
73.025
 21
73.025
  0
LINE
  8
0
 10
266.779
 11
266.779
 20
73.025
 21
70.089
  0
LINE
  8
0
 10
266.779
 11
275.78
 20
70.089
 21
70.089
  0
LINE
  8
0
 10
275.78
 11
275.78
 20
70.089
 21
73.025
  0
LINE
  8
0
 10
275.78
 11
285.035
 20
73.025
 21
73.025
  0
LINE
  8
0
 10
285.035
 11
285.035
 20
73.025
 21
70.089
  0
LINE
  8
0
 10
285.035
 11
294.036
 20
70.089
 21
70.089
  0
LINE
  8
0
 10
294.036
 11
294.036
 20
70.089
 21
73.025
  0
LINE
  8
0
 10
294.036
 11
303.292
 20
73.025
 21
73.025
  0
LINE
  8
0
 10
303.292
 11
303.292
 20
73.025
 21
70.089
  0
LINE
  8
0
 10
303.292
 11
312.293
 20
70.089
 21
70.089
  0
LINE
  8
0
 10
312.293
 11
312.293
 20
70.089
 21
73.025
  0
LINE
  8
0
 10
312.293
 11
321.548
 20
73.025
 21
73.025
  0
LINE
  8
0
 10
321.548
 11
321.548
 20
73.025
 21
70.089
  0
LINE
  8
0
 10
321.548
 11
330.549
 20
70.089
 21
70.089
  0
LINE
  8
0
 10
330.549
 11
330.549
 20
70.089
 21
73.025
  0
LINE
  8
0
 10
330.549
 11
339.804
 20
73.025
 21
73.025
  0
LINE
  8
0
 10
339.804
 11
339.804
 20
73.025
 21
70.089
  0
LINE
  8
0
 10
339.804
 11
348.805
 20
70.089
 21
70.089
  0
LINE
  8
0
 10
348.805
 11
348.805
 20
70.089
 21
73.025
  0
LINE
  8
0
 10
348.805
 11
358.06
 20
73.025
 21
73.025
  0
LINE
  8
0
 10
358.06
 11
358.06
 20
73.025
 21
70.089
  0
LINE
  8
0
 10
358.06
 11
364.188
 20
70.089
 21
70.089
  0
LINE
  8
0
 10
364.188
 11
364.188
 20
70.089
 21
63.96
  0
LINE
  8
0
 10
364.188
 11
367.125
 20
63.96
 21
63.96
  0
LINE
  8
0
 10
367.125
 11
367.125
 20
63.96
 21
54.705
  0
LINE
  8
0
 10
367.125
 11
364.188
 20
54.705
 21
54.705
  0
LINE
  8
0
 10
364.188
 11
364.188
 20
54.705
 21
45.704
  0
LINE
  8
0
 10
364.188
 11
367.125
 20
45.704
 21
45.704
  0
LINE
  8
0
 10
367.125
 11
367.125
 20
45.704
 21
36.449
  0
LINE
  8
0
 10
367.125
 11
364.188
 20
36.449
 21
36.449
  0
LINE
  8
0
 10
364.188
 11
364.188
 20
36.449
 21
27.448
  0
LINE
  8
0
 10
364.188
 11
367.125
 20
27.448
 21
27.448
  0
LINE
  8
0
 10
367.125
 11
367.125
 20
27.448
 21
18.193
  0
LINE
  8
0
 10
367.125
 11
364.188
 20
18.193
 21
18.193
  0
LINE
  8
0
 10
364.188
 11
364.188
 20
18.193
 21
9.192
  0
LINE
  8
0
 10
364.188
 11
367.125
 20
9.192
 21
9.192
  0
LINE
  8
0
 10
367.125
 11
367.125
 20
9.192
 21
-0.064
  0
LINE
  8
0
 10
367.125
 11
364.188
 20
-0.064
 21
-0.064
  0
LINE
  8
0
 10
364.188
 11
364.188
 20
-0.064
 21
-9.065
  0
LINE
  8
0
 10
364.188
 11
367.125
 20
-9.065
 21
-9.065
  0
LINE
  8
0
 10
367.125
 11
367.125
 20
-9.065
 21
-18.32
  0
LINE
  8
0
 10
367.125
 11
364.188
 20
-18.32
 21
-18.32
  0
LINE
  8
0
 10
364.188
 11
364.188
 20
-18.32
 21
-27.321
  0
LINE
  8
0
 10
364.188
 11
367.125
 20
-27.321
 21
-27.321
  0
LINE
  8
0
 10
367.125
 11
367.125
 20
-27.321
 21
-36.576
  0
LINE
  8
0
 10
367.125
 11
364.188
 20
-36.576
 21
-36.576
  0
LINE
  8
0
 10
364.188
 11
364.188
 20
-36.576
 21
-45.577
  0
LINE
  8
0
 10
364.188
 11
367.125
 20
-45.577
 21
-45.577
  0
LINE
  8
0
 10
367.125
 11
367.125
 20
-45.577
 21
-54.832
  0
LINE
  8
0
 10
367.125
 11
364.188
 20
-54.832
 21
-54.832
  0
LINE
  8
0
 10
364.188
 11
364.188
 20
-54.832
 21
-63.833
  0
LINE
  8
0
 10
364.188
 11
367.125
 20
-63.833
 21
-63.833
  0
LINE
  8
0
 10
367.125
 11
367.125
 20
-63.833
 21
-73.025
  0
LINE
  8
0
 10
367.125
 11
357.933
 20
-73.025
 21
-73.025
  0
LINE
  8
0
 10
357.933
 11
357.933
 20
-73.025
 21
-70.089
  0
LINE
  8
0
 10
357.933
 11
348.932
 20
-70.089
 21
-70.089
  0
LINE
  8
0
 10
348.932
 11
348.932
 20
-70.089
 21
-73.025
  0
LINE
  8
0
 10
348.932
 11
339.677
 20
-73.025
 21
-73.025
  0
LINE
  8
0
 10
339.677
 11
339.677
 20
-73.025
 21
-70.089
  0
LINE
  8
0
 10
339.677
 11
330.676
 20
-70.089
 21
-70.089
  0
LINE
  8
0
 10
330.676
 11
330.676
 20
-70.089
 21
-73.025
  0
LINE
  8
0
 10
330.676
 11
321.421
 20
-73.025
 21
-73.025
  0
LINE
  8
0
 10
321.421
 11
321.421
 20
-73.025
 21
-70.089
  0
LINE
  8
0
 10
321.421
 11
312.42
 20
-70.089
 21
-70.089
  0
LINE
  8
0
 10
312.42
 11
312.42
 20
-70.089
 21
-73.025
  0
LINE
  8
0
 10
312.42
 11
303.165
 20
-73.025
 21
-73.025
  0
LINE
  8
0
 10
303.165
 11
303.165
 20
-73.025
 21
-70.089
  0
LINE
  8
0
 10
303.165
 11
294.164
 20
-70.089
 21
-70.089
  0
LINE
  8
0
 10
294.164
 11
294.164
 20
-70.089
 21
-73.025
  0
LINE
  8
0
 10
294.164
 11
284.908
 20
-73.025
 21
-73.025
  0
LINE
  8
0
 10
284.908
 11
284.908
 20
-73.025
 21
-70.089
  0
LINE
  8
0
 10
284.908
 11
275.907
 20
-70.089
 21
-70.089
  0
LINE
  8
0
 10
275.907
 11
275.907
 20
-70.089
 21
-73.025
  0
LINE
  8
0
 10
275.907
 11
266.652
 20
-73.025
 21
-73.025
  0
LINE
  8
0
 10
266.652
 11
266.652
 20
-73.025
 21
-70.089
  0
LINE
  8
0
 10
266.652
 11
257.651
 20
-70.089
 21
-70.089
  0
LINE
  8
0
 10
257.651
 11
257.651
 20
-70.089
 21
-73.025
  0
LINE
  8
0
 10
257.651
 11
248.396
 20
-73.025
 21
-73.025
  0
LINE
  8
0
 10
248.396
 11
248.396
 20
-73.025
 21
-70.089
  0
LINE
  8
0
 10
248.396
 11
239.395
 20
-70.089
 21
-70.089
  0
LINE
  8
0
 10
239.395
 11
239.395
 20
-70.089
 21
-73.025
  0
LINE
  8
0
 10
239.395
 11
230.14
 20
-73.025
 21
-73.025
  0
LINE
  8
0
 10
230.14
 11
230.14
 20
-73.025
 21
-70.089
  0
LINE
  8
0
 10
230.14
 11
224.011
 20
-70.089
 21
-70.089
  0
LINE
  8
0
 10
224.011
 11
224.011
 20
-70.089
 21
-63.96
  0
LINE
  8
0
 10
224.011
 11
221.075
 20
-63.96
 21
-63.96
  0
LINE
  8
0
 10
367.061
 11
367.061
 20
72.961
 21
73.025
  0
LINE
  8
0
 10
367.061
 11
367.125
 20
73.025
 21
73.025
  0
LINE
  8
0
 10
367.125
 11
367.125
 20
73.025
 21
72.961
  0
LINE
  8
0
 10
367.125
 11
367.061
 20
72.961
 21
72.961
  0
ENDSEC
  0
SECTION
  2
OBJECTS
  0
DICTIONARY
  0
ENDSEC
  0
EOF
