  0
SECTION
  2
BLOCKS
  0
ENDSEC
  0
SECTION
  2
ENTITIES
  0
LINE
  8
0
 10
-63.897
 11
-63.897
 20
-187.722
 21
-59.928
  0
LINE
  8
0
 10
-63.897
 11
63.897
 20
-59.928
 21
-59.928
  0
LINE
  8
0
 10
63.897
 11
63.897
 20
-59.928
 21
-187.722
  0
LINE
  8
0
 10
63.897
 11
-63.897
 20
-187.722
 21
-187.722
  0
LINE
  8
0
 10
-54.769
 11
-54.769
 20
-178.594
 21
-169.466
  0
LINE
  8
0
 10
-54.769
 11
-45.641
 20
-169.466
 21
-169.466
  0
LINE
  8
0
 10
-45.641
 11
-45.641
 20
-169.466
 21
-178.594
  0
LINE
  8
0
 10
-45.641
 11
-54.769
 20
-178.594
 21
-178.594
  0
LINE
  8
0
 10
-54.769
 11
-54.769
 20
-123.825
 21
-105.569
  0
LINE
  8
0
 10
-54.769
 11
-36.512
 20
-105.569
 21
-105.569
  0
LINE
  8
0
 10
-36.512
 11
-36.512
 20
-105.569
 21
-114.696
  0
LINE
  8
0
 10
-36.512
 11
-27.384
 20
-114.696
 21
-114.696
  0
LINE
  8
0
 10
-27.384
 11
-27.384
 20
-114.696
 21
-105.569
  0
LINE
  8
0
 10
-27.384
 11
-9.128
 20
-105.569
 21
-105.569
  0
LINE
  8
0
 10
-9.128
 11
-9.128
 20
-105.569
 21
-87.313
  0
LINE
  8
0
 10
-9.128
 11
27.384
 20
-87.313
 21
-87.313
  0
LINE
  8
0
 10
27.384
 11
27.384
 20
-87.313
 21
-96.395
  0
LINE
  8
0
 10
27.384
 11
36.558
 20
-96.395
 21
-96.395
  0
LINE
  8
0
 10
36.558
 11
36.558
 20
-96.395
 21
-105.523
  0
LINE
  8
0
 10
36.558
 11
45.686
 20
-105.523
 21
-105.523
  0
LINE
  8
0
 10
45.686
 11
45.686
 20
-105.523
 21
-151.255
  0
LINE
  8
0
 10
45.686
 11
36.558
 20
-151.255
 21
-151.255
  0
LINE
  8
0
 10
36.558
 11
36.558
 20
-151.255
 21
-160.383
  0
LINE
  8
0
 10
36.558
 11
9.082
 20
-160.383
 21
-160.383
  0
LINE
  8
0
 10
9.082
 11
9.082
 20
-160.383
 21
-151.209
  0
LINE
  8
0
 10
9.082
 11
0
 20
-151.209
 21
-151.209
  0
LINE
  8
0
 10
0
 11
0
 20
-151.209
 21
-132.999
  0
LINE
  8
0
 10
0
 11
-18.302
 20
-132.999
 21
-132.999
  0
LINE
  8
0
 10
-18.302
 11
-18.302
 20
-132.999
 21
-123.825
  0
LINE
  8
0
 10
-18.302
 11
-27.384
 20
-123.825
 21
-123.825
  0
LINE
  8
0
 10
-27.384
 11
-27.384
 20
-123.825
 21
-132.954
  0
LINE
  8
0
 10
-27.384
 11
-45.641
 20
-132.954
 21
-132.954
  0
LINE
  8
0
 10
-45.641
 11
-45.641
 20
-132.954
 21
-123.825
  0
LINE
  8
0
 10
-45.641
 11
-54.769
 20
-123.825
 21
-123.825
  0
LINE
  8
0
 10
-54.769
 11
-54.769
 20
-78.184
 21
-69.056
  0
LINE
  8
0
 10
-54.769
 11
-45.641
 20
-69.056
 21
-69.056
  0
LINE
  8
0
 10
-45.641
 11
-45.641
 20
-69.056
 21
-78.184
  0
LINE
  8
0
 10
-45.641
 11
-54.769
 20
-78.184
 21
-78.184
  0
LINE
  8
0
 10
-54.769
 11
-54.769
 20
123.825
 21
142.081
  0
LINE
  8
0
 10
-54.769
 11
-36.512
 20
142.081
 21
142.081
  0
LINE
  8
0
 10
-36.512
 11
-36.512
 20
142.081
 21
132.953
  0
LINE
  8
0
 10
-36.512
 11
-45.641
 20
132.953
 21
132.953
  0
LINE
  8
0
 10
-45.641
 11
-45.641
 20
132.953
 21
123.825
  0
LINE
  8
0
 10
-45.641
 11
-54.769
 20
123.825
 21
123.825
  0
LINE
  8
0
 10
-27.384
 11
-27.384
 20
123.825
 21
142.081
  0
LINE
  8
0
 10
-27.384
 11
-9.128
 20
142.081
 21
142.081
  0
LINE
  8
0
 10
-9.128
 11
-9.128
 20
142.081
 21
160.338
  0
LINE
  8
0
 10
-9.128
 11
27.384
 20
160.338
 21
160.338
  0
LINE
  8
0
 10
27.384
 11
27.384
 20
160.338
 21
151.209
  0
LINE
  8
0
 10
27.384
 11
0
 20
151.209
 21
151.209
  0
LINE
  8
0
 10
0
 11
0
 20
151.209
 21
132.953
  0
LINE
  8
0
 10
0
 11
-18.256
 20
132.953
 21
132.953
  0
LINE
  8
0
 10
-18.256
 11
-18.256
 20
132.953
 21
123.825
  0
LINE
  8
0
 10
-18.256
 11
-27.384
 20
123.825
 21
123.825
  0
LINE
  8
0
 10
0
 11
0
 20
96.441
 21
114.697
  0
LINE
  8
0
 10
0
 11
27.384
 20
114.697
 21
114.697
  0
LINE
  8
0
 10
27.384
 11
27.384
 20
114.697
 21
132.953
  0
LINE
  8
0
 10
27.384
 11
36.512
 20
132.953
 21
132.953
  0
LINE
  8
0
 10
36.512
 11
36.512
 20
132.953
 21
105.569
  0
LINE
  8
0
 10
36.512
 11
9.128
 20
105.569
 21
105.569
  0
LINE
  8
0
 10
9.128
 11
9.128
 20
105.569
 21
96.441
  0
LINE
  8
0
 10
9.128
 11
0
 20
96.441
 21
96.441
  0
LINE
  8
0
 10
0.046
 11
0.046
 20
-132.953
 21
-123.871
  0
LINE
  8
0
 10
0.046
 11
9.174
 20
-123.871
 21
-123.871
  0
LINE
  8
0
 10
9.174
 11
9.174
 20
-123.871
 21
-114.743
  0
LINE
  8
0
 10
9.174
 11
27.384
 20
-114.743
 21
-114.743
  0
LINE
  8
0
 10
27.384
 11
27.384
 20
-114.743
 21
-132.953
  0
LINE
  8
0
 10
27.384
 11
0.046
 20
-132.953
 21
-132.953
  0
LINE
  8
0
 10
45.641
 11
45.641
 20
-178.594
 21
-169.466
  0
LINE
  8
0
 10
45.641
 11
54.769
 20
-169.466
 21
-169.466
  0
LINE
  8
0
 10
54.769
 11
54.769
 20
-169.466
 21
-178.594
  0
LINE
  8
0
 10
54.769
 11
45.641
 20
-178.594
 21
-178.594
  0
LINE
  8
0
 10
45.641
 11
45.641
 20
-78.184
 21
-69.056
  0
LINE
  8
0
 10
45.641
 11
54.769
 20
-69.056
 21
-69.056
  0
LINE
  8
0
 10
54.769
 11
54.769
 20
-69.056
 21
-78.184
  0
LINE
  8
0
 10
54.769
 11
45.641
 20
-78.184
 21
-78.184
  0
ENDSEC
  0
SECTION
  2
OBJECTS
  0
DICTIONARY
  0
ENDSEC
  0
EOF
