  0
SECTION
  2
BLOCKS
  0
ENDSEC
  0
SECTION
  2
ENTITIES
  0
LINE
  8
0
 10
-27.781
 11
-27.781
 20
-27.781
 21
27.781
  0
LINE
  8
0
 10
-27.781
 11
27.781
 20
27.781
 21
27.781
  0
LINE
  8
0
 10
27.781
 11
27.781
 20
27.781
 21
-27.781
  0
LINE
  8
0
 10
27.781
 11
-27.781
 20
-27.781
 21
-27.781
  0
LINE
  8
0
 10
-27.781
 11
-27.781
 20
28.781
 21
84.344
  0
LINE
  8
0
 10
-27.781
 11
27.781
 20
84.344
 21
84.344
  0
LINE
  8
0
 10
27.781
 11
27.781
 20
84.344
 21
28.781
  0
LINE
  8
0
 10
27.781
 11
-27.781
 20
28.781
 21
28.781
  0
LINE
  8
0
 10
-23.813
 11
-23.813
 20
-23.813
 21
-19.844
  0
LINE
  8
0
 10
-23.813
 11
-19.844
 20
-19.844
 21
-19.844
  0
LINE
  8
0
 10
-19.844
 11
-19.844
 20
-19.844
 21
-23.813
  0
LINE
  8
0
 10
-19.844
 11
-23.813
 20
-23.813
 21
-23.813
  0
LINE
  8
0
 10
-23.813
 11
-23.813
 20
0
 21
7.938
  0
LINE
  8
0
 10
-23.813
 11
-15.875
 20
7.938
 21
7.938
  0
LINE
  8
0
 10
-15.875
 11
-15.875
 20
7.938
 21
3.969
  0
LINE
  8
0
 10
-15.875
 11
-11.906
 20
3.969
 21
3.969
  0
LINE
  8
0
 10
-11.906
 11
-11.906
 20
3.969
 21
7.938
  0
LINE
  8
0
 10
-11.906
 11
-3.969
 20
7.938
 21
7.938
  0
LINE
  8
0
 10
-3.969
 11
-3.969
 20
7.938
 21
15.875
  0
LINE
  8
0
 10
-3.969
 11
11.906
 20
15.875
 21
15.875
  0
LINE
  8
0
 10
11.906
 11
11.906
 20
15.875
 21
11.926
  0
LINE
  8
0
 10
11.906
 11
15.895
 20
11.926
 21
11.926
  0
LINE
  8
0
 10
15.895
 11
15.895
 20
11.926
 21
7.957
  0
LINE
  8
0
 10
15.895
 11
19.864
 20
7.957
 21
7.957
  0
LINE
  8
0
 10
19.864
 11
19.864
 20
7.957
 21
-11.926
  0
LINE
  8
0
 10
19.864
 11
15.895
 20
-11.926
 21
-11.926
  0
LINE
  8
0
 10
15.895
 11
15.895
 20
-11.926
 21
-15.895
  0
LINE
  8
0
 10
15.895
 11
3.949
 20
-15.895
 21
-15.895
  0
LINE
  8
0
 10
3.949
 11
3.949
 20
-15.895
 21
-11.906
  0
LINE
  8
0
 10
3.949
 11
0
 20
-11.906
 21
-11.906
  0
LINE
  8
0
 10
0
 11
0
 20
-11.906
 21
-3.989
  0
LINE
  8
0
 10
0
 11
-7.957
 20
-3.989
 21
-3.989
  0
LINE
  8
0
 10
-7.957
 11
-7.957
 20
-3.989
 21
0
  0
LINE
  8
0
 10
-7.957
 11
-11.906
 20
0
 21
0
  0
LINE
  8
0
 10
-11.906
 11
-11.906
 20
0
 21
-3.969
  0
LINE
  8
0
 10
-11.906
 11
-19.844
 20
-3.969
 21
-3.969
  0
LINE
  8
0
 10
-19.844
 11
-19.844
 20
-3.969
 21
0
  0
LINE
  8
0
 10
-19.844
 11
-23.813
 20
0
 21
0
  0
LINE
  8
0
 10
-23.813
 11
-23.813
 20
19.844
 21
23.813
  0
LINE
  8
0
 10
-23.813
 11
-19.844
 20
23.813
 21
23.813
  0
LINE
  8
0
 10
-19.844
 11
-19.844
 20
23.813
 21
19.844
  0
LINE
  8
0
 10
-19.844
 11
-23.813
 20
19.844
 21
19.844
  0
LINE
  8
0
 10
-23.813
 11
-23.813
 20
32.75
 21
36.719
  0
LINE
  8
0
 10
-23.813
 11
-19.844
 20
36.719
 21
36.719
  0
LINE
  8
0
 10
-19.844
 11
-19.844
 20
36.719
 21
32.75
  0
LINE
  8
0
 10
-19.844
 11
-23.813
 20
32.75
 21
32.75
  0
LINE
  8
0
 10
-23.813
 11
-23.813
 20
56.563
 21
64.5
  0
LINE
  8
0
 10
-23.813
 11
-15.875
 20
64.5
 21
64.5
  0
LINE
  8
0
 10
-15.875
 11
-15.875
 20
64.5
 21
60.532
  0
LINE
  8
0
 10
-15.875
 11
-11.906
 20
60.532
 21
60.532
  0
LINE
  8
0
 10
-11.906
 11
-11.906
 20
60.532
 21
64.5
  0
LINE
  8
0
 10
-11.906
 11
-3.969
 20
64.5
 21
64.5
  0
LINE
  8
0
 10
-3.969
 11
-3.969
 20
64.5
 21
72.438
  0
LINE
  8
0
 10
-3.969
 11
11.906
 20
72.438
 21
72.438
  0
LINE
  8
0
 10
11.906
 11
11.906
 20
72.438
 21
68.489
  0
LINE
  8
0
 10
11.906
 11
15.895
 20
68.489
 21
68.489
  0
LINE
  8
0
 10
15.895
 11
15.895
 20
68.489
 21
64.52
  0
LINE
  8
0
 10
15.895
 11
19.864
 20
64.52
 21
64.52
  0
LINE
  8
0
 10
19.864
 11
19.864
 20
64.52
 21
44.636
  0
LINE
  8
0
 10
19.864
 11
15.895
 20
44.636
 21
44.636
  0
LINE
  8
0
 10
15.895
 11
15.895
 20
44.636
 21
40.668
  0
LINE
  8
0
 10
15.895
 11
3.949
 20
40.668
 21
40.668
  0
LINE
  8
0
 10
3.949
 11
3.949
 20
40.668
 21
44.656
  0
LINE
  8
0
 10
3.949
 11
0
 20
44.656
 21
44.656
  0
LINE
  8
0
 10
0
 11
0
 20
44.656
 21
52.574
  0
LINE
  8
0
 10
0
 11
-7.957
 20
52.574
 21
52.574
  0
LINE
  8
0
 10
-7.957
 11
-7.957
 20
52.574
 21
56.563
  0
LINE
  8
0
 10
-7.957
 11
-11.906
 20
56.563
 21
56.563
  0
LINE
  8
0
 10
-11.906
 11
-11.906
 20
56.563
 21
52.593
  0
LINE
  8
0
 10
-11.906
 11
-19.844
 20
52.593
 21
52.593
  0
LINE
  8
0
 10
-19.844
 11
-19.844
 20
52.593
 21
56.563
  0
LINE
  8
0
 10
-19.844
 11
-23.813
 20
56.563
 21
56.563
  0
LINE
  8
0
 10
-23.813
 11
-23.813
 20
76.406
 21
80.375
  0
LINE
  8
0
 10
-23.813
 11
-19.844
 20
80.375
 21
80.375
  0
LINE
  8
0
 10
-19.844
 11
-19.844
 20
80.375
 21
76.406
  0
LINE
  8
0
 10
-19.844
 11
-23.813
 20
76.406
 21
76.406
  0
LINE
  8
0
 10
0.02
 11
0.02
 20
-3.969
 21
-0.02
  0
LINE
  8
0
 10
0.02
 11
3.989
 20
-0.02
 21
-0.02
  0
LINE
  8
0
 10
3.989
 11
3.989
 20
-0.02
 21
3.949
  0
LINE
  8
0
 10
3.989
 11
11.906
 20
3.949
 21
3.949
  0
LINE
  8
0
 10
11.906
 11
11.906
 20
3.949
 21
-3.969
  0
LINE
  8
0
 10
11.906
 11
0.02
 20
-3.969
 21
-3.969
  0
LINE
  8
0
 10
0.02
 11
0.02
 20
52.594
 21
56.543
  0
LINE
  8
0
 10
0.02
 11
3.989
 20
56.543
 21
56.543
  0
LINE
  8
0
 10
3.989
 11
3.989
 20
56.543
 21
60.511
  0
LINE
  8
0
 10
3.989
 11
11.906
 20
60.511
 21
60.511
  0
LINE
  8
0
 10
11.906
 11
11.906
 20
60.511
 21
52.594
  0
LINE
  8
0
 10
11.906
 11
0.02
 20
52.594
 21
52.594
  0
LINE
  8
0
 10
19.844
 11
19.844
 20
-23.813
 21
-19.844
  0
LINE
  8
0
 10
19.844
 11
23.813
 20
-19.844
 21
-19.844
  0
LINE
  8
0
 10
23.813
 11
23.813
 20
-19.844
 21
-23.813
  0
LINE
  8
0
 10
23.813
 11
19.844
 20
-23.813
 21
-23.813
  0
LINE
  8
0
 10
19.844
 11
19.844
 20
19.844
 21
23.813
  0
LINE
  8
0
 10
19.844
 11
23.813
 20
23.813
 21
23.813
  0
LINE
  8
0
 10
23.813
 11
23.813
 20
23.813
 21
19.844
  0
LINE
  8
0
 10
23.813
 11
19.844
 20
19.844
 21
19.844
  0
LINE
  8
0
 10
19.844
 11
19.844
 20
32.75
 21
36.719
  0
LINE
  8
0
 10
19.844
 11
23.813
 20
36.719
 21
36.719
  0
LINE
  8
0
 10
23.813
 11
23.813
 20
36.719
 21
32.75
  0
LINE
  8
0
 10
23.813
 11
19.844
 20
32.75
 21
32.75
  0
LINE
  8
0
 10
19.844
 11
19.844
 20
76.406
 21
80.375
  0
LINE
  8
0
 10
19.844
 11
23.813
 20
80.375
 21
80.375
  0
LINE
  8
0
 10
23.813
 11
23.813
 20
80.375
 21
76.406
  0
LINE
  8
0
 10
23.813
 11
19.844
 20
76.406
 21
76.406
  0
LINE
  8
0
 10
28.781
 11
28.781
 20
-27.781
 21
27.781
  0
LINE
  8
0
 10
28.781
 11
84.344
 20
27.781
 21
27.781
  0
LINE
  8
0
 10
84.344
 11
84.344
 20
27.781
 21
-27.781
  0
LINE
  8
0
 10
84.344
 11
28.781
 20
-27.781
 21
-27.781
  0
LINE
  8
0
 10
28.781
 11
28.781
 20
28.781
 21
84.344
  0
LINE
  8
0
 10
28.781
 11
84.344
 20
84.344
 21
84.344
  0
LINE
  8
0
 10
84.344
 11
84.344
 20
84.344
 21
28.781
  0
LINE
  8
0
 10
84.344
 11
28.781
 20
28.781
 21
28.781
  0
LINE
  8
0
 10
32.75
 11
32.75
 20
-23.813
 21
-19.844
  0
LINE
  8
0
 10
32.75
 11
36.719
 20
-19.844
 21
-19.844
  0
LINE
  8
0
 10
36.719
 11
36.719
 20
-19.844
 21
-23.813
  0
LINE
  8
0
 10
36.719
 11
32.75
 20
-23.813
 21
-23.813
  0
LINE
  8
0
 10
32.75
 11
32.75
 20
0
 21
7.938
  0
LINE
  8
0
 10
32.75
 11
40.688
 20
7.938
 21
7.938
  0
LINE
  8
0
 10
40.688
 11
40.688
 20
7.938
 21
3.969
  0
LINE
  8
0
 10
40.688
 11
44.656
 20
3.969
 21
3.969
  0
LINE
  8
0
 10
44.656
 11
44.656
 20
3.969
 21
7.938
  0
LINE
  8
0
 10
44.656
 11
52.594
 20
7.938
 21
7.938
  0
LINE
  8
0
 10
52.594
 11
52.594
 20
7.938
 21
15.875
  0
LINE
  8
0
 10
52.594
 11
68.469
 20
15.875
 21
15.875
  0
LINE
  8
0
 10
68.469
 11
68.469
 20
15.875
 21
11.926
  0
LINE
  8
0
 10
68.469
 11
72.457
 20
11.926
 21
11.926
  0
LINE
  8
0
 10
72.457
 11
72.457
 20
11.926
 21
7.957
  0
LINE
  8
0
 10
72.457
 11
76.426
 20
7.957
 21
7.957
  0
LINE
  8
0
 10
76.426
 11
76.426
 20
7.957
 21
-11.926
  0
LINE
  8
0
 10
76.426
 11
72.457
 20
-11.926
 21
-11.926
  0
LINE
  8
0
 10
72.457
 11
72.457
 20
-11.926
 21
-15.895
  0
LINE
  8
0
 10
72.457
 11
60.511
 20
-15.895
 21
-15.895
  0
LINE
  8
0
 10
60.511
 11
60.511
 20
-15.895
 21
-11.906
  0
LINE
  8
0
 10
60.511
 11
56.563
 20
-11.906
 21
-11.906
  0
LINE
  8
0
 10
56.563
 11
56.563
 20
-11.906
 21
-3.989
  0
LINE
  8
0
 10
56.563
 11
48.605
 20
-3.989
 21
-3.989
  0
LINE
  8
0
 10
48.605
 11
48.605
 20
-3.989
 21
0
  0
LINE
  8
0
 10
48.605
 11
44.656
 20
0
 21
0
  0
LINE
  8
0
 10
44.656
 11
44.656
 20
0
 21
-3.969
  0
LINE
  8
0
 10
44.656
 11
36.719
 20
-3.969
 21
-3.969
  0
LINE
  8
0
 10
36.719
 11
36.719
 20
-3.969
 21
0
  0
LINE
  8
0
 10
36.719
 11
32.75
 20
0
 21
0
  0
LINE
  8
0
 10
32.75
 11
32.75
 20
19.844
 21
23.813
  0
LINE
  8
0
 10
32.75
 11
36.719
 20
23.813
 21
23.813
  0
LINE
  8
0
 10
36.719
 11
36.719
 20
23.813
 21
19.844
  0
LINE
  8
0
 10
36.719
 11
32.75
 20
19.844
 21
19.844
  0
LINE
  8
0
 10
32.75
 11
32.75
 20
32.75
 21
36.719
  0
LINE
  8
0
 10
32.75
 11
36.719
 20
36.719
 21
36.719
  0
LINE
  8
0
 10
36.719
 11
36.719
 20
36.719
 21
32.75
  0
LINE
  8
0
 10
36.719
 11
32.75
 20
32.75
 21
32.75
  0
LINE
  8
0
 10
32.75
 11
32.75
 20
56.563
 21
64.5
  0
LINE
  8
0
 10
32.75
 11
40.688
 20
64.5
 21
64.5
  0
LINE
  8
0
 10
40.688
 11
40.688
 20
64.5
 21
60.532
  0
LINE
  8
0
 10
40.688
 11
44.656
 20
60.532
 21
60.532
  0
LINE
  8
0
 10
44.656
 11
44.656
 20
60.532
 21
64.5
  0
LINE
  8
0
 10
44.656
 11
52.594
 20
64.5
 21
64.5
  0
LINE
  8
0
 10
52.594
 11
52.594
 20
64.5
 21
72.438
  0
LINE
  8
0
 10
52.594
 11
68.469
 20
72.438
 21
72.438
  0
LINE
  8
0
 10
68.469
 11
68.469
 20
72.438
 21
68.489
  0
LINE
  8
0
 10
68.469
 11
72.457
 20
68.489
 21
68.489
  0
LINE
  8
0
 10
72.457
 11
72.457
 20
68.489
 21
64.52
  0
LINE
  8
0
 10
72.457
 11
76.426
 20
64.52
 21
64.52
  0
LINE
  8
0
 10
76.426
 11
76.426
 20
64.52
 21
44.636
  0
LINE
  8
0
 10
76.426
 11
72.457
 20
44.636
 21
44.636
  0
LINE
  8
0
 10
72.457
 11
72.457
 20
44.636
 21
40.668
  0
LINE
  8
0
 10
72.457
 11
60.511
 20
40.668
 21
40.668
  0
LINE
  8
0
 10
60.511
 11
60.511
 20
40.668
 21
44.656
  0
LINE
  8
0
 10
60.511
 11
56.563
 20
44.656
 21
44.656
  0
LINE
  8
0
 10
56.563
 11
56.563
 20
44.656
 21
52.574
  0
LINE
  8
0
 10
56.563
 11
48.605
 20
52.574
 21
52.574
  0
LINE
  8
0
 10
48.605
 11
48.605
 20
52.574
 21
56.563
  0
LINE
  8
0
 10
48.605
 11
44.656
 20
56.563
 21
56.563
  0
LINE
  8
0
 10
44.656
 11
44.656
 20
56.563
 21
52.593
  0
LINE
  8
0
 10
44.656
 11
36.719
 20
52.593
 21
52.593
  0
LINE
  8
0
 10
36.719
 11
36.719
 20
52.593
 21
56.563
  0
LINE
  8
0
 10
36.719
 11
32.75
 20
56.563
 21
56.563
  0
LINE
  8
0
 10
32.75
 11
32.75
 20
76.406
 21
80.375
  0
LINE
  8
0
 10
32.75
 11
36.719
 20
80.375
 21
80.375
  0
LINE
  8
0
 10
36.719
 11
36.719
 20
80.375
 21
76.406
  0
LINE
  8
0
 10
36.719
 11
32.75
 20
76.406
 21
76.406
  0
LINE
  8
0
 10
56.582
 11
56.582
 20
-3.969
 21
-0.02
  0
LINE
  8
0
 10
56.582
 11
60.551
 20
-0.02
 21
-0.02
  0
LINE
  8
0
 10
60.551
 11
60.551
 20
-0.02
 21
3.949
  0
LINE
  8
0
 10
60.551
 11
68.469
 20
3.949
 21
3.949
  0
LINE
  8
0
 10
68.469
 11
68.469
 20
3.949
 21
-3.969
  0
LINE
  8
0
 10
68.469
 11
56.582
 20
-3.969
 21
-3.969
  0
LINE
  8
0
 10
56.582
 11
56.582
 20
52.594
 21
56.543
  0
LINE
  8
0
 10
56.582
 11
60.551
 20
56.543
 21
56.543
  0
LINE
  8
0
 10
60.551
 11
60.551
 20
56.543
 21
60.511
  0
LINE
  8
0
 10
60.551
 11
68.469
 20
60.511
 21
60.511
  0
LINE
  8
0
 10
68.469
 11
68.469
 20
60.511
 21
52.594
  0
LINE
  8
0
 10
68.469
 11
56.582
 20
52.594
 21
52.594
  0
LINE
  8
0
 10
76.406
 11
76.406
 20
-23.813
 21
-19.844
  0
LINE
  8
0
 10
76.406
 11
80.375
 20
-19.844
 21
-19.844
  0
LINE
  8
0
 10
80.375
 11
80.375
 20
-19.844
 21
-23.813
  0
LINE
  8
0
 10
80.375
 11
76.406
 20
-23.813
 21
-23.813
  0
LINE
  8
0
 10
76.406
 11
76.406
 20
19.844
 21
23.813
  0
LINE
  8
0
 10
76.406
 11
80.375
 20
23.813
 21
23.813
  0
LINE
  8
0
 10
80.375
 11
80.375
 20
23.813
 21
19.844
  0
LINE
  8
0
 10
80.375
 11
76.406
 20
19.844
 21
19.844
  0
LINE
  8
0
 10
76.406
 11
76.406
 20
32.75
 21
36.719
  0
LINE
  8
0
 10
76.406
 11
80.375
 20
36.719
 21
36.719
  0
LINE
  8
0
 10
80.375
 11
80.375
 20
36.719
 21
32.75
  0
LINE
  8
0
 10
80.375
 11
76.406
 20
32.75
 21
32.75
  0
LINE
  8
0
 10
76.406
 11
76.406
 20
76.406
 21
80.375
  0
LINE
  8
0
 10
76.406
 11
80.375
 20
80.375
 21
80.375
  0
LINE
  8
0
 10
80.375
 11
80.375
 20
80.375
 21
76.406
  0
LINE
  8
0
 10
80.375
 11
76.406
 20
76.406
 21
76.406
  0
ENDSEC
  0
SECTION
  2
OBJECTS
  0
DICTIONARY
  0
ENDSEC
  0
EOF
