G75*
G70*
%OFA0B0*%
%FSLAX24Y24*%
%IPPOS*%
%LPD*%
%AMOC8*
5,1,8,0,0,1.08239X$1,22.5*
%
%ADD10C,0.0000*%
%ADD11R,0.0433X0.0394*%
%ADD12R,0.0551X0.0394*%
%ADD13R,0.0240X0.0870*%
%ADD14R,0.0394X0.0551*%
%ADD15R,0.0472X0.0984*%
%ADD16R,0.0709X0.1181*%
%ADD17R,0.0630X0.1063*%
%ADD18R,0.0984X0.0472*%
%ADD19R,0.1181X0.0709*%
%ADD20R,0.1063X0.0630*%
D10*
X000101Y000726D02*
X000101Y012537D01*
X011912Y012537D01*
X011912Y000726D01*
X000101Y000726D01*
D11*
X004043Y005256D03*
X004043Y005926D03*
X004018Y007063D03*
X004018Y007732D03*
X007659Y008703D03*
X007659Y009373D03*
D12*
X007676Y007995D03*
X007676Y007247D03*
X008543Y007621D03*
D13*
X006835Y008109D03*
X006335Y008109D03*
X005835Y008109D03*
X005335Y008109D03*
X005335Y005459D03*
X005835Y005459D03*
X006335Y005459D03*
X006835Y005459D03*
D14*
X003339Y010134D03*
X002591Y010134D03*
X002965Y011000D03*
D15*
X005061Y010962D03*
X006951Y010962D03*
X006951Y002300D03*
X005061Y002300D03*
D16*
X006006Y002300D03*
X006006Y010962D03*
D17*
X007817Y010962D03*
X008920Y010962D03*
X004195Y002300D03*
X003093Y002300D03*
D18*
X001676Y005686D03*
X001676Y007576D03*
X010337Y007576D03*
X010337Y005686D03*
D19*
X010337Y006631D03*
X001676Y006631D03*
D20*
X001676Y004820D03*
X001676Y003718D03*
X010337Y008442D03*
X010337Y009545D03*
M02*
