G75*
G70*
%OFA0B0*%
%FSLAX24Y24*%
%IPPOS*%
%LPD*%
%AMOC8*
5,1,8,0,0,1.08239X$1,22.5*
%
%ADD10C,0.0000*%
%ADD11C,0.0040*%
%ADD12C,0.0050*%
%ADD13C,0.0080*%
%ADD14C,0.0060*%
%ADD15C,0.0010*%
D10*
X000101Y000726D02*
X000101Y012537D01*
X011912Y012537D01*
X011912Y000726D01*
X000101Y000726D01*
D11*
X002445Y004368D02*
X002445Y004598D01*
X002522Y004675D01*
X002675Y004675D01*
X002752Y004598D01*
X002752Y004368D01*
X002752Y004522D02*
X002906Y004675D01*
X002906Y004829D02*
X002829Y004829D01*
X002522Y005135D01*
X002445Y005135D01*
X002445Y004829D01*
X002445Y004368D02*
X002906Y004368D01*
X003312Y005361D02*
X003312Y005591D01*
X003389Y005668D01*
X003542Y005668D01*
X003619Y005591D01*
X003619Y005361D01*
X003619Y005514D02*
X003773Y005668D01*
X003696Y005821D02*
X003773Y005898D01*
X003773Y006052D01*
X003696Y006128D01*
X003619Y006128D01*
X003542Y006052D01*
X003542Y005975D01*
X003542Y006052D02*
X003466Y006128D01*
X003389Y006128D01*
X003312Y006052D01*
X003312Y005898D01*
X003389Y005821D01*
X003312Y005361D02*
X003773Y005361D01*
X002825Y005912D02*
X002825Y006219D01*
X002825Y006372D02*
X002825Y006679D01*
X002825Y006833D02*
X002825Y007063D01*
X002748Y007140D01*
X002441Y007140D01*
X002365Y007063D01*
X002365Y006833D01*
X002825Y006833D01*
X002595Y006526D02*
X002595Y006372D01*
X002365Y006372D02*
X002825Y006372D01*
X002825Y005912D02*
X002365Y005912D01*
X002365Y006372D02*
X002365Y006679D01*
X002595Y007293D02*
X002595Y007600D01*
X002825Y007523D02*
X002365Y007523D01*
X002595Y007293D01*
X003288Y007397D02*
X003288Y007167D01*
X003748Y007167D01*
X003595Y007167D02*
X003595Y007397D01*
X003518Y007474D01*
X003364Y007474D01*
X003288Y007397D01*
X003364Y007628D02*
X003288Y007704D01*
X003288Y007858D01*
X003364Y007935D01*
X003441Y007935D01*
X003748Y007628D01*
X003748Y007935D01*
X003748Y007474D02*
X003595Y007321D01*
X003002Y011337D02*
X002695Y011337D01*
X003002Y011644D01*
X003002Y011720D01*
X002925Y011797D01*
X002772Y011797D01*
X002695Y011720D01*
X002541Y011797D02*
X002235Y011797D01*
X002388Y011797D02*
X002388Y011337D01*
X004924Y011651D02*
X005231Y011651D01*
X005384Y011651D02*
X005691Y011651D01*
X005845Y011651D02*
X006075Y011651D01*
X006152Y011728D01*
X006152Y012035D01*
X006075Y012112D01*
X005845Y012112D01*
X005845Y011651D01*
X005538Y011881D02*
X005384Y011881D01*
X005384Y011651D02*
X005384Y012112D01*
X005691Y012112D01*
X006305Y011958D02*
X006458Y012112D01*
X006458Y011651D01*
X006305Y011651D02*
X006612Y011651D01*
X007389Y011732D02*
X007389Y012192D01*
X007619Y012192D01*
X007695Y012116D01*
X007695Y011962D01*
X007619Y011885D01*
X007389Y011885D01*
X007542Y011885D02*
X007695Y011732D01*
X007849Y011962D02*
X008156Y011962D01*
X008079Y011732D02*
X008079Y012192D01*
X007849Y011962D01*
X008389Y009154D02*
X008389Y008847D01*
X008389Y009001D02*
X007929Y009001D01*
X008083Y008847D01*
X008159Y008694D02*
X008006Y008694D01*
X007929Y008617D01*
X007929Y008387D01*
X008389Y008387D01*
X008236Y008387D02*
X008236Y008617D01*
X008159Y008694D01*
X008236Y008541D02*
X008389Y008694D01*
X008879Y008084D02*
X009339Y008084D01*
X009414Y008013D02*
X009414Y008244D01*
X009337Y008320D01*
X009183Y008320D01*
X009107Y008244D01*
X009107Y008013D01*
X009567Y008013D01*
X009414Y008167D02*
X009567Y008320D01*
X009490Y008474D02*
X009567Y008550D01*
X009567Y008704D01*
X009490Y008781D01*
X009337Y008781D01*
X009260Y008704D01*
X009260Y008627D01*
X009337Y008474D01*
X009107Y008474D01*
X009107Y008781D01*
X009339Y008237D02*
X009339Y007931D01*
X009033Y007931D02*
X008879Y008084D01*
X008879Y007777D02*
X008879Y007470D01*
X008879Y007624D02*
X009339Y007624D01*
X009341Y007237D02*
X009264Y007237D01*
X009187Y007160D01*
X009187Y007007D01*
X009264Y006930D01*
X009264Y006776D02*
X009187Y006700D01*
X009187Y006470D01*
X009648Y006470D01*
X009648Y006700D01*
X009571Y006776D01*
X009264Y006776D01*
X009648Y006930D02*
X009341Y007237D01*
X009648Y007237D02*
X009648Y006930D01*
X009648Y006316D02*
X009648Y006009D01*
X009187Y006009D01*
X009187Y006316D01*
X009418Y006163D02*
X009418Y006009D01*
X009648Y005856D02*
X009648Y005549D01*
X009187Y005549D01*
X006898Y001612D02*
X006745Y001612D01*
X006668Y001535D01*
X006515Y001535D02*
X006438Y001612D01*
X006208Y001612D01*
X006208Y001151D01*
X006438Y001151D01*
X006515Y001228D01*
X006515Y001535D01*
X006822Y001381D02*
X006898Y001381D01*
X006975Y001305D01*
X006975Y001228D01*
X006898Y001151D01*
X006745Y001151D01*
X006668Y001228D01*
X006898Y001381D02*
X006975Y001458D01*
X006975Y001535D01*
X006898Y001612D01*
X006054Y001612D02*
X005747Y001612D01*
X005747Y001151D01*
X006054Y001151D01*
X005901Y001381D02*
X005747Y001381D01*
X005594Y001151D02*
X005287Y001151D01*
X005287Y001612D01*
X004511Y001531D02*
X004357Y001454D01*
X004204Y001301D01*
X004434Y001301D01*
X004511Y001224D01*
X004511Y001147D01*
X004434Y001070D01*
X004280Y001070D01*
X004204Y001147D01*
X004204Y001301D01*
X004050Y001301D02*
X003974Y001224D01*
X003743Y001224D01*
X003743Y001070D02*
X003743Y001531D01*
X003974Y001531D01*
X004050Y001454D01*
X004050Y001301D01*
X003897Y001224D02*
X004050Y001070D01*
X004924Y011651D02*
X004924Y012112D01*
D12*
X004943Y011592D02*
X006951Y011592D01*
X007069Y011474D01*
X007069Y010332D01*
X004943Y010332D01*
X004943Y011592D01*
X004943Y011551D02*
X006992Y011551D01*
X007041Y011502D02*
X004943Y011502D01*
X004943Y011454D02*
X007069Y011454D01*
X007069Y011405D02*
X004943Y011405D01*
X004943Y011357D02*
X007069Y011357D01*
X007069Y011308D02*
X004943Y011308D01*
X004943Y011260D02*
X007069Y011260D01*
X007069Y011211D02*
X004943Y011211D01*
X004943Y011162D02*
X007069Y011162D01*
X007069Y011114D02*
X004943Y011114D01*
X004943Y011065D02*
X007069Y011065D01*
X007069Y011017D02*
X004943Y011017D01*
X004943Y010968D02*
X007069Y010968D01*
X007069Y010920D02*
X004943Y010920D01*
X004943Y010871D02*
X007069Y010871D01*
X007069Y010823D02*
X004943Y010823D01*
X004943Y010774D02*
X007069Y010774D01*
X007069Y010726D02*
X004943Y010726D01*
X004943Y010677D02*
X007069Y010677D01*
X007069Y010629D02*
X004943Y010629D01*
X004943Y010580D02*
X007069Y010580D01*
X007069Y010531D02*
X004943Y010531D01*
X004943Y010483D02*
X007069Y010483D01*
X007069Y010434D02*
X004943Y010434D01*
X004943Y010386D02*
X007069Y010386D01*
X007069Y010337D02*
X004943Y010337D01*
X004885Y009381D02*
X004810Y009306D01*
X004810Y009156D01*
X004885Y009081D01*
X004960Y009081D01*
X005035Y009156D01*
X005035Y009306D01*
X005110Y009381D01*
X005185Y009381D01*
X005260Y009306D01*
X005260Y009156D01*
X005185Y009081D01*
X005185Y008921D02*
X004810Y008921D01*
X004810Y008621D02*
X005185Y008621D01*
X005260Y008696D01*
X005260Y008846D01*
X005185Y008921D01*
X005260Y008461D02*
X005260Y008160D01*
X004810Y008160D01*
X004885Y008000D02*
X005035Y008000D01*
X005110Y007925D01*
X005110Y007700D01*
X005260Y007700D02*
X004810Y007700D01*
X004810Y007925D01*
X004885Y008000D01*
X004885Y007540D02*
X005035Y007540D01*
X005110Y007465D01*
X005110Y007240D01*
X005110Y007390D02*
X005260Y007540D01*
X005260Y007240D02*
X004810Y007240D01*
X004810Y007465D01*
X004885Y007540D01*
X004810Y007079D02*
X005110Y006779D01*
X005035Y006854D02*
X005260Y007079D01*
X005260Y006779D02*
X004810Y006779D01*
X004885Y006619D02*
X005035Y006619D01*
X005110Y006544D01*
X005110Y006319D01*
X005260Y006319D02*
X004810Y006319D01*
X004810Y006544D01*
X004885Y006619D01*
X004885Y006159D02*
X004810Y006084D01*
X004810Y005934D01*
X004885Y005859D01*
X004960Y005859D01*
X005035Y005934D01*
X005035Y006084D01*
X005110Y006159D01*
X005185Y006159D01*
X005260Y006084D01*
X005260Y005934D01*
X005185Y005859D01*
X005116Y005111D02*
X005010Y005111D01*
X004957Y005058D01*
X004957Y004952D01*
X005063Y004846D01*
X005063Y004740D01*
X005010Y004687D01*
X004904Y004687D01*
X004798Y004793D01*
X004798Y004899D01*
X005116Y005111D02*
X005222Y005005D01*
X005222Y004899D01*
X005389Y004839D02*
X005548Y004680D01*
X005548Y004573D01*
X005442Y004467D01*
X005335Y004467D01*
X005176Y004626D01*
X005070Y004520D02*
X005389Y004839D01*
X005714Y004513D02*
X005396Y004195D01*
X005502Y004301D02*
X005926Y004301D01*
X006040Y004188D02*
X006199Y004028D01*
X006199Y003922D01*
X006093Y003816D01*
X005986Y003816D01*
X005827Y003975D01*
X005721Y003869D02*
X006040Y004188D01*
X005933Y003869D02*
X005933Y003657D01*
X006100Y003597D02*
X006100Y003491D01*
X006206Y003384D01*
X006312Y003384D01*
X006418Y003491D01*
X006312Y003597D01*
X006312Y003809D02*
X006100Y003597D01*
X006312Y003809D02*
X006418Y003809D01*
X006524Y003703D01*
X006524Y003597D01*
X006691Y003537D02*
X006584Y003006D01*
X006903Y003324D01*
X007016Y003211D02*
X007175Y003052D01*
X007175Y002946D01*
X006963Y002733D01*
X006857Y002733D01*
X006698Y002893D01*
X007016Y003211D01*
X007069Y002930D02*
X004943Y002930D01*
X004943Y001789D01*
X005061Y001671D01*
X007069Y001671D01*
X007069Y002930D01*
X007069Y002910D02*
X004943Y002910D01*
X004943Y002862D02*
X007069Y002862D01*
X007069Y002813D02*
X004943Y002813D01*
X004943Y002764D02*
X007069Y002764D01*
X007069Y002716D02*
X004943Y002716D01*
X004943Y002667D02*
X007069Y002667D01*
X007069Y002619D02*
X004943Y002619D01*
X004943Y002570D02*
X007069Y002570D01*
X007069Y002522D02*
X004943Y002522D01*
X004943Y002473D02*
X007069Y002473D01*
X007069Y002425D02*
X004943Y002425D01*
X004943Y002376D02*
X007069Y002376D01*
X007069Y002328D02*
X004943Y002328D01*
X004943Y002279D02*
X007069Y002279D01*
X007069Y002231D02*
X004943Y002231D01*
X004943Y002182D02*
X007069Y002182D01*
X007069Y002133D02*
X004943Y002133D01*
X004943Y002085D02*
X007069Y002085D01*
X007069Y002036D02*
X004943Y002036D01*
X004943Y001988D02*
X007069Y001988D01*
X007069Y001939D02*
X004943Y001939D01*
X004943Y001891D02*
X007069Y001891D01*
X007069Y001842D02*
X004943Y001842D01*
X004943Y001794D02*
X007069Y001794D01*
X007069Y001745D02*
X004987Y001745D01*
X005035Y001697D02*
X007069Y001697D01*
X006372Y003218D02*
X006691Y003537D01*
X005608Y003982D02*
X005608Y004301D01*
X006651Y005420D02*
X006651Y005526D01*
X006863Y005738D01*
X006969Y005738D01*
X007076Y005632D01*
X007076Y005526D01*
X006969Y005420D02*
X006863Y005314D01*
X006757Y005314D01*
X006651Y005420D01*
X006863Y005526D02*
X006969Y005420D01*
X006923Y005147D02*
X007242Y005466D01*
X007136Y004935D01*
X007454Y005253D01*
X007567Y005140D02*
X007727Y004981D01*
X007727Y004875D01*
X007514Y004662D01*
X007408Y004663D01*
X007249Y004822D01*
X007567Y005140D01*
X006803Y005905D02*
X006591Y005692D01*
X006379Y005692D01*
X006379Y005905D01*
X006591Y006117D01*
X009707Y006114D02*
X010967Y006114D01*
X010967Y006163D02*
X009707Y006163D01*
X009707Y006211D02*
X010967Y006211D01*
X010967Y006260D02*
X009707Y006260D01*
X009707Y006308D02*
X010967Y006308D01*
X010967Y006357D02*
X009707Y006357D01*
X009707Y006405D02*
X010967Y006405D01*
X010967Y006454D02*
X009707Y006454D01*
X009707Y006502D02*
X010967Y006502D01*
X010967Y006551D02*
X009707Y006551D01*
X009707Y006599D02*
X010967Y006599D01*
X010967Y006648D02*
X009707Y006648D01*
X009707Y006696D02*
X010967Y006696D01*
X010967Y006745D02*
X009707Y006745D01*
X009707Y006794D02*
X010967Y006794D01*
X010967Y006842D02*
X009707Y006842D01*
X009707Y006891D02*
X010967Y006891D01*
X010967Y006939D02*
X009707Y006939D01*
X009707Y006988D02*
X010967Y006988D01*
X010967Y007036D02*
X009707Y007036D01*
X009707Y007085D02*
X010967Y007085D01*
X010967Y007133D02*
X009707Y007133D01*
X009707Y007182D02*
X010967Y007182D01*
X010967Y007230D02*
X009707Y007230D01*
X009707Y007279D02*
X010967Y007279D01*
X010967Y007328D02*
X009707Y007328D01*
X009707Y007376D02*
X010967Y007376D01*
X010967Y007425D02*
X009707Y007425D01*
X009707Y007473D02*
X010967Y007473D01*
X010967Y007522D02*
X009707Y007522D01*
X009707Y007570D02*
X010967Y007570D01*
X010967Y007619D02*
X009750Y007619D01*
X009707Y007576D02*
X009825Y007694D01*
X010967Y007694D01*
X010967Y005568D01*
X009707Y005568D01*
X009707Y007576D01*
X009798Y007667D02*
X010967Y007667D01*
X010967Y006065D02*
X009707Y006065D01*
X009707Y006017D02*
X010967Y006017D01*
X010967Y005968D02*
X009707Y005968D01*
X009707Y005920D02*
X010967Y005920D01*
X010967Y005871D02*
X009707Y005871D01*
X009707Y005823D02*
X010967Y005823D01*
X010967Y005774D02*
X009707Y005774D01*
X009707Y005726D02*
X010967Y005726D01*
X010967Y005677D02*
X009707Y005677D01*
X009707Y005629D02*
X010967Y005629D01*
X010967Y005580D02*
X009707Y005580D01*
X010838Y002360D02*
X010752Y002237D01*
X010770Y002132D01*
X010832Y002089D01*
X010936Y002108D01*
X011022Y002231D01*
X011127Y002249D01*
X011188Y002206D01*
X011207Y002102D01*
X011121Y001979D01*
X011016Y001960D01*
X010924Y001829D02*
X010617Y002044D01*
X010445Y001798D02*
X010752Y001583D01*
X010857Y001602D01*
X010943Y001725D01*
X010924Y001829D01*
X010722Y001409D02*
X010550Y001163D01*
X010181Y001421D01*
X010150Y001247D02*
X010046Y001229D01*
X009917Y001044D01*
X010286Y000786D01*
X010163Y000872D02*
X010292Y001056D01*
X010273Y001161D01*
X010150Y001247D01*
X009825Y000913D02*
X010071Y000741D01*
X010108Y000532D01*
X009899Y000495D01*
X009653Y000667D01*
X010838Y002360D02*
X010943Y002378D01*
X003164Y003896D02*
X003089Y003821D01*
X003164Y003896D02*
X003164Y004046D01*
X003089Y004121D01*
X003014Y004121D01*
X002939Y004046D01*
X002939Y003896D01*
X002864Y003821D01*
X002789Y003821D01*
X002714Y003896D01*
X002714Y004046D01*
X002789Y004121D01*
X002714Y004281D02*
X003164Y004281D01*
X003164Y004582D01*
X003164Y004742D02*
X002714Y004742D01*
X003164Y005042D01*
X002714Y005042D01*
X002789Y005202D02*
X002714Y005277D01*
X002714Y005427D01*
X002789Y005502D01*
X002789Y005663D02*
X003089Y005663D01*
X003164Y005738D01*
X003164Y005888D01*
X003089Y005963D01*
X002789Y005963D01*
X002714Y005888D01*
X002714Y005738D01*
X002789Y005663D01*
X003014Y005502D02*
X002939Y005427D01*
X002939Y005277D01*
X002864Y005202D01*
X002789Y005202D01*
X003089Y005202D02*
X003164Y005277D01*
X003164Y005427D01*
X003089Y005502D01*
X003014Y005502D01*
X003014Y006123D02*
X003014Y006348D01*
X002939Y006423D01*
X002789Y006423D01*
X002714Y006348D01*
X002714Y006123D01*
X003164Y006123D01*
X003014Y006273D02*
X003164Y006423D01*
X002306Y006405D02*
X001046Y006405D01*
X001046Y006357D02*
X002306Y006357D01*
X002306Y006308D02*
X001046Y006308D01*
X001046Y006260D02*
X002306Y006260D01*
X002306Y006211D02*
X001046Y006211D01*
X001046Y006163D02*
X002306Y006163D01*
X002306Y006114D02*
X001046Y006114D01*
X001046Y006065D02*
X002306Y006065D01*
X002306Y006017D02*
X001046Y006017D01*
X001046Y005968D02*
X002306Y005968D01*
X002306Y005920D02*
X001046Y005920D01*
X001046Y005871D02*
X002306Y005871D01*
X002306Y005823D02*
X001046Y005823D01*
X001046Y005774D02*
X002306Y005774D01*
X002306Y005726D02*
X001046Y005726D01*
X001046Y005677D02*
X002296Y005677D01*
X002306Y005686D02*
X002306Y007694D01*
X001046Y007694D01*
X001046Y005568D01*
X002187Y005568D01*
X002306Y005686D01*
X002248Y005629D02*
X001046Y005629D01*
X001046Y005580D02*
X002199Y005580D01*
X002306Y006454D02*
X001046Y006454D01*
X001046Y006502D02*
X002306Y006502D01*
X002306Y006551D02*
X001046Y006551D01*
X001046Y006599D02*
X002306Y006599D01*
X002306Y006648D02*
X001046Y006648D01*
X001046Y006696D02*
X002306Y006696D01*
X002306Y006745D02*
X001046Y006745D01*
X001046Y006794D02*
X002306Y006794D01*
X002306Y006842D02*
X001046Y006842D01*
X001046Y006891D02*
X002306Y006891D01*
X002306Y006939D02*
X001046Y006939D01*
X001046Y006988D02*
X002306Y006988D01*
X002306Y007036D02*
X001046Y007036D01*
X001046Y007085D02*
X002306Y007085D01*
X002306Y007133D02*
X001046Y007133D01*
X001046Y007182D02*
X002306Y007182D01*
X002306Y007230D02*
X001046Y007230D01*
X001046Y007279D02*
X002306Y007279D01*
X002306Y007328D02*
X001046Y007328D01*
X001046Y007376D02*
X002306Y007376D01*
X002306Y007425D02*
X001046Y007425D01*
X001046Y007473D02*
X002306Y007473D01*
X002306Y007522D02*
X001046Y007522D01*
X001046Y007570D02*
X002306Y007570D01*
X002306Y007619D02*
X001046Y007619D01*
X001046Y007667D02*
X002306Y007667D01*
X002714Y004582D02*
X002714Y004281D01*
X002939Y004281D02*
X002939Y004432D01*
D13*
X005318Y006099D02*
X005320Y006114D01*
X005326Y006127D01*
X005335Y006139D01*
X005346Y006148D01*
X005360Y006154D01*
X005375Y006156D01*
X005390Y006154D01*
X005403Y006148D01*
X005415Y006139D01*
X005424Y006128D01*
X005430Y006114D01*
X005432Y006099D01*
X005430Y006084D01*
X005424Y006071D01*
X005415Y006059D01*
X005404Y006050D01*
X005390Y006044D01*
X005375Y006042D01*
X005360Y006044D01*
X005347Y006050D01*
X005335Y006059D01*
X005326Y006070D01*
X005320Y006084D01*
X005318Y006099D01*
D14*
X005155Y005779D02*
X005155Y007789D01*
X007015Y007789D02*
X007015Y005779D01*
D15*
X005985Y006494D02*
X005885Y006494D01*
X005935Y006494D02*
X005935Y006644D01*
X005885Y006594D01*
X005837Y006619D02*
X005812Y006644D01*
X005762Y006644D01*
X005737Y006619D01*
X005737Y006594D01*
X005762Y006569D01*
X005812Y006569D01*
X005837Y006544D01*
X005837Y006519D01*
X005812Y006494D01*
X005762Y006494D01*
X005737Y006519D01*
X005690Y006519D02*
X005690Y006644D01*
X005590Y006644D02*
X005590Y006519D01*
X005615Y006494D01*
X005665Y006494D01*
X005690Y006519D01*
X005787Y006469D02*
X005787Y006669D01*
M02*
