G75*
G70*
%OFA0B0*%
%FSLAX24Y24*%
%IPPOS*%
%LPD*%
%AMOC8*
5,1,8,0,0,1.08239X$1,22.5*
%
%ADD10C,0.0000*%
%ADD11R,0.0433X0.0394*%
%ADD12R,0.0551X0.0394*%
%ADD13C,0.1005*%
%ADD14R,0.0240X0.0870*%
%ADD15R,0.0394X0.0551*%
%ADD16R,0.0472X0.0984*%
%ADD17R,0.0709X0.1181*%
%ADD18R,0.0630X0.1063*%
%ADD19R,0.0984X0.0472*%
%ADD20R,0.1181X0.0709*%
%ADD21R,0.1063X0.0630*%
%ADD22C,0.0200*%
D10*
X000101Y000726D02*
X000101Y012537D01*
X011912Y012537D01*
X011912Y000726D01*
X000101Y000726D01*
D11*
X004043Y005256D03*
X004043Y005926D03*
X004018Y007063D03*
X004018Y007732D03*
X007659Y008703D03*
X007659Y009373D03*
D12*
X007676Y007995D03*
X007676Y007247D03*
X008543Y007621D03*
D13*
X008566Y006160D02*
X007856Y005449D01*
X008015Y004231D02*
X007305Y003520D01*
X009532Y002982D02*
X010355Y002406D01*
X004591Y004246D02*
X003586Y004246D01*
X003383Y009067D02*
X004388Y009067D01*
D14*
X005335Y008109D03*
X005835Y008109D03*
X006335Y008109D03*
X006835Y008109D03*
X006835Y005459D03*
X006335Y005459D03*
X005835Y005459D03*
X005335Y005459D03*
D15*
X003339Y010134D03*
X002591Y010134D03*
X002965Y011000D03*
D16*
X005061Y010962D03*
X006951Y010962D03*
X006951Y002300D03*
X005061Y002300D03*
D17*
X006006Y002300D03*
X006006Y010962D03*
D18*
X007817Y010962D03*
X008920Y010962D03*
X004195Y002300D03*
X003093Y002300D03*
D19*
X001676Y005686D03*
X001676Y007576D03*
X010337Y007576D03*
X010337Y005686D03*
D20*
X010337Y006631D03*
X001676Y006631D03*
D21*
X001676Y004820D03*
X001676Y003718D03*
X010337Y008442D03*
X010337Y009545D03*
D22*
X008920Y009545D01*
X008920Y008009D01*
X008565Y007655D01*
X008543Y007621D01*
X007699Y007222D02*
X008211Y006710D01*
X008211Y005804D01*
X007660Y005411D01*
X007660Y003875D01*
X006518Y003206D02*
X006518Y003167D01*
X006912Y002773D01*
X006912Y002379D01*
X006951Y002300D01*
X009943Y002300D01*
X009943Y002694D01*
X009983Y002773D01*
X009983Y005726D01*
X010337Y005686D01*
X010337Y007576D02*
X010337Y008442D01*
X008920Y009545D02*
X008920Y010962D01*
X008880Y011041D01*
X008880Y011867D01*
X002817Y011867D01*
X000770Y009820D01*
X000770Y003757D01*
X001597Y003757D01*
X001676Y003718D01*
X003093Y002300D01*
X003487Y003206D02*
X006518Y003206D01*
X006321Y004230D02*
X004353Y004230D01*
X004089Y004246D01*
X004077Y004269D01*
X004077Y005253D01*
X004043Y005256D01*
X004043Y005926D02*
X004077Y005962D01*
X004077Y006198D01*
X005809Y006198D01*
X005809Y005489D01*
X005835Y005459D01*
X006321Y005450D02*
X006335Y005459D01*
X006321Y005450D02*
X006321Y004230D01*
X006835Y005459D02*
X006872Y005489D01*
X008132Y005489D01*
X008132Y005765D01*
X008211Y005804D01*
X007699Y007222D02*
X007676Y007247D01*
X007676Y007995D02*
X007660Y008009D01*
X007660Y008678D01*
X007659Y008703D01*
X007620Y009348D02*
X007659Y009373D01*
X007620Y009348D02*
X006833Y009348D01*
X006833Y008127D01*
X006835Y008109D01*
X006335Y008109D02*
X006321Y008088D01*
X006321Y007064D01*
X004038Y007064D01*
X004018Y007063D01*
X004018Y007732D02*
X003998Y007734D01*
X002542Y008560D01*
X002542Y010056D01*
X002581Y010096D01*
X002591Y010134D01*
X002069Y010529D02*
X002463Y010923D01*
X002896Y010923D01*
X002965Y011000D01*
X002975Y010962D01*
X005061Y010962D01*
X005101Y010883D01*
X005101Y009820D01*
X005337Y009820D01*
X005337Y008206D01*
X005298Y008127D01*
X005335Y008109D01*
X003885Y009067D02*
X003880Y009072D01*
X003880Y009584D01*
X003369Y010096D01*
X003339Y010134D01*
X002069Y010529D02*
X002069Y007615D01*
X001872Y007576D01*
X001676Y007576D01*
X002069Y007615D01*
X002778Y007615D01*
X002778Y003915D01*
X003487Y003206D01*
X004195Y002300D02*
X005061Y002300D01*
X001676Y004820D02*
X001676Y005686D01*
X006951Y010962D02*
X007817Y010962D01*
M02*
